<?xml version="1.0" encoding="utf-8"?>
<!-- Generator: Adobe Illustrator 22.0.1, SVG Export Plug-In . SVG Version: 6.00 Build 0)  -->
<svg version="1.1" id="Capa_1" xmlns="http://www.w3.org/2000/svg" xmlns:xlink="http://www.w3.org/1999/xlink" x="0px" y="0px"
	 viewBox="0 0 480.2 480.2" style="enable-background:new 0 0 480.2 480.2;" xml:space="preserve">
<style type="text/css">
	.st0{fill:#CCCCCC;}
</style>
<g>
	<g>
		<path class="st0" d="M475.1,320.6c-52.6-19.5-107.4-32.1-163.2-37.5c-0.7-15-0.5-68.6,36.8-100.3c24.2,7.8,47.5,18,69.6,30.6
			c1.1,1.1,2.4,1.9,4,2.3c15.7,9.1,30.7,19.4,45,30.7c3.4,2.8,8.5,2.2,11.2-1.2c2.8-3.4,2.2-8.5-1.2-11.2c0,0,0,0-0.1-0.1
			c-14.3-11.3-29.3-21.6-44.9-30.9v-28.3c9.6-3.4,16-12.4,16-22.5v-24c0-13.3-10.7-24-24-24s-24,10.7-24,24v24
			c0,10.1,6.4,19.1,16,22.5V194c-38.7-20.6-80.6-34.3-124-40.7c-1.8-1.1-3.9-1.4-6-0.9c-55.9-7.3-112.7-1.7-166,16.3v-17.4
			c23.1-3.9,40-23.9,40-47.3v-56c0-26.5-21.5-48-48-48s-48,21.5-48,48v56c0,23.4,16.9,43.4,40,47.3v23.2
			c-36.6,14.3-70.8,34.3-101.1,59.4c-3.5,2.7-4.1,7.7-1.4,11.2c2.7,3.5,7.7,4.1,11.2,1.4c0.1-0.1,0.3-0.2,0.4-0.3
			c27.4-22.6,58.1-41,90.9-54.5v48.3c0,4.4,3.6,8,8,8s8-3.6,8-8v-54.5c47.9-17,99-23.4,149.6-18.9c-29.5,30.6-48.1,70-53,112.1
			c-13,0.2-26,0.7-39,1.5c-1.5-0.3-3.1-0.2-4.6,0.4C116.3,284.3,60,295,5.7,312.5c-4.2,1.4-6.5,5.9-5.1,10.1s5.9,6.5,10.1,5.1
			c38.8-12.6,78.7-21.6,119.2-26.6c3.7,5.1,62.8,89.2,70.3,171.8c0.4,4.1,3.8,7.2,8,7.2c0.2,0,0.5,0,0.7,0c4.4-0.4,7.7-4.3,7.3-8.7
			c0,0,0,0,0-0.1c-6.8-75.2-52.5-149-68.3-172.4c8.4-0.9,16.8-1.6,25.2-2.2c1.7,2,4.1,4.9,7.1,8.7c2.9,3.3,8,3.7,11.3,0.8
			c3.1-2.7,3.6-7.2,1.3-10.6c6.3-0.3,12.7-0.6,19-0.8c52.7,48.1,90.5,110.4,108.6,179.4c0.9,3.5,4.1,5.9,7.7,5.9
			c0.7,0,1.4-0.1,2.1-0.3c4.3-1.1,6.8-5.5,5.7-9.8c-17.6-66.2-52.2-126.7-100.5-175.3c79.8-0.2,158.9,13.6,233.9,40.8
			c4.1,1.6,8.8-0.5,10.3-4.6C481.3,326.9,479.2,322.2,475.1,320.6z M416.2,128.1c0-4.4,3.6-8,8-8s8,3.6,8,8v24c0,4.4-3.6,8-8,8
			s-8-3.6-8-8V128.1z M112.2,136.1c-17.7,0-32-14.3-32-32v-56c0-17.7,14.3-32,32-32s32,14.3,32,32v56
			C144.2,121.8,129.9,136.1,112.2,136.1z M272.6,279.9c0.2-3.6,0.4-7.3,0.8-10.9c0.4-4.4-2.8-8.3-7.2-8.7c-4.2-0.4-8,2.6-8.7,6.8
			c-0.5,4.1-0.7,8.2-0.9,12.3c-7.9-0.3-15.8-0.4-23.7-0.5c5.5-42.2,25.8-81,57.3-109.6c3.1,0.4,6.1,0.9,9.2,1.4
			c-1.2,1.5-2.5,3.1-3.9,4.9c-2.7,3.5-2,8.5,1.6,11.2c3.5,2.7,8.5,2,11.2-1.6c2.8-3.8,5.9-7.5,9.1-11c4.5,1,9,2.1,13.6,3.3
			c-34.2,35.2-35.9,85.4-35.2,104.1C288.1,281,280.3,280.4,272.6,279.9z"/>
	</g>
</g>
<g>
	<g>
		<path class="st0" d="M273.3,445.4C273.3,445.4,273.3,445.4,273.3,445.4c-1.6-5.3-3.3-10.4-5.2-15.5c-1.5-4.2-6.1-6.3-10.3-4.8
			s-6.3,6.1-4.8,10.3c1.8,4.8,3.4,9.8,5,14.8c1,3.3,4.1,5.6,7.6,5.6c0.8,0,1.6-0.1,2.4-0.4C272.2,454.1,274.6,449.6,273.3,445.4z"/>
	</g>
</g>
<g>
	<g>
		<path class="st0" d="M252.5,392.2L252.5,392.2c-2.3-5-4.7-9.9-7.2-14.6c-2-3.9-6.8-5.5-10.8-3.5c-3.9,2-5.5,6.8-3.5,10.8
			c2.4,4.6,4.7,9.3,6.9,14.1c1.9,4,6.6,5.7,10.6,3.8S254.4,396.2,252.5,392.2z"/>
	</g>
</g>
<g>
	<g>
		<path class="st0" d="M225.3,342.2c-3-4.8-5.9-9.4-8.8-13.7c-2.4-3.7-7.4-4.7-11.1-2.2c-3.7,2.4-4.7,7.4-2.2,11.1
			c2.8,4.2,5.6,8.6,8.5,13.3c2.3,3.8,7.3,4.9,11,2.6C226.5,350.9,227.7,345.9,225.3,342.2z"/>
	</g>
</g>
<g>
	<g>
		<path class="st0" d="M284.6,207.3c-4-1.9-8.8-0.2-10.6,3.8c-2.4,5.1-4.6,10.2-6.5,15.4c-1.5,4.1,0.6,8.7,4.7,10.3
			c0.9,0.3,1.8,0.5,2.8,0.5c3.3,0,6.3-2.1,7.5-5.2c1.7-4.7,3.7-9.5,5.9-14.1C290.3,214,288.6,209.2,284.6,207.3z"/>
	</g>
</g>
</svg>
