<svg xmlns="http://www.w3.org/2000/svg" width="51.555" height="48.114" viewBox="0 0 51.555 48.114">
  <g id="_004-map" data-name="004-map" transform="translate(0 -16.019)">
    <g id="Grupo_1018" data-name="Grupo 1018" transform="translate(0 16.019)">
      <g id="Grupo_1017" data-name="Grupo 1017" transform="translate(0 0)">
        <path id="Caminho_344" data-name="Caminho 344" d="M50.876,19.54l-16.324-3.5a.935.935,0,0,0-.167-.019H34.36a.83.83,0,0,0-.216.027L18.038,20.368,1.071,16.046A.859.859,0,0,0,0,16.879V58.9a.859.859,0,0,0,.647.833l17.184,4.377a.847.847,0,0,0,.212.027.86.86,0,0,0,.218-.028L34.39,59.861l16.13,3.378a.848.848,0,0,0,.717-.172.859.859,0,0,0,.318-.667V20.381A.859.859,0,0,0,50.876,19.54ZM17.187,62.169,1.718,58.229V17.984l15.465,3.939v16.1l-.055-.019a.86.86,0,0,0-.543,1.632l.6.2v22.33Zm16.321-3.853L18.9,62.158V39.748l1.233-.617a.859.859,0,0,0-.768-1.537l-.465.233V21.914L33.508,18V41.355c-.012.008-.027.009-.039.017a.859.859,0,0,0-.212,1.2h0l.25.357V58.316Zm16.324,3.025-14.606-3.06V44l1.069.493a.845.845,0,0,0,.359.079.859.859,0,0,0,.361-1.639L35.226,42.1V17.941l14.606,3.133Z" transform="translate(0 -16.019)" fill="#fff"/>
      </g>
    </g>
    <g id="Grupo_1020" data-name="Grupo 1020" transform="translate(5.155 53.248)">
      <g id="Grupo_1019" data-name="Grupo 1019">
        <path id="Caminho_345" data-name="Caminho 345" d="M50.563,362.881a.859.859,0,0,0-1.213.076h0l-1.138,1.289a.86.86,0,0,0,1.289,1.138l1.138-1.289A.859.859,0,0,0,50.563,362.881Z" transform="translate(-47.997 -362.666)" fill="#fff"/>
      </g>
    </g>
    <g id="Grupo_1022" data-name="Grupo 1022" transform="translate(7.93 48.924)">
      <g id="Grupo_1021" data-name="Grupo 1021" transform="translate(0 0)">
        <path id="Caminho_346" data-name="Caminho 346" d="M77.447,322.617a.859.859,0,0,0-1.213.076h0l-2.183,2.471a.86.86,0,1,0,1.289,1.138l2.182-2.471A.859.859,0,0,0,77.447,322.617Z" transform="translate(-73.837 -322.402)" fill="#fff"/>
      </g>
    </g>
    <g id="Grupo_1024" data-name="Grupo 1024" transform="translate(11.75 44.279)">
      <g id="Grupo_1023" data-name="Grupo 1023">
        <path id="Caminho_347" data-name="Caminho 347" d="M112.155,281.1l-.833-1.5a.859.859,0,0,0-1.5.833l.539.973-.736.834a.859.859,0,1,0,1.289,1.138l1.138-1.289A.859.859,0,0,0,112.155,281.1Z" transform="translate(-109.405 -279.15)" fill="#fff"/>
      </g>
    </g>
    <g id="Grupo_1026" data-name="Grupo 1026" transform="translate(9.011 38.781)">
      <g id="Grupo_1025" data-name="Grupo 1025" transform="translate(0 0)">
        <path id="Caminho_348" data-name="Caminho 348" d="M87.252,231.543l-1.74-3.142a.859.859,0,0,0-1.5.833l1.74,3.142a.859.859,0,1,0,1.5-.833Z" transform="translate(-83.901 -227.958)" fill="#fff"/>
      </g>
    </g>
    <g id="Grupo_1028" data-name="Grupo 1028" transform="translate(6.871 34.921)">
      <g id="Grupo_1027" data-name="Grupo 1027">
        <path id="Caminho_349" data-name="Caminho 349" d="M66.738,192.6l-1.632-.544a.859.859,0,0,0-1.023,1.231l.833,1.5a.859.859,0,0,0,1.6-.515.861.861,0,0,0,.218-1.676Z" transform="translate(-63.975 -192.016)" fill="#fff"/>
      </g>
    </g>
    <g id="Grupo_1030" data-name="Grupo 1030" transform="translate(21.012 35.032)">
      <g id="Grupo_1029" data-name="Grupo 1029" transform="translate(0 0)">
        <path id="Caminho_350" data-name="Caminho 350" d="M200.109,193.532a.859.859,0,0,0-1.15-.393l-.012.006-2.826,1.413a.859.859,0,0,0,.385,1.627v0a.849.849,0,0,0,.383-.086l2.826-1.413A.859.859,0,0,0,200.109,193.532Z" transform="translate(-195.647 -193.051)" fill="#fff"/>
      </g>
    </g>
    <g id="Grupo_1032" data-name="Grupo 1032" transform="translate(10.751 36.214)">
      <g id="Grupo_1031" data-name="Grupo 1031" transform="translate(0 0)">
        <path id="Caminho_351" data-name="Caminho 351" d="M104.233,205.1l-3-1a.86.86,0,1,0-.544,1.632l3,1a.86.86,0,1,0,.543-1.632Z" transform="translate(-100.103 -204.056)" fill="#fff"/>
      </g>
    </g>
    <g id="Grupo_1034" data-name="Grupo 1034" transform="translate(25.951 33.203)">
      <g id="Grupo_1033" data-name="Grupo 1033" transform="translate(0 0)">
        <path id="Caminho_352" data-name="Caminho 352" d="M245.74,177.818l-.018-.026-.985-1.407a.859.859,0,0,0-1.088-.277l-1.537.769a.859.859,0,1,0,.756,1.543l.012-.006.874-.437.561.8a.859.859,0,0,0,1.425-.96Z" transform="translate(-241.63 -176.018)" fill="#fff"/>
      </g>
    </g>
    <g id="Grupo_1036" data-name="Grupo 1036" transform="translate(38.015 43.874)">
      <g id="Grupo_1035" data-name="Grupo 1035">
        <path id="Caminho_353" data-name="Caminho 353" d="M358.09,276.8l-2.928-1.352a.859.859,0,0,0-.72,1.559h0l2.928,1.352a.859.859,0,1,0,.72-1.56Z" transform="translate(-353.966 -275.379)" fill="#fff"/>
      </g>
    </g>
    <g id="Grupo_1038" data-name="Grupo 1038" transform="translate(29.866 36.586)">
      <g id="Grupo_1037" data-name="Grupo 1037" transform="translate(0 0)">
        <path id="Caminho_354" data-name="Caminho 354" d="M281.506,210.534l-1.85-2.642a.859.859,0,0,0-1.418.971l.009.013h0l1.854,2.643a.859.859,0,1,0,1.408-.985Z" transform="translate(-278.088 -207.518)" fill="#fff"/>
      </g>
    </g>
    <g id="Grupo_1040" data-name="Grupo 1040" transform="translate(43.117 45.277)">
      <g id="Grupo_1039" data-name="Grupo 1039">
        <path id="Caminho_355" data-name="Caminho 355" d="M404.733,290.811l-.338-1.688a.859.859,0,0,0-1.685.337l.006.029-.027-.013a.859.859,0,1,0-.72,1.56l1.56.72a.859.859,0,0,0,1.2-.945Z" transform="translate(-401.47 -288.444)" fill="#fff"/>
      </g>
    </g>
    <g id="Grupo_1042" data-name="Grupo 1042" transform="translate(43.012 38.614)">
      <g id="Grupo_1041" data-name="Grupo 1041" transform="translate(0 0)">
        <path id="Caminho_356" data-name="Caminho 356" d="M402.958,230.89l-.761-3.807a.859.859,0,0,0-1.685.337l.761,3.808a.859.859,0,0,0,.839.69.878.878,0,0,0,.172-.016A.859.859,0,0,0,402.958,230.89Z" transform="translate(-400.497 -226.404)" fill="#fff"/>
      </g>
    </g>
    <g id="Grupo_1044" data-name="Grupo 1044" transform="translate(42.094 34.03)">
      <g id="Grupo_1043" data-name="Grupo 1043" transform="translate(0 0)">
        <path id="Caminho_357" data-name="Caminho 357" d="M393.99,186.126l-.338-1.688a.859.859,0,0,0-1.7.279q0,.029.012.058l.337,1.685a.859.859,0,0,0,.841.687.813.813,0,0,0,.169-.01A.859.859,0,0,0,393.99,186.126Z" transform="translate(-391.945 -183.718)" fill="#fff"/>
      </g>
    </g>
    <g id="Grupo_1046" data-name="Grupo 1046" transform="translate(38.663 21.266)">
      <g id="Grupo_1045" data-name="Grupo 1045">
        <path id="Caminho_358" data-name="Caminho 358" d="M365.879,65.168a4.423,4.423,0,0,0-3.167,0A4.135,4.135,0,0,0,360,69.035a4.452,4.452,0,0,0,.728,2.435l2.848,4.369a.859.859,0,0,0,1.44,0l2.848-4.369a4.451,4.451,0,0,0,.728-2.435A4.137,4.137,0,0,0,365.879,65.168Zm.546,5.362L364.3,73.8l-2.129-3.265a2.736,2.736,0,0,1-.448-1.5,2.431,2.431,0,0,1,1.608-2.257,2.7,2.7,0,0,1,1.937,0,2.43,2.43,0,0,1,1.609,2.257A2.737,2.737,0,0,1,366.425,70.53Z" transform="translate(-360 -64.875)" fill="#fff"/>
      </g>
    </g>
    <g id="Grupo_1048" data-name="Grupo 1048" transform="translate(41.241 23.896)">
      <g id="Grupo_1047" data-name="Grupo 1047">
        <ellipse id="Elipse_114" data-name="Elipse 114" cx="1.718" cy="1.727" rx="1.718" ry="1.727" fill="#fff"/>
      </g>
    </g>
    <g id="Grupo_1050" data-name="Grupo 1050" transform="translate(22.341 47.954)">
      <g id="Grupo_1049" data-name="Grupo 1049">
        <path id="Caminho_359" data-name="Caminho 359" d="M215.461,319.288l-2.372-2.071,2.035-2.419a.859.859,0,0,0-1.286-1.14l-.029.034-2.014,2.395-2.348-2.051a.859.859,0,0,0-1.131,1.295l2.372,2.071-2.035,2.419a.859.859,0,1,0,1.286,1.14l.029-.034,2.014-2.394,2.348,2.051a.86.86,0,0,0,1.131-1.295Z" transform="translate(-208.022 -313.369)" fill="#fff"/>
      </g>
    </g>
    <g id="Grupo_1052" data-name="Grupo 1052" transform="translate(5.155 23.898)">
      <g id="Grupo_1051" data-name="Grupo 1051">
        <path id="Caminho_360" data-name="Caminho 360" d="M52.426,89.378A4.361,4.361,0,0,0,48,93.673c0,.022,0,.043,0,.065a4.361,4.361,0,1,0,4.427-4.36Zm0,7A2.643,2.643,0,0,1,49.718,93.8c0-.022,0-.044,0-.065A2.613,2.613,0,0,1,52.3,91.1a2.643,2.643,0,0,1,.131,5.284Z" transform="translate(-47.999 -89.377)" fill="#fff"/>
      </g>
    </g>
  </g>
</svg>
