<?xml version="1.0" encoding="utf-8"?>
<!-- Generator: Adobe Illustrator 24.0.1, SVG Export Plug-In . SVG Version: 6.00 Build 0)  -->
<svg version="1.1" id="Camada_1" xmlns="http://www.w3.org/2000/svg" xmlns:xlink="http://www.w3.org/1999/xlink" x="0px" y="0px"
	 viewBox="0 0 90 90" style="enable-background:new 0 0 90 90;" xml:space="preserve">
<style type="text/css">
	.st0{fill:#FFFFFF;}
</style>
<g id="_004-hiking" transform="translate(-32 -32)">
	<path id="Caminho_2364" class="st0" d="M90,57.9h5c4,0,7.2-3.2,7.2-7.2v-4.3c0-3.8-3.1-6.9-6.9-6.9s-6.9,3.1-6.9,6.9v9.9
		C88.4,57.2,89.1,57.9,90,57.9C90,57.9,90,57.9,90,57.9z M91.5,46.5c0-2.1,1.8-3.8,3.9-3.8c2.1,0,3.7,1.7,3.8,3.8v4.3
		c0,2.3-1.9,4.1-4.1,4.1h-3.5V46.5z"/>
	<path id="Caminho_2365" class="st0" d="M112.3,109.8l-3.3-7.6c-0.4-0.8-1.3-1.1-2-0.7c-0.7,0.3-1.1,1.2-0.8,1.9l2.7,6.3h-2.8
		c0-0.1,0-0.1-0.1-0.2L93.9,91c-0.5-0.7-1.4-0.9-2.1-0.4c-0.1,0.1-0.2,0.1-0.2,0.2l-3.1,3.1c-1.6,1.6-2.3,3.8-2.1,6l1.1,10H85
		L81.5,96c-0.4-1.4-0.1-2.9,0.7-4.1l4.2-6.5c1.3-2,2.1-4.4,2.1-6.9v-8.4c0-0.8-0.7-1.5-1.5-1.5c-0.2,0-0.4,0-0.6,0.1l-8.6,3.5
		c-1.7,0.7-3.5,1-5.3,1h-0.7v-1.6h0.6c2.7,0,5.3-0.8,7.5-2.2l9.4-6.1c0.9-0.6,1.9-0.9,2.9-1.1l3.6-0.5c2.4-0.3,4.6,1.4,4.9,3.8
		c0,0.2,0,0.4,0,0.5v20.7c0,2.4,0.5,4.7,1.4,6.8l2,4.6c0.4,0.8,1.3,1.1,2,0.7c0.7-0.3,1.1-1.2,0.8-1.9l-2-4.6
		c-0.8-1.8-1.2-3.7-1.2-5.6v0c6-0.5,10.6-5.5,10.7-11.5v-4.6c-0.1-1.5-0.5-2.9-1.2-4.1c-1.9-3.6-5.7-5.7-9.7-5.7h-1.3
		c-0.2,0-0.3,0-0.5,0.1c-0.2-0.2-0.3-0.3-0.5-0.5c-1.6-1.4-3.7-2.1-5.9-1.8l-3.6,0.5c-1.5,0.2-2.9,0.7-4.2,1.5l-9.4,6.1
		c-1.7,1.1-3.8,1.7-5.9,1.7h-0.6V61c0-0.8-0.7-1.5-1.5-1.5c-0.8,0-1.5,0.7-1.5,1.5v7.6h-0.5c-2.1,0-3.8,1.7-3.8,3.8s1.7,3.8,3.8,3.8
		h0.5v33.6H44.2c-5.9,0-10.7,4.8-10.7,10.7c0,0.8,0.7,1.5,1.5,1.5h85.4c0.8,0,1.5-0.7,1.5-1.5C122,115,117.8,110.4,112.3,109.8
		L112.3,109.8z M110.4,68.1c0.5,0.8,0.8,1.7,0.9,2.7v4.6c-0.1,4.3-3.3,7.9-7.6,8.4V66.2c0-0.7-0.1-1.4-0.3-2.1h0.1
		C106.3,64,109,65.6,110.4,68.1z M89.4,99.5c-0.1-1.3,0.3-2.6,1.2-3.5l1.7-1.7l10.1,15.5h-12L89.4,99.5z M68.1,73.2
		c-0.4,0-0.8-0.4-0.8-0.8c0-0.4,0.3-0.7,0.8-0.8h0.5v1.6H68.1z M71.7,76.2h0.7c2.2,0,4.4-0.4,6.5-1.3l6.5-2.6v6.2
		c0,1.9-0.5,3.7-1.6,5.2l-4.2,6.5c-1.3,1.9-1.7,4.3-1.1,6.6l3.4,13H71.7V76.2z M36.7,118.9c0.7-3.5,3.9-6.1,7.5-6.1h67.1
		c3.6,0,6.7,2.6,7.5,6.1H36.7z"/>
	<path id="Caminho_2366" class="st0" d="M50.3,57.9c4.2,0,7.6-3.4,7.6-7.6s-3.4-7.6-7.6-7.6c-4.2,0-7.6,3.4-7.6,7.6l0,0
		C42.7,54.5,46.1,57.9,50.3,57.9z M50.3,45.7c2.5,0,4.6,2,4.6,4.6s-2,4.6-4.6,4.6s-4.6-2-4.6-4.6C45.7,47.8,47.8,45.7,50.3,45.7
		L50.3,45.7z"/>
	<path id="Caminho_2367" class="st0" d="M48.8,61v6.1c0,0.8,0.7,1.5,1.5,1.5c0.8,0,1.5-0.7,1.5-1.5l0,0V61c0-0.8-0.7-1.5-1.5-1.5
		C49.5,59.5,48.8,60.1,48.8,61z"/>
	<path id="Caminho_2368" class="st0" d="M50.3,41.2c0.8,0,1.5-0.7,1.5-1.5v0v-6.1c0-0.8-0.7-1.5-1.5-1.5c-0.8,0-1.5,0.7-1.5,1.5v6.1
		C48.8,40.5,49.5,41.2,50.3,41.2C50.3,41.2,50.3,41.2,50.3,41.2z"/>
	<path id="Caminho_2369" class="st0" d="M59.5,50.3c0,0.8,0.7,1.5,1.5,1.5l0,0h6.1c0.8,0,1.5-0.7,1.5-1.5c0-0.8-0.7-1.5-1.5-1.5l0,0
		H61C60.1,48.8,59.5,49.5,59.5,50.3C59.5,50.3,59.5,50.3,59.5,50.3z"/>
	<path id="Caminho_2370" class="st0" d="M39.6,51.8c0.8,0,1.5-0.7,1.5-1.5c0-0.8-0.7-1.5-1.5-1.5l0,0h-6.1c-0.8,0-1.5,0.7-1.5,1.5
		c0,0.8,0.7,1.5,1.5,1.5H39.6z"/>
	<path id="Caminho_2371" class="st0" d="M56.9,56.6c-0.6,0.6-0.6,1.6,0,2.2c0,0,0,0,0,0l4.4,4.2c0.6,0.6,1.6,0.5,2.2-0.2
		c0.5-0.6,0.5-1.5,0-2l-4.4-4.2C58.5,56,57.5,56,56.9,56.6z"/>
	<path id="Caminho_2372" class="st0" d="M41.5,44c0.6,0.6,1.5,0.6,2.2,0.1c0.6-0.6,0.6-1.5,0.1-2.2c0,0-0.1-0.1-0.1-0.1l-4.4-4.2
		c-0.6-0.6-1.6-0.5-2.2,0.2c-0.5,0.6-0.5,1.5,0,2L41.5,44z"/>
	<path id="Caminho_2373" class="st0" d="M58,44.4c0.4,0,0.8-0.2,1.1-0.4l4.4-4.2c0.6-0.6,0.6-1.6-0.1-2.2c-0.6-0.5-1.5-0.6-2,0
		L57,41.8c-0.6,0.6-0.6,1.5,0,2.2C57.2,44.3,57.6,44.4,58,44.4L58,44.4z"/>
	<path id="Caminho_2374" class="st0" d="M41.5,56.6l-4.4,4.2c-0.6,0.6-0.6,1.6,0.1,2.2c0.6,0.5,1.5,0.6,2,0l4.4-4.2
		c0.6-0.6,0.7-1.5,0.2-2.2c-0.6-0.6-1.5-0.7-2.2-0.2C41.6,56.5,41.6,56.6,41.5,56.6z"/>
</g>
</svg>
