<?xml version="1.0" encoding="utf-8"?>
<!-- Generator: Adobe Illustrator 24.0.1, SVG Export Plug-In . SVG Version: 6.00 Build 0)  -->
<svg version="1.1" id="Camada_1" xmlns="http://www.w3.org/2000/svg" xmlns:xlink="http://www.w3.org/1999/xlink" x="0px" y="0px"
	 viewBox="0 0 90.4 90" style="enable-background:new 0 0 90.4 90;" xml:space="preserve">
<style type="text/css">
	.st0{fill:#FFFFFF;}
</style>
<g id="_005-sauna" transform="translate(0 -1.1)">
	<g id="Grupo_3228" transform="translate(0 16.515)">
		<g id="Grupo_3227" transform="translate(0 0)">
			<path id="Caminho_2331" class="st0" d="M89.1,45.4h-2c-1.9-5.2-7.6-7.9-12.8-6.1c-0.9,0.3-1.7,0.7-2.5,1.3c-3-1.9-6.8-2-9.8-0.2
				c-1.7-1.2-3.6-1.9-5.7-2c0.5-1.3,0.9-2.6,1-4c2.6-0.1,4.7-2.3,4.6-5c-0.1-1.6-0.9-3-2.2-3.9c0-0.1,0-0.1,0-0.2v-3.5
				c0-5.4-2.7-10.5-7.1-13.6c0.5-0.7,0.8-1.5,0.8-2.4V3.8c0-2.1-1.7-3.8-3.8-3.8H36.5c-2.1,0-3.8,1.7-3.8,3.8v2.1
				c0,0.9,0.3,1.7,0.8,2.4c-4.5,3.1-7.1,8.1-7.1,13.6v3.5c0,0.1,0,0.1,0,0.2C24.2,27,23.6,30,25,32.2c0.9,1.3,2.3,2.1,3.9,2.2
				c0.2,1.5,0.5,2.9,1.1,4.2c-0.7-0.2-1.4-0.2-2.2-0.2c-1.6,0-3.1,0.4-4.5,1c-5.4-4.1-13.2-3-17.2,2.4c-0.8,1.1-1.4,2.2-1.8,3.5H1.3
				C0.6,45.4,0,46,0,46.7C0,47.5,0.6,48,1.3,48h29c-1.4,1.9-2.2,4.3-2.1,6.7v9.1c-4.2-0.9-5.5-2-5.7-2.3c0-0.7-0.6-1.3-1.3-1.3
				c-0.7,0-1.3,0.6-1.3,1.3c0,2.1,2.4,3.7,7.5,4.8c5.2,1,10.5,1.5,15.8,1.5c10.1,0,18.9-1.5,21.9-3.8c0.6-0.4,0.7-1.3,0.2-1.9
				c-0.4-0.6-1.3-0.7-1.9-0.2c-1.6,1-3.4,1.6-5.3,1.9v-9.1c0.1-2.4-0.7-4.7-2.1-6.7h33.2c0.7,0,1.3-0.6,1.3-1.3
				C90.4,46,89.8,45.4,89.1,45.4L89.1,45.4z M57.5,27.7h0.1c0.1,0,0.3,0,0.4,0c1.1,0.4,1.7,1.7,1.2,2.8c-0.3,0.7-1,1.3-1.7,1.4
				L57.5,27.7z M28.8,31.8c-1.1-0.1-1.9-1.1-1.9-2.1c0-0.9,0.5-1.7,1.4-2c0.1,0,0.3,0,0.4,0h0.1L28.8,31.8z M36.5,2.7h13.3
				c0.5,0,1,0.4,1.1,0.8h-8.5c-0.7,0-1.3,0.6-1.3,1.3s0.6,1.3,1.3,1.3l0,0h8.5C50.7,6.7,50.3,7,49.8,7H36.5c-0.6,0-1.1-0.5-1.1-1.1
				c0,0,0,0,0,0V3.8l0,0C35.4,3.2,35.9,2.7,36.5,2.7L36.5,2.7z M29.1,25v-3.1l0,0c0-5.1,2.8-9.8,7.3-12.2h13.5
				c4.5,2.4,7.3,7.1,7.3,12.2V25h-5.4l-2.3-4c-0.2-0.4-0.7-0.7-1.1-0.7c-0.5,0-0.9,0.3-1.1,0.7l-2.4,4L29.1,25z M54.8,27.7v5.3
				c-0.1,6.5-5.4,11.6-11.8,11.5c-6.3-0.1-11.5-5.2-11.5-11.5v-5.3h13.6c0.8,0,1.5-0.4,1.9-1.1l1.3-2.3l1.3,2.3
				c0.4,0.7,1.1,1.1,1.9,1.1H54.8z M18,45.4H7c2.2-4.9,7.9-7.1,12.8-4.9c0.4,0.2,0.7,0.4,1.1,0.6C19.6,42.2,18.6,43.7,18,45.4z
				 M20.8,45.4c1.9-3.9,6.6-5.4,10.5-3.5c1.3,0.7,2.4,1.7,3.2,2.9c-0.4,0.2-0.7,0.4-1.1,0.6H20.8z M54,64.5v-6.3
				c0-0.7-0.6-1.3-1.3-1.3c-0.7,0-1.3,0.6-1.3,1.3v6.5c-2.5,0.2-5.2,0.4-8.3,0.4c-2.9,0-5.7-0.1-8.3-0.4v-6.6c0-0.7-0.6-1.3-1.3-1.3
				c-0.7,0-1.3,0.6-1.3,1.3v6.3c-0.5-0.1-0.9-0.1-1.3-0.2v-9.6c-0.1-2.5,1-5,3.1-6.5c1.3-0.9,2.9-1.6,4.5-1.9
				c0.1,0.1,0.3,0.1,0.4,0.1v1.7c0,0.7,0.6,1.3,1.3,1.3c0.7,0,1.3-0.6,1.3-1.3V47c0.5,0.1,1.1,0.1,1.6,0.1c0.5,0,1.1,0,1.6-0.1v1.1
				c0,0.7,0.6,1.3,1.3,1.3c0.7,0,1.3-0.6,1.3-1.3v-1.7c0.1,0,0.3-0.1,0.4-0.1c1.6,0.3,3.1,0.9,4.5,1.9c2.1,1.5,3.2,4,3.1,6.5v9.6
				l0,0C55,64.4,54.5,64.4,54,64.5L54,64.5z M52.8,45.4L52.8,45.4c-0.5-0.3-1-0.6-1.6-0.8c1.4-0.9,2.6-2.1,3.5-3.5
				c0.3-0.1,0.7-0.1,1-0.1c3,0,5.7,1.7,7,4.3L52.8,45.4z M68.3,45.4h-2.6c-0.4-1.1-0.9-2.1-1.7-3c1.9-0.8,4-0.7,5.8,0.2
				C69.2,43.4,68.6,44.4,68.3,45.4L68.3,45.4z M71.2,45.4c1.9-3.6,6.3-5,9.9-3.2c1.4,0.7,2.5,1.8,3.2,3.2H71.2z"/>
		</g>
	</g>
	<g id="Grupo_3230" transform="translate(10.047 77.945)">
		<g id="Grupo_3229">
			<path id="Caminho_2332" class="st0" d="M50.1,10.2c-0.1-0.7-0.8-1.2-1.5-1.1c0,0,0,0,0,0c-5.1,0.9-10.3,1.4-15.4,1.3
				c-8.3,0-16.2-1.1-22-3c-5.3-1.7-8.4-4-8.4-6.2C2.6,0.6,2.1,0,1.3,0C0.6,0,0,0.6,0,1.3C0,4.8,3.5,7.8,10.2,10
				c6.1,2,14.3,3.1,22.9,3.1c5.3,0,10.7-0.4,15.9-1.4C49.7,11.6,50.2,11,50.1,10.2C50.1,10.3,50.1,10.3,50.1,10.2z"/>
		</g>
	</g>
	<g id="Grupo_3232" transform="translate(62.857 70.084)">
		<g id="Grupo_3231">
			<path id="Caminho_2333" class="st0" d="M1.7,0.1C1-0.1,0.3,0.3,0.1,1C-0.1,1.7,0.3,2.4,1,2.6l0,0c6,1.8,9.7,4.3,9.7,6.6
				c0,2.1-3.1,4.4-8.3,6.1c-0.7,0.2-1.1,1-0.8,1.7c0.2,0.5,0.7,0.9,1.3,0.9c0.1,0,0.3,0,0.4-0.1c8.4-2.8,10.1-6.3,10.1-8.7
				C13.4,5.5,9.2,2.2,1.7,0.1z"/>
		</g>
	</g>
	<g id="Grupo_3234" transform="translate(33.607 46.378)">
		<g id="Grupo_3233">
			<path id="Caminho_2334" class="st0" d="M6.1,0.4c-0.5-0.5-1.4-0.5-1.9,0c-0.6,0.5-1.5,0.5-2,0c-0.5-0.5-1.4-0.5-1.9,0
				c-0.5,0.5-0.5,1.4,0,1.9c1.6,1.6,4.2,1.6,5.8,0C6.7,1.7,6.7,0.9,6.1,0.4z"/>
		</g>
	</g>
	<g id="Grupo_3236" transform="translate(45.896 46.378)">
		<g id="Grupo_3235">
			<path id="Caminho_2335" class="st0" d="M6.1,0.4c-0.5-0.5-1.4-0.5-1.9,0c-0.6,0.5-1.5,0.5-2,0c-0.5-0.5-1.4-0.5-1.9,0
				s-0.5,1.4,0,1.9c1.6,1.6,4.2,1.6,5.8,0C6.7,1.7,6.7,0.9,6.1,0.4z"/>
		</g>
	</g>
	<g id="Grupo_3238" transform="translate(11.778 30.058)">
		<g id="Grupo_3237">
			<path id="Caminho_2336" class="st0" d="M8.8,0H1.3C0.6,0,0,0.6,0,1.3c0,0.7,0.6,1.3,1.3,1.3l0,0h7.5c1,0,1.9,0.9,1.8,1.9
				c0,1-0.8,1.8-1.8,1.8H7.3C6.6,6.4,6,7,6,7.7C6,8.4,6.6,9,7.3,9h1.5c2.5,0,4.5-2,4.5-4.5C13.3,2,11.3,0,8.8,0L8.8,0z"/>
		</g>
	</g>
	<g id="Grupo_3240" transform="translate(6.463 36.327)">
		<g id="Grupo_3239">
			<path id="Caminho_2337" class="st0" d="M9.7,6.4H4.5c-1,0-1.9-0.9-1.8-1.9c0-1,0.8-1.8,1.8-1.8h1.8c0.7,0,1.3-0.6,1.3-1.3
				C7.6,0.6,7,0,6.3,0H4.5C2,0,0,2,0,4.5C0,7,2,9,4.5,9h5.2c0.1,0,0.1,0.1,0.1,0.2v3.2c0,0.7,0.6,1.3,1.3,1.3c0.7,0,1.3-0.6,1.3-1.3
				V9.2C12.4,7.7,11.2,6.4,9.7,6.4z"/>
		</g>
	</g>
	<g id="Grupo_3242" transform="translate(65.756 27.71)">
		<g id="Grupo_3241">
			<path id="Caminho_2338" class="st0" d="M12,6.4H4.5c-1,0-1.9-0.9-1.8-1.9c0-1,0.8-1.8,1.8-1.8h6.2c0.7,0,1.3-0.6,1.3-1.3
				C12,0.6,11.4,0,10.7,0H4.5C2,0,0,2,0,4.5C0,7,2,9,4.5,9H12c1,0,1.9,0.9,1.8,1.9c0,1-0.8,1.8-1.8,1.8h-1.8c-0.7,0-1.3,0.6-1.3,1.3
				c0,0.7,0.6,1.3,1.3,1.3l0,0H12c2.5,0,4.5-2,4.5-4.5C16.5,8.4,14.5,6.4,12,6.4z"/>
		</g>
	</g>
	<g id="Grupo_3244" transform="translate(63.602 40.388)">
		<g id="Grupo_3243">
			<path id="Caminho_2339" class="st0" d="M9.7,6.4H4.5c-1,0-1.9-0.9-1.8-1.9c0-1,0.8-1.8,1.8-1.8h1.8c0.7,0,1.3-0.6,1.3-1.3
				C7.6,0.6,7,0,6.3,0H4.5C2,0,0,2,0,4.5C0,7,2,9,4.5,9h5.2c0.1,0,0.1,0.1,0.1,0.2v2.1c0,0.7,0.6,1.3,1.3,1.3s1.3-0.6,1.3-1.3l0,0
				V9.2C12.4,7.7,11.2,6.4,9.7,6.4z"/>
		</g>
	</g>
	<g id="Grupo_3246" transform="translate(21.207 1.1)">
		<g id="Grupo_3245" transform="translate(0 0)">
			<path id="Caminho_2340" class="st0" d="M4.2,0C1.9,0,0,1.9,0,4.2s1.9,4.2,4.2,4.2c2.3,0,4.2-1.9,4.2-4.2c0,0,0,0,0,0
				C8.3,1.9,6.5,0,4.2,0z M4.2,5.7C3.3,5.7,2.6,5,2.6,4.2s0.7-1.5,1.5-1.5s1.5,0.7,1.5,1.5c0,0,0,0,0,0C5.7,5,5,5.7,4.2,5.7z"/>
		</g>
	</g>
	<g id="Grupo_3248" transform="translate(75.856 6.591)">
		<g id="Grupo_3247">
			<path id="Caminho_2341" class="st0" d="M4.2,0C1.9,0,0,1.9,0,4.2c0,2.3,1.9,4.2,4.2,4.2c2.3,0,4.2-1.9,4.2-4.2c0,0,0,0,0,0
				C8.3,1.9,6.5,0,4.2,0z M4.2,5.7C3.3,5.7,2.6,5,2.6,4.2s0.7-1.5,1.5-1.5c0.8,0,1.5,0.7,1.5,1.5C5.7,5,5,5.7,4.2,5.7z"/>
		</g>
	</g>
	<g id="Grupo_3250" transform="translate(57.122 10.141)">
		<g id="Grupo_3249">
			<path id="Caminho_2342" class="st0" d="M4.2,0C1.9,0,0,1.9,0,4.2c0,2.3,1.9,4.2,4.2,4.2c2.3,0,4.2-1.9,4.2-4.2c0,0,0,0,0,0
				C8.3,1.9,6.5,0,4.2,0z M4.2,5.7C3.3,5.7,2.6,5,2.6,4.2s0.7-1.5,1.5-1.5c0.8,0,1.5,0.7,1.5,1.5C5.7,5,5,5.7,4.2,5.7z"/>
		</g>
	</g>
	<g id="Grupo_3252" transform="translate(5.191 11.306)">
		<g id="Grupo_3251">
			<path id="Caminho_2343" class="st0" d="M4.2,0C1.9,0,0,1.9,0,4.2s1.9,4.2,4.2,4.2s4.2-1.9,4.2-4.2l0,0C8.3,1.9,6.5,0,4.2,0z
				 M4.2,5.7C3.3,5.7,2.6,5,2.6,4.2c0-0.8,0.7-1.5,1.5-1.5c0.8,0,1.5,0.7,1.5,1.5C5.7,5,5,5.7,4.2,5.7z"/>
		</g>
	</g>
</g>
</svg>
