<?xml version="1.0" encoding="utf-8"?>
<!-- Generator: Adobe Illustrator 24.0.1, SVG Export Plug-In . SVG Version: 6.00 Build 0)  -->
<svg version="1.1" id="Camada_1" xmlns="http://www.w3.org/2000/svg" xmlns:xlink="http://www.w3.org/1999/xlink" x="0px" y="0px"
	 viewBox="0 0 72.6 90" style="enable-background:new 0 0 72.6 90;" xml:space="preserve">
<style type="text/css">
	.st0{fill:#FFFFFF;}
</style>
<g id="_008-wine" transform="translate(-49.116)">
	<path id="Caminho_2270" class="st0" d="M72.1,26.3v-4.4c0-0.7-0.6-1.3-1.3-1.3s-1.3,0.6-1.3,1.3v3.6c-2.1-0.4-4.3-0.4-6.4,0V12.9
		h6.4v3.7c0,0.7,0.6,1.3,1.3,1.3s1.3-0.6,1.3-1.3v-3.7h0.1c1.9,0,3.4-1.5,3.4-3.4V3.4C75.5,1.5,74,0,72.2,0H60.3
		C58.5,0,57,1.5,57,3.4v6.2c0,1.9,1.5,3.4,3.4,3.4h0.1v13.4c-6.8,2.5-11.3,8.9-11.3,16.1v44.5c0,1.7,1.4,3.1,3.1,3.1h28.1
		c1.7,0,3.1-1.4,3.1-3.1V42.4C83.4,35.2,78.9,28.7,72.1,26.3z M60.3,10.3c-0.4,0-0.7-0.3-0.7-0.7V3.4c0-0.4,0.3-0.7,0.7-0.7h11.8
		c0.4,0,0.7,0.3,0.7,0.7v6.2c0,0.4-0.3,0.7-0.7,0.7H60.3z M80.7,86.9c0,0.2-0.2,0.4-0.4,0.4H52.2c-0.2,0-0.4-0.2-0.4-0.4V72.3h9.4
		c0.7,0,1.3-0.6,1.3-1.3s-0.6-1.3-1.3-1.3h-9.4V45.7h19c0.2,0,0.4,0.2,0.4,0.4v23c0,0.2-0.2,0.4-0.4,0.4h-4.3
		c-0.7,0-1.3,0.6-1.3,1.3s0.6,1.3,1.3,1.3h4.3c1.7,0,3.1-1.4,3.1-3.1v-23c0-1.7-1.4-3.1-3.1-3.1h-19c0-14.2,16-19.6,24.7-10.8
		c2.7,2.7,4.3,6.4,4.2,10.2V86.9z"/>
	<path id="Caminho_2271" class="st0" d="M120.4,86.7c-4.7-1-11.8-3.5-11.8-8.3V58.9c7.5-0.7,13-7.4,12.3-14.9
		c-0.1-0.6-0.1-1.1-0.3-1.7l-2.8-12.9c-0.3-1.2-1.3-2-2.5-2.1H112c-0.7,0-1.3,0.6-1.3,1.3s0.6,1.3,1.3,1.3l0,0h3.2l2.8,12.9
		c0.2,1,0.3,2.1,0.2,3.1h-6.4c-1.2,0-2.3-0.6-2.9-1.5c-1.2-1.7-3.1-2.6-5.1-2.6h-7.1L99.5,30h7.2c0.7,0,1.3-0.6,1.3-1.3
		s-0.6-1.3-1.3-1.3h-7.3c-1.2,0-2.3,0.8-2.5,2L94,42.1c-1.7,7.4,2.8,14.8,10.2,16.5c0.6,0.1,1.2,0.2,1.8,0.3c0,22.4,0,19.2,0,19.5
		c0,5.2-8.3,7.5-11.8,8.3c-0.9,0.2-1.4,1.1-1.2,1.9c0.2,0.7,0.8,1.3,1.6,1.3c0.1,0,25.7,0,25.7,0c0.9-0.1,1.6-0.8,1.5-1.7
		C121.7,87.4,121.1,86.8,120.4,86.7z M96.3,44.5h7.5c1.2,0,2.3,0.6,2.9,1.5c1.2,1.7,3.1,2.6,5.1,2.6h5.9c-0.8,2.6-2.5,4.7-4.8,6.1
		c-5.2,3.1-12,1.4-15.1-3.9C96.7,49,96.1,46.7,96.3,44.5L96.3,44.5z M101.2,87.2c2.4-0.9,4.5-2.5,6.1-4.6c1.6,2.1,3.7,3.6,6.1,4.6
		H101.2z"/>
</g>
</svg>
