<?xml version="1.0" encoding="utf-8"?>
<!-- Generator: Adobe Illustrator 23.0.6, SVG Export Plug-In . SVG Version: 6.00 Build 0)  -->
<svg version="1.1" id="Capa_1" xmlns="http://www.w3.org/2000/svg" xmlns:xlink="http://www.w3.org/1999/xlink" x="0px" y="0px"
	 viewBox="0 0 512 512" style="enable-background:new 0 0 512 512;" xml:space="preserve">
<style type="text/css">
	.st0{fill:#FFFFFF;}
</style>
<path class="st0" d="M332.6,290.6l-16.8-8.5c-17.6-8.9-29-24.8-30.6-42.2V109.5l12.4-37c2.4-7.2-1.2-15.1-8.1-18.1l-11.8-5.1V22.1
	c0-12.2-9.9-22.1-22.1-22.1s-22.1,9.9-22.1,22.1v27.6l-11.1,4.7c-7,3-10.6,11-8.1,18.2l12.8,36.9v130.3
	c-1.6,17.4-13.1,33.3-30.6,42.2l-16.8,8.5c-43.6,22.1-70.7,63.5-70.7,108.2c0,62.2,56.3,113,125.5,113.2h43.6
	c69.2-0.2,125.5-51,125.5-113.2C403.3,354.1,376.2,312.7,332.6,290.6z M248.5,22.1c0-3.9,3.2-7,7-7c3.9,0,7,3.2,7,7v20.8
	c-4.9-2.1-9.1-1.7-14.1,0.4V22.1z M256.4,56.7c25.4,10.9,18.5,7.9,26.6,11.5l-10.9,32.6h-32.3l-11.3-32.6
	C257.2,56,255.7,56.4,256.4,56.7z M270,115.9v200.5c-8.9-2.5-18.7-2.6-28.1,0c0-3.1,0-196.7,0-200.5H270z M293.2,366.8
	c0,10.6-4.5,20.3-11.6,26.9c0,0,0,0,0,0c-14.4,13.7-36.9,13.7-51.3,0c0,0,0,0,0,0c-13.7-12.9-15.7-34.8-3.5-50.1
	C249,315.9,293.2,331.9,293.2,366.8L293.2,366.8z M307,378.6c24.5,20.3,20.6,47.6,17.9,58.1c-10.2,0.4-18.3-4-24.4-13.2
	c-6-8.9-7.6-18.3-7.9-19.4C299.6,397.3,304.7,388.5,307,378.6z M277.8,496.9h-43.5c-60.9-0.2-110.5-44.2-110.5-98.1
	c0-38.9,23.9-75.2,62.5-94.7c17.1-8.6,29-13.3,40.6-27.3v46.6c-14,9.4-23.2,25.4-23.2,43.4c0,38.9,41.1,64.2,75.7,46.8
	c7.6,25.3,25.8,41.8,52.4,37.6c2.7-0.4,4.9-2.2,5.9-4.7c7.8-20.3,9.1-61.1-29.7-85.7c-1.2-13.4-9.3-28.2-22.8-37.3v-46.6
	c11.6,14,23.5,18.7,40.6,27.3c38.5,19.5,62.5,55.8,62.5,94.7C388.2,452.7,338.7,496.7,277.8,496.9z"/>
</svg>
