<?xml version="1.0" encoding="utf-8"?>
<!-- Generator: Adobe Illustrator 24.0.1, SVG Export Plug-In . SVG Version: 6.00 Build 0)  -->
<svg version="1.1" id="_017-prayer" xmlns="http://www.w3.org/2000/svg" xmlns:xlink="http://www.w3.org/1999/xlink" x="0px"
	 y="0px" viewBox="0 0 90 90" style="enable-background:new 0 0 90 90;" xml:space="preserve">
<style type="text/css">
	.st0{fill:#FFFFFF;}
</style>
<g id="Grupo_3254" transform="translate(51.107 34.572)">
	<g id="Grupo_3253">
		<path id="Caminho_2344" class="st0" d="M37.5,7.1c-0.9-0.8-2.1-1.3-3.3-1.2c-0.5,0-0.9,0.1-1.4,0.3V4.4c0-2.4-2-4.4-4.4-4.4
			s-4.4,2-4.4,4.4v1.9c-2.3-0.9-4.8,0.2-5.7,2.5C18.1,9.3,18,9.9,18,10.4v3.4c-2.3-0.9-4.8,0.2-5.7,2.5c-0.2,0.5-0.3,1.1-0.3,1.6
			v9.2C5.2,27.9,0,33.6,0,40.5V54c0,0.8,0.6,1.4,1.4,1.4c0.8,0,1.4-0.6,1.4-1.4V40.5c0-5.9,4.8-10.6,10.6-10.6h6
			c0.5,0,0.9-0.3,1.2-0.7l7.7-7.9c0.3-0.3,0.7-0.5,1.1-0.5h0c0.4,0,0.8,0.2,1.1,0.5c0.6,0.6,0.6,1.6,0,2.3l-8,8.1
			c-0.5,0.6-0.5,1.4,0,2c0.6,0.5,1.4,0.5,2,0l0,0l8-8.1c1.6-1.6,1.7-4.2,0.2-6v-9.2c0-0.9,0.6-1.6,1.5-1.7c0.9,0,1.6,0.7,1.7,1.5
			c0,0,0,0,0,0.1v16L32,30.5c-0.6,0.6-0.6,1.4,0,2c0.6,0.6,1.4,0.6,2,0l0,0l4.5-4.5c0.3-0.3,0.4-0.6,0.4-1V10.3
			C38.9,9.1,38.4,8,37.5,7.1z M18,26.9v0.2h-3.2v-9.1c-0.1-0.9,0.6-1.6,1.5-1.7c0.9-0.1,1.6,0.6,1.7,1.5c0,0.1,0,0.1,0,0.2V26.9
			L18,26.9z M20.9,25V10.4c-0.1-0.9,0.6-1.6,1.5-1.7c0.9-0.1,1.6,0.6,1.7,1.5c0,0.1,0,0.1,0,0.2v11.2c0,0,0,0.1,0,0.1L20.9,25z
			 M30.1,18.1c-0.2,0-0.4,0-0.5,0h0c-1,0-1.9,0.3-2.6,0.9V4.4c-0.1-0.9,0.6-1.6,1.5-1.7c0.9-0.1,1.6,0.6,1.7,1.5c0,0.1,0,0.1,0,0.2
			V18.1L30.1,18.1z"/>
	</g>
</g>
<g id="Grupo_3256" transform="translate(64.635 69.144)">
	<g id="Grupo_3255">
		<path id="Caminho_2345" class="st0" d="M15.9,0.4c-0.6-0.6-1.4-0.6-2,0c0,0,0,0,0,0L9.5,4.8l-8.9,5.9C0.2,11,0,11.5,0,11.9v7.5
			c0,0.8,0.6,1.4,1.4,1.4c0.8,0,1.4-0.6,1.4-1.4v-6.8l8.4-5.6C11.3,7,11.4,7,11.4,6.9l4.5-4.5C16.5,1.9,16.5,1,15.9,0.4
			C15.9,0.4,15.9,0.4,15.9,0.4z"/>
	</g>
</g>
<g id="Grupo_3258" transform="translate(0 34.572)">
	<g id="Grupo_3257">
		<path id="Caminho_2346" class="st0" d="M26.9,27.1v-9.2c0-2.4-2-4.4-4.4-4.4c-0.5,0-1.1,0.1-1.6,0.3v-3.4c0-2.4-2-4.4-4.4-4.4
			c-0.5,0-1.1,0.1-1.6,0.3V4.4c0-2.4-2-4.4-4.4-4.4S6,2,6,4.4v1.8C5.6,6.1,5.1,6,4.6,5.9C2.2,5.8,0.1,7.7,0,10.1c0,0.1,0,0.1,0,0.2
			v3.1c0,0.8,0.6,1.4,1.4,1.4s1.4-0.6,1.4-1.4v-3.1c0-0.9,0.7-1.6,1.6-1.6c0,0,0,0,0.1,0C5.4,8.8,6,9.6,6,10.4v9.2
			c-1.5,1.7-1.4,4.3,0.2,6l8,8.1c0.5,0.6,1.4,0.6,2,0c0.6-0.5,0.6-1.4,0-2l0,0l-8-8.1c-0.6-0.6-0.6-1.6,0-2.3c0.6-0.6,1.6-0.6,2.3,0
			l7.7,7.9c0.3,0.4,0.7,0.7,1.2,0.7h6c5.9,0,10.6,4.8,10.6,10.6V54c0,0.8,0.6,1.4,1.4,1.4s1.4-0.6,1.4-1.4V40.5
			C38.9,33.6,33.7,27.9,26.9,27.1z M12,18.9c-0.9-0.7-2.1-1-3.2-0.9V4.4c0.1-0.9,0.8-1.6,1.7-1.5C11.3,3,12,3.6,12,4.4V18.9L12,18.9
			z M18,25l-3.2-3.2c0,0,0-0.1,0-0.1V10.4c-0.1-0.9,0.6-1.6,1.5-1.7c0.9-0.1,1.6,0.6,1.7,1.5c0,0.1,0,0.1,0,0.2V25L18,25z
			 M24.1,27.1h-3.2v-9.1c-0.1-0.9,0.6-1.6,1.5-1.7c0.9-0.1,1.6,0.6,1.7,1.5c0,0.1,0,0.1,0,0.2L24.1,27.1L24.1,27.1z"/>
	</g>
</g>
<g id="Grupo_3260" transform="translate(0 54.113)">
	<g id="Grupo_3259">
		<path id="Caminho_2347" class="st0" d="M24.7,25.8l-8.9-5.9l-13-13V1.4C2.8,0.6,2.2,0,1.4,0S0,0.6,0,1.4v6c0,0.4,0.1,0.7,0.4,1
			l13.5,13.5c0.1,0.1,0.1,0.1,0.2,0.2l8.4,5.6v6.8c0,0.8,0.6,1.4,1.4,1.4s1.4-0.6,1.4-1.4V27C25.4,26.5,25.1,26.1,24.7,25.8z"/>
	</g>
</g>
<g id="Grupo_3262" transform="translate(30.063 7.516)">
	<g id="Grupo_3261">
		<path id="Caminho_2348" class="st0" d="M28.5,13.5h-9.1V1.4c0-0.8-0.6-1.4-1.4-1.4h-6c-0.8,0-1.4,0.6-1.4,1.4v12.1H1.4
			c-0.8,0-1.4,0.6-1.4,1.4v6c0,0.8,0.6,1.4,1.4,1.4h9.1v27.2c0,0.8,0.6,1.4,1.4,1.4h6c0.8,0,1.4-0.6,1.4-1.4V22.4h9.1
			c0.8,0,1.4-0.6,1.4-1.4c0,0,0,0,0,0v-6C29.9,14.2,29.2,13.5,28.5,13.5C28.5,13.5,28.5,13.5,28.5,13.5z M27.1,19.5h-9.1
			c-0.8,0-1.4,0.6-1.4,1.4v27.2h-3.2V20.9c0-0.8-0.6-1.4-1.4-1.4H2.8v-3.2h9.1c0.8,0,1.4-0.6,1.4-1.4V2.8h3.2v12.1
			c0,0.8,0.6,1.4,1.4,1.4h9.1V19.5z"/>
	</g>
</g>
<g id="Grupo_3264" transform="translate(43.591)">
	<g id="Grupo_3263">
		<path id="Caminho_2349" class="st0" d="M1.4,0C0.6,0,0,0.6,0,1.4v3c0,0.8,0.6,1.4,1.4,1.4c0.8,0,1.4-0.6,1.4-1.4v-3
			C2.8,0.6,2.2,0,1.4,0z"/>
	</g>
</g>
<g id="Grupo_3266" transform="translate(31.566 3.222)">
	<g id="Grupo_3265">
		<path id="Caminho_2350" class="st0" d="M4.1,3.3L2.6,0.7C2.2,0,1.4-0.2,0.7,0.2C0,0.6-0.2,1.4,0.2,2.1l1.5,2.6
			c0.4,0.7,1.3,0.9,1.9,0.5C4.3,4.8,4.5,4,4.1,3.3z"/>
	</g>
</g>
<g id="Grupo_3268" transform="translate(22.763 12.025)">
	<g id="Grupo_3267">
		<path id="Caminho_2351" class="st0" d="M4.7,1.7L2.1,0.2C1.4-0.2,0.6,0,0.2,0.7C-0.2,1.4,0,2.2,0.7,2.6l2.6,1.5
			C4,4.5,4.8,4.3,5.2,3.6C5.6,2.9,5.4,2.1,4.7,1.7z"/>
	</g>
</g>
<g id="Grupo_3270" transform="translate(19.541 24.05)">
	<g id="Grupo_3269">
		<path id="Caminho_2352" class="st0" d="M4.4,0h-3C0.6,0,0,0.6,0,1.4s0.6,1.4,1.4,1.4c0,0,0,0,0,0h3c0.8,0,1.4-0.6,1.4-1.4
			S5.2,0,4.4,0C4.4,0,4.4,0,4.4,0z"/>
	</g>
</g>
<g id="Grupo_3272" transform="translate(22.763 34.572)">
	<g id="Grupo_3271">
		<path id="Caminho_2353" class="st0" d="M5.2,0.7C4.8,0,4-0.2,3.3,0.2c0,0,0,0,0,0L0.7,1.7C0,2.1-0.2,2.9,0.2,3.6
			C0.4,4,0.9,4.3,1.4,4.3c0.2,0,0.5-0.1,0.7-0.2l2.6-1.5C5.4,2.2,5.6,1.4,5.2,0.7C5.2,0.7,5.2,0.7,5.2,0.7z"/>
	</g>
</g>
<g id="Grupo_3274" transform="translate(31.57 42.275)">
	<g id="Grupo_3273">
		<path id="Caminho_2354" class="st0" d="M3.6,0.2C2.9-0.2,2.1,0,1.7,0.7c0,0,0,0,0,0L0.2,3.3C-0.2,4,0,4.8,0.7,5.2
			c0.7,0.4,1.5,0.2,1.9-0.5l0,0l1.5-2.6C4.5,1.4,4.3,0.6,3.6,0.2C3.6,0.2,3.6,0.2,3.6,0.2z"/>
	</g>
</g>
<g id="Grupo_3276" transform="translate(54.113 42.274)">
	<g id="Grupo_3275">
		<path id="Caminho_2355" class="st0" d="M4.1,3.3L2.6,0.7C2.2,0,1.4-0.2,0.7,0.2C0,0.6-0.2,1.4,0.2,2.1l1.5,2.6
			c0.4,0.7,1.3,0.9,1.9,0.5C4.3,4.8,4.5,4,4.1,3.3L4.1,3.3z"/>
	</g>
</g>
<g id="Grupo_3278" transform="translate(61.815 34.572)">
	<g id="Grupo_3277">
		<path id="Caminho_2356" class="st0" d="M4.7,1.7L2.1,0.2C1.4-0.2,0.6,0,0.2,0.7C-0.2,1.4,0,2.2,0.7,2.6l0,0l2.6,1.5
			C4,4.5,4.8,4.3,5.2,3.6C5.6,2.9,5.4,2.1,4.7,1.7z"/>
	</g>
</g>
<g id="Grupo_3280" transform="translate(64.635 24.05)">
	<g id="Grupo_3279">
		<path id="Caminho_2357" class="st0" d="M4.4,0h-3C0.6,0,0,0.6,0,1.4c0,0.8,0.6,1.4,1.4,1.4c0,0,0,0,0,0h3c0.8,0,1.4-0.6,1.4-1.4
			C5.8,0.6,5.2,0,4.4,0C4.4,0,4.4,0,4.4,0z"/>
	</g>
</g>
<g id="Grupo_3282" transform="translate(61.816 12.025)">
	<g id="Grupo_3281">
		<path id="Caminho_2358" class="st0" d="M5.2,0.7C4.8,0,4-0.2,3.3,0.2c0,0,0,0,0,0L0.7,1.7C0,2.1-0.2,2.9,0.2,3.6
			C0.4,4,0.9,4.3,1.4,4.3c0.2,0,0.5-0.1,0.7-0.2l2.6-1.5C5.4,2.2,5.6,1.4,5.2,0.7C5.2,0.7,5.2,0.7,5.2,0.7z"/>
	</g>
</g>
<g id="Grupo_3284" transform="translate(54.113 3.222)">
	<g id="Grupo_3283">
		<path id="Caminho_2359" class="st0" d="M3.6,0.2C2.9-0.2,2.1,0,1.7,0.7c0,0,0,0,0,0L0.2,3.3C-0.2,4,0,4.8,0.7,5.2
			c0.7,0.4,1.5,0.2,1.9-0.5l1.5-2.6C4.5,1.4,4.3,0.6,3.6,0.2C3.6,0.2,3.6,0.2,3.6,0.2z"/>
	</g>
</g>
<g id="Grupo_3286" transform="translate(9.745 4.509)">
	<g id="Grupo_3285">
		<path id="Caminho_2360" class="st0" d="M11.2,5.4L2.1,0.2C1.4-0.2,0.6,0,0.2,0.7C-0.2,1.4,0,2.2,0.7,2.6l9.1,5.3
			c0.7,0.4,1.5,0.2,1.9-0.5C12.1,6.7,11.9,5.8,11.2,5.4z"/>
	</g>
</g>
<g id="Grupo_3288" transform="translate(3.006 24.05)">
	<g id="Grupo_3287">
		<path id="Caminho_2361" class="st0" d="M11.9,0H1.4C0.6,0,0,0.6,0,1.4c0,0.8,0.6,1.4,1.4,1.4c0,0,0,0,0,0h10.5
			c0.8,0,1.4-0.6,1.4-1.4C13.3,0.6,12.7,0,11.9,0C11.9,0,11.9,0,11.9,0z"/>
	</g>
</g>
<g id="Grupo_3290" transform="translate(73.653 24.05)">
	<g id="Grupo_3289">
		<path id="Caminho_2362" class="st0" d="M11.9,0H1.4C0.6,0,0,0.6,0,1.4c0,0.8,0.6,1.4,1.4,1.4h10.5c0.8,0,1.4-0.6,1.4-1.4
			C13.3,0.6,12.7,0,11.9,0C11.9,0,11.9,0,11.9,0z"/>
	</g>
</g>
<g id="Grupo_3292" transform="translate(68.324 4.509)">
	<g id="Grupo_3291">
		<path id="Caminho_2363" class="st0" d="M11.7,0.7C11.4,0,10.5-0.2,9.8,0.2c0,0,0,0,0,0L0.7,5.4C0,5.8-0.2,6.7,0.2,7.4
			C0.6,8,1.4,8.3,2.1,7.9l9.1-5.3C11.9,2.2,12.1,1.4,11.7,0.7z"/>
	</g>
</g>
</svg>
