<svg id="_021-car" data-name="021-car" xmlns="http://www.w3.org/2000/svg" width="30" height="30" viewBox="0 0 30 30">
  <g id="Grupo_1363" data-name="Grupo 1363" transform="translate(19.831 22.881)">
    <g id="Grupo_1362" data-name="Grupo 1362">
      <path id="Caminho_543" data-name="Caminho 543" d="M314.542,360a2.542,2.542,0,1,0,2.542,2.542A2.542,2.542,0,0,0,314.542,360Zm0,4.068a1.525,1.525,0,1,1,1.525-1.525A1.525,1.525,0,0,1,314.542,364.068Z" transform="translate(-312 -360)" fill="#fff"/>
    </g>
  </g>
  <g id="Grupo_1365" data-name="Grupo 1365" transform="translate(0.508)">
    <g id="Grupo_1364" data-name="Grupo 1364">
      <path id="Caminho_544" data-name="Caminho 544" d="M35.966,15.763H32.277L29.552,6.681a1.515,1.515,0,0,0-1.213-1.068V2.542a.508.508,0,0,0-.508-.508h-.508V1.525a.508.508,0,1,0-1.017,0v.508H24.78V1.525a.508.508,0,1,0-1.017,0v.508h-.508a.508.508,0,0,0-.508-.508V.508A.508.508,0,0,0,22.237,0H17.661a.508.508,0,0,0-.508.508V1.525h-.508a.508.508,0,0,0-.508.508V3.559h-.508a.508.508,0,0,0,0,1.017h.508V5.593h-.183a1.529,1.529,0,0,0-1.495,1.226l-1.79,8.944H9.525A1.525,1.525,0,0,0,8,17.288v7.119a1.525,1.525,0,0,0,1.525,1.525h1.017a.508.508,0,0,0,.508-.508,3.559,3.559,0,1,1,7.119,0,.508.508,0,0,0,.508.508H25.8a.508.508,0,0,0,.508-.508,3.559,3.559,0,1,1,7.119,0,.508.508,0,0,0,.508.508h2.034a1.525,1.525,0,0,0,1.525-1.525V17.288A1.525,1.525,0,0,0,35.966,15.763Zm-4.751,0H27.831V8.644h1.249ZM23.254,3.051h4.068V5.593H23.254ZM18.169,1.017h3.559v.508H18.169ZM17.153,2.542h5.085V5.593H17.153Zm0,19.083a4.568,4.568,0,0,0-7.09,3.29H9.525a.508.508,0,0,1-.508-.508V17.288a.508.508,0,0,1,.508-.508h7.627Zm8.164,3.29H19.158a4.554,4.554,0,0,0-1.017-2.395.51.51,0,0,0,.028-.147V16.78h8.644v5.085a.485.485,0,0,0,.026.13A4.568,4.568,0,0,0,25.317,24.915Zm-7.147-9.153V9.153a.508.508,0,0,1,.508-.508h8.136v7.119Zm.508-8.136a1.525,1.525,0,0,0-1.525,1.525v6.61H13.705l1.749-8.746a.508.508,0,0,1,.5-.407H28.091a.505.505,0,0,1,.487.363l.2.654Zm17.8,16.78a.508.508,0,0,1-.508.508H34.412a4.574,4.574,0,0,0-6.582-3.59V16.78h8.136a.508.508,0,0,1,.508.508Z" transform="translate(-8)" fill="#fff"/>
    </g>
  </g>
  <g id="Grupo_1367" data-name="Grupo 1367" transform="translate(4.576 22.881)">
    <g id="Grupo_1366" data-name="Grupo 1366">
      <path id="Caminho_545" data-name="Caminho 545" d="M74.542,360a2.542,2.542,0,1,0,2.542,2.542A2.542,2.542,0,0,0,74.542,360Zm0,4.068a1.525,1.525,0,1,1,1.525-1.525A1.525,1.525,0,0,1,74.542,364.068Z" transform="translate(-72 -360)" fill="#fff"/>
    </g>
  </g>
  <g id="Grupo_1369" data-name="Grupo 1369" transform="translate(11.695 19.322)">
    <g id="Grupo_1368" data-name="Grupo 1368">
      <path id="Caminho_546" data-name="Caminho 546" d="M185.525,304h-1.017a.508.508,0,0,0,0,1.017h1.017a.508.508,0,0,0,0-1.017Z" transform="translate(-184 -304)" fill="#fff"/>
    </g>
  </g>
  <g id="Grupo_1371" data-name="Grupo 1371" transform="translate(0 28.983)">
    <g id="Grupo_1370" data-name="Grupo 1370">
      <path id="Caminho_547" data-name="Caminho 547" d="M29.492,456H.508a.508.508,0,1,0,0,1.017H29.492a.508.508,0,1,0,0-1.017Z" transform="translate(0 -456)" fill="#fff"/>
    </g>
  </g>
</svg>
