<?xml version="1.0" encoding="utf-8"?>
<!-- Generator: Adobe Illustrator 24.0.1, SVG Export Plug-In . SVG Version: 6.00 Build 0)  -->
<svg version="1.1" id="Camada_1" xmlns="http://www.w3.org/2000/svg" xmlns:xlink="http://www.w3.org/1999/xlink" x="0px" y="0px"
	 viewBox="0 0 90 90" style="enable-background:new 0 0 90 90;" xml:space="preserve">
<style type="text/css">
	.st0{fill:#FFFFFF;}
</style>
<g id="_032-mountain" transform="translate(0 -0.032)">
	<g id="Grupo_2917" transform="translate(0.004 3.054)">
		<g id="Grupo_2916">
			<path id="Caminho_2274" class="st0" d="M20.2,7.5c-1-1.3-2.5-2.1-4.2-2.1V4.7C15.9,2,13.6-0.1,10.9,0C8.3,0.1,6.2,2.2,6.2,4.7
				c0,0.4-0.4,0.7-0.8,0.7H4.9c-1.6,0-3.1,0.8-4.1,2.1c-1.1,1.6-1.1,3.7,0,5.3C1.8,14.2,3.3,15,4.9,15h11.2c1.6,0,3.1-0.8,4.1-2.1
				C21.3,11.3,21.3,9.1,20.2,7.5z M17.7,11.2c-0.4,0.5-1,0.8-1.6,0.8H4.9c-0.6,0-1.2-0.3-1.6-0.8c-0.4-0.6-0.4-1.3,0-1.9
				c0.4-0.5,1-0.8,1.6-0.8h0.5c2.1,0,3.7-1.6,3.8-3.7c0.1-1.1,1-1.9,2.1-1.8c0.9,0.1,1.7,0.8,1.8,1.8v0.7c0,1.7,1.4,3,3.1,3
				c0.6,0,1.2,0.3,1.6,0.8C18.1,9.8,18.1,10.6,17.7,11.2z"/>
		</g>
	</g>
	<g id="Grupo_2919" transform="translate(0 0.032)">
		<g id="Grupo_2918" transform="translate(0 0)">
			<path id="Caminho_2275" class="st0" d="M77.1,46.5h8c1.6,0,3.1-0.8,4.1-2.1c1.1-1.6,1.1-3.7,0-5.3c-1-1.3-2.5-2.1-4.2-2.1v-0.7
				c-0.1-2.7-2.4-4.8-5.1-4.7c-2.6,0.1-4.7,2.2-4.7,4.7c0,0.4-0.4,0.7-0.8,0.7h-0.4c-0.2,0-0.3,0-0.5,0.1c0,0,0,0,0-0.1l-9-22.5
				c-0.3-0.8-1.2-1.1-1.9-0.8c-0.4,0.1-0.7,0.4-0.8,0.8l-7.8,18.1L41.9,1c-0.2-0.6-0.8-1-1.4-1c-0.6,0-1.2,0.4-1.4,1L22.7,43.3
				l-1.8-6.2c-0.2-0.8-1.1-1.3-1.9-1c-0.4,0.1-0.8,0.4-1,0.8l-18,42c-0.3,0.8,0,1.6,0.8,2c0.7,0.3,1.6,0,2-0.7l0,0L19.2,42l1.8,6.5
				c0.2,0.8,1.1,1.3,1.9,1c0.5-0.1,0.8-0.5,1-0.9l6-15.4l3.3,6.6c0.4,0.7,1.3,1,2,0.7c0.2-0.1,0.4-0.2,0.5-0.4l4.8-6l4.8,6
				c0.3,0.4,0.7,0.6,1.2,0.6h0.2c0.5-0.1,1-0.4,1.2-0.8l3.2-6.3L72.1,89c0.3,0.8,1.2,1.1,2,0.8c0.7-0.3,1-1.1,0.8-1.8L55.4,36.5
				l1.8-4.2l4.7,4.7c0.6,0.6,1.5,0.6,2.1,0l4.4-4.4l2.2,5.4c0,0,0,0.1,0.1,0.1c-0.3,0.3-0.6,0.6-0.8,0.9c-1.1,1.6-1.1,3.7,0,5.3
				c0.9,1.3,2.4,2.1,4,2.1l13.3,33.6c0.3,0.8,1.1,1.2,1.9,0.9c0.8-0.3,1.2-1.1,0.9-1.9c0,0,0,0,0-0.1L77.1,46.5z M46.2,36.2
				l-4.5-5.7c-0.6-0.6-1.5-0.7-2.2-0.1c-0.1,0-0.1,0.1-0.2,0.1l-4.5,5.7l-3.5-6.9l9.1-23.6l9.1,23.9L46.2,36.2z M63,33.9l-4.5-4.5
				L63,18.9l4.3,10.7L63,33.9z M72.3,42.7c-0.4-0.6-0.4-1.3,0-1.9c0.4-0.5,1-0.8,1.6-0.8h0.4c2.1,0,3.8-1.6,3.8-3.7
				c0.1-1.1,1-1.9,2.1-1.8c0.9,0.1,1.7,0.8,1.8,1.8v0.7c0,1.7,1.4,3,3.1,3c0.6,0,1.2,0.3,1.6,0.8c0.4,0.6,0.4,1.3,0,1.9
				c-0.4,0.5-1,0.8-1.6,0.8H73.9C73.3,43.5,72.7,43.2,72.3,42.7z"/>
		</g>
	</g>
	<g id="Grupo_2921" transform="translate(12.009 64.532)">
		<g id="Grupo_2920">
			<path id="Caminho_2276" class="st0" d="M24.3,0h-0.5c-1.6,0-3.2,0.7-4.2,1.9C18.4,0.7,16.9,0,15.3,0h-0.5c-1.6,0-3.2,0.7-4.2,1.9
				C9.4,0.7,7.9,0,6.3,0H5.8C2.6,0,0,2.6,0,5.7v8c0,2.7,1.9,5,4.5,5.6V24c0,0.8,0.7,1.5,1.5,1.5s1.5-0.7,1.5-1.5v-4.6
				c1.2-0.3,2.2-0.9,3-1.8c0.8,0.9,1.8,1.5,3,1.8V24c0,0.8,0.7,1.5,1.5,1.5s1.5-0.7,1.5-1.5v-4.6c1.2-0.3,2.2-0.9,3-1.8
				c0.8,0.9,1.8,1.5,3,1.8V24c0,0.8,0.7,1.5,1.5,1.5s1.5-0.7,1.5-1.5v-4.6c2.6-0.6,4.5-2.9,4.5-5.6v-8C30,2.6,27.4,0,24.3,0z
				 M9,13.7c0,1.5-1.2,2.7-2.7,2.7H5.8c-1.5,0-2.7-1.2-2.7-2.7v-8C3,4.2,4.2,3,5.8,3h0.5C7.8,3,9,4.2,9,5.7V13.7z M18,13.7
				c0,1.5-1.2,2.7-2.7,2.7h-0.5c-1.5,0-2.7-1.2-2.7-2.7v-8C12,4.2,13.2,3,14.8,3h0.5C16.8,3,18,4.2,18,5.7V13.7z M27,13.7
				c0,1.5-1.2,2.7-2.7,2.7h-0.5c-1.5,0-2.7-1.2-2.7-2.7v-8C21,4.2,22.2,3,23.8,3h0.5C25.8,3,27,4.2,27,5.7V13.7z"/>
		</g>
	</g>
	<g id="Grupo_2923" transform="translate(45.008 64.532)">
		<g id="Grupo_2922">
			<path id="Caminho_2277" class="st0" d="M6.3,0H5.8C2.6,0,0,2.6,0,5.7v8c0,2.7,1.9,5,4.5,5.6V24c0,0.8,0.7,1.5,1.5,1.5
				s1.5-0.7,1.5-1.5v-4.6c2.6-0.6,4.5-2.9,4.5-5.6v-8C12,2.6,9.4,0,6.3,0z M9,13.7c0,1.5-1.2,2.7-2.7,2.7H5.8
				c-1.5,0-2.7-1.2-2.7-2.7v-8C3,4.2,4.2,3,5.8,3h0.5C7.8,3,9,4.2,9,5.7V13.7z"/>
		</g>
	</g>
</g>
</svg>
