<?xml version="1.0" encoding="utf-8"?>
<!-- Generator: Adobe Illustrator 24.0.1, SVG Export Plug-In . SVG Version: 6.00 Build 0)  -->
<svg version="1.1" id="Camada_1" xmlns="http://www.w3.org/2000/svg" xmlns:xlink="http://www.w3.org/1999/xlink" x="0px" y="0px"
	 viewBox="0 0 86.3 90" style="enable-background:new 0 0 86.3 90;" xml:space="preserve">
<style type="text/css">
	.st0{fill:#FFFFFF;}
</style>
<g id="_032-sardines" transform="translate(-10.393)">
	<path id="Caminho_2278" class="st0" d="M27.2,65.8c0,0.7,0.6,1.3,1.3,1.3c0.7,0,1.3-0.6,1.3-1.3V55.4c5.6,4.1,11.6,7.5,18,10.3
		l10.8,17.6c0.7,1.1,2.1,1.5,3.3,0.8c0.4-0.3,0.8-0.6,1-1.1c1-2.3,2.2-6.2,1.2-9.8c3.6,0.9,7.4-0.5,9.7-1.5c1.2-0.6,1.7-2,1.1-3.2
		c-0.2-0.5-0.6-0.8-1-1.1L55.2,57.2C48,42,36.6,28,20.5,23.2C19.3,13.1,26.5,4,36.6,2.8c6.2-0.7,12.3,1.8,16.3,6.6
		c1.1,1.3,3,1.5,4.2,0.4c0.1-0.1,0.3-0.3,0.4-0.4c6.4-7.8,18-8.9,25.8-2.5c0.9,0.7,1.7,1.5,2.4,2.4c0.5,0.6,1.3,0.6,1.9,0.2
		c0.6-0.5,0.6-1.3,0.2-1.9l0,0C80.3-1.4,67.1-2.5,58.2,4.9c-1,0.8-1.9,1.8-2.7,2.7c-0.1,0.1-0.3,0.2-0.5,0c0,0,0,0,0,0
		c-7.4-9-20.6-10.2-29.6-2.8c-5.2,4.3-8.1,10.9-7.6,17.6c-1.2-0.3-2.3-0.4-3.2-0.5c-2-0.3-3.8,1-4.1,2.9c-0.1,0.4-0.1,0.8,0,1.2
		c1,6.6,3.7,12.8,7.8,18.1c2.6,3.4,5.6,6.4,8.9,9.1L27.2,65.8L27.2,65.8z M59,66.1c-0.6-1.7-1.3-3.3-2-4.9l15,8.3
		c-2.6,1.1-6.8,2.3-9.7,0c-0.7-0.5-1.6-0.4-2.2,0.2c-0.5,0.6-0.5,1.4,0,2c2.4,2.8,1.4,7.1,0.4,9.7l-8.6-14c1.8,0.7,3.3,1.2,4.3,1.5
		c1.1,0.4,2.3-0.2,2.7-1.4C59.2,67.1,59.2,66.6,59,66.1L59,66.1z M13.1,25.7c-0.1-0.8,0.4-1.3,1.2-1.2C27.8,26.1,45,37.3,56.1,66
		C47.5,63,16.6,50.7,13.1,25.7L13.1,25.7z"/>
	<circle id="Elipse_125" class="st0" cx="21.1" cy="31.1" r="2.3"/>
	<path id="Caminho_2279" class="st0" d="M28.2,31.3c-0.7,0.1-1.2,0.8-1.1,1.5c0.1,1.3-0.2,2.5-1,3.5c-1.2,1.2-2.8,1.9-4.6,1.9
		c-0.7,0-1.3,0.7-1.3,1.4c0,0.7,0.7,1.3,1.4,1.3c0,0,0,0,0,0c2.9-0.2,5.1-1.2,6.5-2.9c1.2-1.6,1.7-3.6,1.5-5.6
		C29.6,31.6,28.9,31.2,28.2,31.3z"/>
	<path id="Caminho_2280" class="st0" d="M95.5,52.1l-12.2-6.7v-4.9c0-1.1,0.5-2.2,1.4-2.9c7.7-6,10.2-16.5,6.2-25.3
		c-0.3-0.7-1.1-1-1.8-0.7c-0.7,0.3-1,1.1-0.7,1.8c0,0,0,0,0,0c3.5,7.7,1.3,16.9-5.4,22.1c-1.5,1.2-2.4,3-2.4,5v3.5l-3.8-2.1
		c-5.5-11.6-12.4-20.5-20.5-26.7C47.8,8.8,40,7,36.2,6.6c-2-0.3-3.8,1-4.1,3c-0.1,0.4-0.1,0.8,0,1.2c1.6,11.4,8.5,21.5,20.5,30.1
		c0.6,0.4,1.4,0.3,1.9-0.3c0.4-0.6,0.3-1.4-0.3-1.9l0,0C42.7,30.5,36.2,21,34.7,10.4c-0.1-0.8,0.4-1.3,1.2-1.2
		C49.4,10.8,66.6,22,77.7,50.7c-6.7-2.3-13.2-5.4-19.2-9.1c-0.6-0.4-1.5-0.2-1.8,0.5c-0.4,0.6-0.2,1.4,0.4,1.8
		c4,2.4,8.1,4.6,12.4,6.4c11.7,19.1,10.9,17.8,11.2,18.1v16.8c0,1.2-0.9,2.1-2.1,2.1l0,0H32c-1.2,0-2.1-0.9-2.1-2.1V71.1
		c0-0.7-0.6-1.3-1.3-1.3s-1.3,0.6-1.3,1.3c0,0,0,0,0,0v14.1c0,2.6,2.1,4.8,4.8,4.8h46.5c2.6,0,4.8-2.1,4.8-4.8V68.9
		c0.5-0.2,1-0.7,1.2-1.2c1-2.3,2.2-6.2,1.2-9.8c3.6,0.9,7.4-0.5,9.7-1.5c1.2-0.6,1.7-2,1.1-3.2C96.3,52.7,95.9,52.4,95.5,52.1
		L95.5,52.1z M84,54.2c-0.7-0.5-1.6-0.4-2.2,0.3c-0.5,0.6-0.4,1.4,0,1.9c2.4,2.8,1.4,7.1,0.4,9.7l-8.6-14c1.8,0.7,3.3,1.2,4.3,1.6
		c1.1,0.4,2.3-0.2,2.7-1.4c0.2-0.5,0.1-1,0-1.4c-0.6-1.7-1.3-3.3-2-4.9l15,8.3C91.1,55.3,86.8,56.5,84,54.2L84,54.2z"/>
	<circle id="Elipse_126" class="st0" cx="42.7" cy="15.8" r="2.3"/>
	<path id="Caminho_2281" class="st0" d="M43.4,25.6c2.9-0.2,5.1-1.2,6.5-2.9c1.2-1.6,1.7-3.6,1.5-5.6c-0.1-0.7-0.8-1.2-1.5-1.1
		c-0.7,0.1-1.2,0.8-1.1,1.5c0.1,1.3-0.2,2.5-1,3.5c-1.2,1.2-2.8,1.9-4.6,1.9c-0.7,0-1.3,0.7-1.3,1.4C42,25.1,42.6,25.6,43.4,25.6
		C43.3,25.6,43.4,25.6,43.4,25.6L43.4,25.6z"/>
</g>
</svg>
