<svg xmlns="http://www.w3.org/2000/svg" width="40" height="39.871" viewBox="0 0 40 39.871">
  <path id="_038-jesus" data-name="038-jesus" d="M38.317,6.506h-7.34a.589.589,0,1,0,0,1.178h3.6a5.214,5.214,0,0,1-2.82,4.074l-6.469,3.308V7.684h3.336a.589.589,0,0,0,0-1.178H23.248V4.071a3.248,3.248,0,0,0-6.5,0V6.506H1.683a1.683,1.683,0,0,0,0,3.366H4.85a6.4,6.4,0,0,0,2.867,2.935l7.005,3.582V28.376H11.593a.9.9,0,0,0-.9.9v1.935a.9.9,0,0,0,.9.9h.882V35a.589.589,0,0,0,1.178,0V32.107H26.359c-.017.086-.012-.394-.012,7.357a.052.052,0,0,1-.052.052c-13.273,0-12.642.027-12.642-.052V37.357a.589.589,0,0,0-1.178,0v2.107a1.232,1.232,0,0,0,1.23,1.23H26.295a1.231,1.231,0,0,0,1.23-1.23c0-7.75.006-7.271-.012-7.357h.893a.9.9,0,0,0,.9-.9V29.274a.9.9,0,0,0-.9-.9H25.221V16.422l7.07-3.615a6.4,6.4,0,0,0,2.867-2.935h3.16a1.683,1.683,0,0,0,0-3.366ZM1.683,8.694a.505.505,0,0,1,0-1.011H4.25a6.429,6.429,0,0,0,.173,1.011Zm13.039,6.372L8.253,11.758a5.214,5.214,0,0,1-2.82-4.074h9.289Zm3.209-11a2.07,2.07,0,0,1,4.139,0v4.1A1.626,1.626,0,0,1,20.446,9.8h-.892A1.626,1.626,0,0,1,17.93,8.172v-4.1ZM15.9,7.684h.853v.488a2.8,2.8,0,0,0,2.8,2.8h.892a2.8,2.8,0,0,0,2.8-2.8V7.684h.8v10L15.9,21.87Zm6.4,18.2a.589.589,0,0,0-.589.589v1.907H20.589V20.785l1.125-.578v3.907a.589.589,0,0,0,1.178,0V19.6l1.151-.591v9.366H22.892V26.469A.589.589,0,0,0,22.3,25.88Zm-2.892-4.49v6.986H18.286V21.968Zm-3.511,1.8,1.208-.621v5.8H15.9Zm12.227,6.36v1.375H11.873V29.554ZM38.674,8.547c-.2.2-.133.148-3.09.148a6.431,6.431,0,0,0,.173-1.011h2.56A.506.506,0,0,1,38.674,8.547Z" transform="translate(0 -0.823)" fill="#fff"/>
</svg>
