<svg xmlns="http://www.w3.org/2000/svg" width="26" height="40" viewBox="0 0 26 40">
  <g id="_042-portuguese" data-name="042-portuguese" transform="translate(-83.766 -0.001)">
    <path id="Caminho_523" data-name="Caminho 523" d="M106.5,29.073a6.04,6.04,0,0,0-3.6-1.688,3.446,3.446,0,0,1-2-.57c2.466-1.188,3.483-3.971,3.6-6.733a3.372,3.372,0,0,0,.79-.193v1.566L103.7,23.982a.606.606,0,0,0,0,.648l1.7,2.675a.564.564,0,0,0,.959,0l1.7-2.675a.606.606,0,0,0,0-.648l-1.606-2.527V19.17a3.629,3.629,0,0,0-1.491-6.131V8.386a8.465,8.465,0,0,0-2.382-5.929,7.966,7.966,0,0,0-11.669.175C89.4,4.279,78.932,20.114,86.466,29.823a11.334,11.334,0,0,0-2.585,7.261A2.878,2.878,0,0,0,86.711,40h4.458a.591.591,0,0,0,0-1.182H88.534c1.295-2.838-.175-7.525-.639-8.849a4.632,4.632,0,0,1,2.486-1.318c-.011.039-.447,1.536-.455,1.575a3.719,3.719,0,0,0,3.4,4.614h7a3.487,3.487,0,0,0,3.228-2.365.6.6,0,0,0-.328-.764.568.568,0,0,0-.741.339,2.348,2.348,0,0,1-2.159,1.609h-7a2.546,2.546,0,0,1-2.282-3.165l.587-2.023A3.448,3.448,0,0,0,94,27.2a7.918,7.918,0,0,0,5.7.052,3.448,3.448,0,0,0,2.323,1.217l.482,1.65a.576.576,0,0,0,.549.421.588.588,0,0,0,.549-.761l-.33-1.129a4.612,4.612,0,0,1,2.487,1.318c-.463,1.323-1.934,6.011-.639,8.85H93.462a.591.591,0,0,0,0,1.182h13.475a2.878,2.878,0,0,0,2.83-2.917,11.423,11.423,0,0,0-3.263-8.01Zm.386-4.768-1.014,1.6-1.015-1.6.943-1.484a.511.511,0,0,0,.142,0Zm-1.932-10.029a2.435,2.435,0,0,1-.166,4.543A22.034,22.034,0,0,0,104.958,14.276Zm-1.384-7.756a8.266,8.266,0,0,0-3.471-3,3.188,3.188,0,0,0,1.21-.658A7.2,7.2,0,0,1,103.574,6.521ZM96.939,1.185a6.783,6.783,0,0,1,3.391.968,4.627,4.627,0,0,1-1.406.46,23.953,23.953,0,0,1-3.162.276,4.848,4.848,0,0,0,1.178-1.7ZM95.586,1.3a14.575,14.575,0,0,1-2.638,2.535,8.291,8.291,0,0,0-2.876,2.7A7.092,7.092,0,0,1,95.586,1.3ZM88.1,18.406a2.442,2.442,0,0,1,.594-4.13,21.724,21.724,0,0,0,.166,4.544,2.282,2.282,0,0,1-.448-.2A.572.572,0,0,0,88.1,18.406Zm.869,5.9-1.014,1.6-1.014-1.6.943-1.484a.512.512,0,0,0,.142,0ZM87.2,38.819h-.493a1.712,1.712,0,0,1-1.684-1.736,10.156,10.156,0,0,1,2-6.094C87.713,33.172,88.527,37.035,87.2,38.819Zm4.318-11.524a6.606,6.606,0,0,0-4.259,1.662C82.872,23.139,85.306,14.8,88.69,8.323c0,.169,0-.684,0,4.715a3.629,3.629,0,0,0-1.312,6.287v2.129l-1.606,2.527a.606.606,0,0,0,0,.648l1.7,2.675a.564.564,0,0,0,.959,0l1.7-2.675a.606.606,0,0,0,0-.648l-1.606-2.527v-1.5a3.369,3.369,0,0,0,.691.141,8.322,8.322,0,0,0,4.463,4.769A2.4,2.4,0,0,1,91.523,27.294Zm3.07-1.128a3.692,3.692,0,0,0,.213-.915,7.922,7.922,0,0,0,4.039,0,3.7,3.7,0,0,0,.234.972,6.8,6.8,0,0,1-4.487-.056Zm2.231-1.836a7.106,7.106,0,0,1-6.988-7.2v-3.06A7.234,7.234,0,0,1,93.293,7.85a.6.6,0,0,0,.2-.809.564.564,0,0,0-.784-.211,8.292,8.292,0,0,0-2.659,2.586,6.94,6.94,0,0,1,13.547.021A8.023,8.023,0,0,0,95,5.895a.592.592,0,0,0-.43.708.573.573,0,0,0,.687.444,7.053,7.053,0,0,1,8.558,7.021v3.06A7.106,7.106,0,0,1,96.824,24.331Zm3.147.528a8.185,8.185,0,0,0,2.938-2.175,4.908,4.908,0,0,1-2.736,3.173A2.5,2.5,0,0,1,99.971,24.859Zm6.965,13.96h-.493c-1.324-1.786-.5-5.665.185-7.846a10.47,10.47,0,0,1,1.992,6.11A1.712,1.712,0,0,1,106.936,38.819Z" transform="translate(0 0)" fill="#fff"/>
    <path id="Caminho_524" data-name="Caminho 524" d="M235.225,246.494a.945.945,0,0,1-1.365,0,.561.561,0,0,0-.811,0,.6.6,0,0,0,0,.836c1.438,1.482,3.818.022,2.986-.836A.561.561,0,0,0,235.225,246.494Z" transform="translate(-137.719 -226.915)" fill="#fff"/>
    <ellipse id="Elipse_120" data-name="Elipse 120" cx="0.914" cy="0.942" rx="0.914" ry="0.942" transform="translate(92.627 15.001)" fill="#fff"/>
    <path id="Caminho_525" data-name="Caminho 525" d="M185.084,153.761a.591.591,0,0,0-.444-.7,5.229,5.229,0,0,0-3.428.356.6.6,0,0,0,.306,1.091.558.558,0,0,0,.3-.091,4.2,4.2,0,0,1,2.585-.2A.574.574,0,0,0,185.084,153.761Z" transform="translate(-89.75 -140.875)" fill="#fff"/>
    <ellipse id="Elipse_121" data-name="Elipse 121" cx="0.914" cy="0.942" rx="0.914" ry="0.942" transform="translate(99.193 15.001)" fill="#fff"/>
    <path id="Caminho_526" data-name="Caminho 526" d="M278.02,154.234c.609-1-1.626-1.6-3.608-1.17a.591.591,0,0,0-.444.7.573.573,0,0,0,.678.458,4.249,4.249,0,0,1,2.584.2A.563.563,0,0,0,278.02,154.234Z" transform="translate(-175.654 -140.877)" fill="#fff"/>
  </g>
</svg>
