<svg xmlns="http://www.w3.org/2000/svg" width="48.996" height="48.995" viewBox="0 0 48.996 48.995">
  <g id="Grupo_1123" data-name="Grupo 1123" transform="translate(-1070 -1208.328)">
    <g id="Grupo_1122" data-name="Grupo 1122">
      <g id="Grupo_1009" data-name="Grupo 1009" transform="translate(1070 1252.424)">
        <path id="Caminho_340" data-name="Caminho 340" d="M48.179,432H.817a.817.817,0,1,0,0,1.633H2.45v2.45a.817.817,0,0,0,.817.817H6.533a.817.817,0,0,0,.817-.817v-2.45H8.982v2.45a.817.817,0,0,0,.817.817h3.266a.817.817,0,0,0,.817-.817v-2.45h1.633v2.45a.817.817,0,0,0,.817.817H19.6a.817.817,0,0,0,.817-.817v-2.45h1.633v2.45a.817.817,0,0,0,.817.817h3.266a.817.817,0,0,0,.817-.817v-2.45h1.633v2.45a.817.817,0,0,0,.817.817h3.266a.817.817,0,0,0,.817-.817v-2.45h1.633v2.45a.817.817,0,0,0,.817.817H39.2a.817.817,0,0,0,.817-.817v-2.45h1.633v2.45a.817.817,0,0,0,.817.817h3.266a.817.817,0,0,0,.817-.817v-2.45h1.633a.817.817,0,1,0,0-1.633ZM5.716,435.269H4.083v-1.633H5.716Zm6.533,0H10.616v-1.633h1.633Zm6.533,0H17.148v-1.633h1.633Zm6.533,0H23.681v-1.633h1.633Zm6.533,0H30.214v-1.633h1.633Zm6.533,0H36.747v-1.633H38.38Zm6.533,0H43.279v-1.633h1.633Z" transform="translate(0 -432.003)" fill="#fff"/>
      </g>
      <g id="Grupo_1011" data-name="Grupo 1011" transform="translate(1070 1208.328)">
        <path id="Caminho_341" data-name="Caminho 341" d="M46.292,35.437l-3.986-1a1.974,1.974,0,0,1-.6-.267L38.524,32.05C35.07,29.751,32,28.584,29.4,28.584H5.929l6.681-7.349h4.538a3.261,3.261,0,0,0,1.225-6.288l5.092-5.553.653,1.089a2.349,2.349,0,0,0,4.031,0,.707.707,0,0,1,.567-.347.693.693,0,0,1,.608.267l.391.49a2.341,2.341,0,0,0,1.832.882,2.18,2.18,0,0,0,.252-.014,2.336,2.336,0,0,0,1.854-1.285l.2-.392A.717.717,0,0,1,35.086,10l.335.5a2.35,2.35,0,0,0,4.058-.252l.086-.172A.717.717,0,0,1,40.8,10l.335.5a2.35,2.35,0,0,0,4.058-.252l.677-1.355,1.654,2.216a.817.817,0,1,0,1.308-.978v0L41.238,0H29.855L17.647,13.32A3.266,3.266,0,0,0,14.7,11.435a3.138,3.138,0,0,0-.61.06A5.252,5.252,0,0,0,10.207,9.8a5.324,5.324,0,0,0-4.9,3.287,4.083,4.083,0,0,0,.413,8.145H10.4L3.721,28.584H.817a.817.817,0,0,0,0,1.633H29.4A12.831,12.831,0,0,1,34.97,31.85H23.681a.817.817,0,0,0-.817.817v3.266a.817.817,0,0,0,.817.817H44.1a.809.809,0,0,0,.357-.09l1.445.361a1.934,1.934,0,0,1-.47,3.812H.817a.817.817,0,1,0,0,1.633H45.428a3.568,3.568,0,0,0,.865-7.028Zm-15.72-33.8h9.849l4.352,5.8L43.731,9.523a.717.717,0,0,1-1.238.082l-.335-.5a2.35,2.35,0,0,0-4.058.252l-.086.172a.717.717,0,0,1-1.238.082l-.335-.5a2.35,2.35,0,0,0-4.058.252l-.2.393a.718.718,0,0,1-1.2.127l-.39-.49a2.349,2.349,0,0,0-3.851.259.716.716,0,0,1-1.23,0l-.9-1.5ZM5.716,19.6a2.45,2.45,0,0,1-.022-4.9c.026,0,.13.015.156.016a.789.789,0,0,0,.821-.6,3.684,3.684,0,0,1,3.537-2.685,3.645,3.645,0,0,1,2.94,1.48.817.817,0,0,0,.953.271A1.633,1.633,0,0,1,16.332,14.7v.817a.817.817,0,0,0,.817.817,1.633,1.633,0,1,1,0,3.266H5.716ZM24.5,35.116V33.483H37.563a.7.7,0,0,0,.124-.025l2.489,1.658Z" transform="translate(0 -0.003)" fill="#fff"/>
      </g>
    </g>
    <g id="Grupo_1013" data-name="Grupo 1013" transform="translate(1082.249 1240.175)">
      <path id="Caminho_342" data-name="Caminho 342" d="M128.166,312h-7.349a.817.817,0,0,0-.817.817v3.266a.817.817,0,0,0,.817.817h7.349a.817.817,0,0,0,.817-.817V312.82A.817.817,0,0,0,128.166,312Zm-.817,3.266h-5.716v-1.633h5.716Z" transform="translate(-120 -312.003)" fill="#fff"/>
    </g>
    <g id="Grupo_1015" data-name="Grupo 1015" transform="translate(1071.633 1240.175)">
      <path id="Caminho_343" data-name="Caminho 343" d="M24.166,312H16.817a.817.817,0,0,0-.817.817v3.266a.817.817,0,0,0,.817.817h7.349a.817.817,0,0,0,.817-.817V312.82A.817.817,0,0,0,24.166,312Zm-.817,3.266H17.633v-1.633h5.716Z" transform="translate(-16 -312.003)" fill="#fff"/>
    </g>
  </g>
</svg>
