<svg xmlns="http://www.w3.org/2000/svg" width="43.334" height="50" viewBox="0 0 43.334 50">
  <g id="Grupo_1124" data-name="Grupo 1124" transform="translate(-773 -1206.498)">
    <g id="Grupo_1054" data-name="Grupo 1054" transform="translate(773 1206.498)">
      <path id="Caminho_362" data-name="Caminho 362" d="M72.832,31.666H68.666V17.031A12.778,12.778,0,0,0,67,10.726a19.261,19.261,0,0,1,2.382-8.631A.833.833,0,0,0,68.867.858L65.534.025a.833.833,0,0,0-.791.219A13.723,13.723,0,0,0,61.7,5.61,12.763,12.763,0,0,0,58.666,4.5V3.333a2.5,2.5,0,0,0-2.5-2.5h-5a2.5,2.5,0,0,0-2.5,2.5V4.5A12.759,12.759,0,0,0,45.634,5.61,13.723,13.723,0,0,0,42.588.245.833.833,0,0,0,41.8.025L38.464.859A.833.833,0,0,0,37.951,2.1a19.26,19.26,0,0,1,2.382,8.63,12.779,12.779,0,0,0-1.667,6.306V31.666H34.5a2.5,2.5,0,0,0-2.5,2.5v12.5a2.5,2.5,0,0,0,2.5,2.5h5a.812.812,0,0,0,.371-.1,3.565,3.565,0,0,0,2.39.93H65.072a3.564,3.564,0,0,0,2.389-.93.812.812,0,0,0,.371.1h5a2.5,2.5,0,0,0,2.5-2.5v-12.5A2.5,2.5,0,0,0,72.832,31.666ZM38.666,47.5H34.5a.833.833,0,0,1-.833-.833V37.5h5Zm0-11.667h-5V34.166a.833.833,0,0,1,.833-.833h4.167ZM65.619,1.764l1.813.453A21.442,21.442,0,0,0,65.494,8.6,12.964,12.964,0,0,0,63.182,6.51,12.542,12.542,0,0,1,65.619,1.764ZM50.332,3.333a.833.833,0,0,1,.833-.833h5A.833.833,0,0,1,57,3.333v.894c-.4-.037-.793-.061-1.2-.061H51.531c-.405,0-.8.024-1.2.061ZM39.9,2.217l1.813-.453a12.547,12.547,0,0,1,2.437,4.75A12.986,12.986,0,0,0,41.837,8.6,21.443,21.443,0,0,0,39.9,2.217ZM67,46.406a1.929,1.929,0,0,1-1.927,1.927H42.26a1.929,1.929,0,0,1-1.928-1.927V22.367a4.333,4.333,0,0,0,2.708.966h2.292V27.5A.833.833,0,0,0,47,27.5V23.333H60.332V27.5A.833.833,0,1,0,62,27.5V23.333h2.292A4.333,4.333,0,0,0,67,22.367Zm0-27.448a2.712,2.712,0,0,1-2.708,2.708H62V18.333a.833.833,0,1,0-1.667,0v3.333H47V18.333a.833.833,0,0,0-1.667,0v3.333H43.041a2.712,2.712,0,0,1-2.708-2.708V17.031a11.211,11.211,0,0,1,11.2-11.2H55.8A11.211,11.211,0,0,1,67,17.031Zm6.667,27.708a.833.833,0,0,1-.833.833H68.666v-10h5Zm0-10.833h-5v-2.5h4.167a.833.833,0,0,1,.833.833Z" transform="translate(-31.999 0)" fill="#fff"/>
    </g>
    <g id="Grupo_1056" data-name="Grupo 1056" transform="translate(788.205 1212.957)">
      <path id="Caminho_363" data-name="Caminho 363" d="M188.781,67.637a.807.807,0,0,0-.3-.3l-5.651-3.229a.807.807,0,0,0-.8,0l-5.651,3.229a.807.807,0,0,0,0,1.4l5.651,3.229a.807.807,0,0,0,.8,0l5.651-3.229A.808.808,0,0,0,188.781,67.637Zm-6.348,2.7-4.024-2.3,4.024-2.3,4.024,2.3Z" transform="translate(-175.972 -64.001)" fill="#fff"/>
    </g>
    <g id="Grupo_1058" data-name="Grupo 1058" transform="translate(792.245 1216.509)">
      <path id="Caminho_364" data-name="Caminho 364" d="M220.036,96h-3.229a.807.807,0,1,0,0,1.615h3.229a.807.807,0,0,0,0-1.615Z" transform="translate(-215.999 -95.998)" fill="#fff"/>
    </g>
    <g id="Grupo_1060" data-name="Grupo 1060" transform="translate(783.364 1238.737)">
      <path id="Caminho_365" data-name="Caminho 365" d="M146.719,304H131.885A3.89,3.89,0,0,0,128,307.884v6.761a3.89,3.89,0,0,0,3.886,3.885h14.835a3.89,3.89,0,0,0,3.885-3.885v-6.761A3.89,3.89,0,0,0,146.719,304Zm2.27,10.647a2.273,2.273,0,0,1-2.27,2.27H131.885a2.273,2.273,0,0,1-2.271-2.27v-4.188h3.229v.807a.807.807,0,0,0,1.615,0v-.807h10.5v.807a.807.807,0,0,0,1.615,0v-.807h2.422Zm0-5.8h-2.422v-.807a.807.807,0,1,0-1.615,0v.807h-10.5v-.807a.807.807,0,1,0-1.615,0v.807h-3.229v-.958a2.273,2.273,0,0,1,2.271-2.271h14.835a2.273,2.273,0,0,1,2.27,2.271Z" transform="translate(-127.999 -303.998)" fill="#fff"/>
    </g>
  </g>
</svg>
