<svg xmlns="http://www.w3.org/2000/svg" width="48.846" height="48.845" viewBox="0 0 48.846 48.845">
  <path id="Caminho_361" data-name="Caminho 361" d="M48.657,8.439l-4.07-4.884a.814.814,0,0,0-.626-.293H27.679V.819a.814.814,0,0,0-.814-.814H21.98a.814.814,0,0,0-.814.814V3.261H17.1a.814.814,0,0,0-.814.814v9.769a.814.814,0,0,0,.814.814h4.07v1.628H4.885a.814.814,0,0,0-.626.293L.188,21.464a.814.814,0,0,0,0,1.042l4.07,4.884a.814.814,0,0,0,.626.293H21.166V48.036a.814.814,0,0,0,.814.814h4.884a.814.814,0,0,0,.814-.814V27.684h4.07a.814.814,0,0,0,.814-.814V17.1a.814.814,0,0,0-.814-.814h-4.07V14.658H43.96a.814.814,0,0,0,.626-.293l4.07-4.884A.814.814,0,0,0,48.657,8.439ZM22.794,1.633h3.256V3.261H22.794Zm3.256,45.588H22.794V27.684h3.256Zm4.884-29.307v8.141H5.267l-3.394-4.07,3.394-4.07Zm-8.141-1.628V14.658h3.256v1.628ZM43.58,13.03H17.91V4.889H43.579l3.394,4.07Z" transform="translate(0 -0.005)" fill="#fff"/>
</svg>
