<svg xmlns="http://www.w3.org/2000/svg" width="42" height="39.196" viewBox="0 0 42 39.196">
  <g id="Grupo_1301" data-name="Grupo 1301" transform="translate(-451 -582)">
    <g id="Grupo_1300" data-name="Grupo 1300">
      <path id="Caminho_484" data-name="Caminho 484" d="M40.555,50.48V31.434a.621.621,0,1,0-1.242,0V50.025H36.981V46.56a.621.621,0,1,0-1.242,0v3.922l-1.3,2.3a.9.9,0,0,0-.117.445v1.657H30.561V53.224a.9.9,0,0,0-.12-.449l-1.317-2.291V41.106a7.006,7.006,0,0,1,.937-3.5l2.371-4.113L34.8,37.607c1.137,1.972.937,3.451.937,6.468a.621.621,0,1,0,1.242,0c0-5.851.228-4.781-3.591-11.405a1.107,1.107,0,0,0-1.918,0l-2.488,4.316a8.251,8.251,0,0,0-1.1,4.12v8.919H25.55V41.106a8.258,8.258,0,0,0-1.1-4.119L21.959,32.67a1.107,1.107,0,0,0-1.918,0l-2.488,4.316a8.259,8.259,0,0,0-1.1,4.119v8.919H14.119V41.106a8.249,8.249,0,0,0-1.1-4.119L10.528,32.67a1.107,1.107,0,0,0-1.918,0L6.122,36.987a8.258,8.258,0,0,0-1.1,4.119v8.919H2.687V27.218H8.909a.621.621,0,1,0,0-1.242h-.75V22.9h.7a.746.746,0,0,0,.554-1.246L5.355,17.172a.746.746,0,0,0-1.107,0h0L.193,21.658A.747.747,0,0,0,.747,22.9h.7v27.58l-1.3,2.3a.9.9,0,0,0-.117.445v2a.9.9,0,0,0,.9.9H41.093a.9.9,0,0,0,.9-.9v-2a.9.9,0,0,0-.12-.449ZM6.917,25.976H2.687V22.9h4.23ZM4.8,18.412l2.937,3.249H1.864ZM6.459,54.88H1.268V53.313l1.16-2.046H5.281l1.178,2.048V54.88Zm5-1.657v1.657H7.7V53.224a.9.9,0,0,0-.12-.449l-1.32-2.3V41.106a7.014,7.014,0,0,1,.937-3.5l2.371-4.113,2.371,4.113a7.006,7.006,0,0,1,.936,3.5v9.376l-1.3,2.3A.9.9,0,0,0,11.457,53.223ZM17.89,54.88H12.7V53.313l1.16-2.046h2.853l1.178,2.048Zm5-1.657v1.657H19.132V53.224a.9.9,0,0,0-.12-.449l-1.32-2.3V41.106a7.014,7.014,0,0,1,.937-3.5L21,33.494l2.371,4.113a7.015,7.015,0,0,1,.937,3.5v9.372L23,52.779a.9.9,0,0,0-.117.444Zm6.433,1.657H24.128V53.313l1.16-2.046h2.853l1.178,2.048Zm11.434,0H35.562V53.313l1.16-2.046h2.853l1.178,2.048V54.88Z" transform="translate(451 565.074)" fill="#fff"/>
      <path id="Caminho_485" data-name="Caminho 485" d="M130.586,22.9h.7v3.072h-.805a.621.621,0,0,0,0,1.242H158.4v1.731a.621.621,0,1,0,1.242,0V22.9h.7a.747.747,0,0,0,.554-1.246l-4.055-4.486a.75.75,0,0,0-1.107,0l-4.055,4.486a.747.747,0,0,0,.553,1.247h.7v3.072h-4.019V22.9h.7a.747.747,0,0,0,.554-1.246L146.1,17.171a.751.751,0,0,0-1.107,0l-4.055,4.486A.747.747,0,0,0,141.5,22.9h.7v3.072H138V22.9h.7a.747.747,0,0,0,.554-1.246l-4.055-4.486a.747.747,0,0,0-1.107,0h0l-4.055,4.486a.747.747,0,0,0,.553,1.246ZM158.4,25.976h-4.23V22.9h4.23Zm-2.115-7.564,2.937,3.249h-5.875Zm-8.618,7.564h-4.23V22.9h4.23Zm-2.115-7.564,2.937,3.249h-5.875Zm-8.794,7.564h-4.23V22.9h4.23Zm-2.115-7.564,2.937,3.249H131.7Z" transform="translate(331.914 565.074)" fill="#fff"/>
    </g>
  </g>
</svg>
