<?xml version="1.0" encoding="utf-8"?>
<!-- Generator: Adobe Illustrator 24.0.1, SVG Export Plug-In . SVG Version: 6.00 Build 0)  -->
<svg version="1.1" id="Camada_1" xmlns="http://www.w3.org/2000/svg" xmlns:xlink="http://www.w3.org/1999/xlink" x="0px" y="0px"
	 viewBox="0 0 96.4 90" style="enable-background:new 0 0 96.4 90;" xml:space="preserve">
<style type="text/css">
	.st0{fill:#FFFFFF;}
</style>
<g id="_026-guas_livres" transform="translate(0 -16.926)">
	<path id="Caminho_2272" class="st0" d="M93.1,94V50.2c0-0.8-0.6-1.4-1.4-1.4s-1.4,0.6-1.4,1.4v42.7h-5.4v-8c0-0.8-0.6-1.4-1.4-1.4
		s-1.4,0.6-1.4,1.4v9l-3,5.3c-0.2,0.3-0.3,0.7-0.3,1v3.8h-8.6v-3.8c0-0.4-0.1-0.7-0.3-1l-3-5.3V72.4c0-2.8,0.7-5.6,2.2-8l5.4-9.4
		l5.4,9.4c2.6,4.5,2.2,7.9,2.2,14.9c0,0.8,0.6,1.4,1.4,1.4s1.4-0.6,1.4-1.4c0-13.4,0.5-11-8.2-26.2c-0.7-1.2-2.3-1.6-3.5-0.9
		c-0.4,0.2-0.7,0.5-0.9,0.9L66.6,63c-1.7,2.9-2.5,6.1-2.5,9.5v20.5h-5.4V72.4c0-3.3-0.9-6.6-2.5-9.5l-5.7-9.9
		c-0.7-1.2-2.3-1.6-3.5-0.9c-0.4,0.2-0.7,0.5-0.9,0.9L40.3,63c-1.7,2.9-2.5,6.1-2.5,9.5v20.5h-5.3V72.4c0-3.3-0.9-6.6-2.5-9.5
		l-5.7-9.9c-0.7-1.2-2.3-1.6-3.5-0.9c-0.4,0.2-0.7,0.5-0.9,0.9L14.1,63c-1.7,2.9-2.5,6.1-2.5,9.5v20.5H6.2V40.6h14.3
		c0.8,0,1.4-0.6,1.4-1.4c0-0.8-0.6-1.4-1.4-1.4h-1.7v-7.1h1.6c0.9,0,1.7-0.8,1.7-1.7c0-0.4-0.2-0.8-0.4-1.1l-9.3-10.3
		c-0.6-0.7-1.7-0.8-2.4-0.1c0,0-0.1,0.1-0.1,0.1l0,0L0.4,27.8c-0.6,0.7-0.6,1.8,0.1,2.4c0.3,0.3,0.7,0.4,1.1,0.4h1.6V94l-3,5.3
		c-0.2,0.3-0.3,0.7-0.3,1v4.6c0,1.1,0.9,2.1,2.1,2.1h92.2c1.1,0,2.1-0.9,2.1-2.1v-4.6c0-0.4-0.1-0.7-0.3-1L93.1,94z M15.9,37.7H6.2
		v-7.1h9.7V37.7z M11,20.3l6.7,7.5H4.3L11,20.3z M14.8,104.1H2.9v-3.6l2.7-4.7h6.6l2.7,4.7V104.1L14.8,104.1z M26.3,100.3v3.8h-8.6
		v-3.8c0-0.4-0.1-0.7-0.3-1l-3-5.3V72.4c0-2.8,0.7-5.6,2.2-8L22,55l5.4,9.4c1.4,2.4,2.1,5.2,2.1,8V94l-3,5.3
		C26.4,99.6,26.3,99.9,26.3,100.3L26.3,100.3z M41.1,104.1H29.2v-3.6l2.7-4.7h6.6l2.7,4.7V104.1z M52.5,100.3v3.8h-8.6v-3.8
		c0-0.4-0.1-0.7-0.3-1l-3-5.3V72.4c0-2.8,0.7-5.6,2.2-8l5.4-9.4l5.4,9.4c1.4,2.4,2.1,5.2,2.2,8V94l-3,5.3
		C52.6,99.6,52.5,99.9,52.5,100.3L52.5,100.3z M67.3,104.1H55.4v-3.6l2.7-4.7h6.6l2.7,4.7L67.3,104.1z M93.6,104.1H81.7v-3.6
		l2.7-4.7h6.6l2.7,4.7V104.1L93.6,104.1z"/>
	<path id="Caminho_2273" class="st0" d="M26.4,30.7H28v7.1h-1.8c-0.8,0-1.4,0.6-1.4,1.4c0,0.8,0.6,1.4,1.4,1.4h64.1v4
		c0,0.8,0.6,1.4,1.4,1.4s1.4-0.6,1.4-1.4V30.7h1.6c0.9,0,1.7-0.8,1.7-1.7c0-0.4-0.2-0.8-0.4-1.1l-9.3-10.3c-0.6-0.7-1.7-0.8-2.4-0.1
		c0,0-0.1,0.1-0.1,0.1l-9.3,10.3c-0.6,0.7-0.6,1.8,0.1,2.4c0.3,0.3,0.7,0.4,1.1,0.4h1.6v7.1h-9.2v-7.1h1.6c0.9,0,1.7-0.8,1.7-1.7
		c0-0.4-0.2-0.8-0.4-1.1L62,17.5c-0.6-0.7-1.7-0.7-2.4-0.1c0,0-0.1,0.1-0.1,0.1l-9.3,10.3c-0.6,0.7-0.6,1.8,0.1,2.4
		c0.3,0.3,0.7,0.4,1.1,0.4H53v7.1h-9.6v-7.1H45c0.9,0,1.7-0.8,1.7-1.7c0-0.4-0.2-0.8-0.4-1.1L37,17.5c-0.6-0.7-1.7-0.8-2.4-0.1
		c0,0-0.1,0.1-0.1,0.1l0,0l-9.3,10.3c-0.6,0.7-0.6,1.8,0.1,2.4C25.6,30.5,26,30.6,26.4,30.7L26.4,30.7z M90.3,37.7h-9.7v-7.1h9.7
		L90.3,37.7z M85.4,20.3l6.7,7.5H78.7L85.4,20.3z M65.6,37.7h-9.7v-7.1h9.7V37.7z M60.8,20.3l6.7,7.5H54L60.8,20.3z M40.6,37.7h-9.7
		v-7.1h9.7V37.7z M35.7,20.3l6.7,7.5H29L35.7,20.3z"/>
</g>
</svg>
