<svg xmlns="http://www.w3.org/2000/svg" width="44" height="39.866" viewBox="0 0 44 39.866">
  <g id="Grupo_1302" data-name="Grupo 1302" transform="translate(-765 -582)">
    <path id="_002-adventurer" data-name="002-adventurer" d="M43.448,21.275l-3.412,1.437a.741.741,0,0,0-.185.114l-4.606,3.906-.081-.2a2.207,2.207,0,0,0-2.738-1.243l-.5.169-.372-.376-1.756-2.927,2.022-9.231,1.044-.523a1.8,1.8,0,0,0-.207-3.3l.431-1.967a.718.718,0,0,0-1.4-.307l-.528,2.409-5.536,2.772-2.083-1.786.032-.184a3.2,3.2,0,0,0-.388-2.124,3.938,3.938,0,0,0,3.433-5.266l2.53-1.263A.721.721,0,1,0,28.5.1L25.888,1.407a3.946,3.946,0,0,0-6.156,4.933,3.19,3.19,0,0,0-.619.192l.1-.536a1.156,1.156,0,0,0-.965-1.358l-3.333-.493a1.822,1.822,0,0,0-2.074,1.5L12,10.4l-.918-.2a1.514,1.514,0,0,0-1.8,1.187L8.59,14.9A1.514,1.514,0,0,0,9.844,16.69l1.748.27h.01l4.049.544-.039.115a2.776,2.776,0,0,0,.674,2.857c.023.023.051.04.072.062l1.69,4.783-3.5,5.325-1.8,2.138a.718.718,0,0,0,.223,1.1l3.472,1.77-1.55.934L0,38.459l.178,1.425L15.214,38a.7.7,0,0,0,.282-.1l9.6-5.8,5.041-1.858,4.993-1.84.517-.19a.724.724,0,0,0,.215-.127l4.829-4.094L44,22.6Zm-11.494,5.69.934-.314a.769.769,0,0,1,.952.431l.1.232-3.534,1.3-.108.039-.583-1.422,1.174-.782.332.336A.718.718,0,0,0,31.954,26.966ZM18.142,19.854a1.354,1.354,0,0,1-1.162-1.778l.149-.449h4.409L26.2,18.959l2.07,3.448-.376,1.713-2.052-3.282A.72.72,0,0,0,25.3,20.5Zm2.893-3.663H17.457l.333-2.024.235-.021a10.837,10.837,0,0,0,3.489-.922l.033.029Zm-3-3.494.424-2.572a1.78,1.78,0,0,0,.575.962L20.3,12.175A9.457,9.457,0,0,1,18.033,12.7Zm10.909,16.46-.743.274.3-1.361Zm1.066-3.843-.646.431-.323.215-.058-.093.363-1.66Zm-1.293-4.948-1.433-2.387a.718.718,0,0,0-.419-.321L22.457,16.4l.359-2.051,1.365,1.174a1.8,1.8,0,0,0,1.975.244l4.009-2.007Zm3.177-9.884a.36.36,0,0,1,.276-.02.354.354,0,0,1,.206.18.359.359,0,0,1-.159.482L25.509,14.48a.366.366,0,0,1-.394-.049l-3.01-2.593L19.97,10a.359.359,0,0,1,.208-.63H20.2a.361.361,0,0,1,.234.087l4.967,4.274ZM25.41,3.98A2.507,2.507,0,0,1,20.9,5.5l4.4-2.2A2.482,2.482,0,0,1,25.41,3.98ZM22.9,1.466a2.492,2.492,0,0,1,1.637.622L20.4,4.152c0-.058-.017-.112-.017-.17a2.518,2.518,0,0,1,2.513-2.515ZM20.68,7.734a1.756,1.756,0,0,1,1.413,1.251l-.718-.618a1.786,1.786,0,0,0-2.49.15A1.779,1.779,0,0,1,20.68,7.734ZM10,15.18l.693-3.513-.705-.139.8.078.968.208-.637,3.619-1.052-.162Zm4.255-9.29a.4.4,0,0,1,.448-.323l3.042.451-.553,2.933v.016l-1.18,7.139-3.475-.467Zm5.27,19.291L18.156,21.3l2.566.233.585,3.825-4.184,6.113-.992-.611,3.318-5.043A.719.719,0,0,0,19.527,25.181Zm-1.646,9.6-3.459-1.763.851-1.006,1.679,1.035a.728.728,0,0,0,.182.079.7.7,0,0,0,.195.027h.083a1.449,1.449,0,0,1,1.4,1.069l-.221.134Zm6.651-4a.714.714,0,0,0-.123.06l-4.351,2.631a2.886,2.886,0,0,0-1.526-1.516l4.123-6.023a.714.714,0,0,0,.117-.514L22.2,21.665l2.615.238,2.642,4.227-.852,3.89Zm0,0" transform="translate(765 581.982)" fill="#fff"/>
  </g>
</svg>
