<svg xmlns="http://www.w3.org/2000/svg" width="26.002" height="30" viewBox="0 0 26.002 30">
  <g id="icon" transform="translate(0)">
    <path id="Caminho_258" data-name="Caminho 258" d="M56.5,19H54V10.219a7.667,7.667,0,0,0-1-3.784,11.556,11.556,0,0,1,1.429-5.179A.5.5,0,0,0,54.12.515l-2-.5a.5.5,0,0,0-.475.132,8.234,8.234,0,0,0-1.828,3.22A7.658,7.658,0,0,0,48,2.7V2A1.5,1.5,0,0,0,46.5.5h-3A1.5,1.5,0,0,0,42,2v.7a7.655,7.655,0,0,0-1.819.667A8.234,8.234,0,0,0,38.353.147a.5.5,0,0,0-.475-.132l-2,.5a.5.5,0,0,0-.308.742A11.556,11.556,0,0,1,37,6.435a7.667,7.667,0,0,0-1,3.784V19H33.5A1.5,1.5,0,0,0,32,20.5V28a1.5,1.5,0,0,0,1.5,1.5h3a.487.487,0,0,0,.222-.058A2.139,2.139,0,0,0,38.156,30H51.843a2.138,2.138,0,0,0,1.434-.558.487.487,0,0,0,.222.058h3A1.5,1.5,0,0,0,58,28V20.5A1.5,1.5,0,0,0,56.5,19ZM36,28.5H33.5A.5.5,0,0,1,33,28V22.5h3Zm0-7H33v-1a.5.5,0,0,1,.5-.5H36ZM52.171,1.058l1.088.272A12.865,12.865,0,0,0,52.1,5.159a7.779,7.779,0,0,0-1.388-1.253A7.525,7.525,0,0,1,52.171,1.058ZM43,2a.5.5,0,0,1,.5-.5h3A.5.5,0,0,1,47,2v.537c-.237-.022-.476-.036-.719-.036H43.718c-.243,0-.482.014-.719.036Zm-6.26-.67,1.088-.272a7.528,7.528,0,0,1,1.462,2.85A7.792,7.792,0,0,0,37.9,5.161,12.866,12.866,0,0,0,36.739,1.33ZM53,27.844A1.157,1.157,0,0,1,51.843,29H38.156A1.157,1.157,0,0,1,37,27.844V13.42a2.6,2.6,0,0,0,1.625.58H40v2.5a.5.5,0,0,0,1,0V14h8v2.5a.5.5,0,1,0,1,0V14h1.375A2.6,2.6,0,0,0,53,13.42Zm0-16.469A1.627,1.627,0,0,1,51.374,13H50V11a.5.5,0,1,0-1,0v2H41V11a.5.5,0,0,0-1,0v2H38.624A1.627,1.627,0,0,1,37,11.375V10.219A6.727,6.727,0,0,1,43.718,3.5h2.563A6.727,6.727,0,0,1,53,10.219ZM57,28a.5.5,0,0,1-.5.5H54v-6h3Zm0-6.5H54V20h2.5a.5.5,0,0,1,.5.5Z" transform="translate(-31.999 0)" fill="#cfd2d9"/>
    <path id="Caminho_259" data-name="Caminho 259" d="M183.9,66.253a.5.5,0,0,0-.186-.186l-3.5-2a.5.5,0,0,0-.5,0l-3.5,2a.5.5,0,0,0,0,.868l3.5,2a.5.5,0,0,0,.5,0l3.5-2A.5.5,0,0,0,183.9,66.253Zm-3.932,1.672L177.481,66.5l2.492-1.424,2.492,1.424Z" transform="translate(-166.973 -60.001)" fill="#cfd2d9"/>
    <path id="Caminho_260" data-name="Caminho 260" d="M218.5,96h-2a.5.5,0,0,0,0,1h2a.5.5,0,0,0,0-1Z" transform="translate(-204.499 -89.998)" fill="#cfd2d9"/>
    <path id="Caminho_261" data-name="Caminho 261" d="M139.593,304h-9.188A2.409,2.409,0,0,0,128,306.4v4.188A2.409,2.409,0,0,0,130.406,313h9.188A2.409,2.409,0,0,0,142,310.592V306.4A2.409,2.409,0,0,0,139.593,304ZM141,310.592A1.408,1.408,0,0,1,139.593,312h-9.188A1.408,1.408,0,0,1,129,310.592V308h2v.5a.5.5,0,0,0,1,0V308h6.5v.5a.5.5,0,0,0,1,0V308H141ZM141,307h-1.5v-.5a.5.5,0,0,0-1,0v.5H132v-.5a.5.5,0,0,0-1,0v.5h-2V306.4A1.408,1.408,0,0,1,130.406,305h9.188A1.408,1.408,0,0,1,141,306.4Z" transform="translate(-121.999 -284.998)" fill="#cfd2d9"/>
  </g>
</svg>
