<svg xmlns="http://www.w3.org/2000/svg" width="40" height="40" viewBox="0 0 40 40">
  <g id="_027-sunbed" data-name="027-sunbed" transform="translate(-0.001)">
    <g id="Grupo_1232" data-name="Grupo 1232" transform="translate(0.001 23.325)">
      <g id="Grupo_1231" data-name="Grupo 1231" transform="translate(0)">
        <path id="Caminho_459" data-name="Caminho 459" d="M39.334,289.243H13.61l-9.138-9.138a.667.667,0,0,0-.959.926l.016.016,3.211,3.211L3,289.243H.668a.667.667,0,0,0,0,1.333H4.089L.78,295.54a.667.667,0,0,0,1.109.74l3.8-5.7H14v5.333a.667.667,0,0,0,1.333,0v-5.333h18.31l3.8,5.7a.667.667,0,0,0,1.109-.74l-3.307-4.963h4.088a.667.667,0,0,0,0-1.333Zm-34.667,0,3.025-4.033,4.033,4.033Z" transform="translate(-0.001 -279.902)" fill="#fff"/>
      </g>
    </g>
    <g id="Grupo_1234" data-name="Grupo 1234" transform="translate(2.675 2)">
      <g id="Grupo_1233" data-name="Grupo 1233">
        <path id="Caminho_460" data-name="Caminho 460" d="M66.745,50H45.688l-.943-.943V35.6a2.447,2.447,0,0,0,2.815-.094.891.891,0,0,1,1.036,0,2.467,2.467,0,0,0,2.964,0,.891.891,0,0,1,1.036,0,2.477,2.477,0,0,0,3.125-.127.972.972,0,0,0,.349-.774C55.834,28.711,50.592,24,44.078,24c-7.165,0-11.785,4.711-11.993,10.6a.981.981,0,0,0,.35.776,2.539,2.539,0,0,0,1.643.62,2.513,2.513,0,0,0,1.482-.494.891.891,0,0,1,1.036,0,2.467,2.467,0,0,0,2.964,0,.891.891,0,0,1,1.036,0,2.441,2.441,0,0,0,2.815.094V47.727L38.55,42.865a.667.667,0,0,0-.943,0l-2,2a.667.667,0,0,0,0,.943l8,8a.667.667,0,0,0,.471.193H66.745a.667.667,0,0,0,.667-.667V50.667A.667.667,0,0,0,66.745,50ZM42.776,34.428a1.138,1.138,0,0,1-1.395,0,2.226,2.226,0,0,0-2.605,0,1.137,1.137,0,0,1-1.395,0,2.226,2.226,0,0,0-2.605,0,1.184,1.184,0,0,1-.7.239,1.168,1.168,0,0,1-.651-.207c.288-5.383,4.64-9.126,10.651-9.126,5.695,0,10.333,3.993,10.649,9.128a1.17,1.17,0,0,1-.649.205,1.187,1.187,0,0,1-.7-.239,2.226,2.226,0,0,0-2.605,0,1.137,1.137,0,0,1-1.395,0,2.226,2.226,0,0,0-2.605,0,1.137,1.137,0,0,1-1.395,0A2.226,2.226,0,0,0,42.776,34.428Zm23.3,18.239H44.354l-7.333-7.333,1.057-1.057L43.606,49.8l1.333,1.333a.667.667,0,0,0,.472.2H66.078Z" transform="translate(-32.085 -24)" fill="#fff"/>
      </g>
    </g>
    <g id="Grupo_1236" data-name="Grupo 1236" transform="translate(30.964 2.963)">
      <g id="Grupo_1235" data-name="Grupo 1235">
        <path id="Caminho_461" data-name="Caminho 461" d="M374.59,35.552a3.037,3.037,0,1,0,3.037,3.037A3.041,3.041,0,0,0,374.59,35.552Zm0,4.741a1.7,1.7,0,1,1,1.7-1.7A1.7,1.7,0,0,1,374.59,40.293Z" transform="translate(-371.553 -35.552)" fill="#fff"/>
      </g>
    </g>
    <g id="Grupo_1238" data-name="Grupo 1238" transform="translate(28.001 5.333)">
      <g id="Grupo_1237" data-name="Grupo 1237">
        <path id="Caminho_462" data-name="Caminho 462" d="M337.852,64h-1.185a.667.667,0,1,0,0,1.333h1.185a.667.667,0,0,0,0-1.333Z" transform="translate(-336.001 -64)" fill="#fff"/>
      </g>
    </g>
    <g id="Grupo_1240" data-name="Grupo 1240" transform="translate(29.571 1.57)">
      <g id="Grupo_1239" data-name="Grupo 1239">
        <path id="Caminho_463" data-name="Caminho 463" d="M356.812,19.868l-.839-.839a.667.667,0,0,0-.943.943l.839.839a.667.667,0,0,0,.943-.943Z" transform="translate(-354.844 -18.843)" fill="#fff"/>
      </g>
    </g>
    <g id="Grupo_1242" data-name="Grupo 1242" transform="translate(33.334)">
      <g id="Grupo_1241" data-name="Grupo 1241">
        <path id="Caminho_464" data-name="Caminho 464" d="M400.668,0A.667.667,0,0,0,400,.667V1.851a.667.667,0,0,0,1.333,0V.667A.667.667,0,0,0,400.668,0Z" transform="translate(-400.001)" fill="#fff"/>
      </g>
    </g>
    <g id="Grupo_1244" data-name="Grupo 1244" transform="translate(36.259 1.562)">
      <g id="Grupo_1243" data-name="Grupo 1243">
        <path id="Caminho_465" data-name="Caminho 465" d="M437.08,18.941a.667.667,0,0,0-.943,0l-.839.839a.667.667,0,0,0,.926.959l.016-.016.839-.839A.667.667,0,0,0,437.08,18.941Z" transform="translate(-435.095 -18.746)" fill="#fff"/>
      </g>
    </g>
    <g id="Grupo_1246" data-name="Grupo 1246" transform="translate(37.483 5.333)">
      <g id="Grupo_1245" data-name="Grupo 1245">
        <path id="Caminho_466" data-name="Caminho 466" d="M451.636,64h-1.185a.667.667,0,1,0,0,1.333h1.185a.667.667,0,0,0,0-1.333Z" transform="translate(-449.785 -64)" fill="#fff"/>
      </g>
    </g>
    <g id="Grupo_1248" data-name="Grupo 1248" transform="translate(36.267 8.266)">
      <g id="Grupo_1247" data-name="Grupo 1247">
        <path id="Caminho_467" data-name="Caminho 467" d="M437.171,100.228l-.839-.839a.667.667,0,1,0-.943.943l.839.839a.667.667,0,0,0,.943-.943Z" transform="translate(-435.195 -99.194)" fill="#fff"/>
      </g>
    </g>
    <g id="Grupo_1250" data-name="Grupo 1250" transform="translate(33.334 9.482)">
      <g id="Grupo_1249" data-name="Grupo 1249">
        <path id="Caminho_468" data-name="Caminho 468" d="M400.668,113.784a.667.667,0,0,0-.667.667v1.185a.667.667,0,0,0,1.333,0v-1.185A.667.667,0,0,0,400.668,113.784Z" transform="translate(-400.001 -113.784)" fill="#fff"/>
      </g>
    </g>
    <g id="Grupo_1252" data-name="Grupo 1252" transform="translate(29.555 8.274)">
      <g id="Grupo_1251" data-name="Grupo 1251">
        <path id="Caminho_469" data-name="Caminho 469" d="M356.615,99.478a.667.667,0,0,0-.926,0l-.839.839a.667.667,0,0,0,.926.959l.016-.016.839-.839A.667.667,0,0,0,356.615,99.478Z" transform="translate(-354.647 -99.29)" fill="#fff"/>
      </g>
    </g>
  </g>
</svg>
