<svg id="_024-calendar" data-name="024-calendar" xmlns="http://www.w3.org/2000/svg" width="21" height="20" viewBox="0 0 21 20">
  <g id="Grupo_3179" data-name="Grupo 3179">
    <g id="Grupo_3178" data-name="Grupo 3178">
      <path id="Caminho_2324" data-name="Caminho 2324" d="M20.65,17.429h-1.4V16.357a.35.35,0,1,0-.7,0v1.071h-1.4V16.357a.35.35,0,1,0-.7,0v1.071h-1.4V16.357a.35.35,0,1,0-.7,0v1.071h-1.4V16.357a.35.35,0,1,0-.7,0v1.071h-1.4V16.357a.35.35,0,1,0-.7,0v1.071H8.75V16.357a.35.35,0,1,0-.7,0v1.071H6.65V16.357a.35.35,0,1,0-.7,0v1.071H4.55V16.357a.35.35,0,1,0-.7,0v1.071H2.45V16.357a.35.35,0,1,0-.7,0v1.071H.35a.354.354,0,0,0-.35.357V35.643A.354.354,0,0,0,.35,36h20.3a.354.354,0,0,0,.35-.357V17.786A.354.354,0,0,0,20.65,17.429ZM20.3,35.286H.7V18.143H1.75v1.071a.35.35,0,1,0,.7,0V18.143h1.4v1.071a.35.35,0,1,0,.7,0V18.143h1.4v1.071a.35.35,0,1,0,.7,0V18.143h1.4v1.071a.35.35,0,1,0,.7,0V18.143h1.4v1.071a.35.35,0,1,0,.7,0V18.143h1.4v1.071a.35.35,0,1,0,.7,0V18.143h1.4v1.071a.35.35,0,1,0,.7,0V18.143h1.4v1.071a.35.35,0,1,0,.7,0V18.143h1.4v1.071a.35.35,0,1,0,.7,0V18.143H20.3Z" transform="translate(0 -16)" fill="#9095a0"/>
    </g>
  </g>
  <g id="Grupo_3181" data-name="Grupo 3181" transform="translate(2.1 4.643)">
    <g id="Grupo_3180" data-name="Grupo 3180">
      <path id="Caminho_2325" data-name="Caminho 2325" d="M64.45,120H51.57a.354.354,0,0,0-.35.357V123.3H48.35a.354.354,0,0,0-.35.357v9.911a.354.354,0,0,0,.35.357h9.66a.354.354,0,0,0,.35-.357v-2.946h6.09a.354.354,0,0,0,.35-.357v-9.911A.354.354,0,0,0,64.45,120ZM51.22,133.214H48.7v-2.589h2.52Zm0-3.3H48.7v-2.589h2.52Zm0-3.3H48.7v-2.589h2.52Zm3.22,6.607H51.92v-2.589h2.52Zm0-3.3H51.92v-2.589h2.52Zm0-3.3H51.92v-2.589h2.52Zm0-3.3H51.92v-2.589h2.52Zm3.22,9.911H55.14v-2.589h2.52Zm0-3.3H55.14v-2.589h2.52Zm0-3.3H55.14v-2.589h2.52Zm0-3.3H55.14v-2.589h2.52Zm3.22,6.607H58.36v-2.589h2.52Zm0-3.3H58.36v-2.589h2.52Zm0-3.3H58.36v-2.589h2.52Zm3.22,6.607H61.58v-2.589H64.1Zm0-3.3H61.58v-2.589H64.1Zm0-3.3H61.58v-2.589H64.1Z" transform="translate(-48 -120)" fill="#9095a0"/>
    </g>
  </g>
</svg>
