<?xml version="1.0" encoding="utf-8"?>
<!-- Generator: Adobe Illustrator 23.0.6, SVG Export Plug-In . SVG Version: 6.00 Build 0)  -->
<svg version="1.1" id="Capa_1" xmlns="http://www.w3.org/2000/svg" xmlns:xlink="http://www.w3.org/1999/xlink" x="0px" y="0px"
	 viewBox="0 0 496 496" style="enable-background:new 0 0 496 496;" xml:space="preserve">
<style type="text/css">
	.st0{fill:#FFFFFF;}
</style>
<g>
	<g>
		<path class="st0" d="M487.2,425.6l-16.3-21.7l-51.8-114.6c-8.5-18.7-14.2-38.5-17-58.8c-1.4-10-2.1-20.1-2.1-30.2v-55
			c0-9.5-7.8-17.3-17.3-17.3c-7.5,0-14.1,4.8-16.4,11.8L354.6,175c-4.6,13.9-10.9,27.2-18.6,39.6l-22.1-44.8c-3-6.1-9.2-9.9-16-9.9
			c-9.9,0-17.9,8-17.9,17.9v38.8c0,13.6-4,26.8-11.6,38.2c-2.9,4.4-4.4,9.4-4.4,14.7c0,14.6,11.8,26.4,26.4,26.4
			c15.3,0,29.2,8.4,36.3,21.9l49.6,93.7c-3.1-1.2-6.1-2.6-9.1-4l-86-40.8c-20.6-9.7-43.5-14.9-66.2-14.9c-32.4,0-63.5,10-89.9,28.8
			l-2.8,2c-18.2,13-44.5,11.7-61.3-3L0,326.4V496h452c24.3,0,44-19.7,44-44C496,442.5,492.9,433.2,487.2,425.6z M120,480H16V361.6
			l34.5,30.2C62.4,402.2,77.7,408,93.6,408c9.2,0,18.1-2.1,26.4-5.7V480z M339.2,238.5c13.3-17.7,23.6-37.3,30.6-58.4l11.7-35.2
			c0.2-0.5,0.7-0.9,1.2-0.9c0.7,0,1.3,0.6,1.3,1.3v55c0,10.8,0.8,21.7,2.3,32.4c3.1,21.8,9.2,43.1,18.3,63.2l22.2,49.2l-36.2-48.3
			c-11.5-15.3-26.9-27.2-44.7-34.3c-6-2.4-9.9-8.1-9.9-14.6C336,244.5,337.1,241.2,339.2,238.5z M452,480H272v-32h-16v32H136v-87.2
			c23.3-16.2,50.6-24.8,79-24.8c13.8,0,27.7,2.3,41,6.4V432h16v-51.6c0.8,0.4,1.6,0.6,2.4,1l86,40.8c24.7,11.7,52.2,17.9,79.6,17.9
			v-16c-14,0-28.1-1.8-41.8-5.3l-57.3-108.3c-9.9-18.8-29.3-30.4-50.5-30.4c-5.7,0-10.4-4.7-10.4-10.4c0-2.1,0.6-4.1,1.8-5.8
			c9.3-14,14.2-30.3,14.2-47.1v-38.8c0-1.8,2.8-2.4,3.6-0.8l25.1,50.2l1.1,2.5c-3.7,5.3-5.8,11.7-5.8,18.2c0,13.1,7.8,24.6,20,29.5
			c15,6,28.1,16,37.8,29l96.6,128.8C478,440,480,446,480,452C480,467.4,467.4,480,452,480z"/>
	</g>
</g>
<g>
	<g>
		<path class="st0" d="M216,9.1V0h-16v8h-16V0h-16v9.1C156.8,12,148,20.8,145.1,32H0v16h145.1c2.9,11.2,11.7,20,22.9,22.9V80h16v-8
			h16v8h16v-9.1c13.8-3.6,24-16,24-30.9S229.8,12.7,216,9.1z M168,53.8c-4.8-2.8-8-7.9-8-13.8s3.2-11,8-13.8V53.8z M200,56h-16V24
			h16V56z M216,53.8V26.2c4.8,2.8,8,7.9,8,13.8S220.8,51,216,53.8z"/>
	</g>
</g>
<g>
	<g>
		<path class="st0" d="M235.5,200C223,186.3,216,168.8,216,150.1V96h-16v54.1c0,18,5.3,35.3,15.1,49.9h-46.2
			c9.8-14.7,15.1-31.9,15.1-49.9V96h-16v54.1c0,18.7-7,36.3-19.5,49.9H48v24c0,57.3,46.7,104,104,104s104-46.7,104-104v-24H235.5z
			 M152,312c-35.7,0-66.5-21.4-80.2-52.1c4.8-3.7,18-11.9,40.2-11.9c13.3,0,30.8,4.8,49.3,9.9c19.9,5.5,42.1,11.5,64.8,13.4
			C210.4,295.7,183.1,312,152,312z M240,224c0,11.2-2.2,21.9-6,31.8c-23.4-1-47.2-7.5-68.4-13.3c-19.6-5.4-38-10.5-53.5-10.5
			c-21.8,0-37,6.9-45.6,12.2C64.9,237.7,64,231,64,224v-8h176V224z"/>
	</g>
</g>
</svg>
