<?xml version="1.0" encoding="utf-8"?>
<!-- Generator: Adobe Illustrator 22.0.1, SVG Export Plug-In . SVG Version: 6.00 Build 0)  -->
<svg version="1.1" id="Layer_1" xmlns="http://www.w3.org/2000/svg" xmlns:xlink="http://www.w3.org/1999/xlink" x="0px" y="0px"
	 viewBox="0 0 512 512" style="enable-background:new 0 0 512 512;" xml:space="preserve">
<style type="text/css">
	.st0{fill:#999999;}
</style>
<g>
	<g>
		<path class="st0" d="M325.6,111.3h46.7c10,0,18.1-8.1,18.1-18.1v-75c0-10-8.1-18.1-18.1-18.1h-64.1C307.6,0,306.5,0,305,0
			c-12.1,0-54.1,2.4-87.5,33.1c-36.4,33.5-32.9,73.6-31.4,83.4v48.8h-46.4c-10,0-18.1,8.1-18.1,18.1v80.6c0,10,8.1,18.1,18.1,18.1
			h43.7v211.6c0,10,8.1,18.1,18.1,18.1h91.4c10,0,18.1-8.1,18.1-18.1V283.3h51.7c9.2,0,17-6.9,18-16.1l9.4-81.7
			c0.6-5.1-1-10.3-4.5-14.1c-3.4-3.9-8.4-6.1-13.5-6.1h-61.2v-41C311.1,115.9,313.4,111.3,325.6,111.3z M300.9,185.7h68.8l-8.9,77.1
			h-59.9c-5.6,0-10.2,4.6-10.2,10.2v218.5h-86.8V272c0-5.6-4.6-10.2-10.2-10.2H142v-76.1h54.3c5.6,0,10.2-4.6,10.2-10.2v-59.9
			c0-0.6-0.1-1.2-0.1-1.7c-1.1-6.2-4.9-38.4,24.9-65.8c27.9-25.7,63.4-27.7,73.7-27.7c1.4,0,2.3,0,2.4,0c0.2,0,0.3,0,0.5,0h62v70.4
			h-44.4c-21.9,0-34.9,12.5-34.9,33.5v51.2C290.7,181.2,295.2,185.7,300.9,185.7z"/>
	</g>
</g>
<g>
	<g>
		<path class="st0" d="M224.4,343.7c-5.6,0-10.2,4.6-10.2,10.2v5.1c0,5.6,4.6,10.2,10.2,10.2s10.2-4.6,10.2-10.2v-5.1
			C234.6,348.3,230,343.7,224.4,343.7z"/>
	</g>
</g>
<g>
	<g>
		<path class="st0" d="M224.4,381.5c-5.6,0-10.2,4.6-10.2,10.2v77.5c0,5.6,4.6,10.2,10.2,10.2s10.2-4.6,10.2-10.2v-77.5
			C234.6,386,230,381.5,224.4,381.5z"/>
	</g>
</g>
</svg>
