<svg xmlns="http://www.w3.org/2000/svg" width="32.752" height="30.011" viewBox="0 0 32.752 30.011">
  <g id="icon" transform="translate(-601.963 -880.989)">
    <g id="_029-family" data-name="029-family" transform="translate(601.963 880.989)">
      <g id="Grupo_1103" data-name="Grupo 1103" transform="translate(7.126 10.415)">
        <g id="Grupo_1102" data-name="Grupo 1102" transform="translate(0 0)">
          <path id="Caminho_369" data-name="Caminho 369" d="M114.371,184.338a.48.48,0,0,0-.675.07.892.892,0,0,1-1.447,0,.48.48,0,0,0-.745.6,1.849,1.849,0,0,0,2.938,0A.48.48,0,0,0,114.371,184.338Z" transform="translate(-111.397 -184.231)" fill="#cfd2d9"/>
        </g>
      </g>
      <g id="Grupo_1105" data-name="Grupo 1105" transform="translate(6.03 7.674)">
        <g id="Grupo_1104" data-name="Grupo 1104" transform="translate(0 0)">
          <path id="Caminho_370" data-name="Caminho 370" d="M94.739,141.386a.48.48,0,0,0-.48.48v.548a.48.48,0,0,0,.96,0v-.548A.48.48,0,0,0,94.739,141.386Z" transform="translate(-94.259 -141.386)" fill="#cfd2d9"/>
        </g>
      </g>
      <g id="Grupo_1107" data-name="Grupo 1107" transform="translate(10.415 7.674)">
        <g id="Grupo_1106" data-name="Grupo 1106" transform="translate(0 0)">
          <path id="Caminho_371" data-name="Caminho 371" d="M163.291,141.386a.48.48,0,0,0-.48.48v.548a.48.48,0,0,0,.96,0v-.548A.48.48,0,0,0,163.291,141.386Z" transform="translate(-162.811 -141.386)" fill="#cfd2d9"/>
        </g>
      </g>
      <g id="Grupo_1109" data-name="Grupo 1109" transform="translate(23.022 13.155)">
        <g id="Grupo_1108" data-name="Grupo 1108">
          <path id="Caminho_372" data-name="Caminho 372" d="M362.872,227.182a.48.48,0,0,0-.675.07.892.892,0,0,1-1.447,0,.48.48,0,1,0-.745.6,1.849,1.849,0,0,0,2.938,0A.48.48,0,0,0,362.872,227.182Z" transform="translate(-359.898 -227.075)" fill="#cfd2d9"/>
        </g>
      </g>
      <g id="Grupo_1111" data-name="Grupo 1111" transform="translate(21.926 10.415)">
        <g id="Grupo_1110" data-name="Grupo 1110" transform="translate(0 0)">
          <path id="Caminho_373" data-name="Caminho 373" d="M343.239,184.231a.48.48,0,0,0-.48.48v.548a.48.48,0,1,0,.96,0v-.548A.48.48,0,0,0,343.239,184.231Z" transform="translate(-342.759 -184.231)" fill="#cfd2d9"/>
        </g>
      </g>
      <g id="Grupo_1113" data-name="Grupo 1113" transform="translate(26.311 10.415)">
        <g id="Grupo_1112" data-name="Grupo 1112" transform="translate(0 0)">
          <path id="Caminho_374" data-name="Caminho 374" d="M411.791,184.231a.48.48,0,0,0-.48.48v.548a.48.48,0,1,0,.959,0v-.548A.48.48,0,0,0,411.791,184.231Z" transform="translate(-411.311 -184.231)" fill="#cfd2d9"/>
        </g>
      </g>
      <g id="Grupo_1115" data-name="Grupo 1115" transform="translate(0 0)">
        <g id="Grupo_1114" data-name="Grupo 1114">
          <path id="Caminho_375" data-name="Caminho 375" d="M31.416,41.322l-3.759-1.5a.628.628,0,0,1-.058-.028,9.928,9.928,0,0,0,3.88-1.623.48.48,0,0,0,.171-.439,62.152,62.152,0,0,1-.543-7.606,6.509,6.509,0,1,0-13.019,0c0,.983-.045,2.186-.117,3.325l-1.047.524L13.85,32.434l-.027-.011A5.374,5.374,0,0,0,14.1,31.08a1.575,1.575,0,0,0,.563-2.7V25.189a2.67,2.67,0,0,0-1.176-2.2,2.109,2.109,0,0,0-2.044-1.566H7.057a4.322,4.322,0,0,0-4.317,4.317v2.644a1.575,1.575,0,0,0,.563,2.7,5.411,5.411,0,0,0,2.177,3.937v1.326l-3.968,1.19A2.111,2.111,0,0,0,0,39.567v5.354a.48.48,0,0,0,.48.48H.548v5.55a.48.48,0,1,0,.96,0V45.4H3.289v5.55a.48.48,0,1,0,.96,0V42.679A2.118,2.118,0,0,0,3.892,41.5l-.82-1.23a.48.48,0,1,0-.8.532l.82,1.23a1.161,1.161,0,0,1,.2.646v1.763H.96V39.567a1.157,1.157,0,0,1,.83-1.116l1.647-.494a5.414,5.414,0,0,0,7.831,3.508,1.575,1.575,0,0,0,1.272.646h.068v.068A4.319,4.319,0,0,0,14.8,45.937v.783a.068.068,0,0,1-.047.065l-1.79.6A2.121,2.121,0,0,0,11.511,49.4v1.555a.48.48,0,0,0,.96,0V49.4a1.163,1.163,0,0,1,.8-1.1l.526-.175a3.768,3.768,0,0,0,6.262,0l.526.175a1.163,1.163,0,0,1,.8,1.1v1.555a.48.48,0,1,0,.96,0V49.4a2.121,2.121,0,0,0-1.452-2.015l-1.79-.6a.068.068,0,0,1-.047-.065v-.783a4.334,4.334,0,0,0,2.031-2.589,4.864,4.864,0,0,0,8.149-1.867l1.831.732a1.159,1.159,0,0,1,.732,1.081v2.244H30.011v-.617a.48.48,0,0,0-.96,0v6.03a.48.48,0,0,0,.96,0V46.5h1.233v4.454a.48.48,0,0,0,.96,0V46.5h.068a.48.48,0,0,0,.48-.48V43.294A2.113,2.113,0,0,0,31.416,41.322Zm-12.368-11.2a5.55,5.55,0,1,1,11.1,0,62.989,62.989,0,0,0,.514,7.451,10.271,10.271,0,0,1-3.391,1.308v-.763A5.372,5.372,0,0,0,28,37.622a5.4,5.4,0,0,0,2.012-4.212c0-2.712-1.961-3.1-3.858-3.477a7.7,7.7,0,0,1-3.448-1.282.48.48,0,0,0-.779.375c0,.013-.021,1.275-1.829,1.727a.48.48,0,0,0,.233.931,3.175,3.175,0,0,0,2.383-1.865,10.048,10.048,0,0,0,3.255,1.056c2.027.4,3.085.7,3.085,2.536A4.441,4.441,0,0,1,27.4,36.876a4.453,4.453,0,0,1-5.389.155,5.421,5.421,0,0,0-1.313-2.025V32.863A.48.48,0,0,0,20,32.434l-1.036.518C19.019,31.952,19.048,31,19.048,30.122Zm.685,3.517v1.736L18,34.507Zm-5.618,0,1.736.868-1.736.868Zm-2.6,5.253v.456a1.576,1.576,0,0,0-.548,1.189,4.454,4.454,0,0,1-6.6-2.855l1.185-.356a3.219,3.219,0,0,0,6.014.86A5.394,5.394,0,0,0,11.511,38.892ZM6.441,36.7V35.587a5.406,5.406,0,0,0,4.522,0V36.7a2.261,2.261,0,0,1-4.522.006S6.441,36.7,6.441,36.7ZM8.7,35.123A4.458,4.458,0,0,1,4.248,30.67a.48.48,0,0,0-.48-.48.617.617,0,1,1,0-1.233h1.1a.48.48,0,0,0,.455-.328l.44-1.321c1.1-.025,4.52-.18,6.445-1.142a.48.48,0,1,0-.429-.858c-2.065,1.032-6.32,1.046-6.363,1.046a.48.48,0,0,0-.455.328L4.519,28h-.75L3.7,28V25.737A3.361,3.361,0,0,1,7.057,22.38h4.385a1.156,1.156,0,0,1,1.145.982.48.48,0,0,0,.238.343,1.713,1.713,0,0,1,.878,1.485V28l-.068,0h-.548a.48.48,0,1,0,0,.96h.548a.617.617,0,1,1,0,1.233.48.48,0,0,0-.48.48A4.459,4.459,0,0,1,8.7,35.123Zm3.22,1.576V35.017a5.457,5.457,0,0,0,1.233-1.275v1.265a5.421,5.421,0,0,0-1.236,1.826C11.921,36.789,11.922,36.744,11.922,36.7ZM19.1,47.8a2.807,2.807,0,0,1-4.347,0l.306-.1a1.027,1.027,0,0,0,.7-.975v-.382a4.295,4.295,0,0,0,2.329,0v.382a1.026,1.026,0,0,0,.7.975Zm1.663-6.643a.48.48,0,0,0-.48.48v.477s0,.008,0,.012v.059a3.357,3.357,0,0,1-6.714,0v-.548a.48.48,0,0,0-.48-.48h-.548a.617.617,0,0,1-.617-.617.609.609,0,0,1,.31-.53.477.477,0,0,0,.114-.093c1.186-.034,5.03-.258,7.557-1.7a.48.48,0,0,0-.476-.833c-2.213,1.265-5.691,1.518-6.956,1.569v-.056a4.458,4.458,0,0,1,.76-2.485.478.478,0,0,0,.619.173l3.074-1.537L20,36.58a.477.477,0,0,0,.619-.173,4.458,4.458,0,0,1,.76,2.485v.7a.48.48,0,0,0,.238.415.609.609,0,0,1,.31.53.617.617,0,0,1-.617.617ZM24.6,43.894a3.911,3.911,0,0,1-3.278-1.781,1.572,1.572,0,0,0,1.017-2.764v-.456a5.4,5.4,0,0,0-.031-.575,5.41,5.41,0,0,0,4,.227v.7a1.569,1.569,0,0,0,.991,1.463l1.035.414A3.9,3.9,0,0,1,24.6,43.894Z" transform="translate(0 -21.42)" fill="#cfd2d9"/>
        </g>
      </g>
      <g id="Grupo_1117" data-name="Grupo 1117" transform="translate(15.348 21.377)">
        <g id="Grupo_1116" data-name="Grupo 1116">
          <path id="Caminho_376" data-name="Caminho 376" d="M242.906,355.717a.48.48,0,0,0-.675.07.892.892,0,0,1-1.447,0,.48.48,0,0,0-.745.6,1.85,1.85,0,0,0,2.938,0A.48.48,0,0,0,242.906,355.717Z" transform="translate(-239.932 -355.61)" fill="#cfd2d9"/>
        </g>
      </g>
      <g id="Grupo_1119" data-name="Grupo 1119" transform="translate(14.809 19.187)">
        <g id="Grupo_1118" data-name="Grupo 1118">
          <circle id="Elipse_115" data-name="Elipse 115" cx="0.48" cy="0.48" r="0.48" fill="#cfd2d9"/>
        </g>
      </g>
      <g id="Grupo_1121" data-name="Grupo 1121" transform="translate(18.071 19.187)">
        <g id="Grupo_1120" data-name="Grupo 1120">
          <circle id="Elipse_116" data-name="Elipse 116" cx="0.48" cy="0.48" r="0.48" fill="#cfd2d9"/>
        </g>
      </g>
    </g>
  </g>
</svg>
