<svg xmlns="http://www.w3.org/2000/svg" width="60" height="28.342" viewBox="0 0 60 28.342">
  <g id="Grupo_3102" data-name="Grupo 3102" transform="translate(-690 -881)">
    <g id="flickr" transform="translate(690 745.925)">
      <g id="Grupo_3094" data-name="Grupo 3094" transform="translate(0 135.075)">
        <g id="Grupo_3093" data-name="Grupo 3093">
          <path id="Caminho_2317" data-name="Caminho 2317" d="M14.171,135.075a14.171,14.171,0,1,0,14.171,14.171A14.187,14.187,0,0,0,14.171,135.075Zm0,25.951a11.78,11.78,0,1,1,11.78-11.78A11.794,11.794,0,0,1,14.171,161.026Z" transform="translate(0 -135.075)" fill="#00829b"/>
        </g>
      </g>
      <g id="Grupo_3096" data-name="Grupo 3096" transform="translate(31.658 135.075)">
        <g id="Grupo_3095" data-name="Grupo 3095">
          <path id="Caminho_2318" data-name="Caminho 2318" d="M284.322,135.075a14.171,14.171,0,1,0,14.171,14.171A14.187,14.187,0,0,0,284.322,135.075Zm0,25.951a11.78,11.78,0,1,1,11.78-11.781A11.794,11.794,0,0,1,284.322,161.026Z" transform="translate(-270.151 -135.075)" fill="#00829b"/>
        </g>
      </g>
      <g id="Grupo_3098" data-name="Grupo 3098" transform="translate(12.191 139.378)">
        <g id="Grupo_3097" data-name="Grupo 3097">
          <path id="Caminho_2319" data-name="Caminho 2319" d="M106.011,171.792c-.3,0-.6.013-.891.04a1.2,1.2,0,0,0,.105,2.386c.036,0,.072,0,.108,0,.224-.02.452-.03.678-.03a1.2,1.2,0,0,0,0-2.39Z" transform="translate(-104.031 -171.792)" fill="#00829b"/>
        </g>
      </g>
      <g id="Grupo_3100" data-name="Grupo 3100" transform="translate(4.303 140.779)">
        <g id="Grupo_3099" data-name="Grupo 3099">
          <path id="Caminho_2320" data-name="Caminho 2320" d="M42.858,184.292a1.2,1.2,0,0,0-1.654-.349,9.843,9.843,0,0,0-4.487,8.273,1.2,1.2,0,0,0,2.39,0,7.46,7.46,0,0,1,3.4-6.27A1.2,1.2,0,0,0,42.858,184.292Z" transform="translate(-36.717 -183.749)" fill="#00829b"/>
        </g>
      </g>
    </g>
  </g>
</svg>
