<svg xmlns="http://www.w3.org/2000/svg" width="29.925" height="30" viewBox="0 0 29.925 30">
  <g id="icon" transform="translate(-452 -4697)">
    <path id="Caminho_311" data-name="Caminho 311" d="M21.656,0H9.549A8.919,8.919,0,0,0,.64,8.909V21.091A8.919,8.919,0,0,0,9.549,30H21.656a8.919,8.919,0,0,0,8.909-8.909V8.909A8.919,8.919,0,0,0,21.656,0ZM29.37,21.091A7.722,7.722,0,0,1,21.656,28.8H9.549a7.722,7.722,0,0,1-7.714-7.714V8.909A7.723,7.723,0,0,1,9.549,1.2H21.656A7.722,7.722,0,0,1,29.37,8.909Z" transform="translate(451.36 4697)" fill="#00829b"/>
    <path id="Caminho_312" data-name="Caminho 312" d="M76.526,58.294h-12.1a5.5,5.5,0,0,0-5.491,5.491V75.962a5.5,5.5,0,0,0,5.491,5.491h12.1a5.5,5.5,0,0,0,5.491-5.491V63.785A5.5,5.5,0,0,0,76.526,58.294Zm4.3,17.667a4.3,4.3,0,0,1-4.3,4.3h-12.1a4.3,4.3,0,0,1-4.3-4.3V63.785a4.3,4.3,0,0,1,4.3-4.3h12.1a4.3,4.3,0,0,1,4.3,4.3Z" transform="translate(396.488 4642.127)" fill="#00829b"/>
    <path id="Caminho_313" data-name="Caminho 313" d="M131.914,124.178a7.735,7.735,0,1,0,7.735,7.735A7.744,7.744,0,0,0,131.914,124.178Zm0,14.274a6.538,6.538,0,1,1,6.538-6.538A6.546,6.546,0,0,1,131.914,138.452Z" transform="translate(335.048 4580.086)" fill="#00829b"/>
    <path id="Caminho_314" data-name="Caminho 314" d="M185.44,181.041a4.4,4.4,0,1,0,4.4,4.4A4.4,4.4,0,0,0,185.44,181.041Zm0,7.6a3.2,3.2,0,1,1,3.2-3.2A3.205,3.205,0,0,1,185.44,188.641Z" transform="translate(281.523 4526.561)" fill="#00829b"/>
    <path id="Caminho_315" data-name="Caminho 315" d="M350.671,99.843a1.859,1.859,0,1,0,1.859,1.859A1.861,1.861,0,0,0,350.671,99.843Zm0,2.52a.662.662,0,1,1,.661-.662A.662.662,0,0,1,350.671,102.363Z" transform="translate(123.584 4603.006)" fill="#00829b"/>
    <path id="Caminho_316" data-name="Caminho 316" d="M139.834,463.044h-5.626a.6.6,0,1,0,0,1.2h5.626a.6.6,0,1,0,0-1.2Z" transform="translate(326.178 4261.083)" fill="#00829b"/>
    <path id="Caminho_317" data-name="Caminho 317" d="M263.077,463.044h-.359a.6.6,0,1,0,0,1.2h.359a.6.6,0,1,0,0-1.2Z" transform="translate(205.201 4261.083)" fill="#00829b"/>
  </g>
</svg>
