<svg xmlns="http://www.w3.org/2000/svg" width="30" height="30" viewBox="0 0 30 30">
  <g id="icon" transform="translate(0.001 0)">
    <path id="Caminho_257" data-name="Caminho 257" d="M29.885,5.185l-2.5-3A.5.5,0,0,0,27,2.005H17V.505a.5.5,0,0,0-.5-.5h-3a.5.5,0,0,0-.5.5v1.5H10.5a.5.5,0,0,0-.5.5v6a.5.5,0,0,0,.5.5H13v1H3a.5.5,0,0,0-.384.18l-2.5,3a.5.5,0,0,0,0,.64l2.5,3a.5.5,0,0,0,.384.18H13v12.5a.5.5,0,0,0,.5.5h3a.5.5,0,0,0,.5-.5v-12.5h2.5a.5.5,0,0,0,.5-.5v-6a.5.5,0,0,0-.5-.5H17v-1H27a.5.5,0,0,0,.385-.18l2.5-3A.5.5,0,0,0,29.885,5.185ZM14,1.005h2v1H14Zm2,28H14v-12h2Zm3-18v5H3.235l-2.084-2.5,2.084-2.5Zm-5-1v-1h2v1Zm12.766-2H11v-5H26.766l2.084,2.5Z" transform="translate(0 -0.005)" fill="#cfd2d9"/>
  </g>
</svg>
