<?xml version="1.0" encoding="utf-8"?>
<!-- Generator: Adobe Illustrator 22.0.1, SVG Export Plug-In . SVG Version: 6.00 Build 0)  -->
<svg version="1.1" id="Layer_1" xmlns="http://www.w3.org/2000/svg" xmlns:xlink="http://www.w3.org/1999/xlink" x="0px" y="0px"
	 viewBox="0 0 512 512" style="enable-background:new 0 0 512 512;" xml:space="preserve">
<style type="text/css">
	.st0{fill:#FF6633;}
</style>
<g>
	<g>
		<g>
			<path class="st0" d="M359.3,0H152.7C68.8,0,0.6,68.2,0.6,152v208c0,83.8,68.2,152,152,152h206.6c83.8,0,152-68.2,152-152V152
				C511.4,68.2,443.2,0,359.3,0z M491,360c0,72.6-59.1,131.6-131.6,131.6H152.7C80.1,491.6,21,432.5,21,360V152
				C21,79.5,80.1,20.4,152.7,20.4h206.6C431.9,20.4,491,79.5,491,152V360z"/>
			<path class="st0" d="M359.3,58.3H152.7c-51.7,0-93.8,42.1-93.8,93.8V360c0,51.7,42.1,93.8,93.8,93.8h206.6
				c51.7,0,93.8-42.1,93.8-93.8V152C453.1,100.4,411,58.3,359.3,58.3z M432.7,360c0,40.4-32.9,73.4-73.4,73.4H152.7
				c-40.4,0-73.4-32.9-73.4-73.4V152c0-40.4,32.9-73.4,73.4-73.4l0,0h206.6c40.4,0,73.4,32.9,73.4,73.4L432.7,360L432.7,360z"/>
		</g>
	</g>
</g>
<g>
	<g>
		<g>
			<path class="st0" d="M256,124.2c-72.7,0-131.8,59.1-131.8,131.8S183.3,387.8,256,387.8S387.8,328.7,387.8,256
				S328.7,124.2,256,124.2z M256,367.4c-61.4,0-111.4-50-111.4-111.4s50-111.4,111.4-111.4s111.4,50,111.4,111.4
				S317.4,367.4,256,367.4z"/>
			<path class="st0" d="M256,181c-41.3,0-75,33.6-75,75s33.6,75,75,75c41.3,0,75-33.6,75-75S297.3,181,256,181z M256,310.6
				c-30.1,0-54.6-24.5-54.6-54.6s24.5-54.6,54.6-54.6s54.6,24.5,54.6,54.6S286.1,310.6,256,310.6z"/>
		</g>
	</g>
</g>
<g>
	<g>
		<path class="st0" d="M380.5,99.8c-17.5,0-31.7,14.2-31.7,31.7s14.2,31.7,31.7,31.7s31.7-14.2,31.7-31.7S397.9,99.8,380.5,99.8z
			 M380.5,142.8c-6.2,0-11.3-5.1-11.3-11.3s5.1-11.3,11.3-11.3s11.3,5.1,11.3,11.3C391.8,137.7,386.7,142.8,380.5,142.8z"/>
	</g>
</g>
<g>
	<g>
		<path class="st0" d="M239.7,463h-95.9c-5.6,0-10.2,4.6-10.2,10.2s4.6,10.2,10.2,10.2h95.9c5.6,0,10.2-4.6,10.2-10.2
			S245.3,463,239.7,463z"/>
	</g>
</g>
<g>
	<g>
		<path class="st0" d="M278.4,463h-6.1c-5.6,0-10.2,4.6-10.2,10.2s4.6,10.2,10.2,10.2h6.1c5.6,0,10.2-4.6,10.2-10.2
			S284.1,463,278.4,463z"/>
	</g>
</g>
</svg>
