<?xml version="1.0" encoding="utf-8"?>
<!-- Generator: Adobe Illustrator 22.0.1, SVG Export Plug-In . SVG Version: 6.00 Build 0)  -->
<svg version="1.1" id="Layer_1" xmlns="http://www.w3.org/2000/svg" xmlns:xlink="http://www.w3.org/1999/xlink" x="0px" y="0px"
	 viewBox="0 0 512 512" style="enable-background:new 0 0 512 512;" xml:space="preserve">
<style type="text/css">
	.st0{fill:#999999;}
</style>
<g>
	<g>
		<path class="st0" d="M124.6,158.2H25.9c-10,0-18.1,8.1-18.1,18.1v317c0,10,8.1,18.1,18.1,18.1h98.7c10,0,18.1-8.1,18.1-18.1v-317
			C142.8,166.3,134.6,158.2,124.6,158.2z M122.4,491.1H28.2V178.6h94.2V491.1z"/>
	</g>
</g>
<g>
	<g>
		<path class="st0" d="M128.5,22.6C114.3,8.4,95.4,0.5,75.3,0.5C33.8,0.5,0,34.3,0,75.8c0,41.5,33.8,75.3,75.3,75.3
			c41.5,0,75.3-33.8,75.3-75.3C150.6,55.7,142.8,36.8,128.5,22.6z M75.3,130.7c-30.3,0-54.9-24.6-54.9-54.9
			c0-30.2,24.6-54.9,54.9-54.9c14.6,0,28.4,5.7,38.8,16.1c10.4,10.4,16.1,24.1,16.1,38.8C130.2,106.1,105.6,130.7,75.3,130.7z"/>
	</g>
</g>
<g>
	<g>
		<path class="st0" d="M489.2,205.3c-21.5-36.5-59.7-55-113.5-55c-34.7,0-59.9,11.8-76.6,24c-1-9.1-8.7-16.2-18-16.2h-94.5
			c-10,0-18.1,8.1-18.1,18.1v317c0,10,8.1,18.1,18.1,18.1H285c10,0,18.1-8.1,18.1-18.1V336.5c0-53.2,14.4-63.3,41-63.3
			c26,0,33.1,14.2,33.1,66v154.1c0,10,8.1,18.1,18.1,18.1h98.5c10,0,18.1-8.1,18.1-18.1V319.4C512,284.3,509.4,239.6,489.2,205.3z
			 M491.6,491.1h-94V339.2c0-20.7-0.6-42.2-7.4-58.3c-7.9-18.6-23.5-28.1-46.1-28.1c-54.1,0-61.4,42.3-61.4,83.7v154.6h-93.9V178.6
			h90v18.3c0,4.2,2.6,8,6.5,9.5c3.9,1.5,8.4,0.5,11.2-2.6c11.3-12.4,36.7-33.1,79.2-33.1c101.9,0,115.9,71.5,115.9,148.8
			L491.6,491.1L491.6,491.1z"/>
	</g>
</g>
<g>
	<g>
		<path class="st0" d="M49,364.1c-5.6,0-10.2,4.6-10.2,10.2v94.9c0,5.6,4.6,10.2,10.2,10.2s10.2-4.6,10.2-10.2v-94.9
			C59.2,368.7,54.6,364.1,49,364.1z"/>
	</g>
</g>
<g>
	<g>
		<path class="st0" d="M49,321.3c-5.6,0-10.2,4.6-10.2,10.2v9.2c0,5.6,4.6,10.2,10.2,10.2s10.2-4.6,10.2-10.2v-9.2
			C59.2,325.8,54.6,321.3,49,321.3z"/>
	</g>
</g>
</svg>
