<svg xmlns="http://www.w3.org/2000/svg" width="38.283" height="40" viewBox="0 0 38.283 40">
  <g id="theater" transform="translate(-10.99 0)">
    <g id="Grupo_3295" data-name="Grupo 3295" transform="translate(23.071 27.844)">
      <g id="Grupo_3294" data-name="Grupo 3294">
        <path id="Caminho_2375" data-name="Caminho 2375" d="M179.4,356.849c-.339-.426-.947-.272-1.222-.171l-.028.01a16.246,16.246,0,0,1-5.5.818h-.038a15.488,15.488,0,0,1-5.585-.957c-.57-.231-.987-.194-1.239.112-.339.412-.083.893.217,1.32,1.465,2.093,4.063,5.2,6.6,5.2s5.259-3.185,6.648-5.089l.013-.018C179.39,357.884,179.771,357.317,179.4,356.849Zm-6.812,5.157c-1.373-.012-3.237-1.486-5.167-4.066a19.646,19.646,0,0,0,10.408.093C176.689,359.5,174.436,362.029,172.587,362.005Z" transform="translate(-165.623 -356.399)" fill="#fff"/>
      </g>
    </g>
    <g id="Grupo_3297" data-name="Grupo 3297" transform="translate(31.351 19.064)">
      <g id="Grupo_3296" data-name="Grupo 3296" transform="translate(0)">
        <path id="Caminho_2376" data-name="Caminho 2376" d="M275.113,244.023a3.275,3.275,0,0,0-3.508,3.028,1.611,1.611,0,0,0,1.594,1.623l3.836.035a1.6,1.6,0,0,0,1.127-.461C279.439,246.994,278.139,244.023,275.113,244.023Zm2.228,3.389c-.178.175-.006.128-4.131.091-.932-.009-.386-2.318,1.932-2.308C277.118,245.213,277.807,246.954,277.341,247.412Z" transform="translate(-271.605 -244.023)" fill="#fff"/>
      </g>
    </g>
    <g id="Grupo_3299" data-name="Grupo 3299" transform="translate(21.805 18.978)">
      <g id="Grupo_3298" data-name="Grupo 3298" transform="translate(0)">
        <path id="Caminho_2377" data-name="Caminho 2377" d="M155.426,243.795c-2.115-1.817-5.975-.672-6,2.151a1.608,1.608,0,0,0,1.594,1.623l3.836.035a1.611,1.611,0,0,0,1.608-1.594A2.859,2.859,0,0,0,155.426,243.795Zm-.574,2.637c-4.126-.037-3.955.012-4.129-.165a.434.434,0,0,1-.125-.31c.016-1.784,2.684-2.459,4.065-1.273C155.4,245.32,155.52,246.432,154.851,246.432Z" transform="translate(-149.425 -242.918)" fill="#fff"/>
      </g>
    </g>
    <g id="Grupo_3301" data-name="Grupo 3301" transform="translate(26.107 0)">
      <g id="Grupo_3300" data-name="Grupo 3300" transform="translate(0 0)">
        <path id="Caminho_2378" data-name="Caminho 2378" d="M216.779,4.608c-1.76-.413-4.167-1.4-4.182-1.991,0-.006.016-.643,2.831-1.468A.586.586,0,0,0,215.1.024c-2.568.753-3.7,1.562-3.673,2.624.023.875.907,1.643,2.7,2.35a19.673,19.673,0,0,0,2.377.75c9.89,2.427,13.526,8.822,5.815,13.351a2.139,2.139,0,0,0-1.1-.69l.052-5.768c.015-1.672-1.1-2.356-2.594-1.959l-.34.11a34.742,34.742,0,0,1-13.219,1.078.588.588,0,1,0-.033,1.174c.253.024.517.045.625.053h0a36.659,36.659,0,0,0,12.895-1.161c.089-.017.907-.366,1.268-.086a1.03,1.03,0,0,1,.227.78l-.052,5.809a2.136,2.136,0,0,0-.037,4.063,17.61,17.61,0,0,1-1.181,7.156.586.586,0,0,0,.547.8c.459,0,.559-.386.716-.816a19.321,19.321,0,0,0,1.089-7.084,2.134,2.134,0,0,0,1.616-2.388.59.59,0,0,0,.089-.041C230.94,15.412,228.692,7.531,216.779,4.608Zm2.99,16.148a.963.963,0,1,1,1.885-.28A.962.962,0,0,1,219.769,20.756Z" transform="translate(-204.482 0)" fill="#fff"/>
      </g>
    </g>
    <g id="Grupo_3303" data-name="Grupo 3303" transform="translate(10.99 0)">
      <g id="Grupo_3302" data-name="Grupo 3302" transform="translate(0 0)">
        <path id="Caminho_2379" data-name="Caminho 2379" d="M39.945,32.105a.586.586,0,0,0-.809.18c-.026.042-.218.345-.245.386s-.169.248-.2.3a16.918,16.918,0,0,1-5.283,4.928,6.732,6.732,0,0,1-6.944-.088c-.17-.11-.141-.082-.533-.345a16.71,16.71,0,0,1-7.39-14.014l.008-.922a2.136,2.136,0,0,0,.037-4.09c.058-6.411-.02-6.554.3-6.79.529-.4,1.29.375,4.977,1.018a.586.586,0,1,0,.171-1.16,24.182,24.182,0,0,1-3.9-.994,1.87,1.87,0,0,0-2.665,1.9l-.054,6a2.138,2.138,0,0,0-1.09.689c-5.04-2.96-5.694-7.209-.866-10.54.213-.14,3.224-2.161,3.259-4.774.019-1.37-.762-2.608-2.32-3.681a.586.586,0,0,0-.665.965,3.4,3.4,0,0,1,1.813,2.7C17.525,5.271,16.016,6.749,14.8,7.59c-5.538,3.816-4.88,9.128.971,12.543a.581.581,0,0,0,.071.035,2.137,2.137,0,0,0,1.536,2.363,22.915,22.915,0,0,0,.091,2.949,17.887,17.887,0,0,0,8.85,13.6,7.889,7.889,0,0,0,7.254.066,17.842,17.842,0,0,0,6.092-5.528c.264-.388.156-.222.463-.707A.586.586,0,0,0,39.945,32.105ZM16.989,20.475a.964.964,0,0,1,.963-.963l.026,0a.952.952,0,0,1,.306.058.8.8,0,0,1,.121.054.963.963,0,1,1-1.416.85Z" transform="translate(-10.99 0)" fill="#fff"/>
      </g>
    </g>
  </g>
</svg>
