<svg id="Grupo_3724" data-name="Grupo 3724" xmlns="http://www.w3.org/2000/svg" width="25" height="29.529" viewBox="0 0 25 29.529">
  <g id="g20" transform="translate(0.046)">
    <path id="path22" d="M-63.592-122.773h10.237c2.338,0,2.361-2.484,2.123-3.711a.884.884,0,0,0-1.685,0v.957a.8.8,0,0,1-.8.8H-73.339a.8.8,0,0,1-.8-.8v-.957a.884.884,0,0,0-1.685,0c-.238,1.227-.215,3.711,2.123,3.711h10.105Zm-7.237-23.8h15.785a2.083,2.083,0,0,1,2.016,2.134v1.02a.981.981,0,1,1-1.953.01v-.557a.646.646,0,0,0-.644-.644H-71.443a.646.646,0,0,0-.644.644v.546a.939.939,0,1,1-1.861.031v-1.049a2.084,2.084,0,0,1,2.016-2.134Z" transform="translate(75.918 146.57)" fill="#9095a0" fill-rule="evenodd"/>
  </g>
  <g id="g24" transform="translate(15.036 6.184)">
    <path id="path26" d="M-38.7-28.571a3.121,3.121,0,0,1,1.848,2.795,3.244,3.244,0,0,1-3.335,3.125h-5.14a.851.851,0,0,1-.874-.819v-9.78a.861.861,0,0,1,.859-.858h4.282a3.285,3.285,0,0,1,3.277,3.274,3.26,3.26,0,0,1-.916,2.264m-3.837-.8h1.632v-.018a1.558,1.558,0,0,0,1.317-1.534h0a1.557,1.557,0,0,0-1.552-1.552h-3.288v8.116h4.169a1.608,1.608,0,0,0,1.6-1.6,1.608,1.608,0,0,0-1.6-1.6h-.646v0h-1.632a.9.9,0,0,1-.9-.9.9.9,0,0,1,.9-.9" transform="translate(46.202 34.109)" fill="#9095a0" fill-rule="evenodd"/>
  </g>
  <g id="g28" transform="translate(3.861 26.524)">
    <path id="path30" d="M-9.935-1.422A.276.276,0,0,1-9.66-1.7a.276.276,0,0,1,.276.276V.069h0a1.235,1.235,0,0,1-.364.875,1.233,1.233,0,0,1-.873.362h0A1.234,1.234,0,0,1-11.5.943,1.233,1.233,0,0,1-11.86.07h0V-1.422a.276.276,0,0,1,.276-.276.276.276,0,0,1,.276.276V.069h0a.686.686,0,0,0,.2.485.686.686,0,0,0,.485.2h0a.686.686,0,0,0,.485-.2.685.685,0,0,0,.2-.485h0Z" transform="translate(11.861 1.698)" fill="#9095a0"/>
  </g>
  <g id="g32" transform="translate(6.594 26.524)">
    <path id="path34" d="M-9.274-12.66A.276.276,0,0,1-9-12.384a.276.276,0,0,1-.276.276h-.761a1.034,1.034,0,0,1-.732-.3,1.033,1.033,0,0,1-.3-.731h0v-1.693a.276.276,0,0,1,.276-.276.276.276,0,0,1,.276.276v1.693h0a.484.484,0,0,0,.144.343.484.484,0,0,0,.342.143h.761Z" transform="translate(11.071 15.114)" fill="#9095a0"/>
  </g>
  <g id="g36" transform="translate(0.504 5.966)">
    <path id="path38" d="M-70.762-55.2a1.031,1.031,0,0,1-.917,1.135,1.031,1.031,0,0,1-1.135-.917l-.845-7.778-2.994,7.605,0,.007h0l-.008.02-.007.016,0,0-.007.016,0,.01-.007.015,0,.007-.008.016,0,.005a1.026,1.026,0,0,1-.209.273l0,0-.015.014a1.021,1.021,0,0,1-.178.126l0,0-.019.011h0l-.018.009-.008,0-.012.005-.012.006-.011.005-.013.005-.011,0-.011,0-.01,0-.005,0-.009,0-.014.005-.008,0a1.027,1.027,0,0,1-.3.057h-.075a1.027,1.027,0,0,1-.338-.07l-.014-.005,0,0-.014-.005-.013-.006-.011-.005-.012-.005-.012-.006-.007,0-.019-.01h0l-.016-.009-.009,0a1.028,1.028,0,0,1-.158-.109l0,0-.034-.03h0l-.026-.025-.025-.026h0l-.03-.034,0,0a1.028,1.028,0,0,1-.109-.158l-.005-.009-.009-.016v0l-.01-.018,0-.007-.006-.012-.005-.012,0-.011-.006-.013-.006-.014v0l-.006-.014-3-7.613-.845,7.778a1.031,1.031,0,0,1-1.135.917,1.031,1.031,0,0,1-.917-1.135l1-9.17v-.006h0a1.71,1.71,0,0,1,.067-.317,1.718,1.718,0,0,1,.125-.3A1.709,1.709,0,0,1-82-65.88h0l.056-.006a1.722,1.722,0,0,1,.26-.008h0a1.748,1.748,0,0,1,.312.042,1.694,1.694,0,0,1,1.2,1.036l2.551,6.479,2.551-6.479a1.694,1.694,0,0,1,1.2-1.036,1.743,1.743,0,0,1,.312-.042h0a1.73,1.73,0,0,1,.261.008l.056.006h0a1.709,1.709,0,0,1,1.282.891,1.717,1.717,0,0,1,.125.3,1.707,1.707,0,0,1,.067.317h0v.006Z" transform="translate(84.477 65.896)" fill="#9095a0"/>
  </g>
  <g id="g40" transform="translate(0 26.52)">
    <path id="path42" d="M-19.394-13.933a.276.276,0,0,1-.241.306.276.276,0,0,1-.306-.241l-.236-1.985L-21.02-13.9a.275.275,0,0,1-.362.144.273.273,0,0,1-.144-.144h0l-.842-1.953-.236,1.985a.276.276,0,0,1-.306.241.275.275,0,0,1-.241-.306l.274-2.3a.442.442,0,0,1,.241-.342.469.469,0,0,1,.054-.024l.021-.008a.487.487,0,0,1,.081-.017h0a.476.476,0,0,1,.385.122.463.463,0,0,1,.056.065.456.456,0,0,1,.032.052.24.24,0,0,1,.015.031l.714,1.655.714-1.655a.453.453,0,0,1,.322-.261.492.492,0,0,1,.081-.011.538.538,0,0,1,.06,0h0l.02,0h0a.464.464,0,0,1,.343.22h0a.439.439,0,0,1,.037.079.438.438,0,0,1,.015.054.3.3,0,0,1,.006.036v0Z" transform="translate(23.153 16.633)" fill="#9095a0"/>
  </g>
  <g id="g44" transform="translate(7.985 26.524)">
    <path id="path46" d="M-8.313-14.082a.276.276,0,0,1-.276.276.276.276,0,0,1-.276-.276V-16.26h-.784a.276.276,0,0,1-.276-.276.276.276,0,0,1,.276-.276h2.12a.276.276,0,0,1,.276.276.276.276,0,0,1-.276.276h-.784Z" transform="translate(9.924 16.811)" fill="#9095a0"/>
  </g>
  <g id="g48" transform="translate(10.765 26.524)">
    <path id="path50" d="M-2.844-14.082a.276.276,0,0,1-.276.276.276.276,0,0,1-.276-.276v-2.454a.276.276,0,0,1,.276-.276.276.276,0,0,1,.276.276Z" transform="translate(3.395 16.811)" fill="#9095a0"/>
  </g>
  <g id="g52" transform="translate(14.215 26.524)">
    <path id="path54" d="M-14.213-13.909a.276.276,0,0,1-.24.307.276.276,0,0,1-.307-.24l-.1-.779h-.955a.276.276,0,0,1-.276-.276.276.276,0,0,1,.276-.276h.887l-.025-.2v0c0-.006,0-.013,0-.019a1.015,1.015,0,0,0-.032-.141.931.931,0,0,0-.057-.145.624.624,0,0,0-.557-.372h0a.588.588,0,0,0-.139.017.561.561,0,0,0-.123.046.772.772,0,0,0-.384.614l-.173,1.532a.275.275,0,0,1-.3.244.275.275,0,0,1-.243-.3l.172-1.532a1.323,1.323,0,0,1,.681-1.045,1.1,1.1,0,0,1,.244-.089A1.138,1.138,0,0,1-15.6-16.6h0a1.16,1.16,0,0,1,1.048.677,1.451,1.451,0,0,1,.093.234,1.527,1.527,0,0,1,.048.224.221.221,0,0,1,0,.026v0Z" transform="translate(16.968 16.605)" fill="#9095a0"/>
  </g>
  <g id="g56" transform="translate(17.263 26.524)">
    <path id="path58" d="M-2.845-14.082a.276.276,0,0,1-.276.276.276.276,0,0,1-.276-.276v-2.279h0a.272.272,0,0,1,0-.047.385.385,0,0,1,.022-.089h0a.464.464,0,0,1,.023-.049h0a.389.389,0,0,1,.215-.181l.038-.01.029-.006h0a.4.4,0,0,1,.066,0h.007a.387.387,0,0,1,.291.15l1.467,1.871v-1.805a.276.276,0,0,1,.276-.276.276.276,0,0,1,.276.276v2.269a.387.387,0,0,1-.144.3.4.4,0,0,1-.056.038l-.034.017h0l-.023.009h0a.385.385,0,0,1-.3-.017.258.258,0,0,1-.036-.018.39.39,0,0,1-.055-.041.346.346,0,0,1-.035-.037l-.009-.011h0l0,0L-2.845-15.9Z" transform="translate(3.396 16.811)" fill="#9095a0"/>
  </g>
  <g id="g60" transform="translate(20.22 26.524)">
    <path id="path62" d="M-9.8-12.66a.276.276,0,0,1,.276.276.276.276,0,0,1-.276.276h-.813a1.085,1.085,0,0,1-.768-.319A1.084,1.084,0,0,1-11.7-13.2h0v-.829h0a1.085,1.085,0,0,1,.319-.768,1.084,1.084,0,0,1,.767-.318H-9.8a.276.276,0,0,1,.276.276.276.276,0,0,1-.276.276h-.813a.536.536,0,0,0-.379.159.534.534,0,0,0-.158.378h0v.829h0a.535.535,0,0,0,.159.379.534.534,0,0,0,.378.158H-9.8Z" transform="translate(11.702 15.114)" fill="#9095a0"/>
  </g>
  <g id="g64" transform="translate(22.429 26.524)">
    <path id="path66" d="M-6.633-2.84h0a.752.752,0,0,0-.522.208.676.676,0,0,0-.213.487h0v.513h0a.676.676,0,0,0,.212.486.754.754,0,0,0,.522.209h0a.751.751,0,0,0,.522-.209A.675.675,0,0,0-5.9-1.63h0v-.513h0a.676.676,0,0,0-.212-.486.753.753,0,0,0-.522-.208m0-.55h0a1.3,1.3,0,0,1,.9.361,1.223,1.223,0,0,1,.381.883h0v.513h0a1.223,1.223,0,0,1-.381.883,1.3,1.3,0,0,1-.9.361h0a1.3,1.3,0,0,1-.9-.361,1.223,1.223,0,0,1-.381-.883h0v-.513h0a1.223,1.223,0,0,1,.381-.883,1.3,1.3,0,0,1,.9-.361h0Z" transform="translate(7.919 3.39)" fill="#9095a0"/>
  </g>
  <g id="g68" transform="translate(11.547 26.524)">
    <path id="path70" d="M-2.844-2.845v1.9h1.065a.346.346,0,0,0,.245-.1.344.344,0,0,0,.1-.244h0a.345.345,0,0,0-.092-.233l-.011-.01a.345.345,0,0,0-.244-.1h-.367a.276.276,0,0,1-.276-.276.276.276,0,0,1,.276-.276h.125a.331.331,0,0,0,.208-.1h0a.329.329,0,0,0,.1-.232h0a.329.329,0,0,0-.1-.232.328.328,0,0,0-.232-.1h-.8Zm-.551.934v-1.2h0a.277.277,0,0,1,.023-.11.284.284,0,0,1,.064-.095l0,0h0A.284.284,0,0,1-3.124-3.4h1.08a.877.877,0,0,1,.622.258.876.876,0,0,1,.257.62h0a.875.875,0,0,1-.135.468.921.921,0,0,1,.156.125l.017.018a.894.894,0,0,1,.245.615h0a.9.9,0,0,1-.264.634.893.893,0,0,1-.632.262H-3.119a.276.276,0,0,1-.276-.276V-1.911Z" transform="translate(3.395 3.396)" fill="#9095a0"/>
  </g>
</svg>
