<svg xmlns="http://www.w3.org/2000/svg" width="40.005" height="40" viewBox="0 0 40.005 40">
  <g id="Grupo_1297" data-name="Grupo 1297" transform="translate(-158 -582)">
    <g id="Grupo_1222" data-name="Grupo 1222" transform="translate(158.002 583.343)">
      <g id="Grupo_1221" data-name="Grupo 1221">
        <path id="Caminho_455" data-name="Caminho 455" d="M8.983,19.5a2.257,2.257,0,0,0-1.852-.943v-.293a2.188,2.188,0,0,0-4.373,0,.327.327,0,0,1-.347.3h-.2A2.2,2.2,0,0,0,.4,19.5a2.061,2.061,0,0,0,0,2.375,2.2,2.2,0,0,0,1.812.934h4.96a2.2,2.2,0,0,0,1.812-.933A2.063,2.063,0,0,0,8.983,19.5ZM7.889,21.114a.867.867,0,0,1-.717.362H2.211a.867.867,0,0,1-.72-.362.737.737,0,0,1,0-.851.867.867,0,0,1,.72-.363h.2a1.66,1.66,0,0,0,1.68-1.636.856.856,0,0,1,1.707,0v.293A1.359,1.359,0,0,0,7.171,19.9a.867.867,0,0,1,.717.362A.737.737,0,0,1,7.889,21.114Z" transform="translate(-0.023 -16.153)" fill="#fff"/>
      </g>
    </g>
    <g id="Grupo_1224" data-name="Grupo 1224" transform="translate(158 582)">
      <g id="Grupo_1223" data-name="Grupo 1223" transform="translate(0 0)">
        <path id="Caminho_456" data-name="Caminho 456" d="M34.256,20.7h3.561a2.2,2.2,0,0,0,1.812-.933,2.063,2.063,0,0,0,0-2.376,2.257,2.257,0,0,0-1.852-.943v-.293a2.188,2.188,0,0,0-4.373,0,.327.327,0,0,1-.347.3h-.2a2.14,2.14,0,0,0-.228.027c0-.011,0-.022-.006-.033l-4-10a.667.667,0,0,0-1.232-.015l-3.447,8.043L18.627.463A.667.667,0,0,0,18,.032a.639.639,0,0,0-.624.426L10.1,19.272l-.788-2.757a.667.667,0,0,0-1.253-.079L.058,35.1a.667.667,0,1,0,1.218.543l.007-.017L8.544,18.685l.819,2.867a.667.667,0,0,0,1.263.057l2.656-6.861,1.459,2.919a.667.667,0,0,0,1.117.119L18,15.1l2.146,2.683a.667.667,0,0,0,.521.251h.067a.671.671,0,0,0,.527-.365l1.4-2.8L32.046,39.6a.667.667,0,0,0,1.247-.472L24.626,16.277l.8-1.875,2.1,2.1a.667.667,0,0,0,.943,0l1.952-1.952.957,2.4c.007.015.018.027.025.043a2.112,2.112,0,0,0-.365.4,2.061,2.061,0,0,0,0,2.375,2.2,2.2,0,0,0,1.774.929l5.9,14.915a.667.667,0,0,0,1.24-.491ZM20.54,16.135l-2.016-2.52a.691.691,0,0,0-1.041,0l-2.013,2.52-1.533-3.067L18,2.565l4.024,10.61ZM28,15.089,25.994,13.08l1.988-4.639L29.888,13.2ZM32.137,19a.737.737,0,0,1,0-.851.867.867,0,0,1,.718-.363h.2a1.66,1.66,0,0,0,1.68-1.636.856.856,0,0,1,1.707,0v.293a1.359,1.359,0,0,0,1.373,1.343.867.867,0,0,1,.717.362.737.737,0,0,1,0,.852.867.867,0,0,1-.715.362h-4.96A.866.866,0,0,1,32.137,19Z" transform="translate(0 -0.032)" fill="#fff"/>
      </g>
    </g>
    <g id="Grupo_1226" data-name="Grupo 1226" transform="translate(163.337 610.667)">
      <g id="Grupo_1225" data-name="Grupo 1225">
        <path id="Caminho_457" data-name="Caminho 457" d="M74.825,344.036H74.6a2.542,2.542,0,0,0-1.889.849,2.542,2.542,0,0,0-1.889-.849H70.6a2.542,2.542,0,0,0-1.889.849,2.542,2.542,0,0,0-1.889-.849H66.6a2.559,2.559,0,0,0-2.555,2.555v3.556a2.558,2.558,0,0,0,2,2.489V354.7a.667.667,0,1,0,1.333,0v-2.067a2.545,2.545,0,0,0,1.333-.785,2.545,2.545,0,0,0,1.333.785V354.7a.667.667,0,1,0,1.333,0v-2.067a2.545,2.545,0,0,0,1.333-.785,2.545,2.545,0,0,0,1.333.785V354.7a.667.667,0,1,0,1.333,0v-2.067a2.558,2.558,0,0,0,2-2.491v-3.554A2.559,2.559,0,0,0,74.825,344.036Zm-6.778,6.111a1.223,1.223,0,0,1-1.222,1.222H66.6a1.223,1.223,0,0,1-1.222-1.222v-3.556a1.223,1.223,0,0,1,1.222-1.222h.223a1.223,1.223,0,0,1,1.222,1.222Zm4,0a1.223,1.223,0,0,1-1.222,1.222H70.6a1.223,1.223,0,0,1-1.222-1.222v-3.556a1.223,1.223,0,0,1,1.222-1.222h.223a1.223,1.223,0,0,1,1.222,1.222Zm4,0a1.223,1.223,0,0,1-1.222,1.222H74.6a1.223,1.223,0,0,1-1.222-1.222v-3.556a1.223,1.223,0,0,1,1.222-1.222h.223a1.223,1.223,0,0,1,1.222,1.222Z" transform="translate(-64.047 -344.036)" fill="#fff"/>
      </g>
    </g>
    <g id="Grupo_1228" data-name="Grupo 1228" transform="translate(178.004 610.667)">
      <g id="Grupo_1227" data-name="Grupo 1227">
        <path id="Caminho_458" data-name="Caminho 458" d="M242.825,344.036H242.6a2.559,2.559,0,0,0-2.555,2.555v3.556a2.558,2.558,0,0,0,2,2.489V354.7a.667.667,0,1,0,1.333,0v-2.067a2.558,2.558,0,0,0,2-2.491v-3.554A2.559,2.559,0,0,0,242.825,344.036Zm1.222,6.111a1.223,1.223,0,0,1-1.222,1.222H242.6a1.223,1.223,0,0,1-1.222-1.222v-3.556a1.223,1.223,0,0,1,1.222-1.222h.223a1.223,1.223,0,0,1,1.222,1.222Z" transform="translate(-240.047 -344.036)" fill="#fff"/>
      </g>
    </g>
  </g>
</svg>
