<?xml version="1.0" encoding="utf-8"?>
<!-- Generator: Adobe Illustrator 22.0.1, SVG Export Plug-In . SVG Version: 6.00 Build 0)  -->
<svg version="1.1" id="Layer_1" xmlns="http://www.w3.org/2000/svg" xmlns:xlink="http://www.w3.org/1999/xlink" x="0px" y="0px"
	 viewBox="0 0 512 512" style="enable-background:new 0 0 512 512;" xml:space="preserve">
<style type="text/css">
	.st0{fill:#FF6633;}
</style>
<g>
	<g>
		<path class="st0" d="M406.1,53.2L406.1,53.2C370.4,18.9,321.1,0,267.2,0C185.5,0,135,33.7,107.1,62c-34.6,35-54.5,81.6-54.5,127.9
			c0,59,25.3,104.5,67.5,121.8c3.8,1.6,7.7,2.3,11.6,2.3c8.4,0,15.8-3.6,20.8-9.8c-8,33.9-16.5,70-19.1,80.9
			c-1.2,5.3-6.5,32.7-7.7,60.5c-1.6,39.4,6,60.9,23.2,65.5c2.3,0.6,4.6,0.9,6.9,0.9c16.2,0,31.9-15.5,46.9-46.2
			c10.9-22.4,19-47.8,21.2-55.7c1.7-6.3,6.7-25.8,11.6-45c16.5,10.7,37.3,17,57.4,17c48.1,0,91.3-21.6,121.6-60.8
			c28.9-37.3,44.8-89.1,44.8-145.7C459.4,130.3,440,85.7,406.1,53.2z M142.4,196.7c0-55,41.1-113.5,117.2-113.5
			c60.3,0,96.2,32.6,96.2,87.2c0,36.2-7.7,69.5-21.6,93.8c-9,15.6-24.5,34.2-47.4,34.2c-8.9,0-16.8-3.5-21.7-9.7
			c-4.5-5.7-5.9-13-4-21c2.9-12.1,6.8-24.8,10.6-37.2c7.3-23.5,14.1-45.8,14.1-64.5c0-35-22.7-59.4-55.2-59.4
			c-39.9,0-71.2,39.2-71.2,89.3c0,20.6,4.8,36.8,7.9,45l-1.7,7.1c-0.4,1.6-0.8,3.4-1.2,5.2c-1.4-5.3-4.3-9.8-8.3-14.4
			C146.7,227.6,142.4,214.6,142.4,196.7z M398.4,308.8c-26.4,34.1-63.9,52.9-105.5,52.9c-20.6,0-42.7-8.5-56.4-21.7
			c-2.6-2.5-6.4-3.5-9.9-2.5s-6.2,3.8-7.1,7.3c-8.3,32.9-13.6,53.6-15.4,59.8c-0.1,0.3-7.7,27.2-19.8,52.2
			c-13.5,27.8-24.7,35.9-30.1,34.5c-3.4-0.9-9.5-11.5-8.1-45c1-24.3,5.6-50,7.1-56.6c4.3-18,24.7-104.5,32.4-137l2.4-10.2
			c0.5-2.1,0.3-4.3-0.5-6.3c-2.3-5.5-7.6-20.3-7.6-40.3c0-38.6,22.3-68.9,50.8-68.9c21.1,0,34.8,15.3,34.8,39
			c0,15.6-6.4,36.4-13.2,58.6c-3.9,12.6-7.9,25.7-11,38.5c-3.3,14.1-0.5,27.7,7.9,38.3c8.8,11.1,22.5,17.4,37.7,17.4
			c25.9,0,48.4-15.4,65.1-44.5c15.7-27.4,24.3-64.3,24.3-103.9c0-32.4-11-59.6-31.9-78.7c-20.6-18.9-49.9-28.8-84.7-28.8
			c-52.1,0-84.4,23.2-102.2,42.7c-22.5,24.5-35.4,57.7-35.4,91.2c0,22.7,5.9,40.3,18.7,55.4c4.5,5.3,5.2,6.8,3.5,13.2
			c0,0.1,0,0.1-0.1,0.2l-0.2,0.9c-1.3,5.4-4.1,16.5-5.3,21.1c-0.6,2.3-2.3,6.2-6.8,6.2c-1.2,0-2.5-0.3-3.9-0.8
			c-34.5-14.2-55-52.7-55-103.1c0-40.9,17.7-82.3,48.6-113.5c25.2-25.5,70.9-55.9,145.6-55.9c48.5,0,92.9,16.9,124.8,47.5
			c29.9,28.7,47,67.9,47,107.7C439,227.8,424.6,275.1,398.4,308.8z"/>
	</g>
</g>
<g>
	<g>
		<path class="st0" d="M238.5,207.3c-5.4-1.6-11.1,1.5-12.7,6.9l-11.2,37.9c-1.6,5.4,1.5,11.1,6.9,12.7c1,0.3,1.9,0.4,2.9,0.4
			c4.4,0,8.5-2.9,9.8-7.3l11.2-37.9C247,214.5,243.9,208.9,238.5,207.3z"/>
	</g>
</g>
<g>
	<g>
		<path class="st0" d="M248.7,172.8c-5.4-1.6-11.1,1.5-12.7,6.9l-1.5,5.1c-1.6,5.4,1.5,11.1,6.9,12.7c1,0.3,1.9,0.4,2.9,0.4
			c4.4,0,8.5-2.9,9.8-7.3l1.5-5.1C257.2,180,254.1,174.4,248.7,172.8z"/>
	</g>
</g>
</svg>
