<?xml version="1.0" encoding="utf-8"?>
<!-- Generator: Adobe Illustrator 24.0.1, SVG Export Plug-In . SVG Version: 6.00 Build 0)  -->
<svg version="1.1" id="Camada_1" xmlns="http://www.w3.org/2000/svg" xmlns:xlink="http://www.w3.org/1999/xlink" x="0px" y="0px"
	 viewBox="0 0 86.1 90" style="enable-background:new 0 0 86.1 90;" xml:space="preserve">
<style type="text/css">
	.st0{fill:#FFFFFF;}
</style>
<g id="theater" transform="translate(-10.99 0)">
	<g id="Grupo_3295" transform="translate(38.172 62.648)">
		<g id="Grupo_3294">
			<path id="Caminho_2375" class="st0" d="M31,1c-0.8-1-2.1-0.6-2.7-0.4l-0.1,0C24.2,2,20,2.6,15.8,2.5c0,0-0.1,0-0.1,0
				C11.4,2.6,7.2,1.8,3.2,0.3C1.9-0.2,0.9-0.1,0.4,0.6c-0.8,0.9-0.2,2,0.5,3C4.2,8.3,10,15.3,15.7,15.3c5.7,0,11.8-7.2,15-11.5l0,0
				C31,3.3,31.8,2.1,31,1z M15.7,12.6c-3.1,0-7.3-3.3-11.6-9.1c7.6,2.2,15.7,2.2,23.4,0.2C24.9,7,19.8,12.7,15.7,12.6L15.7,12.6z"/>
		</g>
	</g>
	<g id="Grupo_3297" transform="translate(56.801 42.895)">
		<g id="Grupo_3296" transform="translate(0)">
			<path id="Caminho_2376" class="st0" d="M7.9,0C3.6,0,0,2.9,0,6.8c0,2,1.6,3.6,3.6,3.7l8.6,0.1c0.9,0,1.9-0.4,2.5-1
				C17.6,6.7,14.7,0,7.9,0z M12.9,7.6c-0.4,0.4,0,0.3-9.3,0.2C1.5,7.8,2.7,2.6,8,2.6C12.4,2.7,14,6.6,12.9,7.6L12.9,7.6z"/>
		</g>
	</g>
	<g id="Grupo_3299" transform="translate(35.324 42.7)">
		<g id="Grupo_3298" transform="translate(0)">
			<path id="Caminho_2377" class="st0" d="M13.5,2C8.7-2.1,0.1,0.5,0,6.8c0,2,1.6,3.6,3.6,3.7c0,0,0,0,0,0l8.6,0.1
				c2,0,3.6-1.6,3.6-3.6C15.8,5,15,3.2,13.5,2z M12.2,7.9c-9.3-0.1-8.9,0-9.3-0.4C2.7,7.3,2.6,7.1,2.6,6.8c0-4,6-5.5,9.1-2.9
				C13.5,5.4,13.7,7.9,12.2,7.9L12.2,7.9z"/>
		</g>
	</g>
	<g id="Grupo_3301" transform="translate(45.002 0)">
		<g id="Grupo_3300" transform="translate(0 0)">
			<path id="Caminho_2378" class="st0" d="M27.7,10.4c-4-0.9-9.4-3.1-9.4-4.5c0,0,0-1.4,6.4-3.3c0.7-0.2,1.1-0.9,0.9-1.6
				s-0.9-1.1-1.6-0.9c0,0,0,0,0,0c-5.8,1.7-8.3,3.5-8.3,5.9c0.1,2,2,3.7,6.1,5.3c1.7,0.7,3.5,1.2,5.3,1.7
				c22.3,5.5,30.4,19.8,13.1,30c-0.6-0.8-1.5-1.3-2.5-1.6l0.1-13c0-3.8-2.5-5.3-5.8-4.4c0,0-0.6,0.2-0.8,0.2
				c-4.9,1.8-16.6,3.7-29.7,2.4c-0.7-0.1-1.4,0.5-1.4,1.2s0.5,1.4,1.2,1.4c0.1,0,0.1,0,0.2,0c0.6,0.1,1.2,0.1,1.4,0.1l0,0
				c9.1,0.7,20.3,0.1,29-2.6c0.2,0,2-0.8,2.9-0.2c0.4,0.5,0.6,1.1,0.5,1.8L35,41.5c-2.5,0.8-3.9,3.5-3.1,6c0.5,1.5,1.6,2.6,3.1,3.1
				c-0.1,6.2-0.3,10.1-2.7,16.1c-0.3,0.7,0.1,1.4,0.8,1.7c0.1,0.1,0.3,0.1,0.5,0.1c1,0,1.3-0.9,1.6-1.8c2.3-6.2,2.4-11,2.5-15.9
				c2.4-0.6,4-2.9,3.6-5.4c0.1,0,0.1-0.1,0.2-0.1C59.5,34.7,54.5,16.9,27.7,10.4z M34.4,46.7c-0.3-1.1,0.3-2.4,1.4-2.7
				c1.1-0.3,2.4,0.3,2.7,1.4c0.1,0.2,0.1,0.4,0.1,0.6c0,1.2-0.9,2.2-2.1,2.2C35.5,48.3,34.7,47.6,34.4,46.7z"/>
		</g>
	</g>
	<g id="Grupo_3303" transform="translate(10.99 0)">
		<g id="Grupo_3302" transform="translate(0 0)">
			<path id="Caminho_2379" class="st0" d="M65.1,72.2c-0.6-0.4-1.4-0.2-1.8,0.4c-0.1,0.1-0.5,0.8-0.6,0.9s-0.4,0.6-0.5,0.7
				c-3.1,4.5-7.2,8.3-11.9,11.1c-4.8,2.8-10.9,2.8-15.6-0.2c-0.4-0.2-0.3-0.2-1.2-0.8c-10.5-7-16.7-18.9-16.6-31.5l0-2.1
				c2.5-0.7,4-3.4,3.3-6c-0.5-1.5-1.6-2.8-3.2-3.2c0.1-14.4,0-14.7,0.7-15.3c1.2-0.9,2.9,0.8,11.2,2.3c0.7,0.1,1.4-0.4,1.5-1.1
				c0.1-0.7-0.4-1.4-1.1-1.5c0,0,0,0-0.1,0c-3-0.5-5.9-1.2-8.8-2.2c-2.2-0.8-6-0.4-6,4.3l-0.1,13.5c-1,0.3-1.8,0.8-2.5,1.5
				C0.7,36.3-0.8,26.7,10,19.3c0.5-0.3,7.3-4.9,7.3-10.7c0-3.1-1.7-5.9-5.2-8.3c-0.6-0.4-1.4-0.3-1.8,0.3S10.1,2,10.7,2.4
				c2.7,1.9,4.1,3.9,4.1,6.1c0,3.4-3.4,6.7-6.2,8.6c-12.5,8.6-11,20.5,2.2,28.2c0.1,0,0.1,0.1,0.2,0.1c-0.3,2.4,1.1,4.7,3.5,5.3
				c-0.1,2.2,0,4.4,0.2,6.6c1.4,12.8,8.8,24.2,19.9,30.6c5.1,2.7,11.2,2.8,16.3,0.1c5.5-3,10.2-7.3,13.7-12.4c0.6-0.9,0.4-0.5,1-1.6
				C65.9,73.4,65.8,72.6,65.1,72.2z M13.5,46.1c0-1.2,1-2.2,2.2-2.2h0.1c0.2,0,0.5,0.1,0.7,0.1c0.1,0,0.2,0.1,0.3,0.1
				c1.1,0.6,1.5,1.9,0.9,2.9c-0.6,1.1-1.9,1.5-2.9,0.9C13.9,47.6,13.5,46.9,13.5,46.1L13.5,46.1z"/>
		</g>
	</g>
</g>
</svg>
