<?xml version="1.0" encoding="utf-8"?>
<!-- Generator: Adobe Illustrator 22.0.1, SVG Export Plug-In . SVG Version: 6.00 Build 0)  -->
<svg version="1.1" id="Layer_1" xmlns="http://www.w3.org/2000/svg" xmlns:xlink="http://www.w3.org/1999/xlink" x="0px" y="0px"
	 viewBox="0 0 512 512" style="enable-background:new 0 0 512 512;" xml:space="preserve">
<style type="text/css">
	.st0{fill:#999999;}
</style>
<g>
	<g>
		<path class="st0" d="M507.8,96.8c-3.9-4.7-9.9-7-15.8-6.4c2.3-4.9,4.4-9.9,6-15.1c2.3-7.1-0.1-15-6-19.7
			c-5.8-4.7-14.1-5.2-20.5-1.4c-14.8,8.8-30.6,15.3-47.2,19.5c-21-18.6-48.7-29.1-76.8-29.1c-63.8,0-115.7,51.9-115.7,115.7
			c0,0.7,0,1.4,0,2.1c-64.8-8.8-125-42.4-166.5-93.3c-3.8-4.6-9.6-7.1-15.5-6.6c-5.9,0.5-11.3,3.8-14.2,8.9
			C25.3,89,19.9,109.1,19.9,129.6c0,18.1,4.2,35.7,12.1,51.7c-1.3,0.4-2.6,0.9-3.8,1.6c-5.5,3.1-9,9-9.1,15.3c0,0.6,0,1.1,0,1.7
			c0,32.9,14.3,64.2,38.3,85.9c-3.8,4.7-5.1,11.2-3.2,17c9.9,31.1,32.7,56.3,61.7,69.7c-23.2,10.6-48.5,16.2-74.5,16.2
			c-7.1,0-14.2-0.4-21.1-1.2c-8.4-1-16.3,3.9-19.2,11.9c-2.9,8,0.1,16.8,7.3,21.4c47.7,30.6,102.8,46.7,159.4,46.7
			c111.3,0,180.9-52.5,219.8-96.6c48.3-54.8,76.1-127.4,76.1-199.2c0-1.3,0-2.5,0-3.8c17.6-13.9,32.8-30.5,45.4-49.3
			C513.4,111.9,512.9,102.9,507.8,96.8z M447.1,154.7c-2.6,2-4.2,5.1-4.1,8.5c0.1,2.8,0.1,5.6,0.1,8.4c0,66.9-25.9,134.6-71,185.7
			C336.2,398.3,271.4,447,167.8,447c-49.5,0-97.7-13.3-140.2-38.4c4.6,0.3,9.2,0.5,13.8,0.5c37.5,0,73.8-10.4,105.2-30
			c3.5-2.2,5.3-6.3,4.6-10.4c-0.7-4.1-3.8-7.3-7.8-8.2c-31.6-7.1-57.6-30-68.6-60.3c1.7,0.3,3.4,0.5,5.1,0.6c4.8,0.5,9.2-2.4,10.7-7
			c1.5-4.5-0.4-9.5-4.5-12c-28.1-16.7-45.8-47-46.7-79.4c4,2,8.1,3.8,12.3,5.2c4.3,1.5,9.2-0.1,11.8-3.9c2.6-3.8,2.3-8.9-0.7-12.4
			c-14.6-17.2-22.7-39.1-22.7-61.8c0-15.8,3.9-31.3,11.3-45.1c47.5,56.8,116.7,93.1,190.3,99.5c3.1,0.3,6.1-0.9,8.2-3.1
			s3.2-5.3,2.8-8.4c-0.5-4.1-0.8-8.2-0.8-12.3c0-52.6,42.8-95.3,95.3-95.3c24.7,0,49.1,9.9,66.7,27.2c2.5,2.4,6,3.4,9.3,2.7
			c18.5-4.1,36.3-10.8,53-20c-4,10.4-9.9,19.9-17.3,28.3c-3,3.4-3.4,8.4-1,12.2c2.4,3.8,7.1,5.6,11.5,4.3c6-1.7,12-3.8,17.8-6.1
			C476.2,129.3,462.6,143.1,447.1,154.7z"/>
	</g>
</g>
<g>
	<g>
		<path class="st0" d="M89.9,145.8c-2.2-1.6-4.3-3.3-6.4-4.9c-4.4-3.5-10.8-2.8-14.3,1.6c-3.5,4.4-2.8,10.8,1.6,14.3
			c2.2,1.8,4.6,3.6,6.9,5.3c1.8,1.4,4,2,6.1,2c3.1,0,6.2-1.4,8.2-4.1C95.4,155.6,94.5,149.2,89.9,145.8z"/>
	</g>
</g>
<g>
	<g>
		<path class="st0" d="M222.3,196.4c-36.7-3.2-73.1-14.6-105.3-32.9c-4.9-2.8-11.1-1.1-13.9,3.8c-2.8,4.9-1.1,11.1,3.8,13.9
			c34.7,19.7,74,32,113.6,35.5c0.3,0,0.6,0,0.9,0c5.2,0,9.7-4,10.1-9.3C232.1,201.8,227.9,196.9,222.3,196.4z"/>
	</g>
</g>
</svg>
