<svg id="vimeo" xmlns="http://www.w3.org/2000/svg" width="60" height="51" viewBox="0 0 60 51">
  <g id="Grupo_3079" data-name="Grupo 3079">
    <g id="Grupo_3078" data-name="Grupo 3078">
      <path id="Caminho_2310" data-name="Caminho 2310" d="M58.432,36.661c-2.758-3.417-8.369-2.99-10.653-2.647a18.589,18.589,0,0,0-7.221,3.425,20.419,20.419,0,0,0-7.381,9.972,1.151,1.151,0,0,0,.2,1.083,1.2,1.2,0,0,0,1.029.443c2.887-.215,4.438.011,5.188.754.646.64.878,1.868.71,3.754a18.773,18.773,0,0,1-2.54,6.683l-.1.183c-.882,1.608-2.523,4.6-4.124,4.8a2.4,2.4,0,0,1-1.9-.98c-2.26-2.366-2.7-6.648-3.1-10.426-.134-1.286-.26-2.5-.45-3.611-.059-.349-.119-.71-.18-1.08a51.38,51.38,0,0,0-1.571-7.27c-.785-2.409-2.618-5.485-5.2-6.222-2.456-.707-5.42.246-7.374,1.374a57.574,57.574,0,0,0-9.05,6.884C3.338,44.993,1.9,46.246.45,47.381a1.155,1.155,0,0,0-.338,1.41l.114.241c.679,1.432,1.32,2.785,3.154,3.045a8.494,8.494,0,0,0,3.754-.528c1.857-.568,2.48-.689,3.213.524a17.2,17.2,0,0,1,1.593,4.065c.2.684.415,1.392.669,2.1,1,2.8,1.787,5.866,2.617,9.115l.03.116c.1.4.2.808.309,1.229,1.424,5.692,3.375,13.487,8.531,15.625a6.592,6.592,0,0,0,2.537.463,14.827,14.827,0,0,0,6.792-2.006C39.265,79.4,43.489,74.51,46.517,70.63l.012-.015c8.311-11.025,12.591-23.2,13.21-26.381l0-.013C60.335,40.953,59.907,38.479,58.432,36.661ZM57.388,43.8c-.573,2.934-4.82,14.854-12.778,25.414-4.3,5.509-8.125,9.072-12.4,11.551-1.7.988-5.155,2.243-7.178,1.4-4.052-1.68-5.838-8.816-7.142-14.027q-.159-.637-.312-1.239l-.03-.117c-.843-3.3-1.64-6.424-2.68-9.322-.232-.651-.435-1.329-.63-1.984a19.231,19.231,0,0,0-1.829-4.6A3.757,3.757,0,0,0,9.029,48.8a9.071,9.071,0,0,0-2.607.516,6.464,6.464,0,0,1-2.7.447c-.4-.057-.6-.237-1.05-1.134,1.246-1.007,2.46-2.066,3.64-3.1a55.746,55.746,0,0,1,8.671-6.614c1.453-.838,3.763-1.642,5.49-1.145,1.494.427,2.937,2.681,3.591,4.686a49.688,49.688,0,0,1,1.489,6.934q.093.56.182,1.09c.178,1.037.3,2.215.43,3.462.431,4.146.919,8.845,3.729,11.788a4.61,4.61,0,0,0,3.95,1.7c2.819-.359,4.686-3.765,5.922-6.018l.1-.182a20.72,20.72,0,0,0,2.816-7.587c.236-2.648-.206-4.429-1.392-5.6-1.253-1.241-3.165-1.546-5.221-1.527a18.789,18.789,0,0,1,12.067-10.19c3.008-.451,6.8-.219,8.417,1.787C57.6,39.4,57.86,41.2,57.388,43.8Z" transform="translate(0.001 -33.788)" fill="#00829b"/>
    </g>
  </g>
  <g id="Grupo_3081" data-name="Grupo 3081" transform="translate(39.565 4.95)">
    <g id="Grupo_3080" data-name="Grupo 3080">
      <path id="Caminho_2311" data-name="Caminho 2311" d="M344.949,77.526a1.208,1.208,0,0,0-1.625-.457,18.5,18.5,0,0,0-5.438,4.456,1.154,1.154,0,0,0,.184,1.645,1.212,1.212,0,0,0,1.68-.18,16.1,16.1,0,0,1,4.731-3.873A1.158,1.158,0,0,0,344.949,77.526Z" transform="translate(-337.623 -76.922)" fill="#00829b"/>
    </g>
  </g>
  <g id="Grupo_3083" data-name="Grupo 3083" transform="translate(48.018 3.505)">
    <g id="Grupo_3082" data-name="Grupo 3082">
      <path id="Caminho_2312" data-name="Caminho 2312" d="M413.677,65.446a1.186,1.186,0,0,0-1.254-1.11c-.549.027-1.106.083-1.653.165a1.174,1.174,0,0,0-1,1.334,1.188,1.188,0,0,0,1.18.993,1.231,1.231,0,0,0,.182-.014c.467-.07.942-.118,1.412-.141A1.18,1.18,0,0,0,413.677,65.446Z" transform="translate(-409.756 -64.335)" fill="#00829b"/>
    </g>
  </g>
</svg>
