<?xml version="1.0" encoding="utf-8"?>
<!-- Generator: Adobe Illustrator 22.0.1, SVG Export Plug-In . SVG Version: 6.00 Build 0)  -->
<svg version="1.1" id="Layer_1" xmlns="http://www.w3.org/2000/svg" xmlns:xlink="http://www.w3.org/1999/xlink" x="0px" y="0px"
	 viewBox="0 0 512 512" style="enable-background:new 0 0 512 512;" xml:space="preserve">
<style type="text/css">
	.st0{fill:#FF6633;}
</style>
<g>
	<g>
		<path class="st0" d="M498.6,58.8c-23.5-29.8-71.4-26.1-90.9-23.1c-13.7,2.1-38.1,12.1-61.6,29.8c-21.1,15.9-49.1,43.8-63,86.9
			c-1,3.2-0.4,6.8,1.7,9.4c2.1,2.7,5.4,4.1,8.8,3.9c24.6-1.9,37.9,0.1,44.3,6.6c5.5,5.6,7.5,16.3,6.1,32.7
			c-1.6,18.8-11.9,40-21.7,58.2l-0.9,1.6c-7.5,14-21.5,40.1-35.2,41.9c-4.8,0.6-10.3-2.2-16.2-8.5c-19.3-20.6-23.1-57.9-26.4-90.9
			c-1.1-11.2-2.2-21.8-3.8-31.5c-0.5-3-1-6.2-1.5-9.4c-3.3-20.3-7-43.4-13.4-63.4c-6.7-21-22.3-47.8-44.3-54.2
			c-21-6.2-46.3,2.1-62.9,12C88.4,78,64,99.8,40.3,120.9c-11.8,10.6-24.1,21.5-36.5,31.4c-3.7,2.9-4.9,8-2.9,12.3l1,2.1
			c5.8,12.5,11.3,24.3,26.9,26.5c11.7,1.7,22.5-1.6,32-4.6c15.8-4.9,21.2-6,27.4,4.6c6.4,10.9,9.9,22.8,13.6,35.4
			c1.7,6,3.5,12.1,5.7,18.3c8.6,24.4,15.3,51.1,22.3,79.4l0.3,1c0.9,3.5,1.7,7,2.6,10.7c12.2,49.6,28.8,117.5,72.8,136.2
			c6.7,2.9,14.1,4,21.7,4c21.9,0,45.1-9.9,58-17.5c49.8-29.5,85.9-72.1,111.7-105.9l0.1-0.1c70.9-96.1,107.4-202.1,112.7-229.9v-0.1
			C514.9,96.2,511.2,74.7,498.6,58.8z M489.7,121.1c-4.9,25.6-41.1,129.4-109,221.5c-36.7,48-69.3,79.1-105.8,100.7
			c-14.5,8.6-44,19.5-61.3,12.2c-34.6-14.6-49.8-76.8-60.9-122.2c-0.9-3.7-1.8-7.3-2.7-10.8l-0.3-1c-7.2-28.8-14-56-22.9-81.2
			c-2-5.7-3.7-11.6-5.4-17.3c-3.9-13.3-7.9-27-15.6-40.1c-8.3-14.1-18.7-18.2-28.8-18.2c-7.8,0-15.6,2.4-22.2,4.5
			c-8.2,2.5-15.9,4.9-23,3.9c-3.4-0.5-5.1-2.1-9-9.9c10.6-8.8,21-18,31.1-27c22.9-20.4,46.6-41.5,74-57.6
			c12.4-7.3,32.1-14.3,46.8-10c12.7,3.7,25.1,23.4,30.6,40.8c5.9,18.5,9.5,40.8,12.7,60.4c0.5,3.3,1,6.4,1.6,9.5
			c1.5,9,2.6,19.3,3.7,30.2c3.7,36.1,7.8,77.1,31.8,102.7c10.6,11.4,22,16.4,33.7,14.8c24.1-3.1,40-32.8,50.5-52.4l0.9-1.6
			c10.8-20.1,22.1-43.6,24-66.1c2-23.1-1.8-38.6-11.9-48.8c-10.7-10.8-27-13.5-44.6-13.3c27.9-64.2,90.8-86.9,103-88.8
			c25.7-3.9,58-1.9,71.8,15.6C491.5,82.7,493.7,98.4,489.7,121.1z"/>
	</g>
</g>
<g>
	<g>
		<path class="st0" d="M400.1,82.2c-2.7-4.9-8.9-6.7-13.9-4c-12.5,6.9-30.7,19.3-46.4,38.8c-3.5,4.4-2.8,10.8,1.6,14.3
			c1.9,1.5,4.1,2.2,6.4,2.2c3,0,5.9-1.3,8-3.8c13.6-17,29.5-27.7,40.4-33.8C401.1,93.3,402.9,87.1,400.1,82.2z"/>
	</g>
</g>
<g>
	<g>
		<path class="st0" d="M443.2,74c-0.3-5.6-5.1-9.9-10.7-9.7c-4.7,0.2-9.4,0.7-14.1,1.4c-5.6,0.9-9.4,6.1-8.5,11.6
			c0.8,5,5.1,8.7,10.1,8.7c0.5,0,1,0,1.6-0.1c4-0.6,8-1,12-1.2C439.2,84.4,443.5,79.6,443.2,74z"/>
	</g>
</g>
</svg>
