<?xml version="1.0" encoding="utf-8"?>
<!-- Generator: Adobe Illustrator 22.0.1, SVG Export Plug-In . SVG Version: 6.00 Build 0)  -->
<svg version="1.1" id="Layer_1" xmlns="http://www.w3.org/2000/svg" xmlns:xlink="http://www.w3.org/1999/xlink" x="0px" y="0px"
	 viewBox="0 0 512 512" style="enable-background:new 0 0 512 512;" xml:space="preserve">
<style type="text/css">
	.st0{fill:#999999;}
</style>
<g>
	<g>
		<g>
			<path class="st0" d="M330.5,230.6L227.3,177c-8-4.2-17.8-3.8-25.5,0.9c-7.7,4.7-12.5,13.2-12.5,22.3v107.5
				c0,9.1,4.8,17.6,12.6,22.3c4.1,2.5,8.7,3.8,13.5,3.8c4.2,0,8.4-1,12.1-3l103.1-53.9c8.6-4.5,14-13.4,14-23.1
				C344.5,243.9,339.1,235.1,330.5,230.6z M321.1,258.7L321.1,258.7l-103.1,53.9c-1.7,0.9-3.9,0.8-5.6-0.2c-1.7-1-2.7-2.9-2.7-4.8
				V200.1c0-2,1-3.8,2.7-4.8c0.9-0.5,1.9-0.8,2.9-0.8c0.9,0,1.8,0.2,2.6,0.6l103.1,53.6c1.9,1,3,2.9,3.1,5
				C324.1,255.8,323,257.7,321.1,258.7z"/>
			<path class="st0" d="M490.4,106.1L490.4,106.1c-19.9-23.7-54.9-33.3-120.9-33.3H142.4c-67.5,0-103.2,10.3-123,35.5
				C0,133,0,166.7,0,213.4v85.1c0,38.4,3.2,77.6,26.7,104.4c21.7,24.7,58.4,36.3,115.7,36.3h227.1c57.2,0,89.3-8.4,110.8-29
				c22.2-21.2,31.6-54.6,31.6-111.6v-85.1C512,164.1,510.5,130,490.4,106.1z M491.6,298.6c0,50.9-7.6,79.9-25.3,96.9
				c-17.4,16.6-45.4,23.4-96.7,23.4H142.4c-104.4,0-122-37.1-122-120.2v-85.1c0-42.6,0-73.4,15.1-92.5c15.5-19.7,46.5-27.7,107-27.7
				v0h227.1c59.2,0,89.7,7.6,105.3,26.1v0c15.6,18.5,16.8,49.3,16.8,94.2V298.6z"/>
		</g>
	</g>
</g>
<g>
	<g>
		<path class="st0" d="M341.7,387.6h-9.2c-5.6,0-10.2,4.6-10.2,10.2s4.6,10.2,10.2,10.2h9.2c5.6,0,10.2-4.6,10.2-10.2
			C351.9,392.1,347.3,387.6,341.7,387.6z"/>
	</g>
</g>
<g>
	<g>
		<path class="st0" d="M292.7,387.6H131.6c-5.6,0-10.2,4.6-10.2,10.2s4.6,10.2,10.2,10.2h161.1c5.6,0,10.2-4.6,10.2-10.2
			C302.9,392.1,298.4,387.6,292.7,387.6z"/>
	</g>
</g>
</svg>
