<svg xmlns="http://www.w3.org/2000/svg" width="171.15" height="70" viewBox="0 0 171.15 70">
  <g id="Grupo_2966" data-name="Grupo 2966" transform="translate(-0.5)">
    <g id="Grupo_1123" data-name="Grupo 1123" transform="translate(66.479 46.889)">
      <g id="Grupo_1122" data-name="Grupo 1122">
        <path id="Caminho_377" data-name="Caminho 377" d="M194.482,141.691a3.869,3.869,0,0,1-2.793,1.377,2.539,2.539,0,0,1-2.677-2.471c0-1.313.991-2,2.046-2.562a3.558,3.558,0,0,1-.927-2.124,1.991,1.991,0,0,1,2.2-1.944,1.867,1.867,0,0,1,2.085,1.815c0,1.223-1.107,1.854-2.226,2.446.553.643,1.287,1.39,2.188,2.278a8.6,8.6,0,0,0,.926-1.75l.682.527a8.909,8.909,0,0,1-1.017,1.8l1.557,1.532-.54.567Zm-.579-.58c-.991-.991-1.8-1.815-2.407-2.523-.888.489-1.635,1.03-1.635,1.931a1.752,1.752,0,0,0,1.866,1.725A3.01,3.01,0,0,0,193.9,141.111Zm-2.162-3.423c.991-.515,1.853-1,1.853-1.905a1.124,1.124,0,0,0-1.261-1.12,1.259,1.259,0,0,0-1.377,1.235A3.17,3.17,0,0,0,191.74,137.688Z" transform="translate(-189.012 -133.968)" fill="#00829b"/>
        <path id="Caminho_378" data-name="Caminho 378" d="M225.557,135.069v8.019h-1.03v-8.019h-2.934v-.991H228.5v.991Z" transform="translate(-210.19 -134.039)" fill="#00829b"/>
        <path id="Caminho_379" data-name="Caminho 379" d="M252.251,143.088v-3.964h-5.431v3.964H245.79v-9.01h1.029v4.068h5.431v-4.068h1.029v9.01Z" transform="translate(-225.918 -134.039)" fill="#00829b"/>
        <path id="Caminho_380" data-name="Caminho 380" d="M276.2,135.069v2.96h4.543v.991H276.2v3.089h5.251v.978h-6.28v-9.01h6.113v.991Z" transform="translate(-245.016 -134.039)" fill="#00829b"/>
        <path id="Caminho_381" data-name="Caminho 381" d="M315.989,143.088l-5.405-7.234v7.234h-1.029v-9.01h1.068l5.405,7.247v-7.247h1.017v9.01Z" transform="translate(-267.364 -134.039)" fill="#00829b"/>
        <path id="Caminho_382" data-name="Caminho 382" d="M345.98,138.536a4.721,4.721,0,1,1-4.71-4.531A4.608,4.608,0,0,1,345.98,138.536Zm-8.391,0a3.67,3.67,0,1,0,3.681-3.553A3.632,3.632,0,0,0,337.589,138.536Z" transform="translate(-284.909 -133.992)" fill="#00829b"/>
        <path id="Caminho_383" data-name="Caminho 383" d="M373.082,140.218c-.193.013-.4.026-.6.026h-2.394v2.844h-1.029v-9.01h3.423c2.252,0,3.552,1.107,3.552,3.025a2.821,2.821,0,0,1-2.021,2.922l2.111,3.063h-1.171Zm-.6-.965c1.634,0,2.561-.721,2.561-2.124,0-1.364-.927-2.059-2.561-2.059h-2.394v4.183Z" transform="translate(-306.039 -134.039)" fill="#00829b"/>
        <path id="Caminho_384" data-name="Caminho 384" d="M396.3,135.069v8.019h-1.03v-8.019h-2.934v-.991h6.911v.991Z" transform="translate(-321.17 -134.039)" fill="#00829b"/>
        <path id="Caminho_385" data-name="Caminho 385" d="M422.989,143.088v-3.964h-5.431v3.964h-1.029v-9.01h1.029v4.068h5.431v-4.068h1.03v9.01Z" transform="translate(-336.898 -134.039)" fill="#00829b"/>
      </g>
    </g>
    <g id="Grupo_1124" data-name="Grupo 1124" transform="translate(66.895 19.236)">
      <path id="Caminho_386" data-name="Caminho 386" d="M194.453,76.98H190.2V55.721h8.508a8.291,8.291,0,0,1,2.253.3,8.477,8.477,0,0,1,2.023.86,8.642,8.642,0,0,1,1.72,1.335,8.55,8.55,0,0,1,2.193,3.758,8.494,8.494,0,0,1-.363,5.552,8.533,8.533,0,0,1-4.528,4.529,8.254,8.254,0,0,1-3.3.667h-4.254Zm0-17v8.51h4.254a4.1,4.1,0,0,0,1.645-.334,4.268,4.268,0,0,0,2.26-2.268,4.263,4.263,0,0,0,0-3.306,4.269,4.269,0,0,0-2.26-2.268,4.1,4.1,0,0,0-1.645-.334Z" transform="translate(-190.199 -55.454)" fill="#00829b"/>
      <path id="Caminho_387" data-name="Caminho 387" d="M267.951,65.944a10.753,10.753,0,0,1-.393,2.913,11.233,11.233,0,0,1-1.1,2.624,10.919,10.919,0,0,1-1.72,2.231,11.2,11.2,0,0,1-2.224,1.727,10.878,10.878,0,0,1-5.544,1.5,10.739,10.739,0,0,1-2.913-.393,11.07,11.07,0,0,1-7.693-7.694,11.027,11.027,0,0,1,0-5.833,10.856,10.856,0,0,1,1.112-2.624,11.212,11.212,0,0,1,1.727-2.224,10.885,10.885,0,0,1,2.231-1.72,11.235,11.235,0,0,1,2.624-1.1,11.025,11.025,0,0,1,5.833,0,10.973,10.973,0,0,1,7.671,7.672A10.838,10.838,0,0,1,267.951,65.944Zm-4.225,0a6.574,6.574,0,0,0-.534-2.632,6.737,6.737,0,0,0-3.595-3.6,6.769,6.769,0,0,0-5.269,0,6.945,6.945,0,0,0-2.149,1.445,6.77,6.77,0,0,0-1.453,2.15,6.58,6.58,0,0,0-.533,2.632,6.472,6.472,0,0,0,.533,2.616,6.852,6.852,0,0,0,3.6,3.6,6.769,6.769,0,0,0,5.269,0,6.768,6.768,0,0,0,2.149-1.453,6.958,6.958,0,0,0,1.445-2.142A6.466,6.466,0,0,0,263.727,65.944Z" transform="translate(-226.449 -54.959)" fill="#00829b"/>
      <path id="Caminho_388" data-name="Caminho 388" d="M324.374,76.98H320.12V55.721h8.508a8.292,8.292,0,0,1,2.253.3,8.476,8.476,0,0,1,2.023.86,8.629,8.629,0,0,1,1.719,1.335,8.545,8.545,0,0,1,2.194,3.758,8.471,8.471,0,0,1,.03,4.388,8.745,8.745,0,0,1-.785,1.972,8.324,8.324,0,0,1-1.253,1.72,8.481,8.481,0,0,1-1.66,1.364l2.357,5.559h-4.521L329.132,72.7l-4.758.029Zm0-17v8.51h4.254a4.1,4.1,0,0,0,1.645-.334,4.268,4.268,0,0,0,2.26-2.268,4.263,4.263,0,0,0,0-3.306,4.269,4.269,0,0,0-2.26-2.268,4.1,4.1,0,0,0-1.645-.334Z" transform="translate(-274.648 -55.454)" fill="#00829b"/>
      <path id="Caminho_389" data-name="Caminho 389" d="M384.757,76.98h-4.24v-17h-6.389V55.721h17v4.255h-6.373Z" transform="translate(-309.754 -55.454)" fill="#00829b"/>
      <path id="Caminho_390" data-name="Caminho 390" d="M448.672,65.944a10.74,10.74,0,0,1-.393,2.913,11.232,11.232,0,0,1-1.1,2.624,10.921,10.921,0,0,1-1.72,2.231,11.2,11.2,0,0,1-2.224,1.727,10.878,10.878,0,0,1-5.544,1.5,10.739,10.739,0,0,1-2.913-.393,11.071,11.071,0,0,1-7.693-7.694,10.934,10.934,0,0,1,1.112-8.457,11.2,11.2,0,0,1,1.727-2.224,10.885,10.885,0,0,1,2.231-1.72,11.234,11.234,0,0,1,2.624-1.1,11.025,11.025,0,0,1,5.833,0,10.971,10.971,0,0,1,7.671,7.672A10.825,10.825,0,0,1,448.672,65.944Zm-4.224,0a6.574,6.574,0,0,0-.534-2.632,6.737,6.737,0,0,0-3.595-3.6,6.77,6.77,0,0,0-5.27,0,6.943,6.943,0,0,0-2.149,1.445,6.763,6.763,0,0,0-1.453,2.15,6.581,6.581,0,0,0-.533,2.632,6.472,6.472,0,0,0,.533,2.616,6.853,6.853,0,0,0,3.6,3.6,6.77,6.77,0,0,0,5.27,0,6.768,6.768,0,0,0,2.149-1.453,6.957,6.957,0,0,0,1.445-2.142A6.466,6.466,0,0,0,444.448,65.944Z" transform="translate(-343.918 -54.959)" fill="#00829b"/>
    </g>
    <g id="Grupo_1126" data-name="Grupo 1126" transform="translate(66.479 4.287)">
      <g id="Grupo_1125" data-name="Grupo 1125">
        <path id="Caminho_391" data-name="Caminho 391" d="M192.667,21.371l-3.655-9.01h1.107l3.1,7.813,3.114-7.813h1.081l-3.681,9.01Z" transform="translate(-189.012 -12.322)" fill="#00829b"/>
        <path id="Caminho_392" data-name="Caminho 392" d="M217.327,21.371v-9.01h1.029v9.01Z" transform="translate(-207.417 -12.322)" fill="#00829b"/>
        <path id="Caminho_393" data-name="Caminho 393" d="M232.014,13.087l-.438.965a4.654,4.654,0,0,0-2.484-.76c-1.158,0-1.918.438-1.918,1.2,0,2.317,5.071,1.107,5.058,4.376,0,1.506-1.325,2.471-3.256,2.471a5.143,5.143,0,0,1-3.449-1.377l.463-.927a4.481,4.481,0,0,0,3,1.274c1.3,0,2.111-.527,2.111-1.39.013-2.368-5.058-1.107-5.058-4.338,0-1.416,1.248-2.33,3.114-2.33A5.331,5.331,0,0,1,232.014,13.087Z" transform="translate(-212.747 -12.25)" fill="#00829b"/>
        <path id="Caminho_394" data-name="Caminho 394" d="M250.9,21.371v-9.01h1.029v9.01Z" transform="translate(-229.24 -12.322)" fill="#00829b"/>
        <path id="Caminho_395" data-name="Caminho 395" d="M262.293,13.352v8.019h-1.03V13.352h-2.934v-.991h6.911v.991Z" transform="translate(-234.068 -12.322)" fill="#00829b"/>
      </g>
    </g>
    <path id="Caminho_396" data-name="Caminho 396" d="M55.462,20.591A28.336,28.336,0,0,0,42.583,3.827,27.9,27.9,0,0,0,35.919,1a27.3,27.3,0,0,0-7.414-1H.5V69.971l14-14.008h14a27.159,27.159,0,0,0,10.857-2.19,28.131,28.131,0,0,0,14.9-14.911,27.989,27.989,0,0,0,1.2-18.272Z" fill="#00829b"/>
    <g id="Grupo_1127" data-name="Grupo 1127" transform="translate(66.895 64.949)">
      <path id="Caminho_397" data-name="Caminho 397" d="M192.4,186.18v4.451h-.571V186.18H190.2v-.55h3.836v.55Z" transform="translate(-190.199 -185.609)" fill="#00829b"/>
      <path id="Caminho_398" data-name="Caminho 398" d="M207.4,190.631v-2.2h-3.014v2.2h-.572v-5h.572v2.258H207.4V185.63h.572v5Z" transform="translate(-199.048 -185.609)" fill="#00829b"/>
      <path id="Caminho_399" data-name="Caminho 399" d="M220.878,186.18v1.643H223.4v.55h-2.521v1.715h2.914v.543h-3.486v-5H223.7v.55Z" transform="translate(-209.769 -185.609)" fill="#00829b"/>
      <path id="Caminho_400" data-name="Caminho 400" d="M240.33,186.18v1.643h2.522v.55H240.33v1.715h2.914v.543h-3.486v-5h3.393v.55Z" transform="translate(-222.413 -185.609)" fill="#00829b"/>
      <path id="Caminho_401" data-name="Caminho 401" d="M255.423,186.033l-.243.536a2.584,2.584,0,0,0-1.379-.422c-.643,0-1.064.243-1.064.664,0,1.286,2.814.615,2.807,2.429,0,.835-.736,1.371-1.807,1.371a2.853,2.853,0,0,1-1.914-.764l.257-.514a2.488,2.488,0,0,0,1.665.707c.721,0,1.171-.293,1.171-.772.007-1.315-2.807-.614-2.807-2.408,0-.786.693-1.293,1.729-1.293A2.959,2.959,0,0,1,255.423,186.033Z" transform="translate(-230.255 -185.569)" fill="#00829b"/>
      <path id="Caminho_402" data-name="Caminho 402" d="M268.18,186.033l-.243.536a2.584,2.584,0,0,0-1.379-.422c-.643,0-1.064.243-1.064.664,0,1.286,2.815.615,2.807,2.429,0,.835-.736,1.371-1.807,1.371a2.854,2.854,0,0,1-1.915-.764l.257-.514a2.487,2.487,0,0,0,1.664.707c.722,0,1.171-.293,1.171-.772.007-1.315-2.807-.614-2.807-2.408,0-.786.693-1.293,1.729-1.293A2.959,2.959,0,0,1,268.18,186.033Z" transform="translate(-238.547 -185.569)" fill="#00829b"/>
      <path id="Caminho_403" data-name="Caminho 403" d="M279.42,186.18v1.643h2.521v.55H279.42v1.715h2.914v.543h-3.486v-5h3.393v.55Z" transform="translate(-247.821 -185.609)" fill="#00829b"/>
      <path id="Caminho_404" data-name="Caminho 404" d="M295.993,190.631l-3-4.015v4.015h-.572v-5h.593l3,4.022V185.63h.564v5Z" transform="translate(-256.644 -185.609)" fill="#00829b"/>
      <path id="Caminho_405" data-name="Caminho 405" d="M312.025,186.318l-.343.436a2.1,2.1,0,0,0-1.478-.629,1.973,1.973,0,1,0,0,3.943,2.18,2.18,0,0,0,1.478-.6l.35.393a2.761,2.761,0,0,1-1.857.772,2.523,2.523,0,1,1,.021-5.044A2.7,2.7,0,0,1,312.025,186.318Z" transform="translate(-266.503 -185.582)" fill="#00829b"/>
      <path id="Caminho_406" data-name="Caminho 406" d="M324.082,186.18v1.643H326.6v.55h-2.521v1.715H327v.543H323.51v-5H326.9v.55Z" transform="translate(-276.851 -185.609)" fill="#00829b"/>
      <path id="Caminho_407" data-name="Caminho 407" d="M346.852,188.1a2.62,2.62,0,1,1-2.615-2.515A2.558,2.558,0,0,1,346.852,188.1Zm-4.657,0a2.037,2.037,0,1,0,2.043-1.972A2.016,2.016,0,0,0,342.195,188.1Z" transform="translate(-288.62 -185.582)" fill="#00829b"/>
      <path id="Caminho_408" data-name="Caminho 408" d="M360.415,186.18v1.757h2.336v.55h-2.336v2.143h-.572v-5h3.179v.55Z" transform="translate(-300.468 -185.609)" fill="#00829b"/>
      <path id="Caminho_409" data-name="Caminho 409" d="M379.378,185.63c1.236,0,1.95.615,1.95,1.679,0,1.107-.714,1.743-1.95,1.743h-1.307v1.578H377.5v-5Zm-1.307,2.872h1.286c.9,0,1.421-.4,1.421-1.178,0-.757-.521-1.143-1.421-1.143h-1.286Z" transform="translate(-311.944 -185.609)" fill="#00829b"/>
      <path id="Caminho_410" data-name="Caminho 410" d="M395.33,188.1a2.62,2.62,0,1,1-2.614-2.515A2.558,2.558,0,0,1,395.33,188.1Zm-4.657,0a2.037,2.037,0,1,0,2.043-1.972A2.016,2.016,0,0,0,390.673,188.1Z" transform="translate(-320.131 -185.582)" fill="#00829b"/>
      <path id="Caminho_411" data-name="Caminho 411" d="M410.557,189.038c-.107.007-.221.015-.336.015h-1.328v1.578h-.572v-5h1.9c1.25,0,1.972.615,1.972,1.679a1.566,1.566,0,0,1-1.121,1.622l1.171,1.7h-.65Zm-.336-.536c.907,0,1.422-.4,1.422-1.178,0-.757-.514-1.143-1.422-1.143h-1.328V188.5Z" transform="translate(-331.979 -185.609)" fill="#00829b"/>
      <path id="Caminho_412" data-name="Caminho 412" d="M423.626,186.18v4.451h-.571V186.18h-1.629v-.55h3.836v.55Z" transform="translate(-340.497 -185.609)" fill="#00829b"/>
      <path id="Caminho_413" data-name="Caminho 413" d="M438.915,188.573a2.1,2.1,0,0,1-4.2,0V185.63h.572v2.943a1.529,1.529,0,1,0,3.057,0V185.63h.571Z" transform="translate(-349.134 -185.609)" fill="#00829b"/>
      <path id="Caminho_414" data-name="Caminho 414" d="M454.121,188.161v1.814a3.09,3.09,0,0,1-1.857.657,2.524,2.524,0,1,1,.029-5.044,2.833,2.833,0,0,1,1.843.686l-.329.429a2.3,2.3,0,0,0-1.514-.579,1.984,1.984,0,1,0,.007,3.965,2.392,2.392,0,0,0,1.314-.421v-1.507Z" transform="translate(-358.847 -185.582)" fill="#00829b"/>
      <path id="Caminho_415" data-name="Caminho 415" d="M465.742,189.366l-.557,1.265h-.607l2.243-5h.593l2.236,5h-.621l-.557-1.265Zm1.357-3.086-1.114,2.536h2.242Z" transform="translate(-368.545 -185.609)" fill="#00829b"/>
      <path id="Caminho_416" data-name="Caminho 416" d="M484.366,190.088v.543H481.6v-5h.571v4.458Z" transform="translate(-379.611 -185.609)" fill="#00829b"/>
    </g>
  </g>
</svg>
