<?xml version="1.0" encoding="utf-8"?>
<!-- Generator: Adobe Illustrator 23.0.4, SVG Export Plug-In . SVG Version: 6.00 Build 0)  -->
<svg version="1.1" id="Layer_1" xmlns="http://www.w3.org/2000/svg" xmlns:xlink="http://www.w3.org/1999/xlink" x="0px" y="0px"
	 viewBox="0 0 490 200" style="enable-background:new 0 0 490 200;" xml:space="preserve">
<style type="text/css">
	.st0{fill:#187E95;}
	.st1{fill:none;stroke:#187E95;stroke-width:0.5;stroke-miterlimit:10;}
	.st2{fill:#FFFFFF;}
	.st3{fill:#00829B;}
	.st4{fill:#636569;}
</style>
<g>
	<g>
		<g>
			<path class="st2" d="M204.64,156.03c-2.35,2.5-5.07,3.93-7.98,3.93c-4.27,0-7.65-3.02-7.65-7.06c0-3.75,2.83-5.7,5.85-7.32
				c-1.76-2.28-2.65-4.19-2.65-6.07c0-3.24,2.54-5.55,6.29-5.55c3.57,0,5.96,2.13,5.96,5.19c0,3.49-3.16,5.3-6.36,6.99
				c1.58,1.84,3.68,3.97,6.25,6.51c0.99-1.4,1.88-3.09,2.65-5l1.95,1.51c-0.85,1.95-1.8,3.68-2.9,5.15l4.45,4.38l-1.54,1.62
				L204.64,156.03z M202.98,154.38c-2.83-2.83-5.15-5.18-6.88-7.21c-2.54,1.4-4.67,2.94-4.67,5.52c0,2.91,2.35,4.93,5.33,4.93
				C198.98,157.61,201.11,156.44,202.98,154.38z M196.81,144.6c2.83-1.47,5.29-2.87,5.29-5.44c0-1.91-1.4-3.2-3.6-3.2
				c-2.39,0-3.93,1.54-3.93,3.53C194.56,140.99,195.34,142.61,196.81,144.6z"/>
			<path class="st2" d="M232.92,136.91v22.91h-2.94v-22.91h-8.38v-2.83h19.75v2.83H232.92z"/>
			<path class="st2" d="M264.25,159.82v-11.33h-15.52v11.33h-2.94v-25.74h2.94v11.62h15.52v-11.62h2.94v25.74H264.25z"/>
			<path class="st2" d="M278.11,136.91v8.46h12.98v2.83h-12.98v8.83h15v2.79h-17.94v-25.74h17.47v2.83H278.11z"/>
			<path class="st2" d="M327.94,159.82l-15.44-20.67v20.67h-2.94v-25.74h3.05l15.44,20.7v-20.7h2.9v25.74H327.94z"/>
			<path class="st2" d="M363.5,146.95c0,7.24-5.96,13.02-13.46,13.02c-7.54,0-13.49-5.77-13.49-13.02c0-7.28,5.96-12.95,13.49-12.95
				C357.54,134.01,363.5,139.7,363.5,146.95z M339.52,146.95c0,5.66,4.78,10.19,10.52,10.19c5.74,0,10.44-4.52,10.44-10.19
				c0-5.66-4.71-10.15-10.44-10.15C344.31,136.8,339.52,141.29,339.52,146.95z"/>
			<path class="st2" d="M380.56,151.62c-0.55,0.04-1.14,0.07-1.73,0.07H372v8.13h-2.94v-25.74h9.78c6.43,0,10.15,3.16,10.15,8.64
				c0,4.27-2.06,7.13-5.77,8.35l6.03,8.75h-3.35L380.56,151.62z M378.84,148.86c4.67,0,7.32-2.06,7.32-6.07
				c0-3.9-2.65-5.88-7.32-5.88H372v11.95H378.84z"/>
			<path class="st2" d="M403.66,136.91v22.91h-2.94v-22.91h-8.38v-2.83h19.75v2.83H403.66z"/>
			<path class="st2" d="M434.99,159.82v-11.33h-15.52v11.33h-2.94v-25.74h2.94v11.62h15.52v-11.62h2.94v25.74H434.99z"/>
		</g>
	</g>
	<g>
		<path class="st2" d="M202.35,116.46H190.2V55.72h24.31c2.23,0,4.38,0.29,6.44,0.87c2.06,0.58,3.99,1.4,5.78,2.46
			c1.79,1.06,3.43,2.33,4.91,3.81c1.48,1.48,2.75,3.13,3.81,4.93c1.06,1.81,1.88,3.74,2.46,5.8c0.58,2.06,0.87,4.21,0.87,6.44
			c0,3.33-0.64,6.47-1.91,9.42c-1.27,2.95-3.01,5.53-5.21,7.73c-2.2,2.2-4.78,3.94-7.73,5.21c-2.95,1.27-6.09,1.91-9.42,1.91h-12.15
			V116.46z M202.35,67.88v24.31h12.15c1.67,0,3.23-0.32,4.7-0.95c1.47-0.64,2.75-1.5,3.85-2.61c1.1-1.1,1.97-2.39,2.6-3.88
			c0.63-1.48,0.95-3.06,0.95-4.72c0-1.67-0.32-3.24-0.95-4.72c-0.64-1.48-1.5-2.77-2.6-3.88c-1.1-1.1-2.39-1.97-3.85-2.61
			c-1.47-0.63-3.04-0.95-4.7-0.95H202.35z"/>
		<path class="st2" d="M308.77,86.35c0,2.88-0.37,5.65-1.12,8.32c-0.75,2.67-1.8,5.17-3.16,7.5c-1.36,2.33-2.99,4.45-4.91,6.37
			c-1.92,1.92-4.04,3.57-6.35,4.93c-2.32,1.37-4.81,2.43-7.5,3.18c-2.68,0.75-5.46,1.12-8.34,1.12c-2.88,0-5.65-0.37-8.32-1.12
			c-2.67-0.75-5.17-1.81-7.5-3.18c-2.33-1.37-4.45-3.01-6.37-4.93c-1.92-1.92-3.56-4.05-4.93-6.37c-1.37-2.33-2.43-4.83-3.18-7.5
			c-0.75-2.67-1.12-5.44-1.12-8.32c0-2.88,0.37-5.66,1.12-8.34c0.75-2.68,1.81-5.18,3.18-7.5c1.37-2.32,3.01-4.43,4.93-6.35
			c1.92-1.92,4.04-3.56,6.37-4.91c2.33-1.36,4.83-2.41,7.5-3.16c2.67-0.75,5.44-1.12,8.32-1.12c2.88,0,5.66,0.37,8.34,1.12
			c2.68,0.75,5.18,1.8,7.5,3.16c2.31,1.36,4.43,2.99,6.35,4.91c1.92,1.92,3.56,4.04,4.91,6.35c1.36,2.32,2.41,4.82,3.16,7.5
			C308.4,80.68,308.77,83.47,308.77,86.35z M296.7,86.35c0-2.65-0.51-5.16-1.52-7.52c-1.02-2.36-2.39-4.4-4.13-6.14
			c-1.74-1.74-3.78-3.11-6.14-4.13c-2.36-1.02-4.86-1.52-7.52-1.52c-2.68,0-5.2,0.51-7.54,1.52c-2.34,1.02-4.39,2.39-6.14,4.13
			c-1.75,1.74-3.13,3.78-4.15,6.14c-1.02,2.36-1.52,4.86-1.52,7.52c0,2.65,0.51,5.15,1.52,7.48c1.02,2.33,2.4,4.37,4.15,6.12
			c1.75,1.75,3.8,3.13,6.14,4.15c2.34,1.02,4.86,1.52,7.54,1.52c2.65,0,5.16-0.51,7.52-1.52c2.36-1.02,4.4-2.4,6.14-4.15
			c1.74-1.75,3.11-3.79,4.13-6.12C296.2,91.49,296.7,89,296.7,86.35z"/>
		<path class="st2" d="M332.27,116.46h-12.15V55.72h24.31c2.23,0,4.38,0.29,6.44,0.87c2.06,0.58,3.99,1.4,5.78,2.46
			c1.79,1.06,3.43,2.33,4.91,3.81c1.48,1.48,2.75,3.13,3.81,4.93c1.06,1.81,1.88,3.74,2.46,5.8c0.58,2.06,0.87,4.21,0.87,6.44
			c0,2.09-0.26,4.12-0.78,6.1c-0.52,1.98-1.27,3.85-2.24,5.63c-0.97,1.78-2.17,3.42-3.58,4.91c-1.41,1.5-2.99,2.8-4.74,3.9
			l6.73,15.88h-12.92l-5.29-12.24l-13.59,0.08V116.46z M332.27,67.88v24.31h12.15c1.67,0,3.23-0.32,4.7-0.95
			c1.47-0.64,2.75-1.5,3.85-2.61c1.1-1.1,1.97-2.39,2.6-3.88c0.63-1.48,0.95-3.06,0.95-4.72c0-1.67-0.32-3.24-0.95-4.72
			c-0.64-1.48-1.5-2.77-2.6-3.88c-1.1-1.1-2.39-1.97-3.85-2.61c-1.47-0.63-3.04-0.95-4.7-0.95H332.27z"/>
		<path class="st2" d="M404.49,116.46h-12.11V67.88h-18.25V55.72h48.58v12.16h-18.21V116.46z"/>
		<path class="st2" d="M489.5,86.35c0,2.88-0.37,5.65-1.12,8.32c-0.75,2.67-1.8,5.17-3.15,7.5c-1.36,2.33-2.99,4.45-4.91,6.37
			c-1.92,1.92-4.04,3.57-6.35,4.93c-2.31,1.37-4.81,2.43-7.5,3.18c-2.68,0.75-5.46,1.12-8.34,1.12c-2.88,0-5.65-0.37-8.32-1.12
			c-2.67-0.75-5.17-1.81-7.5-3.18c-2.33-1.37-4.45-3.01-6.37-4.93c-1.92-1.92-3.57-4.05-4.93-6.37c-1.37-2.33-2.43-4.83-3.18-7.5
			c-0.75-2.67-1.12-5.44-1.12-8.32c0-2.88,0.37-5.66,1.12-8.34c0.75-2.68,1.81-5.18,3.18-7.5c1.37-2.32,3.01-4.43,4.93-6.35
			c1.92-1.92,4.04-3.56,6.37-4.91c2.33-1.36,4.83-2.41,7.5-3.16c2.67-0.75,5.44-1.12,8.32-1.12c2.88,0,5.66,0.37,8.34,1.12
			c2.68,0.75,5.18,1.8,7.5,3.16c2.31,1.36,4.43,2.99,6.35,4.91c1.92,1.92,3.56,4.04,4.91,6.35c1.35,2.32,2.41,4.82,3.15,7.5
			C489.12,80.68,489.5,83.47,489.5,86.35z M477.43,86.35c0-2.65-0.51-5.16-1.53-7.52c-1.02-2.36-2.39-4.4-4.13-6.14
			c-1.74-1.74-3.78-3.11-6.14-4.13c-2.36-1.02-4.86-1.52-7.52-1.52c-2.68,0-5.2,0.51-7.54,1.52c-2.34,1.02-4.39,2.39-6.14,4.13
			c-1.75,1.74-3.13,3.78-4.15,6.14c-1.02,2.36-1.52,4.86-1.52,7.52c0,2.65,0.51,5.15,1.52,7.48c1.02,2.33,2.4,4.37,4.15,6.12
			c1.75,1.75,3.8,3.13,6.14,4.15c2.34,1.02,4.86,1.52,7.54,1.52c2.65,0,5.16-0.51,7.52-1.52c2.36-1.02,4.4-2.4,6.14-4.15
			c1.74-1.75,3.11-3.79,4.13-6.12C476.92,91.49,477.43,89,477.43,86.35z"/>
	</g>
	<g>
		<g>
			<path class="st2" d="M199.45,38.1l-10.44-25.74h3.16l8.86,22.32l8.9-22.32h3.09L202.51,38.1H199.45z"/>
			<path class="st2" d="M217.33,38.1V12.36h2.94V38.1H217.33z"/>
			<path class="st2" d="M244.06,14.64l-1.25,2.76c-2.32-1.54-5.04-2.17-7.1-2.17c-3.31,0-5.48,1.25-5.48,3.42
				c0,6.62,14.49,3.16,14.45,12.5c0,4.3-3.79,7.06-9.3,7.06c-3.75,0-7.43-1.62-9.85-3.93l1.32-2.65c2.39,2.32,5.66,3.64,8.57,3.64
				c3.71,0,6.03-1.51,6.03-3.97c0.04-6.77-14.45-3.16-14.45-12.39c0-4.05,3.57-6.66,8.9-6.66
				C238.88,12.25,241.93,13.21,244.06,14.64z"/>
			<path class="st2" d="M250.9,38.1V12.36h2.94V38.1H250.9z"/>
			<path class="st2" d="M269.65,15.19V38.1h-2.94V15.19h-8.38v-2.83h19.75v2.83H269.65z"/>
		</g>
	</g>
	<path class="st2" d="M157.53,58.83c-1.91-6.78-4.6-13.17-8.09-19.11c-3.48-5.95-7.67-11.36-12.55-16.24
		c-4.88-4.88-10.26-9.06-16.16-12.55c-5.91-3.49-12.26-6.18-19.04-8.08C94.91,0.95,87.85,0,80.52,0H0.5v199.92l40.01-40.02h40.01
		c10.96,0,21.31-2.08,31.02-6.26c9.71-4.18,18.18-9.92,25.43-17.17c7.24-7.25,12.96-15.72,17.14-25.44
		c4.18-9.71,6.27-20.04,6.27-31.01C160.38,72.68,159.43,65.61,157.53,58.83z"/>
	<g>
		<path class="st2" d="M196.48,187.2v12.72h-1.63V187.2h-4.65v-1.57h10.96v1.57H196.48z"/>
		<path class="st2" d="M214.06,199.92v-6.29h-8.61v6.29h-1.63v-14.29h1.63v6.45h8.61v-6.45h1.63v14.29H214.06z"/>
		<path class="st2" d="M221.94,187.2v4.7h7.2v1.57h-7.2v4.9h8.33v1.55h-9.96v-14.29H230v1.57H221.94z"/>
		<path class="st2" d="M241.39,187.2v4.7h7.2v1.57h-7.2v4.9h8.33v1.55h-9.96v-14.29h9.69v1.57H241.39z"/>
		<path class="st2" d="M262.11,186.9l-0.69,1.53c-1.29-0.86-2.8-1.2-3.94-1.2c-1.84,0-3.04,0.69-3.04,1.9
			c0,3.67,8.04,1.76,8.02,6.94c0,2.39-2.1,3.92-5.16,3.92c-2.08,0-4.12-0.9-5.47-2.18l0.73-1.47c1.33,1.29,3.14,2.02,4.76,2.02
			c2.06,0,3.35-0.84,3.35-2.2c0.02-3.76-8.02-1.76-8.02-6.88c0-2.25,1.98-3.69,4.94-3.69C259.23,185.57,260.93,186.1,262.11,186.9z"
			/>
		<path class="st2" d="M274.87,186.9l-0.69,1.53c-1.29-0.86-2.8-1.2-3.94-1.2c-1.84,0-3.04,0.69-3.04,1.9
			c0,3.67,8.04,1.76,8.02,6.94c0,2.39-2.1,3.92-5.16,3.92c-2.08,0-4.12-0.9-5.47-2.18l0.73-1.47c1.33,1.29,3.14,2.02,4.76,2.02
			c2.06,0,3.35-0.84,3.35-2.2c0.02-3.76-8.02-1.76-8.02-6.88c0-2.25,1.98-3.69,4.94-3.69C271.99,185.57,273.68,186.1,274.87,186.9z"
			/>
		<path class="st2" d="M280.48,187.2v4.7h7.2v1.57h-7.2v4.9h8.33v1.55h-9.96v-14.29h9.69v1.57H280.48z"/>
		<path class="st2" d="M302.63,199.92l-8.57-11.47v11.47h-1.63v-14.29h1.69l8.57,11.49v-11.49h1.61v14.29H302.63z"/>
		<path class="st2" d="M320.26,187.67l-0.98,1.24c-1.1-1.12-2.65-1.8-4.22-1.8c-3.22,0-5.82,2.49-5.82,5.63
			c0,3.12,2.59,5.63,5.82,5.63c1.57,0,3.1-0.65,4.22-1.71l1,1.12c-1.41,1.33-3.33,2.2-5.31,2.2c-4.12,0-7.39-3.2-7.39-7.25
			c0-4,3.31-7.16,7.45-7.16C317,185.59,318.9,186.39,320.26,187.67z"/>
		<path class="st2" d="M325.14,187.2v4.7h7.2v1.57h-7.2v4.9h8.33v1.55h-9.96v-14.29h9.69v1.57H325.14z"/>
		<path class="st2" d="M356.58,192.77c0,4.02-3.31,7.23-7.47,7.23c-4.18,0-7.49-3.2-7.49-7.23c0-4.04,3.31-7.18,7.49-7.18
			C353.27,185.59,356.58,188.75,356.58,192.77z M343.27,192.77c0,3.14,2.65,5.65,5.84,5.65c3.18,0,5.8-2.51,5.8-5.65
			c0-3.14-2.61-5.63-5.8-5.63C345.92,187.14,343.27,189.63,343.27,192.77z"/>
		<path class="st2" d="M361.48,187.2v5.02h6.67v1.57h-6.67v6.12h-1.63v-14.29h9.08v1.57H361.48z"/>
		<path class="st2" d="M382.87,185.63c3.53,0,5.57,1.76,5.57,4.8c0,3.16-2.04,4.98-5.57,4.98h-3.73v4.51h-1.63v-14.29H382.87z
			 M379.13,193.84h3.67c2.57,0,4.06-1.14,4.06-3.37c0-2.16-1.49-3.27-4.06-3.27h-3.67V193.84z"/>
		<path class="st2" d="M405.05,192.77c0,4.02-3.31,7.23-7.47,7.23c-4.18,0-7.49-3.2-7.49-7.23c0-4.04,3.31-7.18,7.49-7.18
			C401.75,185.59,405.05,188.75,405.05,192.77z M391.75,192.77c0,3.14,2.65,5.65,5.84,5.65c3.18,0,5.8-2.51,5.8-5.65
			c0-3.14-2.61-5.63-5.8-5.63C394.4,187.14,391.75,189.63,391.75,192.77z"/>
		<path class="st2" d="M414.71,195.37c-0.31,0.02-0.63,0.04-0.96,0.04h-3.8v4.51h-1.63v-14.29h5.43c3.57,0,5.63,1.76,5.63,4.8
			c0,2.37-1.14,3.96-3.2,4.63l3.35,4.86h-1.86L414.71,195.37z M413.75,193.84c2.59,0,4.06-1.14,4.06-3.37
			c0-2.16-1.47-3.27-4.06-3.27h-3.8v6.63H413.75z"/>
		<path class="st2" d="M427.71,187.2v12.72h-1.63V187.2h-4.65v-1.57h10.96v1.57H427.71z"/>
		<path class="st2" d="M446.72,194.04c0,3.72-2.24,5.96-5.98,5.96c-3.76,0-6.02-2.25-6.02-5.96v-8.41h1.63v8.41
			c0,2.78,1.67,4.39,4.39,4.39s4.35-1.61,4.35-4.39v-8.41h1.63V194.04z"/>
		<path class="st2" d="M462.41,192.94v5.18c-1.41,1.12-3.39,1.88-5.31,1.88c-4.14,0-7.45-3.2-7.45-7.23s3.33-7.18,7.53-7.18
			c1.98,0,3.9,0.76,5.27,1.96l-0.94,1.22c-1.16-1.04-2.73-1.65-4.33-1.65c-3.27,0-5.88,2.51-5.88,5.65c0,3.16,2.63,5.67,5.9,5.67
			c1.29,0,2.65-0.45,3.76-1.2v-4.31H462.41z"/>
		<path class="st2" d="M467.9,196.31l-1.59,3.61h-1.73l6.41-14.29h1.69l6.39,14.29h-1.77l-1.59-3.61H467.9z M471.78,187.49
			l-3.18,7.25h6.41L471.78,187.49z"/>
		<path class="st2" d="M489.5,198.37v1.55h-7.9v-14.29h1.63v12.74H489.5z"/>
	</g>
</g>
</svg>
