<svg id="Camada_1" data-name="Camada 1" xmlns="http://www.w3.org/2000/svg" viewBox="0 0 900 630"><defs><style>.cls-1{fill:#127589;}.cls-2{fill:#fff;}</style></defs><title>Douro</title><path class="cls-1" d="M469,298c10.87,2.15,13.79-6.72,18.22-13.49,3.46,1.34,6,2.91,5.78,7.08-.16,2.65,1.28,4.66,3.32,6.45,3.3,2.9,3.12,3.4-.81,5.51a7.26,7.26,0,0,0-3.36,8.11c.78,2.51,2.45,3.34,5.51,3.2,5.22-.25,10.84,8.86,8.93,13.91s-1.41,9.62-.09,14.58c.65,2.47,2.48,4.88,2,7.19-.3,1.51-2.26,2.8-1,4.74s2.07,3.94,4.27,4.69c7.07,2.43,13,8.38,21.38,6.94.92-.16,2,.69,3,1a56.22,56.22,0,0,0-1.22,5.73c-.16,1.36-.26,2.8-1.77,2.94-3.88.33-3.73,3.57-4.85,5.87l3.59,2.91c2.44-1,13.42-.4,15.65.83-4.79,9.21-.29,17.69,2.29,26.36l9.94-2.2c2.51-.72,4.09-1.08,5.53-3.31,1.82-2.81,3.15-6.91,8.06-5.23.3.1.85-.51,1.27-.81,2.26-1.61,4.28-.51,6.42.4,4.38,1.86,7.53,5.92,12.48,7,2.51-3.74,2.63-7.94,1.93-12-.37-2.19-.44-4.55.68-5.89,2.19-2.62,2.68-5.71,3.72-8.67.5-1.45.78-3,2.55-3.95,3,1.33,6.51,2.06,8.56,5.24a45.75,45.75,0,0,0,11.61,12.73c6.55,4.66,13.6,8.55,22.17,7.81.57-.05,1.34-.33,1.7.41,1.41,3,6.5,2.39,6.52,6.84,0,.74,1.36,1.1,2.44,1.38,3.91,1,7.71.18,11.57,0,2.9-.17,5.83-.86,7.42,3.31,1.9,5,6.18,8,11.39,9.48,3.22.94,10.29-3.06,11.12-6.44,1.77-7.22,4.94-13.36,12.21-16.19,1.33-.34,1.78.63,2.31,1.25,4.61,5.49,7.49,12.47,14.11,16.26a2.5,2.5,0,0,1,.78,3.29c-2.09,1.94-1.86,4.9-3.38,6.9-4.84,6.36-11.57,11-16.2,17.57-.4.55-1.12.64-1.67.93-2.16,1.17-4.24,2.56-5,4.68-.37,1.21.36,1.54.7,2.1,3.27,5.54,6.84,11.1,0,16.67l-3.49,7.23c-1.13,2.22-2.5,4.31-3.79,6.45-1.49,2.47-4.66,3.19-5.15,7.21-.33,2.67-5.6,3.38-9,4.34-7.77,2.22-15.07.15-22.21-2.63-2.49-1-4.33-1.36-6.51.84-2.48,2.52-9.21,2.65-11.86.45-1.51-1.25-2.58-1.78-4.35-.43s-3.13,2.92-2,5.14c.56,1.11,1.14,1.9.35,3-1.88,2.69-2.45,5.77-3.11,9-1.1,5.21-5.55,7.17-10.16,8.53a8.82,8.82,0,0,0-2.16.85c-5.64,3.27-11.13,3.23-17.19.31-2.17-1-7-2.25-8.06,3.15-.13.65-1.07,1.17-1.65,1.72-3.87,3.63-7.35,7.41-7.39,13.26a2.71,2.71,0,0,1-2.18,2.93c-2.47-1.07-5.1-3.34-8.84-2.64a4.82,4.82,0,0,1-4.25-2l.71-3c.26-3.35,1.68-6.32,2.75-9.38a4.48,4.48,0,0,0-1.77-5.55c-2.9-2.18-3.1-5.54-3.74-8.59-.42-2-.69-4.63,2.9-4.27,1.54.16,3-.59,2.47-2.09-.91-2.7-1.24-6-3.8-7.66A15.09,15.09,0,0,0,555,495.85c-4,1-4.54,4.19-5.58,7.32-1.45,4.41-3.22,4.89-6.34,1.69-2.3-2.36-5.25-2.14-7.69-1.54-6.2,1.53-12.15,2.18-17.87-1.18-3.13,4.77-2.73,5.25-8.7,3.69-1.87-.49-4-.08-6.17-.08-.86,3.2,1.33,5.8.64,8.55,3.53,1,5.55,4.66,9.4,5.16,5.12.66,6.77,2.35,7.23,7.25l0,1.28c-2.95,1.49-2.57,4.76-2.33,6.81.43,3.72-1.25,4.87-4.06,6.05-6.92,2.93-9.89,8.66-10.72,15.78l-3,6.42c-3.49,0-5.79.45-6.27,5.1-.34,3.24-2.41,6.59-4.73,9.53-2.65,3.37-3.1,8.07-6.06,11.49-2.56,3-4.77,3.27-6.8-.09a12.55,12.55,0,0,0-4.67-4.42c-2.85-1.75-3.77-5.64-6.42-8-1.28-1.16-1.76-3-3.95-3.39-.8-.13-2.05-1.33-2.05-2.05,0-4.73-3.84-4.16-6.53-4.63-7.83-1.35-13.27,2.34-17.07,8.92a7,7,0,0,0-1.32,4.7c.23,1.56-.08,3-2,3.77-2.72-1-4-3.5-4.86-6.34a21.51,21.51,0,0,0-2.07-5.16c-3.69-5.94-8.65-6.77-13.73-2.11-1.33,1.22-1.33,1.22-.43,3.85H410c-2.71,1.46-5.42-2.52-8.12,0a21.34,21.34,0,0,1-2.12-2.58c-1.69-2.83-2.61-6.09-5.54-8.17-2.05-1.45-.66-3.51.45-4.58,5-4.87,4.16-11.88,6.71-17.63.87-2-1.73-4.74-4.21-4.64-3.42.15-6.94.14-10.22,1a44.81,44.81,0,0,1-5.32.77c-1.11-1.74-.84-4-2.38-5.66-2.17-2.31-1.69-4.54,1.38-6.3-3-4.63-8.26-4.71-11.68-4.76-4.91-.08-6.5,6.46-10.07,9.6-4.08-2-6.35-5.53-8.68-8.81-3.33-4.69-7.92-6.95-13.31-8.1-1.17-.25-2.3-.66-4-1.16l4.84-9.14-1.26-.38c-2.83-.25-5.73-1-8.45-.42l-.1-.43c.4-6.33,2.61-11.61,7.58-16,2-1.74,2.79-4.94,3.93-7.57,1.41-3.23,1.69-7.64,4.06-9.6,5.38-4.43,4.34-8.58,1.57-13.5a14.75,14.75,0,0,0-2.6-3.4,12.15,12.15,0,0,1-3.08-3.89l-.35,0c-1.58,3.77-6.51,5.41-6.53,10.27a2,2,0,0,1-2,1.79c-1.22-.05-2.53-.73-2.44-1.35.35-2.57-2-5.52.76-7.68,3.12-2.46,2.53-7,5.5-9.48,1.31-1.11-.23-1.77-.82-2.53l-.86-1.71c2.54-4.8,4.52-9.62,1.37-15-.36-.62.26-2.1.81-2.92,1.71-2.53,1.91-5.65,3.56-8.3.82-1.31,2.33-5.37-1.9-6.23-2.79-.57-2.92-2.36-3.08-4.73-.18-2.61-.44-5.44-4.16-6.08-2.08-.37-4.29-6.47-3.44-8.46,1.82-4.24,6.7-6.16,8.12-10.69,3.66-.29,6-3.74,9.42-4.21,6.35-.86,8.86-6.19,11.74-10.48a14.73,14.73,0,0,0,2.54-11c-.52-2.82.1-5.88,4-7.45,2.5-1,5.37-3.07,5.64-6.63l2.59-1.23a3.27,3.27,0,0,1,3,.76c4.89,3.57,6.81,3.21,10.67-1.66.81-1,1.69-2,2.52-3a117.35,117.35,0,0,1,26.1,10.28l7.06-7.06c2.36.93,3.86,1.67,3.7,4.05a4.61,4.61,0,0,0,3.4,4.61c1.67.57,3-.79,4.26-2,3.68-3.74,6-8.44,8.36-12.93,2.06-3.89,4.27-6,8.73-5.49a4,4,0,0,0,3.84-1.7c2.27-3,4.6-3.56,7.32-.46.51.58,1.66.61,2.79,1,5.07-7,11.65-13.57,7-23.6"/><path class="cls-2" d="M473,444.41a6.49,6.49,0,0,1,2.64,2.47,7.08,7.08,0,0,1,.94,3.65,6.88,6.88,0,0,1-1,3.63,6.62,6.62,0,0,1-2.68,2.48,8.51,8.51,0,0,1-3.95.89h-5.88v-14h6A8.17,8.17,0,0,1,473,444.41Zm-6.32,10.28h2.54a3.6,3.6,0,0,0,1.93-.52,3.49,3.49,0,0,0,1.33-1.46,4.7,4.7,0,0,0,.48-2.16,4.6,4.6,0,0,0-.5-2.17,3.68,3.68,0,0,0-1.39-1.48,3.92,3.92,0,0,0-2-.53h-2.38Z"/><path class="cls-2" d="M492.67,444.34a6.9,6.9,0,0,1,2.72,2.55,6.79,6.79,0,0,1,1,3.62,7,7,0,0,1-3.71,6.24,8.4,8.4,0,0,1-7.72,0,7.11,7.11,0,0,1-2.72-2.58,6.93,6.93,0,0,1-1-3.66,6.83,6.83,0,0,1,1-3.64,7.05,7.05,0,0,1,2.71-2.54,8.12,8.12,0,0,1,3.86-.92A8,8,0,0,1,492.67,444.34Zm-5.8,2.59a4,4,0,0,0-1.45,1.49,4.16,4.16,0,0,0-.53,2.11,4.25,4.25,0,0,0,.53,2.12,4,4,0,0,0,1.45,1.51,3.74,3.74,0,0,0,2,.55,3.59,3.59,0,0,0,2-.55,3.8,3.8,0,0,0,1.41-1.51,4.36,4.36,0,0,0,.53-2.12,4.26,4.26,0,0,0-.53-2.11,3.82,3.82,0,0,0-1.41-1.49,3.67,3.67,0,0,0-2-.54A3.82,3.82,0,0,0,486.87,446.93Z"/><path class="cls-2" d="M514.08,454.85a5.24,5.24,0,0,1-2.22,2.1,7.37,7.37,0,0,1-3.39.74,7.48,7.48,0,0,1-3.41-.74,5.31,5.31,0,0,1-2.25-2.1,6.23,6.23,0,0,1-.79-3.2v-8.12h3.55v8.12a3.08,3.08,0,0,0,.82,2.23,2.82,2.82,0,0,0,2.1.83,2.73,2.73,0,0,0,2.06-.82,3.16,3.16,0,0,0,.77-2.24v-8.12h3.54v8.12A6.32,6.32,0,0,1,514.08,454.85Z"/><path class="cls-2" d="M527.78,453.59H525v3.94h-3.56v-14h6.26a6.49,6.49,0,0,1,4.3,1.27,4.44,4.44,0,0,1,1.52,3.61,5.47,5.47,0,0,1-.65,2.74,4.36,4.36,0,0,1-1.89,1.76l2.94,4.62h-4Zm-.11-2.8a2.56,2.56,0,0,0,1.8-.58,2.15,2.15,0,0,0,.64-1.68,2,2,0,0,0-.64-1.64,2.61,2.61,0,0,0-1.8-.56H525v4.46Z"/><path class="cls-2" d="M550.4,444.34a7,7,0,0,1,2.72,2.55,6.87,6.87,0,0,1,1,3.62,7,7,0,0,1-1,3.66,7.11,7.11,0,0,1-2.72,2.58,8.1,8.1,0,0,1-3.88.94,8,8,0,0,1-3.84-.94,7,7,0,0,1-2.72-2.58,6.93,6.93,0,0,1-1-3.66,6.83,6.83,0,0,1,1-3.64,7,7,0,0,1,2.71-2.54,8.54,8.54,0,0,1,7.73,0Zm-5.8,2.59a4,4,0,0,0-1.46,1.49,4.26,4.26,0,0,0-.53,2.11,4.36,4.36,0,0,0,.53,2.12,4,4,0,0,0,1.46,1.51,3.77,3.77,0,0,0,3.92,0,4,4,0,0,0,1.41-1.51,4.35,4.35,0,0,0,.52-2.12,4.26,4.26,0,0,0-.52-2.11,4,4,0,0,0-1.41-1.49,3.83,3.83,0,0,0-3.92,0Z"/><path class="cls-2" d="M479.11,593l-.33,0c-1.55-.13-2.93-1.18-4.1-3.13a11,11,0,0,0-4.18-3.91,13.14,13.14,0,0,1-4.05-4.73,15.6,15.6,0,0,0-2.59-3.49,9.2,9.2,0,0,1-1.26-1.48c-.68-.92-1.07-1.41-1.91-1.54-1.45-.23-3.32-2-3.32-3.53,0-2.38-.92-2.67-3.75-3-.53-.05-1.05-.1-1.53-.19-6.61-1.14-11.68,1.54-15.52,8.19-.77,1.32-1.34,2.43-1.14,3.72.5,3.31-1.31,4.76-2.91,5.39l-.53.21-.54-.2c-3.5-1.31-4.93-4.58-5.78-7.29l-.17-.56a18,18,0,0,0-1.73-4.26c-1.12-1.8-3-4-5.4-4.35-1.88-.26-3.92.6-6,2.55-.21.2-.45.41-.56.54a16.11,16.11,0,0,0,.53,1.72l.68,2h-2.61a5.83,5.83,0,0,1-4.57-.36c-1.57-.59-2.14-.72-2.87,0l-1.16,1.08-1-1.21c-.21-.26-.43-.5-.65-.75a13.06,13.06,0,0,1-1.6-2c-.49-.83-.91-1.67-1.32-2.49-1-2-2-3.93-3.8-5.23a3.66,3.66,0,0,1-1.67-2.75,5.58,5.58,0,0,1,2-4.13c2.85-2.76,3.6-6.37,4.4-10.19a34.58,34.58,0,0,1,2-7,1.26,1.26,0,0,0-.29-1.12,3.18,3.18,0,0,0-2.47-1.41l-1.62.06a39.82,39.82,0,0,0-8.3.88,26.39,26.39,0,0,1-3.88.61c-.53.06-1.06.11-1.62.19l-1,.12-.51-.81a9.7,9.7,0,0,1-1.11-2.91,5.63,5.63,0,0,0-1.09-2.53,4.8,4.8,0,0,1,.32-7.66c-2.61-2.81-6.58-2.88-9.55-2.92h-.07c-2.15,0-3.49,1.8-5.44,4.75a22.12,22.12,0,0,1-3.54,4.48l-.76.67-.9-.45c-4.13-2.06-6.48-5.38-8.74-8.59l-.5-.7c-2.78-3.91-6.72-6.29-12.4-7.5-.84-.18-1.64-.43-2.58-.72l-1.54-.47-1.76-.52,4.78-9-1.54-.2a17,17,0,0,0-5.62-.17l-1.43.31-.49-2.07v-.23c.45-7.06,3.1-12.62,8.09-17,1.23-1.07,2-3.06,2.73-5,.27-.7.53-1.39.82-2.05a27.71,27.71,0,0,0,1.11-3.4c.71-2.54,1.45-5.17,3.37-6.76,4.47-3.68,3.92-6.8,1.21-11.61a13.55,13.55,0,0,0-2.35-3.07l-.27-.26a23,23,0,0,1-1.9-2,23.62,23.62,0,0,1-2.14,2.32c-1.65,1.64-3.08,3.06-3.09,5.34a3.6,3.6,0,0,1-1.12,2.36,3.28,3.28,0,0,1-2.46.92,4.89,4.89,0,0,1-3.37-1.42,2.09,2.09,0,0,1-.5-1.63,6.86,6.86,0,0,0-.26-2.23c-.41-1.87-1-4.43,1.58-6.42,1.25-1,1.76-2.44,2.36-4.13a11.93,11.93,0,0,1,2.79-5h0a7.13,7.13,0,0,1-.72-.73l-.16-.25L331,438.17l.36-.68c2.33-4.41,4.19-8.76,1.4-13.56-1-1.68.67-4.22.86-4.51a15.6,15.6,0,0,0,1.66-3.85,19.38,19.38,0,0,1,1.87-4.4,4,4,0,0,0,.59-3c-.07-.17-.29-.68-1.52-.93-3.92-.8-4.12-3.74-4.28-6.1-.2-3-.54-4.29-2.92-4.71-1.19-.2-2.28-1.2-3.23-3s-2.22-5.49-1.32-7.56a16.87,16.87,0,0,1,4.24-5.43c1.64-1.59,3.18-3.08,3.82-5.12l.31-1,1-.08a9.51,9.51,0,0,0,4.26-1.91,12.24,12.24,0,0,1,5.07-2.29c4.81-.65,7.1-4.23,9.52-8,.39-.61.78-1.22,1.18-1.81a13.34,13.34,0,0,0,2.31-9.89c-.8-4.29,1-7.52,4.93-9.11,1.65-.66,4.46-2.23,4.7-5.35l.06-.87,3.49-1.65c.94-.35,2.46-.48,4.42.95,4.18,3.05,5.23,2.89,8.6-1.38.57-.73,1.17-1.43,1.77-2.12l.78-.92.62-.73.92.25a120.08,120.08,0,0,1,25.44,9.88l7-7,.92.36c2.17.85,4.88,1.92,4.65,5.54-.14,2.06,1.79,2.88,2.39,3.09s1.59-.53,2.7-1.66c3.2-3.25,5.38-7.39,7.48-11.39l.63-1.19c1.94-3.67,4.54-7,10.23-6.28a2.55,2.55,0,0,0,2.46-1.1c1.53-2,3.11-3.08,4.81-3.15s3.27.81,4.84,2.59c.07,0,.56.14.88.22l.18,0c.41-.56.83-1.12,1.25-1.67,4.48-5.95,8.71-11.57,5-19.59l1.93-.89.15-.79c8.1,1.61,11.1-3.51,14.6-9.43.66-1.12,1.35-2.29,2.08-3.4l.66-1,1.13.44c2.48,1,7.09,2.74,6.74,8.57-.11,1.84.73,3.41,2.81,5.24,1.76,1.54,3,2.76,2.81,4.3s-1.59,2.41-3.9,3.66a5.77,5.77,0,0,0-2.63,6.33c.47,1.53,1.22,2.28,4,2.15s5.58,1.61,7.87,4.76c2.05,2.83,3.94,7.45,2.53,11.18-1.51,4-1.53,8.08,0,13.67a16.2,16.2,0,0,0,.89,2.33c.76,1.75,1.55,3.56,1.15,5.53a6,6,0,0,1-.85,1.94c-.61,1-.66,1.25-.37,1.7l.6,1c.85,1.42,1.58,2.65,2.88,3.09a47.25,47.25,0,0,1,6.83,3.18c4.45,2.36,8.64,4.59,13.81,3.7a4.82,4.82,0,0,1,3,.76c.26.13.52.27.76.36l1.23.46-.29,1.27c-.14.62-.28,1.23-.43,1.83a28.87,28.87,0,0,0-.76,3.74l0,.15c-.15,1.36-.43,3.88-3.11,4.11-1.88.16-2.24,1.06-2.89,3.08-.09.28-.18.55-.28.83l2.12,1.72c3.84-.81,13.57-.18,16,1.18l1.28.7-.68,1.3c-3.67,7.06-1.43,13.69.93,20.72.36,1,.72,2.11,1.06,3.19l8.83-2c2.25-.64,3.28-.93,4.35-2.58.26-.41.52-.84.77-1.28,1.42-2.44,3.54-6.09,8.43-4.75l0,0,.49-.39c2.76-2,5.31-.87,7.37,0l.51.22a28.2,28.2,0,0,1,5.35,3.26,21.32,21.32,0,0,0,5.84,3.35c1.49-2.71,1.85-5.94,1.15-10.06-.56-3.3-.23-5.62,1-7.1a16.15,16.15,0,0,0,2.74-6c.23-.74.45-1.49.71-2.22l.2-.59a6.31,6.31,0,0,1,3.09-4.21l.64-.32.66.29c.61.27,1.24.52,1.88.76,2.54,1,5.44,2.12,7.32,5a44,44,0,0,0,11.22,12.33c6.1,4.34,12.87,8.25,21.17,7.53l.22,0a2.59,2.59,0,0,1,3,1.3,5,5,0,0,0,2.37,1.79c1.72.87,4.05,2.05,4.28,5.21a12.35,12.35,0,0,0,1.34.4,23,23,0,0,0,8.2.16c1-.09,1.93-.18,2.91-.24l.81-.06c2.64-.19,6.26-.47,8.09,4.33,1.57,4.14,5.07,7,10.41,8.58.88.25,2.93-.1,5.33-1.48,2.06-1.2,3.64-2.75,3.91-3.87,1.41-5.76,4.31-13.81,13.13-17.24l.17-.05a3.29,3.29,0,0,1,3.64,1.5l.18.23a68.83,68.83,0,0,1,4.15,5.66c2.75,4,5.35,7.86,9.56,10.27a3.83,3.83,0,0,1,1.84,3,3.16,3.16,0,0,1-.78,2.7,7.12,7.12,0,0,0-1.64,3.24,10.52,10.52,0,0,1-1.57,3.48,75.85,75.85,0,0,1-7.86,8.42,65.81,65.81,0,0,0-8.31,9.1,3.55,3.55,0,0,1-1.8,1.23,3.17,3.17,0,0,0-.37.16c-1.79,1-3.71,2.19-4.34,3.88a.39.39,0,0,0,0,.09s.08.06.14.13a4.27,4.27,0,0,1,.45.6l.25.42c3.11,5.26,7,11.78-.3,18l-3.35,6.94c-.88,1.72-1.88,3.35-2.85,4.92-.34.55-.68,1.09-1,1.64a11,11,0,0,1-2.37,2.6c-1.3,1.13-2.33,2-2.58,4-.39,3.21-4.47,4.21-8.08,5.1-.68.17-1.35.33-2,.5-8.26,2.36-16,.11-23.16-2.67-2.43-1-3.42-1-4.9.5-2.94,3-10.6,3.28-13.89.54-1.33-1.11-1.58-1.07-2.48-.39-2.16,1.65-2,2.43-1.59,3.28l.18.34a3.69,3.69,0,0,1,.06,4.22c-1.6,2.31-2.17,5-2.77,7.9l-.11.51c-1.25,6-6.36,8.24-11.2,9.65a7.51,7.51,0,0,0-1.82.72c-5.92,3.42-12,3.54-18.6.36-1.26-.6-3.17-1.09-4.42-.45a3.28,3.28,0,0,0-1.52,2.53,3.76,3.76,0,0,1-1.63,2.15c-.16.13-.33.25-.47.38-3.62,3.4-6.88,6.9-6.9,12.17a4.18,4.18,0,0,1-3.36,4.39l-.47.11-.46-.2c-.64-.28-1.29-.63-1.91-1-1.92-1-3.73-2-6-1.58a6.28,6.28,0,0,1-5.73-2.57l-.42-.56.84-3.58a28.25,28.25,0,0,1,2.08-7.62c.25-.68.51-1.35.75-2a3,3,0,0,0-1.27-3.85c-2.93-2.22-3.52-5.37-4-8.16-.08-.44-.17-.89-.26-1.32-.21-1-.72-3.4.66-4.92a4.32,4.32,0,0,1,3.86-1.15,1.68,1.68,0,0,0,.9-.11h0c-.21-.62-.39-1.26-.57-1.9-.56-2.05-1.1-4-2.63-5a13.55,13.55,0,0,0-11.18-2.07c-2.63.65-3.27,2.33-4.17,5.23-.12.37-.23.74-.35,1.11-.64,1.93-1.64,4.22-3.69,4.69s-3.91-1.16-5.15-2.43c-1.46-1.49-3.39-1.84-6.26-1.13-5.7,1.41-11.76,2.27-17.72-.66l0,0c-2.79,4.36-3.69,4.66-9.56,3.12a12,12,0,0,0-3.63-.11l-.86.05a10.37,10.37,0,0,0,.46,2.8,12.24,12.24,0,0,1,.51,3.28,17.69,17.69,0,0,1,3.51,2.29,9.43,9.43,0,0,0,4.45,2.38c5.77.75,8,3,8.54,8.6l.07,2.32-.85.44c-1.87.94-1.79,3-1.52,5.3.56,4.84-2.15,6.41-5,7.61-5.74,2.42-9,7.19-9.81,14.57l0,.24-3.49,7.51h-1c-3.24,0-4.4.27-4.76,3.75-.32,3-2,6.41-5,10.31a20.5,20.5,0,0,0-2.58,5,21.85,21.85,0,0,1-3.52,6.5C482.24,592.07,480.67,593,479.11,593Zm-18.74-22a2.2,2.2,0,0,0,.83.73,5.74,5.74,0,0,1,3.81,2.72,6.73,6.73,0,0,0,.87,1,18,18,0,0,1,3.13,4.15,10.74,10.74,0,0,0,3.07,3.73,14,14,0,0,1,5.17,4.92c.63,1.05,1.26,1.65,1.78,1.7.35,0,1.18-.17,2.6-1.81a19.17,19.17,0,0,0,3-5.64,22.42,22.42,0,0,1,3-5.8c2.71-3.44,4.15-6.3,4.4-8.75.57-5.45,3.67-6.35,6.81-6.44l2.48-5.34c1-8.41,4.83-13.89,11.59-16.75,2.72-1.15,3.46-1.88,3.16-4.5-.22-1.89-.66-5.68,2.3-7.81l0-.41c-.39-4.13-1.5-5.23-5.92-5.8a12.16,12.16,0,0,1-5.92-3,11.12,11.12,0,0,0-3.69-2.21l-1.42-.39.36-1.42a6.73,6.73,0,0,0-.33-3.18,10.11,10.11,0,0,1-.3-5.39l.3-1.12h1.15c.67,0,1.33,0,2-.08a14.34,14.34,0,0,1,4.57.21c2,.52,3.59.91,4.26.68.51-.17,1.08-1.06,2-2.52l.79-1.22.78-1.19,1.23.72c5.44,3.19,11.27,2.37,16.75,1,1.44-.36,5.82-1.44,9.13,1.94,1.69,1.73,2.3,1.62,2.32,1.61s.68-.18,1.52-2.72c.12-.35.22-.7.33-1.05.9-2.88,1.92-6.16,6.31-7.25a16.61,16.61,0,0,1,13.55,2.47c2.48,1.62,3.23,4.32,3.89,6.7.16.59.32,1.18.51,1.74a2.89,2.89,0,0,1-.42,2.81,4.05,4.05,0,0,1-3.62,1.26c-.8-.09-1.22,0-1.33.16s-.32.58.05,2.3l.27,1.39c.48,2.57.9,4.8,2.9,6.32a6,6,0,0,1,2.29,7.24c-.25.7-.51,1.39-.78,2.09a25.25,25.25,0,0,0-1.9,6.91l0,.23-.53,2.24a3.15,3.15,0,0,0,2.33,1c3.37-.64,6,.76,8,1.88l1.19.62c.37-.19.58-.55.59-1.33,0-6.47,3.89-10.63,7.85-14.34a7.63,7.63,0,0,1,.67-.56c.18-.15.44-.35.56-.48a6,6,0,0,1,3.09-4.52c2.79-1.42,6.12,0,7.07.43,5.72,2.75,10.73,2.67,15.79-.26a10.35,10.35,0,0,1,2.48-1c4.84-1.42,8.24-3.22,9.12-7.4l.1-.51c.64-3,1.3-6.19,3.25-9,.17-.25.18-.27-.26-1.13l-.2-.38c-1.86-3.71,1.27-6.1,2.45-7,3-2.25,5.08-.48,6.22.47,2.09,1.74,8,1.53,9.84-.35,2.86-2.9,5.57-2.18,8.11-1.19,7.7,3,14.26,4.58,21.26,2.59.63-.18,1.33-.35,2-.53,2.13-.53,5.69-1.4,5.83-2.55a8.78,8.78,0,0,1,3.57-5.92,8.45,8.45,0,0,0,1.78-1.89l1-1.66c.94-1.52,1.92-3.1,2.73-4.69l3.61-7.5.26-.21c5.36-4.38,3.45-8.3-.12-14.32l-.25-.43c0-.06-.1-.11-.15-.17a3,3,0,0,1-.69-3.14c1-2.69,3.47-4.31,5.75-5.55a7.16,7.16,0,0,1,.74-.32,2.84,2.84,0,0,0,.44-.19,67,67,0,0,1,8.65-9.5,73,73,0,0,0,7.55-8.08,8.18,8.18,0,0,0,1.1-2.55,9.8,9.8,0,0,1,2.31-4.4,1.24,1.24,0,0,0-.35-1c-4.82-2.75-7.74-7-10.56-11.18a66.57,66.57,0,0,0-4-5.42l-.28-.35a3,3,0,0,0-.37-.43h-.07c-5.73,2.27-9.19,6.93-11.2,15.11-.47,1.95-2.47,4.11-5.32,5.75-1.08.63-4.83,2.6-7.67,1.77C679.18,424.6,674.9,421,673,416c-1-2.6-2.26-2.62-5-2.41l-.87.06c-.93.06-1.86.15-2.79.24a26,26,0,0,1-9.24-.24c-1.42-.37-3.56-.92-3.57-2.83,0-1.6-.87-2.11-2.66-3A7.72,7.72,0,0,1,645.3,405h0l-.39.05c-9.27.81-16.92-3.63-23.17-8.07a47,47,0,0,1-12-13.15c-1.36-2.09-3.56-3-5.89-3.86l-1.26-.5a4.59,4.59,0,0,0-1.07,2.1c-.07.22-.14.44-.22.66-.24.7-.46,1.4-.67,2.1a18.41,18.41,0,0,1-3.31,7c-.35.42-.87,1.6-.35,4.68.91,5.38.23,9.56-2.16,13.13l-.57.84-1-.21c-3.19-.67-5.63-2.42-8-4.11a25.19,25.19,0,0,0-4.77-2.94l-.54-.23c-2-.86-3.11-1.28-4.43-.33l-.28.23a2.38,2.38,0,0,1-2.34.78c-2.87-1-3.85.43-5.47,3.22-.28.48-.56,1-.85,1.41-1.69,2.6-3.61,3.15-6.06,3.84l-.32.09-11.39,2.53-.4-1.34c-.43-1.47-.94-3-1.43-4.42-2.3-6.84-4.68-13.9-1.49-21.48-3.46-.75-11.3-1.05-13-.34l-.83.35-5.2-4.23.51-1.07a11.63,11.63,0,0,0,.58-1.56c.65-2,1.55-4.8,5.49-5.15l.12,0a5.25,5.25,0,0,0,.27-1.43l0-.15a31.42,31.42,0,0,1,.82-4.13l.15-.6a3.82,3.82,0,0,0-1-.4h0c-6.16,1.06-11-1.52-15.7-4a44.26,44.26,0,0,0-6.4-3c-2.34-.8-3.48-2.71-4.49-4.39-.18-.31-.36-.62-.55-.91-1.33-2.08-.3-3.81.32-4.85a4.06,4.06,0,0,0,.49-1c.21-1.05-.36-2.36-1-3.75a18.24,18.24,0,0,1-1-2.76c-1.1-4.14-2.08-9.65.13-15.5.79-2.09-.09-5.52-2.15-8.35-1.64-2.26-3.65-3.62-5.3-3.54-2.41.12-5.75-.2-7-4.25a8.74,8.74,0,0,1,4.08-9.87,16.54,16.54,0,0,0,2.25-1.37,13.55,13.55,0,0,0-1.72-1.69c-1.75-1.54-4.05-4-3.83-7.67.17-2.73-1-4-3.69-5.13-.45.74-.9,1.5-1.34,2.25-3.27,5.55-6.93,11.78-15.46,11.16,2.36,8.2-2.26,14.34-6.39,19.81-.61.82-1.23,1.64-1.82,2.46l-.65.9-1.05-.35c-.33-.11-.66-.19-1-.26a4.33,4.33,0,0,1-2.47-1.16,3.94,3.94,0,0,0-2.41-1.57h0c-.92,0-1.88,1.07-2.53,1.94a5.49,5.49,0,0,1-5.22,2.29c-3.32-.41-5.14.78-7.22,4.7l-.63,1.19c-2.2,4.19-4.48,8.53-8,12.09-1.29,1.31-3.23,3.28-5.82,2.4a6.1,6.1,0,0,1-4.41-6.13c.07-1-.12-1.42-1.85-2.18L412.41,343l-1-.54a114.53,114.53,0,0,0-24.85-9.9l-.18.2c-.57.67-1.14,1.34-1.69,2-4.36,5.52-7.22,6-12.72,1.94a2.13,2.13,0,0,0-1.55-.58l-1.78.85c-.58,3.06-2.89,5.59-6.46,7-2.61,1-3.62,2.93-3.09,5.77a16.33,16.33,0,0,1-2.77,12.12c-.39.57-.76,1.16-1.14,1.75-2.56,4-5.46,8.54-11.65,9.37a9.82,9.82,0,0,0-3.83,1.83,13.81,13.81,0,0,1-4.69,2.25,16.92,16.92,0,0,1-4.26,5.47,14.68,14.68,0,0,0-3.58,4.46,7.31,7.31,0,0,0,.77,4,5.09,5.09,0,0,0,1.58,2.37c4.92.85,5.2,5,5.36,7.45s.33,3,1.89,3.36a4.69,4.69,0,0,1,3.68,2.68c.91,2.12-.08,4.65-.8,5.81a16.82,16.82,0,0,0-1.57,3.76,17.85,17.85,0,0,1-2,4.59,4.63,4.63,0,0,0-.65,1.5c3.26,5.77,1.36,10.87-1.08,15.61l.42.85.28.26a3,3,0,0,1,1.3,2.29,2.61,2.61,0,0,1-1,2,8.68,8.68,0,0,0-2.21,4c-.66,1.86-1.4,4-3.34,5.49-1,.77-.91,1.51-.5,3.43a11.06,11.06,0,0,1,.35,2.69,2.75,2.75,0,0,0,1,.24c.29,0,.43-.3.46-.42.06-3.45,2.14-5.52,4-7.34a11.49,11.49,0,0,0,2.67-3.38l.34-.8,2.35-.29.43,1.07a10.19,10.19,0,0,0,2.46,3.11l.28.27a16.76,16.76,0,0,1,2.86,3.73c2.75,4.9,4.43,10.16-1.92,15.4-1.2,1-1.78,3.06-2.39,5.25a30.57,30.57,0,0,1-1.25,3.79c-.27.62-.52,1.27-.77,1.92-.87,2.27-1.76,4.62-3.56,6.18a20,20,0,0,0-6.95,13.56,25.87,25.87,0,0,1,4.83.36c.75.1,1.5.2,2.24.27l.3.06,3,.9-4.84,9.15c.82.25,1.48.45,2.14.59,6.46,1.38,11,4.14,14.22,8.7l.51.71c1.94,2.76,3.79,5.37,6.69,7.12a27.47,27.47,0,0,0,2.3-3.15c1.9-2.89,4.05-6.14,8.05-6.1,3.57,0,9.53.15,12.92,5.45l.85,1.33-1.37.78c-1.16.67-1.85,1.39-1.94,2a2.65,2.65,0,0,0,.91,1.93,8.06,8.06,0,0,1,1.82,3.84c.11.43.22.85.35,1.23l.61-.06a24.23,24.23,0,0,0,3.46-.54,41.59,41.59,0,0,1,8.93-1l1.6-.07a6.23,6.23,0,0,1,5.08,2.71,4.15,4.15,0,0,1,.56,4,31.93,31.93,0,0,0-1.79,6.36c-.85,4.1-1.73,8.33-5.25,11.74a2.94,2.94,0,0,0-1,1.74c0,.06,0,.25.42.54,2.43,1.73,3.61,4.07,4.74,6.33.41.8.79,1.56,1.22,2.29a9.23,9.23,0,0,0,1.08,1.37c1.75-.8,3.47-.15,4.69.31a4.5,4.5,0,0,0,2.09.48c-.42-1.6-.17-2.37,1.36-3.77,2.81-2.58,5.67-3.7,8.47-3.31s5.45,2.37,7.54,5.73a20.21,20.21,0,0,1,2.05,5l.18.55c.88,2.8,1.89,4.35,3.4,5.13.48-.33.68-.83.52-1.89a8.57,8.57,0,0,1,1.51-5.67c4.48-7.76,10.75-11,18.63-9.64.42.07.86.11,1.32.16C456.31,565.47,460.28,565.87,460.37,571Zm130.26-45.88Zm.07-.17ZM331,459.14Zm2.42-17.93h0Z"/></svg>