<?xml version="1.0" encoding="utf-8"?>
<!-- Generator: Adobe Illustrator 23.0.6, SVG Export Plug-In . SVG Version: 6.00 Build 0)  -->
<svg version="1.1" id="map" xmlns="http://www.w3.org/2000/svg" xmlns:xlink="http://www.w3.org/1999/xlink" x="0px" y="0px"
	 viewBox="0 0 874.6 604.4" style="enable-background:new 0 0 874.6 604.4;" xml:space="preserve">
<style type="text/css">
	.st0{fill:#66B4C3;stroke:#66B4C3;stroke-width:3;stroke-miterlimit:10;}
	.st1{fill:#7FC0CD;stroke:#7FC0CD;stroke-width:3;stroke-miterlimit:10;}
	.st2{fill:#B2D9E1;stroke:#B2D9E1;stroke-width:3;stroke-linecap:round;stroke-linejoin:round;}
	.st3{fill:#99CDD7;stroke:#99CDD7;stroke-width:3;stroke-miterlimit:10;}
	.st4{fill:#FFFFFF;}
</style>
<title>map-experiencia2</title>
<path id="altotamega" class="st0" d="M455.1,284.2c4.6,10-1.9,16.6-7,23.6c-1.1-0.4-2.3-0.4-2.8-1c-2.7-3.1-5-2.6-7.3,0.5
	c-0.9,1.2-2.3,1.9-3.8,1.7c-4.5-0.5-6.7,1.6-8.7,5.5c-2.4,4.5-4.7,9.2-8.4,12.9c-1.2,1.2-2.6,2.6-4.3,2c-2.1-0.6-3.5-2.5-3.4-4.6
	c0.2-2.4-1.3-3.1-3.7-4l-7.1,7.1c-8.3-4.5-17-7.9-26.1-10.3c-0.8,1-1.7,2-2.5,3c-3.9,4.9-5.8,5.2-10.7,1.7c-0.8-0.7-1.9-1-3-0.8
	c-3.4,1.3-6.6-0.6-9.9-0.5c-1.9,0-2.7-0.8-3.2-2.9c-0.4-1.7-1.1-4-3.2-5.2c-4.1-2.3-7.4-7.5-13.3-3.5c-1.6,0.9-3.5,0.3-4.4-1.3
	c0,0,0,0,0,0c-0.1-0.1-0.1-0.2-0.2-0.3c-1.6-4.1-5.5-6.7-7.2-10.5c-0.1-2,2.4-3.1,1.9-4.8c-1-3,0.8-5,1.8-7.3c0.4-1,1.2-1.8,0.9-3
	c-0.5-2.1,0.4-2.8,2.5-2.6c1.4,0.1,2.9-0.4,4.3-0.3c2.8,0.1,4.2-0.9,3.9-3.9c-0.1-1.5,0.4-2.2,2-3.6c2-1.8,5.6-5.9,6.5-8.3
	s-0.6-4,2.6-4.3c2.6-0.3,6.2-5.8,5-8c-1.7-3.4-2.3-7.4-5-10.3c-1.5-1.6-2.8-3.5-4.3-5.1s-3-1.4-3.8,0.8c-0.9,2.5-2.9,4.2-4.7,6
	s-3.9,3.9-6.9,1.8c-0.5-0.3-1.1-0.3-1.6,0c-3.6,3.3-7,1.3-10.3-0.5c-1.5-0.9-2.9-0.7-4.3-0.8c-2.7-0.1-5.5,0.5-7.3-2.5
	c-1.3-2.2-3.5-1.4-5.5-0.9c-4.8,1.1-5.7,0.2-6.9-4.7c-1.3-4.5-1.1-9.3,0.5-13.7c0.3-0.6,0.5-1.4,0.4-2.1c-1.1-3.2,0.6-5.1,2.5-7.3
	c3.1-3.5,2.2-6.2-2.1-8.1c-3.6-1.5-8-1.4-10.4-5.5c-0.4-0.6-3-1.3-4.6,0.3c-3,3.2-6.6,2.7-10.2,1.2c-0.7-0.4-1.4-0.5-2.1-0.3
	c-3.3,1.7-6.7,1.9-10.2,2.2l-0.3-0.6c-0.1-2.3,1.3-4.3,3.4-5.1c4.9-2.2,6.5-6.1,7.4-11.1c0.8-4.5,0.9-9.5,5.4-12.4
	c1.3-0.8,1.8-2.4,1.2-3.8c-0.7-2.6-0.3-5.2-0.3-7.7c-0.1-2.1,0.8-4.2,2.5-5.5c4.5-3.4,2.2-4.1,1.3-8.1c-0.1-0.8,0-1.7,0.3-2.5
	c1.3-3,4.3-3.9,7.6-3.6c0.9,0.1,2.9,0.4,3.4-1.6c1.1-4,3.7-7.2,6.4-10.3c0.4-0.3,0.7-0.8,0.8-1.3c0.9-6.3,6.1-6.4,11.1-5.1
	c1.6,0.4,3.2,0.3,4.8-0.3c4.9-1.6,7.1-4.6,8.2-9.5c0.7-3.3,1.9-6.4,1.5-9.9c-0.3-2.7,0.8-3.7,3.4-3.4c1.5,0.2,3-0.3,4.3,1.3
	s0.5,2.9,0,4.3c-0.4,1.2-0.5,2.5-0.3,3.8c1.1,6.7,0.2,13.2-1.2,19.9l5.1,2.8l0.4,0.4c1.1-2.5,3.5-4.3,6.3-4.7
	c2.2-0.4,3.6-0.7,3.5-3.5c-0.3-5.1-0.1-5.2,5.1-5.1c7.7,0.1,15.1-0.3,20.5-6.9c0.5-0.7,1.4-1,2.2-0.8c4.7,3.7,5.9,3.4,11.1-0.4
	c2.5-1.8,5.1-4.6,8.9-2.3c3.1,2,6,4.2,8.8,6.6c4.8,4,9.4,6,15.1,2.7c0.7-0.4,1.5-0.4,2.1,0.1c1.9,1,3.8,1.6,6,0.9
	c1.2-0.4,2.2,0.4,3.5,1.7c-4.9,2.9-5.6,8.4-8.2,12.8c-0.9,1.6-0.8,3.4-0.9,5.1s0.5,2.5,1.8,2.1c5.6-1.7,11.5,0.8,17.2-1.5
	c5.4-2.2,11.7-2.6,15.6-8c-0.2-0.5-0.4-1-0.7-1.5c-1.8-1.9-1.8-3.7,0.5-5.1c2-1.3,4.7-2.5,5.8,0.5c1,2.6,3,2,3.9,1.5
	c2.1-1,4-0.5,6.1-0.7c2.6-0.3,3.8,1.4,3.3,3.4c-1.1,4.4,1,6.9,4.4,9c1.2,0.8,2.8,1.3,2.2,3.4s0.1,4.3,0.8,6.4v1.7
	c4-2.9,8-5.7,9.9-10.7c1.7-4.4,5.6-6.3,9.6-8c2.5,4.1,2.5,4.1,7,3.2c1-0.2,2.1-0.7,3-0.4c6.5,2.2,11-3.6,16.7-4.3
	c6-6.7,16-4.8,22.7-10.3c0.1-0.1,0.3,0,0.4,0l1.7,0.4c3.7,3.4,1.4,7.4,0.8,11.1c-0.2,1.6-0.7,3.2-1.4,4.6c-1.8,3.8,0.7,7.5-0.5,11.3
	c-0.7,2.1,2.3,3.6,3,5.9c0.9,2.1,1.6,4.2,2.2,6.4c0.4,1.7,2.7,3.4,4.5,4.2c3,1.3,3.3,3.6,2,5.6c-1.6,2.4-0.5,4.5-0.1,6.5
	c0.6,3.2-0.7,5.1-3.2,5.4s-3,1.7-3.4,3.6c-0.2,0.9-0.3,2.1-0.9,2.5c-4.6,2.8-4.7,7.8-4.9,12c-0.3,6.7-3.9,11.9-6.7,17.5
	c-2,4.1-5.3,7.7-3.4,12.9c0.4,1.1-0.2,2.3-0.8,3.4c-2.2,4.4-4.6,8.7-1.7,13.7c0.7,1.2-0.4,2.1-0.9,3c-1.2,2.2-1.4,4.5,0.1,6.4
	c1.9,2.5,2,5.9,4.5,8.3c1.7,1.5,1.7,4.4,3.4,6.4c0.7,0.9,0.7,3.1-2,3.4c-3.9,0.3-7.7,1.2-11.6,1.6c-1.7,0.2-3.2,0.4-4.3,1.8
	c-2.8,3.5-5.6,15.7-4.8,20.1c-1.1,2.1-3.1,1.5-4.6,2.1c-0.8,0.3-1.9-0.5-2.5,0.5c-3,4.4-9,3.5-12.4,7.3l-0.2,1
	c-1.7-3.5-4.9-6.6-8-6.4s-4.7-0.7-5.5-3.2c-0.8-3.1,0.5-6.5,3.4-8.1c3.9-2.1,4.1-2.6,0.8-5.5c-2-1.8-3.5-3.8-3.3-6.5
	c0.3-4.2-2.3-5.7-5.8-7.1c-4.4,6.8-7.4,15.6-18.2,13.5"/>
<path id="altominho" class="st1" d="M25,236.4c1.4,0.9,2.9-0.7,4.3-1.3c2.2-1,4.5-2.1,6.8-1.6s3.9,0.1,4.7-2.2
	c0.6-1.7,1.9-2.6,3.4-1.3c3,2.6,4.1,0.5,5.2-1.8c1.6-3.5,3.9-4.4,7.3-2.6c1.1-0.9,1.4-3,3-2.9c5.3,0.4,11.1-2.7,15.4,2.6
	c1-1.4,1.5-3.1,1.2-4.8c-0.1-1.9,1.1-3,2.8-4.3c2.8,4.4,8,5,11.6,8.4c0.5-0.2,1-0.4,1.4-0.7c5-3.9,6.4-3.9,8.4,1.8
	c1.2,3.5,3.4,3.2,5.7,2.8c1.4-0.2,2.6-0.8,3.7-1.7c0.4-5.7,4-11-1.4-14.7c0.4-0.8,1-1.6,1.6-2.3c2.2-1.7,3.3-4.7,6.4-5.2
	c1.3-6.1,3.4-12,1.9-18.1l7.1-7.1c3.1-0.1,1.5,3.3,3,4.7c0.5,0.3,1.1,0.4,1.7,0.4c3,0,6.4-0.6,8-3.5c1.2-1.9,2.9-3.5,4.9-4.5
	c3.5-1.9,6.3-5.3,11-5c4,0.3,8.1-0.2,10.4-4.2c1.6,0.3,2.4,1.3,3.3,2.2c1.3,1.4,3.3,1.8,5.1,1.2c3.6-1.6,7-1.3,10.8-0.4
	c2.6,0.6,5-0.1,5.2-3.8c0.1-1.6,0.3-3.6,1.9-4.6c2.8,0.5,4.1,3.3,6.6,4.4c2.9-1.6,6.3-3.1,8.2-5.2c2.1-2.4,5.3-0.7,6.7-3.2
	c2-3.5,5.6-5.2,8.5-7.7c2.3-1.9,4.5-1.7,6.9-0.4s3.4,1.3,4.5-1.7s-0.1-5.7,0.5-8.6c1.6-6.4,0.5-13.2-3-18.8
	c-2.3,0.4-4.7,0.9-7.2,0.1h-1.1c-0.9-3.2-1.4-6.4-4.4-8.7c-2.1-1.6-1.9-6.6-0.1-9.3c3.6-5.4,6.1-11.3,10.9-16
	c2.3-2.2,4.6-5.4,4.9-9.2c0.2-2.1,1.3-3,3.4-3.5c2.8-0.5,5.1-2.7,5.6-5.5c0.7-2.6,2.7-3.4,5.5-3.6c7.3-0.4,10.7-3,11.4-9.3
	c0.4-3.9-0.5-8.1-1.6-11.9c-1.2-4.1-2.6-8.4-7.6-9.9c-1-0.5-1.8-1.1-2.6-1.9c-2.8,1.8-5.5,3.1-9,2c-2.5-0.8-4.4,1.1-5.9,2.9
	c-1.2,1.4-2.9,2.8-4.3,2.4c-2.5-0.7-2.3-3.2-2.2-5.4c0.2-6.5-0.2-13-2.5-19.3c-0.3-0.7-0.3-1.4,0-2.1c3.2-4,1-7-1.7-9.9l-0.4,1.3
	c-1.4,3.2-5.2,3.5-7.4,5.9c-0.5,0.5-2.4,0.3-3.8-0.7c-3.9-2.7-5.8-1.8-6.7,2.9c-0.5,2.4-1.3,4-3.9,2.5c-1.4-0.9-2.2,0-3,0.6
	c-1.4,1-2.7,2.1-3.9,3.4c-2.3,2.2-4.1,5-8.1,4.4c-1.4-0.2-2.9,1.2-3.2,3.7c-0.5,3.8-1.4,6-6.2,3.9c-6.1-2.6-6.1-2.5-10.7,2.5
	c-1.5,1.6-3.1,2.5-5.1,0.9c-1.6-1.4-3.9-1.4-5.5,0c-3.1,2.5-5.9,3.3-8.6-0.5c-0.5-0.7-1-1.5-2.1-1.3c-5.7,0.6-11.6-1.4-17.1,1.3
	c-1.3,0.7-2.8,0.8-4.2,0.3c-2.6-1.5-4.1-0.2-5.6,1.4c1,5.1-1.1,8.3-6.8,8.8c-4.5,0.4-9.1,2.5-13.8-0.6c-2.1-1.4-4.7,0.7-7.2,0.9
	c-4.2,0.4-8,2.6-10.5,6c-2.4,3.1-4.5,5.6-4,9.6c0.7,6.2-4,8.4-8.1,11.1c-5.1,3.4-11.4,4.2-16.3,8.1c-3.1,2.4-5.7,4.2-4,9.1
	c0.8,2.5-0.9,5.8-3.6,7.6s-5.1,3.8-7.7,5.5c-2.4,1.6-5.4,2-8.1,2.5s-4.8,1.6-5.9,3.6c-3.3,6.1-7.1,11.6-13,15.5
	c-1,0.6-2.3,2.5-2,2.9c3,4.4-0.7,7.5-1.8,11.2c-0.9,3.4-0.1,7,2.1,9.8c1.3,1.8,1.2,3.3-0.1,4.7c-1.5,1.6-1.7,2.9-1,5.2
	c0.8,2.8,0.6,5.8-0.6,8.5C0.1,171.8,1.7,178,4,184.2c2.4,6.4,5.1,12.7,8.2,18.8c0.2,0.5,0.5,0.9,0.8,1.3c4.2,3.4,5.8,2.5,5.5,7.7
	c-0.6,8.1,1,15.9,5.3,22.6C24,235.3,24.5,235.9,25,236.4z"/>
<path id="cavado" class="st2" d="M248.1,200.9c-0.1-2.3,1.3-4.3,3.4-5.1c4.9-2.2,6.5-6.1,7.4-11.1c0.8-4.5,0.9-9.5,5.5-12.4
	c1.3-0.8,1.8-2.4,1.2-3.8c-0.8-2.6-0.3-5.2-0.3-7.7c-0.1-2.1,0.8-4.2,2.5-5.5c4.5-3.4,3.5-4.6,1.3-8.1l-0.4-0.8
	c-2.9,1.9-6.8,1.5-9.9,2.8c-2.8,1.1-6.3,2-9.3-0.2c-0.3-0.1-0.6-0.1-0.8,0c-5.1,3.6-9-0.6-13.3-2.1c-0.6-0.1-1.1-0.1-1.7,0l-1.5,1.8
	c-1.1,3-2.2,3-4.5,1.7s-4.6-1.6-6.9,0.4c-2.9,2.5-6.5,4.2-8.5,7.7c-1.4,2.5-4.6,0.8-6.7,3.2c-1.9,2.1-5.3,3.6-8.2,5.2
	c-2.6-1.1-3.8-3.9-6.6-4.4c-1.6,1-1.8,3-1.9,4.6c-0.3,3.7-2.6,4.4-5.2,3.8c-3.7-0.9-7.1-1.2-10.8,0.4c-1.8,0.6-3.8,0.2-5.1-1.2
	c-0.9-0.9-1.6-1.9-3.3-2.2c-2.3,4-6.4,4.5-10.4,4.2c-4.7-0.3-7.6,3.1-11,5c-2,1-3.8,2.5-4.9,4.5c-1.6,2.9-5,3.4-8,3.5
	c-0.6,0-1.2-0.1-1.7-0.4c-1.5-1.4,0.1-4.9-3-4.7l-7.1,7.1c1.6,6.1-0.5,12-1.9,18.1c-3.1,0.5-4.2,3.5-6.4,5.2
	c-0.6,0.7-1.2,1.4-1.6,2.3c5.4,3.7,1.8,9.1,1.4,14.7c-1,0.9-2.3,1.5-3.7,1.7c-2.3,0.4-4.5,0.7-5.7-2.8c-2-5.7-3.3-5.7-8.4-1.8
	c-0.5,0.3-0.9,0.5-1.4,0.7c-3.5-3.3-8.8-4-11.6-8.4c-1.7,1.3-2.9,2.3-2.8,4.3c0.2,1.7-0.2,3.4-1.2,4.8c-4.3-5.3-10.1-2.2-15.4-2.6
	c-1.6-0.1-1.9,2-3,2.9c-3.4-1.8-5.7-0.9-7.3,2.6c-1,2.3-2.2,4.4-5.2,1.8c-1.5-1.3-2.8-0.4-3.4,1.3c-0.8,2.4-2.3,2.8-4.7,2.2
	s-4.6,0.6-6.8,1.6c-1.4,0.6-2.6,1.6-4.3,1.3l-0.5,0.3c0.3,2-0.4,4.1-0.1,6.1c0.7,5.7,3,10.9,3.4,16.6c0.1,1,0.5,2.3,0.7,3.4
	c0.7,7.4,1.4,14.8,2.1,22.2c0.3,3.1,3,5.1,3.5,8.1c0.2,1,0.3,2,0.2,3h1.4c5.3,0.8,11,0.8,13.2,7.3c5.2-2.7,7.2,0.4,8.8,3.6
	c3,1,4.4-2.6,7.6-1.7c5.1,1.5,7.7,4.9,8.8,9.6c0.7,2.6,1.8,4,4.4,3.8c1.5-0.1,2.1,1,3,1.3l1.9,0.1c0.5-2.1,2.3-3.3,3.6-4.7
	c3.7-3.8,5.6-4.1,9.3-0.8c1.8,1.6,3,1.1,4.8,0.4c3.5-1.5,4.1-5.1,6.1-7.6s1.9-4.2-0.4-6.6l-1.8-3.8c2.6-0.6,4.2-3.6,7.8-2
	c1.9,0.9,4.3-2.8,7.2-2.3c0.1,0,0.3,0,0.4,0c6-0.4,11.4,0.6,15.8,5.8c3.3-4.5,5.9-1.6,8.5,0.3c3.3-2.9,7.9-4.2,9.1-9.1
	c0.1-0.6,1-0.7,1.6-0.9c3.6-1.1,4.1-5.2,3.6-7.1c-1.2-4.1,0.2-6.6,2.4-9.5c3.8-5,13.5-7.4,19.1-4.1c1.5-1.3,2.9-2.8,5.3-3.3
	c2.7-0.5,5.4-6.4,3.8-7.4c-3.2-2-4.4-5.4-6.9-7.7c-1.4-1.3-3.9-1.4-5.9-1.8c-3.1-0.7-2.8-3.7-1.6-4.5c2.8-2,2-4.4,1.5-6.6
	c-0.8-3-0.4-5.1,2.7-6c2-0.3,3.3-2.2,3-4.2v-0.1c-0.2-2.7,1-4.2,3.4-5.7c3-1.9,6.4-2,9.5-2.7c2.3-0.5,4.6-1.7,7.3-1.1
	c3.7,0.7,7.4,1.1,11.1,1.4c6.1,0.7,10.4-1.9,12.8-7.7c1.1-2.6,3.7-5.3,5.6-5.3c5.8-0.1,10.6-3.1,15.9-3.8"/>
<path id="ave" class="st3" d="M83.3,320.2c0.5-2.1,2.3-3.3,3.6-4.7c3.7-3.8,5.6-4.1,9.3-0.8c1.8,1.6,3.1,1.1,4.8,0.4
	c3.5-1.5,4.1-5.1,6.1-7.6s1.9-4.2-0.4-6.6c-0.9-0.9-1.4-2.3-2.2-3.3l0.4-0.5c2.6-0.6,4.2-3.6,7.8-2c1.9,0.9,4.3-2.8,7.2-2.3
	c0.1,0,0.3,0,0.4,0c6-0.4,11.4,0.6,15.8,5.8c3.3-4.5,5.9-1.6,8.5,0.3c3.3-2.9,7.9-4.2,9.1-9.1c0.1-0.6,1-0.7,1.6-0.9
	c3.6-1.1,4.1-5.2,3.6-7.1c-1.2-4.1,0.2-6.6,2.4-9.5c3.8-5,13.5-7.4,19.1-4.1c1.5-1.3,2.9-2.8,5.3-3.3c2.7-0.5,5.4-6.4,3.8-7.4
	c-3.2-2-4.4-5.4-6.9-7.7c-1.4-1.3-3.9-1.4-5.9-1.8c-3.1-0.7-2.8-3.7-1.6-4.5c2.8-2,2-4.4,1.5-6.6c-0.8-3-0.4-5.1,2.7-6
	c2-0.3,3.3-2.2,3-4.2v-0.1c-0.2-2.7,1-4.2,3.4-5.7c3-1.9,6.4-2,9.5-2.7c2.3-0.5,4.6-1.7,7.3-1.1c3.7,0.7,7.4,1.1,11.1,1.4
	c6.1,0.7,10.4-1.9,12.8-7.7c1.1-2.6,3.7-5.3,5.6-5.3c5.8-0.1,10.6-3.1,15.9-3.8c4.1-0.5,8.2-0.4,12-2.4c0.7-0.2,1.5-0.1,2.1,0.3
	c3.6,1.5,7.2,1.9,10.2-1.2c1.5-1.6,4.2-0.9,4.6-0.3c2.4,4.1,6.8,3.9,10.4,5.5c4.3,1.8,5.2,4.6,2.1,8.1c-2,2.2-3.6,4.2-2.5,7.3
	c0.1,0.7-0.1,1.5-0.4,2.1c-1.6,4.4-1.8,9.2-0.5,13.7c1.2,4.9,2.2,5.8,6.9,4.7c2-0.5,4.2-1.3,5.5,0.9c1.8,3.1,4.6,2.5,7.3,2.5
	c1.5,0,2.8-0.1,4.3,0.8c3.2,1.8,6.6,3.8,10.3,0.5c0.5-0.3,1.1-0.3,1.6,0c3,2.1,4.9,0.2,6.9-1.8s3.8-3.5,4.7-6
	c0.8-2.2,2.2-2.5,3.8-0.8s2.8,3.5,4.3,5.1c2.7,2.9,3.3,6.9,5,10.3c1.1,2.2-2.5,7.7-5,8c-3.2,0.3-4,1.6-3,4.1l-6.1,8.6
	c-1.6,1.4-2.1,2.1-2,3.6c0.3,3-1.1,4-3.9,3.9c-1.4-0.1-2.9,0.5-4.3,0.3c-2.1-0.2-3,0.5-2.5,2.6c0.3,1.2-0.5,2-0.9,3
	c-1,2.3-2.8,4.3-1.8,7.3c0.6,1.7-2,2.8-1.9,4.8c1.6,3.9,5.5,6.4,7.2,10.5c0.7,1.7,2.6,2.5,4.2,1.8c0,0,0,0,0,0
	c0.1,0,0.2-0.1,0.3-0.2c6-4,9.2,1.2,13.3,3.5c2.1,1.1,2.8,3.5,3.2,5.2c0.5,2.2,1.3,3,3.2,2.9c2.3-0.1,4.5,0.8,6.8,1l0.5,0.8
	c-0.3,3.6-3.1,5.6-5.6,6.6c-3.9,1.6-4.5,4.6-4,7.4c0.6,3.9-0.3,7.8-2.5,11c-2.9,4.3-5.4,9.6-11.7,10.5c-3.5,0.5-5.8,3.9-9.4,4.2
	c-0.9,2.8-3,4.6-5,6.5l-0.6-0.5c-3.9-4.3-7.8-8.4-14.1-9.1c-3-0.4-3.8-3.1-2.1-5.9c0.6-1,1.4-2.1,2.1-3c2.2-2.8,1.7-4.7-1.7-6
	c-1.4-0.5-3.7-0.2-3.7-2.2c0-2.3-1.5-4.6-0.1-6.9c1-1.8,1.4-3.6-0.4-5.1c-0.7-0.6-1.1-1.4-0.4-2.1c3.4-3.6,2.1-10.1,7.6-12.5
	c1.2-0.7,2.3-1.7,3-3c1.4-2.1,0-5-2-6.5c-4.8-3.4-10.4-4.8-15.5-7c-3.5-1.5-2.8-5.2-5.3-6.6c-6,2.2-11.1-1-17.1-2.1
	c-2.5,1.4-3.1,3.6-2.5,7.2c0.8,4.7-2.5,7.7-6.3,9.7c-2.3,1.2-3.4,2.7-2.9,5.2c0.5,2.8-2.3,3.4-3.4,5.2c2,3.7,0.2,7.4-0.6,11
	c-0.5,1.4-0.9,2.9-1.2,4.3c-0.6,3.9-4.5,5.5-8.1,3.4c-1.1-0.6-2.3-1.6-3.4-1.6c-2.4,0-2.9-1.2-3-3.1c-0.2-3-0.9-5.5-4.7-5.1
	c-0.9,0.1-1.8-0.5-2.1-1.3c-0.6-1.1-0.6-3-2.2-2.9c-3.2,0.1-6.3-1-9.4-0.8c-1.7,0.1-1.9,1.8-1.7,3.3c0.4,3.2-1.1,5-4.3,4.2
	c-3.4-0.8-4.8,2.1-6.2,3.6c-1.3,1.4-2.3,1.9-3.5,1.8l0.3,0.6c-0.4,2.3-2.1,3.5-4,4.8c1.5,2.8-0.5,5.6-0.4,8.5c0,1.9-5.5,3.9-7.5,2.5
	c-3.8-2.6-8-5.2-8.1-10.6c-0.2-1.1-0.5-2.2-1.1-3.3l-0.7-0.2c-2.1-0.4-3.6,0.5-5.2,1.7c-3.1,2.2-5.9,5.1-10.3,2.3
	c-0.7-0.5-2.5,0.7-3.9,1.2c-2.8-2.7-0.4-4.7,0.9-6.9l0.9-0.4c-4.9-1.7-4.9-1.7-8.6,2.1c-1.2,1.3-2,3.1-3.5,3.7
	c-2.1,1-4.9,3.2-6.7,0.1c-3-5.3-6.9-3.2-10.8-2.1c-0.8,0.4-1.7,0.6-2.6,0.8c-5.5,0.1-9.4,2.1-10.3,8.2c-0.1,0.5-0.8,1.3-1.2,1.2
	c-2.7-0.1-5.4,3.5-8.2,0.1c-0.3-0.4-1.5-0.3-2.1,0c-2.5,1.5-5.2,0.5-7.7,0.3c-3.8-0.4-7.3-0.7-10.4,1.5c-3.9-4.3-2.3-10-4.6-14.6
	c-1.3-2.6,0.2-4,2.5-5.2s5.6-0.3,6.6-3.9c-1.8-1.6-2-5.7-4.8-5.1c-2.2,0.4-3.6-0.6-5.1-1.3"/>
<path id="douro" class="st1" d="M455.5,285.2c10.9,2.1,13.8-6.7,18.2-13.5c3.5,1.3,6,2.9,5.8,7.1c-0.2,2.6,1.3,4.7,3.3,6.5
	c3.3,2.9,3.1,3.4-0.8,5.5c-2.8,1.6-4.2,5-3.4,8.1c0.8,2.5,2.5,3.3,5.5,3.2c5.2-0.3,10.8,8.9,8.9,13.9s-1.4,9.6-0.1,14.6
	c0.6,2.5,2.5,4.9,2,7.2c-0.3,1.5-2.3,2.8-1,4.7s2.1,3.9,4.3,4.7c7.1,2.4,13,8.4,21.4,6.9c0.9-0.2,2,0.7,3,1
	c-0.5,1.9-0.9,3.8-1.2,5.7c-0.2,1.4-0.3,2.8-1.8,2.9c-3.9,0.3-3.7,3.6-4.8,5.9l3.6,2.9c2.4-1,13.4-0.4,15.7,0.8
	c-4.8,9.2-0.3,17.7,2.3,26.4l9.9-2.2c2.5-0.7,4.1-1.1,5.5-3.3c1.8-2.8,3.2-6.9,8.1-5.2c0.3,0.1,0.8-0.5,1.3-0.8
	c2.3-1.6,4.3-0.5,6.4,0.4c4.4,1.9,7.5,5.9,12.5,7c2.5-3.7,2.6-7.9,1.9-12c-0.4-2.2-0.4-4.5,0.7-5.9c2.2-2.6,2.7-5.7,3.7-8.7
	c0.5-1.5,0.8-3,2.5-4c3,1.3,6.5,2.1,8.6,5.2c3,4.9,7,9.3,11.6,12.7c6.5,4.7,13.6,8.5,22.2,7.8c0.6,0,1.3-0.3,1.7,0.4
	c1.4,3,6.5,2.4,6.5,6.8c0,0.7,1.4,1.1,2.4,1.4c3.9,1,7.7,0.2,11.6,0c2.9-0.2,5.8-0.9,7.4,3.3c1.9,5,6.2,8,11.4,9.5
	c3.2,0.9,10.3-3.1,11.1-6.4c1.8-7.2,4.9-13.4,12.2-16.2c1.3-0.3,1.8,0.6,2.3,1.3c4.6,5.5,7.5,12.5,14.1,16.3
	c1.1,0.7,1.4,2.2,0.8,3.3c-2.1,1.9-1.9,4.9-3.4,6.9c-4.8,6.4-11.6,11-16.2,17.6c-0.4,0.5-1.1,0.6-1.7,0.9c-2.2,1.2-4.2,2.6-5,4.7
	c-0.4,1.2,0.4,1.5,0.7,2.1c3.3,5.5,6.8,11.1,0,16.7l-3.5,7.2c-1.1,2.2-2.5,4.3-3.8,6.5c-1.5,2.5-4.7,3.2-5.2,7.2
	c-0.3,2.7-5.6,3.4-9,4.3c-7.8,2.2-15.1,0.1-22.2-2.6c-2.5-1-4.3-1.4-6.5,0.8c-2.5,2.5-9.2,2.6-11.9,0.5c-1.5-1.3-2.6-1.8-4.3-0.4
	s-3.1,2.9-2,5.1c0.6,1.1,1.1,1.9,0.3,3c-1.9,2.7-2.5,5.8-3.1,9c-1.1,5.2-5.5,7.2-10.2,8.5c-0.8,0.2-1.5,0.5-2.2,0.8
	c-5.6,3.3-11.1,3.2-17.2,0.3c-2.2-1-7-2.3-8.1,3.2c-0.1,0.7-1.1,1.2-1.7,1.7c-3.9,3.6-7.3,7.4-7.4,13.3c0.1,1.4-0.8,2.7-2.2,2.9
	c-2.5-1.1-5.1-3.3-8.8-2.6c-1.7,0.1-3.3-0.6-4.3-2l0.7-3c0.3-3.3,1.7-6.3,2.8-9.4c0.9-2,0.1-4.4-1.8-5.5c-2.9-2.2-3.1-5.5-3.7-8.6
	c-0.4-2-0.7-4.6,2.9-4.3c1.5,0.2,3-0.6,2.5-2.1c-0.9-2.7-1.2-6-3.8-7.7c-3.6-2.6-8-3.4-12.3-2.4c-4,1-4.5,4.2-5.6,7.3
	c-1.5,4.4-3.2,4.9-6.3,1.7c-2.3-2.4-5.3-2.1-7.7-1.5c-6.2,1.5-12.1,2.2-17.9-1.2c-3.1,4.8-2.7,5.3-8.7,3.7c-1.9-0.5-4-0.1-6.2-0.1
	c-0.9,3.2,1.3,5.8,0.6,8.6c3.5,1,5.5,4.7,9.4,5.2c5.1,0.7,6.8,2.3,7.2,7.3v1.3c-3,1.5-2.6,4.8-2.3,6.8c0.4,3.7-1.3,4.9-4.1,6
	c-6.9,2.9-9.9,8.7-10.7,15.8l-3,6.4c-3.5,0-5.8,0.5-6.3,5.1c-0.3,3.2-2.4,6.6-4.7,9.5c-2.6,3.4-3.1,8.1-6.1,11.5
	c-2.6,3-4.8,3.3-6.8-0.1c-1.1-1.9-2.8-3.4-4.7-4.4c-2.9-1.8-3.8-5.6-6.4-8c-1.3-1.2-1.8-3-4-3.4c-0.8-0.1-2-1.3-2-2
	c0-4.7-3.8-4.2-6.5-4.6c-7.8-1.3-13.3,2.3-17.1,8.9c-1,1.4-1.5,3-1.3,4.7c0.4,1.6-0.4,3.2-2,3.8c-2.7-1-4-3.5-4.9-6.3
	c-0.5-1.8-1.2-3.5-2.1-5.2c-3.7-5.9-8.6-6.8-13.7-2.1c-1.3,1.2-1.3,1.2-0.4,3.8h-0.9c-2.7,1.5-5.4-2.5-8.1,0
	c-0.8-0.8-1.5-1.7-2.1-2.6c-1.7-2.8-2.6-6.1-5.5-8.2c-2-1.5-0.7-3.5,0.5-4.6c5-4.9,4.2-11.9,6.7-17.6c0.9-2-1.7-4.7-4.2-4.6
	c-3.4,0.2-6.9,0.1-10.2,1c-1.8,0.4-3.5,0.6-5.3,0.8c-1.1-1.7-0.8-4-2.4-5.7c-2.2-2.3-1.7-4.5,1.4-6.3c-3-4.6-8.3-4.7-11.7-4.8
	c-4.9-0.1-6.5,6.5-10.1,9.6c-4.1-2-6.4-5.5-8.7-8.8c-3.3-4.7-7.9-7-13.3-8.1c-1.2-0.3-2.3-0.7-4-1.2l4.8-9.1l-1.3-0.4
	c-2.8-0.3-5.7-1-8.5-0.4l-0.1-0.4c0.2-6.2,2.9-12,7.6-16c2-1.7,2.8-4.9,3.9-7.6c1.4-3.2,1.7-7.6,4.1-9.6c5.4-4.4,4.3-8.6,1.6-13.5
	c-0.7-1.3-1.6-2.4-2.6-3.4c-1.3-1.1-2.3-2.4-3.1-3.9h-0.4c-1.6,3.8-6.5,5.4-6.5,10.3c-0.1,1-1,1.8-2,1.8c-1.2,0-2.5-0.7-2.4-1.4
	c0.4-2.6-2-5.5,0.8-7.7c3.1-2.5,2.5-7,5.5-9.5c1.3-1.1-0.2-1.8-0.8-2.5l-0.9-1.7c2.5-4.8,4.5-9.6,1.4-15c-0.4-0.6,0.3-2.1,0.8-2.9
	c1.7-2.5,1.9-5.6,3.6-8.3c0.8-1.3,2.3-5.4-1.9-6.2c-2.8-0.6-2.9-2.4-3.1-4.7c-0.2-2.6-0.4-5.4-4.2-6.1c-2.1-0.4-4.3-6.5-3.4-8.5
	c1.8-4.2,6.7-6.2,8.1-10.7c3.7-0.3,6-3.7,9.4-4.2c6.4-0.9,8.9-6.2,11.7-10.5c2.3-3.2,3.2-7.1,2.5-11c-0.5-2.8,0.1-5.9,4-7.5
	c2.5-1,5.4-3.1,5.6-6.6l2.6-1.2c1.1-0.3,2.2,0,3,0.8c4.9,3.6,6.8,3.2,10.7-1.7c0.8-1,1.7-2,2.5-3c9.1,2.4,17.8,5.8,26.1,10.3
	l7.1-7.1c2.4,0.9,3.9,1.7,3.7,4c-0.1,2.1,1.3,4,3.4,4.6c1.7,0.6,3-0.8,4.3-2c3.7-3.7,6-8.4,8.4-12.9c2.1-3.9,4.3-6,8.7-5.5
	c1.5,0.2,3-0.5,3.8-1.7c2.3-3,4.6-3.6,7.3-0.5c0.5,0.6,1.7,0.6,2.8,1c5.1-7,11.6-13.6,7-23.6"/>
<path id="tamega" class="st2" d="M206.7,512.7c-0.1-2.9-0.3-5.7-0.7-8.5c-0.1-0.8,0.3-1.6,0.8-2.1c1.4-1,2.3-2.6,2.6-4.3
	c0.8-3.5,3.3-3.3,6-2.6c2.3,0.6,4.1,1.4,2.2,4.3c-0.6,1.4-0.1,3,1.1,3.8c2.8-1.7,5-0.6,7.4,1.6c1.6,1.2,3.5,1.8,5.4,1.7
	c2,0,4,0.6,5.6,1.9c3.7,2.5,8.4,2.1,9.1-1.8c1-5.4,6.6-5.8,8-10.4c2.1,2.7,2.1,2.7,2.1,3.6c0.4,6.5,0.5,6.3,6.8,8.3
	c1.7,0.5,2.7,0.9,4.4,0c1.9-1.1,4.3-0.6,5.5,1.2c1.1,1.1,2,2.2,3,3.5c2.2,3.5,4.8,3.4,8.7,2.4c3-0.7,5-3.1,8-3.4
	c5.4-0.5,8.3-3.9,9.5-8.9c1-3.9,0.3-10,7.6-8.6c0.3,0,0.6-0.2,0.8-0.4c1.2-1.2,2.8-2,4.4-2.2l-0.6-2.5c0.4-6.3,2.6-11.6,7.6-16
	c2-1.8,2.8-5,3.9-7.6c1.4-3.2,1.7-7.6,4.1-9.6c5.4-4.4,4.3-8.6,1.6-13.5c-0.7-1.2-1.6-2.4-2.6-3.4l-3.5-3.9
	c-1.6,3.8-6.5,5.4-6.5,10.3c-0.1,1-1,1.8-2,1.8c-1.2,0-2.5-0.7-2.5-1.4c0.4-2.6-2-5.5,0.8-7.7c3.1-2.5,2.5-6.9,5.5-9.5l-1.7-4.2
	c2.5-4.8,4.5-9.6,1.4-15c-0.4-0.6,0.3-2.1,0.8-2.9c1.7-2.5,1.9-5.6,3.6-8.3c0.8-1.3,2.3-5.4-1.9-6.2c-2.8-0.6-2.9-2.4-3.1-4.7
	c-0.2-2.6-0.4-5.4-4.2-6.1c-2.1-0.4-4.3-6.5-3.4-8.5c0.8-1.7,2-3.2,3.4-4.5l-0.9-0.2c-3.9-4.3-7.8-8.4-14.1-9.1
	c-3-0.4-3.8-3.1-2.1-5.9c0.6-1,1.4-2.1,2.1-3c2.2-2.8,1.7-4.7-1.7-6c-1.4-0.5-3.7-0.2-3.7-2.2c0-2.3-1.5-4.6-0.1-6.9
	c1.1-1.8,1.4-3.6-0.4-5.1c-0.7-0.6-1-1.4-0.4-2.1c3.4-3.6,2.1-10.1,7.6-12.5c1.2-0.7,2.3-1.8,3-3c1.5-2.1,0-5-2-6.5
	c-4.7-3.4-10.4-4.8-15.5-7c-3.5-1.5-2.8-5.2-5.3-6.6c-6,2.2-11.1-1-17.1-2.1c-2.5,1.4-3.1,3.6-2.5,7.2c0.8,4.7-2.5,7.7-6.3,9.7
	c-2.3,1.2-3.4,2.7-3,5.2c0.5,2.8-2.3,3.4-3.4,5.2c2,3.7,0.2,7.4-0.6,11c-0.5,1.4-0.9,2.8-1.2,4.3c-0.6,3.9-4.5,5.5-8.1,3.4
	c-1.1-0.6-2.3-1.6-3.4-1.6c-2.4,0-2.9-1.2-3-3.1c-0.2-3-0.9-5.5-4.7-5.1c-0.9,0.1-1.8-0.5-2.1-1.3c-0.6-1.1-0.6-3-2.2-2.9
	c-3.2,0.1-6.3-1-9.4-0.8c-1.7,0.1-1.9,1.8-1.7,3.3c0.4,3.2-1,5-4.3,4.2s-4.8,2.1-6.3,3.6L200,335c-0.4,2.3-2.1,3.5-4,4.8
	c1.5,2.8-0.4,5.6-0.4,8.5c0,1.9-5.5,3.9-7.5,2.5c-1.4-1-2.8-2-4.2-3.1l-1,0.6c-5.7,5.5-12.2,8-20.1,5.6c-2.4-0.9-5,0.3-5.9,2.7
	c0,0,0,0,0,0c0,0.1-0.1,0.1-0.1,0.2c2.1,5.1,1.3,7.3-3.8,9.8l-4.7,2.1c-1.9,0.7-2.2,2.2-2.2,3.9c0.1,3-0.6,5.6-3,7.7
	c-3.3,2.8-3.5,6.9-4.2,10.7c-0.1,0.6-0.7,1.7,0.8,2.2c1.3,0.5,2.5,0.6,3-0.5c1.4-4.1,5.5-3,8-4.8c2.4,1.3,2.6,4,4.1,5.7v0.9
	c2-2.5,5.5-1.9,7.8-4.2c4.9-4.9,17.1-4,21.8,1.2c0.6,0.6,0.9,1.4,0.8,2.2c-0.1,3,1.2,5.1,4.4,6.5c-3.7,3.5-6.8,7.7-9,12.4
	c-1.2,2.7-2.7,3-5.2,1.4l-0.6,0.8c-1.6,2-3.8,3.8-1.8,6.9c0.6,1,0.3,2.4-0.7,3c-0.3,0.2-0.6,0.3-0.9,0.3c-4.1,0.7-5.5,4.8-8.6,6.8
	c-0.8,0.4-1.1,1.4-0.7,2.2c0,0,0,0,0,0c0.1,0.1,0.2,0.3,0.3,0.4c2.6,3.2,0.7,5.3-1.7,7.3c-1,0.8-2.2,1.6-3.6,2.6
	c6.7,10.4,12,20.4,4.9,32.1c-1.4,1.6-3.8,0.2-5.8,1.3c-0.2,1.9-0.6,3.9-0.7,5.9c-0.1,1.6-0.7,3.5,2.1,3.9c1.7,0.3,2.8,1.7,2.6,3.8
	c-0.4,5.9-0.3,6.1,5.5,6.3c3.3,0.1,4.7,1,3.4,4.3c1.9,0.4,3.8,1.2,5.3,2.4c3.6,2.3,6.3,4.7,6.9,9.2c0.1,0.9,2.1,2.1,3.7,1.7
	c4.2-1,8.6,0.3,12.9-1.5c2.3-1,5.1-0.7,7.6-1L206.7,512.7z"/>
<path id="porto" class="st0" d="M183.7,348.2c-2.2-1.9-3.9-4.2-3.9-7.5c-0.2-1.2-0.6-2.4-1.2-3.4H178c-2.1-0.4-3.6,0.5-5.2,1.7
	c-3.1,2.2-5.9,5.1-10.3,2.3c-0.7-0.5-2.5,0.7-3.9,1.2c-2.8-2.7-0.4-4.7,0.9-6.9l0.9-0.4c-4.9-1.7-4.9-1.7-8.6,2.1
	c-1.2,1.3-2.1,3.1-3.5,3.7c-2.1,1-4.9,3.2-6.7,0.1c-3-5.3-6.9-3.2-10.8-2.1c-0.8,0.4-1.7,0.6-2.6,0.8c-5.5,0.1-9.4,2.1-10.3,8.2
	c-0.1,0.5-0.8,1.3-1.2,1.2c-2.7-0.1-5.4,3.5-8.2,0.1c-0.3-0.4-1.5-0.3-2.1,0c-2.5,1.5-5.2,0.5-7.7,0.3c-3.8-0.4-7.3-0.7-10.4,1.5
	c-3.9-4.3-2.3-10-4.6-14.6c-1.3-2.6,0.2-4,2.5-5.2s5.6-0.3,6.6-3.9c-1.8-1.6-2-5.7-4.8-5.1c-3.1,0.6-4.6-1.6-6.9-2
	c-1-0.2-1.6-1.4-3-1.3c-2.6,0.3-3.7-1.2-4.4-3.8c-1.2-4.6-3.8-8-8.8-9.6c-3.2-1-4.6,2.6-7.6,1.7c-1.6-3.2-3.6-6.3-8.8-3.6
	c-2.2-6.5-8.1-6.8-13.3-7c-0.4-0.1-0.8-0.2-1.3-0.3c-0.1,3.3-1.2,6.5-1.5,9.8c-0.3,3.6-1.2,7-2.6,10.3c-0.8,1.8-0.3,3.6,0.6,5.6
	c2.1,4.3,3.3,9,4.8,13.6c1.8,5.1,5.5,9.6,5.2,15.4c0,0.4,0.5,1.2,0.8,1.2c5,0.1,3.5,4,3.3,6.5c-0.9,9.7,3.6,18.4,4.5,27.8
	c0.1,0.8,1,2.2,0.6,3c-1.7,2.8-0.8,5.4,0,8.2c1.3,4,2.8,7.8,2.5,12.4c-0.1,3.2,3.5,6.2,2.7,10.2c-0.1,0.7,0.7,1,1.3,1
	c3.3,0.5,4.6,2.7,4.7,5.8c0.1,0.9,0.4,1.7,0.9,2.5c4.9,4.9,5.9,11.6,6.4,17.7c0.5,6.3,3.3,12.2,2.3,18.8c-0.8,5.2,0.1,10.6,2.3,15.4
	c3.2,6.6,1.8,13.4,0.8,20.1c-0.5,3.3-0.8,6.5-0.8,9.8c0,1.6,0.9,2.9,2.1,2.5c3.8-1.3,8.5-0.1,11.3-3.9c3.2,1.6,3,3.9,2.4,6.6
	c-0.7,3.3,0.2,6.2,1.2,9.5c1.4,4.7,4.3,8.8,5.1,13.6c0.3,2,0.8,4.2-0.2,6.5c-0.8,1.9,4,7,6.3,7.2l4,0.3c2.6-1.4,4-4,5.8-6.3l0.4-0.9
	c3.9-0.1,2.7,3.1,2.4,4.7c-0.5,1.4-0.6,2.9-0.4,4.3c0.4,2.2-0.8,4.3-2.8,5.1c-2,0.9-4,1.9-5.1,4.5c3.4,1.6,2.3,7.6,7.7,7l-1.7,0.4
	c-0.4,2.5-0.3,5.3-3.8,5.6c-0.7,0-1.2,0.5-1.3,1.2c0,0,0,0,0,0v0.1c0,3.6-0.7,7.3,0.2,10.6c0.7,2.5,4.1,3.8,6.6,4.2
	c3.5,0.5,3.2,2.1,2.5,4.5c-0.9,3-0.1,4,3,4.3c1.9,0.2,3.2-0.4,3.8-2.2c0.4-1.1,0.9-2.2,1.8-2.5c5-1.4,9.9-2.8,15-3.8
	c1.8-0.4,3.7-0.3,4.8,2c0.7,1.5,2.5,2.2,4.6,2.7c0.9-1.5,3.8-2.2,3.3-4.3c-0.5-2.3,0.3-3.1,1.9-3.8c1.2-0.6,1.8-1.7,2.6-2.6
	c2.9-3.5,7.7-3.5,10.2,0c1.8,2.3,4,4.3,6.5,5.9c2,1.4,4,1.7,5.6-0.8s3.3-2.5,5.1,0c1.4,1.8,3.1,2,4.7,0c0.6-0.8,1.6-1.1,2.6-0.7
	c3,0.9,2.1,5.7,5.9,6.8c1.4-3.2,1.8-7,4.8-9.5c0.3-0.3,0.5-0.8,0.4-1.2c-1.2-2.5,0.5-3.5,2.1-4.8c2.9-2.3,4.1-9.2,2.6-12.8
	c-1.4-3.1-2.8-6.2-4.2-9.2c0.8-0.7,1.6-1.4,2.5-2c2.9-1.7,5.7-3,8.2,0.8c0.7,1.1,2.2,1.7,3.4,2.6c3.2,2.5,6.3,2.4,9-0.4
	c1.2-1.3,2.3-2.5,3.4-3.8c1.5-1.8,3.4-2,4.6-0.3c1.8,2.4,4.7,3,7,4.6c2.6,1.8,7,1,9.3-1.7c2.1-2.4,3.1-5.1,0-7.7
	c-0.7-0.6-0.7-1.3-0.9-2.1c-0.6-2.6-1-5.4-3.8-6.9c-1.5-0.8-1.4-2.1-1-3.8c1-3.9,2.2-7.8-0.2-12c-2-3.6-3.5-8,1.5-11.1
	c0.8-0.5,1.1-1.7,1.8-2.5c2.9-3.7,5.3-7.8,9.2-10.7l-0.6-4.7c0-0.8,0-0.8-2.1-3.6c-1.4,4.6-7,4.9-8,10.3c-0.7,3.9-5.5,4.3-9.1,1.8
	c-1.6-1.2-3.6-1.8-5.6-1.7c-2,0.1-3.9-0.5-5.4-1.7c-2.4-2.2-4.7-3.3-7.4-1.6c-1.7-1.3-1.6-3-1.1-3.8c1.8-3,0-3.7-2.2-4.3
	c-2.7-0.8-5.2-0.9-6,2.6c-0.2,1.7-1.2,3.3-2.6,4.3c-0.6,0.5-0.9,1.3-0.8,2.1c0.4,2.8,0.7,5.7,0.7,8.5h-1.2c-2.6,0.3-5.4,0-7.6,1
	c-4.2,1.9-8.7,0.5-12.9,1.5c-1.5,0.4-3.6-0.8-3.7-1.7c-0.6-4.5-3.2-6.8-6.9-9.2c-1.6-1.2-3.4-2-5.3-2.4c1.3-3.3-0.1-4.2-3.4-4.3
	c-5.8-0.2-5.9-0.4-5.5-6.3c0.1-2.1-0.9-3.5-2.6-3.8c-2.8-0.4-2.2-2.3-2.1-3.9c0.1-2,0.4-4,0.7-5.9c2-1.1,4.4,0.3,5.8-1.3
	c7.1-11.7,1.7-21.7-4.9-32.1c1.4-1,2.6-1.7,3.6-2.6c2.4-2,4.4-4,1.8-7.3c-0.6-0.6-0.6-1.7,0-2.3c0.1-0.1,0.2-0.2,0.4-0.3
	c3-2.1,4.4-6.1,8.6-6.9c1.2-0.1,2.1-1.2,1.9-2.4c0-0.3-0.1-0.6-0.3-0.9c-2-3.2,0.2-4.9,1.8-6.9l0.6-0.8c2.5,1.5,4,1.2,5.2-1.4
	c2.2-4.6,5.2-8.8,8.9-12.3c-3.2-1.4-4.6-3.5-4.4-6.5c0-0.8-0.3-1.6-0.8-2.2c-4.7-5.1-16.9-6.1-21.7-1.2c-2.3,2.3-5.8,1.7-7.8,4.2
	v-0.8c-1.5-1.7-1.6-4.3-4.1-5.7c-2.4,1.8-6.6,0.7-8,4.8c-0.4,1.2-1.7,1-3,0.5s-0.9-1.6-0.8-2.2c0.7-3.8,1-7.9,4.2-10.7
	c2.4-2,3.1-4.7,3-7.7c0-1.7,0.3-3.2,2.1-3.9l4.7-2.1c5.1-2.6,6-4.7,3.8-9.8c0.8-2.4,3.4-3.8,5.8-3l0.2,0.1c8,2.4,14.4-0.1,20.1-5.6
	L183.7,348.2z"/>
<path id="trasosmontes" class="st3" d="M712,406.6c-6.6-3.8-9.5-10.8-14.1-16.3c-0.5-0.6-1-1.6-2.3-1.2c-7.3,2.8-10.4,9-12.2,16.2
	c-0.8,3.4-7.9,7.4-11.1,6.4c-5.2-1.5-9.5-4.5-11.4-9.5c-1.6-4.2-4.5-3.5-7.4-3.3c-3.9,0.2-7.7,1-11.6,0c-1.1-0.3-2.4-0.6-2.4-1.4
	c0-4.5-5.1-3.9-6.5-6.8c-0.4-0.7-1.1-0.5-1.7-0.4c-8.6,0.8-15.6-3.1-22.2-7.8c-4.6-3.5-8.6-7.8-11.6-12.7c-2-3.2-5.6-3.9-8.6-5.2
	c-1.8,0.9-2,2.5-2.5,4c-1,3-1.5,6-3.7,8.7c-1.1,1.3-1,3.7-0.7,5.9c0.7,4.1,0.6,8.3-1.9,12c-5-1-8.1-5.1-12.5-7
	c-2.1-0.9-4.2-2-6.4-0.4c-0.4,0.3-1,0.9-1.3,0.8c-4.9-1.7-6.2,2.4-8.1,5.2c-1.4,2.2-3,2.6-5.5,3.3l-9.9,2.2
	c-2.6-8.7-7.1-17.1-2.3-26.4c-2.2-1.2-13.2-1.9-15.7-0.8l-3.6-2.8c1.1-2.3,1-5.5,4.8-5.9c1.5-0.1,1.6-1.6,1.8-2.9
	c0.3-1.9,0.7-3.8,1.2-5.7c-1-0.4-2-1.2-3-1c-8.4,1.4-14.3-4.5-21.4-6.9c-2.2-0.8-3.1-2.9-4.3-4.7s0.7-3.2,1-4.7
	c0.5-2.3-1.4-4.7-2-7.2c-1.3-5-1.8-9.7,0.1-14.6c0.9-2.4,0.1-5.6-1.4-8.4l0.6-0.2c3.4-3.8,9.5-2.8,12.4-7.3c0.6-1,1.8-0.1,2.5-0.5
	c1.5-0.6,3.5,0,4.6-2.1c-0.8-4.4,2-16.6,4.8-20.1c1.1-1.4,2.6-1.6,4.3-1.8c3.9-0.4,7.7-1.3,11.6-1.6c2.7-0.2,2.7-2.5,2-3.4
	c-1.7-2-1.7-4.9-3.4-6.4c-2.5-2.4-2.6-5.8-4.5-8.3c-1.5-2-1.3-4.2-0.1-6.4c0.5-0.9,1.5-1.8,0.9-3c-2.8-5-0.4-9.3,1.7-13.7
	c0.5-1.1,1.2-2.3,0.8-3.4c-1.9-5.1,1.4-8.8,3.4-12.9c2.7-5.6,6.3-10.8,6.7-17.5c0.2-4.3,0.3-9.2,4.9-12c0.6-0.4,0.7-1.6,0.9-2.5
	c0.4-1.9,0.8-3.2,3.4-3.6s3.8-2.3,3.2-5.4c-0.4-1.9-1.5-4.1,0.1-6.5c1.3-1.9,1.1-4.3-2-5.6c-1.8-0.8-4.2-2.5-4.5-4.2
	c-0.6-2.2-1.3-4.3-2.2-6.4c-0.8-2.2-3.7-3.8-3-5.9c1.2-3.8-1.3-7.5,0.5-11.3c0.7-1.5,1.1-3,1.4-4.6c0.6-3.7,2.9-7.7-0.8-11.1
	l-2.1-0.4c0.1-0.1,0.3,0,0.4,0c3-0.3,4.8-1.9,6.1-4.7c1.6-3.3,1.4-7.3,3.1-10.2c2.1-3.8,0.8-6.5-0.7-9.5c-1.1-2.1-1.6-4.2-0.8-6.4
	c0.4-1.1,0.4-2.3,0-3.4c-2.3-7,0.5-11.6,8.7-9.3c1.1-2.3,2.1-5.2,5.4-5.2c5.7,0,10,3.7,15,5.5c3,1.1,2.5,4.2,3.5,6.4
	c2.8,6.3,4.6,6.3,11.5,4.2c1.3-0.4,2.3-1,3.4-0.3c2.2,1.4,4.6,0.6,6.9,0.8c3.5,0.4,4.1-2.4,5.2-4.7c0.7-1,1.6-1.9,2.5-2.6
	c4.8-4.8,9.9-3.8,12.4,2.6c1.7,4.4,3.9,7.7,9.5,6.4c1-0.1,2,0.1,3,0.4c4.1,0.8,8.4,2.8,12.3-0.1c2.5-1.8,4.3-1.6,6.9-0.5
	c5.4,2.3,10.9-0.6,12.8-6.3c0.5-1.1,0.9-2.3,1.2-3.4c0.6-3.3,1.3-6.6-0.4-9.8h0.9c2,0,4.1-0.4,6,0.1c3.5,0.8,7.5,0.6,8,6.3
	c0.3,3.8,2.9,7.4,4.4,11.2c0.5,1.3,1.4,2.6,2.6,2.9c5.9,1.3,11.9,3.1,17.9,2.5c7.2-0.7,14-3.9,21.4-2.9c0.5,0,0.9-0.1,1.3-0.4
	c3.3-3.1,8.6-4.1,9.8-9.4l0.4-0.9c3.2,1,5.6,3.1,8.1,5.1c5.7,4.4,6.5,7.7,3.4,14.5c-1.9,4.2-1.9,9-4.6,12.9c-1.3,1.8-0.5,3,1.7,3.4
	c3.7,0.7,7.4,1.6,11.1,2c1.8,0.2,3.2,0.4,3.7,1.9c-2.3,6.2-4.4,12.2-4.1,18.7c0.2,1.9-0.2,3.8-1,5.5c-2.1,3.8-3.4,7.6-3,12
	c0.1,1.5-0.2,2.9-0.9,4.2c-1.5,2.6-2.7,5-2.6,8.2c0.1,2.6-3.4,3-3.8,5.6s2.7,2.5,3.4,5.1c1.1,4.7,1.9,9.7,4.4,14l-1.3,0.2
	c-2.3,4.5-1.4,6.4,3.8,9.9c2.6,1.5,5,3.5,6.9,5.9c2.8,3.4,7.7,4.2,11.4,1.7c1.8-1.3,3.2-2.5,5.6-2.6c1.7-0.1,2.7-1.5,3.1-3.7
	c0.8-4.5,1.1-4.2,5.9-3.1c2.7,0.6,5.5,1.3,8.6,0.7c2.4-0.4,5.2,0.7,7.6,1.6c1.8,0.7,3.7,0.8,5.5,0.2c3.7-1.6,6.8-0.2,9.9,1.1
	c3.9,1.6,8.4,2.3,11.9,4.4c8,4.7,15.8,10.1,19.7,19.1c1.3,3.7,4.7,6.2,8.6,6.4c3.6,0.4,8.3,6.6,8.1,10.2c-0.1,0.8-0.6,1.6-1.3,2.1
	c-3.9,3.1-5.3,7.3-7.2,11.8c-2.2,5.4-5,11.6-12,13.3c-0.1,2.2,1.2,3.8,1.7,5.7c-4.7,2.9-4.7,2.9-4.3,5.6c-3.4,2.1-7.3,3.6-6.5,9
	c0.3,1.7-2.4,2-3.3,3.4c-1,1.7-2,3.4-3.1,5.1c0.9,1.1,1.7,2.3,2.7,3.4c0.7,0.8,0.8,2,0.3,3c-2.2,3.2-3.4,7.6-8.5,7.8
	c-2.1,0.1-2.5,1.8-3.1,3.7c1.7,1.6,4.2,2.5,5.3,4.8c0.9,2,0.8,3.7-1.7,4.2c-0.9,0.1-1.8,0.4-2.6,0.8c-7.2,4.2-7.8,4-12.4-3.4
	l-0.4,0.9c-1.2,0.2-1.6,1.7-3,1.8c-2.3-0.1-4.2,1.7-4.3,3.9v0.3c-0.2,2.6-0.3,5.2,3.4,5.6c0.7,0.2,1.3,0.4,1.9,0.8
	c-2,4.7-5.3,5.2-8.7,5.6c-5.3,0.7-7.8,5.8-5.1,10.3h0.8c-3.6,1.8-6.7,3.4-6.7,8.6c0,2.5-3.6,4.5-6.1,3.6c-3.2-1-5.1,0.5-7.3,1.9
	c-3.8,2.5-4,3.5-0.8,6.4c1.3,1.2,1.2,2.1,0,3c-2.4,1.7-4.8,3.7-8.4,3.4c-1.2-0.2-1.2-1.7-1.9-2.5c-1.3-1.6-2.2-0.9-3.5,0.4
	c-1.7,1.8-3.5,3.3-5.5,4.7c-1,0.7-1.7,1.8-1.8,3c-0.5,3.1-6.7,6.9-9.7,5.9s-3.4-4-3.9-6.8l-0.4,2.1c-1.6,0.8-2.8,3.1-5.2,1
	c-0.6-0.6-3-0.3-3.7,0.4c-2.2,2.6-4.6,1.7-6.9,0.7c-1.3-0.5-2.5-0.7-3,0.5c-2.6,6.9-9.2,10.5-13.3,16.2L712,406.6z"/>
<path class="st3" d="M673.3,413.4c-0.5,0-1-0.1-1.5-0.2c-6.2-1.8-10.5-5.4-12.4-10.4c-1-2.6-2.3-2.6-5-2.4l-0.9,0.1
	c-0.9,0-1.9,0.1-2.8,0.2c-3.1,0.5-6.2,0.4-9.2-0.2c-1.4-0.4-3.6-0.9-3.6-2.8c0-1.6-0.9-2.1-2.7-3c-1.4-0.6-2.6-1.5-3.5-2.8l0,0
	l-0.4,0c-9.3,0.8-16.9-3.6-23.2-8.1c-4.8-3.6-8.9-8-12-13.1c-1.4-2.1-3.6-3-5.9-3.9l-1.3-0.5c-0.5,0.6-0.9,1.3-1.1,2.1
	c-0.1,0.2-0.1,0.4-0.2,0.6c-0.2,0.7-0.5,1.4-0.7,2.1c-0.6,2.5-1.7,4.9-3.3,7c-0.3,0.4-0.9,1.6-0.3,4.7c0.9,5.4,0.2,9.6-2.2,13.1
	l-0.6,0.9l-1-0.2c-3.2-0.7-5.6-2.4-8-4.1c-1.5-1.1-3.1-2.1-4.8-2.9l-0.5-0.2c-2-0.9-3.1-1.3-4.4-0.3c-0.1,0.1-0.2,0.1-0.3,0.2
	c-0.6,0.7-1.5,1-2.3,0.8c-2.9-1-3.8,0.4-5.5,3.2c-0.3,0.5-0.6,1-0.8,1.4c-1.7,2.6-3.6,3.1-6,3.8l-0.3,0.1l-11.4,2.5l-0.4-1.3
	c-0.4-1.5-0.9-3-1.4-4.4c-2.3-6.8-4.7-13.9-1.5-21.5c-3.5-0.8-11.3-1-13-0.3l-0.8,0.4l-5.2-4.2l0.5-1.1c0.2-0.5,0.4-1,0.6-1.6
	c0.7-2,1.5-4.8,5.5-5.1h0.1c0.2-0.5,0.3-0.9,0.3-1.4v-0.2c0.2-1.4,0.5-2.8,0.8-4.1l0.2-0.6c-0.3-0.2-0.6-0.3-1-0.4
	c-6.2,1-11-1.5-15.7-4c-2-1.2-4.2-2.2-6.4-3c-2.3-0.8-3.5-2.7-4.5-4.4c-0.2-0.3-0.4-0.6-0.5-0.9c-1.3-2.1-0.3-3.8,0.3-4.9
	c0.2-0.3,0.4-0.6,0.5-1c0.2-1-0.4-2.4-1-3.8c-0.4-0.9-0.7-1.8-1-2.8c-1.1-4.1-2.1-9.6,0.1-15.5c0.7-1.8,0.2-4.5-1.3-7.1l-0.9-1.6
	l2-0.6c1.8-1.8,4-2.6,6.2-3.3c2.4-0.8,4.5-1.5,5.8-3.5c0.7-0.9,1.9-1.4,3-1.1h0.3c0.6-0.2,1.2-0.3,1.8-0.4c1-0.1,1.4-0.2,1.8-0.6
	c-0.6-5.3,2.3-17.1,5.2-20.7c1.6-2,3.7-2.2,5.3-2.3c1.8-0.2,3.7-0.5,5.4-0.8c2-0.3,4.1-0.7,6.2-0.8c0.2,0,0.8-0.1,1-0.4
	c0.1-0.2,0.1-0.3,0-0.5c-0.9-1.1-1.5-2.4-1.9-3.7c-0.3-0.9-0.7-1.8-1.3-2.6c-1.4-1.5-2.5-3.2-3.1-5.2c-0.4-1.2-0.9-2.3-1.6-3.3
	c-1.7-2.3-1.8-5.1-0.2-8c0.1-0.3,0.3-0.5,0.5-0.8c0.2-0.2,0.3-0.5,0.4-0.7c-3.1-5.5-0.7-10.3,1.4-14.5l0.4-0.8
	c0.4-0.8,0.8-1.6,0.6-2.1c-1.7-4.7,0.4-8.4,2.2-11.6c0.5-0.8,0.9-1.6,1.3-2.4c0.6-1.2,1.2-2.4,1.8-3.6c2.3-4.3,4.4-8.4,4.7-13.3
	v-0.3c0.2-4.3,0.4-9.7,5.5-12.9c0.1-0.3,0.2-0.7,0.2-1c0-0.2,0.1-0.4,0.1-0.6c0.4-1.8,0.9-4.2,4.7-4.8c0.6,0,1.2-0.3,1.6-0.8
	c0.5-0.9,0.6-1.9,0.3-2.8c-0.1-0.4-0.2-0.7-0.3-1.1c-0.4-1.7-1-4,0.6-6.5c0.4-0.5,0.5-1.2,0.4-1.8c-0.3-0.7-1-1.3-1.7-1.6
	c-1.8-0.8-4.8-2.7-5.4-5.3c-0.4-1.5-0.8-3-1.4-4.4c-0.2-0.6-0.5-1.2-0.7-1.9c-0.3-0.7-0.8-1.4-1.3-2c-1-1.2-2.4-2.8-1.7-4.8
	c0.3-1.5,0.3-3,0-4.5c-0.3-2.1-0.6-4.5,0.6-6.9c0.6-1.3,1-2.8,1.2-4.2c0.2-0.9,0.4-1.8,0.6-2.7c0.8-3,1.2-5-0.6-6.8l-4.8-0.9l2.5-2
	c0.4-0.3,0.9-0.4,1.3-0.4c2.2-0.2,3.6-1.3,4.8-3.8c0.6-1.5,1.1-3.1,1.4-4.7c0.3-1.9,0.9-3.8,1.8-5.6c1.7-3,0.8-5-0.7-8.1
	c-1-2-2-4.6-0.8-7.7c0.3-0.8,0.3-1.7,0-2.4c-1.4-4.2-1-7.7,1-9.8c1.3-1.3,3.7-2.7,8.3-1.7c1-2.2,2.5-4.9,6.2-4.9h0.1
	c4.1,0,7.4,1.7,10.7,3.4c1.5,0.8,3,1.6,4.6,2.2c2.9,1,3.4,3.5,3.8,5.3c0.1,0.6,0.3,1.3,0.5,1.9c2.4,5.4,3.3,5.3,9.7,3.3L592,85
	c1.3-0.7,2.9-0.6,4.2,0.1c1.2,0.6,2.5,0.8,3.8,0.6c0.8-0.1,1.6-0.1,2.5,0c1.7,0.2,2.2-0.5,3.2-2.7c0.2-0.4,0.3-0.8,0.5-1.2
	c0.5-0.9,1.2-1.7,2-2.3c0.3-0.2,0.5-0.4,0.8-0.7c2.7-2.7,5.7-3.9,8.4-3.3s5,2.8,6.4,6.4c1.7,4.3,3.4,6.5,7.7,5.5
	c1-0.2,2-0.1,2.9,0.2c0.2,0,0.5,0.1,0.7,0.2c0.8,0.2,1.7,0.4,2.5,0.6c3.2,0.8,6,1.5,8.6-0.4c3-2.3,5.5-1.9,8.4-0.6
	c1.9,0.9,4.1,0.9,6.1,0c2.3-1.1,4-3.1,4.7-5.5c0.2-0.5,0.3-0.9,0.6-1.4c0.3-0.6,0.5-1.2,0.6-1.8l0.1-0.4c0.5-3,1-5.8-0.3-8.5
	l-1.1-2.2h3.3c0.6,0,1.2,0,1.8-0.1c1.5-0.2,3-0.1,4.5,0.2c0.5,0.1,1,0.2,1.5,0.3c3,0.6,7.2,1.3,7.6,7.4c0.2,2.2,1.3,4.5,2.5,6.9
	c0.6,1.2,1.3,2.5,1.8,3.8c0.4,1.1,1,1.9,1.5,2l3,0.7c4.8,1.1,9.7,2.3,14.5,1.8c2.6-0.3,5.2-0.8,7.8-1.4c4.4-1,9-2.1,13.9-1.5h0.1
	c1.2-1.1,2.5-2,3.9-2.8c2.6-1.6,4.8-2.9,5.5-5.8l0.1-0.3l1-2l1.2,0.4c3,0.9,5.3,2.7,7.5,4.5c0.4,0.3,0.7,0.6,1.1,0.9
	c6.3,4.9,7.2,8.9,3.8,16.3c-0.7,1.6-1.2,3.4-1.6,5.1c-0.5,2.8-1.6,5.6-3.2,8c-0.2,0.2-0.3,0.4-0.3,0.7c0.3,0.2,0.6,0.3,1,0.4
	c1.2,0.2,2.4,0.5,3.7,0.7c2.4,0.5,4.9,1,7.4,1.3c1.7,0.2,4,0.5,4.9,2.8l0.2,0.5l-0.2,0.5c-2.1,5.8-4.3,11.9-4,18.1
	c0.2,2.2-0.2,4.3-1.2,6.3c-2.3,4.2-3.1,7.6-2.8,11.2c0.2,1.8-0.2,3.6-1.1,5.1c-1.5,2.6-2.5,4.7-2.4,7.3c0.1,2.1-1.3,3.3-2.4,4.1
	c-0.8,0.7-1.3,1.1-1.4,1.7c-0.1,0.5,0,0.6,0.9,1.3c1.2,0.7,2,1.9,2.4,3.2c0.2,0.9,0.5,1.9,0.7,2.9c0.8,3.7,1.7,7.5,3.6,10.7l1.1,1.9
	l-2.7,0.4c-1.4,3-1,4.2,3.6,7.2c2.8,1.6,5.3,3.8,7.3,6.3c2.3,2.8,6.3,3.3,9.3,1.4l0.5-0.4c1.6-1.2,3.3-2.4,5.9-2.6
	c0.3,0,1.3-0.1,1.7-2.5s0.8-3.8,2-4.6s2.6-0.5,5.1,0.1l0.6,0.1c2.6,0.8,5.3,1,8,0.7c2.5-0.4,5.1,0.5,7.4,1.3l1,0.3
	c1.4,0.6,3,0.7,4.5,0.3c4.3-1.8,7.8-0.3,11,1.1c1.6,0.6,3.2,1.2,4.8,1.6c2.5,0.7,5,1.6,7.3,2.8c7.6,4.5,16.1,10.1,20.3,19.8
	c1.1,3.2,4,5.4,7.4,5.6c4.4,0.5,9.7,7.3,9.4,11.8c-0.2,1.3-0.8,2.4-1.8,3.2c-3.2,2.5-4.6,6-6.2,9.9l-0.5,1.3
	c-1.9,4.6-4.7,11.5-11.8,13.8c0.2,0.7,0.4,1.4,0.7,2.1c0.3,0.7,0.6,1.4,0.8,2.1l0.3,1.1l-0.9,0.6c-1.3,0.7-2.5,1.6-3.6,2.5
	c-0.1,0.1-0.1,0.4,0.1,1.5l0.2,1l-0.8,0.5l-1.3,0.7c-3.3,1.9-5.1,3.2-4.6,6.7c0.3,2-1.4,3-2.4,3.6c-0.4,0.2-0.8,0.5-1.1,0.8
	c-0.7,1.2-1.4,2.3-2.1,3.5l-0.4,0.7l0.2,0.3c0.6,0.8,1.2,1.5,1.8,2.3c1.2,1.3,1.3,3.3,0.4,4.8c-0.4,0.6-0.8,1.3-1.2,2
	c-1.6,2.8-3.6,6.2-8.4,6.4c-0.7,0-0.9,0.3-1.4,1.7c0.3,0.2,0.7,0.5,1,0.7c1.6,0.9,3,2.3,3.9,4c0.7,1.3,0.8,2.9,0.3,4.2
	c-0.6,1.1-1.7,1.9-3,2.1l-0.4,0.1c-0.6,0.1-1.2,0.3-1.8,0.6c-7.3,4.2-9.1,4.2-13.4-2.3c-0.2,0.1-0.3,0.2-0.4,0.4
	c-0.7,0.8-1.6,1.3-2.7,1.3c-1.5-0.1-2.7,1-2.8,2.4c0,0.1,0,0.3,0,0.4c-0.2,3,0,3.8,2,4c0.7,0.1,1.4,0.3,2,0.7l0.3,0.2l1.4,0.6
	l-0.6,1.4c-2.4,5.6-6.7,6.1-9.9,6.5c-1.9,0.2-3.5,1.3-4.3,2.9c-0.7,1.4-0.7,3,0,4.4h6.4l-5.8,2.9c-3.6,1.8-5.9,3.1-5.8,7.2
	c0,1.6-0.9,3.1-2.2,4c-1.7,1.3-3.9,1.7-5.9,1.1c-2.3-0.7-3.6,0.2-5.5,1.4l-0.5,0.4c-2.1,1.4-2.3,1.9-2.4,2s0.1,0.5,1.7,2
	c0.9,0.7,1.4,1.7,1.4,2.8c-0.1,1-0.7,2-1.6,2.5l-0.6,0.4c-2.3,1.7-5,3.5-8.8,3.3h-0.1c-1.2-0.3-2.1-1.2-2.5-2.4
	c-0.1-0.2-0.2-0.5-0.3-0.7c-0.1-0.1-0.2-0.2-0.3-0.4c-0.3,0.2-0.6,0.5-0.9,0.8c-1.7,1.8-3.7,3.5-5.8,4.9c-0.7,0.5-0.9,0.9-1.1,2
	c-0.3,1.9-2.1,4-4.7,5.6s-5.1,2.1-6.9,1.5c-1.9-0.6-3.4-2.2-4-4.1l-0.1,0.1c-1.1,0.9-3.2,2.5-5.8,0.2c-0.6-0.1-1.1,0-1.7,0.2
	c-2.9,3.4-6.3,2-8.6,1.1c-0.3-0.1-0.7-0.2-1-0.3c-1.8,4.5-5,7.7-8.1,10.7c-1.8,1.7-3.5,3.5-5.1,5.4l-0.1,2.9l-2.2-1.3
	c-4.8-2.8-7.7-7-10.6-11.2c-1.2-1.9-2.6-3.7-4-5.4l-0.3-0.4c-0.1-0.2-0.2-0.3-0.4-0.4h-0.1c-5.7,2.3-9.2,6.9-11.2,15.1
	c-0.5,2-2.5,4.1-5.3,5.8C677.8,412.5,675.6,413.2,673.3,413.4z M656,397.3c2.3,0,4.9,0.6,6.3,4.4c1.6,4.1,5.1,7,10.4,8.6
	c1.1,0.3,3.3-0.3,5.3-1.5s3.6-2.8,3.9-3.9c1.4-5.8,4.3-13.8,13.1-17.2l0.2-0.1c1.4-0.4,2.9,0.3,3.6,1.5l0.2,0.2
	c1.5,1.8,2.9,3.7,4.2,5.6c2.4,3.5,4.7,6.9,8,9.3c1.6-2,3.4-3.9,5.3-5.7c3.1-3,5.9-5.7,7.4-9.7c0.3-0.7,0.8-1.3,1.5-1.6
	c1.1-0.4,2.4-0.3,3.4,0.3c2.6,1.1,3.8,1.4,5.2-0.3c0.8-0.8,1.9-1.2,3.1-1.2c1-0.1,1.9,0.1,2.7,0.7c0.8,0.8,1,0.6,2.1-0.2
	c0.2-0.2,0.5-0.4,0.8-0.6l1.8-9.2l1.5,8.3c0.5,2.7,0.9,4.5,2.8,5.1c1,0.3,2.7-0.2,4.5-1.2s3.1-2.5,3.3-3.5c0.1-1.6,1-3.1,2.4-4
	c1.9-1.3,3.7-2.8,5.3-4.5c0.8-0.9,1.8-1.8,3.2-1.8c1,0.1,2,0.6,2.5,1.5c0.3,0.4,0.6,0.9,0.8,1.5c0.1,0.2,0.2,0.4,0.3,0.5
	c2.6,0.1,4.5-1.2,6.6-2.7l0.6-0.4c0.1-0.1,0.2-0.1,0.3-0.2c-0.1-0.2-0.2-0.3-0.4-0.4c-1.8-1.6-2.8-2.9-2.7-4.5s1.5-2.8,3.7-4.2
	l0.5-0.3c2.1-1.4,4.4-2.9,8.1-1.7c1.1,0.2,2.3,0,3.2-0.7c0.5-0.3,0.9-0.9,1-1.5c-0.1-5,2.7-7.3,5.5-8.9c-1-2.2-1-4.7,0.1-6.9
	c1.3-2.6,3.8-4.3,6.7-4.5c3.1-0.4,5.3-0.9,6.8-3.4c-5.1-0.5-4.9-4.9-4.7-7.2c0-3.1,2.4-5.6,5.5-5.6c0,0,0,0,0,0h0.2
	c0.2,0,0.3-0.1,0.7-0.5c0.4-0.4,0.8-0.7,1.3-1l1.3-2.7l1.4,2.3c1.9,3,3.2,5,4.3,5.3s3.1-0.8,6-2.5c0.8-0.5,1.7-0.8,2.7-0.9l0.3-0.1
	c0.4,0,0.7-0.2,1-0.5c0.1-0.6,0-1.2-0.3-1.7c-0.7-1.2-1.7-2.1-2.8-2.7c-0.7-0.5-1.4-1-2.1-1.6l-0.7-0.7l0.5-1.4
	c0.6-1.8,1.4-4.1,4.3-4.2s4.2-1.9,5.9-4.9c0.4-0.7,0.9-1.5,1.4-2.2c0.1-0.4,0-0.8-0.2-1.1c-0.7-0.8-1.3-1.6-1.9-2.4l-0.8-1l-0.6-0.8
	l1.5-2.5c0.7-1.2,1.4-2.4,2.2-3.6c0.5-0.8,1.3-1.4,2.1-1.8c0.3-0.2,0.6-0.4,0.9-0.6c-0.8-5.7,3-7.9,6-9.7l0.4-0.2
	c-0.2-2.5,0.6-3.3,4-5.4c-0.1-0.2-0.2-0.5-0.3-0.7c-0.7-1.4-1-2.9-1-4.4v-1.1l1.1-0.3c6-1.4,8.6-6.7,11-12.4l0.5-1.3
	c1.7-4.2,3.3-8.1,7.1-11.2c0.3-0.3,0.6-0.6,0.7-1c0.2-2.9-4-8.3-6.8-8.6c-4.4-0.3-8.2-3.2-9.8-7.3c-3.8-9-11.9-14.2-19.1-18.4
	c-2.1-1.1-4.3-1.9-6.6-2.5c-1.7-0.5-3.4-1.1-5.1-1.7c-3-1.3-5.6-2.4-8.7-1.1c-2.1,0.7-4.5,0.6-6.6-0.2l-1-0.3
	c-2.1-0.7-4.2-1.5-5.9-1.2c-3.1,0.4-6.2,0.2-9.2-0.7l-0.6-0.1c-0.9-0.3-1.8-0.4-2.8-0.5c-0.3,0.8-0.5,1.7-0.7,2.6
	c-0.8,4.1-3.2,4.9-4.5,4.9c-1.7,0.1-2.8,0.9-4.3,2l-0.5,0.4c-4.3,2.9-10.2,2.1-13.5-2c-1.8-2.2-4-4.1-6.5-5.6
	c-5.3-3.4-7.3-6-4.4-11.8l0.3-0.7c-1.3-3.1-2.3-6.4-2.9-9.7c-0.2-0.9-0.4-1.9-0.7-2.8c-0.2-0.6-0.6-0.9-1.3-1.5
	c-1.5-0.8-2.3-2.4-2.1-4.1c0.3-1.5,1.2-2.8,2.5-3.6c1-0.8,1.3-1.1,1.3-1.6c-0.2-3.7,1.3-6.6,2.8-9c0.5-1,0.8-2.2,0.7-3.3
	c-0.4-4.2,0.6-8.1,3.2-12.9c0.7-1.5,1-3.1,0.8-4.7c-0.3-6.6,1.8-12.7,4-18.6c-0.7-0.4-1.5-0.6-2.2-0.6c-2.6-0.3-5.1-0.8-7.6-1.4
	c-1.2-0.2-2.4-0.5-3.6-0.7c-2.1-0.4-3-1.4-3.3-2.2c-0.4-1.2-0.2-2.5,0.7-3.5c1.5-2,2.1-4.4,2.7-7c0.4-1.9,1-3.8,1.8-5.6
	c2.8-6.2,2.3-8.7-2.9-12.7l-1.1-0.9c-1.6-1.4-3.4-2.6-5.3-3.5c-1.2,3.7-4.1,5.4-6.6,7c-1.2,0.7-2.4,1.5-3.5,2.4
	c-0.7,0.6-1.6,0.9-2.5,0.8c-4.3-0.6-8.5,0.4-12.9,1.4c-2.7,0.7-5.4,1.2-8.2,1.5c-5.3,0.5-10.5-0.7-15.4-1.9l-2.9-0.7
	c-1.5-0.3-2.8-1.7-3.7-3.8c-0.5-1.2-1.1-2.3-1.7-3.6c-1.3-2.6-2.7-5.2-2.8-8c-0.3-3.8-2.1-4.1-5.2-4.6c-0.5-0.1-1.1-0.2-1.7-0.3
	c-1.2-0.2-2.5-0.2-3.7-0.1h-0.7c0.7,2.8,0.2,5.7-0.2,8.2l-0.1,0.4c-0.2,0.9-0.5,1.7-0.8,2.5c-0.2,0.4-0.3,0.8-0.5,1.2
	c-1,3.2-3.3,5.8-6.3,7.3c-2.7,1.2-5.8,1.2-8.5,0c-2.5-1.1-3.7-1-5.4,0.3c-3.7,2.8-7.7,1.8-11.2,0.9c-0.8-0.2-1.6-0.4-2.4-0.6
	l-0.8-0.2c-0.5-0.2-1-0.2-1.5-0.2c-6.7,1.5-9.4-2.9-11.2-7.4c-1-2.6-2.5-4.2-4.2-4.6s-3.7,0.5-5.7,2.5c-0.3,0.3-0.6,0.6-0.9,0.8
	c-0.5,0.4-0.9,0.8-1.3,1.3l-0.5,1c-0.9,2.1-2.1,4.9-6.2,4.5c-0.7-0.1-1.3-0.1-2,0c-1.9,0.3-3.8-0.1-5.5-1c-0.3-0.2-0.6-0.1-1.6,0.2
	l-0.6,0.2c-7.2,2.3-10,2.4-13.3-5c-0.3-0.8-0.6-1.6-0.7-2.5c-0.4-1.7-0.6-2.7-1.9-3.1c-1.7-0.7-3.4-1.5-5.1-2.4
	c-3.1-1.6-6-3.1-9.3-3.1l0,0c-1.9,0-2.6,1.3-3.7,3.6c-0.1,0.3-0.3,0.5-0.4,0.8l-0.6,1.1l-1.2-0.3c-3.1-0.8-5.5-0.6-6.6,0.6
	s-1.3,3.8-0.3,6.9c0.5,1.4,0.5,3,0,4.4c-0.6,1.5-0.4,3,0.7,5.2c1.4,2.8,3.2,6.4,0.7,10.9c-0.7,1.5-1.2,3.1-1.5,4.7
	c-0.3,1.9-0.8,3.7-1.6,5.4c-0.8,1.8-2.1,3.4-3.7,4.4c2.3,3,1.5,6.3,0.8,9c-0.2,0.8-0.4,1.6-0.5,2.4c-0.3,1.8-0.8,3.5-1.5,5.1
	c-0.8,1.6-0.6,3.3-0.3,5.2c0.4,1.9,0.4,3.9-0.1,5.8c-0.1,0.4,0.4,1.1,1.1,2c0.8,0.9,1.4,1.8,1.9,2.9c0.2,0.6,0.4,1.2,0.7,1.8
	c0.6,1.5,1.1,3.1,1.5,4.7c0.2,0.9,1.9,2.4,3.7,3.1c1.6,0.6,2.8,1.9,3.3,3.5c0.4,1.5,0.1,3.1-0.8,4.3c-0.8,1.3-0.6,2.4-0.2,4
	c0.1,0.4,0.2,0.9,0.3,1.3c0.4,1.8,0.1,3.6-0.8,5.1c-0.9,1.1-2.2,1.9-3.6,2c-1.6,0.2-1.8,0.7-2.2,2.4c0,0.2-0.1,0.3-0.1,0.5
	c-0.2,1-0.4,2.3-1.5,2.9c-3.8,2.4-4,6.5-4.2,10.6v0.3c-0.3,5.6-2.7,10.2-5,14.6c-0.6,1.1-1.2,2.3-1.8,3.5c-0.4,0.9-0.9,1.7-1.4,2.6
	c-1.7,3.1-3.2,5.7-2,9.1c0.6,1.7-0.2,3.2-0.8,4.4l-0.4,0.8c-2,4.1-3.8,7.6-1.5,11.7c0.7,1.3,0.5,2.9-0.5,4c-0.1,0.1-0.2,0.3-0.3,0.5
	c-1,1.9-1,3.4,0,4.8c0.9,1.2,1.5,2.6,2,4c0.5,1.5,1.3,2.9,2.3,4.1c1,1.1,1.7,2.3,2.1,3.7c0.3,1,0.8,2,1.4,2.8c0.8,1,1,2.4,0.5,3.6
	c-0.6,1.4-2,2.2-3.5,2.3c-2,0.1-4,0.5-5.9,0.8s-3.7,0.6-5.6,0.8c-1.7,0.2-2.6,0.4-3.2,1.2c-2.5,3.1-5.3,14.8-4.5,18.9l0.1,0.5
	l-0.2,0.5c-0.9,1.5-2.5,2.5-4.2,2.5c-0.4,0-0.8,0.1-1.2,0.3c-0.6,0.2-1.2,0.2-1.8,0.1h-0.2c-1.9,2.6-4.7,3.6-7.2,4.4
	c-1.8,0.5-3.5,1.3-5,2.5c1.4,3,1.7,6,0.9,8.3c-1.5,4-1.5,8.1,0,13.7c0.2,0.8,0.5,1.6,0.9,2.3c0.8,1.8,1.5,3.6,1.1,5.5
	c-0.2,0.7-0.5,1.3-0.9,1.9c-0.6,1-0.7,1.3-0.4,1.7l0.6,1c0.9,1.4,1.6,2.6,2.9,3.1c2.4,0.9,4.6,1.9,6.8,3.2c4.5,2.4,8.6,4.6,13.8,3.7
	c1.1-0.1,2.1,0.2,3,0.8c0.2,0.1,0.5,0.3,0.8,0.4l1.2,0.5l-0.3,1.3c-0.1,0.6-0.3,1.2-0.4,1.8c-0.3,1.2-0.6,2.5-0.8,3.7v0.1
	c-0.2,1.4-0.4,3.9-3.1,4.1c-1.9,0.2-2.3,1.1-2.9,3.1c-0.1,0.3-0.2,0.5-0.3,0.8l2.1,1.7c3.8-0.8,13.6-0.2,16,1.2l1.3,0.7l-0.7,1.3
	c-3.7,7-1.4,13.7,0.9,20.7c0.4,1,0.7,2.1,1.1,3.2l8.8-2c2.3-0.6,3.3-0.9,4.3-2.6c0.3-0.4,0.5-0.8,0.8-1.3c1.4-2.4,3.5-6.1,8.4-4.7
	l0,0c0.2-0.1,0.3-0.3,0.5-0.4c2.8-2,5.3-0.9,7.4,0l0.5,0.2c1.9,0.9,3.7,2,5.4,3.4c1.8,1.4,3.7,2.5,5.8,3.3c1.5-2.7,1.8-5.9,1.2-10
	c-0.6-3.3-0.2-5.6,1-7.1c1.3-1.8,2.3-3.8,2.7-6c0.2-0.7,0.5-1.5,0.7-2.2c0.1-0.2,0.1-0.4,0.2-0.6c0.4-1.8,1.5-3.3,3.1-4.2l0.6-0.3
	l0.7,0.3c0.6,0.3,1.2,0.5,1.9,0.8c2.5,1,5.4,2.1,7.3,5c2.9,4.8,6.7,9,11.2,12.3c6.1,4.3,12.9,8.3,21.2,7.5h0.2
	c1.2-0.3,2.4,0.2,3,1.3c0.6,0.8,1.4,1.5,2.4,1.8c1.7,0.9,4,2.1,4.3,5.2c0.4,0.2,0.9,0.3,1.3,0.4c2.7,0.5,5.5,0.6,8.2,0.2
	c1-0.1,1.9-0.2,2.9-0.3l0.8,0C654.8,397.3,655.4,397.3,656,397.3z"/>
<path class="st4" d="M579.1,260.8v10h-3.2v-10h-3.8v-2.5h10.8v2.6L579.1,260.8z"/>
<path class="st4" d="M593.6,267.2h-2.5v3.5h-3.2v-12.5h5.6c1.4-0.1,2.8,0.3,3.9,1.1c0.9,0.8,1.4,2,1.4,3.3c0,0.9-0.2,1.7-0.6,2.5
	c-0.4,0.7-1,1.2-1.7,1.6l2.6,4.2h-3.7L593.6,267.2z M593.5,264.7c0.6,0,1.2-0.1,1.6-0.5c0.4-0.4,0.6-1,0.6-1.5
	c0-0.6-0.2-1.1-0.6-1.5c-0.5-0.4-1-0.5-1.6-0.5h-2.4v4L593.5,264.7z"/>
<path class="st4" d="M607.4,268.5l-0.9,2.3h-3.3l5.4-12.6h3.3l5.3,12.6h-3.4l-0.9-2.3L607.4,268.5z M610.2,261.4l-1.8,4.6h3.6
	L610.2,261.4z M611,257.1h-2.4l1.9-3l2.8,1L611,257.1z"/>
<path class="st4" d="M629.5,258.4c0.8,0.2,1.6,0.6,2.3,1l-1.2,2.5c-0.7-0.4-1.4-0.7-2.1-1c-0.6-0.2-1.3-0.3-1.9-0.4
	c-0.3,0-0.7,0.1-1,0.2c-0.2,0.1-0.4,0.4-0.4,0.7c0,0.4,0.2,0.8,0.6,0.9c0.6,0.3,1.2,0.5,1.8,0.7c0.7,0.2,1.5,0.5,2.2,0.8
	c0.6,0.3,1.1,0.6,1.5,1.1c0.4,0.6,0.6,1.3,0.6,2c0,0.8-0.2,1.5-0.7,2.1c-0.5,0.6-1.1,1.1-1.8,1.3c-0.8,0.3-1.7,0.5-2.6,0.4
	c-1.1,0-2.1-0.2-3.1-0.5c-1-0.3-1.9-0.8-2.7-1.5l1.2-2.5c0.7,0.6,1.4,1,2.3,1.4c0.7,0.3,1.5,0.5,2.3,0.5c0.4,0,0.8-0.1,1.2-0.3
	c0.3-0.2,0.5-0.5,0.4-0.8c0-0.4-0.2-0.8-0.6-0.9c-0.6-0.3-1.2-0.5-1.9-0.7c-0.7-0.2-1.4-0.4-2.1-0.7c-0.6-0.2-1.1-0.6-1.4-1.1
	c-0.4-0.6-0.6-1.2-0.6-1.9c0-0.7,0.2-1.4,0.6-2c0.5-0.6,1.1-1.1,1.8-1.3c0.8-0.3,1.7-0.5,2.6-0.5C627.7,258,628.6,258.2,629.5,258.4
	z"/>
<path class="st4" d="M636.8,266.2v-2h4.7v2H636.8z"/>
<path class="st4" d="M656.9,258.9c3.1,1.7,4.2,5.5,2.6,8.6c-0.6,1.1-1.5,2-2.6,2.6c-2.2,1.1-4.8,1.1-7,0c-1-0.5-1.9-1.3-2.4-2.3
	c-1.2-2-1.2-4.5,0-6.6c0.6-1,1.4-1.8,2.4-2.3C652.1,257.8,654.7,257.8,656.9,258.9L656.9,258.9z M651.7,261.2
	c-0.5,0.3-1,0.8-1.3,1.3c-0.7,1.2-0.7,2.6,0,3.8c0.6,1.1,1.8,1.9,3.1,1.9c0.6,0,1.2-0.2,1.8-0.5c0.5-0.3,1-0.8,1.3-1.4
	c0.3-0.6,0.5-1.2,0.5-1.9c0-0.7-0.2-1.3-0.5-1.9c-0.3-0.6-0.7-1-1.3-1.3c-0.5-0.3-1.1-0.5-1.8-0.5
	C652.8,260.7,652.2,260.9,651.7,261.2z"/>
<path class="st4" d="M673,258.4c0.8,0.2,1.6,0.6,2.3,1l-1.2,2.5c-0.7-0.4-1.4-0.7-2.1-1c-0.6-0.2-1.3-0.3-1.9-0.4
	c-0.3,0-0.7,0.1-1,0.2c-0.2,0.1-0.4,0.4-0.4,0.7c0,0.4,0.2,0.8,0.6,0.9c0.6,0.3,1.2,0.5,1.8,0.7c0.7,0.2,1.5,0.5,2.2,0.8
	c0.6,0.3,1.1,0.6,1.5,1.1c0.4,0.6,0.6,1.3,0.6,2c0,0.8-0.2,1.5-0.7,2.1c-0.5,0.6-1.1,1.1-1.8,1.3c-0.8,0.3-1.7,0.5-2.6,0.4
	c-1.1,0-2.1-0.2-3.1-0.5c-1-0.3-1.9-0.8-2.7-1.5l1.2-2.5c0.7,0.6,1.4,1,2.3,1.4c0.7,0.3,1.5,0.5,2.3,0.5c0.4,0,0.8-0.1,1.2-0.3
	c0.3-0.2,0.5-0.5,0.4-0.8c0-0.4-0.2-0.8-0.6-0.9c-0.6-0.3-1.2-0.5-1.9-0.7c-0.7-0.2-1.4-0.4-2.1-0.7c-0.6-0.2-1.1-0.6-1.4-1.1
	c-0.4-0.6-0.6-1.2-0.6-1.9c0-0.7,0.2-1.4,0.6-2c0.5-0.6,1.1-1.1,1.8-1.3c0.8-0.3,1.7-0.5,2.6-0.5C671.3,258,672.2,258.2,673,258.4z"
	/>
<path class="st4" d="M680.5,266.2v-2h4.7v2H680.5z"/>
<path class="st4" d="M702,270.8v-8.2l-3,6.9h-2.1l-3-6.9v8.2h-2.9v-12.6h3.5l3.4,7.5l3.5-7.5h3.5v12.6L702,270.8z"/>
<path class="st4" d="M720.5,258.9c1,0.5,1.9,1.3,2.5,2.3c0.6,1,0.9,2.1,0.9,3.3c0,2.3-1.3,4.5-3.3,5.6c-2.2,1.1-4.8,1.1-7,0
	c-1-0.5-1.9-1.3-2.5-2.3c-1.8-3-0.9-6.8,2.1-8.6c0.1-0.1,0.2-0.1,0.4-0.2C715.7,257.8,718.3,257.8,720.5,258.9L720.5,258.9z
	 M715.2,261.2c-0.5,0.3-1,0.8-1.3,1.3c-0.6,1.2-0.6,2.6,0,3.8c0.3,0.6,0.8,1,1.3,1.4c0.5,0.3,1.1,0.5,1.8,0.5c0.6,0,1.2-0.2,1.8-0.5
	c0.5-0.3,1-0.8,1.3-1.4c0.3-0.6,0.5-1.2,0.5-1.9c0-0.7-0.2-1.3-0.5-1.9c-0.3-0.5-0.7-1-1.3-1.3c-0.5-0.3-1.1-0.5-1.8-0.5
	C716.4,260.7,715.8,260.9,715.2,261.2z"/>
<path class="st4" d="M737.9,270.8l-5.8-7.8v7.8h-3v-12.6h2.8l5.8,7.8v-7.8h3v12.6L737.9,270.8z"/>
<path class="st4" d="M752.7,260.8v10h-3.2v-10h-3.8v-2.5h10.8v2.6L752.7,260.8z"/>
<path class="st4" d="M764.6,260.7v2.5h6v2.5h-6v2.5h6.8v2.5h-10v-12.6h9.9v2.5L764.6,260.7z"/>
<path class="st4" d="M784.7,258.4c0.8,0.2,1.6,0.6,2.3,1l-1.2,2.5c-0.7-0.4-1.4-0.7-2.1-1c-0.6-0.2-1.3-0.3-1.9-0.4
	c-0.3,0-0.7,0.1-1,0.2c-0.2,0.1-0.4,0.4-0.4,0.7c0,0.4,0.2,0.8,0.6,0.9c0.6,0.3,1.2,0.5,1.8,0.7c0.7,0.2,1.5,0.5,2.2,0.8
	c0.6,0.3,1.1,0.6,1.5,1.1c0.4,0.6,0.6,1.3,0.6,2c0,0.8-0.2,1.5-0.7,2.1c-0.5,0.6-1.1,1.1-1.8,1.3c-0.8,0.3-1.7,0.5-2.6,0.4
	c-1.1,0-2.1-0.2-3.1-0.5c-1-0.3-1.9-0.8-2.7-1.5l1.3-2.5c0.7,0.6,1.4,1,2.3,1.4c0.7,0.3,1.5,0.5,2.3,0.5c0.4,0,0.8-0.1,1.2-0.3
	c0.3-0.2,0.5-0.5,0.4-0.8c0-0.4-0.2-0.8-0.6-0.9c-0.6-0.3-1.2-0.5-1.9-0.7c-0.7-0.2-1.4-0.4-2.1-0.7c-0.6-0.2-1.1-0.6-1.5-1.1
	c-0.4-0.6-0.6-1.2-0.6-1.9c0-0.7,0.2-1.4,0.6-2c0.5-0.6,1.1-1.1,1.8-1.3c0.8-0.3,1.7-0.5,2.6-0.5C782.9,258,783.8,258.2,784.7,258.4
	z"/>
<path class="st4" d="M459.5,431.6c1.1,0.6,2,1.4,2.6,2.5c0.6,1.1,1,2.4,0.9,3.6c0,1.3-0.3,2.5-1,3.6c-0.6,1.1-1.6,1.9-2.7,2.5
	c-1.2,0.6-2.6,0.9-4,0.9h-5.9v-14h6C456.9,430.7,458.3,431,459.5,431.6z M453.1,441.9h2.5c0.7,0,1.3-0.2,1.9-0.5
	c0.6-0.4,1-0.9,1.3-1.5c0.3-0.7,0.5-1.4,0.5-2.2c0-0.8-0.2-1.5-0.5-2.2c-0.3-0.6-0.8-1.1-1.4-1.5c-0.6-0.4-1.3-0.5-2-0.5h-2.4
	L453.1,441.9z"/>
<path class="st4" d="M479.1,431.6c1.1,0.6,2.1,1.5,2.7,2.5c0.7,1.1,1,2.3,1,3.6c0,2.6-1.4,5-3.7,6.2c-2.4,1.2-5.3,1.2-7.7,0
	c-1.1-0.6-2.1-1.5-2.7-2.6c-0.7-1.1-1-2.4-1-3.7c0-1.3,0.3-2.5,1-3.6c0.7-1.1,1.6-1.9,2.7-2.5c1.2-0.6,2.5-0.9,3.9-0.9
	C476.6,430.6,478,431,479.1,431.6z M473.3,434.2c-0.6,0.4-1.1,0.9-1.5,1.5c-0.4,0.6-0.5,1.4-0.5,2.1c0,0.7,0.2,1.5,0.5,2.1
	c0.3,0.6,0.8,1.1,1.5,1.5c0.6,0.4,1.3,0.6,2,0.5c0.7,0,1.4-0.2,2-0.5c0.6-0.4,1.1-0.9,1.4-1.5c0.4-0.7,0.5-1.4,0.5-2.1
	c0-0.7-0.2-1.5-0.5-2.1c-0.3-0.6-0.8-1.1-1.4-1.5c-0.6-0.4-1.3-0.6-2-0.5C474.6,433.6,473.9,433.8,473.3,434.2z"/>
<path class="st4" d="M500.6,442.1c-0.5,0.9-1.3,1.6-2.2,2.1c-2.2,1-4.6,1-6.8,0c-0.9-0.5-1.7-1.2-2.3-2.1c-0.5-1-0.8-2.1-0.8-3.2
	v-8.1h3.5v8.1c0,0.8,0.3,1.6,0.8,2.2c0.6,0.6,1.3,0.9,2.1,0.8c0.8,0,1.5-0.3,2.1-0.8c0.5-0.6,0.8-1.4,0.8-2.2v-8.1h3.5v8.1
	C501.4,440,501.1,441.1,500.6,442.1z"/>
<path class="st4" d="M514.3,440.8h-2.8v3.9h-3.6v-14h6.3c1.5-0.1,3.1,0.4,4.3,1.3c1,0.9,1.6,2.2,1.5,3.6c0,1-0.2,1.9-0.7,2.7
	c-0.4,0.8-1.1,1.4-1.9,1.8l2.9,4.6h-4L514.3,440.8z M514.1,438c0.7,0,1.3-0.2,1.8-0.6c0.4-0.4,0.7-1.1,0.6-1.7
	c0.1-0.6-0.2-1.2-0.6-1.6c-0.5-0.4-1.2-0.6-1.8-0.6h-2.7v4.5H514.1z"/>
<path class="st4" d="M536.9,431.6c1.1,0.6,2.1,1.5,2.7,2.5c0.7,1.1,1,2.3,1,3.6c0,1.3-0.3,2.6-1,3.7c-0.7,1.1-1.6,2-2.7,2.6
	c-2.4,1.3-5.3,1.3-7.7,0c-1.1-0.6-2.1-1.5-2.7-2.6c-0.7-1.1-1-2.4-1-3.7c0-1.3,0.3-2.5,1-3.6c0.7-1.1,1.6-2,2.7-2.5
	C531.6,430.3,534.4,430.3,536.9,431.6L536.9,431.6z M531.1,434.2c-0.6,0.4-1.1,0.9-1.5,1.5c-0.4,0.6-0.5,1.4-0.5,2.1
	c0,0.7,0.2,1.5,0.5,2.1c0.3,0.6,0.8,1.1,1.5,1.5c1.2,0.7,2.7,0.7,3.9,0c0.6-0.4,1.1-0.9,1.4-1.5c0.7-1.3,0.7-2.9,0-4.2
	c-0.3-0.6-0.8-1.1-1.4-1.5C533.8,433.5,532.3,433.5,531.1,434.2L531.1,434.2z"/>
<path id="word" class="st4" d="M35.3,136.2l-1,2.6h-3.7l6-14h3.7l5.9,14h-3.7l-1-2.6H35.3z M38.4,128.4l-2,5.2h4L38.4,128.4z
	 M61,135.8v3h-9.5v-14h3.6v11H61z M73.2,127.6v11.1h-3.6v-11.1h-4.2v-2.9h12v2.9H73.2z M92.7,125.6c1.1,0.6,2.1,1.5,2.7,2.6
	c0.7,1.1,1,2.3,1,3.6c0,2.6-1.4,5-3.7,6.2c-2.4,1.2-5.3,1.2-7.7,0c-1.1-0.6-2.1-1.5-2.7-2.6c-0.7-1.1-1-2.4-1-3.7
	c0-1.3,0.3-2.5,1-3.6c0.7-1.1,1.6-1.9,2.7-2.5C87.4,124.3,90.3,124.3,92.7,125.6L92.7,125.6z M86.9,128.2c-0.6,0.4-1.1,0.9-1.4,1.5
	c-0.4,0.6-0.5,1.4-0.5,2.1c0,0.7,0.2,1.5,0.5,2.1c0.3,0.6,0.8,1.1,1.4,1.5c0.6,0.4,1.3,0.6,2,0.6c0.7,0,1.4-0.2,2-0.6
	c0.6-0.4,1.1-0.9,1.4-1.5c0.4-0.7,0.5-1.4,0.5-2.1c0-0.7-0.2-1.5-0.5-2.1c-0.3-0.6-0.8-1.1-1.4-1.5c-0.6-0.4-1.3-0.6-2-0.5
	C88.2,127.6,87.5,127.8,86.9,128.2z M123.2,138.8v-9.1l-3.4,7.7h-2.3l-3.4-7.7v9.1h-3.2v-14h3.9l3.8,8.3l3.8-8.3h3.9v14H123.2z
	 M133.1,138.8v-14h3.6v14H133.1z M153.3,138.8l-6.4-8.6v8.6h-3.3v-14h3.1l6.4,8.6v-8.6h3.3v14H153.3z M172.6,138.8v-5.4h-5.8v5.4
	h-3.6v-14h3.6v5.8h5.8v-5.8h3.6v14H172.6z M193.4,125.6c1.1,0.6,2.1,1.5,2.7,2.6c0.7,1.1,1,2.3,1,3.6c0,1.3-0.3,2.6-1,3.7
	c-0.7,1.1-1.6,2-2.7,2.6c-2.4,1.2-5.3,1.2-7.7,0c-1.1-0.6-2.1-1.5-2.7-2.6c-0.7-1.1-1-2.4-1-3.7c0-1.3,0.3-2.5,1-3.6
	c0.7-1.1,1.6-1.9,2.7-2.5C188.1,124.3,191,124.3,193.4,125.6L193.4,125.6z M187.6,128.2c-0.6,0.4-1.1,0.9-1.4,1.5
	c-0.4,0.6-0.5,1.4-0.5,2.1c0,0.7,0.2,1.5,0.5,2.1c0.3,0.6,0.8,1.1,1.4,1.5c0.6,0.4,1.3,0.6,2,0.6c0.7,0,1.4-0.2,2-0.6
	c0.6-0.4,1.1-0.9,1.4-1.5c0.4-0.7,0.5-1.4,0.5-2.1c0-0.7-0.2-1.5-0.5-2.1c-0.3-0.6-0.8-1.1-1.4-1.5c-0.6-0.4-1.3-0.6-2-0.5
	C188.9,127.6,188.2,127.8,187.6,128.2z"/>
<path class="st4" d="M62.1,254.6c0.9,0.4,1.7,0.9,2.3,1.6l-1.8,2.2c-0.4-0.5-0.9-0.9-1.5-1.2c-0.5-0.3-1.1-0.4-1.7-0.5
	c-0.6,0-1.2,0.2-1.8,0.5c-0.5,0.3-1,0.8-1.3,1.3c-0.3,0.6-0.5,1.2-0.4,1.9c0,0.7,0.1,1.3,0.4,1.9c0.3,0.5,0.7,1,1.3,1.3
	c0.5,0.3,1.2,0.5,1.8,0.5c0.6,0,1.1-0.1,1.7-0.4c0.6-0.3,1.1-0.6,1.5-1.1l1.9,2c-0.7,0.7-1.5,1.2-2.4,1.6c-2,0.9-4.3,0.8-6.2-0.2
	c-1-0.5-1.8-1.3-2.4-2.3c-0.6-1-0.9-2.1-0.9-3.3c0-1.1,0.3-2.2,0.9-3.2c0.6-1,1.4-1.8,2.4-2.3c1.1-0.6,2.2-0.9,3.4-0.8
	C60.3,254.1,61.2,254.3,62.1,254.6z"/>
<path class="st4" d="M72.2,264.4l-0.9,2.3H68l5.5-12.6h3.3l5.3,12.6h-3.5l-0.9-2.3H72.2z M75,257.4l-1.8,4.7h3.6L75,257.4z
	 M75.8,253.1h-2.4l1.9-3l2.8,1L75.8,253.1z"/>
<path class="st4" d="M89.5,266.8l-4.9-12.6H88l3.2,9.3l3.2-9.3h3.3l-4.9,12.6H89.5z"/>
<path class="st4" d="M104.5,264.4l-0.9,2.3h-3.3l5.4-12.6h3.3l5.3,12.6h-3.4l-0.9-2.3H104.5z M107.2,257.4l-1.8,4.7h3.6L107.2,257.4
	z"/>
<path class="st4" d="M127.9,255c1,0.5,1.8,1.3,2.4,2.2c1.1,2,1.1,4.5,0,6.5c-0.6,1-1.4,1.7-2.4,2.2c-1.1,0.5-2.3,0.8-3.6,0.8H119
	v-12.6h5.4C125.7,254.2,126.8,254.4,127.9,255z M122.2,264.2h2.3c0.6,0,1.2-0.2,1.7-0.5c0.5-0.3,0.9-0.8,1.2-1.3
	c0.6-1.2,0.6-2.7,0-3.9c-0.6-1.1-1.8-1.8-3.1-1.8h-2.1V264.2z"/>
<path class="st4" d="M145.6,254.9c1,0.5,1.9,1.3,2.4,2.3c1.8,3,0.8,7-2.3,8.8c-0.1,0-0.1,0.1-0.2,0.1c-1.1,0.6-2.3,0.9-3.5,0.8
	c-1.2,0-2.4-0.3-3.5-0.8c-1-0.5-1.9-1.3-2.4-2.3c-0.6-1-0.9-2.1-0.9-3.3c0-1.2,0.3-2.3,0.9-3.3c0.6-1,1.4-1.8,2.4-2.3
	C140.9,253.8,143.4,253.8,145.6,254.9L145.6,254.9z M140.4,257.2c-0.5,0.3-1,0.8-1.3,1.3c-0.7,1.2-0.7,2.6,0,3.8
	c0.3,0.6,0.8,1,1.3,1.4c0.5,0.3,1.1,0.5,1.8,0.5c0.6,0,1.2-0.2,1.8-0.5c0.5-0.3,1-0.8,1.3-1.4c0.3-0.6,0.5-1.2,0.5-1.9
	c0-0.7-0.2-1.3-0.5-1.9c-0.3-0.5-0.7-1-1.3-1.3c-0.5-0.3-1.1-0.5-1.8-0.5C141.6,256.8,140.9,256.9,140.4,257.2z"/>
<path class="st4" d="M227.2,269.4l-0.9,2.3H223l5.4-12.6h3.3l5.3,12.6h-3.4l-0.9-2.3H227.2z M230,262.4l-1.8,4.7h3.6L230,262.4z"/>
<path class="st4" d="M244.4,271.8l-4.9-12.6h3.4l3.2,9.3l3.2-9.3h3.3l-5,12.6H244.4z"/>
<path class="st4" d="M260.7,261.7v2.5h6v2.5h-6v2.5h6.9v2.5h-10.1v-12.6h9.9v2.5L260.7,261.7z"/>
<path class="st4" d="M401.7,205.6l-1,2.6h-3.7l6-14h3.7l5.9,14h-3.8l-1-2.6H401.7z M404.8,197.7l-2,5.2h4L404.8,197.7z"/>
<path class="st4" d="M427.5,205.2v3H418v-14h3.5v11H427.5z"/>
<path class="st4" d="M439.6,197v11.1H436V197h-4.2v-2.9h12v2.9H439.6z"/>
<path class="st4" d="M459.1,194.9c1.1,0.6,2.1,1.5,2.7,2.6c0.7,1.1,1,2.3,1,3.6c0,2.6-1.4,5-3.7,6.2c-2.4,1.2-5.3,1.2-7.7,0
	c-2.3-1.2-3.7-3.6-3.7-6.2c0-1.3,0.3-2.5,1-3.6c0.7-1.1,1.6-2,2.7-2.5C453.8,193.7,456.7,193.7,459.1,194.9L459.1,194.9z
	 M453.3,197.5c-0.6,0.4-1.1,0.9-1.5,1.5c-0.4,0.6-0.5,1.4-0.5,2.1c0,0.7,0.2,1.5,0.5,2.1c0.3,0.6,0.8,1.1,1.5,1.5
	c0.6,0.4,1.3,0.5,2,0.5c0.7,0,1.4-0.2,2-0.5c0.6-0.4,1.1-0.9,1.4-1.5c0.7-1.3,0.7-2.9,0-4.2c-0.3-0.6-0.8-1.1-1.4-1.5
	c-0.6-0.4-1.3-0.6-2-0.6C454.6,197,453.9,197.2,453.3,197.5z"/>
<path class="st4" d="M384.1,221v11.1h-3.6V221h-4.2v-2.9h12v2.9H384.1z"/>
<path class="st4" d="M395.5,229.6l-1,2.6h-3.7l6-14h3.7l5.9,14h-3.8l-1-2.6H395.5z M399.7,216.7l-1.2-1.7l-1.1,1.7h-2.5l2.3-3h2.8
	l2.3,3H399.7z M398.5,221.7l-2,5.2h4L398.5,221.7z"/>
<path class="st4" d="M424,232.1V223l-3.4,7.7h-2.3l-3.4-7.7v9.1h-3.2v-14h3.9l3.8,8.3l3.8-8.3h3.9v14H424z"/>
<path class="st4" d="M437.5,220.9v2.8h6.7v2.8h-6.7v2.8h7.6v2.8h-11.2v-14h11v2.8L437.5,220.9z"/>
<path class="st4" d="M463.8,225v5.5c-1.7,1.1-3.8,1.8-5.8,1.8c-1.3,0-2.6-0.3-3.8-0.9c-2.3-1.2-3.7-3.6-3.7-6.2c0-1.3,0.3-2.5,1-3.6
	c0.7-1.1,1.6-2,2.8-2.6c1.2-0.6,2.6-1,4-0.9c1.1,0,2.1,0.2,3.1,0.6c1,0.3,1.8,0.8,2.6,1.5l-2,2.4c-0.5-0.5-1.1-0.8-1.8-1.1
	c-0.6-0.3-1.3-0.4-2-0.4c-1.5,0-2.8,0.7-3.5,2c-0.4,0.6-0.5,1.4-0.5,2.1c0,0.7,0.2,1.5,0.5,2.1c0.4,0.6,0.9,1.1,1.5,1.5
	c0.6,0.4,1.4,0.5,2.1,0.5c0.4,0,0.8-0.1,1.2-0.2c0.4-0.1,0.9-0.3,1.3-0.5V225L463.8,225z"/>
<path class="st4" d="M473.5,229.6l-1,2.6h-3.7l6-14h3.7l5.9,14h-3.8l-1-2.6H473.5z M476.5,221.7l-2,5.2h4L476.5,221.7z"/>
<path class="st4" d="M85.1,411.3c0.9,0.8,1.4,2,1.3,3.3c0.1,1.3-0.4,2.5-1.3,3.4c-1,0.9-2.4,1.3-3.8,1.2H79v3.5h-3.2v-12.6h5.5
	C82.7,410.1,84,410.5,85.1,411.3z M79.1,416.7h2.1c0.6,0,1.2-0.2,1.6-0.5c0.4-0.4,0.6-0.9,0.6-1.5c0-0.6-0.2-1.1-0.6-1.5
	c-0.5-0.4-1-0.5-1.6-0.5H79L79.1,416.7z"/>
<path class="st4" d="M101.1,410.9c1,0.5,1.8,1.3,2.4,2.3c0.6,1,0.9,2.1,0.9,3.3c0,1.2-0.3,2.3-0.9,3.3c-0.6,1-1.4,1.8-2.4,2.3
	c-1.1,0.6-2.3,0.9-3.5,0.8c-1.2,0-2.4-0.3-3.5-0.8c-2.1-1.1-3.4-3.3-3.3-5.6c0-1.2,0.3-2.3,0.9-3.3c0.6-1,1.4-1.8,2.4-2.3
	C96.4,409.8,99,409.8,101.1,410.9L101.1,410.9z M95.9,413.2c-0.5,0.3-1,0.8-1.3,1.3c-0.6,1.2-0.6,2.6,0,3.8c0.3,0.6,0.8,1,1.3,1.4
	c0.5,0.3,1.1,0.5,1.8,0.5c0.6,0,1.2-0.2,1.8-0.5c0.5-0.3,1-0.8,1.3-1.4c0.6-1.2,0.6-2.6,0-3.8c-0.3-0.5-0.7-1-1.2-1.3
	c-0.5-0.3-1.1-0.5-1.8-0.5C97.1,412.7,96.4,412.9,95.9,413.2z"/>
<path class="st4" d="M115.5,419.2H113v3.5h-3.2v-12.6h5.6c1.4-0.1,2.8,0.3,3.9,1.1c0.9,0.8,1.4,2,1.4,3.3c0,0.9-0.2,1.7-0.6,2.5
	c-0.4,0.7-1,1.2-1.7,1.6l2.6,4.2h-3.6L115.5,419.2z M115.4,416.7c0.6,0,1.2-0.1,1.6-0.5c0.4-0.4,0.6-0.9,0.6-1.5
	c0-0.6-0.2-1.1-0.6-1.5c-0.5-0.4-1-0.5-1.6-0.5h-2.4v4L115.4,416.7z"/>
<path class="st4" d="M132.2,412.7v10H129v-10h-3.8v-2.6H136v2.6H132.2z"/>
<path class="st4" d="M149.8,410.9c1,0.5,1.9,1.3,2.4,2.3c1.8,3,0.8,7-2.3,8.8c-0.1,0-0.1,0.1-0.2,0.1c-2.2,1.1-4.8,1.1-7,0
	c-2.1-1.1-3.4-3.3-3.3-5.6c0-1.2,0.3-2.3,0.9-3.3c0.6-1,1.4-1.8,2.4-2.3C145,409.8,147.6,409.8,149.8,410.9L149.8,410.9z
	 M144.6,413.2c-0.5,0.3-1,0.8-1.3,1.3c-0.7,1.2-0.7,2.6,0,3.8c0.3,0.6,0.8,1,1.3,1.4c0.5,0.3,1.1,0.5,1.8,0.5c0.6,0,1.2-0.2,1.8-0.5
	c0.5-0.3,1-0.8,1.3-1.4c0.3-0.6,0.5-1.2,0.5-1.9c0-0.7-0.2-1.3-0.5-1.9c-0.3-0.5-0.7-1-1.3-1.3c-0.5-0.3-1.1-0.5-1.8-0.5
	C145.7,412.8,145.1,412.9,144.6,413.2z"/>
<path class="st4" d="M202.7,438.6v10h-3.2v-10h-3.8V436h10.8v2.6H202.7z"/>
<path class="st4" d="M213,446.3l-0.9,2.3h-3.3l5.4-12.6h3.3l5.3,12.6h-3.4l-0.9-2.3H213z M216.8,434.7l-1-1.5l-1,1.5h-2.2l2-2.7h2.5
	l2,2.7H216.8z M215.8,439.2l-1.8,4.7h3.6L215.8,439.2z"/>
<path class="st4" d="M238.6,448.6v-8.2l-3,6.9h-2.1l-3-6.9v8.2h-2.9V436h3.5l3.4,7.5l3.4-7.5h3.5v12.6H238.6z"/>
<path class="st4" d="M250.8,438.5v2.5h6v2.5h-6v2.5h6.9v2.5h-10.1V436h9.9v2.5L250.8,438.5z"/>
<path class="st4" d="M274.5,442.2v4.9c-1.6,1-3.4,1.6-5.2,1.6c-1.2,0-2.4-0.3-3.4-0.9c-1-0.5-1.8-1.3-2.4-2.3
	c-0.6-1-0.9-2.1-0.9-3.3c0-1.2,0.3-2.3,0.9-3.3c0.6-1,1.5-1.8,2.5-2.3c1.1-0.6,2.3-0.9,3.5-0.8c1,0,1.9,0.2,2.8,0.5
	c0.9,0.3,1.7,0.8,2.4,1.4l-1.8,2.2c-0.5-0.4-1-0.8-1.6-1c-0.6-0.2-1.2-0.4-1.8-0.4c-0.7,0-1.3,0.2-1.9,0.5c-0.6,0.3-1,0.8-1.3,1.3
	c-0.3,0.6-0.5,1.2-0.5,1.9c0,0.7,0.2,1.3,0.5,1.9c0.3,0.6,0.8,1,1.3,1.3c0.6,0.3,1.2,0.5,1.9,0.5c0.4,0,0.7-0.1,1.1-0.2
	c0.4-0.1,0.8-0.3,1.2-0.4v-3.3H274.5z"/>
<path class="st4" d="M283.1,446.3l-0.9,2.3h-3.3l5.4-12.6h3.3l5.3,12.6h-3.4l-0.9-2.3H283.1z M285.9,439.2l-1.8,4.7h3.6L285.9,439.2
	z"/>
<path class="st4" d="M197.2,460.1v2.5h6v2.5h-6v2.5h6.9v2.5H194v-12.6h9.9v2.5L197.2,460.1z"/>
<path class="st4" d="M225,457.8c0.8,0.2,1.6,0.6,2.3,1l-1.2,2.5c-0.7-0.4-1.4-0.7-2.1-0.9c-0.6-0.2-1.3-0.3-1.9-0.4
	c-0.3,0-0.7,0.1-1,0.2c-0.2,0.1-0.4,0.4-0.4,0.7c0,0.4,0.2,0.7,0.6,0.9c0.6,0.3,1.2,0.5,1.8,0.7c0.7,0.2,1.5,0.5,2.2,0.8
	c0.6,0.3,1.1,0.6,1.5,1.1c0.4,0.6,0.7,1.3,0.6,2c0,0.8-0.2,1.5-0.7,2.1c-0.5,0.6-1.1,1.1-1.8,1.3c-0.8,0.3-1.7,0.5-2.6,0.4
	c-1.1,0-2.1-0.2-3.1-0.5c-1-0.3-1.9-0.8-2.7-1.5l1.2-2.5c0.7,0.6,1.4,1,2.3,1.4c0.7,0.3,1.5,0.5,2.3,0.5c0.4,0,0.8-0.1,1.2-0.3
	c0.3-0.2,0.5-0.5,0.4-0.8c0-0.4-0.2-0.8-0.6-0.9c-0.6-0.3-1.2-0.5-1.9-0.7c-0.7-0.2-1.4-0.4-2.1-0.7c-0.6-0.2-1.1-0.6-1.4-1.1
	c-0.4-0.6-0.6-1.2-0.6-1.9c0-0.7,0.2-1.4,0.6-2c0.5-0.6,1.1-1.1,1.8-1.3c0.8-0.3,1.7-0.5,2.6-0.5C223.2,457.4,224.1,457.6,225,457.8
	z"/>
<path class="st4" d="M242.1,458.3c1,0.5,1.8,1.3,2.4,2.3c0.6,1,0.9,2.1,0.9,3.3c0,2.3-1.3,4.5-3.3,5.6c-2.2,1.1-4.8,1.1-6.9,0
	c-2.1-1.1-3.4-3.3-3.3-5.6c0-1.2,0.3-2.3,0.9-3.3c0.6-1,1.4-1.8,2.4-2.3C237.4,457.2,240,457.2,242.1,458.3L242.1,458.3z
	 M236.9,460.7c-0.6,0.3-1,0.8-1.3,1.3c-0.3,0.6-0.5,1.2-0.5,1.9c0,0.7,0.2,1.3,0.5,1.9c0.3,0.6,0.8,1,1.3,1.4
	c0.5,0.3,1.1,0.5,1.8,0.5c0.6,0,1.2-0.2,1.8-0.5c0.5-0.3,1-0.8,1.3-1.4c0.3-0.6,0.5-1.3,0.5-1.9c0-0.7-0.2-1.3-0.5-1.9
	c-0.3-0.6-0.7-1-1.3-1.3c-0.5-0.3-1.1-0.5-1.8-0.5C238.1,460.2,237.5,460.4,236.9,460.7z"/>
<path class="st4" d="M261.4,467.8c-0.5,0.8-1.2,1.5-2,1.9c-0.9,0.5-2,0.7-3,0.7c-1.1,0-2.1-0.2-3.1-0.7c-0.8-0.4-1.5-1.1-2-1.9
	c-0.5-0.9-0.7-1.9-0.7-2.9v-7.3h3.2v7.3c0,0.7,0.2,1.5,0.7,2c0.5,0.5,1.2,0.8,1.9,0.8c0.7,0,1.4-0.2,1.8-0.7c0.5-0.5,0.7-1.3,0.7-2
	v-7.3h3.2v7.3C262.2,465.9,261.9,466.9,261.4,467.8z"/>
<path class="st4" d="M275.5,457.8c0.8,0.2,1.6,0.6,2.3,1l-1.2,2.5c-0.7-0.4-1.4-0.7-2.1-0.9c-0.6-0.2-1.3-0.3-1.9-0.4
	c-0.3,0-0.7,0.1-1,0.2c-0.2,0.1-0.4,0.4-0.4,0.7c0,0.4,0.2,0.7,0.6,0.9c0.6,0.3,1.2,0.5,1.8,0.7c0.7,0.2,1.5,0.5,2.2,0.8
	c0.6,0.3,1.1,0.6,1.5,1.1c0.4,0.6,0.7,1.3,0.6,2c0,0.8-0.2,1.5-0.7,2.1c-0.5,0.6-1.1,1.1-1.8,1.3c-0.8,0.3-1.7,0.5-2.6,0.4
	c-1.1,0-2.1-0.2-3.1-0.5c-1-0.3-1.9-0.8-2.7-1.5l1.2-2.5c0.7,0.6,1.4,1,2.3,1.4c0.7,0.3,1.5,0.5,2.3,0.5c0.4,0,0.8-0.1,1.2-0.3
	c0.3-0.2,0.5-0.5,0.4-0.8c0-0.4-0.2-0.8-0.6-0.9c-0.6-0.3-1.2-0.5-1.9-0.7c-0.7-0.2-1.4-0.4-2.1-0.7c-0.5-0.2-1-0.6-1.4-1
	c-0.4-0.6-0.6-1.2-0.6-1.9c0-0.7,0.2-1.4,0.6-2c0.5-0.6,1.1-1.1,1.8-1.3c0.8-0.3,1.7-0.5,2.6-0.5
	C273.8,457.5,274.6,457.6,275.5,457.8z"/>
<path class="st4" d="M286,467.9l-0.9,2.3h-3.3l5.4-12.6h3.3l5.4,12.6h-3.4l-0.9-2.3L286,467.9z M288.8,460.8l-1.8,4.7h3.6
	L288.8,460.8z"/>
</svg>
