<svg id="Camada_1" data-name="Camada 1" xmlns="http://www.w3.org/2000/svg" viewBox="0 0 900 630"><defs><style>.cls-1{fill:#66b4c3;stroke:#66b4c3;}.cls-1,.cls-2,.cls-4{stroke-miterlimit:10;}.cls-1,.cls-2,.cls-3,.cls-4{stroke-width:3px;}.cls-2{fill:#7fc0cd;stroke:#7fc0cd;}.cls-3{fill:#b2d9e1;stroke:#b2d9e1;stroke-linecap:round;stroke-linejoin:round;}.cls-4{fill:#99cdd7;stroke:#99cdd7;}.cls-5{fill:#fff;}</style></defs><title>Mapa Norte Portugal</title><path class="cls-1" d="M468.67,297c4.65,10-1.93,16.58-7,23.61-1.13-.38-2.28-.4-2.79-1-2.72-3.1-5.05-2.56-7.32.47a4,4,0,0,1-3.84,1.69c-4.46-.54-6.67,1.6-8.72,5.49-2.38,4.49-4.69,9.2-8.37,12.94-1.22,1.23-2.59,2.59-4.26,2a4.59,4.59,0,0,1-3.4-4.6c.16-2.39-1.34-3.12-3.7-4.05l-7.06,7.06a117.19,117.19,0,0,0-26.1-10.29c-.83,1-1.71,2-2.52,3-3.85,4.87-5.78,5.23-10.67,1.66a3.24,3.24,0,0,0-3-.75c-3.4,1.28-6.56-.59-9.85-.51-1.88,0-2.7-.75-3.21-2.92-.41-1.74-1.13-4.05-3.2-5.19-4.13-2.3-7.37-7.48-13.33-3.52a3.25,3.25,0,0,1-4.58-1.62c-1.65-4.14-5.54-6.67-7.16-10.52-.09-2,2.43-3.15,1.87-4.82-1-3,.8-5,1.81-7.31.41-.95,1.18-1.76.88-3-.5-2.11.4-2.83,2.55-2.61,1.4.14,2.85-.4,4.27-.34,2.8.11,4.18-.91,3.88-3.89-.15-1.55.4-2.21,2-3.63,2-1.77,5.63-5.85,6.55-8.34s-.6-4,2.56-4.34c2.59-.26,6.16-5.79,5-8-1.73-3.41-2.3-7.39-5-10.32-1.51-1.64-2.77-3.5-4.32-5.1s-3-1.39-3.81.84c-.91,2.52-2.92,4.16-4.71,6s-3.85,3.86-6.87,1.75a1.72,1.72,0,0,0-1.65,0c-3.62,3.3-7,1.3-10.25-.54-1.48-.85-2.85-.73-4.32-.78-2.7-.08-5.51.52-7.32-2.54-1.31-2.21-3.52-1.37-5.51-.89-4.76,1.14-5.71.19-6.92-4.68a21.93,21.93,0,0,1,.49-13.71,3.56,3.56,0,0,0,.4-2.11c-1.08-3.18.59-5.12,2.55-7.34,3.09-3.51,2.22-6.24-2.07-8.07-3.59-1.54-8-1.37-10.43-5.46-.37-.61-3-1.33-4.56.31-3,3.16-6.64,2.73-10.21,1.23a3,3,0,0,0-2.14-.3c-3.25,1.73-6.71,1.88-10.22,2.22l-.27-.57a5.15,5.15,0,0,1,3.43-5.09c4.9-2.17,6.51-6.15,7.38-11.13.78-4.46.93-9.5,5.44-12.41a3.15,3.15,0,0,0,1.2-3.84c-.74-2.59-.27-5.16-.29-7.72a6.66,6.66,0,0,1,2.51-5.54c4.46-3.36,2.18-4.11,1.28-8.14a5.6,5.6,0,0,1,.3-2.5c1.25-3,4.25-3.86,7.61-3.63.9.06,2.89.41,3.43-1.56,1.1-4,3.72-7.18,6.38-10.28a2.94,2.94,0,0,0,.84-1.28c.89-6.26,6.13-6.44,11.13-5.09a7.81,7.81,0,0,0,4.76-.31c4.9-1.56,7.14-4.62,8.23-9.53.72-3.28,1.87-6.45,1.54-9.86-.26-2.65.8-3.73,3.44-3.44,1.52.17,3-.25,4.33,1.25s.51,2.86,0,4.34a8.74,8.74,0,0,0-.31,3.81c1.11,6.68.24,13.18-1.23,19.88l5.14,2.81.39.45c1-2.38,3.08-4.06,6.25-4.65,2.24-.41,3.62-.72,3.47-3.5-.28-5.12-.12-5.21,5.07-5.11,7.67.14,15.12-.26,20.51-6.87a2,2,0,0,1,2.2-.81c4.73,3.66,5.92,3.39,11.13-.37,2.47-1.78,5.1-4.63,8.93-2.26a83.39,83.39,0,0,1,8.8,6.64c4.84,4,9.36,6,15.09,2.72a1.89,1.89,0,0,1,2.15.12c1.93,1,3.81,1.61,6,.85,1.18-.41,2.17.38,3.53,1.74-4.86,2.9-5.64,8.36-8.23,12.77-.91,1.56-.77,3.36-.94,5.11s.51,2.46,1.76,2.08c5.62-1.71,11.49.79,17.17-1.54,5.44-2.23,11.73-2.65,15.61-8a6,6,0,0,0-.71-1.46c-1.76-1.9-1.77-3.66.46-5.13,2-1.34,4.66-2.53,5.82.47,1,2.59,2.95,2,3.93,1.51,2.06-1,4.05-.5,6.06-.72,2.61-.29,3.83,1.35,3.32,3.4-1.12,4.45,1,6.92,4.36,9,1.22.76,2.78,1.32,2.18,3.41s.12,4.32.83,6.4v1.71c4-2.91,8-5.7,9.87-10.67,1.67-4.45,5.65-6.25,9.65-8,2.45,4.11,2.45,4.1,7,3.24,1-.19,2.11-.66,3-.38,6.54,2.17,10.95-3.62,16.69-4.33,6.05-6.74,16.05-4.77,22.67-10.26.08-.07.28,0,.42,0l1.65.43c3.7,3.45,1.36,7.39.77,11.11a17.69,17.69,0,0,1-1.36,4.63c-1.85,3.78.67,7.48-.53,11.25-.67,2.09,2.26,3.62,3,5.86a52.32,52.32,0,0,1,2.16,6.44c.36,1.68,2.68,3.41,4.52,4.21,3,1.32,3.25,3.65,2,5.59-1.6,2.37-.47,4.54-.11,6.47.58,3.17-.72,5.08-3.2,5.42s-3,1.69-3.41,3.58c-.19.88-.29,2.14-.88,2.51-4.59,2.84-4.71,7.78-4.9,12-.31,6.74-3.92,11.9-6.65,17.5-2,4.11-5.28,7.73-3.42,12.87.41,1.12-.24,2.31-.79,3.41-2.15,4.35-4.57,8.68-1.74,13.69.67,1.19-.4,2.08-.88,3-1.2,2.2-1.39,4.45.09,6.4,1.93,2.53,2,5.92,4.54,8.28,1.66,1.55,1.7,4.43,3.4,6.41.73.85.71,3.15-2,3.37-3.87.31-7.69,1.22-11.56,1.58-1.71.16-3.16.38-4.27,1.77-2.81,3.53-5.61,15.7-4.78,20.11-1.09,2.07-3.08,1.5-4.63,2.11-.8.32-1.91-.5-2.55.46-3,4.44-9.05,3.5-12.41,7.26l-.16,1.05c-1.74-3.55-4.91-6.57-7.95-6.43s-4.73-.68-5.51-3.2a7.25,7.25,0,0,1,3.36-8.1c3.93-2.12,4.11-2.61.81-5.51-2-1.8-3.48-3.8-3.32-6.46.25-4.17-2.32-5.74-5.78-7.08-4.43,6.78-7.35,15.64-18.22,13.49"/><path class="cls-2" d="M38.48,249.15c1.41.9,2.91-.66,4.28-1.27,2.18-1,4.48-2.15,6.82-1.62s3.88.13,4.73-2.23c.62-1.7,1.9-2.56,3.37-1.25,3,2.65,4.12.53,5.15-1.76,1.57-3.5,3.93-4.35,7.29-2.56,1.1-.89,1.36-3,3-2.92,5.31.37,11.1-2.71,15.44,2.56a6.4,6.4,0,0,0,1.23-4.77c-.08-1.92,1.13-3,2.84-4.25,2.8,4.4,8,5,11.55,8.35a8.36,8.36,0,0,0,1.43-.69c5.05-3.94,6.45-3.9,8.4,1.78,1.2,3.54,3.44,3.19,5.7,2.82a7.22,7.22,0,0,0,3.66-1.68c.42-5.66,4-11-1.39-14.74a11.56,11.56,0,0,1,1.62-2.25c2.18-1.66,3.27-4.68,6.39-5.16,1.31-6.06,3.4-12,1.85-18.1l7.15-7.15c3.09-.15,1.48,3.34,3,4.73a3.3,3.3,0,0,0,1.71.43c3,0,6.43-.6,8-3.49a11.48,11.48,0,0,1,4.92-4.46c3.48-1.92,6.3-5.29,11-5,4,.25,8.13-.21,10.41-4.21,1.64.25,2.37,1.34,3.27,2.19a4.85,4.85,0,0,0,5.08,1.18c3.64-1.59,7-1.3,10.76-.42,2.65.63,5-.07,5.22-3.75.1-1.58.3-3.6,1.87-4.59,2.82.52,4.05,3.3,6.62,4.37,2.89-1.6,6.34-3.09,8.21-5.17,2.13-2.37,5.28-.66,6.71-3.16,2-3.5,5.61-5.23,8.52-7.72,2.26-1.94,4.54-1.74,6.85-.39s3.35,1.32,4.46-1.67-.11-5.72.53-8.64a24.76,24.76,0,0,0-3-18.83c-2.31.43-4.72.91-7.17.07l-1.06,0c-.86-3.19-1.4-6.37-4.41-8.65-2.11-1.6-1.88-6.56-.06-9.3,3.56-5.38,6.08-11.35,10.93-16,2.3-2.21,4.6-5.44,4.87-9.22.16-2.14,1.34-3,3.41-3.48a7,7,0,0,0,5.65-5.48C256,79.05,258,78.17,260.8,78c7.28-.45,10.69-3,11.37-9.31.43-3.88-.54-8.08-1.64-11.92-1.18-4.11-2.65-8.4-7.57-9.91A11,11,0,0,1,260.34,45c-2.77,1.76-5.48,3.11-9,2-2.51-.77-4.4,1.13-5.93,2.92-1.18,1.39-2.86,2.77-4.26,2.39-2.46-.68-2.25-3.22-2.2-5.4.17-6.55-.22-13-2.52-19.26a2.6,2.6,0,0,1,0-2.09c3.19-4,1-7-1.73-9.89L234.3,17c-1.43,3.19-5.22,3.48-7.39,5.87-.47.52-2.4.28-3.78-.66-3.9-2.66-5.81-1.8-6.73,2.92-.48,2.44-1.34,4-3.86,2.48-1.45-.87-2.22,0-3,.56a32.42,32.42,0,0,0-3.88,3.37c-2.33,2.16-4.08,5-8.15,4.44-1.4-.2-2.85,1.17-3.16,3.65-.47,3.83-1.4,6-6.24,3.91-6.06-2.57-6.1-2.45-10.68,2.53-1.47,1.6-3.1,2.48-5.12.86a4.16,4.16,0,0,0-5.52,0c-3.12,2.46-5.89,3.3-8.62-.45-.47-.65-1-1.46-2.11-1.32-5.68.64-11.59-1.36-17.09,1.33a5,5,0,0,1-4.21.27c-2.6-1.5-4.06-.2-5.64,1.41,1,5.06-1.12,8.3-6.85,8.83-4.49.42-9.13,2.49-13.75-.59-2.06-1.36-4.73.65-7.17.91a14.82,14.82,0,0,0-10.52,6c-2.44,3.08-4.51,5.57-4,9.6.7,6.15-4,8.39-8.09,11.13-5.09,3.41-11.39,4.23-16.31,8.06-3.08,2.4-5.7,4.23-4,9.11.84,2.47-.88,5.75-3.6,7.63s-5.09,3.77-7.72,5.52c-2.43,1.61-5.39,2-8.13,2.46s-4.79,1.6-5.87,3.6C29.77,126.56,26,132,20.13,135.89c-.95.64-2.28,2.51-2.05,2.86,3,4.41-.73,7.54-1.75,11.23a11.22,11.22,0,0,0,2.12,9.76c1.34,1.81,1.22,3.28-.09,4.73-1.45,1.6-1.69,2.91-1,5.21a12.23,12.23,0,0,1-.65,8.5c-3.06,6.41-1.42,12.58.81,18.82a194.72,194.72,0,0,0,8.19,18.79,4.46,4.46,0,0,0,.83,1.29c4.2,3.36,5.84,2.54,5.49,7.7-.56,8.14,1,15.85,5.25,22.63A6.66,6.66,0,0,0,38.48,249.15Z"/><path class="cls-3" d="M261.67,213.66a5.15,5.15,0,0,1,3.43-5.09c4.9-2.17,6.51-6.15,7.38-11.13.78-4.46.93-9.5,5.45-12.41a3.16,3.16,0,0,0,1.2-3.84c-.75-2.59-.28-5.16-.3-7.72a6.66,6.66,0,0,1,2.51-5.54c4.46-3.36,3.48-4.64,1.28-8.14l-.44-.83c-2.89,1.85-6.77,1.54-9.9,2.78-2.76,1.09-6.29,2-9.34-.22a.87.87,0,0,0-.83,0c-5.14,3.62-9-.65-13.28-2.14a5.67,5.67,0,0,0-1.7,0l-1.54,1.77c-1.11,3-2.16,3-4.46,1.67s-4.59-1.55-6.85.39c-2.91,2.49-6.52,4.22-8.52,7.72-1.43,2.5-4.58.79-6.71,3.16-1.87,2.08-5.32,3.57-8.21,5.17-2.57-1.07-3.8-3.85-6.62-4.37-1.57,1-1.77,3-1.87,4.59-.25,3.68-2.57,4.38-5.22,3.75-3.71-.88-7.12-1.17-10.76.42a4.85,4.85,0,0,1-5.08-1.18c-.9-.85-1.63-1.94-3.27-2.19-2.28,4-6.43,4.46-10.41,4.21-4.73-.29-7.55,3.08-11,5a11.48,11.48,0,0,0-4.92,4.46c-1.57,2.89-5,3.45-8,3.49A3.3,3.3,0,0,1,142,197c-1.49-1.39.12-4.88-3-4.73l-7.15,7.15c1.55,6.06-.54,12-1.85,18.1-3.12.48-4.21,3.5-6.39,5.16a11.56,11.56,0,0,0-1.62,2.25c5.43,3.74,1.81,9.08,1.39,14.74a7.22,7.22,0,0,1-3.66,1.68c-2.26.37-4.5.72-5.7-2.82-2-5.68-3.35-5.72-8.4-1.78a8.36,8.36,0,0,1-1.43.69c-3.51-3.32-8.75-4-11.55-8.35-1.71,1.3-2.92,2.33-2.84,4.25a6.4,6.4,0,0,1-1.23,4.77c-4.34-5.27-10.13-2.19-15.44-2.56-1.63-.11-1.89,2-3,2.92-3.36-1.79-5.72-.94-7.29,2.56-1,2.29-2.18,4.41-5.15,1.76-1.47-1.31-2.75-.45-3.37,1.25-.85,2.36-2.29,2.78-4.73,2.23s-4.64.65-6.82,1.62c-1.37.61-2.64,1.57-4.28,1.27l-.54.31c.28,2-.4,4.09-.14,6.14.69,5.66,3,10.92,3.44,16.63.07,1,.54,2.26.65,3.43Q43,286.77,44,297.9C44.32,301,47,303,47.55,306a13.88,13.88,0,0,1,.22,3h1.4c5.32.75,11,.8,13.2,7.31,5.17-2.71,7.16.43,8.78,3.63,3,1,4.37-2.65,7.57-1.68,5.06,1.54,7.67,4.92,8.84,9.57.65,2.58,1.8,4,4.36,3.75,1.46-.15,2.06,1,3,1.26l1.9.1c.53-2.1,2.27-3.26,3.64-4.7,3.66-3.82,5.63-4.15,9.34-.78,1.78,1.62,3.05,1.09,4.78.38,3.52-1.45,4.09-5.07,6.07-7.65s1.88-4.24-.43-6.59l-1.8-3.75c2.56-.59,4.17-3.61,7.8-1.95,1.92.87,4.27-2.78,7.16-2.33a2.06,2.06,0,0,0,.43,0c6-.4,11.44.65,15.75,5.78,3.33-4.45,5.92-1.6,8.49.32,3.3-2.92,7.94-4.24,9.15-9.08.15-.59,1-.72,1.65-.92,3.65-1.07,4.13-5.16,3.56-7.13-1.17-4.08.2-6.59,2.39-9.53,3.78-5,13.5-7.38,19.12-4.09,1.51-1.3,2.88-2.83,5.27-3.29,2.73-.53,5.4-6.36,3.78-7.38-3.19-2-4.37-5.43-6.85-7.74-1.36-1.26-3.86-1.35-5.88-1.81-3.1-.72-2.82-3.66-1.58-4.55,2.81-2,2-4.41,1.48-6.56-.8-3-.45-5.09,2.68-6a3.64,3.64,0,0,0,3-4.31c-.23-2.68,1-4.21,3.35-5.67,3-1.88,6.36-2,9.51-2.69,2.3-.51,4.57-1.72,7.25-1.14a107.49,107.49,0,0,0,11.1,1.37c6.15.68,10.41-1.87,12.82-7.69,1.09-2.63,3.66-5.25,5.56-5.28,5.75-.08,10.59-3.13,15.86-3.8"/><path class="cls-4" d="M96.84,333c.53-2.1,2.27-3.26,3.64-4.7,3.66-3.82,5.63-4.15,9.34-.78,1.78,1.62,3.05,1.09,4.78.38,3.52-1.45,4.09-5.07,6.07-7.65s1.88-4.24-.43-6.59c-.91-.92-1.4-2.31-2.23-3.26l.43-.49c2.56-.59,4.17-3.61,7.8-1.95,1.92.87,4.27-2.78,7.16-2.33a2.06,2.06,0,0,0,.43,0c6-.4,11.44.65,15.75,5.78,3.33-4.45,5.92-1.6,8.49.32,3.3-2.92,7.94-4.24,9.15-9.08.15-.59,1-.72,1.65-.92,3.65-1.07,4.13-5.16,3.56-7.13-1.17-4.08.2-6.59,2.39-9.53,3.78-5,13.5-7.38,19.12-4.09,1.51-1.3,2.88-2.83,5.27-3.29,2.73-.53,5.4-6.36,3.78-7.38-3.19-2-4.37-5.43-6.85-7.74-1.36-1.26-3.86-1.35-5.88-1.81-3.1-.72-2.82-3.66-1.58-4.55,2.81-2,2-4.41,1.48-6.56-.8-3-.45-5.09,2.68-6a3.64,3.64,0,0,0,3-4.31c-.23-2.68,1-4.21,3.35-5.67,3-1.88,6.36-2,9.51-2.69,2.3-.51,4.57-1.72,7.25-1.14a107.49,107.49,0,0,0,11.1,1.37c6.15.68,10.41-1.87,12.82-7.69,1.09-2.63,3.66-5.25,5.56-5.28,5.75-.08,10.59-3.13,15.86-3.8,4.11-.53,8.17-.39,12-2.41a3,3,0,0,1,2.14.3c3.57,1.5,7.2,1.93,10.21-1.23,1.55-1.64,4.19-.92,4.56-.31,2.43,4.09,6.84,3.92,10.43,5.46,4.29,1.83,5.16,4.56,2.07,8.07-2,2.22-3.63,4.16-2.55,7.34a3.56,3.56,0,0,1-.4,2.11,21.93,21.93,0,0,0-.49,13.71c1.21,4.87,2.16,5.82,6.92,4.68,2-.48,4.2-1.32,5.51.89,1.81,3.06,4.62,2.46,7.32,2.54,1.47.05,2.84-.07,4.32.78,3.22,1.84,6.63,3.84,10.25.54a1.72,1.72,0,0,1,1.65,0c3,2.11,4.94.2,6.87-1.75s3.8-3.46,4.71-6c.81-2.23,2.24-2.47,3.81-.84s2.81,3.46,4.32,5.1c2.72,2.93,3.29,6.91,5,10.32,1.12,2.22-2.45,7.75-5,8-3.16.31-4,1.57-3,4.12l-6.15,8.56c-1.57,1.42-2.13,2.08-2,3.63.3,3-1.08,4-3.88,3.89-1.42-.06-2.87.48-4.27.34-2.15-.22-3.05.5-2.55,2.61.3,1.23-.47,2-.88,3-1,2.33-2.84,4.29-1.82,7.31.57,1.67-1.95,2.81-1.86,4.82,1.62,3.85,5.51,6.38,7.16,10.52a3.25,3.25,0,0,0,4.58,1.62c6-4,9.19,1.22,13.33,3.52,2.07,1.14,2.79,3.45,3.2,5.19.51,2.17,1.33,3,3.2,2.92,2.3-.06,4.53.83,6.82.95l.45.79c-.27,3.56-3.14,5.63-5.64,6.63-3.91,1.56-4.53,4.62-4,7.44a14.73,14.73,0,0,1-2.54,11c-2.88,4.29-5.39,9.62-11.74,10.48-3.45.47-5.76,3.93-9.42,4.21-.87,2.77-3,4.57-5,6.52l-.56-.53c-3.85-4.34-7.77-8.36-14.1-9.09-3-.35-3.78-3.08-2.14-5.87a27.17,27.17,0,0,1,2.13-3c2.19-2.76,1.7-4.67-1.73-6-1.41-.53-3.74-.23-3.7-2.16.05-2.29-1.47-4.56-.13-6.85,1.05-1.8,1.38-3.56-.43-5.12-.72-.62-1.06-1.43-.4-2.12,3.42-3.62,2.14-10.07,7.64-12.49a8.43,8.43,0,0,0,3-2.95c1.44-2.08,0-5-2.05-6.46-4.75-3.36-10.35-4.78-15.55-7-3.51-1.48-2.77-5.23-5.29-6.56-6,2.21-11.06-1-17.07-2.1-2.5,1.41-3.12,3.61-2.49,7.17.83,4.68-2.46,7.74-6.3,9.74-2.32,1.21-3.39,2.67-2.94,5.2.5,2.83-2.34,3.39-3.42,5.2,2,3.72.23,7.42-.59,11-.33,1.4-1,2.76-1.2,4.31-.58,3.9-4.5,5.47-8.06,3.44-1.11-.64-2.29-1.64-3.42-1.62-2.37,0-2.87-1.22-3-3.1-.2-2.95-.88-5.53-4.7-5.11a2.1,2.1,0,0,1-2.09-1.33c-.64-1.08-.63-2.95-2.19-2.89-3.2.13-6.27-1-9.4-.84-1.73.08-1.92,1.78-1.72,3.33.4,3.22-1.05,5-4.26,4.21-3.39-.78-4.82,2.08-6.24,3.65-1.26,1.39-2.32,1.91-3.49,1.83l.31.57c-.44,2.26-2.15,3.48-4,4.81,1.46,2.82-.46,5.56-.44,8.45,0,1.93-5.53,3.86-7.49,2.48-3.76-2.63-8-5.23-8.12-10.61a10,10,0,0,0-1.09-3.25l-.68-.17c-2.05-.43-3.56.55-5.16,1.68-3.06,2.16-5.94,5.12-10.32,2.3-.7-.46-2.48.73-3.85,1.18-2.83-2.71-.36-4.71.94-6.87l.86-.42c-4.91-1.72-4.92-1.73-8.55,2.14-1.17,1.25-2.05,3.06-3.48,3.72-2.06,1-4.92,3.23-6.69.07-3-5.26-6.86-3.17-10.78-2.08a11.74,11.74,0,0,1-2.57.81c-5.53.12-9.45,2.13-10.31,8.16-.07.48-.83,1.25-1.23,1.22-2.71-.14-5.38,3.49-8.18.11-.29-.35-1.53-.31-2.06,0-2.54,1.48-5.22.54-7.71.27-3.76-.4-7.34-.74-10.37,1.46-3.94-4.27-2.3-10-4.58-14.62-1.3-2.63.17-4,2.5-5.19s5.63-.3,6.63-3.94c-1.81-1.63-2-5.72-4.83-5.15-2.2.44-3.6-.57-5.07-1.34"/><path class="cls-2" d="M469,298c10.87,2.15,13.79-6.72,18.22-13.49,3.46,1.34,6,2.91,5.78,7.08-.16,2.65,1.28,4.66,3.32,6.45,3.3,2.9,3.12,3.4-.81,5.51a7.26,7.26,0,0,0-3.36,8.11c.78,2.51,2.45,3.34,5.51,3.2,5.22-.25,10.84,8.86,8.93,13.91s-1.41,9.62-.09,14.58c.65,2.47,2.48,4.88,2,7.19-.3,1.51-2.26,2.8-1,4.74s2.07,3.94,4.27,4.69c7.07,2.43,13,8.38,21.38,6.94.92-.16,2,.69,3,1a56.22,56.22,0,0,0-1.22,5.73c-.16,1.36-.26,2.8-1.77,2.94-3.88.33-3.73,3.57-4.85,5.87l3.59,2.91c2.44-1,13.42-.4,15.65.83-4.79,9.21-.29,17.69,2.29,26.36l9.94-2.2c2.51-.72,4.09-1.08,5.53-3.31,1.82-2.81,3.15-6.91,8.06-5.23.3.1.85-.51,1.27-.81,2.26-1.61,4.28-.51,6.42.4,4.38,1.86,7.53,5.92,12.48,7,2.51-3.74,2.63-7.94,1.93-12-.37-2.19-.44-4.55.68-5.89,2.19-2.62,2.68-5.71,3.72-8.67.5-1.45.78-3,2.55-3.95,3,1.33,6.51,2.06,8.56,5.24a45.75,45.75,0,0,0,11.61,12.73c6.55,4.66,13.6,8.55,22.17,7.81.57-.05,1.34-.33,1.7.41,1.41,3,6.5,2.39,6.52,6.84,0,.74,1.36,1.1,2.44,1.38,3.91,1,7.71.18,11.57,0,2.9-.17,5.83-.86,7.42,3.31,1.9,5,6.18,8,11.39,9.48,3.22.94,10.29-3.06,11.12-6.44,1.77-7.22,4.94-13.36,12.21-16.19,1.33-.34,1.78.63,2.31,1.25,4.61,5.49,7.49,12.47,14.11,16.26a2.5,2.5,0,0,1,.78,3.29c-2.09,1.94-1.86,4.9-3.38,6.9-4.84,6.36-11.57,11-16.2,17.57-.4.55-1.12.64-1.67.93-2.16,1.17-4.24,2.56-5,4.68-.37,1.21.36,1.54.7,2.1,3.27,5.54,6.84,11.1,0,16.67l-3.49,7.23c-1.13,2.22-2.5,4.31-3.79,6.45-1.49,2.47-4.66,3.19-5.15,7.21-.33,2.67-5.6,3.38-9,4.34-7.77,2.22-15.07.15-22.21-2.63-2.49-1-4.33-1.36-6.51.84-2.48,2.52-9.21,2.65-11.86.45-1.51-1.25-2.58-1.78-4.35-.43s-3.13,2.92-2,5.14c.56,1.11,1.14,1.9.35,3-1.88,2.69-2.45,5.77-3.11,9-1.1,5.21-5.55,7.17-10.16,8.53a8.82,8.82,0,0,0-2.16.85c-5.64,3.27-11.13,3.23-17.19.31-2.17-1-7-2.25-8.06,3.15-.13.65-1.07,1.17-1.65,1.72-3.87,3.63-7.35,7.41-7.39,13.26a2.71,2.71,0,0,1-2.18,2.93c-2.47-1.07-5.1-3.34-8.84-2.64a4.82,4.82,0,0,1-4.25-2l.71-3c.26-3.35,1.68-6.32,2.75-9.38a4.48,4.48,0,0,0-1.77-5.55c-2.9-2.18-3.1-5.54-3.74-8.59-.42-2-.69-4.63,2.9-4.27,1.54.16,3-.59,2.47-2.09-.91-2.7-1.24-6-3.8-7.66A15.09,15.09,0,0,0,555,495.85c-4,1-4.54,4.19-5.58,7.32-1.45,4.41-3.22,4.89-6.34,1.69-2.3-2.36-5.25-2.14-7.69-1.54-6.2,1.53-12.15,2.18-17.87-1.18-3.13,4.77-2.73,5.25-8.7,3.69-1.87-.49-4-.08-6.17-.08-.86,3.2,1.33,5.8.64,8.55,3.53,1,5.55,4.66,9.4,5.16,5.12.66,6.77,2.35,7.23,7.25l0,1.28c-2.95,1.49-2.57,4.76-2.33,6.81.43,3.72-1.25,4.87-4.06,6.05-6.92,2.93-9.89,8.66-10.72,15.78l-3,6.42c-3.49,0-5.79.45-6.27,5.1-.34,3.24-2.41,6.59-4.73,9.53-2.65,3.37-3.1,8.07-6.06,11.49-2.56,3-4.77,3.27-6.8-.09a12.55,12.55,0,0,0-4.67-4.42c-2.85-1.75-3.77-5.64-6.42-8-1.28-1.16-1.76-3-3.95-3.39-.8-.13-2.05-1.33-2.05-2.05,0-4.73-3.84-4.16-6.53-4.63-7.83-1.35-13.27,2.34-17.07,8.92a7,7,0,0,0-1.32,4.7c.23,1.56-.08,3-2,3.77-2.72-1-4-3.5-4.86-6.34a21.51,21.51,0,0,0-2.07-5.16c-3.69-5.94-8.65-6.77-13.73-2.11-1.33,1.22-1.33,1.22-.43,3.85H410c-2.71,1.46-5.42-2.52-8.12,0a21.34,21.34,0,0,1-2.12-2.58c-1.69-2.83-2.61-6.09-5.54-8.17-2.05-1.45-.66-3.51.45-4.58,5-4.87,4.16-11.88,6.71-17.63.87-2-1.73-4.74-4.21-4.64-3.42.15-6.94.14-10.22,1a44.81,44.81,0,0,1-5.32.77c-1.11-1.74-.84-4-2.38-5.66-2.17-2.31-1.69-4.54,1.38-6.3-3-4.63-8.26-4.71-11.68-4.76-4.91-.08-6.5,6.46-10.07,9.6-4.08-2-6.35-5.53-8.68-8.81-3.33-4.69-7.92-6.95-13.31-8.1-1.17-.25-2.3-.66-4-1.16l4.84-9.14-1.26-.38c-2.83-.25-5.73-1-8.45-.42l-.1-.43c.4-6.33,2.61-11.61,7.58-16,2-1.74,2.79-4.94,3.93-7.57,1.41-3.23,1.69-7.64,4.06-9.6,5.38-4.43,4.34-8.58,1.57-13.5a14.75,14.75,0,0,0-2.6-3.4,12.15,12.15,0,0,1-3.08-3.89l-.35,0c-1.58,3.77-6.51,5.41-6.53,10.27a2,2,0,0,1-2,1.79c-1.22-.05-2.53-.73-2.44-1.35.35-2.57-2-5.52.76-7.68,3.12-2.46,2.53-7,5.5-9.48,1.31-1.11-.23-1.77-.82-2.53l-.86-1.71c2.54-4.8,4.52-9.62,1.37-15-.36-.62.26-2.1.81-2.92,1.71-2.53,1.91-5.65,3.56-8.3.82-1.31,2.33-5.37-1.9-6.23-2.79-.57-2.92-2.36-3.08-4.73-.18-2.61-.44-5.44-4.16-6.08-2.08-.37-4.29-6.47-3.44-8.46,1.82-4.24,6.7-6.16,8.12-10.69,3.66-.29,6-3.74,9.42-4.21,6.35-.86,8.86-6.19,11.74-10.48a14.73,14.73,0,0,0,2.54-11c-.52-2.82.1-5.88,4-7.45,2.5-1,5.37-3.07,5.64-6.63l2.59-1.23a3.27,3.27,0,0,1,3,.76c4.89,3.57,6.81,3.21,10.67-1.66.81-1,1.69-2,2.52-3a117.35,117.35,0,0,1,26.1,10.28l7.06-7.06c2.36.93,3.86,1.67,3.7,4.05a4.61,4.61,0,0,0,3.4,4.61c1.67.57,3-.79,4.26-2,3.68-3.74,6-8.44,8.36-12.93,2.06-3.89,4.27-6,8.73-5.49a4,4,0,0,0,3.84-1.7c2.27-3,4.6-3.56,7.32-.46.51.58,1.66.61,2.79,1,5.07-7,11.65-13.57,7-23.6"/><path class="cls-3" d="M220.22,525.42a74.33,74.33,0,0,0-.73-8.55,2.55,2.55,0,0,1,.84-2.08,6.56,6.56,0,0,0,2.55-4.32c.8-3.51,3.28-3.34,6-2.57,2.25.64,4.06,1.37,2.23,4.33a2.93,2.93,0,0,0,1.14,3.75c2.75-1.71,5-.58,7.42,1.64a8.16,8.16,0,0,0,5.45,1.69,8.62,8.62,0,0,1,5.56,1.86c3.66,2.52,8.38,2.14,9.12-1.78,1-5.43,6.59-5.78,8-10.35,2.09,2.74,2.09,2.74,2.15,3.56.43,6.51.49,6.32,6.8,8.25,1.68.51,2.71.92,4.36,0a4.09,4.09,0,0,1,5.52,1.19,36.84,36.84,0,0,1,2.95,3.45c2.23,3.51,4.76,3.39,8.66,2.43,3-.74,5-3.08,8-3.36,5.35-.5,8.28-3.86,9.53-8.9,1-3.92.25-10,7.59-8.6a1.24,1.24,0,0,0,.84-.42,8,8,0,0,1,4.44-2.21l-.58-2.5c.4-6.32,2.61-11.61,7.57-15.95,2-1.75,2.8-4.95,3.94-7.58,1.4-3.22,1.69-7.64,4.06-9.6,5.37-4.43,4.34-8.58,1.57-13.5a15.56,15.56,0,0,0-2.6-3.4L339.15,448c-1.58,3.76-6.51,5.4-6.53,10.26a2,2,0,0,1-2,1.79c-1.23-.05-2.53-.72-2.45-1.35.36-2.56-2-5.52.76-7.68,3.12-2.45,2.54-6.94,5.51-9.47l-1.68-4.24c2.54-4.81,4.51-9.62,1.37-15-.36-.62.26-2.1.81-2.91,1.71-2.53,1.9-5.65,3.56-8.31.82-1.31,2.32-5.37-1.9-6.23-2.79-.57-2.93-2.36-3.09-4.73-.17-2.6-.44-5.44-4.16-6.08-2.08-.36-4.29-6.47-3.43-8.46a14.44,14.44,0,0,1,3.43-4.48l-.87-.22c-3.85-4.34-7.76-8.36-14.09-9.09-3-.35-3.78-3.08-2.14-5.87a27.17,27.17,0,0,1,2.13-3c2.19-2.76,1.7-4.67-1.73-6-1.42-.53-3.74-.23-3.7-2.16.05-2.3-1.47-4.57-.14-6.85,1.06-1.8,1.39-3.57-.43-5.12-.72-.62-1.05-1.43-.4-2.13,3.43-3.61,2.15-10.06,7.65-12.49a8.25,8.25,0,0,0,3-3c1.45-2.07,0-5-2-6.46-4.74-3.35-10.35-4.77-15.54-7-3.51-1.48-2.77-5.23-5.29-6.56-6,2.2-11.06-1-17.07-2.1-2.51,1.41-3.13,3.61-2.5,7.17.83,4.68-2.46,7.74-6.29,9.74-2.33,1.21-3.39,2.67-3,5.2.5,2.83-2.33,3.39-3.41,5.19,2,3.73.23,7.43-.6,11-.32,1.39-1,2.76-1.19,4.3-.58,3.91-4.5,5.48-8.07,3.44-1.1-.63-2.28-1.63-3.41-1.61-2.38,0-2.87-1.22-3-3.1-.19-3-.87-5.53-4.69-5.11a2.1,2.1,0,0,1-2.09-1.33c-.64-1.08-.64-3-2.19-2.89-3.21.13-6.27-1-9.4-.84-1.73.08-1.92,1.78-1.73,3.33.41,3.22-1,4.95-4.25,4.21-3.39-.79-4.83,2.07-6.25,3.65l-3.17,2.4c-.44,2.26-2.15,3.48-4,4.8,1.47,2.83-.45,5.57-.44,8.46,0,1.93-5.52,3.86-7.48,2.48a49.11,49.11,0,0,1-4.18-3.1l-1,.62c-5.68,5.55-12.16,8-20.12,5.62a4.61,4.61,0,0,0-6,2.93c2.15,5.13,1.31,7.26-3.77,9.81l-4.71,2.12c-1.93.71-2.24,2.22-2.2,3.89.06,3-.62,5.65-3,7.7-3.26,2.81-3.51,6.87-4.23,10.7-.12.64-.66,1.68.78,2.2,1.26.45,2.54.65,3-.53,1.4-4.08,5.53-3,8-4.81,2.43,1.34,2.57,4,4.07,5.69v.86c2-2.48,5.48-1.87,7.78-4.19,4.85-4.9,17.07-4,21.75,1.17a2.8,2.8,0,0,1,.84,2.16c-.11,2.95,1.23,5.07,4.44,6.48A41.33,41.33,0,0,0,194,425.27c-1.23,2.67-2.72,3-5.19,1.43l-.62.79c-1.63,2-3.78,3.75-1.81,6.91a2.19,2.19,0,0,1-1.61,3.34c-4.14.71-5.54,4.77-8.56,6.84a1.61,1.61,0,0,0-.39,2.56c2.6,3.24.68,5.32-1.74,7.28-1,.83-2.16,1.56-3.59,2.58,6.67,10.4,12,20.42,4.93,32.12-1.37,1.56-3.75.18-5.75,1.31-.23,1.9-.59,3.9-.68,5.91-.07,1.6-.68,3.48,2.09,3.93,1.71.28,2.75,1.67,2.61,3.76-.38,5.9-.29,6.13,5.53,6.34,3.28.11,4.71,1,3.36,4.29a12.88,12.88,0,0,1,5.33,2.41c3.64,2.33,6.26,4.68,6.86,9.17.11.88,2.15,2.06,3.68,1.69,4.23-1,8.65.34,12.89-1.54,2.25-1,5.07-.7,7.64-1Z"/><path class="cls-1" d="M197.26,361c-2.17-1.88-3.85-4.16-3.94-7.52a11.16,11.16,0,0,0-1.16-3.42h-.61c-2.05-.43-3.56.55-5.16,1.68-3.06,2.16-5.94,5.12-10.32,2.3-.7-.46-2.48.73-3.85,1.18-2.83-2.71-.36-4.71.94-6.87l.86-.42c-4.91-1.72-4.92-1.73-8.55,2.14-1.17,1.25-2.05,3.06-3.48,3.72-2.06,1-4.92,3.23-6.69.07-3-5.26-6.86-3.17-10.78-2.08a11.74,11.74,0,0,1-2.57.81c-5.53.12-9.45,2.13-10.31,8.16-.07.48-.83,1.25-1.23,1.22-2.71-.14-5.38,3.49-8.18.11-.29-.35-1.53-.31-2.06,0-2.54,1.48-5.22.54-7.71.27-3.76-.4-7.34-.74-10.37,1.46-3.94-4.27-2.3-10-4.58-14.62-1.3-2.63.17-4,2.5-5.19s5.63-.3,6.63-3.94c-1.81-1.63-2-5.72-4.83-5.15-3.06.61-4.56-1.56-6.87-2.05-1-.21-1.56-1.41-3-1.26-2.56.27-3.71-1.17-4.36-3.75-1.17-4.65-3.78-8-8.84-9.57-3.2-1-4.58,2.63-7.57,1.68-1.62-3.2-3.61-6.34-8.78-3.63-2.2-6.51-8.1-6.79-13.35-7.05a9.63,9.63,0,0,1-1.25-.27c-.1,3.33-1.2,6.55-1.51,9.81a34.6,34.6,0,0,1-2.58,10.32c-.8,1.8-.33,3.57.64,5.6,2.06,4.33,3.28,9.05,4.85,13.61,1.77,5.12,5.51,9.56,5.17,15.4,0,.41.52,1.22.82,1.22,5.05.13,3.55,4,3.32,6.46-.9,9.69,3.63,18.43,4.53,27.79.08.83,1.05,2.22.62,3-1.66,2.83-.84,5.41,0,8.19,1.27,4,2.76,7.81,2.5,12.4C66,426,69.67,429,68.87,433c-.13.67.69,1,1.25,1.05,3.33.52,4.57,2.68,4.72,5.79a5,5,0,0,0,.94,2.46c4.94,4.9,5.91,11.6,6.4,17.66.51,6.29,3.28,12.18,2.28,18.82a26.64,26.64,0,0,0,2.34,15.36c3.17,6.58,1.83,13.36.82,20.09a79.18,79.18,0,0,0-.85,9.84c0,1.63.89,2.88,2.13,2.46,3.85-1.29,8.5-.14,11.33-3.92,3.21,1.57,3,3.87,2.45,6.6-.72,3.27.21,6.21,1.18,9.53,1.37,4.73,4.26,8.8,5.08,13.57.35,2,.81,4.17-.21,6.45-.85,1.87,4,7,6.28,7.21l4,.35c2.55-1.42,4-4,5.85-6.33l.43-.86c3.92-.1,2.74,3.11,2.37,4.66a9.91,9.91,0,0,0-.38,4.35,4.59,4.59,0,0,1-2.84,5.12c-2,.89-4,1.94-5.12,4.51,3.39,1.61,2.29,7.56,7.68,7l-1.71.43c-.37,2.48-.31,5.26-3.85,5.56a1.22,1.22,0,0,0-1.27,1.28c0,3.56-.71,7.32.21,10.62.69,2.45,4.14,3.82,6.64,4.16,3.52.48,3.23,2.12,2.54,4.46-.88,3-.12,4,3,4.31,1.92.2,3.22-.41,3.82-2.18.36-1.06.85-2.23,1.76-2.49,4.95-1.42,9.93-2.75,15-3.85,1.81-.4,3.67-.26,4.77,2,.73,1.51,2.52,2.17,4.56,2.71.9-1.54,3.78-2.24,3.31-4.34-.5-2.26.34-3.12,1.9-3.85,1.23-.58,1.78-1.65,2.57-2.59,2.92-3.46,7.67-3.53,10.2,0a26,26,0,0,0,6.47,5.93c2,1.44,4,1.73,5.56-.82s3.28-2.49,5.15,0c1.36,1.77,3.12,2,4.66,0a2.17,2.17,0,0,1,2.55-.73c3,.89,2.1,5.74,5.92,6.75,1.39-3.15,1.76-7,4.77-9.46a1.38,1.38,0,0,0,.41-1.24c-1.18-2.49.51-3.45,2.14-4.77,2.86-2.31,4.15-9.24,2.59-12.77-1.37-3.1-2.81-6.17-4.18-9.15a26.78,26.78,0,0,1,2.49-2c2.89-1.74,5.68-3,8.18.8.74,1.12,2.23,1.73,3.35,2.61,3.23,2.52,6.31,2.39,9-.44,1.17-1.25,2.33-2.52,3.41-3.85,1.46-1.8,3.42-2,4.63-.35,1.84,2.44,4.68,3,7,4.6,2.57,1.78,7,1,9.33-1.71,2.06-2.38,3.07-5.11,0-7.65-.72-.6-.71-1.33-.89-2.14-.57-2.63-1-5.36-3.77-6.9-1.45-.8-1.41-2.1-1-3.82,1-3.94,2.18-7.79-.17-12-2-3.59-3.54-8,1.53-11.09.79-.49,1.12-1.7,1.75-2.51,2.9-3.7,5.31-7.83,9.18-10.69l-.64-4.69c-.05-.82-.05-.82-2.14-3.56-1.4,4.57-7,4.92-8,10.35-.73,3.92-5.46,4.3-9.12,1.78A8.59,8.59,0,0,0,245,519.7a8.14,8.14,0,0,1-5.45-1.69c-2.4-2.22-4.67-3.35-7.42-1.63-1.68-1.28-1.64-3-1.14-3.76,1.83-3,0-3.69-2.24-4.33-2.67-.76-5.16-.93-6,2.57a6.56,6.56,0,0,1-2.55,4.32,2.58,2.58,0,0,0-.84,2.08,74.34,74.34,0,0,1,.74,8.55h-1.22c-2.56.29-5.39,0-7.64,1-4.24,1.88-8.66.54-12.89,1.55-1.52.36-3.57-.82-3.68-1.69-.6-4.5-3.22-6.85-6.86-9.18a12.84,12.84,0,0,0-5.32-2.41c1.34-3.31-.08-4.17-3.37-4.29-5.82-.2-5.91-.44-5.53-6.34.14-2.09-.9-3.48-2.61-3.76-2.76-.44-2.16-2.33-2.09-3.93.09-2,.45-4,.69-5.91,2-1.13,4.38.25,5.75-1.31,7.08-11.7,1.73-21.72-4.94-32.12,1.43-1,2.56-1.74,3.59-2.58,2.42-2,4.35-4,1.75-7.28a1.6,1.6,0,0,1,.39-2.55c3-2.08,4.42-6.14,8.55-6.85a2.2,2.2,0,0,0,1.62-3.34c-2-3.16.17-4.89,1.81-6.91l.61-.78c2.47,1.51,4,1.23,5.19-1.44a41.37,41.37,0,0,1,8.92-12.25c-3.22-1.41-4.56-3.53-4.45-6.48a2.77,2.77,0,0,0-.84-2.16c-4.68-5.14-16.89-6.07-21.74-1.17-2.3,2.32-5.81,1.71-7.79,4.19v-.86c-1.5-1.7-1.64-4.34-4.07-5.69-2.44,1.78-6.57.73-8,4.81-.41,1.19-1.69,1-3,.53-1.43-.52-.89-1.56-.77-2.2.71-3.83,1-7.88,4.22-10.7,2.38-2.05,3.06-4.71,3-7.7,0-1.67.27-3.18,2.13-3.85l4.71-2.13c5.15-2.58,6-4.71,3.84-9.84a4.62,4.62,0,0,1,6-2.93c8,2.35,14.43-.07,20.11-5.62Z"/><path class="cls-4" d="M725.55,419.36c-6.62-3.78-9.5-10.77-14.11-16.26-.53-.62-1-1.58-2.31-1.24-7.27,2.82-10.44,9-12.21,16.19-.83,3.38-7.9,7.37-11.12,6.43-5.21-1.51-9.49-4.48-11.39-9.48-1.59-4.16-4.52-3.48-7.42-3.31-3.86.23-7.66,1.05-11.57,0-1.08-.28-2.44-.64-2.44-1.38,0-4.45-5.11-3.86-6.52-6.83-.36-.74-1.13-.47-1.7-.42-8.57.75-15.62-3.14-22.17-7.8A45.79,45.79,0,0,1,611,382.56c-2.05-3.17-5.56-3.9-8.56-5.24-1.77.91-2,2.51-2.55,4-1,3-1.53,6-3.72,8.66-1.12,1.34-1,3.7-.68,5.9.7,4.09.58,8.29-1.93,12-4.95-1.05-8.1-5.11-12.48-7-2.14-.91-4.16-2-6.42-.4-.42.3-1,.9-1.27.8-4.91-1.67-6.24,2.42-8.06,5.24-1.44,2.22-3,2.59-5.53,3.3l-9.94,2.2c-2.58-8.67-7.08-17.15-2.29-26.35-2.23-1.23-13.21-1.86-15.65-.84L528.31,382c1.12-2.3,1-5.53,4.85-5.87,1.51-.13,1.61-1.58,1.77-2.93a55.1,55.1,0,0,1,1.22-5.73c-.95-.36-2-1.2-3-1.05-8.38,1.44-14.31-4.51-21.38-6.93-2.2-.76-3.12-2.9-4.27-4.7s.72-3.23,1-4.73c.46-2.32-1.37-4.73-2-7.19-1.32-5-1.77-9.67.09-14.59.89-2.35.14-5.59-1.44-8.35l.62-.18c3.36-3.76,9.45-2.82,12.41-7.26.64-1,1.75-.14,2.55-.46,1.55-.61,3.54,0,4.63-2.11-.83-4.41,2-16.58,4.78-20.11,1.11-1.39,2.56-1.61,4.27-1.77,3.87-.36,7.69-1.27,11.56-1.58,2.71-.22,2.73-2.52,2-3.37-1.7-2-1.74-4.86-3.4-6.41-2.52-2.36-2.61-5.75-4.54-8.28-1.48-1.95-1.29-4.2-.09-6.4.48-.88,1.55-1.77.88-3-2.83-5-.41-9.34,1.74-13.69.55-1.1,1.2-2.29.79-3.41-1.86-5.14,1.42-8.76,3.42-12.87,2.73-5.6,6.34-10.76,6.65-17.5.19-4.26.31-9.2,4.9-12,.59-.37.69-1.63.88-2.51.42-1.89.83-3.23,3.41-3.58s3.78-2.25,3.2-5.42c-.36-1.93-1.49-4.1.11-6.47,1.3-1.94,1.06-4.27-2-5.59-1.84-.8-4.16-2.53-4.52-4.21a52.32,52.32,0,0,0-2.16-6.44c-.78-2.24-3.71-3.77-3-5.86,1.2-3.77-1.32-7.47.53-11.25a17.69,17.69,0,0,0,1.36-4.63c.59-3.72,2.93-7.66-.77-11.11l-2.13-.42c.08-.07.28,0,.42,0,3-.26,4.75-1.86,6.09-4.65,1.59-3.33,1.42-7.25,3.09-10.2,2.13-3.75.81-6.52-.69-9.49-1.08-2.14-1.63-4.18-.77-6.43a4.85,4.85,0,0,0,0-3.44c-2.28-7,.5-11.57,8.72-9.34,1.14-2.33,2.08-5.15,5.36-5.16,5.65,0,10,3.71,15,5.54,3,1.1,2.46,4.16,3.46,6.39,2.82,6.3,4.61,6.34,11.47,4.16,1.28-.41,2.33-1,3.44-.27,2.2,1.37,4.58.58,6.86.83,3.53.39,4.06-2.37,5.19-4.68.51-1,1.66-1.74,2.51-2.59,4.79-4.79,9.86-3.81,12.36,2.58,1.73,4.4,3.93,7.69,9.46,6.45a7.82,7.82,0,0,1,3,.38c4.13.81,8.41,2.84,12.34-.08,2.45-1.82,4.28-1.63,6.94-.46,5.36,2.35,10.91-.62,12.79-6.3a25.21,25.21,0,0,0,1.24-3.43c.57-3.29,1.25-6.62-.39-9.83H682c2,0,4.07-.36,6,.08,3.51.81,7.54.55,8,6.31.28,3.8,2.94,7.41,4.44,11.15.53,1.34,1.4,2.64,2.6,2.91,5.91,1.3,11.87,3.1,17.93,2.53,7.15-.68,14-3.86,21.39-2.91a1.78,1.78,0,0,0,1.27-.42c3.31-3.1,8.61-4.13,9.85-9.39l.43-.86c3.19.95,5.58,3.14,8.12,5.13,5.68,4.44,6.54,7.69,3.38,14.53-1.92,4.16-1.86,9-4.62,12.87-1.27,1.78-.46,3,1.67,3.4,3.71.69,7.38,1.61,11.12,2,1.77.21,3.15.44,3.73,1.88-2.28,6.24-4.43,12.23-4.11,18.72a10.69,10.69,0,0,1-1,5.52c-2.06,3.8-3.39,7.62-3,12a7.42,7.42,0,0,1-.86,4.23c-1.53,2.56-2.73,5-2.57,8.17.14,2.57-3.44,3-3.81,5.55s2.73,2.51,3.36,5.05c1.14,4.67,1.88,9.66,4.37,14l-1.28.21c-2.26,4.46-1.44,6.45,3.84,9.86a25,25,0,0,1,6.92,5.91,8.59,8.59,0,0,0,11.42,1.7c1.77-1.28,3.2-2.52,5.61-2.63,1.72-.08,2.73-1.47,3.14-3.69.83-4.51,1.11-4.22,5.86-3.11,2.74.63,5.5,1.26,8.57.72,2.39-.43,5.16.73,7.64,1.57a8.33,8.33,0,0,0,5.52.22c3.66-1.55,6.78-.23,9.86,1.07,3.93,1.65,8.36,2.26,11.92,4.35,8,4.71,15.8,10.1,19.69,19.12a9.84,9.84,0,0,0,8.6,6.45c3.63.45,8.35,6.59,8.08,10.2a3.38,3.38,0,0,1-1.25,2.11c-3.94,3.08-5.35,7.3-7.21,11.85-2.19,5.36-5,11.65-12,13.29-.1,2.18,1.17,3.81,1.68,5.69-4.66,2.92-4.66,2.92-4.25,5.56-3.38,2.09-7.33,3.63-6.53,9,.26,1.71-2.42,2-3.3,3.41-1,1.67-2,3.39-3.1,5.15.91,1.15,1.74,2.31,2.68,3.39a2.64,2.64,0,0,1,.34,2.95c-2.2,3.22-3.42,7.59-8.48,7.77-2.08.07-2.47,1.84-3.12,3.71,1.66,1.57,4.2,2.46,5.26,4.82.9,2,.78,3.69-1.72,4.23a8,8,0,0,0-2.59.83c-7.22,4.17-7.76,4-12.36-3.35l-.43.85c-1.2.22-1.57,1.7-3,1.76a4.1,4.1,0,0,0-4.26,4.23c-.17,2.6-.26,5.22,3.4,5.59a6.39,6.39,0,0,1,1.86.78c-2,4.66-5.32,5.18-8.7,5.61-5.25.66-7.78,5.75-5.13,10.25h.85c-3.59,1.77-6.71,3.44-6.65,8.56,0,2.53-3.6,4.46-6.11,3.65-3.24-1-5.12.49-7.33,1.91-3.81,2.47-4,3.48-.82,6.37,1.31,1.21,1.15,2.15-.05,3-2.44,1.72-4.83,3.66-8.38,3.41-1.19-.2-1.18-1.66-1.88-2.52-1.3-1.58-2.24-.94-3.46.37a33.22,33.22,0,0,1-5.55,4.69,3.89,3.89,0,0,0-1.75,3c-.54,3.12-6.67,6.92-9.73,5.92s-3.37-4-3.87-6.76l-.43,2.13c-1.63.78-2.82,3.13-5.22,1-.64-.58-3-.31-3.65.4-2.22,2.61-4.59,1.68-6.93.72-1.25-.51-2.5-.68-3,.5-2.62,6.94-9.24,10.53-13.31,16.23Z"/><path class="cls-4" d="M686.88,426.12a5.37,5.37,0,0,1-1.5-.2c-6.2-1.8-10.48-5.39-12.38-10.38-1-2.61-2.26-2.62-5-2.41l-.87.06c-.93.05-1.86.14-2.79.23a25.77,25.77,0,0,1-9.24-.24c-1.42-.36-3.56-.91-3.57-2.82,0-1.61-.87-2.12-2.66-3a7.81,7.81,0,0,1-3.52-2.8h0l-.39.05c-9.28.81-16.92-3.63-23.17-8.08a46.92,46.92,0,0,1-12-13.14c-1.36-2.1-3.56-3-5.89-3.87l-1.26-.49a4.5,4.5,0,0,0-1.07,2.1c-.07.22-.14.44-.22.65-.24.7-.46,1.41-.67,2.11a18.67,18.67,0,0,1-3.31,7c-.35.43-.87,1.6-.35,4.68.91,5.39.23,9.56-2.16,13.13l-.57.85-1-.21c-3.2-.68-5.63-2.43-8-4.12a25.65,25.65,0,0,0-4.77-2.93l-.54-.23c-2-.87-3.11-1.28-4.43-.33a1.89,1.89,0,0,0-.28.23,2.38,2.38,0,0,1-2.34.77c-2.88-1-3.85.44-5.47,3.23-.28.48-.56.95-.85,1.4-1.69,2.61-3.61,3.15-6.05,3.84l-.33.1-11.39,2.52-.4-1.34c-.43-1.47-.94-3-1.43-4.42-2.3-6.84-4.68-13.9-1.49-21.48-3.46-.75-11.3-1-13-.34l-.83.35-5.2-4.22.51-1.07a12.17,12.17,0,0,0,.58-1.56c.65-2,1.55-4.81,5.49-5.15l.12,0a5.25,5.25,0,0,0,.27-1.43l0-.15a31.6,31.6,0,0,1,.82-4.12l.15-.6a2.74,2.74,0,0,0-1-.4c-6.15,1.05-11-1.53-15.71-4a45.85,45.85,0,0,0-6.39-3c-2.34-.8-3.48-2.71-4.49-4.39-.18-.31-.36-.61-.55-.91-1.33-2.07-.3-3.81.32-4.85a3.89,3.89,0,0,0,.49-1c.21-1.05-.36-2.36-1-3.75a18.9,18.9,0,0,1-1-2.76c-1.1-4.14-2.08-9.65.13-15.5.67-1.76.16-4.47-1.33-7.08l-.94-1.64,2.05-.61c1.78-1.81,4-2.57,6.21-3.31,2.4-.81,4.47-1.51,5.77-3.46a2.8,2.8,0,0,1,3-1.08l.35,0a8,8,0,0,1,1.8-.41c.95-.13,1.41-.23,1.75-.62-.61-5.33,2.26-17.06,5.17-20.7,1.58-2,3.73-2.19,5.3-2.34,1.8-.16,3.65-.46,5.43-.75,2-.33,4.07-.66,6.15-.83.24,0,.83-.09,1-.4a.65.65,0,0,0,0-.51,11.55,11.55,0,0,1-1.93-3.7,6.84,6.84,0,0,0-1.34-2.58,13.15,13.15,0,0,1-3.1-5.2,12.8,12.8,0,0,0-1.62-3.27c-1.72-2.26-1.8-5.11-.21-8a8,8,0,0,1,.49-.75,3.32,3.32,0,0,0,.43-.73c-3.11-5.5-.73-10.29,1.38-14.51l.39-.79c.37-.75.8-1.59.63-2.05-1.72-4.73.36-8.4,2.18-11.63.47-.82.91-1.6,1.3-2.4.59-1.2,1.21-2.38,1.83-3.57,2.28-4.3,4.44-8.37,4.67-13.34v-.29c.2-4.31.44-9.66,5.45-12.87a6.57,6.57,0,0,0,.23-1c0-.21.08-.42.13-.62.39-1.79.93-4.24,4.67-4.75a2.24,2.24,0,0,0,1.59-.82,3.72,3.72,0,0,0,.33-2.84c-.06-.36-.16-.73-.26-1.11-.44-1.69-1-4,.61-6.47a2.26,2.26,0,0,0,.43-1.8,2.91,2.91,0,0,0-1.74-1.57c-1.75-.77-4.84-2.74-5.38-5.28a29.83,29.83,0,0,0-1.42-4.38c-.23-.61-.47-1.24-.69-1.87a7.42,7.42,0,0,0-1.35-2c-1-1.24-2.36-2.79-1.71-4.83a10.27,10.27,0,0,0,0-4.52c-.28-2.11-.61-4.49.59-6.94a16.21,16.21,0,0,0,1.23-4.21,25.49,25.49,0,0,1,.6-2.65c.77-3,1.17-4.95-.62-6.83l-4.82-.95,2.47-2a1.8,1.8,0,0,1,1.34-.35c2.22-.22,3.56-1.29,4.76-3.8a19.66,19.66,0,0,0,1.36-4.69,19.05,19.05,0,0,1,1.78-5.6c1.69-3,.83-5-.72-8.07-1-2-2-4.63-.83-7.65a3.37,3.37,0,0,0,0-2.44c-1.39-4.24-1-7.74,1-9.85,1.27-1.34,3.74-2.65,8.35-1.7,1-2.17,2.51-4.9,6.19-4.91h.06c4.08,0,7.44,1.74,10.69,3.42A39.31,39.31,0,0,0,591,87.41c2.88,1,3.4,3.51,3.79,5.31a9.13,9.13,0,0,0,.52,1.88c2.41,5.4,3.32,5.35,9.65,3.34l.53-.18a4.47,4.47,0,0,1,4.16.07,6.37,6.37,0,0,0,3.76.58,17.06,17.06,0,0,1,2.47,0c1.74.19,2.19-.5,3.16-2.7.16-.39.33-.77.52-1.15a7.55,7.55,0,0,1,2-2.3c.26-.23.53-.45.77-.69,2.7-2.7,5.69-3.88,8.42-3.31s5,2.84,6.4,6.4c1.7,4.33,3.43,6.5,7.73,5.53a6.3,6.3,0,0,1,2.92.23c.23,0,.45.11.68.15.85.17,1.7.38,2.53.59,3.24.81,6,1.52,8.63-.4,3-2.27,5.49-1.93,8.44-.63a7.31,7.31,0,0,0,6.07,0,9,9,0,0,0,4.69-5.46c.16-.47.35-.94.56-1.41a9,9,0,0,0,.63-1.8l.07-.42c.52-3,1-5.84-.32-8.47l-1.12-2.18H682c.59,0,1.19,0,1.79-.07a15.94,15.94,0,0,1,4.51.18c.5.12,1,.21,1.52.3,3,.55,7.16,1.3,7.6,7.38.16,2.24,1.31,4.5,2.53,6.89.63,1.23,1.28,2.5,1.8,3.8.44,1.11,1,1.89,1.54,2l3,.69c4.76,1.11,9.68,2.27,14.48,1.81a60.23,60.23,0,0,0,7.81-1.44c4.44-1,9-2.08,13.91-1.46,0,0,.05,0,.08,0a24.14,24.14,0,0,1,3.91-2.78c2.57-1.56,4.79-2.91,5.48-5.83l.12-.33,1-2,1.2.36c3,.89,5.31,2.73,7.54,4.52.36.29.72.58,1.09.86,6.31,4.94,7.24,8.91,3.82,16.34a28.41,28.41,0,0,0-1.61,5.1,22.43,22.43,0,0,1-3.16,8,1.41,1.41,0,0,0-.33.68,2.54,2.54,0,0,0,1.05.37c1.22.23,2.44.48,3.66.73,2.42.5,4.92,1,7.37,1.31,1.69.2,4,.47,4.94,2.81l.21.54-.19.53c-2.13,5.83-4.33,11.86-4,18.14a11.91,11.91,0,0,1-1.17,6.3c-2.27,4.18-3.13,7.63-2.8,11.17a8.87,8.87,0,0,1-1.06,5.14c-1.55,2.6-2.49,4.73-2.36,7.32.11,2.1-1.33,3.26-2.38,4.11-.84.67-1.35,1.11-1.44,1.73-.07.47,0,.6.92,1.31a5.51,5.51,0,0,1,2.4,3.18q.35,1.41.66,2.85c.83,3.67,1.68,7.47,3.56,10.73l1.09,1.87-2.66.45c-1.4,3-1,4.24,3.64,7.24a26.37,26.37,0,0,1,7.31,6.28,7.11,7.11,0,0,0,9.34,1.37l.5-.36c1.62-1.19,3.29-2.42,5.92-2.55.32,0,1.29-.06,1.73-2.46s.77-3.79,2-4.56,2.59-.48,5.08.11l.64.15a19.62,19.62,0,0,0,8,.7c2.46-.44,5.09.48,7.41,1.3l1,.33a7,7,0,0,0,4.45.26c4.25-1.8,7.85-.28,11,1.06a45.44,45.44,0,0,0,4.82,1.62,33.45,33.45,0,0,1,7.28,2.82c7.62,4.47,16.09,10.05,20.31,19.83a8.38,8.38,0,0,0,7.41,5.55c4.37.54,9.73,7.27,9.39,11.8a4.87,4.87,0,0,1-1.83,3.18c-3.24,2.53-4.62,6-6.21,9.92l-.53,1.31c-1.89,4.64-4.7,11.52-11.8,13.84a10.57,10.57,0,0,0,.74,2.07,14.76,14.76,0,0,1,.79,2.12l.29,1.07-.94.59a20.92,20.92,0,0,0-3.63,2.53c-.12.15-.11.38.07,1.53l.15,1-.84.53-1.25.74c-3.28,1.93-5.11,3.2-4.59,6.74.31,2-1.37,3-2.37,3.6a4.09,4.09,0,0,0-1.14.83c-.73,1.16-1.43,2.34-2.14,3.55l-.42.69.2.26c.61.79,1.18,1.54,1.8,2.25a4.08,4.08,0,0,1,.44,4.78c-.42.63-.81,1.31-1.23,2-1.6,2.78-3.59,6.24-8.43,6.41-.67,0-.91.27-1.42,1.72.31.23.65.46,1,.7a9.78,9.78,0,0,1,3.87,4,4.85,4.85,0,0,1,.28,4.24,4.17,4.17,0,0,1-3,2.07l-.38.08a5.4,5.4,0,0,0-1.78.58c-7.32,4.23-9.11,4.18-13.37-2.27a3.63,3.63,0,0,0-.44.39,3.92,3.92,0,0,1-2.66,1.34c-1.81.07-2.7,1-2.82,2.83-.2,3,0,3.79,2,4a5,5,0,0,1,2,.73l.33.17,1.37.6-.59,1.37c-2.41,5.56-6.74,6.1-9.89,6.5a5.46,5.46,0,0,0-4.39,2.89,5.14,5.14,0,0,0,0,4.37h6.4l-5.81,2.85c-3.63,1.79-5.86,3.09-5.81,7.19a5,5,0,0,1-2.18,4,6.81,6.81,0,0,1-5.89,1.14c-2.29-.73-3.64.16-5.51,1.39l-.54.35c-2.12,1.37-2.34,1.85-2.36,2s.08.53,1.73,2a3.57,3.57,0,0,1,1.4,2.84,3.33,3.33,0,0,1-1.6,2.49l-.56.4c-2.33,1.67-5,3.55-8.79,3.28h-.13a3.29,3.29,0,0,1-2.46-2.35,3.26,3.26,0,0,0-.34-.7,4,4,0,0,0-.34-.35,5,5,0,0,0-.86.79,35.13,35.13,0,0,1-5.8,4.91c-.72.49-.92.86-1.13,2.05-.33,1.93-2.1,4-4.72,5.6s-5.13,2.09-6.94,1.49a6.12,6.12,0,0,1-4-4.13l-.1.08c-1.12.87-3.17,2.48-5.83.18a3.34,3.34,0,0,0-1.67.22c-2.94,3.39-6.33,2-8.58,1.08a3.22,3.22,0,0,0-1-.28c-1.75,4.53-5,7.66-8.13,10.69a45.13,45.13,0,0,0-5.07,5.44l-.08,2.92-2.17-1.24c-4.82-2.76-7.74-7-10.56-11.19a66.41,66.41,0,0,0-4-5.41l-.28-.35a3.82,3.82,0,0,0-.37-.44h-.07c-5.73,2.27-9.19,6.94-11.2,15.12-.48,1.95-2.47,4.1-5.32,5.75A14,14,0,0,1,686.88,426.12ZM669.5,410.05c2.31,0,4.86.63,6.31,4.42,1.57,4.14,5.08,7,10.41,8.57,1.08.32,3.27-.29,5.33-1.48s3.63-2.75,3.91-3.87c1.41-5.76,4.31-13.81,13.13-17.23l.17-.06a3.3,3.3,0,0,1,3.64,1.5l.18.24a68.69,68.69,0,0,1,4.15,5.65c2.4,3.53,4.68,6.88,8,9.28a49.45,49.45,0,0,1,5.3-5.68c3.06-2.95,5.94-5.74,7.43-9.67A2.78,2.78,0,0,1,739,400.1a4.4,4.4,0,0,1,3.43.26c2.61,1.07,3.82,1.35,5.21-.3a4.68,4.68,0,0,1,3.09-1.23,3.79,3.79,0,0,1,2.71.68c.84.76,1,.65,2.09-.21.24-.19.51-.4.79-.59l1.84-9.17,1.5,8.26c.49,2.74.92,4.45,2.77,5.06,1,.31,2.74-.17,4.46-1.21s3.14-2.52,3.32-3.54a5.33,5.33,0,0,1,2.39-4,32.16,32.16,0,0,0,5.3-4.48c.82-.88,1.76-1.84,3.15-1.77a3.42,3.42,0,0,1,2.55,1.48,5.29,5.29,0,0,1,.8,1.45,5.24,5.24,0,0,0,.25.53c2.63.12,4.48-1.21,6.62-2.74l.57-.41a1.38,1.38,0,0,0,.29-.24,2.38,2.38,0,0,0-.39-.43c-1.76-1.61-2.82-2.93-2.69-4.5s1.47-2.78,3.72-4.24l.52-.34c2.07-1.36,4.42-2.9,8.07-1.73a3.86,3.86,0,0,0,3.19-.7,2.18,2.18,0,0,0,1-1.51c-.06-5,2.65-7.31,5.46-8.88a8.1,8.1,0,0,1,.08-6.89,8.4,8.4,0,0,1,6.7-4.55c3.13-.39,5.28-.85,6.84-3.41-5.13-.54-4.86-4.85-4.71-7.18a5.58,5.58,0,0,1,5.7-5.63c.17,0,.3-.11.69-.5a4.93,4.93,0,0,1,1.29-1l1.35-2.7,1.42,2.26c1.9,3,3.23,5,4.33,5.34s3.07-.79,6-2.49a8.22,8.22,0,0,1,2.68-.92l.35-.07a1.6,1.6,0,0,0,1-.49,2.48,2.48,0,0,0-.33-1.67,7.4,7.4,0,0,0-2.83-2.74,16.47,16.47,0,0,1-2.09-1.59l-.71-.67.48-1.4c.59-1.75,1.39-4.14,4.33-4.24s4.22-1.93,5.93-4.9c.43-.74.87-1.5,1.36-2.22a1.24,1.24,0,0,0-.23-1.12c-.68-.78-1.31-1.6-1.92-2.4l-.81-1-.63-.81,1.46-2.45c.72-1.23,1.44-2.44,2.18-3.62A5.83,5.83,0,0,1,853,304.7a6.48,6.48,0,0,0,.93-.63c-.82-5.68,3-7.92,6-9.71l.37-.22c-.22-2.5.62-3.25,4-5.41q-.14-.35-.3-.69A9.76,9.76,0,0,1,863,283.6l.05-1.13,1.1-.26c6-1.42,8.63-6.68,11-12.4l.52-1.3c1.68-4.18,3.26-8.13,7.14-11.16a2.07,2.07,0,0,0,.69-1c.21-2.88-4-8.26-6.77-8.6a11.35,11.35,0,0,1-9.8-7.34c-3.85-9-11.86-14.2-19.07-18.43a29.85,29.85,0,0,0-6.62-2.53,48.2,48.2,0,0,1-5.12-1.73c-3-1.28-5.62-2.37-8.7-1.07a9.72,9.72,0,0,1-6.58-.18l-1-.34c-2.07-.73-4.2-1.47-5.9-1.18a22,22,0,0,1-9.17-.73l-.64-.15a14.1,14.1,0,0,0-2.76-.5,12.81,12.81,0,0,0-.65,2.57c-.76,4.13-3.17,4.86-4.54,4.92-1.72.08-2.8.87-4.28,2l-.52.38a10.13,10.13,0,0,1-13.5-2,23.53,23.53,0,0,0-6.54-5.55c-5.28-3.42-7.28-6.05-4.36-11.8l.35-.67a47.54,47.54,0,0,1-2.91-9.68c-.21-.94-.42-1.88-.65-2.8-.15-.61-.57-.95-1.29-1.5-1-.72-2.42-1.82-2.09-4.12a5.69,5.69,0,0,1,2.53-3.65c1-.8,1.29-1.12,1.27-1.61-.19-3.72,1.33-6.6,2.77-9a5.91,5.91,0,0,0,.66-3.32c-.4-4.17.57-8.14,3.15-12.88a9.15,9.15,0,0,0,.81-4.73c-.32-6.62,1.8-12.72,3.95-18.62a4.73,4.73,0,0,0-2.24-.56c-2.58-.31-5.14-.84-7.62-1.35-1.2-.24-2.4-.49-3.61-.72-2.13-.39-3-1.43-3.29-2.23a3.56,3.56,0,0,1,.67-3.51c1.47-2,2.06-4.45,2.7-7a30.72,30.72,0,0,1,1.79-5.64c2.84-6.15,2.26-8.65-2.94-12.72l-1.11-.88a24.74,24.74,0,0,0-5.25-3.52c-1.15,3.66-4.06,5.43-6.64,7a20.77,20.77,0,0,0-3.46,2.42,3.24,3.24,0,0,1-2.48.82c-4.34-.56-8.48.39-12.86,1.4a62.46,62.46,0,0,1-8.2,1.51c-5.29.5-10.45-.71-15.44-1.88l-2.95-.68c-1.54-.34-2.81-1.66-3.68-3.81-.47-1.18-1.06-2.33-1.68-3.56-1.3-2.55-2.65-5.19-2.85-8-.28-3.75-2.11-4.08-5.15-4.64-.55-.1-1.11-.2-1.65-.32a13.07,13.07,0,0,0-3.68-.11l-.66,0c.73,2.83.24,5.65-.21,8.2l-.07.42a11,11,0,0,1-.83,2.47c-.16.39-.33.78-.46,1.18a12,12,0,0,1-6.32,7.26,10.45,10.45,0,0,1-8.5,0c-2.49-1.1-3.66-1-5.44.28-3.73,2.78-7.68,1.78-11.16.91-.82-.21-1.6-.4-2.37-.56-.26-.05-.54-.11-.81-.18a4.54,4.54,0,0,0-1.55-.21c-6.73,1.51-9.42-2.88-11.18-7.36-1-2.59-2.51-4.2-4.22-4.56s-3.73.53-5.69,2.49c-.29.29-.62.57-.94.85a5.23,5.23,0,0,0-1.28,1.34c-.16.34-.32.69-.47,1-.9,2.08-2.14,4.93-6.23,4.48a13.68,13.68,0,0,0-2,0,9,9,0,0,1-5.46-1c-.29-.19-.6-.12-1.59.22l-.6.2c-7.18,2.28-10,2.42-13.3-5a11.69,11.69,0,0,1-.72-2.47c-.37-1.74-.62-2.66-1.88-3.12a43.67,43.67,0,0,1-5.08-2.36c-3.07-1.59-6-3.09-9.31-3.09h0c-1.9,0-2.59,1.29-3.65,3.55-.13.26-.25.51-.37.77l-.54,1.11-1.2-.33c-3.11-.84-5.46-.64-6.61.57s-1.3,3.76-.29,6.86a6.3,6.3,0,0,1,0,4.45c-.59,1.53-.39,3,.71,5.22,1.44,2.84,3.22,6.38.65,10.9a16.51,16.51,0,0,0-1.45,4.73,23.07,23.07,0,0,1-1.59,5.38,9.77,9.77,0,0,1-3.71,4.42c2.33,3,1.47,6.29.77,9-.21.82-.42,1.61-.54,2.36a19,19,0,0,1-1.49,5.07c-.8,1.62-.58,3.28-.31,5.2a13,13,0,0,1-.14,5.84c-.14.43.36,1.06,1.14,2a9.55,9.55,0,0,1,1.89,2.92c.21.61.44,1.2.67,1.8A32.83,32.83,0,0,1,561,171.4c.2.93,1.87,2.37,3.65,3.15A5.54,5.54,0,0,1,568,178a5.08,5.08,0,0,1-.82,4.31c-.85,1.27-.63,2.37-.19,4,.11.45.22.89.3,1.32a6.47,6.47,0,0,1-.85,5.14,5.17,5.17,0,0,1-3.61,2c-1.6.21-1.77.68-2.15,2.42,0,.16-.07.33-.1.51-.19,1-.42,2.3-1.46,2.94-3.81,2.37-4,6.53-4.18,10.55l0,.29c-.26,5.65-2.67,10.21-5,14.62-.61,1.15-1.22,2.3-1.79,3.47-.43.88-.92,1.74-1.38,2.56-1.73,3.06-3.22,5.7-2,9.14.6,1.66-.15,3.18-.76,4.4l-.4.8c-2,4.07-3.78,7.59-1.48,11.67a3.47,3.47,0,0,1-.55,3.95,3.17,3.17,0,0,0-.31.47c-1,1.89-1,3.44,0,4.77a15.35,15.35,0,0,1,2,4,10.55,10.55,0,0,0,2.34,4.1,8.94,8.94,0,0,1,2.11,3.73,9,9,0,0,0,1.41,2.8,3.59,3.59,0,0,1,.5,3.57,3.94,3.94,0,0,1-3.52,2.28c-2,.15-4,.48-5.91.79s-3.73.6-5.63.78c-1.73.16-2.56.37-3.24,1.22-2.49,3.12-5.25,14.77-4.47,18.9l.09.51-.24.46a4.94,4.94,0,0,1-4.21,2.55,5.82,5.82,0,0,0-1.2.26,3.38,3.38,0,0,1-1.78.11l-.2,0c-1.87,2.64-4.68,3.59-7.17,4.44a12.51,12.51,0,0,0-5,2.53c1.4,3,1.73,6,.86,8.32-1.51,4-1.53,8.09,0,13.67a16.76,16.76,0,0,0,.89,2.34c.76,1.75,1.55,3.56,1.15,5.53a6.24,6.24,0,0,1-.85,1.94c-.61,1-.66,1.25-.37,1.7l.6,1c.85,1.42,1.58,2.65,2.88,3.1a47.2,47.2,0,0,1,6.83,3.17c4.45,2.36,8.65,4.59,13.82,3.71a4.81,4.81,0,0,1,3,.75,6.44,6.44,0,0,0,.76.36l1.23.46-.29,1.27c-.14.63-.29,1.24-.43,1.84a28.87,28.87,0,0,0-.76,3.74l0,.15c-.15,1.35-.43,3.87-3.11,4.1-1.88.17-2.25,1.07-2.89,3.09-.09.27-.18.55-.28.83l2.12,1.72c3.84-.81,13.57-.19,16,1.17l1.28.71-.68,1.3c-3.67,7.05-1.43,13.69.93,20.71.36,1.05.72,2.12,1.06,3.19l8.83-2c2.25-.64,3.28-.93,4.35-2.59.26-.41.52-.84.77-1.28,1.42-2.44,3.52-6.07,8.42-4.74l0,0a5,5,0,0,1,.49-.38c2.76-2,5.31-.87,7.37,0l.51.22A28.2,28.2,0,0,1,587,402.8a21,21,0,0,0,5.84,3.34c1.49-2.71,1.85-5.94,1.15-10.05-.56-3.3-.23-5.63,1-7.11a16.11,16.11,0,0,0,2.74-6c.23-.74.45-1.49.71-2.23.07-.19.13-.39.19-.58a6.33,6.33,0,0,1,3.1-4.21l.64-.33.66.29c.61.28,1.24.52,1.88.77,2.55,1,5.44,2.12,7.32,5a43.76,43.76,0,0,0,11.22,12.32c6.1,4.34,12.89,8.25,21.17,7.54l.22,0a2.57,2.57,0,0,1,3,1.29,4.86,4.86,0,0,0,2.37,1.79c1.72.88,4.05,2.06,4.28,5.21a10.58,10.58,0,0,0,1.34.41,23.47,23.47,0,0,0,8.2.16c1-.1,1.94-.19,2.91-.25l.81-.05C668.28,410.09,668.89,410.05,669.5,410.05Zm82.08-8.19Z"/><path class="cls-5" d="M592.67,273.54v10h-3.21v-10H585.7V271h10.77v2.59Z"/><path class="cls-5" d="M607.16,280h-2.52v3.54h-3.21V271h5.63a5.88,5.88,0,0,1,3.87,1.15,4,4,0,0,1,1.37,3.25,4.87,4.87,0,0,1-.58,2.46,3.91,3.91,0,0,1-1.7,1.59l2.64,4.16H609Zm-.1-2.53a2.3,2.3,0,0,0,1.62-.52,1.92,1.92,0,0,0,.58-1.52,1.82,1.82,0,0,0-.58-1.47,2.35,2.35,0,0,0-1.62-.5h-2.42v4Z"/><path class="cls-5" d="M620.92,281.25l-.91,2.32h-3.3L622.14,271h3.3l5.31,12.61h-3.42l-.9-2.32Zm2.77-7.09-1.84,4.65h3.64Zm.86-4.29h-2.37l1.9-3,2.82,1Z"/><path class="cls-5" d="M643,271.2a8.5,8.5,0,0,1,2.3,1l-1.21,2.5a11,11,0,0,0-2.12-1,6.54,6.54,0,0,0-1.91-.36,2,2,0,0,0-1,.23.76.76,0,0,0-.38.68,1,1,0,0,0,.59.92,9.91,9.91,0,0,0,1.84.67,16.31,16.31,0,0,1,2.16.76,3.9,3.9,0,0,1,1.46,1.13,3.11,3.11,0,0,1,.62,2,3.38,3.38,0,0,1-.67,2.1,4.07,4.07,0,0,1-1.81,1.31,7,7,0,0,1-2.57.44,9.23,9.23,0,0,1-3.09-.54,8.83,8.83,0,0,1-2.67-1.47l1.24-2.47a8,8,0,0,0,2.26,1.36,6.24,6.24,0,0,0,2.3.53,2.21,2.21,0,0,0,1.21-.28.89.89,0,0,0,.43-.82,1,1,0,0,0-.61-.93,9.16,9.16,0,0,0-1.88-.67,17.4,17.4,0,0,1-2.13-.72,3.66,3.66,0,0,1-1.44-1.1,3,3,0,0,1-.6-1.94,3.26,3.26,0,0,1,.62-2,4,4,0,0,1,1.76-1.33,7,7,0,0,1,2.64-.47A9.73,9.73,0,0,1,643,271.2Z"/><path class="cls-5" d="M650.38,279v-2h4.74v2Z"/><path class="cls-5" d="M670.42,271.7a6.29,6.29,0,0,1,2.45,2.29,6.16,6.16,0,0,1,.89,3.26,6.29,6.29,0,0,1-3.34,5.62,7.61,7.61,0,0,1-6.95,0,6.36,6.36,0,0,1-2.44-2.33,6.51,6.51,0,0,1,0-6.57,6.31,6.31,0,0,1,2.44-2.28,7.65,7.65,0,0,1,6.95,0ZM665.2,274a3.49,3.49,0,0,0-1.3,1.34,3.71,3.71,0,0,0-.49,1.9,3.8,3.8,0,0,0,.49,1.91,3.54,3.54,0,0,0,1.3,1.36A3.47,3.47,0,0,0,667,281a3.36,3.36,0,0,0,1.76-.49,3.54,3.54,0,0,0,1.27-1.36,4,4,0,0,0,.47-1.91,3.91,3.91,0,0,0-.47-1.9,3.49,3.49,0,0,0-1.27-1.34,3.27,3.27,0,0,0-1.76-.49A3.38,3.38,0,0,0,665.2,274Z"/><path class="cls-5" d="M686.56,271.2a8.5,8.5,0,0,1,2.3,1l-1.21,2.5a11,11,0,0,0-2.12-1,6.54,6.54,0,0,0-1.9-.36,2,2,0,0,0-1,.23.75.75,0,0,0-.37.68,1,1,0,0,0,.58.92,9.91,9.91,0,0,0,1.84.67,16.31,16.31,0,0,1,2.16.76,3.9,3.9,0,0,1,1.46,1.13,3.11,3.11,0,0,1,.62,2,3.32,3.32,0,0,1-.67,2.1,4,4,0,0,1-1.81,1.31,7,7,0,0,1-2.57.44,9.23,9.23,0,0,1-3.09-.54,8.66,8.66,0,0,1-2.66-1.47l1.24-2.47a7.85,7.85,0,0,0,2.25,1.36,6.24,6.24,0,0,0,2.3.53,2.21,2.21,0,0,0,1.21-.28.89.89,0,0,0,.43-.82,1,1,0,0,0-.6-.93,9.64,9.64,0,0,0-1.88-.67,17,17,0,0,1-2.14-.72,3.66,3.66,0,0,1-1.44-1.1,3,3,0,0,1-.6-1.94,3.32,3.32,0,0,1,.62-2,4,4,0,0,1,1.76-1.33,7,7,0,0,1,2.64-.47A9.73,9.73,0,0,1,686.56,271.2Z"/><path class="cls-5" d="M694,279v-2h4.74v2Z"/><path class="cls-5" d="M715.57,283.57v-8.19l-3,6.93h-2.09l-3-6.93v8.19h-2.87V271h3.52l3.42,7.5,3.42-7.5h3.49v12.62Z"/><path class="cls-5" d="M734,271.7a6.29,6.29,0,0,1,2.45,2.29,6.15,6.15,0,0,1,.88,3.26,6.26,6.26,0,0,1-3.33,5.62,7.61,7.61,0,0,1-7,0,6.39,6.39,0,0,1-2.45-2.33,6.51,6.51,0,0,1,0-6.57,6.38,6.38,0,0,1,2.44-2.28,7.67,7.67,0,0,1,7,0ZM728.77,274a3.59,3.59,0,0,0-1.31,1.34,3.8,3.8,0,0,0-.48,1.9,3.9,3.9,0,0,0,.48,1.91,3.64,3.64,0,0,0,1.31,1.36,3.47,3.47,0,0,0,1.77.49,3.38,3.38,0,0,0,1.76-.49,3.62,3.62,0,0,0,1.27-1.36,4,4,0,0,0,.47-1.91,3.91,3.91,0,0,0-.47-1.9A3.56,3.56,0,0,0,732.3,274a3.29,3.29,0,0,0-1.76-.49A3.38,3.38,0,0,0,728.77,274Z"/><path class="cls-5" d="M751.42,283.57l-5.8-7.76v7.76h-3V271h2.83l5.81,7.78V271h3v12.61Z"/><path class="cls-5" d="M766.19,273.54v10H763v-10h-3.76V271H770v2.59Z"/><path class="cls-5" d="M778.16,273.49V276h6v2.52h-6v2.54H785v2.52H775V271h9.87v2.53Z"/><path class="cls-5" d="M798.19,271.2a8.5,8.5,0,0,1,2.3,1l-1.21,2.5a11,11,0,0,0-2.12-1,6.48,6.48,0,0,0-1.9-.36,1.94,1.94,0,0,0-1,.23.74.74,0,0,0-.38.68,1,1,0,0,0,.58.92,10.2,10.2,0,0,0,1.84.67,17.06,17.06,0,0,1,2.17.76,4,4,0,0,1,1.45,1.13,3.11,3.11,0,0,1,.62,2,3.32,3.32,0,0,1-.67,2.1,4,4,0,0,1-1.81,1.31,7,7,0,0,1-2.57.44,9.23,9.23,0,0,1-3.09-.54,8.66,8.66,0,0,1-2.66-1.47l1.24-2.47a8.13,8.13,0,0,0,2.25,1.36,6.28,6.28,0,0,0,2.3.53,2.19,2.19,0,0,0,1.21-.28.89.89,0,0,0,.43-.82,1,1,0,0,0-.6-.93,9.39,9.39,0,0,0-1.88-.67,16.3,16.3,0,0,1-2.13-.72,3.62,3.62,0,0,1-1.45-1.1,3,3,0,0,1-.6-1.94,3.32,3.32,0,0,1,.62-2,4,4,0,0,1,1.76-1.33,7,7,0,0,1,2.64-.47A9.73,9.73,0,0,1,798.19,271.2Z"/><path class="cls-5" d="M473,444.41a6.49,6.49,0,0,1,2.64,2.47,7.08,7.08,0,0,1,.94,3.65,6.88,6.88,0,0,1-1,3.63,6.62,6.62,0,0,1-2.68,2.48,8.51,8.51,0,0,1-3.95.89h-5.88v-14h6A8.17,8.17,0,0,1,473,444.41Zm-6.32,10.28h2.54a3.6,3.6,0,0,0,1.93-.52,3.49,3.49,0,0,0,1.33-1.46,4.7,4.7,0,0,0,.48-2.16,4.6,4.6,0,0,0-.5-2.17,3.68,3.68,0,0,0-1.39-1.48,3.92,3.92,0,0,0-2-.53h-2.38Z"/><path class="cls-5" d="M492.67,444.34a6.9,6.9,0,0,1,2.72,2.55,6.79,6.79,0,0,1,1,3.62,7,7,0,0,1-3.71,6.24,8.4,8.4,0,0,1-7.72,0,7.11,7.11,0,0,1-2.72-2.58,6.93,6.93,0,0,1-1-3.66,6.83,6.83,0,0,1,1-3.64,7.05,7.05,0,0,1,2.71-2.54,8.12,8.12,0,0,1,3.86-.92A8,8,0,0,1,492.67,444.34Zm-5.8,2.59a4,4,0,0,0-1.45,1.49,4.16,4.16,0,0,0-.53,2.11,4.25,4.25,0,0,0,.53,2.12,4,4,0,0,0,1.45,1.51,3.74,3.74,0,0,0,2,.55,3.59,3.59,0,0,0,2-.55,3.8,3.8,0,0,0,1.41-1.51,4.36,4.36,0,0,0,.53-2.12,4.26,4.26,0,0,0-.53-2.11,3.82,3.82,0,0,0-1.41-1.49,3.67,3.67,0,0,0-2-.54A3.82,3.82,0,0,0,486.87,446.93Z"/><path class="cls-5" d="M514.08,454.85a5.24,5.24,0,0,1-2.22,2.1,7.37,7.37,0,0,1-3.39.74,7.48,7.48,0,0,1-3.41-.74,5.31,5.31,0,0,1-2.25-2.1,6.23,6.23,0,0,1-.79-3.2v-8.12h3.55v8.12a3.08,3.08,0,0,0,.82,2.23,2.82,2.82,0,0,0,2.1.83,2.73,2.73,0,0,0,2.06-.82,3.16,3.16,0,0,0,.77-2.24v-8.12h3.54v8.12A6.32,6.32,0,0,1,514.08,454.85Z"/><path class="cls-5" d="M527.78,453.59H525v3.94h-3.56v-14h6.26a6.49,6.49,0,0,1,4.3,1.27,4.44,4.44,0,0,1,1.52,3.61,5.47,5.47,0,0,1-.65,2.74,4.36,4.36,0,0,1-1.89,1.76l2.94,4.62h-4Zm-.11-2.8a2.56,2.56,0,0,0,1.8-.58,2.15,2.15,0,0,0,.64-1.68,2,2,0,0,0-.64-1.64,2.61,2.61,0,0,0-1.8-.56H525v4.46Z"/><path class="cls-5" d="M550.4,444.34a7,7,0,0,1,2.72,2.55,6.87,6.87,0,0,1,1,3.62,7,7,0,0,1-1,3.66,7.11,7.11,0,0,1-2.72,2.58,8.1,8.1,0,0,1-3.88.94,8,8,0,0,1-3.84-.94,7,7,0,0,1-2.72-2.58,6.93,6.93,0,0,1-1-3.66,6.83,6.83,0,0,1,1-3.64,7,7,0,0,1,2.71-2.54,8.54,8.54,0,0,1,7.73,0Zm-5.8,2.59a4,4,0,0,0-1.46,1.49,4.26,4.26,0,0,0-.53,2.11,4.36,4.36,0,0,0,.53,2.12,4,4,0,0,0,1.46,1.51,3.77,3.77,0,0,0,3.92,0,4,4,0,0,0,1.41-1.51,4.35,4.35,0,0,0,.52-2.12,4.26,4.26,0,0,0-.52-2.11,4,4,0,0,0-1.41-1.49,3.83,3.83,0,0,0-3.92,0Z"/><path class="cls-5" d="M48.83,149l-1,2.58H44.15l6-14h3.67l5.9,14H56L55,149Zm3.07-7.88-2,5.18h4Z"/><path class="cls-5" d="M74.54,148.55v3H65v-14H68.6v11Z"/><path class="cls-5" d="M86.71,140.39v11.14H83.15V140.39H79v-2.88h12v2.88Z"/><path class="cls-5" d="M106.23,138.34a6.9,6.9,0,0,1,2.72,2.55,6.79,6.79,0,0,1,1,3.62,7,7,0,0,1-3.71,6.24,8.4,8.4,0,0,1-7.72,0,7.11,7.11,0,0,1-2.72-2.58,6.93,6.93,0,0,1-1-3.66,6.83,6.83,0,0,1,1-3.64,7.05,7.05,0,0,1,2.71-2.54,8.54,8.54,0,0,1,7.73,0Zm-5.8,2.59A4,4,0,0,0,99,142.42a4.17,4.17,0,0,0-.54,2.11,4.26,4.26,0,0,0,.54,2.12,4,4,0,0,0,1.45,1.51,3.74,3.74,0,0,0,2,.55,3.59,3.59,0,0,0,1.95-.55,3.8,3.8,0,0,0,1.41-1.51,4.36,4.36,0,0,0,.53-2.12,4.26,4.26,0,0,0-.53-2.11,3.82,3.82,0,0,0-1.41-1.49,3.67,3.67,0,0,0-1.95-.54A3.82,3.82,0,0,0,100.43,140.93Z"/><path class="cls-5" d="M136.7,151.53l0-9.1-3.36,7.7H131l-3.36-7.7v9.1h-3.19v-14h3.91l3.8,8.34,3.8-8.34h3.87v14Z"/><path class="cls-5" d="M146.65,151.53v-14h3.56v14Z"/><path class="cls-5" d="M166.79,151.53l-6.45-8.62v8.62H157v-14h3.15l6.45,8.64v-8.64h3.32v14Z"/><path class="cls-5" d="M186.08,151.53v-5.44h-5.8v5.44h-3.56v-14h3.56v5.76h5.8v-5.76h3.56v14Z"/><path class="cls-5" d="M206.94,138.34a7,7,0,0,1,2.72,2.55,6.79,6.79,0,0,1,1,3.62,6.93,6.93,0,0,1-1,3.66,7,7,0,0,1-2.72,2.58,8.4,8.4,0,0,1-7.72,0,7.11,7.11,0,0,1-2.72-2.58,6.93,6.93,0,0,1-1-3.66,6.83,6.83,0,0,1,1-3.64,7.05,7.05,0,0,1,2.71-2.54,8.54,8.54,0,0,1,7.73,0Zm-5.8,2.59a4,4,0,0,0-1.45,1.49,4.17,4.17,0,0,0-.54,2.11,4.26,4.26,0,0,0,.54,2.12,4,4,0,0,0,1.45,1.51,3.74,3.74,0,0,0,2,.55,3.59,3.59,0,0,0,1.95-.55,4,4,0,0,0,1.41-1.51,4.36,4.36,0,0,0,.53-2.12,4.26,4.26,0,0,0-.53-2.11,4,4,0,0,0-1.41-1.49,3.67,3.67,0,0,0-1.95-.54A3.82,3.82,0,0,0,201.14,140.93Z"/><path class="cls-5" d="M75.61,267.4A7,7,0,0,1,77.93,269l-1.85,2.2a4.47,4.47,0,0,0-1.47-1.2,3.64,3.64,0,0,0-1.71-.45,3.4,3.4,0,0,0-1.79.48,3.52,3.52,0,0,0-1.26,1.31,3.89,3.89,0,0,0-.45,1.87,3.94,3.94,0,0,0,.45,1.89,3.58,3.58,0,0,0,1.26,1.33,3.46,3.46,0,0,0,1.79.49,3.84,3.84,0,0,0,1.65-.4,5.07,5.07,0,0,0,1.53-1.08l1.87,2A8,8,0,0,1,75.53,279a6.73,6.73,0,0,1-2.79.63,6.86,6.86,0,0,1-3.38-.84A6.27,6.27,0,0,1,67,276.5a6.51,6.51,0,0,1-.86-3.31A6.06,6.06,0,0,1,67,270a6.35,6.35,0,0,1,2.42-2.29,7.05,7.05,0,0,1,3.43-.84A6.87,6.87,0,0,1,75.61,267.4Z"/><path class="cls-5" d="M85.74,277.21l-.91,2.32h-3.3L87,266.93h3.3l5.31,12.6H92.15l-.9-2.32Zm2.77-7.09-1.84,4.66h3.64Zm.86-4.29H87l1.9-3,2.82,1Z"/><path class="cls-5" d="M103,279.53l-4.89-12.6h3.42l3.22,9.27,3.22-9.27h3.29l-4.94,12.6Z"/><path class="cls-5" d="M118,277.21l-.91,2.32h-3.3l5.44-12.6h3.29l5.31,12.6h-3.42l-.9-2.32Zm2.77-7.09-1.83,4.66h3.63Z"/><path class="cls-5" d="M141.44,267.72a5.73,5.73,0,0,1,2.37,2.23,6.7,6.7,0,0,1,0,6.55,6,6,0,0,1-2.42,2.23,7.64,7.64,0,0,1-3.55.8h-5.29v-12.6H138A7.38,7.38,0,0,1,141.44,267.72ZM135.75,277H138a3.28,3.28,0,0,0,1.74-.46,3.2,3.2,0,0,0,1.2-1.32,4.54,4.54,0,0,0,0-3.9A3.41,3.41,0,0,0,139.7,270a3.47,3.47,0,0,0-1.81-.48h-2.14Z"/><path class="cls-5" d="M159.16,267.66a6.36,6.36,0,0,1,2.45,2.29,6.16,6.16,0,0,1,.89,3.26,6.26,6.26,0,0,1-3.34,5.62,7.22,7.22,0,0,1-3.48.84,7.14,7.14,0,0,1-3.46-.84,6.36,6.36,0,0,1-2.45-2.32,6.24,6.24,0,0,1-.89-3.3,6.08,6.08,0,0,1,.89-3.27,6.33,6.33,0,0,1,2.44-2.29,7.65,7.65,0,0,1,6.95,0ZM153.94,270a3.56,3.56,0,0,0-1.3,1.34,3.71,3.71,0,0,0-.49,1.9,3.77,3.77,0,0,0,.49,1.91,3.54,3.54,0,0,0,1.3,1.36,3.38,3.38,0,0,0,1.77.49,3.27,3.27,0,0,0,1.76-.49,3.54,3.54,0,0,0,1.27-1.36,4,4,0,0,0,.47-1.91,3.91,3.91,0,0,0-.47-1.9,3.56,3.56,0,0,0-1.27-1.34,3.36,3.36,0,0,0-1.76-.49A3.47,3.47,0,0,0,153.94,270Z"/><path class="cls-5" d="M240.71,282.21l-.91,2.32h-3.3l5.43-12.6h3.3l5.31,12.6h-3.42l-.9-2.32Zm2.77-7.09-1.84,4.66h3.64Z"/><path class="cls-5" d="M257.94,284.53l-4.89-12.6h3.42l3.22,9.27,3.22-9.27h3.3l-4.95,12.6Z"/><path class="cls-5" d="M274.25,274.45V277h6v2.53h-6V282h6.85v2.52H271v-12.6h9.87v2.52Z"/><path class="cls-5" d="M415.25,218.31l-1,2.58h-3.66l6-14h3.67l5.89,14h-3.79l-1-2.58Zm3.07-7.88-2,5.17h4Z"/><path class="cls-5" d="M441,217.91v3h-9.51v-14H435v11Z"/><path class="cls-5" d="M453.13,209.74v11.15h-3.57V209.74h-4.17v-2.88h12v2.88Z"/><path class="cls-5" d="M472.65,207.7a7,7,0,0,1,2.72,2.55,6.75,6.75,0,0,1,1,3.61,6.94,6.94,0,0,1-3.71,6.24,8.4,8.4,0,0,1-7.72,0,6.94,6.94,0,0,1-3.71-6.24,6.8,6.8,0,0,1,1-3.63,7,7,0,0,1,2.71-2.54,8.46,8.46,0,0,1,7.73,0Zm-5.8,2.59a4,4,0,0,0-1.45,1.48,4.22,4.22,0,0,0-.54,2.11,4.27,4.27,0,0,0,.54,2.13,4,4,0,0,0,1.45,1.51,3.82,3.82,0,0,0,2,.54,3.67,3.67,0,0,0,1.95-.54,4,4,0,0,0,1.41-1.51,4.37,4.37,0,0,0,.53-2.13,4.32,4.32,0,0,0-.53-2.11,3.94,3.94,0,0,0-1.41-1.48,3.59,3.59,0,0,0-1.95-.55A3.74,3.74,0,0,0,466.85,210.29Z"/><path class="cls-5" d="M397.62,233.74v11.15h-3.56V233.74h-4.18v-2.88h12v2.88Z"/><path class="cls-5" d="M409,242.31l-1,2.58h-3.66l6-14h3.67l5.89,14h-3.8l-1-2.58Zm4.27-12.84-1.16-1.7-1.15,1.7h-2.48l2.25-3h2.77l2.25,3Zm-1.2,5-2,5.17h4Z"/><path class="cls-5" d="M437.49,244.89l0-9.11-3.36,7.71h-2.32l-3.36-7.71v9.11h-3.19v-14h3.91l3.8,8.34,3.8-8.34h3.87v14Z"/><path class="cls-5" d="M451,233.68v2.79h6.68v2.8H451v2.81h7.62v2.81H447.44v-14h11v2.8Z"/><path class="cls-5" d="M477.3,237.77v5.46a10,10,0,0,1-2.75,1.3,10.23,10.23,0,0,1-3.08.51,7.73,7.73,0,0,1-3.8-.94,7,7,0,0,1-3.68-6.22,6.66,6.66,0,0,1,1-3.62,7,7,0,0,1,2.76-2.56,8.35,8.35,0,0,1,4-.94,8.89,8.89,0,0,1,3.1.57,7.93,7.93,0,0,1,2.61,1.51l-2,2.43a6.07,6.07,0,0,0-1.76-1.12,5.28,5.28,0,0,0-2-.41,4,4,0,0,0-3.54,2,4.25,4.25,0,0,0-.52,2.1,4.38,4.38,0,0,0,.53,2.14,4.09,4.09,0,0,0,1.48,1.5,4.15,4.15,0,0,0,2.09.54,4.53,4.53,0,0,0,1.19-.18,7.56,7.56,0,0,0,1.29-.49v-3.62Z"/><path class="cls-5" d="M487,242.31l-1,2.58h-3.66l6-14H492l5.9,14h-3.8l-1-2.58Zm3.08-7.88-2,5.17h4Z"/><path class="cls-5" d="M98.59,424.07a4,4,0,0,1,1.33,3.25,4.43,4.43,0,0,1-1.33,3.44A5.33,5.33,0,0,1,94.84,432H92.56v3.54H89.35v-12.6h5.49A5.6,5.6,0,0,1,98.59,424.07Zm-6,5.4h2.13a2.33,2.33,0,0,0,1.63-.53,2,2,0,0,0,.57-1.51,1.86,1.86,0,0,0-.57-1.48,2.44,2.44,0,0,0-1.63-.5H92.56Z"/><path class="cls-5" d="M114.65,423.66a6.34,6.34,0,0,1,2.44,2.29,6.07,6.07,0,0,1,.89,3.26,6.24,6.24,0,0,1-.89,3.3,6.34,6.34,0,0,1-2.44,2.32,7.26,7.26,0,0,1-3.49.84,7.17,7.17,0,0,1-3.46-.84,6.43,6.43,0,0,1-2.45-2.32,6.33,6.33,0,0,1-.89-3.3,6.17,6.17,0,0,1,.89-3.27,6.4,6.4,0,0,1,2.44-2.29,7.67,7.67,0,0,1,7,0ZM109.43,426a3.59,3.59,0,0,0-1.31,1.34,3.8,3.8,0,0,0-.48,1.9,3.87,3.87,0,0,0,.48,1.91,3.57,3.57,0,0,0,1.31,1.36,3.33,3.33,0,0,0,1.77.49,3.23,3.23,0,0,0,1.75-.49,3.47,3.47,0,0,0,1.27-1.36,3.86,3.86,0,0,0,.47-1.91,3.8,3.8,0,0,0-.47-1.9A3.48,3.48,0,0,0,113,426a3.32,3.32,0,0,0-1.75-.49A3.42,3.42,0,0,0,109.43,426Z"/><path class="cls-5" d="M129,432h-2.52v3.54h-3.21v-12.6h5.63a5.88,5.88,0,0,1,3.87,1.14,4,4,0,0,1,1.37,3.25,4.93,4.93,0,0,1-.58,2.47,3.94,3.94,0,0,1-1.7,1.58l2.64,4.16h-3.63Zm-.1-2.52a2.31,2.31,0,0,0,1.62-.53,1.92,1.92,0,0,0,.58-1.51,1.84,1.84,0,0,0-.58-1.48,2.4,2.4,0,0,0-1.62-.5h-2.42v4Z"/><path class="cls-5" d="M145.73,425.5v10h-3.21v-10h-3.76v-2.59h10.77v2.59Z"/><path class="cls-5" d="M163.3,423.66a6.36,6.36,0,0,1,2.45,2.29,6.16,6.16,0,0,1,.89,3.26,6.26,6.26,0,0,1-3.34,5.62,7.61,7.61,0,0,1-7,0,6.41,6.41,0,0,1-2.44-2.32,6.24,6.24,0,0,1-.9-3.3,6.09,6.09,0,0,1,.9-3.27,6.26,6.26,0,0,1,2.44-2.29,7.65,7.65,0,0,1,7,0ZM158.08,426a3.56,3.56,0,0,0-1.3,1.34,3.71,3.71,0,0,0-.49,1.9,3.77,3.77,0,0,0,.49,1.91,3.54,3.54,0,0,0,1.3,1.36,3.38,3.38,0,0,0,1.77.49,3.27,3.27,0,0,0,1.76-.49,3.54,3.54,0,0,0,1.27-1.36,4,4,0,0,0,.47-1.91,3.91,3.91,0,0,0-.47-1.9,3.56,3.56,0,0,0-1.27-1.34,3.36,3.36,0,0,0-1.76-.49A3.47,3.47,0,0,0,158.08,426Z"/><path class="cls-5" d="M216.24,451.35v10H213v-10h-3.77v-2.59H220v2.59Z"/><path class="cls-5" d="M226.52,459.06l-.92,2.32h-3.29l5.43-12.61H231l5.31,12.61h-3.42l-.89-2.32Zm3.84-11.56-1-1.53-1,1.53h-2.23l2-2.73h2.49l2,2.73ZM229.28,452l-1.83,4.66h3.64Z"/><path class="cls-5" d="M252.12,461.38v-8.19l-3,6.93H247l-3-6.93v8.19H241.1V448.76h3.52l3.42,7.5,3.42-7.5h3.48v12.62Z"/><path class="cls-5" d="M264.28,451.29v2.51h6v2.52h-6v2.53h6.86v2.53H261.08V448.77H271v2.52Z"/><path class="cls-5" d="M288,455v4.91a9.9,9.9,0,0,1-5.24,1.64,7,7,0,0,1-3.43-.85,6.32,6.32,0,0,1-2.42-2.31,6.23,6.23,0,0,1-.88-3.29,6,6,0,0,1,.91-3.26,6.42,6.42,0,0,1,2.49-2.3,7.44,7.44,0,0,1,3.55-.84,8.22,8.22,0,0,1,2.79.5,7.14,7.14,0,0,1,2.35,1.37l-1.79,2.18a5.23,5.23,0,0,0-1.59-1,4.58,4.58,0,0,0-1.78-.37,3.48,3.48,0,0,0-1.86.5,3.54,3.54,0,0,0-1.32,1.34,3.83,3.83,0,0,0-.47,1.88,3.92,3.92,0,0,0,.48,1.93,3.49,3.49,0,0,0,1.33,1.34,3.67,3.67,0,0,0,1.88.5,4,4,0,0,0,1.07-.17,6.11,6.11,0,0,0,1.16-.44V455Z"/><path class="cls-5" d="M296.64,459.06l-.92,2.32h-3.29l5.43-12.61h3.3l5.3,12.61h-3.41l-.9-2.32Zm2.77-7.1-1.84,4.66h3.64Z"/><path class="cls-5" d="M210.73,472.89v2.51h6v2.52h-6v2.53h6.85V483H207.52V470.37h9.87v2.52Z"/><path class="cls-5" d="M238.53,470.61a8.43,8.43,0,0,1,2.31,1l-1.21,2.49a11,11,0,0,0-2.13-.94,6.48,6.48,0,0,0-1.9-.37,1.86,1.86,0,0,0-1,.24.75.75,0,0,0-.38.68,1,1,0,0,0,.59.91,9.78,9.78,0,0,0,1.84.68,15,15,0,0,1,2.16.76,3.87,3.87,0,0,1,1.46,1.13,3.07,3.07,0,0,1,.61,2,3.37,3.37,0,0,1-.66,2.1,4.07,4.07,0,0,1-1.81,1.31,7,7,0,0,1-2.57.44,9.23,9.23,0,0,1-3.09-.54,8.83,8.83,0,0,1-2.67-1.47l1.24-2.47a8.29,8.29,0,0,0,2.26,1.36,6.23,6.23,0,0,0,2.29.53,2.19,2.19,0,0,0,1.21-.28.91.91,0,0,0,.44-.82,1,1,0,0,0-.61-.93,9.16,9.16,0,0,0-1.88-.67,17.4,17.4,0,0,1-2.13-.72,3.76,3.76,0,0,1-1.44-1.1,3,3,0,0,1-.6-1.94,3.24,3.24,0,0,1,.62-2,4,4,0,0,1,1.76-1.33,6.93,6.93,0,0,1,2.63-.47A9.62,9.62,0,0,1,238.53,470.61Z"/><path class="cls-5" d="M255.67,471.11a6.26,6.26,0,0,1,2.44,2.29,6.07,6.07,0,0,1,.89,3.26,6.28,6.28,0,0,1-3.33,5.61,7.53,7.53,0,0,1-6.95,0,6.26,6.26,0,0,1-3.34-5.61,6.18,6.18,0,0,1,.89-3.28,6.3,6.3,0,0,1,2.44-2.28,7.15,7.15,0,0,1,3.47-.83A7.23,7.23,0,0,1,255.67,471.11Zm-5.22,2.33a3.51,3.51,0,0,0-1.31,1.34,3.77,3.77,0,0,0-.48,1.89,3.91,3.91,0,0,0,.48,1.92,3.54,3.54,0,0,0,1.31,1.35,3.34,3.34,0,0,0,1.77.5,3.24,3.24,0,0,0,1.75-.5,3.54,3.54,0,0,0,1.28-1.35,4,4,0,0,0,.47-1.92,3.87,3.87,0,0,0-.47-1.89,3.51,3.51,0,0,0-1.28-1.34,3.23,3.23,0,0,0-1.75-.49A3.33,3.33,0,0,0,250.45,473.44Z"/><path class="cls-5" d="M274.93,480.56a4.63,4.63,0,0,1-2,1.89,6.46,6.46,0,0,1-3,.67,6.66,6.66,0,0,1-3.08-.67,4.79,4.79,0,0,1-2-1.89,5.63,5.63,0,0,1-.71-2.87v-7.32h3.2v7.32a2.74,2.74,0,0,0,.73,2,2.52,2.52,0,0,0,1.9.75,2.42,2.42,0,0,0,1.84-.74,2.78,2.78,0,0,0,.7-2v-7.32h3.19v7.32A5.63,5.63,0,0,1,274.93,480.56Z"/><path class="cls-5" d="M289,470.61a8.43,8.43,0,0,1,2.31,1l-1.21,2.49a11,11,0,0,0-2.13-.94,6.48,6.48,0,0,0-1.9-.37,1.86,1.86,0,0,0-1,.24.75.75,0,0,0-.38.68,1,1,0,0,0,.59.91,9.51,9.51,0,0,0,1.84.68,15,15,0,0,1,2.16.76,3.87,3.87,0,0,1,1.46,1.13,3.07,3.07,0,0,1,.61,2,3.37,3.37,0,0,1-.66,2.1,4,4,0,0,1-1.82,1.31,6.91,6.91,0,0,1-2.56.44,9.28,9.28,0,0,1-3.1-.54,8.77,8.77,0,0,1-2.66-1.47l1.24-2.47a8.38,8.38,0,0,0,2.25,1.36,6.32,6.32,0,0,0,2.3.53,2.19,2.19,0,0,0,1.21-.28.91.91,0,0,0,.44-.82,1,1,0,0,0-.61-.93,9.16,9.16,0,0,0-1.88-.67,17.4,17.4,0,0,1-2.13-.72A3.76,3.76,0,0,1,282,476a3,3,0,0,1-.61-1.94,3.3,3.3,0,0,1,.62-2,4.05,4.05,0,0,1,1.77-1.33,6.93,6.93,0,0,1,2.63-.47A9.68,9.68,0,0,1,289,470.61Z"/><path class="cls-5" d="M299.53,480.66l-.92,2.32h-3.29l5.43-12.61H304L309.35,483h-3.42l-.89-2.32Zm2.77-7.1-1.84,4.66h3.64Z"/></svg>
