<svg id="Camada_1" data-name="Camada 1" xmlns="http://www.w3.org/2000/svg" viewBox="0 0 900 630"><defs><style>.cls-1{fill:#127589;}.cls-2{fill:#fff;}.cls-3{fill:none;stroke:#fff;stroke-miterlimit:10;stroke-width:3px;}</style></defs><title>Tamega Sousa</title><path class="cls-1" d="M220.22,525.42a74.33,74.33,0,0,0-.73-8.55,2.55,2.55,0,0,1,.84-2.08,6.56,6.56,0,0,0,2.55-4.32c.8-3.51,3.28-3.34,6-2.57,2.25.64,4.06,1.37,2.23,4.33a2.93,2.93,0,0,0,1.14,3.75c2.75-1.71,5-.58,7.42,1.64a8.16,8.16,0,0,0,5.45,1.69,8.62,8.62,0,0,1,5.56,1.86c3.66,2.52,8.38,2.14,9.12-1.78,1-5.43,6.59-5.78,8-10.35,2.09,2.74,2.09,2.74,2.15,3.56.43,6.51.49,6.32,6.8,8.25,1.68.51,2.71.92,4.36,0a4.09,4.09,0,0,1,5.52,1.19,36.84,36.84,0,0,1,2.95,3.45c2.23,3.51,4.76,3.39,8.66,2.43,3-.74,5-3.08,8-3.36,5.35-.5,8.28-3.86,9.53-8.9,1-3.92.25-10,7.59-8.6a1.24,1.24,0,0,0,.84-.42,8,8,0,0,1,4.44-2.21l-.58-2.5c.4-6.32,2.61-11.61,7.57-15.95,2-1.75,2.8-4.95,3.94-7.58,1.4-3.22,1.69-7.64,4.06-9.6,5.37-4.43,4.34-8.58,1.57-13.5a15.56,15.56,0,0,0-2.6-3.4L339.15,448c-1.58,3.76-6.51,5.4-6.53,10.26a2,2,0,0,1-2,1.79c-1.23-.05-2.53-.72-2.45-1.35.36-2.56-2-5.52.76-7.68,3.12-2.45,2.54-6.94,5.51-9.47l-1.68-4.24c2.54-4.81,4.51-9.62,1.37-15-.36-.62.26-2.1.81-2.91,1.71-2.53,1.9-5.65,3.56-8.31.82-1.31,2.32-5.37-1.9-6.23-2.79-.57-2.93-2.36-3.09-4.73-.17-2.6-.44-5.44-4.16-6.08-2.08-.36-4.29-6.47-3.43-8.46a14.44,14.44,0,0,1,3.43-4.48l-.87-.22c-3.85-4.34-7.76-8.36-14.09-9.09-3-.35-3.78-3.08-2.14-5.87a27.17,27.17,0,0,1,2.13-3c2.19-2.76,1.7-4.67-1.73-6-1.42-.53-3.74-.23-3.7-2.16.05-2.3-1.47-4.57-.14-6.85,1.06-1.8,1.39-3.57-.43-5.12-.72-.62-1.05-1.43-.4-2.13,3.43-3.61,2.15-10.06,7.65-12.49a8.25,8.25,0,0,0,3-3c1.45-2.07,0-5-2-6.46-4.74-3.35-10.35-4.77-15.54-7-3.51-1.48-2.77-5.23-5.29-6.56-6,2.2-11.06-1-17.07-2.1-2.51,1.41-3.13,3.61-2.5,7.17.83,4.68-2.46,7.74-6.29,9.74-2.33,1.21-3.39,2.67-3,5.2.5,2.83-2.33,3.39-3.41,5.19,2,3.73.23,7.43-.6,11-.32,1.39-1,2.76-1.19,4.3-.58,3.91-4.5,5.48-8.07,3.44-1.1-.63-2.28-1.63-3.41-1.61-2.38,0-2.87-1.22-3-3.1-.19-3-.87-5.53-4.69-5.11a2.1,2.1,0,0,1-2.09-1.33c-.64-1.08-.64-3-2.19-2.89-3.21.13-6.27-1-9.4-.84-1.73.08-1.92,1.78-1.73,3.33.41,3.22-1,4.95-4.25,4.21-3.39-.79-4.83,2.07-6.25,3.65l-3.17,2.4c-.44,2.26-2.15,3.48-4,4.8,1.47,2.83-.45,5.57-.44,8.46,0,1.93-5.52,3.86-7.48,2.48a49.11,49.11,0,0,1-4.18-3.1l-1,.62c-5.68,5.55-12.16,8-20.12,5.62a4.61,4.61,0,0,0-6,2.93c2.15,5.13,1.31,7.26-3.77,9.81l-4.71,2.12c-1.93.71-2.24,2.22-2.2,3.89.06,3-.62,5.65-3,7.7-3.26,2.81-3.51,6.87-4.23,10.7-.12.64-.66,1.68.78,2.2,1.26.45,2.54.65,3-.53,1.4-4.08,5.53-3,8-4.81,2.43,1.34,2.57,4,4.07,5.69v.86c2-2.48,5.48-1.87,7.78-4.19,4.85-4.9,17.07-4,21.75,1.17a2.8,2.8,0,0,1,.84,2.16c-.11,2.95,1.23,5.07,4.44,6.48A41.33,41.33,0,0,0,194,425.27c-1.23,2.67-2.72,3-5.19,1.43l-.62.79c-1.63,2-3.78,3.75-1.81,6.91a2.19,2.19,0,0,1-1.61,3.34c-4.14.71-5.54,4.77-8.56,6.84a1.61,1.61,0,0,0-.39,2.56c2.6,3.24.68,5.32-1.74,7.28-1,.83-2.16,1.56-3.59,2.58,6.67,10.4,12,20.42,4.93,32.12-1.37,1.56-3.75.18-5.75,1.31-.23,1.9-.59,3.9-.68,5.91-.07,1.6-.68,3.48,2.09,3.93,1.71.28,2.75,1.67,2.61,3.76-.38,5.9-.29,6.13,5.53,6.34,3.28.11,4.71,1,3.36,4.29a12.88,12.88,0,0,1,5.33,2.41c3.64,2.33,6.26,4.68,6.86,9.17.11.88,2.15,2.06,3.68,1.69,4.23-1,8.65.34,12.89-1.54,2.25-1,5.07-.7,7.64-1Z"/><path class="cls-2" d="M216.24,451.35v10H213v-10h-3.77v-2.59H220v2.59Z"/><path class="cls-2" d="M226.52,459.06l-.92,2.32h-3.29l5.43-12.61H231l5.31,12.61h-3.42l-.89-2.32Zm3.84-11.56-1-1.53-1,1.53h-2.23l2-2.73h2.49l2,2.73ZM229.28,452l-1.83,4.66h3.64Z"/><path class="cls-2" d="M252.12,461.38v-8.19l-3,6.93H247l-3-6.93v8.19H241.1V448.76h3.52l3.42,7.5,3.42-7.5h3.48v12.62Z"/><path class="cls-2" d="M264.28,451.29v2.51h6v2.52h-6v2.53h6.86v2.53H261.08V448.77H271v2.52Z"/><path class="cls-2" d="M288,455v4.91a9.9,9.9,0,0,1-5.24,1.64,7,7,0,0,1-3.43-.85,6.32,6.32,0,0,1-2.42-2.31,6.23,6.23,0,0,1-.88-3.29,6,6,0,0,1,.91-3.26,6.42,6.42,0,0,1,2.49-2.3,7.44,7.44,0,0,1,3.55-.84,8.22,8.22,0,0,1,2.79.5,7.14,7.14,0,0,1,2.35,1.37l-1.79,2.18a5.23,5.23,0,0,0-1.59-1,4.58,4.58,0,0,0-1.78-.37,3.48,3.48,0,0,0-1.86.5,3.54,3.54,0,0,0-1.32,1.34,3.83,3.83,0,0,0-.47,1.88,3.92,3.92,0,0,0,.48,1.93,3.49,3.49,0,0,0,1.33,1.34,3.67,3.67,0,0,0,1.88.5,4,4,0,0,0,1.07-.17,6.11,6.11,0,0,0,1.16-.44V455Z"/><path class="cls-2" d="M296.64,459.06l-.92,2.32h-3.29l5.43-12.61h3.3l5.3,12.61h-3.41l-.9-2.32Zm2.77-7.1-1.84,4.66h3.64Z"/><path class="cls-2" d="M210.73,472.89v2.51h6v2.52h-6v2.53h6.85V483H207.52V470.37h9.87v2.52Z"/><path class="cls-2" d="M238.53,470.61a8.43,8.43,0,0,1,2.31,1l-1.21,2.49a11,11,0,0,0-2.13-.94,6.48,6.48,0,0,0-1.9-.37,1.86,1.86,0,0,0-1,.24.75.75,0,0,0-.38.68,1,1,0,0,0,.59.91,9.78,9.78,0,0,0,1.84.68,15,15,0,0,1,2.16.76,3.87,3.87,0,0,1,1.46,1.13,3.07,3.07,0,0,1,.61,2,3.37,3.37,0,0,1-.66,2.1,4.07,4.07,0,0,1-1.81,1.31,7,7,0,0,1-2.57.44,9.23,9.23,0,0,1-3.09-.54,8.83,8.83,0,0,1-2.67-1.47l1.24-2.47a8.29,8.29,0,0,0,2.26,1.36,6.23,6.23,0,0,0,2.29.53,2.19,2.19,0,0,0,1.21-.28.91.91,0,0,0,.44-.82,1,1,0,0,0-.61-.93,9.16,9.16,0,0,0-1.88-.67,17.4,17.4,0,0,1-2.13-.72,3.76,3.76,0,0,1-1.44-1.1,3,3,0,0,1-.6-1.94,3.24,3.24,0,0,1,.62-2,4,4,0,0,1,1.76-1.33,6.93,6.93,0,0,1,2.63-.47A9.62,9.62,0,0,1,238.53,470.61Z"/><path class="cls-2" d="M255.67,471.11a6.26,6.26,0,0,1,2.44,2.29,6.07,6.07,0,0,1,.89,3.26,6.28,6.28,0,0,1-3.33,5.61,7.53,7.53,0,0,1-6.95,0,6.26,6.26,0,0,1-3.34-5.61,6.18,6.18,0,0,1,.89-3.28,6.3,6.3,0,0,1,2.44-2.28,7.15,7.15,0,0,1,3.47-.83A7.23,7.23,0,0,1,255.67,471.11Zm-5.22,2.33a3.51,3.51,0,0,0-1.31,1.34,3.77,3.77,0,0,0-.48,1.89,3.91,3.91,0,0,0,.48,1.92,3.54,3.54,0,0,0,1.31,1.35,3.34,3.34,0,0,0,1.77.5,3.24,3.24,0,0,0,1.75-.5,3.54,3.54,0,0,0,1.28-1.35,4,4,0,0,0,.47-1.92,3.87,3.87,0,0,0-.47-1.89,3.51,3.51,0,0,0-1.28-1.34,3.23,3.23,0,0,0-1.75-.49A3.33,3.33,0,0,0,250.45,473.44Z"/><path class="cls-2" d="M274.93,480.56a4.63,4.63,0,0,1-2,1.89,6.46,6.46,0,0,1-3,.67,6.66,6.66,0,0,1-3.08-.67,4.79,4.79,0,0,1-2-1.89,5.63,5.63,0,0,1-.71-2.87v-7.32h3.2v7.32a2.74,2.74,0,0,0,.73,2,2.52,2.52,0,0,0,1.9.75,2.42,2.42,0,0,0,1.84-.74,2.78,2.78,0,0,0,.7-2v-7.32h3.19v7.32A5.63,5.63,0,0,1,274.93,480.56Z"/><path class="cls-2" d="M289,470.61a8.43,8.43,0,0,1,2.31,1l-1.21,2.49a11,11,0,0,0-2.13-.94,6.48,6.48,0,0,0-1.9-.37,1.86,1.86,0,0,0-1,.24.75.75,0,0,0-.38.68,1,1,0,0,0,.59.91,9.51,9.51,0,0,0,1.84.68,15,15,0,0,1,2.16.76,3.87,3.87,0,0,1,1.46,1.13,3.07,3.07,0,0,1,.61,2,3.37,3.37,0,0,1-.66,2.1,4,4,0,0,1-1.82,1.31,6.91,6.91,0,0,1-2.56.44,9.28,9.28,0,0,1-3.1-.54,8.77,8.77,0,0,1-2.66-1.47l1.24-2.47a8.38,8.38,0,0,0,2.25,1.36,6.32,6.32,0,0,0,2.3.53,2.19,2.19,0,0,0,1.21-.28.91.91,0,0,0,.44-.82,1,1,0,0,0-.61-.93,9.16,9.16,0,0,0-1.88-.67,17.4,17.4,0,0,1-2.13-.72A3.76,3.76,0,0,1,282,476a3,3,0,0,1-.61-1.94,3.3,3.3,0,0,1,.62-2,4.05,4.05,0,0,1,1.77-1.33,6.93,6.93,0,0,1,2.63-.47A9.68,9.68,0,0,1,289,470.61Z"/><path class="cls-2" d="M299.53,480.66l-.92,2.32h-3.29l5.43-12.61H304L309.35,483h-3.42l-.89-2.32Zm2.77-7.1-1.84,4.66h3.64Z"/><path class="cls-3" d="M220.22,525.42a74.33,74.33,0,0,0-.73-8.55,2.55,2.55,0,0,1,.84-2.08,6.56,6.56,0,0,0,2.55-4.32c.8-3.51,3.28-3.34,6-2.57,2.25.64,4.06,1.37,2.23,4.33a2.93,2.93,0,0,0,1.14,3.75c2.75-1.71,5-.58,7.42,1.64a8.16,8.16,0,0,0,5.45,1.69,8.62,8.62,0,0,1,5.56,1.86c3.66,2.52,8.38,2.14,9.12-1.78,1-5.43,6.59-5.78,8-10.35,2.09,2.74,2.09,2.74,2.15,3.56.43,6.51.49,6.32,6.8,8.25,1.68.51,2.71.92,4.36,0a4.09,4.09,0,0,1,5.52,1.19,36.84,36.84,0,0,1,2.95,3.45c2.23,3.51,4.76,3.39,8.66,2.43,3-.74,5-3.08,8-3.36,5.35-.5,8.28-3.86,9.53-8.9,1-3.92.25-10,7.59-8.6a1.24,1.24,0,0,0,.84-.42,8,8,0,0,1,4.44-2.21l-.58-2.5c.4-6.32,2.61-11.61,7.57-15.95,2-1.75,2.8-4.95,3.94-7.58,1.4-3.22,1.69-7.64,4.06-9.6,5.37-4.43,4.34-8.58,1.57-13.5a15.56,15.56,0,0,0-2.6-3.4L339.15,448c-1.58,3.76-6.51,5.4-6.53,10.26a2,2,0,0,1-2,1.79c-1.23-.05-2.53-.72-2.45-1.35.36-2.56-2-5.52.76-7.68,3.12-2.45,2.54-6.94,5.51-9.47l-1.68-4.24c2.54-4.81,4.51-9.62,1.37-15-.36-.62.26-2.1.81-2.91,1.71-2.53,1.9-5.65,3.56-8.31.82-1.31,2.32-5.37-1.9-6.23-2.79-.57-2.93-2.36-3.09-4.73-.17-2.6-.44-5.44-4.16-6.08-2.08-.36-4.29-6.47-3.43-8.46a14.44,14.44,0,0,1,3.43-4.48l-.87-.22c-3.85-4.34-7.76-8.36-14.09-9.09-3-.35-3.78-3.08-2.14-5.87a27.17,27.17,0,0,1,2.13-3c2.19-2.76,1.7-4.67-1.73-6-1.42-.53-3.74-.23-3.7-2.16.05-2.3-1.47-4.57-.14-6.85,1.06-1.8,1.39-3.57-.43-5.12-.72-.62-1.05-1.43-.4-2.13,3.43-3.61,2.15-10.06,7.65-12.49a8.25,8.25,0,0,0,3-3c1.45-2.07,0-5-2-6.46-4.74-3.35-10.35-4.77-15.54-7-3.51-1.48-2.77-5.23-5.29-6.56-6,2.2-11.06-1-17.07-2.1-2.51,1.41-3.13,3.61-2.5,7.17.83,4.68-2.46,7.74-6.29,9.74-2.33,1.21-3.39,2.67-3,5.2.5,2.83-2.33,3.39-3.41,5.19,2,3.73.23,7.43-.6,11-.32,1.39-1,2.76-1.19,4.3-.58,3.91-4.5,5.48-8.07,3.44-1.1-.63-2.28-1.63-3.41-1.61-2.38,0-2.87-1.22-3-3.1-.19-3-.87-5.53-4.69-5.11a2.1,2.1,0,0,1-2.09-1.33c-.64-1.08-.64-3-2.19-2.89-3.21.13-6.27-1-9.4-.84-1.73.08-1.92,1.78-1.73,3.33.41,3.22-1,4.95-4.25,4.21-3.39-.79-4.83,2.07-6.25,3.65l-3.17,2.4c-.44,2.26-2.15,3.48-4,4.8,1.47,2.83-.45,5.57-.44,8.46,0,1.93-5.52,3.86-7.48,2.48a49.11,49.11,0,0,1-4.18-3.1l-1,.62c-5.68,5.55-12.16,8-20.12,5.62a4.61,4.61,0,0,0-6,2.93c2.15,5.13,1.31,7.26-3.77,9.81l-4.71,2.12c-1.93.71-2.24,2.22-2.2,3.89.06,3-.62,5.65-3,7.7-3.26,2.81-3.51,6.87-4.23,10.7-.12.64-.66,1.68.78,2.2,1.26.45,2.54.65,3-.53,1.4-4.08,5.53-3,8-4.81,2.43,1.34,2.57,4,4.07,5.69v.86c2-2.48,5.48-1.87,7.78-4.19,4.85-4.9,17.07-4,21.75,1.17a2.8,2.8,0,0,1,.84,2.16c-.11,2.95,1.23,5.07,4.44,6.48A41.33,41.33,0,0,0,194,425.27c-1.23,2.67-2.72,3-5.19,1.43l-.62.79c-1.63,2-3.78,3.75-1.81,6.91a2.19,2.19,0,0,1-1.61,3.34c-4.14.71-5.54,4.77-8.56,6.84a1.61,1.61,0,0,0-.39,2.56c2.6,3.24.68,5.32-1.74,7.28-1,.83-2.16,1.56-3.59,2.58,6.67,10.4,12,20.42,4.93,32.12-1.37,1.56-3.75.18-5.75,1.31-.23,1.9-.59,3.9-.68,5.91-.07,1.6-.68,3.48,2.09,3.93,1.71.28,2.75,1.67,2.61,3.76-.38,5.9-.29,6.13,5.53,6.34,3.28.11,4.71,1,3.36,4.29a12.88,12.88,0,0,1,5.33,2.41c3.64,2.33,6.26,4.68,6.86,9.17.11.88,2.15,2.06,3.68,1.69,4.23-1,8.65.34,12.89-1.54,2.25-1,5.07-.7,7.64-1Z"/></svg>