<svg id="Camada_1" data-name="Camada 1" xmlns="http://www.w3.org/2000/svg" xmlns:xlink="http://www.w3.org/1999/xlink" viewBox="0 0 900 630"><defs><style>.cls-1{fill:none;}.cls-2{clip-path:url(#clip-path);}.cls-3{opacity:0.3;}.cls-4{clip-path:url(#clip-path-2);}.cls-5{fill:#fff;}.cls-6{opacity:0.2;}.cls-7{clip-path:url(#clip-path-5);}.cls-8{opacity:0.5;}.cls-9{clip-path:url(#clip-path-7);}.cls-10{opacity:0.4;}.cls-11{clip-path:url(#clip-path-10);}</style><clipPath id="clip-path"><rect class="cls-1" width="900" height="630"/></clipPath><clipPath id="clip-path-2"><rect class="cls-1" x="262.3" y="81.33" width="623.2" height="343.79"/></clipPath><clipPath id="clip-path-5"><rect class="cls-1" x="14.5" y="14.72" width="353.28" height="367.78"/></clipPath><clipPath id="clip-path-7"><rect class="cls-1" x="42.77" y="302.67" width="305.16" height="313.5"/></clipPath><clipPath id="clip-path-10"><rect class="cls-1" x="325.12" y="283.85" width="402.04" height="308.15"/></clipPath></defs><title>map-white</title><g id="_1" data-name="1"><g class="cls-2"><g class="cls-3"><g class="cls-4"><path class="cls-5" d="M877,245.72a9.39,9.39,0,0,1-8.21-6.14c-4.1-9.5-12.42-15-19.9-19.36a31.78,31.78,0,0,0-7.06-2.73,47.4,47.4,0,0,1-4.92-1.66c-3.14-1.32-6.39-2.7-10.25-1.06a7.88,7.88,0,0,1-5.16-.23l-1-.34c-2.2-.77-4.7-1.65-6.91-1.26-3,.53-5.73-.1-8.36-.71l-.65-.15c-2.29-.54-3.44-.81-4.31-.24s-1.1,1.65-1.51,3.9-1.29,3.22-2.68,3.28c-2.32.11-3.8,1.2-5.36,2.35l-.51.37a8,8,0,0,1-10.73-1.59,25.37,25.37,0,0,0-7.05-6c-5-3.24-5.76-5-3.77-9l1.74-.29-.36-.63c-2-3.39-2.83-7.26-3.67-11-.21-1-.43-1.91-.66-2.84a4.58,4.58,0,0,0-2-2.62c-.94-.71-1.47-1.17-1.31-2.25a4,4,0,0,1,1.8-2.37c1-.79,2.09-1.69,2-3.28-.14-2.84.85-5.12,2.5-7.89a7.84,7.84,0,0,0,.93-4.53c-.36-3.75.54-7.37,2.91-11.74a10.87,10.87,0,0,0,1.05-5.77c-.31-6.49,1.93-12.61,4.09-18.53l.06-.18-.07-.18c-.71-1.79-2.53-2-4.13-2.19-2.49-.29-5-.81-7.46-1.32-1.21-.25-2.42-.5-3.63-.72-1-.18-1.61-.54-1.8-1a1.85,1.85,0,0,1,.44-1.61,21.74,21.74,0,0,0,3-7.67,29.46,29.46,0,0,1,1.67-5.28c3.21-7,2.39-10.51-3.53-15.13l-1.1-.88c-2.15-1.72-4.37-3.5-7.19-4.33l-.4-.12L752.91,92l0,.11c-.78,3.32-3.28,4.85-5.92,6.46a22.72,22.72,0,0,0-3.79,2.67,1.24,1.24,0,0,1-.85.29c-4.71-.6-9.21.44-13.57,1.44a60.82,60.82,0,0,1-7.93,1.47c-5,.47-10-.71-14.81-1.84-1-.23-2-.47-3-.68-1.15-.26-1.9-1.74-2.25-2.61-.5-1.25-1.14-2.5-1.76-3.71-1.27-2.49-2.46-4.84-2.64-7.28-.38-5.3-3.78-5.92-6.78-6.46-.52-.1-1.05-.19-1.56-.31a15,15,0,0,0-4.24-.16c-.61,0-1.23.07-1.85.07h-1.67l.38.73c1.49,2.92,1,5.92.41,9.09l-.07.42a9.86,9.86,0,0,1-.69,2c-.19.44-.38.89-.53,1.34a10,10,0,0,1-5.23,6.06,8.42,8.42,0,0,1-6.88-.06c-2.69-1.18-4.77-1.47-7.45.52-3,2.21-6.12,1.41-9.47.57-.81-.21-1.65-.42-2.48-.58-.23,0-.48-.1-.72-.16a5.45,5.45,0,0,0-2.46-.22c-5,1.11-7.07-1.53-8.88-6.15-1.29-3.27-3.25-5.27-5.67-5.78s-5.06.58-7.51,3c-.26.26-.55.51-.83.75a6.72,6.72,0,0,0-1.78,2c-.17.36-.34.74-.5,1.11-.88,2-1.58,3.59-4.18,3.3a15,15,0,0,0-2.32,0,7.18,7.18,0,0,1-4.33-.73c-1.15-.72-2.24-.34-3.3,0l-.56.18c-6.78,2.16-8.2,2.06-10.86-3.88a10.07,10.07,0,0,1-.59-2.08c-.37-1.74-.79-3.72-3.15-4.58a43.56,43.56,0,0,1-4.85-2.26c-3.16-1.64-6.45-3.32-10.29-3.31-3.25,0-4.42,2.5-5.45,4.7l-.18.37c-4.67-1.17-7,0-8.18,1.23-1.74,1.83-2,5-.74,8.85a4.27,4.27,0,0,1,0,3.11c-1,2.63-.17,4.93.79,6.84,1.41,2.79,2.74,5.43.7,9a18.42,18.42,0,0,0-1.67,5.3,20.59,20.59,0,0,1-1.44,4.92c-1.37,2.87-3,4.14-5.61,4.37h-.15a.84.84,0,0,0-.61.13l-.53.47c-2.87,2.12-6.39,3-9.81,3.85-4.35,1.09-8.85,2.22-12.2,5.86a20.3,20.3,0,0,0-6.28,2.39c-3.19,1.64-6.2,3.2-10,1.94a4.38,4.38,0,0,0-2.44.17c-.26.07-.52.14-.8.19-4.17.79-4.17.79-6.44-3l-.22-.38-.4.17c-3.82,1.63-8.14,3.46-9.93,8.23-1.68,4.51-5.17,7.14-8.9,9.87v-.73l-.08-.3c-.69-2-1.35-4-.77-6,.64-2.2-.85-3.07-1.94-3.7l-.45-.28c-3.86-2.41-5.06-4.86-4.15-8.47a3.25,3.25,0,0,0-.57-3,3.68,3.68,0,0,0-3.29-1c-.63.07-1.25.07-1.91.08a9.63,9.63,0,0,0-4.3.69,2.58,2.58,0,0,1-2,.24,2.38,2.38,0,0,1-1.22-1.48,3.18,3.18,0,0,0-1.93-2.06c-1.55-.5-3.39.53-4.64,1.35a3.82,3.82,0,0,0-1.93,2.64,4.12,4.12,0,0,0,1.39,3.25,2.35,2.35,0,0,1,.34.68c0,.12.1.24.15.38-2.74,3.64-6.62,4.84-10.72,6.1-1.49.46-3,.94-4.5,1.54-2.93,1.2-6,1.07-9,.94a23.83,23.83,0,0,0-8.13.58.82.82,0,0,1-.8-.06,1.75,1.75,0,0,1-.33-1.49c0-.4.07-.81.09-1.21a8,8,0,0,1,.8-3.7,39.39,39.39,0,0,0,2-4.25c1.42-3.29,2.76-6.4,6-8.35l.55-.33-.46-.45c-1.37-1.37-2.54-2.37-4-1.85-1.78.61-3.41.37-5.69-.86a2.31,2.31,0,0,0-2.57-.07c-5.52,3.13-9.8,1.19-14.53-2.67l-.83-.69a76.1,76.1,0,0,0-8-6c-3.61-2.23-6.32-.14-8.49,1.54-.34.26-.66.51-1,.74-5.06,3.65-6,3.91-10.53.39l-.2-.1a2.54,2.54,0,0,0-2.7,1c-5.23,6.43-12.5,6.83-20.11,6.69-2.59-.05-4.15-.08-5,.77s-.75,2.23-.61,4.86c.13,2.4-.87,2.58-3.06,3a8.44,8.44,0,0,0-6.3,4.25l-4.83-2.63c1.26-5.79,2.34-12.61,1.17-19.7a7.9,7.9,0,0,1,.29-3.56c.08-.24.18-.48.27-.71.49-1.18,1-2.53-.35-4.13a4.35,4.35,0,0,0-3.64-1.37,8.54,8.54,0,0,1-1,0,3.17,3.17,0,0,0-4,4,21.61,21.61,0,0,1-1,7.48c-.19.74-.38,1.48-.54,2.23-1.13,5.08-3.41,7.73-7.89,9.15a7.2,7.2,0,0,1-4.48.3c-3.89-1.05-6.89-.9-8.92.43a6.91,6.91,0,0,0-2.84,5.08,2.16,2.16,0,0,1-.58.87l-.13.16c-3,3.49-5.41,6.48-6.49,10.47-.36,1.29-1.46,1.31-2.66,1.21l-.26,0c-4.19-.28-6.92,1-8.1,3.94a6.12,6.12,0,0,0-.33,2.8,17.21,17.21,0,0,0,.85,2.62c.76,1.94,1.07,2.74-1.94,5a7.14,7.14,0,0,0-2.71,5.94c0,.72,0,1.45-.06,2.17a17.22,17.22,0,0,0,.37,5.69,2.64,2.64,0,0,1-1,3.28c-4.1,2.64-4.75,6.87-5.38,10.95-.09.61-.18,1.2-.28,1.79-.87,5-2.41,8.68-7.09,10.76a5.6,5.6,0,0,0-3.73,5.57l.48,1.08,1.45-.14c3.09-.28,6.29-.57,9.3-2.17.09,0,.5-.18,1.71.32,2.91,1.22,7.19,2.41,10.76-1.35a3,3,0,0,1,2.35-.84,2.42,2.42,0,0,1,1.42.45c1.83,3.08,4.72,3.87,7.5,4.64a24.26,24.26,0,0,1,3.16,1c2.08.88,3.27,2,3.55,3.18s-.3,2.55-1.66,4.09c-1.88,2.14-3.83,4.35-2.65,7.84a3.3,3.3,0,0,1-.38,1.77c-1.67,4.3-1.83,8.75-.52,14,1.25,5,2.39,6.27,7.53,5l.6-.15c2.1-.54,3.44-.75,4.36.81,1.67,2.82,4.11,2.8,6.47,2.78h1.88a6.62,6.62,0,0,1,3.55.75c3.24,1.85,6.9,3.95,10.75.43a1.45,1.45,0,0,1,1,0c3.38,2.37,5.67.05,7.5-1.81l.9-.89a14.34,14.34,0,0,0,3.93-5.27c.23-.63.63-1.41,1.25-1.54s1.28.41,1.73.88c.81.83,1.55,1.76,2.27,2.66s1.32,1.65,2,2.42A17.9,17.9,0,0,1,358,260.2a36.92,36.92,0,0,0,1.55,3.77c.37.73.09,2.12-.74,3.63-1.1,2-2.74,3.53-3.9,3.65-2.35.23-2.56,1.14-2.63,2.59a6.36,6.36,0,0,1-.35,2.08c-.84,2.28-4.32,6.26-6.41,8.14-1.66,1.49-2.31,2.28-2.14,4.05a3.21,3.21,0,0,1-.54,2.61,3.63,3.63,0,0,1-2.82.73,11.24,11.24,0,0,0-2.1.18,8.36,8.36,0,0,1-2.14.16,3.09,3.09,0,0,0-2.77.67,2.76,2.76,0,0,0-.31,2.56,2.6,2.6,0,0,1-.49,1.94c-.13.24-.26.48-.37.74-.22.51-.5,1-.76,1.51-.95,1.78-1.93,3.62-1.07,6.16.2.58-.15,1.1-.74,1.89a4.41,4.41,0,0,0-1.15,2.78l0,.17a20.39,20.39,0,0,0,3.52,5.14,20,20,0,0,1,3.64,5.37,3.72,3.72,0,0,0,2.38,2.18,3.44,3.44,0,0,0,2.93-.32c4.23-2.81,7-.72,9.87,1.5a24.52,24.52,0,0,0,2.95,2c1.83,1,2.52,3,2.95,4.88.48,2,1.29,3.35,3.71,3.3a15.44,15.44,0,0,1,3.62.47c2.05.42,4.16.85,6.4,0a2.86,2.86,0,0,1,2.53.69c5.07,3.71,7.3,3.36,11.35-1.76.55-.7,1.13-1.37,1.71-2l.6-.7A116.16,116.16,0,0,1,412,341.12l.32.18,7.1-7.1c2.24.9,3.2,1.56,3.08,3.43a5.08,5.08,0,0,0,3.74,5.11c2,.69,3.54-.88,4.78-2.14,3.4-3.46,5.65-7.73,7.82-11.86l.63-1.19c1.91-3.62,3.95-5.75,8.22-5.23a4.56,4.56,0,0,0,4.3-1.89c1.15-1.54,2.23-2.31,3.29-2.35s2.09.59,3.25,1.91a3.5,3.5,0,0,0,1.95.85c.34.08.7.16,1.06.28l.35.12.22-.3c.59-.83,1.21-1.65,1.83-2.47,4.43-5.87,9-11.93,5.74-20.38,9,1.43,12.53-4.64,16-10.5.58-1,1.19-2,1.81-3,3.46,1.39,5.29,2.89,5.08,6.43-.19,3.23,1.9,5.46,3.49,6.86,1.37,1.21,2.2,2.06,2.15,2.57s-1.4,1.34-2.87,2.13a7.71,7.71,0,0,0-3.6,8.69c.83,2.65,2.63,3.71,6,3.55,2.37-.12,5.16,2,7.08,5.38,1.6,2.83,2.12,5.84,1.36,7.85-1.67,4.42-1.7,8.88-.11,14.9a18.67,18.67,0,0,0,1,2.61c.67,1.54,1.3,3,1,4.35a4.33,4.33,0,0,1-.61,1.3c-.59,1-1.33,2.25-.34,3.8.2.31.38.62.57.94,1,1.61,2,3.28,3.95,4a46.19,46.19,0,0,1,6.54,3.05c4.55,2.41,9.25,4.91,15.09,3.91a3.35,3.35,0,0,1,1.74.56c.19.1.38.2.57.28-.11.47-.22.93-.34,1.39a32,32,0,0,0-.8,4l0,.15c-.17,1.53-.35,2.26-1.29,2.34-3.29.29-4,2.51-4.63,4.46a11.9,11.9,0,0,1-.63,1.69l-.17.36,4.12,3.35.28-.12c2.14-.89,11.88-.43,14.78.62-3.73,7.63-1.3,14.83,1,21.8.49,1.46,1,3,1.44,4.46l.13.44,10.42-2.31.33-.09c2.33-.66,4-1.13,5.49-3.42.28-.44.55-.9.82-1.36,1.48-2.55,2.88-5,6.66-3.67.48.16.93-.22,1.37-.6l.35-.28c1.84-1.31,3.49-.6,5.41.23l.53.23a25.73,25.73,0,0,1,5,3c2.27,1.63,4.62,3.32,7.61,3.95l.33.07.18-.28c2.24-3.35,2.88-7.29,2-12.41-.45-2.65-.26-4.5.57-5.49a17.81,17.81,0,0,0,3.13-6.67c.21-.72.43-1.44.68-2.15l.21-.63a4.55,4.55,0,0,1,1.9-2.93c.57.25,1.15.47,1.74.7,2.38.93,4.84,1.89,6.37,4.25A45.7,45.7,0,0,0,622.3,395.7c6.41,4.56,13.58,8.68,22.5,7.9l.34,0c.61-.09.75-.06.87.17a6.39,6.39,0,0,0,3.27,2.72c1.71.86,3.19,1.61,3.2,3.9,0,1.14,1.56,1.54,2.82,1.86a24.92,24.92,0,0,0,8.89.22c.94-.09,1.89-.19,2.83-.24l.85-.06c2.56-.19,4.77-.36,6.07,3.05,1.78,4.69,5.84,8.07,11.72,9.78a4.29,4.29,0,0,0,1.22.16,12.51,12.51,0,0,0,5.67-1.83c2.62-1.51,4.44-3.43,4.85-5.12,2.11-8.58,5.78-13.47,11.85-15.83.77-.2,1.08.15,1.56.77l.24.31c1.45,1.73,2.76,3.65,4,5.5,2.76,4.05,5.61,8.24,10.23,10.88l.72.41.05-1.56a44.17,44.17,0,0,1,5.37-5.82c3.08-3,6.27-6.06,7.91-10.4a.78.78,0,0,1,.42-.49c.27-.12.81-.17,1.88.27,2.35,1,5,2.06,7.49-.85a2.92,2.92,0,0,1,1.69-.54,2.09,2.09,0,0,1,1.24.18c2.1,1.88,3.52.77,4.66-.13a6.16,6.16,0,0,1,1.12-.76L758,400c.48,2,1.35,4,3.74,4.73,1.53.5,3.82,0,6.11-1.39,1.84-1.11,3.92-3,4.26-4.92a3.41,3.41,0,0,1,1.55-2.71,34.36,34.36,0,0,0,5.63-4.76c.56-.6,1.15-1.17,1.63-1.14.31,0,.67.26,1.07.75a3.79,3.79,0,0,1,.5.94c.29.71.65,1.58,1.74,1.75,3.45.25,5.83-1.45,8.13-3.09l.56-.41a2.36,2.36,0,0,0,1.19-1.73,2.67,2.67,0,0,0-1.09-2.05c-1.51-1.38-2.1-2.21-2-2.86s1.17-1.66,2.81-2.72l.53-.35c1.94-1.27,3.62-2.37,6.36-1.5a5.8,5.8,0,0,0,5-1,3.93,3.93,0,0,0,1.78-3.15c-.06-4.94,3.06-6.47,6.37-8.1l1.94-.95h-2.72a6.25,6.25,0,0,1-.26-5.81,6.47,6.47,0,0,1,5.16-3.45c3.24-.4,6.92-.87,9.1-5.9l.2-.45-.46-.2-.41-.22a4.49,4.49,0,0,0-1.6-.61c-3-.3-3.14-2.2-2.95-5.06a3.6,3.6,0,0,1,3.78-3.76,3,3,0,0,0,2-1.06,2.14,2.14,0,0,1,1.05-.7l.24-.05.15-.29c4.35,6.84,5.39,6.91,12.56,2.77a6.45,6.45,0,0,1,2.08-.69l.37-.08a3.17,3.17,0,0,0,2.35-1.54,3.94,3.94,0,0,0-.29-3.39,8.86,8.86,0,0,0-3.53-3.57,19,19,0,0,1-1.6-1.19l.06-.18c.6-1.81,1-2.83,2.5-2.88,4.28-.15,6-3.08,7.6-5.91.4-.7.82-1.43,1.27-2.08a3.09,3.09,0,0,0-.37-3.56c-.65-.74-1.23-1.5-1.85-2.31l-.6-.79.76-1.28c.71-1.21,1.42-2.4,2.16-3.56a4.3,4.3,0,0,1,1.47-1.16c1-.58,2.1-1.24,1.9-2.59-.66-4.39,2-5.94,5.06-7.75.42-.24.83-.48,1.23-.73l.28-.18,0-.33c-.36-2.31-.36-2.31,4-5l.31-.2-.09-.36a14.82,14.82,0,0,0-.75-2,8.74,8.74,0,0,1-.92-3.18c6.68-1.76,9.58-7.63,12-13.5l.53-1.3c1.57-3.93,3.06-7.64,6.51-10.34a3.88,3.88,0,0,0,1.45-2.46c.29-3.95-4.72-10.27-8.51-10.74"/></g></g></g></g><g id="NameTrasMontes"><g class="cls-2"><path id="title" class="cls-5" d="M486.65,245.22l-2.43-3.51h-2.68v3.51h-2.92v-12.6h5.45a7,7,0,0,1,2.91.56,4.37,4.37,0,0,1,1.9,1.58,4.43,4.43,0,0,1,.67,2.43,4.12,4.12,0,0,1-2.6,4l2.83,4.05Zm-.74-9.66a3.12,3.12,0,0,0-2-.56h-2.37v4.39h2.37a3,3,0,0,0,2-.58,2.28,2.28,0,0,0,0-3.25m17.84,7H497.9l-1.12,2.7h-3l5.62-12.6h2.88l5.63,12.6h-3.06Zm-.92-2.21-2-4.83-2,4.83ZM501.64,229h3l-3.25,2.59h-2.2Zm12.45,16a10.3,10.3,0,0,0,2.89.41,7.49,7.49,0,0,0,2.93-.52,4,4,0,0,0,1.81-1.42,3.44,3.44,0,0,0,.6-2,2.93,2.93,0,0,0-.65-2,4,4,0,0,0-1.58-1.08,20.55,20.55,0,0,0-2.36-.68,11.14,11.14,0,0,1-2.06-.62,1,1,0,0,1-.67-1,1.21,1.21,0,0,1,.58-1,3.31,3.31,0,0,1,1.81-.39,7.11,7.11,0,0,1,3.49,1l.9-2.21a7.18,7.18,0,0,0-2-.83,9.84,9.84,0,0,0-2.36-.29,7.31,7.31,0,0,0-2.93.53,4,4,0,0,0-1.79,1.41,3.55,3.55,0,0,0-.59,2,2.93,2.93,0,0,0,.66,2,3.66,3.66,0,0,0,1.57,1.1,20.32,20.32,0,0,0,2.36.69c.62.14,1.12.27,1.48.39a2.56,2.56,0,0,1,.9.48.93.93,0,0,1,.35.75,1.1,1.1,0,0,1-.59,1,3.65,3.65,0,0,1-1.84.37,7.27,7.27,0,0,1-2.23-.36,6.64,6.64,0,0,1-1.92-1l-1,2.2a6.77,6.77,0,0,0,2.24,1.05M527.54,240h5.1v-2.25h-5.1Zm13.92,4.63a6.21,6.21,0,0,1-2.46-2.33,6.71,6.71,0,0,1,0-6.68,6.21,6.21,0,0,1,2.46-2.33,7.44,7.44,0,0,1,3.54-.85,7.34,7.34,0,0,1,3.53.85,6.42,6.42,0,0,1,0,11.34,7.23,7.23,0,0,1-3.53.85,7.32,7.32,0,0,1-3.54-.85m5.56-2.15a3.66,3.66,0,0,0,1.41-1.43,4.54,4.54,0,0,0,0-4.18A3.66,3.66,0,0,0,547,235.4a4.24,4.24,0,0,0-4,0,3.68,3.68,0,0,0-1.42,1.43,4.54,4.54,0,0,0,0,4.18,3.68,3.68,0,0,0,1.42,1.43,4.24,4.24,0,0,0,4,0M558.94,245a10.35,10.35,0,0,0,2.89.41,7.58,7.58,0,0,0,2.94-.52,4,4,0,0,0,1.8-1.42,3.38,3.38,0,0,0,.61-2,2.89,2.89,0,0,0-.66-2,4,4,0,0,0-1.57-1.08,21.16,21.16,0,0,0-2.36-.68,10.89,10.89,0,0,1-2.06-.62,1,1,0,0,1-.68-1,1.22,1.22,0,0,1,.59-1,3.31,3.31,0,0,1,1.81-.39,7.14,7.14,0,0,1,3.49,1l.9-2.21a7.25,7.25,0,0,0-2-.83,9.78,9.78,0,0,0-2.36-.29,7.26,7.26,0,0,0-2.92.53,3.92,3.92,0,0,0-1.79,1.41,3.48,3.48,0,0,0-.6,2,2.93,2.93,0,0,0,.66,2,3.69,3.69,0,0,0,1.58,1.1,20.08,20.08,0,0,0,2.35.69c.63.14,1.12.27,1.49.39a2.75,2.75,0,0,1,.9.48,1,1,0,0,1,.35.75,1.12,1.12,0,0,1-.59,1,3.65,3.65,0,0,1-1.84.37,7.22,7.22,0,0,1-2.23-.36,6.57,6.57,0,0,1-1.93-1l-1,2.2a6.87,6.87,0,0,0,2.24,1.05M572.4,240h5.09v-2.25H572.4Zm25.48,5.26,0-12.6h-2.4l-4.64,7.83-4.72-7.83h-2.41v12.6h2.74v-7.4l3.69,6.07h1.31l3.71-6.23,0,7.56Zm9.16-.63a6.23,6.23,0,0,1-2.47-2.33,6.71,6.71,0,0,1,0-6.68,6.23,6.23,0,0,1,2.47-2.33,7.75,7.75,0,0,1,7.06,0,6.42,6.42,0,0,1,0,11.34,7.75,7.75,0,0,1-7.06,0m5.55-2.15A3.66,3.66,0,0,0,614,241a4.46,4.46,0,0,0,0-4.18,3.66,3.66,0,0,0-1.41-1.43,4.24,4.24,0,0,0-4,0,3.66,3.66,0,0,0-1.41,1.43,4.46,4.46,0,0,0,0,4.18,3.66,3.66,0,0,0,1.41,1.43,4.24,4.24,0,0,0,4,0m19.35-9.82v7.65l-6.26-7.65h-2.42v12.6h2.88v-7.65l6.29,7.65h2.39v-12.6ZM644,245.22h2.91V235h4v-2.38H640V235h4Zm15-2.34V240h5.85V237.7H659V235h6.62v-2.34h-9.52v12.6h9.76v-2.34Zm14,2.15a10.3,10.3,0,0,0,2.89.41,7.49,7.49,0,0,0,2.93-.52,4,4,0,0,0,1.81-1.42,3.45,3.45,0,0,0,.61-2,2.89,2.89,0,0,0-.66-2,3.92,3.92,0,0,0-1.58-1.08,20.92,20.92,0,0,0-2.35-.68,11,11,0,0,1-2.07-.62,1,1,0,0,1-.67-1,1.21,1.21,0,0,1,.58-1,3.33,3.33,0,0,1,1.81-.39,7.14,7.14,0,0,1,3.5,1l.9-2.21a7.25,7.25,0,0,0-2-.83,9.78,9.78,0,0,0-2.36-.29,7.22,7.22,0,0,0-2.92.53,4,4,0,0,0-1.8,1.41,3.55,3.55,0,0,0-.59,2,2.93,2.93,0,0,0,.66,2,3.72,3.72,0,0,0,1.57,1.1,20.32,20.32,0,0,0,2.36.69c.63.14,1.12.27,1.49.39a2.75,2.75,0,0,1,.9.48,1,1,0,0,1,.35.75,1.11,1.11,0,0,1-.6,1,3.58,3.58,0,0,1-1.83.37,7.17,7.17,0,0,1-2.23-.36,6.57,6.57,0,0,1-1.93-1l-1,2.2a6.77,6.77,0,0,0,2.24,1.05m-206.56.19h2.92V235h4v-2.38h-11V235h4Z"/></g></g><g id="_2" data-name="2"><g class="cls-2"><g class="cls-6"><g class="cls-7"><path class="cls-5" d="M367.11,334.25h-.27a20.74,20.74,0,0,1-3-.46,17.06,17.06,0,0,0-3.85-.49c-1.6.06-2.24-.56-2.7-2.53s-1.26-4.31-3.45-5.52a24.61,24.61,0,0,1-2.82-2c-3-2.33-6.21-4.74-11-1.53a2.54,2.54,0,0,1-2.08.2,2.8,2.8,0,0,1-1.76-1.6,20.91,20.91,0,0,0-3.79-5.64,19.64,19.64,0,0,1-3.33-4.8,3.63,3.63,0,0,1,1-2.05c.59-.8,1.25-1.71.88-2.82-.73-2.12.11-3.7,1-5.36.27-.51.56-1,.79-1.59.1-.22.22-.43.34-.65a3.57,3.57,0,0,0,.58-2.66,1.94,1.94,0,0,1,.09-1.66c.29-.32.93-.44,1.92-.34a9.08,9.08,0,0,0,2.39-.16,9.82,9.82,0,0,1,1.91-.17,4.52,4.52,0,0,0,3.59-1,4.17,4.17,0,0,0,.81-3.4c-.13-1.3.25-1.8,1.81-3.21l6.37-8.86-.1-.26a2.72,2.72,0,0,1-.18-2.36c.35-.57,1.25-.93,2.73-1.08,1.75-.17,3.61-2.21,4.67-4.16s1.3-3.51.77-4.57a33.5,33.5,0,0,1-1.51-3.66,19.19,19.19,0,0,0-3.59-6.77c-.7-.76-1.36-1.58-2-2.38s-1.49-1.86-2.33-2.72c-1.14-1.19-2.08-1.3-2.66-1.17s-1.41.6-2,2.18a13.33,13.33,0,0,1-3.69,4.9c-.3.3-.61.59-.91.9-2.2,2.22-3.71,3.44-6.22,1.69a2.2,2.2,0,0,0-2.28,0c-3.32,3-6.36,1.29-9.66-.61a7.6,7.6,0,0,0-4-.83h-1.9c-2.27,0-4.22,0-5.6-2.29s-3.65-1.74-5.47-1.27l-.58.14c-4.31,1-5.14.47-6.33-4.31-1.26-5.05-1.11-9.31.49-13.44a3.77,3.77,0,0,0,.39-2.42c-1-2.94.6-4.76,2.45-6.85,1.59-1.8,2.22-3.48,1.88-5s-1.74-2.86-4.13-3.88a24.61,24.61,0,0,0-3.28-1.07c-2.72-.74-5.28-1.44-6.92-4.18a2.78,2.78,0,0,0-2-.92,4,4,0,0,0-3.37,1.13c-2.42,2.55-5.4,2.9-9.65,1.12a3.1,3.1,0,0,0-2.56-.28c-2.83,1.5-5.79,1.77-8.93,2.05l-1.93.19,0,0v-.13a4.63,4.63,0,0,1,3.14-4.62c5.39-2.39,6.87-6.95,7.66-11.51.11-.59.2-1.2.29-1.81.6-3.86,1.21-7.86,4.94-10.26a3.64,3.64,0,0,0,1.41-4.4,15.84,15.84,0,0,1-.34-5.37c0-.74.07-1.47.06-2.21a6.12,6.12,0,0,1,2.32-5.14c4.52-3.41,3.8-5,1.56-8.54l-.84-1.54-.46.29a14.45,14.45,0,0,1-5.51,1.69,21.59,21.59,0,0,0-4.3,1c-2.62,1-6,1.95-8.87-.16a1.37,1.37,0,0,0-1.41,0c-3.55,2.5-6.42,1-9.45-.63a25.71,25.71,0,0,0-3.37-1.57,3.48,3.48,0,0,0-1.36-.08l-.51,0h-.23l-.39.45a18,18,0,0,0,0-3,13,13,0,0,1,.11-3.69,25.22,25.22,0,0,0-3-19.19l-.18-.29-.55.1c-2.19.4-4.46.82-6.7,0l-.84,0c-.06-.22-.11-.44-.17-.66-.74-2.83-1.5-5.76-4.33-7.9-1.76-1.33-1.73-5.93.06-8.63,1.11-1.67,2.13-3.43,3.12-5.13,2.18-3.75,4.44-7.62,7.73-10.8,2.13-2,4.73-5.36,5-9.54.13-1.74,1-2.59,3-3a7.58,7.58,0,0,0,6-5.84c.55-2.06,2.05-3,5-3.19,7.7-.47,11.12-3.3,11.83-9.75.44-4-.59-8.39-1.66-12.11-1.29-4.52-2.87-8.71-7.9-10.26a4.66,4.66,0,0,1-1.55-1.07c-.29-.25-.59-.51-.92-.76l-.27-.21-.3.19c-2.57,1.64-5.16,3-8.55,2-3-.94-5.26,1.68-6.45,3.08-1.41,1.65-2.81,2.48-3.75,2.22-1.81-.49-1.9-2.13-1.83-4.56v-.34c.14-5.46,0-12.6-2.55-19.44a2.27,2.27,0,0,1-.06-1.6c3.45-4.34,1-7.6-1.76-10.56l-.56-.6-.71,2c-.77,1.71-2.3,2.52-3.91,3.39a11.76,11.76,0,0,0-3.39,2.36,3.91,3.91,0,0,1-3.14-.74c-2.11-1.45-3.67-1.89-4.91-1.38s-2.08,2-2.59,4.61c-.3,1.53-.7,2.35-1.24,2.6s-1.06,0-1.87-.45a2.55,2.55,0,0,0-3.2.34l-.33.23a23.77,23.77,0,0,0-3.15,2.67l-.8.75c-.42.4-.83.81-1.24,1.23-1.75,1.8-3.41,3.51-6.5,3.08a2.61,2.61,0,0,0-2,.57,5.12,5.12,0,0,0-1.75,3.52c-.22,1.74-.56,3.43-1.56,4-.8.46-2.11.3-4-.5-6.16-2.61-6.48-2.54-11.13,2.53l-.11.12c-1.65,1.79-2.93,2-4.45.81a4.68,4.68,0,0,0-6.14,0c-1.93,1.52-3.43,2.14-4.72,2a5,5,0,0,1-3.19-2.32l-.09-.13a2.53,2.53,0,0,0-2.48-1.4,38,38,0,0,1-6.13,0c-3.68-.2-7.49-.41-11.12,1.37a4.61,4.61,0,0,1-3.74.29c-3-1.76-4.82,0-6.24,1.49l-.18.19,0,.25c.47,2.45.18,4.39-.85,5.76s-2.93,2.24-5.56,2.49c-1.09.1-2.21.3-3.29.49-3.49.63-6.78,1.22-10.13-1-1.55-1-3.32-.43-5,.16a11.86,11.86,0,0,1-2.46.66,15.44,15.44,0,0,0-10.87,6.24l-.19.25c-2.38,3-4.42,5.59-4,9.72.59,5.18-2.87,7.42-6.54,9.79l-1.33.87a39,39,0,0,1-7.49,3.57,34.32,34.32,0,0,0-8.84,4.5l-.29.23c-3,2.35-5.65,4.38-3.93,9.44.73,2.14-.77,5.24-3.41,7.06-1.15.79-2.28,1.63-3.41,2.46-1.4,1-2.84,2.09-4.3,3-2.21,1.47-4.9,1.9-7.49,2.31l-.44.07c-3,.48-5.13,1.82-6.23,3.87-2.62,4.87-6.43,11-12.73,15.21a6.72,6.72,0,0,0-2.27,3,.73.73,0,0,0,.09.59c1.95,2.9.78,5.19-.45,7.62a17.23,17.23,0,0,0-1.37,3.19,11.69,11.69,0,0,0,2.2,10.2c1.15,1.55,1.13,2.77-.06,4.09-1.55,1.71-1.85,3.2-1.14,5.69a11.72,11.72,0,0,1-.62,8.14c-3.2,6.71-1.37,13.17.79,19.21A193.52,193.52,0,0,0,25.23,216a4.7,4.7,0,0,0,1,1.47,29.37,29.37,0,0,0,2.8,2c2.1,1.36,2.74,1.77,2.5,5.29-.6,8.68,1.2,16.39,5.33,22.94L37,248a10.33,10.33,0,0,0,.63,1l-.28.16,0,.34a12.7,12.7,0,0,1-.06,3,13.51,13.51,0,0,0-.08,3.12A57,57,0,0,0,39,263.37a49,49,0,0,1,1.77,8.9,9.74,9.74,0,0,0,.32,1.69,15,15,0,0,1,.34,1.75q1.1,11.12,2.14,22.24a10.33,10.33,0,0,0,1.84,4.47,11,11,0,0,1,1.68,3.68,13.52,13.52,0,0,1,.21,2.89l0,.52H49.1c.52.08,1,.15,1.58.21,4.8.62,9.33,1.2,11.21,6.77l.19.56.52-.27c1.76-.93,3.2-1.19,4.4-.81,1.72.54,2.77,2.38,3.71,4.22l.09.18.2.07a4.72,4.72,0,0,0,4.07-.87c1.08-.64,2.1-1.24,3.5-.81,4.57,1.39,7.28,4.31,8.51,9.21.52,2.11,1.55,4.48,4.89,4.13a2.23,2.23,0,0,1,1.65.61,3.27,3.27,0,0,0,1.29.65l1.35.07-.08.41.33.17.54.29a6.65,6.65,0,0,0,4.86,1.1c1.37-.27,1.94.76,2.75,2.46a9.11,9.11,0,0,0,1.41,2.34c-.66,2-2.15,2.27-3.87,2.63a8.8,8.8,0,0,0-2.42.73c-2.32,1.21-4.25,2.76-2.72,5.86a18.22,18.22,0,0,1,1.44,5.95c.4,3,.8,6.16,3.22,8.78l.3.33.36-.27c2.94-2.13,6.54-1.74,10-1.36.51.06,1,.14,1.57.23,2.1.34,4.28.69,6.44-.57a2.19,2.19,0,0,1,1.42-.11c2.07,2.48,4.21,1.55,5.93.8a6.22,6.22,0,0,1,2.61-.73c.72,0,1.66-1,1.76-1.65.74-5.22,3.77-7.6,9.82-7.73a5,5,0,0,0,1.79-.49,8.25,8.25,0,0,1,.9-.34c.49-.13,1-.29,1.46-.44,3.41-1.06,6.36-2,8.75,2.29,1.74,3.09,4.51,1.62,6.35.64.34-.18.68-.36,1-.5a7.54,7.54,0,0,0,2.56-2.5,14.36,14.36,0,0,1,1.08-1.34c3.11-3.32,3.37-3.6,6.94-2.39l-.05.08c-.22.37-.49.75-.75,1.12-1.22,1.71-2.74,3.85-.1,6.36l.22.21.28-.09c.47-.16,1-.39,1.44-.61s1.73-.8,2-.63c4.14,2.67,7.15.44,9.8-1.52.36-.27.72-.54,1.08-.79,1.66-1.17,3-2,4.75-1.6l.43.1.27.62a6,6,0,0,1,.69,2.23c.15,5.31,4.14,8.09,7.67,10.54l.66.46c1.42,1,4.28.53,6.23-.49,1.33-.69,2.05-1.55,2.05-2.4a12,12,0,0,1,.49-3c.41-1.71.84-3.47.08-5.28,1.77-1.29,3.39-2.56,3.84-4.87l0-.18,0,0a5.4,5.4,0,0,0,3-1.95c.25-.28.5-.6.76-.93,1.23-1.55,2.5-3.15,5-2.57,2.05.47,3.21-.08,3.81-.62.92-.84,1.29-2.27,1.05-4.14a3.25,3.25,0,0,1,.34-2.38,1.23,1.23,0,0,1,.91-.39,22,22,0,0,1,4.6.41,24.56,24.56,0,0,0,4.8.43c.67,0,.89.43,1.25,1.48a6.62,6.62,0,0,0,.49,1.16,2.61,2.61,0,0,0,2.57,1.58,3.54,3.54,0,0,1,2.8.59c1,.83,1.25,2.52,1.35,4.06.13,1.88.64,3.61,3.5,3.56a4.88,4.88,0,0,1,2.3,1c.29.18.58.37.86.53a6.22,6.22,0,0,0,5.86.41,5.44,5.44,0,0,0,3-4.21,15.83,15.83,0,0,1,.66-2.5,17.77,17.77,0,0,0,.52-1.76c.16-.69.36-1.39.55-2.08.81-2.92,1.66-5.94.14-9a7.24,7.24,0,0,1,1.29-1.23c1.13-.91,2.42-1.95,2-4.09s.37-3.46,2.68-4.67c5.09-2.64,7.3-6.1,6.56-10.26-.6-3.4,0-5.32,2.1-6.56a45.76,45.76,0,0,1,5,1.29c4,1.19,7.7,2.31,11.95.83a5,5,0,0,1,1.7,2.5,6.5,6.5,0,0,0,3.45,4c1.52.64,3.09,1.22,4.62,1.78,3.69,1.37,7.51,2.78,10.83,5.12,1.92,1.36,3.15,4,1.92,5.77a7.84,7.84,0,0,1-2.77,2.78c-3.45,1.52-4.39,4.51-5.29,7.39a12.68,12.68,0,0,1-2.52,5.21A1.63,1.63,0,0,0,307,342a2.4,2.4,0,0,0,.92,1.61c1.38,1.18,1.47,2.52.32,4.49-.95,1.64-.6,3.23-.26,4.77a9.62,9.62,0,0,1,.33,2.32c0,1.83,1.61,2.13,2.82,2.35a8.61,8.61,0,0,1,1.21.29c1.54.58,2.44,1.29,2.66,2.1s-.16,1.84-1.15,3.08a28.72,28.72,0,0,0-2.17,3.06,5,5,0,0,0-.55,4.69,3.73,3.73,0,0,0,3.06,1.93c6,.69,9.82,4.45,13.81,8.95l.92.86.34-.34.78-.76c1.67-1.62,3.39-3.29,4.24-5.64a11.71,11.71,0,0,0,4.86-2.2,10.62,10.62,0,0,1,4.25-2c5.72-.78,8.49-5.11,10.93-8.92.39-.6.77-1.2,1.16-1.78a15.26,15.26,0,0,0,2.61-11.37c-.62-3.34.63-5.66,3.71-6.89,1.68-.67,5.62-2.7,5.95-7.06v-.15Z"/></g></g></g></g><path id="NameMinho" class="cls-5" d="M127.41,228l0-7.56-3.7,6.23h-1.32l-3.69-6.07V228H116v-12.6h2.41l4.71,7.83,4.65-7.83h2.39l0,12.6Zm9.33,0h2.91v-12.6h-2.91Zm18.17-12.6V223l-6.26-7.65h-2.41V228h2.88v-7.65L155.4,228h2.39v-12.6Zm18.11,0v5H167.3v-5h-2.92V228h2.92v-5.16H173V228h2.92v-12.6Zm12.07,12a7.78,7.78,0,0,0,7.07,0,6.43,6.43,0,0,0,0-11.34,7.86,7.86,0,0,0-7.07,0,6.3,6.3,0,0,0-2.47,2.33,6.78,6.78,0,0,0,0,6.68,6.3,6.3,0,0,0,2.47,2.33m5.56-2.15a4.07,4.07,0,0,1-2,.51,4,4,0,0,1-2-.51,3.66,3.66,0,0,1-1.41-1.43,4.54,4.54,0,0,1,0-4.18,3.73,3.73,0,0,1,1.41-1.43,4,4,0,0,1,2-.51,4.07,4.07,0,0,1,2,.51,3.87,3.87,0,0,1,1.41,1.43,4.54,4.54,0,0,1,0,4.18,3.8,3.8,0,0,1-1.41,1.43"/><g id="_3" data-name="3"><g class="cls-2"><g class="cls-8"><g class="cls-9"><path class="cls-5" d="M345.62,455a15.62,15.62,0,0,0-2.67-3.49L339,447.09l-.31.73a12,12,0,0,1-2.89,3.7c-1.8,1.79-3.67,3.65-3.68,6.75,0,0-.27,1.37-1.5,1.3a2.66,2.66,0,0,1-2-.78,8.55,8.55,0,0,0-.29-2.93c-.37-1.72-.69-3.21.86-4.43,1.71-1.34,2.37-3.22,3-5a9.61,9.61,0,0,1,2.51-4.44l.27-.23-1.72-4.36c2.45-4.68,4.51-9.71,1.25-15.3a3.63,3.63,0,0,1,.79-2.38,16.88,16.88,0,0,0,1.9-4.35,17.66,17.66,0,0,1,1.68-4c.58-.93,1.48-3.15.73-4.89a3.77,3.77,0,0,0-3-2.1c-2.33-.47-2.51-1.72-2.69-4.27s-.39-5.82-4.57-6.54c-.53-.1-1.2-.82-1.81-1.95-1.12-2.05-1.7-4.78-1.25-5.82a13.86,13.86,0,0,1,3.32-4.32l.63-.62-1.57-.41c-4.07-4.58-8-8.41-14.32-9.14a2.69,2.69,0,0,1-2.27-1.38,4,4,0,0,1,.51-3.74,26.71,26.71,0,0,1,2.09-2.94c1.22-1.53,1.65-2.83,1.34-4s-1.4-2.06-3.28-2.77a7.72,7.72,0,0,0-1.38-.33c-1.41-.26-2-.46-2-1.35a10.41,10.41,0,0,0-.36-2.56c-.31-1.41-.6-2.74.16-4.05.5-.87,2-3.52-.54-5.75a1.53,1.53,0,0,1-.58-.91.63.63,0,0,1,.22-.49,13.78,13.78,0,0,0,2.74-5.6c.88-2.8,1.7-5.44,4.74-6.78a8.66,8.66,0,0,0,3.19-3.12c1.62-2.33.13-5.52-2.17-7.15a46.62,46.62,0,0,0-11.06-5.25c-1.51-.56-3.08-1.14-4.58-1.77-1.74-.73-2.31-2.05-2.91-3.45a5.55,5.55,0,0,0-2.34-3.09l-.2-.11-.21.08c-4,1.49-7.67.39-11.53-.77a47.21,47.21,0,0,0-5.27-1.35l-.18,0-.15.08c-2.62,1.48-3.44,3.78-2.75,7.7.65,3.68-1.38,6.78-6,9.2-2.68,1.39-3.67,3.16-3.21,5.74.28,1.55-.59,2.25-1.68,3.13a6.83,6.83,0,0,0-1.67,1.72l-.14.24.13.25c1.51,2.83.74,5.61-.09,8.55-.2.71-.39,1.42-.55,2.12s-.31,1.1-.5,1.68a15.46,15.46,0,0,0-.7,2.66,4.39,4.39,0,0,1-2.4,3.46,5.27,5.27,0,0,1-4.93-.38c-.26-.15-.54-.33-.81-.51a5.55,5.55,0,0,0-2.81-1.17h0c-2,0-2.37-.82-2.49-2.63s-.41-3.68-1.7-4.76a4.49,4.49,0,0,0-3.55-.81c-.74.08-1.15-.34-1.6-1.1a5.67,5.67,0,0,1-.41-1c-.32-.93-.74-2.23-2.23-2.15a23.58,23.58,0,0,1-4.6-.42,23.33,23.33,0,0,0-4.81-.42,2.14,2.14,0,0,0-1.63.75,4.06,4.06,0,0,0-.56,3.14c.19,1.54-.06,2.67-.73,3.28a3.35,3.35,0,0,1-2.92.38c-3.11-.72-4.79,1.39-6,2.93-.25.31-.48.61-.65.81L213,347.68l0,.19c-.4,2-1.94,3.15-3.79,4.49l-.35.25.2.38c.84,1.63.44,3.25,0,5a13,13,0,0,0-.51,3.25c0,.45-.58,1-1.52,1.52-1.65.86-4.13,1.29-5.19.55l-.66-.46a42.54,42.54,0,0,1-3.48-2.6l-.27-.24-.31.18a9.08,9.08,0,0,1-3.28-6.7,6.78,6.78,0,0,0-.77-2.61c-.15-.32-.3-.64-.42-1l-.12-.33h-.91c-2.33-.46-4.08.77-5.5,1.77l-1.1.8c-2.62,1.95-5.1,3.79-8.65,1.49-.72-.46-1.75,0-2.94.56-.36.17-.72.33-1.06.46-1.71-1.81-.76-3.15.44-4.84.25-.35.5-.71.72-1.06l1.77-.9-1.11-.39c-5.07-1.77-5.33-1.71-9.06,2.28a15.51,15.51,0,0,0-1.15,1.42,6.59,6.59,0,0,1-2.18,2.19c-.33.15-.68.34-1,.53-2.26,1.2-3.83,1.83-5-.26-2.79-5-6.57-3.78-9.91-2.74l-1.44.43a7.66,7.66,0,0,0-1,.37,4.25,4.25,0,0,1-1.43.42c-6.46.14-10,3-10.79,8.59a1.67,1.67,0,0,1-.71.79,7,7,0,0,0-3.07.82c-1.77.77-3.18,1.38-4.76-.53-.5-.6-2-.49-2.69-.11-1.85,1.07-3.85.75-5.78.44-.55-.09-1.09-.18-1.62-.23-3.54-.39-7.19-.78-10.35,1.29-2-2.32-2.3-5-2.67-7.9A19.8,19.8,0,0,0,98,349c-1.1-2.22,0-3.31,2.28-4.53a8.41,8.41,0,0,1,2.16-.63c1.85-.38,3.95-.81,4.72-3.62l.08-.3-.23-.21a7.2,7.2,0,0,1-1.4-2.25c-.78-1.61-1.65-3.45-3.86-3a5.66,5.66,0,0,1-4.18-1,9,9,0,0,0-2.48-1.06,2.48,2.48,0,0,1-.84-.47,3.14,3.14,0,0,0-2.34-.79c-2.06.21-3.17-.76-3.82-3.38-1.31-5.2-4.31-8.45-9.19-9.93a5,5,0,0,0-4.3.91,3.93,3.93,0,0,1-3.06.83c-1-2-2.18-3.88-4.2-4.52a6.23,6.23,0,0,0-4.65.62c-2.44-6.3-8.34-6.59-13.6-6.86a8.46,8.46,0,0,1-1.15-.25l-.61-.18,0,.64a33.39,33.39,0,0,1-.79,5.47,41.21,41.21,0,0,0-.72,4.31,33.76,33.76,0,0,1-2.54,10.17c-.94,2.12-.24,4.15.65,6a75.63,75.63,0,0,1,3.49,9.47c.44,1.37.87,2.73,1.34,4.09a44.05,44.05,0,0,0,2.17,4.91c1.64,3.34,3.19,6.49,3,10.29a2.2,2.2,0,0,0,.61,1.37,1,1,0,0,0,.7.38,3.56,3.56,0,0,1,2.71.93c.74.88.5,2.42.29,3.78-.07.42-.14.83-.17,1.21-.55,5.89.9,11.5,2.3,16.92a71,71,0,0,1,2.23,11,5.07,5.07,0,0,0,.37,1.22c.2.5.47,1.18.32,1.44-1.77,3-.88,5.85,0,8.59l.48,1.48c1.15,3.5,2.23,6.81,2,10.74A9.31,9.31,0,0,0,67,427.26c.87,1.78,1.76,3.62,1.36,5.66a1.08,1.08,0,0,0,.17.88,2.25,2.25,0,0,0,1.49.76c2.81.44,4.14,2.08,4.29,5.32a5.3,5.3,0,0,0,1.09,2.79c4.87,4.83,5.78,11.49,6.25,17.35a53.59,53.59,0,0,0,1.22,7c.83,3.75,1.68,7.62,1.07,11.69a27.09,27.09,0,0,0,2.38,15.65c2.89,6,1.92,12.32,1,18.43l-.21,1.37a79.32,79.32,0,0,0-.85,9.9,3.23,3.23,0,0,0,1.08,2.7,1.86,1.86,0,0,0,1.71.25,19.85,19.85,0,0,1,3.88-.73c2.67-.31,5.42-.64,7.43-3,2.55,1.42,2.35,3.42,1.82,5.87-.71,3.25.15,6.21,1.06,9.34l.13.43a43.87,43.87,0,0,0,2.36,6,31,31,0,0,1,2.71,7.56l.06.35c.33,1.87.67,3.81-.24,5.82-.31.68-.12,1.61.56,2.78,1.31,2.24,4.28,5,6.14,5.13l4.14.36.14-.07a16.14,16.14,0,0,0,4.84-4.93c.38-.51.76-1,1.15-1.53l.35-.67a2.17,2.17,0,0,1,1.71.6c.57.71.22,2,0,3l-.11.44a10.16,10.16,0,0,0-.38,4.52,4.13,4.13,0,0,1-2.55,4.58c-2,.89-4.12,2-5.37,4.76l-.2.45.44.21c1.21.58,1.79,1.82,2.4,3.14.7,1.5,1.46,3.15,3.29,3.74v0c0,.27-.07.54-.11.82-.32,2.54-.66,4.1-3.28,4.32a1.73,1.73,0,0,0-1.73,1.77c0,1-.07,2.08-.13,3.11a23.61,23.61,0,0,0,.36,7.66c.82,2.91,4.82,4.21,7,4.52,1.25.17,2,.49,2.33,1s.15,1.65-.2,2.84c-.49,1.67-.48,2.76,0,3.54s1.54,1.22,3.38,1.41l.7,0a3.51,3.51,0,0,0,3.65-2.56c.3-.9.74-2,1.42-2.16,5.76-1.66,10.51-2.88,14.93-3.85,2.11-.46,3.41.09,4.21,1.77s3,2.47,4.88,3l.37.1.19-.33a5.48,5.48,0,0,1,1.43-1.34c1.08-.81,2.31-1.72,1.94-3.36-.43-1.95.18-2.61,1.62-3.29a5.86,5.86,0,0,0,2.2-2c.18-.23.35-.46.54-.69a6.44,6.44,0,0,1,5.1-2.44,5.51,5.51,0,0,1,4.31,2.43,26.77,26.77,0,0,0,6.59,6,4.75,4.75,0,0,0,3.67,1.12,4.15,4.15,0,0,0,2.61-2.09c.67-1.08,1.33-1.65,2-1.68s1.48.53,2.36,1.68a3.54,3.54,0,0,0,2.74,1.62h0a3.42,3.42,0,0,0,2.7-1.59c.42-.55.89-.81,2-.56s1.68,1.48,2.24,2.78c.67,1.58,1.43,3.37,3.69,4l.42.11.17-.39a30.25,30.25,0,0,0,1.05-2.89c.76-2.33,1.55-4.73,3.58-6.38a1.82,1.82,0,0,0,.54-1.84c-.85-1.81-.07-2.54,1.52-3.78l.48-.39c3-2.4,4.43-9.53,2.74-13.37-.95-2.16-1.95-4.3-2.92-6.41L217,575l.67-.55a11.27,11.27,0,0,1,1.47-1.12c2.86-1.72,5.23-2.77,7.5.65a7,7,0,0,0,2.29,1.92,14,14,0,0,1,1.17.8c3.47,2.71,6.8,2.54,9.65-.48,1-1,2.24-2.41,3.44-3.88a2.9,2.9,0,0,1,2.23-1.27,2.06,2.06,0,0,1,1.61.9,11.87,11.87,0,0,0,4.59,3.33,18,18,0,0,1,2.48,1.38c2.81,1.94,7.48,1.11,10-1.8,1.5-1.73,2.17-3.31,2.05-4.81a5.16,5.16,0,0,0-2.08-3.54,2.06,2.06,0,0,1-.63-1.41l-.09-.45-.11-.51c-.54-2.54-1.1-5.17-3.91-6.72-1-.56-1.2-1.39-.74-3.27l.2-.8c.92-3.67,1.87-7.47-.42-11.6-2-3.53-3.34-7.54,1.35-10.41a4.07,4.07,0,0,0,1.3-1.67,7.17,7.17,0,0,1,.58-1c.74-.94,1.45-1.91,2.16-2.89a35.93,35.93,0,0,1,6.59-7.46c.84,1.38,2.44,1.87,5.61,2.83l.82.25c1.52.47,2.73.85,4.48-.17s3.49-.6,4.88,1.08c.37.44.77.87,1.17,1.29a14.19,14.19,0,0,1,1.75,2.11c2.5,3.93,5.52,3.55,9.2,2.64a14.38,14.38,0,0,0,3.75-1.68,10.32,10.32,0,0,1,4.22-1.66c5.2-.48,8.55-3.61,10-9.28.19-.73.31-1.54.43-2.32.33-2.15.68-4.38,2.18-5.43,1-.7,2.43-.86,4.4-.48a1.66,1.66,0,0,0,1.29-.55,7.44,7.44,0,0,1,4.17-2.08l.53-.08-.69-2.95c.43-6.56,2.79-11.5,7.4-15.54,1.61-1.4,2.46-3.63,3.28-5.78.26-.67.52-1.34.79-2a30.15,30.15,0,0,0,1.2-3.66c.66-2.35,1.28-4.57,2.72-5.75,5.46-4.51,4.62-8.91,1.69-14.13"/></g></g></g></g><g id="NameGrandePorto"><g class="cls-2"><path class="cls-5" d="M155.38,448.19H158v5.11a7.81,7.81,0,0,1-2.38,1.19,9.33,9.33,0,0,1-2.71.41,7.34,7.34,0,0,1-3.53-.84,6.18,6.18,0,0,1-2.46-2.32,6.77,6.77,0,0,1,0-6.71,6.17,6.17,0,0,1,2.48-2.32,7.46,7.46,0,0,1,3.56-.84,7.65,7.65,0,0,1,3,.56,5.87,5.87,0,0,1,2.26,1.62l-1.87,1.72a4.34,4.34,0,0,0-3.25-1.42,4.44,4.44,0,0,0-2.15.51,3.63,3.63,0,0,0-1.46,1.42,4.48,4.48,0,0,0,0,4.19A3.76,3.76,0,0,0,151,451.9a4.24,4.24,0,0,0,2.12.52,4.76,4.76,0,0,0,2.27-.54Z"/><path class="cls-5" d="M172.37,454.68l-2.43-3.51h-2.68v3.51h-2.92v-12.6h5.45a7,7,0,0,1,2.91.56,4.27,4.27,0,0,1,1.9,1.59,4.38,4.38,0,0,1,.67,2.43,4.29,4.29,0,0,1-.68,2.42,4.25,4.25,0,0,1-1.92,1.55l2.83,4.05Zm-.74-9.65a3.06,3.06,0,0,0-2-.57h-2.37v4.39h2.37a3.06,3.06,0,0,0,2-.57,2,2,0,0,0,.68-1.62,2,2,0,0,0-.68-1.63"/><path class="cls-5" d="M189.47,452h-5.85l-1.12,2.7h-3l5.62-12.6H188l5.63,12.6h-3.06Zm-.92-2.21-2-4.82-2,4.82Z"/><polygon class="cls-5" points="210.11 442.08 210.11 454.69 207.72 454.69 201.44 447.03 201.44 454.69 198.56 454.69 198.56 442.08 200.97 442.08 207.23 449.73 207.23 442.08 210.11 442.08"/><path class="cls-5" d="M216.7,442.08h5.73a8,8,0,0,1,3.62.79,5.82,5.82,0,0,1,2.45,2.2,6.68,6.68,0,0,1,0,6.63,5.88,5.88,0,0,1-2.45,2.2,8,8,0,0,1-3.62.78H216.7Zm5.58,10.21a4.25,4.25,0,0,0,3-1.05,4.2,4.2,0,0,0,0-5.71,4.25,4.25,0,0,0-3-1h-2.66v7.81Z"/><polygon class="cls-5" points="244.93 452.34 244.93 454.68 235.17 454.68 235.17 442.08 244.69 442.08 244.69 444.42 238.07 444.42 238.07 447.16 243.92 447.16 243.92 449.43 238.07 449.43 238.07 452.34 244.93 452.34"/><path class="cls-5" d="M164.44,466.64a4.33,4.33,0,0,1,1.9,1.59,4.72,4.72,0,0,1,0,4.85,4.24,4.24,0,0,1-1.9,1.58,7,7,0,0,1-2.91.55H159v3.47h-2.92v-12.6h5.45a7,7,0,0,1,2.91.56m-1.07,5.63a2.27,2.27,0,0,0,0-3.24,3.06,3.06,0,0,0-2-.57H159v4.37h2.37a3.06,3.06,0,0,0,2-.56"/><path class="cls-5" d="M175.42,478.05a6.3,6.3,0,0,1-2.47-2.33,6.69,6.69,0,0,1,0-6.67,6.32,6.32,0,0,1,2.47-2.34,7.4,7.4,0,0,1,3.54-.84,7.32,7.32,0,0,1,3.52.84,6.42,6.42,0,0,1,0,11.34,7.22,7.22,0,0,1-3.52.85,7.3,7.3,0,0,1-3.54-.85M181,475.9a3.75,3.75,0,0,0,1.42-1.43,4.52,4.52,0,0,0,0-4.17,3.78,3.78,0,0,0-1.42-1.44,4.24,4.24,0,0,0-4,0,3.68,3.68,0,0,0-1.41,1.44,4.44,4.44,0,0,0,0,4.17,3.66,3.66,0,0,0,1.41,1.43,4.16,4.16,0,0,0,4,0"/><path class="cls-5" d="M199.67,478.68l-2.43-3.51h-2.68v3.51h-2.91v-12.6h5.45a7,7,0,0,1,2.91.56,4.33,4.33,0,0,1,1.9,1.59,4.37,4.37,0,0,1,.66,2.43,4.07,4.07,0,0,1-2.59,4l2.83,4.05Zm-.73-9.65a3.08,3.08,0,0,0-2-.57h-2.38v4.39h2.38a3.08,3.08,0,0,0,2-.57,2,2,0,0,0,.68-1.62,2,2,0,0,0-.68-1.63"/><polygon class="cls-5" points="210.91 468.46 206.87 468.46 206.87 466.08 217.85 466.08 217.85 468.46 213.82 468.46 213.82 478.68 210.91 478.68 210.91 468.46"/><path class="cls-5" d="M225.4,478.05a6.21,6.21,0,0,1-2.46-2.33,6.69,6.69,0,0,1,0-6.67,6.23,6.23,0,0,1,2.46-2.34,7.43,7.43,0,0,1,3.54-.84,7.34,7.34,0,0,1,3.53.84,6.39,6.39,0,0,1,2.47,2.34,6.63,6.63,0,0,1,0,6.67,6.37,6.37,0,0,1-2.47,2.33,7.23,7.23,0,0,1-3.53.85,7.32,7.32,0,0,1-3.54-.85M231,475.9a3.66,3.66,0,0,0,1.41-1.43,4.52,4.52,0,0,0,0-4.17,3.68,3.68,0,0,0-1.41-1.44,4.24,4.24,0,0,0-4,0,3.71,3.71,0,0,0-1.42,1.44,4.52,4.52,0,0,0,0,4.17,3.68,3.68,0,0,0,1.42,1.43,4.16,4.16,0,0,0,4,0"/></g></g><g id="_4" data-name="4"><g class="cls-2"><g class="cls-10"><g class="cls-11"><path class="cls-5" d="M727.14,421.63a3,3,0,0,0-1.34-2.23c-4.42-2.52-7.21-6.61-9.9-10.57-1.28-1.87-2.6-3.81-4.08-5.57l-.22-.28a2.29,2.29,0,0,0-2.65-1.11c-6.47,2.51-10.33,7.61-12.52,16.54-.35,1.41-2,3.13-4.38,4.49s-4.75,2-6.11,1.58c-5.65-1.64-9.37-4.73-11.07-9.18-1.56-4.11-4.49-3.89-7.07-3.69l-.84.06c-1,.05-1.91.15-2.87.24-2.92.28-5.68.55-8.54-.19-.51-.13-2.07-.53-2.07-.89,0-2.91-2-3.91-3.75-4.8a5.57,5.57,0,0,1-2.82-2.25A1.59,1.59,0,0,0,645,403l-.27,0c-8.62.74-15.59-3.27-21.84-7.72a44.85,44.85,0,0,1-11.48-12.59c-1.71-2.64-4.32-3.66-6.85-4.64-.65-.26-1.3-.51-1.92-.79l-.22-.1-.21.11a5.35,5.35,0,0,0-2.6,3.63l-.21.61c-.25.72-.47,1.45-.69,2.18a16.94,16.94,0,0,1-2.93,6.33c-1,1.24-1.3,3.3-.79,6.29.8,4.7.27,8.34-1.67,11.4a20.3,20.3,0,0,1-6.9-3.71,27.73,27.73,0,0,0-5.15-3.15l-.52-.22c-2-.87-4.09-1.77-6.39-.12-.13.09-.27.21-.42.33a3.84,3.84,0,0,1-.49.38c-4.49-1.49-6.3,1.63-7.75,4.14-.27.45-.53.9-.8,1.32-1.28,2-2.65,2.36-4.92,3L550.18,412c-.41-1.36-.87-2.72-1.31-4-2.44-7.24-4.75-14.07-.88-21.5l.23-.43-.43-.24c-2.33-1.28-12.79-1.88-15.8-1l-3.06-2.49a14.83,14.83,0,0,0,.51-1.46c.62-1.9,1.14-3.54,3.76-3.77,1.87-.16,2.06-1.93,2.21-3.22v-.15a34,34,0,0,1,.78-3.87c.15-.59.3-1.19.44-1.81l.09-.42-.41-.15c-.28-.11-.57-.26-.87-.41a3.93,3.93,0,0,0-2.36-.66c-5.5.94-9.85-1.37-14.45-3.81a46.09,46.09,0,0,0-6.68-3.11c-1.65-.57-2.51-2-3.42-3.53-.19-.32-.39-.65-.59-1-.63-1-.27-1.69.36-2.75a5.25,5.25,0,0,0,.73-1.62c.33-1.66-.39-3.33-1.09-4.94a19.18,19.18,0,0,1-.94-2.47c-1.54-5.81-1.52-10.08.07-14.29,1.19-3.14-.35-7.4-2.4-10.23s-4.71-4.46-7-4.35c-3,.13-4.31-.64-5-2.85a6.74,6.74,0,0,1,3.12-7.51c2-1.09,3.26-1.83,3.38-2.9s-.71-1.88-2.48-3.43c-2.31-2-3.28-3.9-3.15-6.05.28-4.7-2.86-6.32-6.1-7.58l-.38-.14-.22.34c-.71,1.09-1.39,2.24-2.05,3.36-3.51,6-6.83,11.58-15.5,9.93L467,295.17l1.19,2.56c4,8.57-.43,14.42-5.1,20.61-.55.73-1.1,1.46-1.64,2.2l-.8-.2a2.84,2.84,0,0,1-1.41-.53c-1.38-1.57-2.7-2.29-4.05-2.25s-2.71.95-4,2.74a3.51,3.51,0,0,1-3.38,1.5c-4.83-.58-7.18,1.88-9.23,5.75l-.63,1.2c-2.13,4.06-4.34,8.27-7.65,11.62-1.33,1.35-2.45,2.35-3.74,1.9a4.13,4.13,0,0,1-3.06-4.09c.19-2.9-2-3.74-4-4.55l-.31-.12-7,7a117.89,117.89,0,0,0-25.88-10.16l-.31-.08-.2.24-.79.93c-.59.68-1.18,1.37-1.75,2.09-3.73,4.72-5.31,5-10,1.57a3.7,3.7,0,0,0-3.52-.81l-2.84,1.35,0,.29c-.28,3.66-3.45,5.46-5.32,6.21-4.47,1.78-4.82,5.33-4.32,8a14.35,14.35,0,0,1-2.46,10.63c-.4.58-.78,1.18-1.17,1.79-2.44,3.82-5,7.76-10.23,8.47a11.37,11.37,0,0,0-4.65,2.14,10.27,10.27,0,0,1-4.73,2.07l-.34,0-.1.33c-.72,2.28-2.36,3.86-4.08,5.53a16.43,16.43,0,0,0-4,5.11c-.64,1.49.17,4.63,1.29,6.69.55,1,1.43,2.27,2.52,2.46,3.16.55,3.55,2.68,3.75,5.62.16,2.34.31,4.54,3.48,5.19a2.81,2.81,0,0,1,2.24,1.51c.54,1.26-.1,3.06-.66,4a18.46,18.46,0,0,0-1.77,4.18,16.58,16.58,0,0,1-1.78,4.1c-.43.63-1.4,2.47-.83,3.45,3.05,5.24,1.09,9.86-1.38,14.53l-.12.23,1,2a4.86,4.86,0,0,0,.6.6c.28.25.64.57.63.78s-.12.28-.33.46a10.43,10.43,0,0,0-2.81,4.88c-.62,1.76-1.21,3.42-2.68,4.58-2.05,1.61-1.61,3.64-1.22,5.42a7.94,7.94,0,0,1,.27,2.59,1.08,1.08,0,0,0,.28.85,3.94,3.94,0,0,0,2.64,1.06,2.23,2.23,0,0,0,1.73-.64,2.67,2.67,0,0,0,.81-1.64c0-2.7,1.65-4.33,3.39-6a15.15,15.15,0,0,0,2.83-3.44,13.44,13.44,0,0,0,2.61,3.15l.28.27a15,15,0,0,1,2.52,3.29c2.84,5.05,3.51,8.78-1.45,12.87-1.68,1.39-2.38,3.87-3.05,6.26A28.07,28.07,0,0,1,339,479c-.28.65-.54,1.32-.8,2-.78,2-1.58,4.15-3,5.39-4.78,4.18-7.32,9.51-7.75,16.3v.07l.24,1,.47-.1a17.17,17.17,0,0,1,6,.15c.77.1,1.53.21,2.29.28l.63.19-4.83,9.14.58.17,1.56.48c.91.28,1.69.52,2.49.69,5.94,1.27,10.07,3.77,13,7.9l.5.7c2.2,3.11,4.47,6.33,8.37,8.27l.3.15.25-.22a21,21,0,0,0,3.37-4.28c1.78-2.7,3.51-5.25,6.36-5.2,3.26,0,8.12.12,11,4.11a4.76,4.76,0,0,0-2.47,3.19,4.34,4.34,0,0,0,1.44,3.6,6.43,6.43,0,0,1,1.33,3,9,9,0,0,0,1,2.62l.18.27.31,0c.56-.08,1.11-.14,1.64-.19a26.81,26.81,0,0,0,3.75-.59,40.61,40.61,0,0,1,8.5-.91l1.62-.06a4.18,4.18,0,0,1,3.34,1.84A2.22,2.22,0,0,1,401,541a33.63,33.63,0,0,0-1.91,6.77c-.83,4-1.61,7.72-4.69,10.7a4.63,4.63,0,0,0-1.64,3.33,2.71,2.71,0,0,0,1.25,2c2,1.44,3,3.46,4.11,5.59.41.8.82,1.63,1.29,2.42a12.3,12.3,0,0,0,1.48,1.87c.23.26.46.51.68.78l.34.4.39-.36c1.24-1.16,2.47-.69,3.9-.16,1.22.46,2.61,1,4,.3h1.43l-.22-.67c-.8-2.32-.8-2.32.29-3.31,2.36-2.17,4.66-3.11,6.85-2.81s4.32,1.93,6.12,4.81a18.67,18.67,0,0,1,1.83,4.49l.18.56c.83,2.65,2.09,5.5,5.17,6.65l.18.07.18-.07c1.83-.72,2.6-2.17,2.28-4.31-.24-1.61.43-2.93,1.26-4.37,4.08-7.06,9.49-9.89,16.56-8.67.46.08,1,.13,1.46.18,2.49.25,4.65.47,4.65,3.95,0,1,1.48,2.38,2.47,2.54a3.83,3.83,0,0,1,2.56,1.94,9.37,9.37,0,0,0,1.13,1.33,16.32,16.32,0,0,1,2.77,3.71,12.43,12.43,0,0,0,3.73,4.4,11.86,11.86,0,0,1,4.5,4.25c1,1.67,2.11,2.54,3.33,2.65h.25c1.25,0,2.58-.82,4-2.5a20.84,20.84,0,0,0,3.35-6.21,20.89,20.89,0,0,1,2.73-5.3c2.95-3.75,4.53-7,4.82-9.79.46-4.38,2.48-4.69,5.77-4.65h.32l3.12-6.71.05-.15c.9-7.77,4.31-12.8,10.41-15.38,2.77-1.17,4.85-2.39,4.37-6.57-.23-2-.58-5,2.06-6.31l.28-.14,0-1.63c-.49-5.14-2.35-7-7.67-7.69-2-.26-3.4-1.39-4.94-2.59a14.08,14.08,0,0,0-3.95-2.42,9.43,9.43,0,0,0-.42-3.7,9,9,0,0,1-.39-4c.57,0,1.14-.05,1.7-.08a12.85,12.85,0,0,1,3.95.14c5.61,1.47,6,1.16,8.46-2.69.16-.26.34-.53.52-.81,5.93,3.28,12.07,2.42,17.83,1,2-.5,5-.9,7.22,1.4,1.7,1.74,3,2.43,4.2,2.16s2.14-1.53,3-4c.12-.36.23-.72.34-1.08.85-2.73,1.59-5.09,4.89-5.91a14.44,14.44,0,0,1,12,2.21c1.84,1.2,2.46,3.41,3.05,5.55.17.63.35,1.25.55,1.85a.94.94,0,0,1-.1.92,2.14,2.14,0,0,1-1.85.51,3.44,3.44,0,0,0-3,.82c-.91,1-.72,2.62-.42,4.05.09.44.18.89.26,1.35.51,2.73,1,5.56,3.67,7.54a4,4,0,0,1,1.6,5c-.24.68-.5,1.36-.76,2a26.87,26.87,0,0,0-2,7.39l-.76,3.23.14.19a5.27,5.27,0,0,0,4.74,2.19c2.67-.5,4.73.61,6.71,1.68.64.34,1.24.66,1.84.93l.15.06.16,0a3.15,3.15,0,0,0,2.58-3.41c0-5.68,3.43-9.34,7.22-12.9.16-.15.34-.29.53-.44a2.91,2.91,0,0,0,1.27-1.55,4.23,4.23,0,0,1,2-3.24c1.57-.79,3.77-.29,5.3.45,6.37,3.06,12,3,17.66-.33a8.94,8.94,0,0,1,2-.81c4.78-1.4,9.36-3.45,10.51-8.9l.1-.51c.62-3,1.21-5.79,2.93-8.26.87-1.26.36-2.24-.13-3.19l-.18-.35c-.81-1.61-.28-2.88,1.87-4.52,1.44-1.09,2.22-.84,3.73.41,2.91,2.42,9.94,2.15,12.54-.48,1.86-1.88,3.34-1.75,6-.73,7,2.72,14.55,4.92,22.53,2.65.61-.17,1.29-.34,2-.51,3.29-.81,7-1.73,7.33-4.25s1.56-3.48,2.91-4.66a10.29,10.29,0,0,0,2.18-2.36c.33-.55.67-1.1,1-1.64,1-1.56,1.95-3.17,2.8-4.84l3.44-7.13c6.85-5.67,3.5-11.34.25-16.81l-.25-.43a3.1,3.1,0,0,0-.35-.46,1.06,1.06,0,0,1-.31-1.22c.75-2,2.85-3.35,4.8-4.41a4.4,4.4,0,0,1,.5-.21,2.58,2.58,0,0,0,1.33-.88,67.47,67.47,0,0,1,8.44-9.25,73.74,73.74,0,0,0,7.76-8.3,9.81,9.81,0,0,0,1.41-3.17,7.77,7.77,0,0,1,1.91-3.67,2.32,2.32,0,0,0,.47-1.86"/></g></g></g></g><g id="NameDouro"><g class="cls-2"><path class="cls-5" d="M441.3,438.63H447a8.08,8.08,0,0,1,3.63.79,5.82,5.82,0,0,1,2.45,2.2,6.75,6.75,0,0,1,0,6.63,5.88,5.88,0,0,1-2.45,2.2,8.08,8.08,0,0,1-3.63.78H441.3Zm5.58,10.21a4.23,4.23,0,0,0,3-1,4.17,4.17,0,0,0,0-5.71,4.23,4.23,0,0,0-3-1.05h-2.66v7.81Zm15.45,1.76a6.21,6.21,0,0,1-2.46-2.33,6.69,6.69,0,0,1,0-6.67,6.21,6.21,0,0,1,2.46-2.33,7.78,7.78,0,0,1,7.07,0,6.43,6.43,0,0,1,0,11.33,7.78,7.78,0,0,1-7.07,0m5.56-2.15A3.59,3.59,0,0,0,469.3,447a4.52,4.52,0,0,0,0-4.17,3.59,3.59,0,0,0-1.41-1.43,4,4,0,0,0-2-.52,3.92,3.92,0,0,0-2,.52,3.59,3.59,0,0,0-1.41,1.43,4.52,4.52,0,0,0,0,4.17,3.59,3.59,0,0,0,1.41,1.43,3.92,3.92,0,0,0,2,.52,4,4,0,0,0,2-.52M480,450a5.72,5.72,0,0,0,9.91-4.27v-7.05H487v6.94a3.83,3.83,0,0,1-.72,2.57,2.64,2.64,0,0,1-2.08.82c-1.88,0-2.81-1.13-2.81-3.39v-6.94h-2.92v7.05A5.77,5.77,0,0,0,480,450m24.42,1.27-2.43-3.51h-2.68v3.51h-2.92V438.64h5.46a7,7,0,0,1,2.9.55,4.22,4.22,0,0,1,1.9,1.59,4.31,4.31,0,0,1-1.92,6.4l2.82,4.05Zm-.74-9.65a3,3,0,0,0-2-.57h-2.37v4.39h2.37a3,3,0,0,0,2-.57,2.26,2.26,0,0,0,0-3.25m12.11,9a6.23,6.23,0,0,1-2.47-2.33,6.69,6.69,0,0,1,0-6.67,6.23,6.23,0,0,1,2.47-2.33,7.75,7.75,0,0,1,7.06,0,6.41,6.41,0,0,1,0,11.33,7.75,7.75,0,0,1-7.06,0m5.55-2.15A3.59,3.59,0,0,0,522.7,447a4.44,4.44,0,0,0,0-4.17,3.59,3.59,0,0,0-1.41-1.43,4.16,4.16,0,0,0-4,0,3.59,3.59,0,0,0-1.41,1.43,4.44,4.44,0,0,0,0,4.17,3.59,3.59,0,0,0,1.41,1.43,4.16,4.16,0,0,0,4,0"/></g></g><rect class="cls-1" width="900" height="630"/></svg>