<svg id="Camada_1" data-name="Camada 1" xmlns="http://www.w3.org/2000/svg" viewBox="0 0 900 670"><defs><style>.cls-1{fill:#fff;}.cls-2{fill:#9095a0;}</style></defs><title>Prancheta 1 cópia 8</title><path class="cls-1" d="M197.26,381c-2.17-1.88-3.85-4.16-3.94-7.52a11.16,11.16,0,0,0-1.16-3.42h-.61c-2.05-.43-3.56.55-5.16,1.68-3.06,2.16-5.94,5.12-10.32,2.3-.7-.46-2.48.73-3.85,1.18-2.83-2.71-.36-4.71.94-6.87l.86-.42c-4.91-1.72-4.92-1.73-8.55,2.14-1.17,1.25-2.05,3.06-3.48,3.72-2.06,1-4.92,3.23-6.69.07-3-5.26-6.86-3.17-10.78-2.08a11.74,11.74,0,0,1-2.57.81c-5.53.12-9.45,2.13-10.31,8.16-.07.48-.83,1.25-1.23,1.22-2.71-.14-5.38,3.49-8.18.11-.29-.35-1.53-.31-2.06,0-2.54,1.48-5.22.54-7.71.27-3.76-.4-7.34-.74-10.37,1.46-3.94-4.27-2.3-10-4.58-14.62-1.3-2.63.17-4,2.5-5.19s5.63-.3,6.63-3.94c-1.81-1.63-2-5.72-4.83-5.15-3.06.61-4.56-1.56-6.87-2.05-1-.21-1.56-1.41-3-1.26-2.56.27-3.71-1.17-4.36-3.75-1.17-4.65-3.78-8-8.84-9.57-3.2-1-4.58,2.63-7.57,1.68-1.62-3.2-3.61-6.34-8.78-3.63-2.2-6.51-8.1-6.79-13.35-7.05a9.63,9.63,0,0,1-1.25-.27c-.1,3.33-1.2,6.55-1.51,9.81a34.6,34.6,0,0,1-2.58,10.32c-.8,1.8-.33,3.57.64,5.6,2.06,4.33,3.28,9.05,4.85,13.61,1.77,5.12,5.51,9.56,5.17,15.4,0,.41.52,1.22.82,1.22,5.05.13,3.55,4,3.32,6.46-.9,9.69,3.63,18.43,4.53,27.79.08.83,1.05,2.22.62,3-1.66,2.83-.84,5.41,0,8.19,1.27,4,2.76,7.81,2.5,12.4C66,446,69.67,449,68.87,453c-.13.67.69,1,1.25,1.05,3.33.52,4.57,2.68,4.72,5.79a5,5,0,0,0,.94,2.46c4.94,4.9,5.91,11.6,6.4,17.66.51,6.29,3.28,12.18,2.28,18.82a26.64,26.64,0,0,0,2.34,15.36c3.17,6.58,1.83,13.36.82,20.09a79.18,79.18,0,0,0-.85,9.84c0,1.63.89,2.88,2.13,2.46,3.85-1.29,8.5-.14,11.33-3.92,3.21,1.57,3,3.87,2.45,6.6-.72,3.27.21,6.21,1.18,9.53,1.37,4.73,4.26,8.8,5.08,13.57.35,2,.81,4.17-.21,6.45-.85,1.87,4,7,6.28,7.21l4,.35c2.55-1.42,4-4,5.85-6.33l.43-.86c3.92-.1,2.74,3.11,2.37,4.66a9.91,9.91,0,0,0-.38,4.35,4.59,4.59,0,0,1-2.84,5.12c-2,.89-4,1.94-5.12,4.51,3.39,1.61,2.29,7.56,7.68,7l-1.71.43c-.37,2.48-.31,5.26-3.85,5.56a1.22,1.22,0,0,0-1.27,1.28c0,3.56-.71,7.32.21,10.62.69,2.45,4.14,3.82,6.64,4.16,3.52.48,3.23,2.12,2.54,4.46-.88,3-.12,4,3,4.31,1.92.2,3.22-.41,3.82-2.18.36-1.06.85-2.23,1.76-2.49,4.95-1.42,9.93-2.75,15-3.85,1.81-.4,3.67-.26,4.77,2,.73,1.51,2.52,2.17,4.56,2.71.9-1.54,3.78-2.24,3.31-4.34-.5-2.26.34-3.12,1.9-3.85,1.23-.58,1.78-1.65,2.57-2.59,2.92-3.46,7.67-3.53,10.2,0a26,26,0,0,0,6.47,5.93c2,1.44,4,1.73,5.56-.82s3.28-2.49,5.15,0c1.36,1.77,3.12,2,4.66,0a2.17,2.17,0,0,1,2.55-.73c3,.89,2.1,5.74,5.92,6.75,1.39-3.15,1.76-7,4.77-9.46a1.38,1.38,0,0,0,.41-1.24c-1.18-2.49.51-3.45,2.14-4.77,2.86-2.31,4.15-9.24,2.59-12.77-1.37-3.1-2.81-6.17-4.18-9.15a26.78,26.78,0,0,1,2.49-2c2.89-1.74,5.68-3,8.18.8.74,1.12,2.23,1.73,3.35,2.61,3.23,2.52,6.31,2.39,9-.44,1.17-1.25,2.33-2.52,3.41-3.85,1.46-1.8,3.42-2,4.63-.35,1.84,2.44,4.68,3,7,4.6,2.57,1.78,7,1,9.33-1.71,2.06-2.38,3.07-5.11,0-7.65-.72-.6-.71-1.33-.89-2.14-.57-2.63-1-5.36-3.77-6.9-1.45-.8-1.41-2.1-1-3.82,1-3.94,2.18-7.79-.17-12-2-3.59-3.54-8,1.53-11.09.79-.49,1.12-1.7,1.75-2.51,2.9-3.7,5.31-7.83,9.18-10.69l-.64-4.69c-.05-.82-.05-.82-2.14-3.56-1.4,4.57-7,4.92-8,10.35-.73,3.92-5.46,4.3-9.12,1.78A8.59,8.59,0,0,0,245,539.7a8.14,8.14,0,0,1-5.45-1.69c-2.4-2.22-4.67-3.35-7.42-1.63-1.68-1.28-1.64-3-1.14-3.76,1.83-3,0-3.69-2.24-4.33-2.67-.76-5.16-.93-6,2.57a6.56,6.56,0,0,1-2.55,4.32,2.58,2.58,0,0,0-.84,2.08,74.34,74.34,0,0,1,.74,8.55h-1.22c-2.56.29-5.39,0-7.64,1-4.24,1.88-8.66.54-12.89,1.55-1.52.36-3.57-.82-3.68-1.69-.6-4.5-3.22-6.85-6.86-9.18a12.84,12.84,0,0,0-5.32-2.41c1.34-3.31-.08-4.17-3.37-4.29-5.82-.2-5.91-.44-5.53-6.34.14-2.09-.9-3.48-2.61-3.76-2.76-.44-2.16-2.33-2.09-3.93.09-2,.45-4,.69-5.91,2-1.13,4.38.25,5.75-1.31,7.08-11.7,1.73-21.72-4.94-32.12,1.43-1,2.56-1.74,3.59-2.58,2.42-2,4.35-4,1.75-7.28a1.6,1.6,0,0,1,.39-2.55c3-2.08,4.42-6.14,8.55-6.85a2.2,2.2,0,0,0,1.62-3.34c-2-3.16.17-4.89,1.81-6.91l.61-.78c2.47,1.51,4,1.23,5.19-1.44a41.37,41.37,0,0,1,8.92-12.25c-3.22-1.41-4.56-3.53-4.45-6.48a2.77,2.77,0,0,0-.84-2.16c-4.68-5.14-16.89-6.07-21.74-1.17-2.3,2.32-5.81,1.71-7.79,4.19v-.86c-1.5-1.7-1.64-4.34-4.07-5.69-2.44,1.78-6.57.73-8,4.81-.41,1.19-1.69,1-3,.53-1.43-.52-.89-1.56-.77-2.2.71-3.83,1-7.88,4.22-10.7,2.38-2.05,3.06-4.71,3-7.7,0-1.67.27-3.18,2.13-3.85l4.71-2.13c5.15-2.58,6-4.71,3.84-9.84a4.62,4.62,0,0,1,6-2.93c8,2.35,14.43-.07,20.11-5.62Z"/><path class="cls-1" d="M133.2,637.17a7.65,7.65,0,0,1-.81,0c-1.53-.16-3.21-.5-4.11-1.84s-.56-3-.17-4.39c.12-.42.51-1.72.32-2,0,0-.23-.34-1.62-.53-2.48-.34-6.93-1.83-7.88-5.25a24.3,24.3,0,0,1-.4-8c.06-1.06.12-2.06.13-3a2.72,2.72,0,0,1,2.64-2.77c1.77-.14,2-.83,2.38-3.45v-.1c-1.68-.88-2.46-2.58-3.1-4-.55-1.2-1-2.24-1.92-2.66l-1.33-.63.61-1.34c1.39-3.09,3.76-4.34,5.87-5.27a3.11,3.11,0,0,0,2-3.5,11.17,11.17,0,0,1,.4-4.92l.11-.45c.13-.51.48-1.84.22-2.16a.63.63,0,0,0-.35-.15l-.14.21c-.39.5-.76,1-1.13,1.51-1.43,1.94-2.9,3.95-5.17,5.21l-.4.23-4.45-.39c-2.46-.22-5.65-3.47-6.91-5.63-.85-1.46-1.06-2.7-.61-3.69.78-1.74.48-3.44.16-5.24l-.06-.35a30.43,30.43,0,0,0-2.62-7.31,43.64,43.64,0,0,1-2.42-6.09l-.13-.43c-1-3.26-1.84-6.34-1.08-9.84.5-2.29.49-3.45-.68-4.36-2.18,2.12-5,2.45-7.47,2.75a17.82,17.82,0,0,0-3.68.68,2.85,2.85,0,0,1-2.62-.4,4.17,4.17,0,0,1-1.49-3.53,81.42,81.42,0,0,1,.86-10l.21-1.37c1-6.24,1.87-12.13-.89-17.85A28.14,28.14,0,0,1,83,498.58c.58-3.88-.21-7.5-1.06-11.32a53.22,53.22,0,0,1-1.23-7.16c-.46-5.68-1.34-12.13-6-16.72a6.26,6.26,0,0,1-1.39-3.45c-.13-2.75-1.13-4-3.45-4.38a3.2,3.2,0,0,1-2.15-1.17,2.18,2.18,0,0,1-.34-1.65c.35-1.72-.44-3.33-1.27-5a10.19,10.19,0,0,1-1.46-5c.22-3.74-.83-7-2-10.37l-.48-1.49c-.88-2.75-1.86-5.87,0-9.2a5.37,5.37,0,0,0-.27-.76,5.64,5.64,0,0,1-.43-1.49,71.59,71.59,0,0,0-2.21-10.82c-1.42-5.5-2.89-11.19-2.33-17.26,0-.39.11-.82.18-1.27.17-1.09.38-2.45-.07-3a2.8,2.8,0,0,0-2-.57,1.92,1.92,0,0,1-1.4-.7,3.13,3.13,0,0,1-.87-2.11c.2-3.54-1.3-6.57-2.88-9.78a45.75,45.75,0,0,1-2.22-5c-.46-1.36-.9-2.73-1.34-4.1A73,73,0,0,0,43,355.39c-.94-2-1.76-4.35-.65-6.86a32.86,32.86,0,0,0,2.45-9.86,44.36,44.36,0,0,1,.74-4.4,31.34,31.34,0,0,0,.77-5.31l.06-1.91,1.84.51a6.72,6.72,0,0,0,.95.22c5,.26,11.17.57,14.05,6.55a6.7,6.7,0,0,1,4.44-.27c2.2.7,3.51,2.64,4.54,4.56a3.75,3.75,0,0,0,1.91-.77,6,6,0,0,1,5.09-1c5.24,1.59,8.47,5.07,9.87,10.64.66,2.63,1.58,2.74,2.74,2.62a4.14,4.14,0,0,1,3,1,3.09,3.09,0,0,0,.47.3A10,10,0,0,1,98,352.55a4.76,4.76,0,0,0,3.51.89c3-.58,4.16,1.91,5,3.56a6.8,6.8,0,0,0,1.17,1.94l.69.62-.25.89c-.93,3.4-3.56,3.94-5.48,4.34a7.21,7.21,0,0,0-1.89.54c-2.47,1.29-2.46,2-1.85,3.2a20.56,20.56,0,0,1,1.63,6.59c.31,2.43.61,4.75,1.94,6.71,3.27-1.72,6.92-1.32,10.19-1,.55.06,1.11.15,1.68.24,1.92.31,3.57.58,5.12-.32,1-.57,3.07-.73,4,.34,1.05,1.27,1.74,1.05,3.59.25a8.67,8.67,0,0,1,3.14-.9l.07-.08c.92-6.11,4.76-9.15,11.74-9.3a3.36,3.36,0,0,0,1.06-.34,9.25,9.25,0,0,1,1.13-.41l1.41-.43c3.33-1,7.9-2.45,11.08,3.21.63,1.12,1.13,1.21,3.67-.13.38-.21.75-.4,1.09-.56a6.09,6.09,0,0,0,1.79-1.87,17.4,17.4,0,0,1,1.23-1.52c4-4.28,4.67-4.44,10.12-2.54l3.35,1.17-3.64,1.84c-.19.29-.4.58-.6.87-1.07,1.5-1.5,2.19-1,3.05l.33-.15c1.35-.62,2.74-1.26,3.91-.5,2.84,1.83,4.61.7,7.51-1.45l1.13-.82c1.46-1,3.46-2.45,6.16-1.95h1.52l.36,1c.11.3.25.6.39.9a7.6,7.6,0,0,1,.85,3c.08,2.45,1.13,4.43,3.43,6.42l1.55,1.35-2.62,1.59c-6.49,6.29-13.52,8.21-21.46,5.87a3,3,0,0,0-3.9,1.54c2.11,5.44.84,8.3-4.81,11.14l-4.87,2.19c-.78.28-1.17.73-1.14,2.41.08,3.92-1,6.74-3.52,8.87s-2.92,5.08-3.45,8.25c-.09.53-.18,1.06-.28,1.58,0,.13-.06.27-.09.41a.93.93,0,0,1,0,.13,3.39,3.39,0,0,0,1,.24c1.19-3.28,3.91-4,5.91-4.46a7.63,7.63,0,0,0,2.55-.94l.77-.56.84.46a8.13,8.13,0,0,1,3.36,4.11c.21.44.41.87.64,1.25a13.56,13.56,0,0,1,2.82-1.14,7.23,7.23,0,0,0,3.24-1.61c2.4-2.42,6.44-3.76,11.17-3.66,5.23.12,10.11,2,12.75,4.88A4.24,4.24,0,0,1,199.9,427c-.09,2.41,1,3.92,3.55,5.05l2,.89-1.57,1.55a39.94,39.94,0,0,0-8.61,11.81,5.08,5.08,0,0,1-3,3.07,4.54,4.54,0,0,1-3.18-.35l-.49.58c-1.57,1.83-2.16,2.64-1.06,4.4a3.85,3.85,0,0,1,.22,3.51,3.69,3.69,0,0,1-2.85,2.11c-2.07.35-3.32,1.81-4.76,3.49a17.51,17.51,0,0,1-3.2,3.11.91.91,0,0,0-.22.2s.05.07.15.18c3.79,4.73-.25,8-2,9.39-.73.59-1.48,1.11-2.34,1.71l-.16.1c6.51,10.32,11.38,20.62,4.19,32.49l-.16.21c-1.19,1.37-2.76,1.35-4,1.34a7,7,0,0,0-1.48.07l-.12.85c-.19,1.33-.38,2.7-.44,4,0,.24,0,.49,0,.74-.13,1.48-.12,1.49.88,1.65,2.53.41,4.05,2.51,3.87,5.34-.11,1.72-.25,3.86.09,4.23s2.54.46,4,.51c1.83.07,3.82.34,4.8,1.85a3.75,3.75,0,0,1,.42,2.85,17.27,17.27,0,0,1,4.06,2.13l.17.1c3.23,2.07,6.73,4.72,7.51,10.06a2.5,2.5,0,0,0,1.87.62,24.24,24.24,0,0,1,5.77-.48c2.42,0,4.7,0,6.86-1a15.62,15.62,0,0,1,5.75-1c.75,0,1.47-.05,2.15-.12-.12-2.49-.34-4.74-.65-6.85a4.06,4.06,0,0,1,1.46-3.53,5.1,5.1,0,0,0,1.95-3.43,5.2,5.2,0,0,1,2.31-3.55c1.7-1,3.75-.63,5.53-.12,1.28.37,3.21.92,3.86,2.6.44,1.12.19,2.42-.77,4a1.19,1.19,0,0,0,.16,1.12c3.37-1.43,6.1.48,8.15,2.38a6.7,6.7,0,0,0,4.36,1.29,10,10,0,0,1,6.47,2.12c1.78,1.23,3.92,1.66,5.33,1.08a2.38,2.38,0,0,0,1.47-1.9c.64-3.46,2.83-5.18,4.76-6.69,1.48-1.15,2.75-2.15,3.26-3.82l.86-2.8,1.77,2.33c2.15,2.82,2.36,3.09,2.44,4.32l.76,5.51-.72.53c-2.7,2-4.65,4.68-6.71,7.5-.72,1-1.43,2-2.18,2.92a5.71,5.71,0,0,0-.49.82,5,5,0,0,1-1.66,2c-3.24,2-3.52,4.53-1,9.08s1.48,8.47.52,12.33l-.2.78c-.44,1.78-.13,1.95.25,2.16,3.21,1.78,3.85,4.76,4.41,7.4l.11.49.09.49c.11.59.15.7.29.82a6.19,6.19,0,0,1,2.44,4.23c.14,1.79-.61,3.6-2.3,5.55-2.88,3.32-8.06,4.22-11.32,2a19.4,19.4,0,0,0-2.35-1.31,12.82,12.82,0,0,1-4.95-3.61,1.05,1.05,0,0,0-.83-.51h0a2.07,2.07,0,0,0-1.42.9c-1.22,1.49-2.5,2.88-3.49,3.93-3.21,3.41-7.12,3.62-11,.59a13.11,13.11,0,0,0-1.1-.74,8.07,8.07,0,0,1-2.58-2.22c-1.63-2.45-3-2.22-6.16-.34a10.33,10.33,0,0,0-1.34,1l-.08.06.78,1.68c1,2.12,2,4.27,2.93,6.44,1.88,4.25.3,11.86-3,14.55l-.49.39c-1.56,1.23-1.75,1.48-1.24,2.57a2.81,2.81,0,0,1-.81,3c-1.81,1.47-2.51,3.63-3.26,5.92a30.48,30.48,0,0,1-1.09,3l-.51,1.17-1.24-.32c-2.74-.73-3.68-2.93-4.36-4.54-.55-1.28-.89-2-1.6-2.22s-.76,0-.94.21a4.39,4.39,0,0,1-3.5,2h0a4.44,4.44,0,0,1-3.53-2c-.79-1-1.33-1.32-1.51-1.29s-.59.27-1.17,1.21a5.11,5.11,0,0,1-3.27,2.54,5.66,5.66,0,0,1-4.44-1.29,27.33,27.33,0,0,1-6.82-6.28,4.54,4.54,0,0,0-3.54-2,5.4,5.4,0,0,0-4.3,2.09l-.5.64a6.69,6.69,0,0,1-2.57,2.33c-1.07.51-1.39.73-1.07,2.17.5,2.27-1.2,3.54-2.32,4.38a4.72,4.72,0,0,0-1.16,1.05l-.58,1-1.1-.29c-2.13-.56-4.49-1.35-5.53-3.51-.51-1.06-1.2-1.64-3.1-1.22-4.39,1-9.12,2.18-14.86,3.83,0,0-.32.23-.76,1.52A4.47,4.47,0,0,1,133.2,637.17Zm-11.54-24.89c0,1-.08,2-.14,3a21.79,21.79,0,0,0,.3,7c.44,1.58,3.11,2.76,5.39,3.08a5.06,5.06,0,0,1,3.74,1.88c.93,1.44.42,3.2,0,4.48-.44,1.48-.24,1.83-.22,1.87s.28.36,1.93.53c1.49.15,1.94-.29,2.24-1.17.49-1.46,1.2-3,2.77-3.46,5.81-1.66,10.59-2.89,15-3.87,3.79-.83,5.6,1.09,6.45,2.85a4.23,4.23,0,0,0,2.67,1.65,11.64,11.64,0,0,1,1.19-1c1-.76,1.26-1,1.19-1.33-.76-3.41,1.06-4.75,2.72-5.53a4.3,4.3,0,0,0,1.46-1.43c.19-.26.39-.52.6-.77a8.39,8.39,0,0,1,6.71-3.14,7.48,7.48,0,0,1,5.86,3.25,24.87,24.87,0,0,0,6.12,5.59,3.33,3.33,0,0,0,2.11.79,2.34,2.34,0,0,0,1.31-1.18c1-1.7,2.22-2.56,3.57-2.63s2.72.74,4,2.46a1.82,1.82,0,0,0,1.16.84h0c.31,0,.72-.3,1.12-.82a3.63,3.63,0,0,1,4.07-1.27c2.2.64,3,2.47,3.61,3.94a7.05,7.05,0,0,0,1.19,2.15c.14-.39.27-.79.4-1.19.79-2.42,1.68-5.15,4-7.16-1.21-3.06.88-4.7,2.28-5.8l.46-.36c2.27-1.84,3.48-8,2.16-11-1-2.15-1.94-4.29-2.91-6.39l-1.27-2.74-.49-1.07.92-.73c.35-.27.65-.53.93-.76a12.61,12.61,0,0,1,1.73-1.3c2.17-1.31,6.7-4,10.2,1.25a5.87,5.87,0,0,0,1.69,1.35c.44.28.9.57,1.34.91,2.63,2,4.84,2,7-.29.95-1,2.19-2.35,3.34-3.76a4.77,4.77,0,0,1,3.81-2,4,4,0,0,1,3.17,1.7,10.16,10.16,0,0,0,3.89,2.73,22.62,22.62,0,0,1,2.73,1.53c2,1.38,5.49.69,7.35-1.46a5,5,0,0,0,1.57-3.34,3.28,3.28,0,0,0-1.37-2.17,3.9,3.9,0,0,1-1.32-2.59c0-.12-.05-.25-.07-.38l-.11-.51c-.49-2.29-.92-4.28-2.93-5.39-2.7-1.49-2-4.3-1.71-5.5l.2-.8c.9-3.6,1.67-6.71-.23-10.15-1.22-2.18-4.9-8.82,2-13.09a3.88,3.88,0,0,0,.59-.9,8.13,8.13,0,0,1,.77-1.25c.73-.93,1.42-1.88,2.11-2.83a38.68,38.68,0,0,1,6.65-7.6l-.54-3.93a1,1,0,0,0,0-.25,3.58,3.58,0,0,0-.38-.6,15.77,15.77,0,0,1-3.09,2.94c-1.73,1.35-3.22,2.52-3.66,4.87a5.38,5.38,0,0,1-3.27,4.12c-2.38,1-5.52.46-8.18-1.38a7.2,7.2,0,0,0-4.63-1.59,9.47,9.47,0,0,1-6.54-2.09c-2.68-2.48-4.08-2.41-5.61-1.46l-.88.55-.82-.63a4.42,4.42,0,0,1-1.51-5.74c.59-1,.52-1.3.52-1.3s-.46-.39-1.89-.8c-1-.28-2.44-.62-3.18-.18a2.43,2.43,0,0,0-.91,1.64,8.06,8.06,0,0,1-3.15,5.22,1.56,1.56,0,0,0-.21.65,76.78,76.78,0,0,1,.75,8.7l.05,1.57-2.7,0c-.82.09-1.65.12-2.46.15a13.21,13.21,0,0,0-4.64.7c-2.74,1.22-5.45,1.23-8.07,1.24a22.14,22.14,0,0,0-5.08.39,5.32,5.32,0,0,1-4.06-.89,3.1,3.1,0,0,1-1.46-2.06c-.5-3.79-2.65-5.85-6.18-8.11l-.17-.11a11.22,11.22,0,0,0-4.55-2.08l-1.91-.27.73-1.78c.55-1.37.36-1.73.35-1.74s-.28-.41-2.38-.48c-3.15-.11-5-.23-6.12-1.49s-1.06-3.24-.85-6.44c.05-.89-.13-2-1.36-2.19-3.76-.6-3.51-3.49-3.39-4.87,0-.21,0-.41.05-.61a42.82,42.82,0,0,1,.46-4.33c.08-.57.16-1.13.23-1.69l.09-.75.66-.38a6.89,6.89,0,0,1,3.62-.68c.95,0,1.4,0,1.67-.24,6.46-10.82,1.55-20.17-5-30.39l-.77-1.2,1.16-.83c.48-.35.93-.66,1.35-.95.81-.56,1.52-1.05,2.17-1.58,2.73-2.2,3-3.27,1.52-5.17a3.09,3.09,0,0,1,.71-4.73,14.29,14.29,0,0,0,2.62-2.6c1.59-1.85,3.4-3.95,6.53-4.49.49-.08.58-.3.62-.38a.78.78,0,0,0,0-.69c-2.31-3.7-.2-6.15,1.33-7.94.2-.23.4-.46.59-.7l1.43-1.82,1.14.7c1.19.73,1.71.73,1.92.67s.73-.62,1.12-1.46a41.08,41.08,0,0,1,7.82-11.25,7.53,7.53,0,0,1-3.49-6.9,1.28,1.28,0,0,0-.45-1.1c-2.07-2.27-6.23-3.8-10.6-3.9-3.84-.07-7.17,1-9,2.77a10.06,10.06,0,0,1-4.46,2.36,6.25,6.25,0,0,0-3.22,1.71l-2.67,3.35v-4.61a13,13,0,0,1-1.19-2.14,7.19,7.19,0,0,0-1.45-2.29,13.44,13.44,0,0,1-2.63.85c-2.06.52-3.25.89-3.85,2.66a2.74,2.74,0,0,1-1.4,1.61,4.66,4.66,0,0,1-3.48-.16c-1.14-.42-2.38-1.39-1.79-3.68a1.6,1.6,0,0,0,0-.21c.1-.5.18-1,.27-1.53.57-3.39,1.22-7.24,4.45-10C157.28,411,158.05,409,158,406c0-1-.08-4.09,3.06-5.27l4.66-2.1c4.38-2.2,4.91-3.53,3.08-7.9l-.24-.57.23-.58a6.09,6.09,0,0,1,7.78-3.8c6.83,2,12.67.44,18.35-5a10.84,10.84,0,0,1-3.09-7.29,5.12,5.12,0,0,0-.6-1.84l-.07-.18c-1.36-.24-2.43.42-3.89,1.45-.36.25-.71.52-1.07.78-2.71,2-6.08,4.51-10.66,1.72-.33.1-.91.37-1.29.54s-1,.47-1.54.65l-.86.28-.65-.62c-3.26-3.12-1.24-6,0-7.67l.05-.07a3.38,3.38,0,0,0-1.59-.21c-.64.16-1.55,1.13-3.05,2.73a13.89,13.89,0,0,0-1,1.26,8.24,8.24,0,0,1-2.94,2.8c-.3.14-.62.31-.94.49-1.78.94-5.47,2.9-7.69-1-1.91-3.4-3.91-3-7.58-1.82-.49.15-1,.31-1.49.44a8.32,8.32,0,0,0-.78.3,5.92,5.92,0,0,1-2.16.57c-5.54.12-8.19,2.17-8.85,6.87a3.18,3.18,0,0,1-2.71,2.51h-.09a5.14,5.14,0,0,0-2.16.65c-1.76.76-4.38,1.9-6.84-.79a1.31,1.31,0,0,0-.44.07c-2.44,1.42-4.9,1-7.07.66-.51-.08-1-.16-1.52-.22-4-.43-6.89-.59-9.33,1.18l-1.08.79-.91-1c-2.63-2.86-3.07-6.29-3.47-9.33a17.73,17.73,0,0,0-1.34-5.64c-2.18-4.4,1.69-6.43,3.14-7.19a10,10,0,0,1,2.69-.82c1.53-.32,2.42-.54,2.92-1.48a12.67,12.67,0,0,1-1.16-2.08c-.9-1.87-1.16-2-1.66-1.91a7.6,7.6,0,0,1-5.54-1.2,7.17,7.17,0,0,0-1.93-.86,4.21,4.21,0,0,1-1.6-.8c-.5-.37-.67-.45-1-.43-4.63.5-5.64-3.54-6-4.87-1.14-4.53-3.63-7.23-7.83-8.5-.94-.29-1.57,0-2.7.71a5.68,5.68,0,0,1-4.88,1l-.6-.19-.28-.56c-.84-1.65-1.77-3.29-3.12-3.72a5,5,0,0,0-3.63.74l-1.56.82L61,336.81c-1.85-5.47-6.68-5.76-11.81-6-.16,1.39-.43,2.75-.7,4.07a39.89,39.89,0,0,0-.69,4.1,35.85,35.85,0,0,1-2.7,10.79c-.5,1.13-.33,2.35.62,4.35a77.06,77.06,0,0,1,3.6,9.73c.43,1.35.86,2.7,1.32,4a41.56,41.56,0,0,0,2.08,4.69c1.64,3.34,3.33,6.78,3.18,11a4.94,4.94,0,0,1,3.55,1.61c1.32,1.58,1,3.68.72,5.37-.06.38-.12.75-.15,1.08-.52,5.55.83,10.74,2.25,16.23a73.41,73.41,0,0,1,2.28,11.28,5.76,5.76,0,0,0,.24.67,3.55,3.55,0,0,1,.18,3.19c-1.26,2.15-.75,4.05.18,7,.16.49.32,1,.47,1.47,1.15,3.53,2.34,7.17,2.09,11.48a8.15,8.15,0,0,0,1.16,3.52c.88,1.8,1.87,3.83,1.63,6.22,3.71.62,5.69,3,5.88,7.19a3.88,3.88,0,0,0,.56,1.51c5.3,5.26,6.29,12.34,6.79,18.56a49.73,49.73,0,0,0,1.17,6.75c.87,3.93,1.76,8,1.1,12.41a25.16,25.16,0,0,0,2.2,14.49c3.16,6.55,2.14,13.19,1.16,19.61l-.21,1.35a77.37,77.37,0,0,0-.83,9.66,1.69,1.69,0,0,0,.22,1,21.06,21.06,0,0,1,4.21-.79c2.59-.31,4.82-.57,6.33-2.59l.74-1,1.12.54c4.57,2.23,3.71,6.16,3.25,8.27-.6,2.76.15,5.35,1,8.36l.13.44a43.2,43.2,0,0,0,2.26,5.67,32.76,32.76,0,0,1,2.86,8.05l.06.35c.36,2,.76,4.36-.35,6.9,0,1.33,3.62,5.06,5,5.18l3.5.31a15.94,15.94,0,0,0,3.83-4.14c.36-.49.72-1,1.09-1.47l.77-1.52.9,0a4.22,4.22,0,0,1,3.63,1.36c1.19,1.49.65,3.54.33,4.77l-.09.38a8.59,8.59,0,0,0-.36,3.75,6.11,6.11,0,0,1-3.72,6.74,8.21,8.21,0,0,0-3.75,2.69,9.79,9.79,0,0,1,2,3.2c1,2.07,1.48,3,3.53,2.78l.51,2.94-.72.18C126.34,608.69,125.8,611.89,121.66,612.28Zm74.45-66.09ZM55.19,383.47h0Z"/><path class="cls-2" d="M98.59,444.07a4,4,0,0,1,1.33,3.25,4.43,4.43,0,0,1-1.33,3.44A5.33,5.33,0,0,1,94.84,452H92.56v3.54H89.35v-12.6h5.49A5.6,5.6,0,0,1,98.59,444.07Zm-6,5.4h2.13a2.33,2.33,0,0,0,1.63-.53,2,2,0,0,0,.57-1.51,1.86,1.86,0,0,0-.57-1.48,2.44,2.44,0,0,0-1.63-.5H92.56Z"/><path class="cls-2" d="M114.65,443.66a6.34,6.34,0,0,1,2.44,2.29,6.07,6.07,0,0,1,.89,3.26,6.24,6.24,0,0,1-.89,3.3,6.34,6.34,0,0,1-2.44,2.32,7.26,7.26,0,0,1-3.49.84,7.17,7.17,0,0,1-3.46-.84,6.43,6.43,0,0,1-2.45-2.32,6.33,6.33,0,0,1-.89-3.3,6.17,6.17,0,0,1,.89-3.27,6.4,6.4,0,0,1,2.44-2.29,7.67,7.67,0,0,1,7,0ZM109.43,446a3.59,3.59,0,0,0-1.31,1.34,3.8,3.8,0,0,0-.48,1.9,3.87,3.87,0,0,0,.48,1.91,3.57,3.57,0,0,0,1.31,1.36,3.33,3.33,0,0,0,1.77.49,3.23,3.23,0,0,0,1.75-.49,3.47,3.47,0,0,0,1.27-1.36,3.86,3.86,0,0,0,.47-1.91,3.8,3.8,0,0,0-.47-1.9A3.48,3.48,0,0,0,113,446a3.32,3.32,0,0,0-1.75-.49A3.42,3.42,0,0,0,109.43,446Z"/><path class="cls-2" d="M129,452h-2.52v3.54h-3.21v-12.6h5.63a5.88,5.88,0,0,1,3.87,1.14,4,4,0,0,1,1.37,3.25,4.93,4.93,0,0,1-.58,2.47,3.94,3.94,0,0,1-1.7,1.58l2.64,4.16h-3.63Zm-.1-2.52a2.31,2.31,0,0,0,1.62-.53,1.92,1.92,0,0,0,.58-1.51,1.84,1.84,0,0,0-.58-1.48,2.4,2.4,0,0,0-1.62-.5h-2.42v4Z"/><path class="cls-2" d="M145.73,445.5v10h-3.21v-10h-3.76v-2.59h10.77v2.59Z"/><path class="cls-2" d="M163.3,443.66a6.36,6.36,0,0,1,2.45,2.29,6.16,6.16,0,0,1,.89,3.26,6.26,6.26,0,0,1-3.34,5.62,7.61,7.61,0,0,1-7,0,6.41,6.41,0,0,1-2.44-2.32,6.24,6.24,0,0,1-.9-3.3,6.09,6.09,0,0,1,.9-3.27,6.26,6.26,0,0,1,2.44-2.29,7.65,7.65,0,0,1,7,0ZM158.08,446a3.56,3.56,0,0,0-1.3,1.34,3.71,3.71,0,0,0-.49,1.9,3.77,3.77,0,0,0,.49,1.91,3.54,3.54,0,0,0,1.3,1.36,3.38,3.38,0,0,0,1.77.49,3.27,3.27,0,0,0,1.76-.49,3.54,3.54,0,0,0,1.27-1.36,4,4,0,0,0,.47-1.91,3.91,3.91,0,0,0-.47-1.9,3.56,3.56,0,0,0-1.27-1.34,3.36,3.36,0,0,0-1.76-.49A3.47,3.47,0,0,0,158.08,446Z"/></svg>