<svg id="Camada_1" data-name="Camada 1" xmlns="http://www.w3.org/2000/svg" viewBox="0 0 900 670"><defs><style>.cls-1{fill:#fff;}.cls-2{fill:#9095a0;}</style></defs><title>Prancheta 1 cópia 7</title><path class="cls-1" d="M220.22,545.42a74.33,74.33,0,0,0-.73-8.55,2.55,2.55,0,0,1,.84-2.08,6.56,6.56,0,0,0,2.55-4.32c.8-3.51,3.28-3.34,6-2.57,2.25.64,4.06,1.37,2.23,4.33a2.93,2.93,0,0,0,1.14,3.75c2.75-1.71,5-.58,7.42,1.64a8.16,8.16,0,0,0,5.45,1.69,8.62,8.62,0,0,1,5.56,1.86c3.66,2.52,8.38,2.14,9.12-1.78,1-5.43,6.59-5.78,8-10.35,2.09,2.74,2.09,2.74,2.15,3.56.43,6.51.49,6.32,6.8,8.25,1.68.51,2.71.92,4.36,0a4.09,4.09,0,0,1,5.52,1.19,36.84,36.84,0,0,1,2.95,3.45c2.23,3.51,4.76,3.39,8.66,2.43,3-.74,5-3.08,8-3.36,5.35-.5,8.28-3.86,9.53-8.9,1-3.92.25-10,7.59-8.6a1.24,1.24,0,0,0,.84-.42,8,8,0,0,1,4.44-2.21l-.58-2.5c.4-6.32,2.61-11.61,7.57-15.95,2-1.75,2.8-4.95,3.94-7.58,1.4-3.22,1.69-7.64,4.06-9.6,5.37-4.43,4.34-8.58,1.57-13.5a15.56,15.56,0,0,0-2.6-3.4L339.15,468c-1.58,3.76-6.51,5.4-6.53,10.26a2,2,0,0,1-2,1.79c-1.23-.05-2.53-.72-2.45-1.35.36-2.56-2-5.52.76-7.68,3.12-2.45,2.54-6.94,5.51-9.47l-1.68-4.24c2.54-4.81,4.51-9.62,1.37-15-.36-.62.26-2.1.81-2.91,1.71-2.53,1.9-5.65,3.56-8.31.82-1.31,2.32-5.37-1.9-6.23-2.79-.57-2.93-2.36-3.09-4.73-.17-2.6-.44-5.44-4.16-6.08-2.08-.36-4.29-6.47-3.43-8.46a14.44,14.44,0,0,1,3.43-4.48l-.87-.22c-3.85-4.34-7.76-8.36-14.09-9.09-3-.35-3.78-3.08-2.14-5.87a27.17,27.17,0,0,1,2.13-3c2.19-2.76,1.7-4.67-1.73-6-1.42-.53-3.74-.23-3.7-2.16.05-2.3-1.47-4.57-.14-6.85,1.06-1.8,1.39-3.57-.43-5.12-.72-.62-1.05-1.43-.4-2.13,3.43-3.61,2.15-10.06,7.65-12.49a8.25,8.25,0,0,0,3-3c1.45-2.07,0-5-2-6.46-4.74-3.35-10.35-4.77-15.54-7-3.51-1.48-2.77-5.23-5.29-6.56-6,2.2-11.06-1-17.07-2.1-2.51,1.41-3.13,3.61-2.5,7.17.83,4.68-2.46,7.74-6.29,9.74-2.33,1.21-3.39,2.67-3,5.2.5,2.83-2.33,3.39-3.41,5.19,2,3.73.23,7.43-.6,11-.32,1.39-1,2.76-1.19,4.3-.58,3.91-4.5,5.48-8.07,3.44-1.1-.63-2.28-1.63-3.41-1.61-2.38,0-2.87-1.22-3-3.1-.19-3-.87-5.53-4.69-5.11a2.1,2.1,0,0,1-2.09-1.33c-.64-1.08-.64-3-2.19-2.89-3.21.13-6.27-1-9.4-.84-1.73.08-1.92,1.78-1.73,3.33.41,3.22-1,4.95-4.25,4.21-3.39-.79-4.83,2.07-6.25,3.65l-3.17,2.4c-.44,2.26-2.15,3.48-4,4.8,1.47,2.83-.45,5.57-.44,8.46,0,1.93-5.52,3.86-7.48,2.48a49.11,49.11,0,0,1-4.18-3.1l-1,.62c-5.68,5.55-12.16,8-20.12,5.62a4.61,4.61,0,0,0-6,2.93c2.15,5.13,1.31,7.26-3.77,9.81l-4.71,2.12c-1.93.71-2.24,2.22-2.2,3.89.06,3-.62,5.65-3,7.7-3.26,2.81-3.51,6.87-4.23,10.7-.12.64-.66,1.68.78,2.2,1.26.45,2.54.65,3-.53,1.4-4.08,5.53-3,8-4.81,2.43,1.34,2.57,4,4.07,5.69v.86c2-2.48,5.48-1.87,7.78-4.19,4.85-4.9,17.07-4,21.75,1.17a2.8,2.8,0,0,1,.84,2.16c-.11,2.95,1.23,5.07,4.44,6.48A41.33,41.33,0,0,0,194,445.27c-1.23,2.67-2.72,3-5.19,1.43l-.62.79c-1.63,2-3.78,3.75-1.81,6.91a2.19,2.19,0,0,1-1.61,3.34c-4.14.71-5.54,4.77-8.56,6.84a1.61,1.61,0,0,0-.39,2.56c2.6,3.24.68,5.32-1.74,7.28-1,.83-2.16,1.56-3.59,2.58,6.67,10.4,12,20.42,4.93,32.12-1.37,1.56-3.75.18-5.75,1.31-.23,1.9-.59,3.9-.68,5.91-.07,1.6-.68,3.48,2.09,3.93,1.71.28,2.75,1.67,2.61,3.76-.38,5.9-.29,6.13,5.53,6.34,3.28.11,4.71,1,3.36,4.29a12.88,12.88,0,0,1,5.33,2.41c3.64,2.33,6.26,4.68,6.86,9.17.11.88,2.15,2.06,3.68,1.69,4.23-1,8.65.34,12.89-1.54,2.25-1,5.07-.7,7.64-1Z"/><path class="cls-1" d="M294.49,550c-2.29,0-4.42-.85-6.23-3.7a14.26,14.26,0,0,0-1.64-2c-.41-.44-.83-.88-1.21-1.34a2.65,2.65,0,0,0-3.6-.86c-2.13,1.24-3.67.77-5.29.27l-.84-.26c-6.36-1.93-6.84-2.55-7.29-9.41a1.69,1.69,0,0,0,0-.25,3.49,3.49,0,0,0-.39-.6,15.12,15.12,0,0,1-3.08,2.93c-1.73,1.36-3.23,2.53-3.67,4.88a5.36,5.36,0,0,1-3.26,4.12c-2.38,1-5.52.46-8.18-1.38a7.17,7.17,0,0,0-4.64-1.59,9.62,9.62,0,0,1-6.54-2.09c-2.67-2.48-4.07-2.41-5.6-1.46l-.88.54-.83-.62c-2.23-1.71-2.44-4.23-1.5-5.74.59-1,.52-1.3.52-1.3s-.47-.39-1.89-.8c-1-.29-2.44-.62-3.18-.18a2.43,2.43,0,0,0-.91,1.64,8.1,8.1,0,0,1-3.15,5.22,1.73,1.73,0,0,0-.22.64,74.92,74.92,0,0,1,.75,8.71l.06,1.57-2.7,0c-.82.09-1.65.12-2.46.15a13.13,13.13,0,0,0-4.64.7c-2.74,1.22-5.45,1.23-8.07,1.24a22.23,22.23,0,0,0-5.09.39,5.26,5.26,0,0,1-4-.89,3.07,3.07,0,0,1-1.46-2.06c-.5-3.8-2.65-5.85-6.18-8.11l-.17-.11a11.2,11.2,0,0,0-4.56-2.08l-1.9-.27.72-1.78c.56-1.37.36-1.74.36-1.74s-.29-.41-2.38-.48c-3.15-.11-5-.24-6.12-1.49s-1.06-3.25-.86-6.44c.06-.89-.13-2-1.35-2.19-3.77-.61-3.51-3.49-3.39-4.88,0-.2,0-.4,0-.6.07-1.48.27-2.92.47-4.32.08-.57.16-1.14.22-1.7l.1-.75.66-.38a7,7,0,0,1,3.62-.69c.95,0,1.4,0,1.67-.23,6.45-10.82,1.55-20.17-5-30.39l-.77-1.2,1.16-.83,1.35-.94c.82-.57,1.52-1.06,2.17-1.59,2.74-2.21,3.05-3.27,1.52-5.17a3.25,3.25,0,0,1-.76-2.52,3.21,3.21,0,0,1,1.47-2.21,14.65,14.65,0,0,0,2.63-2.6c1.59-1.85,3.39-3.95,6.53-4.49.48-.08.58-.3.62-.38a.85.85,0,0,0,0-.69c-2.31-3.7-.21-6.15,1.33-7.94l.59-.7,1.43-1.82,1.14.7c1.18.73,1.71.73,1.92.67s.73-.62,1.12-1.46a41.1,41.1,0,0,1,7.81-11.25,7.51,7.51,0,0,1-3.48-6.9,1.28,1.28,0,0,0-.45-1.1c-2.07-2.27-6.23-3.8-10.6-3.9-3.81-.09-7.17,1-9,2.77a10.09,10.09,0,0,1-4.47,2.36,6.22,6.22,0,0,0-3.21,1.71l-2.67,3.35v-4.61a13,13,0,0,1-1.19-2.14,7.19,7.19,0,0,0-1.46-2.3,13.47,13.47,0,0,1-2.63.86c-2,.52-3.24.89-3.85,2.66a2.69,2.69,0,0,1-1.39,1.61,4.66,4.66,0,0,1-3.48-.16c-1.15-.42-2.39-1.39-1.79-3.68,0-.08,0-.15,0-.21l.27-1.53c.57-3.39,1.22-7.24,4.45-10,1.77-1.53,2.54-3.55,2.48-6.54,0-1.12-.08-4.09,3.13-5.31l4.66-2.1c4.32-2.17,4.84-3.5,3-7.86l-.24-.58.24-.57a6.09,6.09,0,0,1,7.78-3.8c7,2.05,12.87.38,18.64-5.26l.27-.21,1.94-1.18.83.72a37.64,37.64,0,0,0,3.38,2.53l.68.47a3.87,3.87,0,0,0,2.64,0,4.92,4.92,0,0,0,2.48-1.3,14.74,14.74,0,0,1,.55-3.4c.45-1.85.7-3.05.06-4.27l-.59-1.15,1-.76c1.93-1.39,3.09-2.3,3.4-3.88l.11-.56,3.51-2.66c.19-.22.39-.46.59-.72,1.31-1.65,3.28-4.14,7-3.28a2.33,2.33,0,0,0,2-.16,2.92,2.92,0,0,0,.42-2.4,4.94,4.94,0,0,1,.79-3.91,3.1,3.1,0,0,1,2.34-1.11,24.21,24.21,0,0,1,5,.43,21.75,21.75,0,0,0,4.41.41c2.22-.08,2.89,1.88,3.22,2.82a4.27,4.27,0,0,0,.32.8c.37.64.48.63.63.61a5.49,5.49,0,0,1,4.3,1c1.58,1.32,1.93,3.5,2.06,5.46.11,1.59.33,1.7,1.47,1.7a6.11,6.11,0,0,1,3.42,1.33c.26.17.52.34.77.48a4.24,4.24,0,0,0,4,.35,3.42,3.42,0,0,0,1.85-2.71,16.35,16.35,0,0,1,.74-2.82c.18-.56.35-1.09.47-1.59.17-.72.37-1.44.57-2.17.77-2.74,1.49-5.34.17-7.81l-.4-.75.43-.73a7.79,7.79,0,0,1,1.9-2c1.2-1,1.48-1.31,1.33-2.19-.71-4,1.79-5.79,3.73-6.79,4.28-2.23,6.08-4.89,5.51-8.15-.52-2.93-.62-6.57,3.23-8.74l.47-.26.53.09a49.13,49.13,0,0,1,5.38,1.38c3.86,1.16,7.19,2.16,10.91.79l.62-.23.59.31a6.48,6.48,0,0,1,2.8,3.59c.56,1.31,1,2.34,2.38,2.92s3,1.2,4.54,1.76c3.82,1.41,7.76,2.86,11.29,5.36,2.69,1.9,4.38,5.71,2.41,8.54a9.47,9.47,0,0,1-3.61,3.47c-2.62,1.15-3.34,3.47-4.18,6.16a15,15,0,0,1-2.82,5.81l.13.13c2.14,1.84,2.39,4.2.75,7-.54.92-.37,1.86,0,3.33a11.82,11.82,0,0,1,.38,2.79.24.24,0,0,0,0,.1c.11.05.78.17,1.18.25a8.76,8.76,0,0,1,1.55.38c2.2.82,3.48,1.95,3.89,3.44s-.09,3.06-1.51,4.86a25.17,25.17,0,0,0-2,2.82,3.18,3.18,0,0,0-.48,2.79,1.77,1.77,0,0,0,1.5.83c6.56.75,10.75,4.77,14.74,9.24l3,.79-1.89,1.85a12.71,12.71,0,0,0-3.1,4,7.36,7.36,0,0,0,.76,4,5.11,5.11,0,0,0,1.58,2.37c4.92.85,5.2,5,5.37,7.45s.33,3,1.89,3.36a4.71,4.71,0,0,1,3.67,2.68c.92,2.12-.07,4.65-.8,5.82a17.22,17.22,0,0,0-1.57,3.75,17.88,17.88,0,0,1-2,4.6,4.26,4.26,0,0,0-.65,1.5c3.27,5.79,1.34,10.92-1.12,15.67l1.82,4.6-.82.7a8.74,8.74,0,0,0-2.22,4,11,11,0,0,1-3.33,5.5c-1,.76-.92,1.5-.5,3.42a11.08,11.08,0,0,1,.35,2.7,2.94,2.94,0,0,0,1,.23c.31,0,.42-.3.46-.42.06-3.45,2.14-5.51,4-7.34a11.46,11.46,0,0,0,2.67-3.37l.92-2.2,5,5.62a16.69,16.69,0,0,1,2.79,3.67c2.75,4.9,4.42,10.15-1.92,15.39-1.2,1-1.78,3.06-2.4,5.25a29,29,0,0,1-1.24,3.79c-.27.62-.52,1.27-.77,1.93-.87,2.26-1.77,4.61-3.56,6.18-4.37,3.82-6.61,8.49-7.05,14.7l.9,3.85-1.6.25a6.48,6.48,0,0,0-3.63,1.81,2.58,2.58,0,0,1-2.17.81,4.9,4.9,0,0,0-3.64.31c-1.15.82-1.46,2.82-1.76,4.77a23.32,23.32,0,0,1-.45,2.41c-1.5,6-5.25,9.51-10.84,10a9.55,9.55,0,0,0-3.81,1.54,15.29,15.29,0,0,1-4,1.78A16.74,16.74,0,0,1,294.49,550Zm-11.32-11.26a5.93,5.93,0,0,1,4.56,2.36c.33.41.7.8,1.07,1.19a15.67,15.67,0,0,1,2,2.4c1.65,2.6,3.2,2.72,7,1.78a12.56,12.56,0,0,0,3.24-1.48,12,12,0,0,1,5-1.91c4.32-.41,7-2.95,8.2-7.77.16-.64.28-1.38.39-2.15.38-2.44.81-5.21,3-6.76a7.24,7.24,0,0,1,5.52-.88,9.38,9.38,0,0,1,3.62-2.19l-.3-1.26,0-.22c.45-7.07,3.09-12.63,8.09-17,1.23-1.08,2-3.07,2.73-5,.26-.69.53-1.39.81-2.05a26.07,26.07,0,0,0,1.12-3.4c.71-2.54,1.45-5.17,3.37-6.75,4.47-3.69,3.91-6.81,1.21-11.61a13.33,13.33,0,0,0-2.35-3.07l-2.12-2.38a22.66,22.66,0,0,1-2.19,2.39c-1.65,1.64-3.08,3.06-3.09,5.34a3.55,3.55,0,0,1-1.13,2.36,3.21,3.21,0,0,1-2.45.93,4.94,4.94,0,0,1-3.37-1.43,2.08,2.08,0,0,1-.5-1.62,7.52,7.52,0,0,0-.26-2.24c-.41-1.87-1-4.43,1.58-6.42,1.24-1,1.76-2.44,2.35-4.13a13.28,13.28,0,0,1,2.32-4.53l-1.57-4,.32-.61c2.33-4.42,4.19-8.77,1.4-13.56-1-1.69.67-4.23.87-4.51a15.74,15.74,0,0,0,1.65-3.85,19.5,19.5,0,0,1,1.88-4.41,4.06,4.06,0,0,0,.59-3c-.07-.17-.29-.68-1.52-.93-3.92-.8-4.12-3.73-4.28-6.09-.2-3-.54-4.3-2.92-4.71-1.19-.21-2.28-1.21-3.23-3s-2.22-5.48-1.33-7.56a12.79,12.79,0,0,1,2.41-3.58c-3.68-4.11-7.25-7.5-12.74-8.13a4.67,4.67,0,0,1-3.83-2.48,5.91,5.91,0,0,1,.58-5.64,28.77,28.77,0,0,1,2.24-3.17c.75-.94,1.1-1.74,1-2.19s-.88-1-2.06-1.43a6.07,6.07,0,0,0-1-.24c-1.2-.22-3.7-.68-3.64-3.37a9.62,9.62,0,0,0-.31-2.07c-.35-1.57-.78-3.52.38-5.49,1-1.76.75-2.5-.11-3.24a3.3,3.3,0,0,1-1.27-2.32,2.64,2.64,0,0,1,.75-2,12,12,0,0,0,2.29-4.82c.93-2.95,2-6.3,5.84-8a7.24,7.24,0,0,0,2.36-2.43c.88-1.26-.18-3.32-1.68-4.38-3.21-2.27-6.8-3.6-10.6-5-1.53-.57-3.12-1.16-4.66-1.81a7.47,7.47,0,0,1-4-4.49,5.88,5.88,0,0,0-1-1.78c-4.35,1.32-8.25.14-12-1-1.46-.44-3-.89-4.49-1.2-1.25.87-1.87,2.19-1.31,5.33s-.2,7.75-7.08,11.33c-2.15,1.12-2.42,2.13-2.16,3.61.48,2.71-1.25,4.11-2.39,5a9.71,9.71,0,0,0-.74.63c1.29,3.21.42,6.33-.36,9.11-.19.68-.38,1.36-.54,2a17.3,17.3,0,0,1-.54,1.85,14.79,14.79,0,0,0-.63,2.34,6.41,6.41,0,0,1-3.5,5,7.24,7.24,0,0,1-6.79-.44c-.3-.17-.6-.37-.9-.56a4.82,4.82,0,0,0-1.73-.86h-.15c-4.08,0-4.31-3.38-4.38-4.5s-.27-2.76-1-3.36a2.77,2.77,0,0,0-2.05-.36,3.59,3.59,0,0,1-3.54-2.06,7,7,0,0,1-.58-1.35,4.94,4.94,0,0,0-.32-.8,25.5,25.5,0,0,1-4.94-.45,22.4,22.4,0,0,0-4.39-.4.46.46,0,0,0-.19,0c-.06.06-.26.49-.12,1.61.35,2.8-.55,4.27-1.37,5s-2.23,1.42-4.71.85c-1.8-.41-2.68.58-4,2.22-.27.35-.54.68-.8,1l-.21.2-2.75,2.08a8.55,8.55,0,0,1-3.5,4.45,9.76,9.76,0,0,1-.3,5.15,11.87,11.87,0,0,0-.46,2.77c0,1.25-.9,2.42-2.58,3.3s-5.23,1.84-7.26.42l-.67-.47c-.93-.64-1.87-1.3-2.78-2-6.49,6.26-13.5,8.17-21.42,5.83a3.05,3.05,0,0,0-3.91,1.53c2.12,5.45.87,8.3-4.73,11.11l-4.86,2.19c-.86.31-1.26.76-1.22,2.45.07,3.92-1,6.73-3.52,8.87s-2.92,5.07-3.45,8.25c-.09.53-.18,1.06-.28,1.58a3.48,3.48,0,0,1-.1.41l0,.13a3.82,3.82,0,0,0,1,.24c1.2-3.28,3.92-4,5.92-4.46a7.85,7.85,0,0,0,2.55-.94l.77-.56.84.46a8.18,8.18,0,0,1,3.36,4.11c.21.44.41.87.64,1.25a13.56,13.56,0,0,1,2.82-1.14,7.55,7.55,0,0,0,3.24-1.61c2.4-2.42,6.49-3.78,11.17-3.66,5.23.12,10.11,2,12.75,4.88A4.24,4.24,0,0,1,200,426.6c-.09,2.41,1,3.92,3.55,5l2,.89L204,434.09a39.94,39.94,0,0,0-8.61,11.81,5.1,5.1,0,0,1-3,3.07,4.54,4.54,0,0,1-3.18-.35l-.5.58c-1.56,1.83-2.15,2.64-1.05,4.4a3.85,3.85,0,0,1,.21,3.51,3.65,3.65,0,0,1-2.84,2.11c-2.07.35-3.32,1.8-4.76,3.48a17.55,17.55,0,0,1-3.2,3.12.91.91,0,0,0-.22.2s.05.07.14.18c3.8,4.73-.25,8-2,9.39-.74.59-1.49,1.11-2.35,1.71l-.15.1c6.51,10.31,11.38,20.61,4.19,32.49l-.16.21c-1.19,1.37-2.77,1.35-4,1.33a7.53,7.53,0,0,0-1.47.08l-.12.86c-.19,1.33-.38,2.7-.44,4,0,.24,0,.49-.05.73-.13,1.48-.12,1.5.88,1.66,2.53.41,4.05,2.51,3.87,5.34-.11,1.72-.25,3.86.08,4.23s2.55.46,4,.51c1.82.06,3.82.33,4.8,1.85a3.79,3.79,0,0,1,.42,2.85,17.27,17.27,0,0,1,4.06,2.13l.17.1c3.23,2.07,6.73,4.72,7.51,10.06a2.47,2.47,0,0,0,1.87.61,24.75,24.75,0,0,1,5.77-.47,16.58,16.58,0,0,0,6.86-1,15.42,15.42,0,0,1,5.75-1c.75,0,1.46,0,2.15-.12-.12-2.49-.34-4.74-.65-6.85a4,4,0,0,1,1.46-3.53,5.09,5.09,0,0,0,1.94-3.43,5.26,5.26,0,0,1,2.31-3.55c1.71-1,3.76-.63,5.53-.12,1.28.36,3.22.92,3.87,2.6.43,1.12.18,2.42-.77,4a1.19,1.19,0,0,0,.16,1.12c3.36-1.43,6.09.48,8.14,2.38a6.82,6.82,0,0,0,4.36,1.29,9.94,9.94,0,0,1,6.48,2.12c1.78,1.23,3.92,1.66,5.33,1.07a2.33,2.33,0,0,0,1.46-1.89c.65-3.47,2.84-5.18,4.77-6.69,1.47-1.15,2.75-2.15,3.26-3.82l.85-2.8,1.77,2.33c2.19,2.86,2.37,3.1,2.45,4.37.19,2.8.31,4.29.81,4.93s1.87,1.05,4.36,1.81l.85.26c1.43.44,1.9.59,2.9,0A5.65,5.65,0,0,1,283.17,538.69Zm-87,7.11Zm134.94-67.69Z"/><path class="cls-2" d="M216.24,471.35v10H213v-10h-3.77v-2.59H220v2.59Z"/><path class="cls-2" d="M226.52,479.06l-.92,2.32h-3.29l5.43-12.61H231l5.31,12.61h-3.42l-.89-2.32Zm3.84-11.56-1-1.53-1,1.53h-2.23l2-2.73h2.49l2,2.73ZM229.28,472l-1.83,4.66h3.64Z"/><path class="cls-2" d="M252.12,481.38v-8.19l-3,6.93H247l-3-6.93v8.19H241.1V468.76h3.52l3.42,7.5,3.42-7.5h3.48v12.62Z"/><path class="cls-2" d="M264.28,471.29v2.51h6v2.52h-6v2.53h6.86v2.53H261.08V468.77H271v2.52Z"/><path class="cls-2" d="M288,475v4.91a9.9,9.9,0,0,1-5.24,1.64,7,7,0,0,1-3.43-.85,6.32,6.32,0,0,1-2.42-2.31,6.23,6.23,0,0,1-.88-3.29,6,6,0,0,1,.91-3.26,6.42,6.42,0,0,1,2.49-2.3,7.44,7.44,0,0,1,3.55-.84,8.22,8.22,0,0,1,2.79.5,7.14,7.14,0,0,1,2.35,1.37l-1.79,2.18a5.23,5.23,0,0,0-1.59-1,4.58,4.58,0,0,0-1.78-.37,3.48,3.48,0,0,0-1.86.5,3.54,3.54,0,0,0-1.32,1.34,3.83,3.83,0,0,0-.47,1.88,3.92,3.92,0,0,0,.48,1.93,3.49,3.49,0,0,0,1.33,1.34,3.67,3.67,0,0,0,1.88.5,4,4,0,0,0,1.07-.17,6.11,6.11,0,0,0,1.16-.44V475Z"/><path class="cls-2" d="M296.64,479.06l-.92,2.32h-3.29l5.43-12.61h3.3l5.3,12.61h-3.41l-.9-2.32Zm2.77-7.1-1.84,4.66h3.64Z"/><path class="cls-2" d="M210.73,492.89v2.51h6v2.52h-6v2.53h6.85V503H207.52V490.37h9.87v2.52Z"/><path class="cls-2" d="M238.53,490.61a8.43,8.43,0,0,1,2.31,1l-1.21,2.49a11,11,0,0,0-2.13-.94,6.48,6.48,0,0,0-1.9-.37,1.86,1.86,0,0,0-1,.24.75.75,0,0,0-.38.68,1,1,0,0,0,.59.91,9.78,9.78,0,0,0,1.84.68,15,15,0,0,1,2.16.76,3.87,3.87,0,0,1,1.46,1.13,3.07,3.07,0,0,1,.61,2,3.37,3.37,0,0,1-.66,2.1,4.07,4.07,0,0,1-1.81,1.31,7,7,0,0,1-2.57.44,9.23,9.23,0,0,1-3.09-.54,8.83,8.83,0,0,1-2.67-1.47l1.24-2.47a8.29,8.29,0,0,0,2.26,1.36,6.23,6.23,0,0,0,2.29.53,2.19,2.19,0,0,0,1.21-.28.91.91,0,0,0,.44-.82,1,1,0,0,0-.61-.93,9.16,9.16,0,0,0-1.88-.67,17.4,17.4,0,0,1-2.13-.72,3.76,3.76,0,0,1-1.44-1.1,3,3,0,0,1-.6-1.94,3.24,3.24,0,0,1,.62-2,4,4,0,0,1,1.76-1.33,6.93,6.93,0,0,1,2.63-.47A9.62,9.62,0,0,1,238.53,490.61Z"/><path class="cls-2" d="M255.67,491.11a6.26,6.26,0,0,1,2.44,2.29,6.07,6.07,0,0,1,.89,3.26,6.28,6.28,0,0,1-3.33,5.61,7.53,7.53,0,0,1-6.95,0,6.26,6.26,0,0,1-3.34-5.61,6.18,6.18,0,0,1,.89-3.28,6.3,6.3,0,0,1,2.44-2.28,7.15,7.15,0,0,1,3.47-.83A7.23,7.23,0,0,1,255.67,491.11Zm-5.22,2.33a3.51,3.51,0,0,0-1.31,1.34,3.77,3.77,0,0,0-.48,1.89,3.91,3.91,0,0,0,.48,1.92,3.54,3.54,0,0,0,1.31,1.35,3.34,3.34,0,0,0,1.77.5,3.24,3.24,0,0,0,1.75-.5,3.54,3.54,0,0,0,1.28-1.35,4,4,0,0,0,.47-1.92,3.87,3.87,0,0,0-.47-1.89,3.51,3.51,0,0,0-1.28-1.34,3.23,3.23,0,0,0-1.75-.49A3.33,3.33,0,0,0,250.45,493.44Z"/><path class="cls-2" d="M274.93,500.56a4.63,4.63,0,0,1-2,1.89,6.46,6.46,0,0,1-3,.67,6.66,6.66,0,0,1-3.08-.67,4.79,4.79,0,0,1-2-1.89,5.63,5.63,0,0,1-.71-2.87v-7.32h3.2v7.32a2.74,2.74,0,0,0,.73,2,2.52,2.52,0,0,0,1.9.75,2.42,2.42,0,0,0,1.84-.74,2.78,2.78,0,0,0,.7-2v-7.32h3.19v7.32A5.63,5.63,0,0,1,274.93,500.56Z"/><path class="cls-2" d="M289,490.61a8.43,8.43,0,0,1,2.31,1l-1.21,2.49a11,11,0,0,0-2.13-.94,6.48,6.48,0,0,0-1.9-.37,1.86,1.86,0,0,0-1,.24.75.75,0,0,0-.38.68,1,1,0,0,0,.59.91,9.51,9.51,0,0,0,1.84.68,15,15,0,0,1,2.16.76,3.87,3.87,0,0,1,1.46,1.13,3.07,3.07,0,0,1,.61,2,3.37,3.37,0,0,1-.66,2.1,4,4,0,0,1-1.82,1.31,6.91,6.91,0,0,1-2.56.44,9.28,9.28,0,0,1-3.1-.54,8.77,8.77,0,0,1-2.66-1.47l1.24-2.47a8.38,8.38,0,0,0,2.25,1.36,6.32,6.32,0,0,0,2.3.53,2.19,2.19,0,0,0,1.21-.28.91.91,0,0,0,.44-.82,1,1,0,0,0-.61-.93,9.16,9.16,0,0,0-1.88-.67,17.4,17.4,0,0,1-2.13-.72A3.76,3.76,0,0,1,282,496a3,3,0,0,1-.61-1.94,3.3,3.3,0,0,1,.62-2,4.05,4.05,0,0,1,1.77-1.33,6.93,6.93,0,0,1,2.63-.47A9.68,9.68,0,0,1,289,490.61Z"/><path class="cls-2" d="M299.53,500.66l-.92,2.32h-3.29l5.43-12.61H304L309.35,503h-3.42l-.89-2.32Zm2.77-7.1-1.84,4.66h3.64Z"/></svg>