<svg id="Camada_1" data-name="Camada 1" xmlns="http://www.w3.org/2000/svg" viewBox="0 0 900 670"><defs><style>.cls-1{fill:#fff;}.cls-2{fill:#9095a0;}</style></defs><title>Prancheta 1 cópia 3</title><path class="cls-1" d="M725.55,439.36c-6.62-3.78-9.5-10.77-14.11-16.26-.53-.62-1-1.58-2.31-1.24-7.27,2.82-10.44,9-12.21,16.19-.83,3.38-7.9,7.37-11.12,6.43-5.21-1.51-9.49-4.48-11.39-9.48-1.59-4.16-4.52-3.48-7.42-3.31-3.86.23-7.66,1.05-11.57,0-1.08-.28-2.44-.64-2.44-1.38,0-4.45-5.11-3.86-6.52-6.83-.36-.74-1.13-.47-1.7-.42-8.57.75-15.62-3.14-22.17-7.8A45.79,45.79,0,0,1,611,402.56c-2.05-3.17-5.56-3.9-8.56-5.24-1.77.91-2,2.51-2.55,4-1,3-1.53,6-3.72,8.66-1.12,1.34-1,3.7-.68,5.9.7,4.09.58,8.29-1.93,12-4.95-1.05-8.1-5.11-12.48-7-2.14-.91-4.16-2-6.42-.4-.42.3-1,.9-1.27.8-4.91-1.67-6.24,2.42-8.06,5.24-1.44,2.22-3,2.59-5.53,3.3l-9.94,2.2c-2.58-8.67-7.08-17.15-2.29-26.35-2.23-1.23-13.21-1.86-15.65-.84L528.31,402c1.12-2.3,1-5.53,4.85-5.87,1.51-.13,1.61-1.58,1.77-2.93a55.1,55.1,0,0,1,1.22-5.73c-.95-.36-2-1.2-3-1.05-8.38,1.44-14.31-4.51-21.38-6.93-2.2-.76-3.12-2.9-4.27-4.7s.72-3.23,1-4.73c.46-2.32-1.37-4.73-2-7.19-1.32-5-1.77-9.67.09-14.59.89-2.35.14-5.59-1.44-8.35l.62-.18c3.36-3.76,9.45-2.82,12.41-7.26.64-1,1.75-.14,2.55-.46,1.55-.61,3.54,0,4.63-2.11-.83-4.41,2-16.58,4.78-20.11,1.11-1.39,2.56-1.61,4.27-1.77,3.87-.36,7.69-1.27,11.56-1.58,2.71-.22,2.73-2.52,2-3.37-1.7-2-1.74-4.86-3.4-6.41-2.52-2.36-2.61-5.75-4.54-8.28-1.48-1.95-1.29-4.2-.09-6.4.48-.88,1.55-1.77.88-3-2.83-5-.41-9.34,1.74-13.69.55-1.1,1.2-2.29.79-3.41-1.86-5.14,1.42-8.76,3.42-12.87,2.73-5.6,6.34-10.76,6.65-17.5.19-4.26.31-9.2,4.9-12,.59-.37.69-1.63.88-2.51.42-1.89.83-3.23,3.41-3.58s3.78-2.25,3.2-5.42c-.36-1.93-1.49-4.1.11-6.47,1.3-1.94,1.06-4.27-2-5.59-1.84-.8-4.16-2.53-4.52-4.21a52.32,52.32,0,0,0-2.16-6.44c-.78-2.24-3.71-3.77-3-5.86,1.2-3.77-1.32-7.47.53-11.25a17.69,17.69,0,0,0,1.36-4.63c.59-3.72,2.93-7.66-.77-11.11l-2.13-.42c.08-.07.28,0,.42,0,3-.26,4.75-1.86,6.09-4.65,1.59-3.33,1.42-7.25,3.09-10.2,2.13-3.75.81-6.52-.69-9.49-1.08-2.14-1.63-4.18-.77-6.43a4.85,4.85,0,0,0,0-3.44c-2.28-7,.5-11.57,8.72-9.34,1.14-2.33,2.08-5.15,5.36-5.16,5.65,0,10,3.71,15,5.54,3,1.1,2.46,4.16,3.46,6.39,2.82,6.3,4.61,6.34,11.47,4.16,1.28-.41,2.33-1,3.44-.27,2.2,1.37,4.58.58,6.86.83,3.53.39,4.06-2.37,5.19-4.68.51-1,1.66-1.74,2.51-2.59,4.79-4.79,9.86-3.81,12.36,2.58,1.73,4.4,3.93,7.69,9.46,6.45a7.82,7.82,0,0,1,3,.38c4.13.81,8.41,2.84,12.34-.08,2.45-1.82,4.28-1.63,6.94-.46,5.36,2.35,10.91-.62,12.79-6.3a25.21,25.21,0,0,0,1.24-3.43c.57-3.29,1.25-6.62-.39-9.83H682c2,0,4.07-.36,6,.08,3.51.81,7.54.55,8,6.31.28,3.8,2.94,7.41,4.44,11.15.53,1.34,1.4,2.64,2.6,2.91,5.91,1.3,11.87,3.1,17.93,2.53,7.15-.68,14-3.86,21.39-2.91a1.78,1.78,0,0,0,1.27-.42c3.31-3.1,8.61-4.13,9.85-9.39l.43-.86c3.19.95,5.58,3.14,8.12,5.13,5.68,4.44,6.54,7.69,3.38,14.53-1.92,4.16-1.86,9-4.62,12.87-1.27,1.78-.46,3,1.67,3.4,3.71.69,7.38,1.61,11.12,2,1.77.21,3.15.44,3.73,1.88-2.28,6.24-4.43,12.23-4.11,18.72a10.69,10.69,0,0,1-1,5.52c-2.06,3.8-3.39,7.62-3,12a7.42,7.42,0,0,1-.86,4.23c-1.53,2.56-2.73,5-2.57,8.17.14,2.57-3.44,3-3.81,5.55s2.73,2.51,3.36,5.05c1.14,4.67,1.88,9.66,4.37,14l-1.28.21c-2.26,4.46-1.44,6.45,3.84,9.86a25,25,0,0,1,6.92,5.91,8.59,8.59,0,0,0,11.42,1.7c1.77-1.28,3.2-2.52,5.61-2.63,1.72-.08,2.73-1.47,3.14-3.69.83-4.51,1.11-4.22,5.86-3.11,2.74.63,5.5,1.26,8.57.72,2.39-.43,5.16.73,7.64,1.57a8.33,8.33,0,0,0,5.52.22c3.66-1.55,6.78-.23,9.86,1.07,3.93,1.65,8.36,2.26,11.92,4.35,8,4.71,15.8,10.1,19.69,19.12a9.84,9.84,0,0,0,8.6,6.45c3.63.45,8.35,6.59,8.08,10.2a3.38,3.38,0,0,1-1.25,2.11c-3.94,3.08-5.35,7.3-7.21,11.85-2.19,5.36-5,11.65-12,13.29-.1,2.18,1.17,3.81,1.68,5.69-4.66,2.92-4.66,2.92-4.25,5.56-3.38,2.09-7.33,3.63-6.53,9,.26,1.71-2.42,2-3.3,3.41-1,1.67-2,3.39-3.1,5.15.91,1.15,1.74,2.31,2.68,3.39a2.64,2.64,0,0,1,.34,2.95c-2.2,3.22-3.42,7.59-8.48,7.77-2.08.07-2.47,1.84-3.12,3.71,1.66,1.57,4.2,2.46,5.26,4.82.9,2,.78,3.69-1.72,4.23a8,8,0,0,0-2.59.83c-7.22,4.17-7.76,4-12.36-3.35l-.43.85c-1.2.22-1.57,1.7-3,1.76a4.1,4.1,0,0,0-4.26,4.23c-.17,2.6-.26,5.22,3.4,5.59a6.39,6.39,0,0,1,1.86.78c-2,4.66-5.32,5.18-8.7,5.61-5.25.66-7.78,5.75-5.13,10.25h.85c-3.59,1.77-6.71,3.44-6.65,8.56,0,2.53-3.6,4.46-6.11,3.65-3.24-1-5.12.49-7.33,1.91-3.81,2.47-4,3.48-.82,6.37,1.31,1.21,1.15,2.15-.05,3-2.44,1.72-4.83,3.66-8.38,3.41-1.19-.2-1.18-1.66-1.88-2.52-1.3-1.58-2.24-.94-3.46.37a33.22,33.22,0,0,1-5.55,4.69,3.89,3.89,0,0,0-1.75,3c-.54,3.12-6.67,6.92-9.73,5.92s-3.37-4-3.87-6.76l-.43,2.13c-1.63.78-2.82,3.13-5.22,1-.64-.58-3-.31-3.65.4-2.22,2.61-4.59,1.68-6.93.72-1.25-.51-2.5-.68-3,.5-2.62,6.94-9.24,10.53-13.31,16.23Z"/><path class="cls-1" d="M686.88,446.12a5.37,5.37,0,0,1-1.5-.2c-6.2-1.8-10.48-5.39-12.38-10.38-1-2.61-2.26-2.62-5-2.41l-.87.06c-.93.05-1.86.14-2.79.23a25.77,25.77,0,0,1-9.24-.24c-1.42-.36-3.56-.91-3.57-2.82,0-1.61-.87-2.12-2.66-3a7.81,7.81,0,0,1-3.52-2.8h0l-.39.05c-9.28.81-16.92-3.63-23.17-8.08a46.92,46.92,0,0,1-12-13.14c-1.36-2.1-3.56-3-5.89-3.87l-1.26-.49a4.5,4.5,0,0,0-1.07,2.1c-.07.22-.14.44-.22.65-.24.7-.46,1.41-.67,2.11a18.67,18.67,0,0,1-3.31,7c-.35.43-.87,1.6-.35,4.68.91,5.39.23,9.56-2.16,13.13l-.57.85-1-.21c-3.2-.68-5.63-2.43-8-4.12a25.65,25.65,0,0,0-4.77-2.93l-.54-.23c-2-.87-3.11-1.28-4.43-.33a1.89,1.89,0,0,0-.28.23,2.38,2.38,0,0,1-2.34.77c-2.88-1-3.85.44-5.47,3.23-.28.48-.56.95-.85,1.4-1.69,2.61-3.61,3.15-6.05,3.84l-.33.1-11.39,2.52-.4-1.34c-.43-1.47-.94-3-1.43-4.42-2.3-6.84-4.68-13.9-1.49-21.48-3.46-.75-11.3-1-13-.34l-.83.35-5.2-4.22.51-1.07a12.17,12.17,0,0,0,.58-1.56c.65-2,1.55-4.81,5.49-5.15l.12,0a5.25,5.25,0,0,0,.27-1.43l0-.15a31.6,31.6,0,0,1,.82-4.12l.15-.6a2.74,2.74,0,0,0-1-.4c-6.15,1.05-11-1.53-15.71-4a45.85,45.85,0,0,0-6.39-3c-2.34-.8-3.48-2.71-4.49-4.39-.18-.31-.36-.61-.55-.91-1.33-2.07-.3-3.81.32-4.85a3.89,3.89,0,0,0,.49-1c.21-1.05-.36-2.36-1-3.75a18.9,18.9,0,0,1-1-2.76c-1.1-4.14-2.08-9.65.13-15.5.67-1.76.16-4.47-1.33-7.08l-.94-1.64,2.05-.61c1.78-1.81,4-2.57,6.21-3.31,2.4-.81,4.47-1.51,5.77-3.46a2.8,2.8,0,0,1,3-1.08l.35,0a8,8,0,0,1,1.8-.41c.95-.13,1.41-.23,1.75-.62-.61-5.33,2.26-17.06,5.17-20.7,1.58-2,3.73-2.19,5.3-2.34,1.8-.16,3.65-.46,5.43-.75,2-.33,4.07-.66,6.15-.83.24,0,.83-.09,1-.4a.65.65,0,0,0,0-.51,11.55,11.55,0,0,1-1.93-3.7,6.84,6.84,0,0,0-1.34-2.58,13.15,13.15,0,0,1-3.1-5.2,12.8,12.8,0,0,0-1.62-3.27c-1.72-2.26-1.8-5.11-.21-8a8,8,0,0,1,.49-.75,3.32,3.32,0,0,0,.43-.73c-3.11-5.5-.73-10.29,1.38-14.51l.39-.79c.37-.75.8-1.59.63-2-1.72-4.73.36-8.4,2.18-11.63.47-.82.91-1.6,1.3-2.4.59-1.2,1.21-2.38,1.83-3.57,2.28-4.3,4.44-8.37,4.67-13.34v-.29c.2-4.31.44-9.66,5.45-12.87a6.57,6.57,0,0,0,.23-1c0-.21.08-.42.13-.62.39-1.79.93-4.24,4.67-4.75a2.24,2.24,0,0,0,1.59-.82,3.72,3.72,0,0,0,.33-2.84c-.06-.36-.16-.73-.26-1.11-.44-1.69-1-4,.61-6.47a2.26,2.26,0,0,0,.43-1.8,2.91,2.91,0,0,0-1.74-1.57c-1.75-.77-4.84-2.74-5.38-5.28a29.83,29.83,0,0,0-1.42-4.38c-.23-.61-.47-1.24-.69-1.87a7.42,7.42,0,0,0-1.35-2c-1-1.24-2.36-2.79-1.71-4.83a10.27,10.27,0,0,0,0-4.52c-.28-2.11-.61-4.49.59-6.94a16.21,16.21,0,0,0,1.23-4.21,25.49,25.49,0,0,1,.6-2.65c.77-3,1.17-4.95-.62-6.83l-4.82-.95,2.47-2a1.8,1.8,0,0,1,1.34-.35c2.22-.22,3.56-1.29,4.76-3.8a19.66,19.66,0,0,0,1.36-4.69,19.05,19.05,0,0,1,1.78-5.6c1.69-3,.83-5-.72-8.07-1-2-2-4.63-.83-7.65a3.37,3.37,0,0,0,0-2.44c-1.39-4.24-1-7.74,1-9.85,1.27-1.34,3.74-2.65,8.35-1.7,1-2.17,2.51-4.9,6.19-4.91h.06c4.08,0,7.44,1.74,10.69,3.42a39.31,39.31,0,0,0,4.73,2.21c2.88,1,3.4,3.51,3.79,5.31a9.13,9.13,0,0,0,.52,1.88c2.41,5.4,3.32,5.35,9.65,3.34l.53-.18a4.47,4.47,0,0,1,4.16.07,6.37,6.37,0,0,0,3.76.58,17.06,17.06,0,0,1,2.47,0c1.74.19,2.19-.5,3.16-2.7.16-.39.33-.77.52-1.15a7.55,7.55,0,0,1,2-2.3c.26-.23.53-.45.77-.69,2.7-2.7,5.69-3.88,8.42-3.31s5,2.84,6.4,6.4c1.7,4.33,3.43,6.5,7.73,5.53a6.3,6.3,0,0,1,2.92.23c.23,0,.45.11.68.15.85.17,1.7.38,2.53.59,3.24.81,6,1.52,8.63-.4,3-2.27,5.49-1.93,8.44-.63a7.31,7.31,0,0,0,6.07,0,9,9,0,0,0,4.69-5.46c.16-.47.35-.94.56-1.41a9,9,0,0,0,.63-1.8l.07-.42c.52-3,1-5.84-.32-8.47l-1.12-2.18H682c.59,0,1.19,0,1.79-.07a15.94,15.94,0,0,1,4.51.18c.5.12,1,.21,1.52.3,3,.55,7.16,1.3,7.6,7.38.16,2.24,1.31,4.5,2.53,6.89.63,1.23,1.28,2.5,1.8,3.8.44,1.11,1,1.89,1.54,2l3,.69c4.76,1.11,9.68,2.27,14.48,1.81a60.23,60.23,0,0,0,7.81-1.44c4.44-1,9-2.08,13.91-1.46,0,0,.05,0,.08,0a24.14,24.14,0,0,1,3.91-2.78c2.57-1.56,4.79-2.91,5.48-5.83l.12-.33,1-2,1.2.36c3,.89,5.31,2.73,7.54,4.52.36.29.72.58,1.09.86,6.31,4.94,7.24,8.91,3.82,16.34a28.41,28.41,0,0,0-1.61,5.1,22.43,22.43,0,0,1-3.16,8,1.41,1.41,0,0,0-.33.68,2.54,2.54,0,0,0,1.05.37c1.22.23,2.44.48,3.66.73,2.42.5,4.92,1,7.37,1.31,1.69.2,4,.47,4.94,2.81l.21.54-.19.53c-2.13,5.83-4.33,11.86-4,18.14a11.91,11.91,0,0,1-1.17,6.3c-2.27,4.18-3.13,7.63-2.8,11.17a8.87,8.87,0,0,1-1.06,5.14c-1.55,2.6-2.49,4.73-2.36,7.32.11,2.1-1.33,3.26-2.38,4.11-.84.67-1.35,1.11-1.44,1.73-.07.47,0,.6.92,1.31a5.51,5.51,0,0,1,2.4,3.18q.35,1.41.66,2.85c.83,3.67,1.68,7.47,3.56,10.73l1.09,1.87-2.66.45c-1.4,3-1,4.24,3.64,7.24a26.37,26.37,0,0,1,7.31,6.28,7.11,7.11,0,0,0,9.34,1.37l.5-.36c1.62-1.19,3.29-2.42,5.92-2.55.32,0,1.29-.06,1.73-2.46s.77-3.79,2-4.56,2.59-.48,5.08.11l.64.15a19.62,19.62,0,0,0,8,.7c2.46-.44,5.09.48,7.41,1.3l1,.33a7,7,0,0,0,4.45.26c4.25-1.8,7.85-.28,11,1.06a45.44,45.44,0,0,0,4.82,1.62,33.45,33.45,0,0,1,7.28,2.82c7.62,4.47,16.09,10.05,20.31,19.83a8.38,8.38,0,0,0,7.41,5.55c4.37.54,9.73,7.27,9.39,11.8a4.87,4.87,0,0,1-1.83,3.18c-3.24,2.53-4.62,6-6.21,9.92l-.53,1.31c-1.89,4.64-4.7,11.52-11.8,13.84a10.57,10.57,0,0,0,.74,2.07,14.76,14.76,0,0,1,.79,2.12l.29,1.07-.94.59a20.92,20.92,0,0,0-3.63,2.53c-.12.15-.11.38.07,1.53l.15,1-.84.53-1.25.74c-3.28,1.93-5.11,3.2-4.59,6.74.31,2-1.37,3-2.37,3.6a4.09,4.09,0,0,0-1.14.83c-.73,1.16-1.43,2.34-2.14,3.55l-.42.69.2.26c.61.79,1.18,1.54,1.8,2.25a4.08,4.08,0,0,1,.44,4.78c-.42.63-.81,1.31-1.23,2-1.6,2.78-3.59,6.24-8.43,6.41-.67,0-.91.27-1.42,1.72.31.23.65.46,1,.7a9.78,9.78,0,0,1,3.87,4,4.85,4.85,0,0,1,.28,4.24,4.17,4.17,0,0,1-3,2.07l-.38.08a5.4,5.4,0,0,0-1.78.58c-7.32,4.23-9.11,4.18-13.37-2.27a3.63,3.63,0,0,0-.44.39,3.92,3.92,0,0,1-2.66,1.34c-1.81.07-2.7,1-2.82,2.83-.2,3,0,3.79,2,4a5,5,0,0,1,2,.73l.33.17,1.37.6-.59,1.37c-2.41,5.56-6.74,6.1-9.89,6.5a5.46,5.46,0,0,0-4.39,2.89,5.14,5.14,0,0,0,0,4.37h6.4l-5.81,2.85c-3.63,1.79-5.86,3.09-5.81,7.19a5,5,0,0,1-2.18,4,6.81,6.81,0,0,1-5.89,1.14c-2.29-.73-3.64.16-5.51,1.39l-.54.35c-2.12,1.37-2.34,1.85-2.36,2s.08.53,1.73,2a3.57,3.57,0,0,1,1.4,2.84,3.33,3.33,0,0,1-1.6,2.49l-.56.4c-2.33,1.67-5,3.55-8.79,3.28h-.13a3.29,3.29,0,0,1-2.46-2.35,3.26,3.26,0,0,0-.34-.7,4,4,0,0,0-.34-.35,5,5,0,0,0-.86.79,35.13,35.13,0,0,1-5.8,4.91c-.72.49-.92.86-1.13,2.05-.33,1.93-2.1,4-4.72,5.6s-5.13,2.09-6.94,1.49a6.12,6.12,0,0,1-4-4.13l-.1.08c-1.12.87-3.17,2.48-5.83.18a3.34,3.34,0,0,0-1.67.22c-2.94,3.39-6.33,2-8.58,1.08a3.22,3.22,0,0,0-1-.28c-1.75,4.53-5,7.66-8.13,10.69a45.13,45.13,0,0,0-5.07,5.44l-.08,2.92-2.17-1.24c-4.82-2.76-7.74-7-10.56-11.19a66.41,66.41,0,0,0-4-5.41l-.28-.35a3.82,3.82,0,0,0-.37-.44h-.07c-5.73,2.27-9.19,6.94-11.2,15.12-.48,1.95-2.47,4.1-5.32,5.75A14,14,0,0,1,686.88,446.12ZM669.5,430.05c2.31,0,4.86.63,6.31,4.42,1.57,4.14,5.08,7,10.41,8.57,1.08.32,3.27-.29,5.33-1.48s3.63-2.75,3.91-3.87c1.41-5.76,4.31-13.81,13.13-17.23l.17-.06a3.3,3.3,0,0,1,3.64,1.5l.18.24a68.69,68.69,0,0,1,4.15,5.65c2.4,3.53,4.68,6.88,8,9.28a49.45,49.45,0,0,1,5.3-5.68c3.06-2.95,5.94-5.74,7.43-9.67A2.78,2.78,0,0,1,739,420.1a4.4,4.4,0,0,1,3.43.26c2.61,1.07,3.82,1.35,5.21-.3a4.68,4.68,0,0,1,3.09-1.23,3.79,3.79,0,0,1,2.71.68c.84.76,1,.65,2.09-.21.24-.19.51-.4.79-.59l1.84-9.17,1.5,8.26c.49,2.74.92,4.45,2.77,5.06,1,.31,2.74-.17,4.46-1.21s3.14-2.52,3.32-3.54a5.33,5.33,0,0,1,2.39-4,32.16,32.16,0,0,0,5.3-4.48c.82-.88,1.76-1.84,3.15-1.77a3.42,3.42,0,0,1,2.55,1.48,5.29,5.29,0,0,1,.8,1.45,5.24,5.24,0,0,0,.25.53c2.63.12,4.48-1.21,6.62-2.74l.57-.41a1.38,1.38,0,0,0,.29-.24,2.38,2.38,0,0,0-.39-.43c-1.76-1.61-2.82-2.93-2.69-4.5s1.47-2.78,3.72-4.24l.52-.34c2.07-1.36,4.42-2.9,8.07-1.73a3.86,3.86,0,0,0,3.19-.7,2.18,2.18,0,0,0,1-1.51c-.06-5,2.65-7.31,5.46-8.88a8.1,8.1,0,0,1,.08-6.89,8.4,8.4,0,0,1,6.7-4.55c3.13-.39,5.28-.85,6.84-3.41-5.13-.54-4.86-4.85-4.71-7.18a5.58,5.58,0,0,1,5.7-5.63c.17,0,.3-.11.69-.5a4.93,4.93,0,0,1,1.29-1l1.35-2.7,1.42,2.26c1.9,3,3.23,5,4.33,5.34s3.07-.79,6-2.49a8.22,8.22,0,0,1,2.68-.92l.35-.07a1.6,1.6,0,0,0,1-.49,2.48,2.48,0,0,0-.33-1.67,7.4,7.4,0,0,0-2.83-2.74,16.47,16.47,0,0,1-2.09-1.59l-.71-.67.48-1.4c.59-1.75,1.39-4.14,4.33-4.24s4.22-1.93,5.93-4.9c.43-.74.87-1.5,1.36-2.22a1.24,1.24,0,0,0-.23-1.12c-.68-.78-1.31-1.6-1.92-2.4l-.81-1-.63-.81,1.46-2.45c.72-1.23,1.44-2.44,2.18-3.62A5.83,5.83,0,0,1,853,324.7a6.48,6.48,0,0,0,.93-.63c-.82-5.68,3-7.92,6-9.71l.37-.22c-.22-2.5.62-3.25,4-5.41q-.14-.35-.3-.69A9.76,9.76,0,0,1,863,303.6l.05-1.13,1.1-.26c6-1.42,8.63-6.68,11-12.4l.52-1.3c1.68-4.18,3.26-8.13,7.14-11.16a2.07,2.07,0,0,0,.69-1c.21-2.88-4-8.26-6.77-8.6a11.35,11.35,0,0,1-9.8-7.34c-3.85-9-11.86-14.2-19.07-18.43a29.85,29.85,0,0,0-6.62-2.53,48.2,48.2,0,0,1-5.12-1.73c-3-1.28-5.62-2.37-8.7-1.07a9.72,9.72,0,0,1-6.58-.18l-1-.34c-2.07-.73-4.2-1.47-5.9-1.18a22,22,0,0,1-9.17-.73l-.64-.15a14.1,14.1,0,0,0-2.76-.5,12.81,12.81,0,0,0-.65,2.57c-.76,4.13-3.17,4.86-4.54,4.92-1.72.08-2.8.87-4.28,2l-.52.38a10.13,10.13,0,0,1-13.5-2,23.53,23.53,0,0,0-6.54-5.55c-5.28-3.42-7.28-6.05-4.36-11.8l.35-.67a47.54,47.54,0,0,1-2.91-9.68c-.21-.94-.42-1.88-.65-2.8-.15-.61-.57-.95-1.29-1.5-1-.72-2.42-1.82-2.09-4.12a5.69,5.69,0,0,1,2.53-3.65c1-.8,1.29-1.12,1.27-1.61-.19-3.72,1.33-6.6,2.77-9a5.91,5.91,0,0,0,.66-3.32c-.4-4.17.57-8.14,3.15-12.88a9.15,9.15,0,0,0,.81-4.73c-.32-6.62,1.8-12.72,3.95-18.62a4.73,4.73,0,0,0-2.24-.56c-2.58-.31-5.14-.84-7.62-1.35-1.2-.24-2.4-.49-3.61-.72-2.13-.39-3-1.43-3.29-2.23a3.56,3.56,0,0,1,.67-3.51c1.47-2.05,2.06-4.45,2.7-7a30.72,30.72,0,0,1,1.79-5.64c2.84-6.15,2.26-8.65-2.94-12.72l-1.11-.88a24.74,24.74,0,0,0-5.25-3.52c-1.15,3.66-4.06,5.43-6.64,7a20.77,20.77,0,0,0-3.46,2.42,3.24,3.24,0,0,1-2.48.82c-4.34-.56-8.48.39-12.86,1.4a62.46,62.46,0,0,1-8.2,1.51c-5.29.5-10.45-.71-15.44-1.88l-2.95-.68c-1.54-.34-2.81-1.66-3.68-3.81-.47-1.18-1.06-2.33-1.68-3.56-1.3-2.55-2.65-5.19-2.85-8-.28-3.75-2.11-4.08-5.15-4.64-.55-.1-1.11-.2-1.65-.32a13.07,13.07,0,0,0-3.68-.11l-.66,0c.73,2.83.24,5.65-.21,8.2l-.07.42a11,11,0,0,1-.83,2.47c-.16.39-.33.78-.46,1.18a12,12,0,0,1-6.32,7.26,10.45,10.45,0,0,1-8.5,0c-2.49-1.1-3.66-1-5.44.28-3.73,2.78-7.68,1.78-11.16.91-.82-.21-1.6-.4-2.37-.56-.26-.05-.54-.11-.81-.18a4.54,4.54,0,0,0-1.55-.21c-6.73,1.51-9.42-2.88-11.18-7.36-1-2.59-2.51-4.2-4.22-4.56s-3.73.53-5.69,2.49c-.29.29-.62.57-.94.85a5.23,5.23,0,0,0-1.28,1.34c-.16.34-.32.69-.47,1-.9,2.08-2.14,4.93-6.23,4.48a13.68,13.68,0,0,0-2,0,9,9,0,0,1-5.46-1c-.29-.19-.6-.12-1.59.22l-.6.2c-7.18,2.28-10,2.42-13.3-5a11.69,11.69,0,0,1-.72-2.47c-.37-1.74-.62-2.66-1.88-3.12a43.67,43.67,0,0,1-5.08-2.36c-3.07-1.59-6-3.09-9.31-3.09h0c-1.9,0-2.59,1.29-3.65,3.55-.13.26-.25.51-.37.77l-.54,1.11-1.2-.33c-3.11-.84-5.46-.64-6.61.57s-1.3,3.76-.29,6.86a6.3,6.3,0,0,1,0,4.45c-.59,1.53-.39,3,.71,5.22,1.44,2.84,3.22,6.38.65,10.9a16.51,16.51,0,0,0-1.45,4.73,23.07,23.07,0,0,1-1.59,5.38,9.77,9.77,0,0,1-3.71,4.42c2.33,3,1.47,6.29.77,9-.21.82-.42,1.61-.54,2.36a19,19,0,0,1-1.49,5.07c-.8,1.62-.58,3.28-.31,5.2a13,13,0,0,1-.14,5.84c-.14.43.36,1.06,1.14,2a9.55,9.55,0,0,1,1.89,2.92c.21.61.44,1.2.67,1.8A32.83,32.83,0,0,1,561,191.4c.2.93,1.87,2.37,3.65,3.15A5.54,5.54,0,0,1,568,198a5.08,5.08,0,0,1-.82,4.31c-.85,1.27-.63,2.37-.19,4,.11.45.22.89.3,1.32a6.47,6.47,0,0,1-.85,5.14,5.17,5.17,0,0,1-3.61,2c-1.6.21-1.77.68-2.15,2.42,0,.16-.07.33-.1.51-.19,1-.42,2.3-1.46,2.94-3.81,2.37-4,6.53-4.18,10.55l0,.29c-.26,5.65-2.67,10.21-5,14.62-.61,1.15-1.22,2.3-1.79,3.47-.43.88-.92,1.74-1.38,2.56-1.73,3.06-3.22,5.7-2,9.14.6,1.66-.15,3.18-.76,4.4l-.4.8c-2,4.07-3.78,7.59-1.48,11.67a3.47,3.47,0,0,1-.55,3.95,3.17,3.17,0,0,0-.31.47c-1,1.89-1,3.44,0,4.77a15.35,15.35,0,0,1,2,4,10.55,10.55,0,0,0,2.34,4.1,8.94,8.94,0,0,1,2.11,3.73,9,9,0,0,0,1.41,2.8,3.59,3.59,0,0,1,.5,3.57,3.94,3.94,0,0,1-3.52,2.28c-2,.15-4,.48-5.91.79s-3.73.6-5.63.78c-1.73.16-2.56.37-3.24,1.22-2.49,3.12-5.25,14.77-4.47,18.9l.09.51-.24.46a4.94,4.94,0,0,1-4.21,2.55,5.82,5.82,0,0,0-1.2.26,3.38,3.38,0,0,1-1.78.11l-.2,0c-1.87,2.64-4.68,3.59-7.17,4.44a12.51,12.51,0,0,0-5,2.53c1.4,3,1.73,6,.86,8.32-1.51,4-1.53,8.09,0,13.67a16.76,16.76,0,0,0,.89,2.34c.76,1.75,1.55,3.56,1.15,5.53a6.24,6.24,0,0,1-.85,1.94c-.61,1-.66,1.25-.37,1.7l.6,1c.85,1.42,1.58,2.65,2.88,3.1a47.2,47.2,0,0,1,6.83,3.17c4.45,2.36,8.65,4.59,13.82,3.71a4.81,4.81,0,0,1,3,.75,6.44,6.44,0,0,0,.76.36l1.23.46-.29,1.27c-.14.63-.29,1.24-.43,1.84a28.87,28.87,0,0,0-.76,3.74l0,.15c-.15,1.35-.43,3.87-3.11,4.1-1.88.17-2.25,1.07-2.89,3.09-.09.27-.18.55-.28.83l2.12,1.72c3.84-.81,13.57-.19,16,1.17l1.28.71-.68,1.3c-3.67,7.05-1.43,13.69.93,20.71.36,1.05.72,2.12,1.06,3.19l8.83-2c2.25-.64,3.28-.93,4.35-2.59.26-.41.52-.84.77-1.28,1.42-2.44,3.52-6.07,8.42-4.74l0,0a5,5,0,0,1,.49-.38c2.76-2,5.31-.87,7.37,0l.51.22A28.2,28.2,0,0,1,587,422.8a21,21,0,0,0,5.84,3.34c1.49-2.71,1.85-5.94,1.15-10.05-.56-3.3-.23-5.63,1-7.11a16.11,16.11,0,0,0,2.74-6c.23-.74.45-1.49.71-2.23.07-.19.13-.39.19-.58a6.33,6.33,0,0,1,3.1-4.21l.64-.33.66.29c.61.28,1.24.52,1.88.77,2.55,1,5.44,2.12,7.32,5a43.76,43.76,0,0,0,11.22,12.32c6.1,4.34,12.89,8.25,21.17,7.54l.22,0a2.57,2.57,0,0,1,3,1.29,4.86,4.86,0,0,0,2.37,1.79c1.72.88,4.05,2.06,4.28,5.21a10.58,10.58,0,0,0,1.34.41,23.47,23.47,0,0,0,8.2.16c1-.1,1.94-.19,2.91-.25l.81-.05C668.28,430.09,668.89,430.05,669.5,430.05Zm82.08-8.19Z"/><path class="cls-2" d="M592.67,293.54v10h-3.21v-10H585.7V291h10.77v2.59Z"/><path class="cls-2" d="M607.16,300h-2.52v3.54h-3.21V291h5.63a5.88,5.88,0,0,1,3.87,1.15,4,4,0,0,1,1.37,3.25,4.87,4.87,0,0,1-.58,2.46,3.91,3.91,0,0,1-1.7,1.59l2.64,4.16H609Zm-.1-2.53a2.3,2.3,0,0,0,1.62-.52,1.92,1.92,0,0,0,.58-1.52,1.82,1.82,0,0,0-.58-1.47,2.35,2.35,0,0,0-1.62-.5h-2.42v4Z"/><path class="cls-2" d="M620.92,301.25l-.91,2.32h-3.3L622.14,291h3.3l5.31,12.61h-3.42l-.9-2.32Zm2.77-7.09-1.84,4.65h3.64Zm.86-4.29h-2.37l1.9-3,2.82,1Z"/><path class="cls-2" d="M643,291.2a8.5,8.5,0,0,1,2.3,1l-1.21,2.5a11,11,0,0,0-2.12-1,6.54,6.54,0,0,0-1.91-.36,2,2,0,0,0-1,.23.76.76,0,0,0-.38.68,1,1,0,0,0,.59.92,9.91,9.91,0,0,0,1.84.67,16.31,16.31,0,0,1,2.16.76,3.9,3.9,0,0,1,1.46,1.13,3.11,3.11,0,0,1,.62,2,3.38,3.38,0,0,1-.67,2.1,4.07,4.07,0,0,1-1.81,1.31,7,7,0,0,1-2.57.44,9.23,9.23,0,0,1-3.09-.54,8.83,8.83,0,0,1-2.67-1.47l1.24-2.47a8,8,0,0,0,2.26,1.36,6.24,6.24,0,0,0,2.3.53,2.21,2.21,0,0,0,1.21-.28.89.89,0,0,0,.43-.82,1,1,0,0,0-.61-.93,9.16,9.16,0,0,0-1.88-.67,17.4,17.4,0,0,1-2.13-.72,3.66,3.66,0,0,1-1.44-1.1,3,3,0,0,1-.6-1.94,3.26,3.26,0,0,1,.62-2,4,4,0,0,1,1.76-1.33,7,7,0,0,1,2.64-.47A9.73,9.73,0,0,1,643,291.2Z"/><path class="cls-2" d="M650.38,299v-2h4.74v2Z"/><path class="cls-2" d="M670.42,291.7a6.29,6.29,0,0,1,2.45,2.29,6.16,6.16,0,0,1,.89,3.26,6.29,6.29,0,0,1-3.34,5.62,7.61,7.61,0,0,1-6.95,0,6.36,6.36,0,0,1-2.44-2.33,6.51,6.51,0,0,1,0-6.57,6.31,6.31,0,0,1,2.44-2.28,7.65,7.65,0,0,1,6.95,0ZM665.2,294a3.49,3.49,0,0,0-1.3,1.34,3.71,3.71,0,0,0-.49,1.9,3.8,3.8,0,0,0,.49,1.91,3.54,3.54,0,0,0,1.3,1.36A3.47,3.47,0,0,0,667,301a3.36,3.36,0,0,0,1.76-.49,3.54,3.54,0,0,0,1.27-1.36,4,4,0,0,0,.47-1.91,3.91,3.91,0,0,0-.47-1.9,3.49,3.49,0,0,0-1.27-1.34,3.27,3.27,0,0,0-1.76-.49A3.38,3.38,0,0,0,665.2,294Z"/><path class="cls-2" d="M686.56,291.2a8.5,8.5,0,0,1,2.3,1l-1.21,2.5a11,11,0,0,0-2.12-1,6.54,6.54,0,0,0-1.9-.36,2,2,0,0,0-1,.23.75.75,0,0,0-.37.68,1,1,0,0,0,.58.92,9.91,9.91,0,0,0,1.84.67,16.31,16.31,0,0,1,2.16.76,3.9,3.9,0,0,1,1.46,1.13,3.11,3.11,0,0,1,.62,2,3.32,3.32,0,0,1-.67,2.1,4,4,0,0,1-1.81,1.31,7,7,0,0,1-2.57.44,9.23,9.23,0,0,1-3.09-.54,8.66,8.66,0,0,1-2.66-1.47l1.24-2.47a7.85,7.85,0,0,0,2.25,1.36,6.24,6.24,0,0,0,2.3.53,2.21,2.21,0,0,0,1.21-.28.89.89,0,0,0,.43-.82,1,1,0,0,0-.6-.93,9.64,9.64,0,0,0-1.88-.67,17,17,0,0,1-2.14-.72,3.66,3.66,0,0,1-1.44-1.1,3,3,0,0,1-.6-1.94,3.32,3.32,0,0,1,.62-2,4,4,0,0,1,1.76-1.33,7,7,0,0,1,2.64-.47A9.73,9.73,0,0,1,686.56,291.2Z"/><path class="cls-2" d="M694,299v-2h4.74v2Z"/><path class="cls-2" d="M715.57,303.57v-8.19l-3,6.93h-2.09l-3-6.93v8.19h-2.87V291h3.52l3.42,7.5,3.42-7.5h3.49v12.62Z"/><path class="cls-2" d="M734,291.7a6.29,6.29,0,0,1,2.45,2.29,6.15,6.15,0,0,1,.88,3.26,6.26,6.26,0,0,1-3.33,5.62,7.61,7.61,0,0,1-7,0,6.39,6.39,0,0,1-2.45-2.33,6.51,6.51,0,0,1,0-6.57,6.38,6.38,0,0,1,2.44-2.28,7.67,7.67,0,0,1,7,0ZM728.77,294a3.59,3.59,0,0,0-1.31,1.34,3.8,3.8,0,0,0-.48,1.9,3.9,3.9,0,0,0,.48,1.91,3.64,3.64,0,0,0,1.31,1.36,3.47,3.47,0,0,0,1.77.49,3.38,3.38,0,0,0,1.76-.49,3.62,3.62,0,0,0,1.27-1.36,4,4,0,0,0,.47-1.91,3.91,3.91,0,0,0-.47-1.9A3.56,3.56,0,0,0,732.3,294a3.29,3.29,0,0,0-1.76-.49A3.38,3.38,0,0,0,728.77,294Z"/><path class="cls-2" d="M751.42,303.57l-5.8-7.76v7.76h-3V291h2.83l5.81,7.78V291h3v12.61Z"/><path class="cls-2" d="M766.19,293.54v10H763v-10h-3.76V291H770v2.59Z"/><path class="cls-2" d="M778.16,293.49V296h6v2.52h-6v2.54H785v2.52H775V291h9.87v2.53Z"/><path class="cls-2" d="M798.19,291.2a8.5,8.5,0,0,1,2.3,1l-1.21,2.5a11,11,0,0,0-2.12-1,6.48,6.48,0,0,0-1.9-.36,1.94,1.94,0,0,0-1,.23.74.74,0,0,0-.38.68,1,1,0,0,0,.58.92,10.2,10.2,0,0,0,1.84.67,17.06,17.06,0,0,1,2.17.76,4,4,0,0,1,1.45,1.13,3.11,3.11,0,0,1,.62,2,3.32,3.32,0,0,1-.67,2.1,4,4,0,0,1-1.81,1.31,7,7,0,0,1-2.57.44,9.23,9.23,0,0,1-3.09-.54,8.66,8.66,0,0,1-2.66-1.47l1.24-2.47a8.13,8.13,0,0,0,2.25,1.36,6.28,6.28,0,0,0,2.3.53,2.19,2.19,0,0,0,1.21-.28.89.89,0,0,0,.43-.82,1,1,0,0,0-.6-.93,9.39,9.39,0,0,0-1.88-.67,16.3,16.3,0,0,1-2.13-.72,3.62,3.62,0,0,1-1.45-1.1,3,3,0,0,1-.6-1.94,3.32,3.32,0,0,1,.62-2,4,4,0,0,1,1.76-1.33,7,7,0,0,1,2.64-.47A9.73,9.73,0,0,1,798.19,291.2Z"/></svg>