<svg id="Camada_1" data-name="Camada 1" xmlns="http://www.w3.org/2000/svg" viewBox="0 0 900 670"><defs><style>.cls-1{fill:#fff;}.cls-2{fill:#9095a0;}</style></defs><title>Prancheta 1 cópia 6</title><path class="cls-1" d="M468.67,317c4.65,10-1.93,16.58-7,23.61-1.13-.38-2.28-.4-2.79-1-2.72-3.1-5.05-2.56-7.32.47a4,4,0,0,1-3.84,1.69c-4.46-.54-6.67,1.6-8.72,5.49-2.38,4.49-4.69,9.2-8.37,12.94-1.22,1.23-2.59,2.59-4.26,2a4.59,4.59,0,0,1-3.4-4.6c.16-2.39-1.34-3.12-3.7-4.05l-7.06,7.06a117.19,117.19,0,0,0-26.1-10.29c-.83,1-1.71,2-2.52,3-3.85,4.87-5.78,5.23-10.67,1.66a3.24,3.24,0,0,0-3-.75c-3.4,1.28-6.56-.59-9.85-.51-1.88,0-2.7-.75-3.21-2.92-.41-1.74-1.13-4.05-3.2-5.19-4.13-2.3-7.37-7.48-13.33-3.52a3.25,3.25,0,0,1-4.58-1.62c-1.65-4.14-5.54-6.67-7.16-10.52-.09-2,2.43-3.15,1.87-4.82-1-3,.8-5,1.81-7.31.41-.95,1.18-1.76.88-3-.5-2.11.4-2.83,2.55-2.61,1.4.14,2.85-.4,4.27-.34,2.8.11,4.18-.91,3.88-3.89-.15-1.55.4-2.21,2-3.63,2-1.77,5.63-5.85,6.55-8.34s-.6-4,2.56-4.34c2.59-.26,6.16-5.79,5-8-1.73-3.41-2.3-7.39-5-10.32-1.51-1.64-2.77-3.5-4.32-5.1s-3-1.39-3.81.84c-.91,2.52-2.92,4.16-4.71,6s-3.85,3.86-6.87,1.75a1.72,1.72,0,0,0-1.65,0c-3.62,3.3-7,1.3-10.25-.54-1.48-.85-2.85-.73-4.32-.78-2.7-.08-5.51.52-7.32-2.54-1.31-2.21-3.52-1.37-5.51-.89-4.76,1.14-5.71.19-6.92-4.68a21.93,21.93,0,0,1,.49-13.71,3.56,3.56,0,0,0,.4-2.11c-1.08-3.18.59-5.12,2.55-7.34,3.09-3.51,2.22-6.24-2.07-8.07-3.59-1.54-8-1.37-10.43-5.46-.37-.61-3-1.33-4.56.31-3,3.16-6.64,2.73-10.21,1.23a3,3,0,0,0-2.14-.3c-3.25,1.73-6.71,1.88-10.22,2.22l-.27-.57a5.15,5.15,0,0,1,3.43-5.09c4.9-2.17,6.51-6.15,7.38-11.13.78-4.46.93-9.5,5.44-12.41a3.15,3.15,0,0,0,1.2-3.84c-.74-2.59-.27-5.16-.29-7.72a6.66,6.66,0,0,1,2.51-5.54c4.46-3.36,2.18-4.11,1.28-8.14a5.6,5.6,0,0,1,.3-2.5c1.25-3,4.25-3.86,7.61-3.63.9.06,2.89.41,3.43-1.56,1.1-4,3.72-7.18,6.38-10.28a2.94,2.94,0,0,0,.84-1.28c.89-6.26,6.13-6.44,11.13-5.09a7.81,7.81,0,0,0,4.76-.31c4.9-1.56,7.14-4.62,8.23-9.53.72-3.28,1.87-6.45,1.54-9.86-.26-2.65.8-3.73,3.44-3.44,1.52.17,3-.25,4.33,1.25s.51,2.86,0,4.34a8.74,8.74,0,0,0-.31,3.81c1.11,6.68.24,13.18-1.23,19.88l5.14,2.81.39.45c1-2.38,3.08-4.06,6.25-4.65,2.24-.41,3.62-.72,3.47-3.5-.28-5.12-.12-5.21,5.07-5.11,7.67.14,15.12-.26,20.51-6.87a2,2,0,0,1,2.2-.81c4.73,3.66,5.92,3.39,11.13-.37,2.47-1.78,5.1-4.63,8.93-2.26a83.39,83.39,0,0,1,8.8,6.64c4.84,4,9.36,6,15.09,2.72a1.89,1.89,0,0,1,2.15.12c1.93,1,3.81,1.61,6,.85,1.18-.41,2.17.38,3.53,1.74-4.86,2.9-5.64,8.36-8.23,12.77-.91,1.56-.77,3.36-.94,5.11s.51,2.46,1.76,2.08c5.62-1.71,11.49.79,17.17-1.54,5.44-2.23,11.73-2.65,15.61-8a6,6,0,0,0-.71-1.46c-1.76-1.9-1.77-3.66.46-5.13,2-1.34,4.66-2.53,5.82.47,1,2.59,2.95,2,3.93,1.51,2.06-1,4.05-.5,6.06-.72,2.61-.29,3.83,1.35,3.32,3.4-1.12,4.45,1,6.92,4.36,9,1.22.76,2.78,1.32,2.18,3.41s.12,4.32.83,6.4v1.71c4-2.91,8-5.7,9.87-10.67,1.67-4.45,5.65-6.25,9.65-8,2.45,4.11,2.45,4.1,7,3.24,1-.19,2.11-.66,3-.38,6.54,2.17,10.95-3.62,16.69-4.33,6.05-6.74,16.05-4.77,22.67-10.26.08-.07.28,0,.42,0l1.65.43c3.7,3.45,1.36,7.39.77,11.11a17.69,17.69,0,0,1-1.36,4.63c-1.85,3.78.67,7.48-.53,11.25-.67,2.09,2.26,3.62,3,5.86a52.32,52.32,0,0,1,2.16,6.44c.36,1.68,2.68,3.41,4.52,4.21,3,1.32,3.25,3.65,2,5.59-1.6,2.37-.47,4.54-.11,6.47.58,3.17-.72,5.08-3.2,5.42s-3,1.69-3.41,3.58c-.19.88-.29,2.14-.88,2.51-4.59,2.84-4.71,7.78-4.9,12-.31,6.74-3.92,11.9-6.65,17.5-2,4.11-5.28,7.73-3.42,12.87.41,1.12-.24,2.31-.79,3.41-2.15,4.35-4.57,8.68-1.74,13.69.67,1.19-.4,2.08-.88,3-1.2,2.2-1.39,4.45.09,6.4,1.93,2.53,2,5.92,4.54,8.28,1.66,1.55,1.7,4.43,3.4,6.41.73.85.71,3.15-2,3.37-3.87.31-7.69,1.22-11.56,1.58-1.71.16-3.16.38-4.27,1.77-2.81,3.53-5.61,15.7-4.78,20.11-1.09,2.07-3.08,1.5-4.63,2.11-.8.32-1.91-.5-2.55.46-3,4.44-9.05,3.5-12.41,7.26l-.16,1.05c-1.74-3.55-4.91-6.57-7.95-6.43s-4.73-.68-5.51-3.2a7.25,7.25,0,0,1,3.36-8.1c3.93-2.12,4.11-2.61.81-5.51-2-1.8-3.48-3.8-3.32-6.46.25-4.17-2.32-5.74-5.78-7.08-4.43,6.78-7.35,15.64-18.22,13.49"/><path class="cls-1" d="M427.17,363.91a4,4,0,0,1-1.28-.22,6.1,6.1,0,0,1-4.42-6.12c.07-1-.12-1.43-1.85-2.19l-7.15,7.16-1-.55a115.34,115.34,0,0,0-24.85-9.9l-.18.21c-.57.66-1.14,1.33-1.69,2-4.36,5.53-7.22,6-12.72,1.95-.67-.49-1.24-.7-1.59-.57-2.51.95-4.87.46-6.95,0a14.26,14.26,0,0,0-3.4-.45h-.17c-3.16,0-4.08-2.17-4.53-4.07-.38-1.63-1-3.41-2.47-4.23a27.41,27.41,0,0,1-3.07-2.12c-3.23-2.47-5.23-3.76-8.7-1.46a4.47,4.47,0,0,1-3.78.45,4.71,4.71,0,0,1-3-2.77,19.08,19.08,0,0,0-3.47-5.09,21.22,21.22,0,0,1-3.68-5.4l-.11-.25v-.27a5.32,5.32,0,0,1,1.35-3.41,3.73,3.73,0,0,0,.6-1c-1-2.95.18-5.17,1.13-6.95.26-.5.51-1,.72-1.44a9.06,9.06,0,0,1,.42-.82c.35-.64.46-.9.38-1.23a3.72,3.72,0,0,1,.54-3.45c1.11-1.26,3-1.07,3.62-1a7.53,7.53,0,0,0,1.89-.15,12.07,12.07,0,0,1,2.29-.19,2.89,2.89,0,0,0,2.05-.42,2.49,2.49,0,0,0,.28-1.82c-.23-2.29.78-3.38,2.46-4.89,2.06-1.86,5.39-5.7,6.14-7.75a5.37,5.37,0,0,0,.29-1.78c.08-1.62.41-3.22,3.53-3.54.62-.06,2.05-1.18,3.12-3.13.83-1.5.85-2.47.73-2.7a37.38,37.38,0,0,1-1.6-3.88,17.28,17.28,0,0,0-3.18-6.11c-.75-.8-1.43-1.65-2.09-2.47s-1.44-1.8-2.21-2.6c-.5-.52-.79-.59-.82-.59a2.27,2.27,0,0,0-.5.9,15.22,15.22,0,0,1-4.17,5.65l-.89.87c-1.86,1.89-4.66,4.73-8.68,2h-.1c-4.32,3.75-8.59,1.31-11.72-.48a5.78,5.78,0,0,0-3.07-.62h-1.84c-2.41,0-5.38.05-7.35-3.27-.53-.9-1.17-.88-3.26-.35l-.61.15c-5.92,1.42-7.43-.54-8.73-5.77-1.36-5.48-1.19-10.12.56-14.62a5.32,5.32,0,0,0,.35-1.17c-1.35-4,.89-6.5,2.86-8.74.78-.88,1.67-2.16,1.43-3.21s-1.75-2-3-2.49a26.28,26.28,0,0,0-3-1c-2.79-.76-5.93-1.62-8-4.89a2.21,2.21,0,0,0-2.3.37c-4.46,4.69-10.05,2.35-11.88,1.59a3.37,3.37,0,0,0-1-.3c-3.14,1.63-6.4,1.93-9.56,2.22l-2.12.2-.88-1.78v-.32a6.62,6.62,0,0,1,4.32-6.52c4.28-1.9,5.7-5.38,6.51-10,.1-.58.19-1.17.29-1.77.62-4.1,1.34-8.75,5.82-11.64.33-.21,1-.65.57-2.16a17.79,17.79,0,0,1-.41-6c0-.71.06-1.41.06-2.11a8.11,8.11,0,0,1,3.11-6.75c2.4-1.81,2.3-2.08,1.61-3.84a18.07,18.07,0,0,1-.9-2.77,7.07,7.07,0,0,1,.38-3.4c.94-2.29,3.28-4.95,9.1-4.56l.28,0c1.44.12,1.5-.1,1.6-.48,1.23-4.52,4.26-8,6.7-10.86l.14-.15a3.94,3.94,0,0,0,.35-.44,7.84,7.84,0,0,1,3.27-5.7c2.27-1.49,5.55-1.68,9.74-.55a6.33,6.33,0,0,0,3.91-.29c4.08-1.3,6.17-3.74,7.21-8.42.17-.76.36-1.51.55-2.25a21,21,0,0,0,1-7.15,4.12,4.12,0,0,1,5.1-5.07c.31,0,.62,0,.92,0a5.28,5.28,0,0,1,4.37,1.72c1.8,2.06,1,3.93.53,5.16-.09.22-.18.43-.26.66a7.12,7.12,0,0,0-.25,3.06c1.15,7,.19,13.63-1,19.35l3.33,1.82a9.8,9.8,0,0,1,6.48-3.9c2.23-.42,2.32-.49,2.24-1.95-.14-2.68-.24-4.45.89-5.62s2.84-1.13,5.71-1.07c7.33.13,14.36-.24,19.32-6.32a3.49,3.49,0,0,1,3.69-1.32l.32.07.27.2c4,3.13,4.47,3.11,9.34-.4.31-.22.63-.47,1-.72,2.29-1.77,5.43-4.19,9.63-1.6a75.44,75.44,0,0,1,8.13,6.08l.83.68c4.53,3.71,8.35,5.44,13.4,2.58a3.33,3.33,0,0,1,3.54.06c2,1.1,3.38,1.31,4.89.79,2.2-.76,3.86.89,5.07,2.09l1.37,1.36-1.66,1c-3,1.78-4.25,4.75-5.6,7.89a40.3,40.3,0,0,1-2.1,4.35,7.09,7.09,0,0,0-.66,3.25c0,.42,0,.84-.09,1.26a2.34,2.34,0,0,0,0,.45,25.08,25.08,0,0,1,8.32-.58c3,.13,5.83.25,8.56-.87,1.51-.61,3.07-1.1,4.58-1.56,3.77-1.16,7.34-2.27,9.88-5.31a2.36,2.36,0,0,0-.12-.26,5,5,0,0,1-1.62-4,4.8,4.8,0,0,1,2.38-3.35c1.42-.93,3.54-2.1,5.5-1.47a4.11,4.11,0,0,1,2.55,2.65c.11.29.34.79.66.92.15.06.51.11,1.24-.23a10.61,10.61,0,0,1,4.72-.78c.63,0,1.23,0,1.8-.07a4.6,4.6,0,0,1,4.15,1.35,4.26,4.26,0,0,1,.79,3.91c-.8,3.19.2,5.19,3.71,7.39l.43.25c1.13.66,3.24,1.9,2.39,4.85-.45,1.57,0,3.21.61,4.93,3.09-2.32,5.86-4.73,7.25-8.44,1.93-5.17,6.66-7.18,10.47-8.8l1.2-.51.67,1.12c.93,1.56,1.6,2.68,2.05,2.89s1.59,0,3.34-.35c.26-.05.5-.11.74-.18a5.28,5.28,0,0,1,3-.15c3.4,1.13,6.1-.27,9.23-1.88a22.47,22.47,0,0,1,6.25-2.44c3.52-3.65,8.06-4.79,12.45-5.89,3.71-.92,7.21-1.8,10-4.11a1.76,1.76,0,0,1,1.35-.36h.16l2.26.59.28.25c3.54,3.29,2.56,7.05,1.77,10.08-.21.82-.42,1.61-.54,2.36a19,19,0,0,1-1.49,5.07c-.8,1.62-.58,3.28-.31,5.2a13,13,0,0,1-.14,5.84c-.14.43.36,1.06,1.14,2a9.55,9.55,0,0,1,1.89,2.92c.21.61.44,1.2.67,1.8A32.83,32.83,0,0,1,561,191.4c.2.93,1.87,2.37,3.65,3.15A5.54,5.54,0,0,1,568,198a5.08,5.08,0,0,1-.82,4.31c-.85,1.27-.63,2.37-.19,4,.11.45.22.89.3,1.32a6.47,6.47,0,0,1-.85,5.14,5.17,5.17,0,0,1-3.61,2c-1.6.21-1.77.68-2.15,2.42,0,.16-.07.33-.1.51-.19,1-.42,2.3-1.46,2.94-3.81,2.37-4,6.53-4.18,10.55l0,.29c-.26,5.65-2.67,10.21-5,14.62-.61,1.15-1.22,2.3-1.79,3.47-.43.88-.92,1.74-1.38,2.56-1.73,3.06-3.22,5.7-2,9.14.6,1.66-.15,3.18-.76,4.4l-.4.8c-2,4.07-3.78,7.59-1.48,11.67a3.47,3.47,0,0,1-.55,3.95,3.17,3.17,0,0,0-.31.47c-1,1.89-1,3.44,0,4.77a15.35,15.35,0,0,1,2,4,10.55,10.55,0,0,0,2.34,4.1,8.94,8.94,0,0,1,2.11,3.73,9,9,0,0,0,1.41,2.8,3.59,3.59,0,0,1,.5,3.57,3.94,3.94,0,0,1-3.52,2.28c-2,.15-4,.48-5.91.79s-3.73.6-5.63.78c-1.73.16-2.56.37-3.24,1.22-2.49,3.12-5.25,14.77-4.47,18.9l.09.51-.24.46a4.94,4.94,0,0,1-4.21,2.55,5.82,5.82,0,0,0-1.2.26,3.38,3.38,0,0,1-1.78.11l-.2,0c-1.87,2.64-4.68,3.59-7.17,4.44a12.64,12.64,0,0,0-4.94,2.48l-.8,5.33-2.12-4.31c-1.65-3.34-4.43-5.7-6.54-5.59-2.41.12-5.75-.21-7-4.25a8.73,8.73,0,0,1,4.08-9.87,16.54,16.54,0,0,0,2.25-1.37,12.88,12.88,0,0,0-1.72-1.69c-1.75-1.54-4.05-4-3.83-7.68.17-2.72-1-4-3.69-5.12-.45.74-.9,1.5-1.34,2.24-3.27,5.54-6.93,11.77-15.4,11.17,2.36,8.2-2.26,14.33-6.39,19.81-.61.82-1.23,1.63-1.82,2.46l-.65.89-1-.35a9.4,9.4,0,0,0-1-.25,4.41,4.41,0,0,1-2.47-1.17c-.64-.73-1.58-1.62-2.46-1.57s-1.88,1.08-2.53,1.95a5.49,5.49,0,0,1-5.22,2.28c-3.33-.41-5.14.78-7.22,4.7l-.63,1.19c-2.2,4.2-4.48,8.53-8,12.1C430.64,362.38,429.13,363.91,427.17,363.91Zm-8.27-12.05.92.36c2.17.86,4.88,1.93,4.65,5.54-.14,2.06,1.79,2.89,2.39,3.09s1.59-.52,2.7-1.66c3.2-3.25,5.38-7.38,7.48-11.38l.63-1.2c1.94-3.67,4.51-7,10.23-6.28a2.53,2.53,0,0,0,2.46-1.1c1.53-2.05,3.11-3.08,4.81-3.15s3.27.81,4.84,2.59a9.06,9.06,0,0,0,.88.22l.18,0,1.25-1.67c4.48-5.94,8.71-11.56,5-19.59l1.85-.86.16-.81c8.1,1.6,11.11-3.51,14.6-9.43.66-1.13,1.35-2.3,2.08-3.41l.66-1,1.13.43c2.48,1,7.09,2.75,6.74,8.57-.11,1.84.73,3.41,2.81,5.24,1.76,1.55,3,2.76,2.81,4.3s-1.59,2.42-3.9,3.66a5.79,5.79,0,0,0-2.64,6.34c.48,1.52,1.23,2.27,4,2.14,3.08-.15,6,2.14,8,5a16.66,16.66,0,0,1,5.58-2.73c2.4-.81,4.47-1.51,5.77-3.46a2.8,2.8,0,0,1,3-1.08l.35,0a8,8,0,0,1,1.8-.41c.95-.13,1.41-.23,1.75-.62-.61-5.33,2.26-17.06,5.17-20.7,1.58-2,3.73-2.19,5.3-2.34,1.8-.16,3.65-.46,5.43-.75,2-.33,4.07-.66,6.15-.83.24,0,.83-.09,1-.4a.65.65,0,0,0,0-.51,11.55,11.55,0,0,1-1.93-3.7,6.84,6.84,0,0,0-1.34-2.58,13.15,13.15,0,0,1-3.1-5.2,12.8,12.8,0,0,0-1.62-3.27c-1.72-2.26-1.8-5.11-.21-8a8,8,0,0,1,.49-.75,3.32,3.32,0,0,0,.43-.73c-3.11-5.5-.73-10.29,1.38-14.51l.39-.79c.37-.75.8-1.59.63-2-1.72-4.73.36-8.4,2.18-11.63.47-.82.91-1.6,1.3-2.4.59-1.2,1.21-2.38,1.83-3.57,2.28-4.3,4.44-8.37,4.67-13.34v-.29c.2-4.31.44-9.66,5.45-12.87a6.57,6.57,0,0,0,.23-1c0-.21.08-.42.13-.62.39-1.79.93-4.24,4.67-4.75a2.24,2.24,0,0,0,1.59-.82,3.72,3.72,0,0,0,.33-2.84c-.06-.36-.16-.73-.26-1.11-.44-1.69-1-4,.61-6.47a2.26,2.26,0,0,0,.43-1.8,2.91,2.91,0,0,0-1.74-1.57c-1.75-.77-4.84-2.74-5.38-5.28a29.83,29.83,0,0,0-1.42-4.38c-.23-.61-.47-1.24-.69-1.87a7.42,7.42,0,0,0-1.35-2c-1-1.24-2.36-2.79-1.71-4.83a10.27,10.27,0,0,0,0-4.52c-.28-2.11-.61-4.49.59-6.94a16.21,16.21,0,0,0,1.23-4.21,25.49,25.49,0,0,1,.6-2.65c.78-3,1.17-5-.65-6.87l-.85-.22c-3.22,2.45-7,3.4-10.69,4.33-4.3,1.07-8.37,2.09-11.32,5.38l-.38.42-.55.07A18.1,18.1,0,0,0,525,166c-3.26,1.68-6.95,3.58-11.54,2.06a3.75,3.75,0,0,0-1.32.21c-.31.08-.61.16-.91.21-4.69.89-5.64.72-7.86-2.81-3.69,1.63-6.39,3.24-7.64,6.58-1.94,5.18-6,8.13-9.9,11L483,185.31v-4.42c-.71-2.11-1.51-4.5-.76-7.07.17-.61.2-.7-1-1.42l-.5-.3c-3.1-1.94-6.48-4.91-5-10.66a1.35,1.35,0,0,0-.14-1.21,1.84,1.84,0,0,0-1.56-.34c-.73.08-1.44.08-2.12.09a7.94,7.94,0,0,0-3.47.5,4.46,4.46,0,0,1-3.62.29,4.33,4.33,0,0,1-2.34-2.62c-.13-.34-.36-.78-.67-.88s-1.1-.08-2.93,1.13c-.36.24-1,.71-1.05,1.2a2.47,2.47,0,0,0,.87,1.65,4,4,0,0,1,.74,1.3,5.5,5.5,0,0,0,.23.55l.37.8-.51.71c-3.15,4.36-7.61,5.74-11.93,7.07-1.52.47-2.95.91-4.33,1.48-3.34,1.37-6.65,1.22-9.83,1.09a22,22,0,0,0-7.47.5,2.74,2.74,0,0,1-2.65-.43,3.46,3.46,0,0,1-1.05-3.24c0-.37.06-.75.08-1.13a9.86,9.86,0,0,1,1.07-4.59,35.74,35.74,0,0,0,1.93-4c1.25-2.9,2.54-5.88,5.18-8.11-.28-.19-.48-.24-.63-.19a8.69,8.69,0,0,1-7.22-.95c-.47-.26-.47-.26-.7-.13-6.92,3.92-12.37.75-16.78-2.87l-.84-.68a73.09,73.09,0,0,0-7.8-5.85c-2.31-1.43-3.87-.39-6.22,1.42l-1,.79c-5.41,3.9-7.43,4.51-12.61.58-.13,0-.25.1-.44.33-5.8,7.11-13.9,7.55-21.7,7.42a12.9,12.9,0,0,0-3.51.17,13.08,13.08,0,0,0,0,3.36c.22,4.14-2.51,4.65-4.69,5.06a6.37,6.37,0,0,0-5.14,3.74l-.93,2.28-1.81-2.12-5.89-3.21.24-1.1c1.25-5.68,2.36-12.41,1.22-19.32a10.15,10.15,0,0,1,.38-4.55c.1-.27.21-.54.31-.8.47-1.14.55-1.41,0-2.06s-1.06-.65-2.17-.68c-.4,0-.79,0-1.19-.06-1.16-.13-1.5.11-1.58.18s-.32.42-.21,1.62a23.42,23.42,0,0,1-1,8.17c-.19.72-.37,1.44-.53,2.17-1.27,5.72-4.12,9-9.23,10.63a9.17,9.17,0,0,1-5.61.32c-3.27-.88-5.79-.82-7.29.17a5,5,0,0,0-2,3.69,3.79,3.79,0,0,1-1.06,1.92l-.12.14c-2.85,3.29-5.1,6.1-6.07,9.68-.83,3-3.79,2.76-4.76,2.68l-.22,0c-4.89-.33-5.81,2-6.12,2.71a4.68,4.68,0,0,0-.23,1.61,15.8,15.8,0,0,0,.76,2.32c1,2.58,1.35,4.37-2.59,7.33a5.21,5.21,0,0,0-1.92,4.34c0,.76,0,1.51-.07,2.27a15.33,15.33,0,0,0,.31,5,4.63,4.63,0,0,1-1.83,5.52c-3.35,2.16-3.91,5.76-4.49,9.58-.09.61-.19,1.22-.29,1.83-.85,4.83-2.43,9.66-8.25,12.24a3.8,3.8,0,0,0-2.46,2.66c2.91-.27,5.66-.56,8.21-1.91a4.11,4.11,0,0,1,3.42.24c3.86,1.61,6.42,1.35,8.54-.89a5,5,0,0,1,4.21-1.43A3.82,3.82,0,0,1,291.5,230c1.42,2.4,3.69,3,6.31,3.74a26.68,26.68,0,0,1,3.42,1.11c2.7,1.15,4.28,2.69,4.71,4.58s-.3,3.8-2.11,5.86c-2,2.28-3,3.58-2.25,5.87a4.67,4.67,0,0,1-.4,3.1,20.48,20.48,0,0,0-.46,12.84c1.07,4.28,1.35,4.49,5.12,3.58l.57-.14c1.81-.46,4.83-1.23,6.58,1.73,1,1.75,2.34,1.82,4.74,1.8h1.92a8.45,8.45,0,0,1,4.43,1c3.58,2,5.85,3.15,8.5.73a3.14,3.14,0,0,1,3.52-.12c1.84,1.28,2.76.63,4.94-1.58l.92-.91a12.68,12.68,0,0,0,3.45-4.52c.73-2,1.88-2.64,2.71-2.82s2.13-.07,3.59,1.45c.87.9,1.64,1.86,2.39,2.8s1.28,1.59,1.95,2.32a20,20,0,0,1,3.8,7.11,33.72,33.72,0,0,0,1.46,3.55c.93,1.85-.09,4.24-.78,5.51-1.1,2-3.2,4.44-5.45,4.67a3.4,3.4,0,0,0-.79.14c0,.15,0,.37,0,.55a8.36,8.36,0,0,1-.47,2.68c-1.1,3-5.24,7.39-6.95,8.94-1.53,1.37-1.56,1.58-1.49,2.36a5,5,0,0,1-1.07,4.18,5.45,5.45,0,0,1-4.36,1.36,8.28,8.28,0,0,0-1.72.16,10.39,10.39,0,0,1-2.64.17,2.89,2.89,0,0,0-1,0,2.36,2.36,0,0,0,.09.75,4.45,4.45,0,0,1-.67,3.37q-.17.29-.3.57a18.35,18.35,0,0,1-.83,1.66c-.94,1.77-1.49,2.94-.93,4.57s-.36,2.83-1,3.73a3.87,3.87,0,0,0-.74,1.29,20.18,20.18,0,0,0,3.07,4.32,21.37,21.37,0,0,1,4,5.92,1.71,1.71,0,0,0,1.13,1,1.54,1.54,0,0,0,1.23-.08c5.41-3.59,9.17-.73,12.18,1.58a24.49,24.49,0,0,0,2.71,1.87c2.52,1.41,3.43,4,3.93,6.17.42,1.79.84,1.79,1.71,1.76a17.51,17.51,0,0,1,4.07.51c1.93.39,3.59.73,5.29.09.94-.35,2.47-.47,4.42.95,4.18,3.06,5.23,2.89,8.6-1.38.57-.72,1.17-1.42,1.77-2.11l.78-.93.62-.72.92.24a119.56,119.56,0,0,1,25.44,9.89ZM334.6,278h0Z"/><path class="cls-2" d="M415.25,238.31l-1,2.58h-3.66l6-14h3.67l5.89,14h-3.79l-1-2.58Zm3.07-7.88-2,5.17h4Z"/><path class="cls-2" d="M441,237.91v3h-9.51v-14H435v11Z"/><path class="cls-2" d="M453.13,229.74v11.15h-3.57V229.74h-4.17v-2.88h12v2.88Z"/><path class="cls-2" d="M472.65,227.7a7,7,0,0,1,2.72,2.55,6.75,6.75,0,0,1,1,3.61,6.94,6.94,0,0,1-3.71,6.24,8.4,8.4,0,0,1-7.72,0,6.94,6.94,0,0,1-3.71-6.24,6.8,6.8,0,0,1,1-3.63,7,7,0,0,1,2.71-2.54,8.46,8.46,0,0,1,7.73,0Zm-5.8,2.59a4,4,0,0,0-1.45,1.48,4.22,4.22,0,0,0-.54,2.11,4.27,4.27,0,0,0,.54,2.13,4,4,0,0,0,1.45,1.51,3.82,3.82,0,0,0,2,.54,3.67,3.67,0,0,0,1.95-.54,4,4,0,0,0,1.41-1.51,4.37,4.37,0,0,0,.53-2.13,4.32,4.32,0,0,0-.53-2.11,3.94,3.94,0,0,0-1.41-1.48,3.59,3.59,0,0,0-1.95-.55A3.74,3.74,0,0,0,466.85,230.29Z"/><path class="cls-2" d="M397.62,253.74v11.15h-3.56V253.74h-4.18v-2.88h12v2.88Z"/><path class="cls-2" d="M409,262.31l-1,2.58h-3.66l6-14h3.67l5.89,14h-3.8l-1-2.58Zm4.27-12.84-1.16-1.7-1.15,1.7h-2.48l2.25-3h2.77l2.25,3Zm-1.2,5-2,5.17h4Z"/><path class="cls-2" d="M437.49,264.89l0-9.11-3.36,7.71h-2.32l-3.36-7.71v9.11h-3.19v-14h3.91l3.8,8.34,3.8-8.34h3.87v14Z"/><path class="cls-2" d="M451,253.68v2.79h6.68v2.8H451v2.81h7.62v2.81H447.44v-14h11v2.8Z"/><path class="cls-2" d="M477.3,257.77v5.46a10,10,0,0,1-2.75,1.3,10.23,10.23,0,0,1-3.08.51,7.73,7.73,0,0,1-3.8-.94,7,7,0,0,1-3.68-6.22,6.66,6.66,0,0,1,1-3.62,7,7,0,0,1,2.76-2.56,8.35,8.35,0,0,1,4-.94,8.89,8.89,0,0,1,3.1.57,7.93,7.93,0,0,1,2.61,1.51l-2,2.43a6.07,6.07,0,0,0-1.76-1.12,5.28,5.28,0,0,0-2-.41,4,4,0,0,0-3.54,2,4.25,4.25,0,0,0-.52,2.1,4.38,4.38,0,0,0,.53,2.14,4.09,4.09,0,0,0,1.48,1.5,4.15,4.15,0,0,0,2.09.54,4.53,4.53,0,0,0,1.19-.18,7.56,7.56,0,0,0,1.29-.49v-3.62Z"/><path class="cls-2" d="M487,262.31l-1,2.58h-3.66l6-14H492l5.9,14h-3.8l-1-2.58Zm3.08-7.88-2,5.17h4Z"/></svg>