<svg id="Camada_1" data-name="Camada 1" xmlns="http://www.w3.org/2000/svg" viewBox="0 0 900 670"><defs><style>.cls-1{fill:#fff;}.cls-2{fill:#606060;}</style></defs><title>Prancheta 1 cópia 5</title><path class="cls-1" d="M261.67,233.66a5.15,5.15,0,0,1,3.43-5.09c4.9-2.17,6.51-6.15,7.38-11.13.78-4.46.93-9.5,5.45-12.41a3.16,3.16,0,0,0,1.2-3.84c-.75-2.59-.28-5.16-.3-7.72a6.66,6.66,0,0,1,2.51-5.54c4.46-3.36,3.48-4.64,1.28-8.14l-.44-.83c-2.89,1.85-6.77,1.54-9.9,2.78-2.76,1.09-6.29,2-9.34-.22a.87.87,0,0,0-.83,0c-5.14,3.62-9-.65-13.28-2.14a5.67,5.67,0,0,0-1.7,0l-1.54,1.77c-1.11,3-2.16,3-4.46,1.67s-4.59-1.55-6.85.39c-2.91,2.49-6.52,4.22-8.52,7.72-1.43,2.5-4.58.79-6.71,3.16-1.87,2.08-5.32,3.57-8.21,5.17-2.57-1.07-3.8-3.85-6.62-4.37-1.57,1-1.77,3-1.87,4.59-.25,3.68-2.57,4.38-5.22,3.75-3.71-.88-7.12-1.17-10.76.42a4.85,4.85,0,0,1-5.08-1.18c-.9-.85-1.63-1.94-3.27-2.19-2.28,4-6.43,4.46-10.41,4.21-4.73-.29-7.55,3.08-11,5a11.48,11.48,0,0,0-4.92,4.46c-1.57,2.89-5,3.45-8,3.49A3.3,3.3,0,0,1,142,217c-1.49-1.39.12-4.88-3-4.73l-7.15,7.15c1.55,6.06-.54,12-1.85,18.1-3.12.48-4.21,3.5-6.39,5.16a11.56,11.56,0,0,0-1.62,2.25c5.43,3.74,1.81,9.08,1.39,14.74a7.22,7.22,0,0,1-3.66,1.68c-2.26.37-4.5.72-5.7-2.82-2-5.68-3.35-5.72-8.4-1.78a8.36,8.36,0,0,1-1.43.69c-3.51-3.32-8.75-4-11.55-8.35-1.71,1.3-2.92,2.33-2.84,4.25a6.4,6.4,0,0,1-1.23,4.77c-4.34-5.27-10.13-2.19-15.44-2.56-1.63-.11-1.89,2-3,2.92-3.36-1.79-5.72-.94-7.29,2.56-1,2.29-2.18,4.41-5.15,1.76-1.47-1.31-2.75-.45-3.37,1.25-.85,2.36-2.29,2.78-4.73,2.23s-4.64.65-6.82,1.62c-1.37.61-2.64,1.57-4.28,1.27l-.54.31c.28,2-.4,4.09-.14,6.14.69,5.66,3,10.92,3.44,16.63.07,1,.54,2.26.65,3.43Q43,306.77,44,317.9C44.32,321,47,323,47.55,326a13.88,13.88,0,0,1,.22,3h1.4c5.32.75,11,.8,13.2,7.31,5.17-2.71,7.16.43,8.78,3.63,3,1,4.37-2.65,7.57-1.68,5.06,1.54,7.67,4.92,8.84,9.57.65,2.58,1.8,4,4.36,3.75,1.46-.15,2.06,1,3,1.26l1.9.1c.53-2.1,2.27-3.26,3.64-4.7,3.66-3.82,5.63-4.15,9.34-.78,1.78,1.62,3.05,1.09,4.78.38,3.52-1.45,4.09-5.07,6.07-7.65s1.88-4.24-.43-6.59l-1.8-3.75c2.56-.59,4.17-3.61,7.8-1.95,1.92.87,4.27-2.78,7.16-2.33a2.06,2.06,0,0,0,.43,0c6-.4,11.44.65,15.75,5.78,3.33-4.45,5.92-1.6,8.49.32,3.3-2.92,7.94-4.24,9.15-9.08.15-.59,1-.72,1.65-.92,3.65-1.07,4.13-5.16,3.56-7.13-1.17-4.08.2-6.59,2.39-9.53,3.78-5,13.5-7.38,19.12-4.09,1.51-1.3,2.88-2.83,5.27-3.29,2.73-.53,5.4-6.36,3.78-7.38-3.19-2-4.37-5.43-6.85-7.74-1.36-1.26-3.86-1.35-5.88-1.81-3.1-.72-2.82-3.66-1.58-4.55,2.81-2,2-4.41,1.48-6.56-.8-3-.45-5.09,2.68-6a3.64,3.64,0,0,0,3-4.31c-.23-2.68,1-4.21,3.35-5.67,3-1.88,6.36-2,9.51-2.69,2.3-.51,4.57-1.72,7.25-1.14a107.49,107.49,0,0,0,11.1,1.37c6.15.68,10.41-1.87,12.82-7.69,1.09-2.63,3.66-5.25,5.56-5.28,5.75-.08,10.59-3.13,15.86-3.8"/><path class="cls-1" d="M96.84,354.46h-.08l-1.9-.1-.23,0a4.21,4.21,0,0,1-1.6-.8c-.5-.37-.66-.45-1-.43-4.63.5-5.64-3.54-6-4.87-1.14-4.53-3.63-7.23-7.83-8.5-.94-.29-1.57,0-2.7.71a5.68,5.68,0,0,1-4.88,1,1.49,1.49,0,0,1-.88-.75c-.84-1.65-1.77-3.29-3.12-3.72a5,5,0,0,0-3.63.74,1.49,1.49,0,0,1-2.12-.85c-1.69-5-5.72-5.5-10.4-6.1l-1.49-.19h-1.3a1.48,1.48,0,0,1-1.07-.46,1.51,1.51,0,0,1-.42-1.09,12.26,12.26,0,0,0-.2-2.68,10.35,10.35,0,0,0-1.54-3.34,11.32,11.32,0,0,1-2-4.9q-1-11.12-2.14-22.23a13.33,13.33,0,0,0-.31-1.61,11.18,11.18,0,0,1-.35-1.86A46.82,46.82,0,0,0,38,283.63a58.11,58.11,0,0,1-1.69-7.85,14.24,14.24,0,0,1,.07-3.34,11.83,11.83,0,0,0,.07-2.77,1.5,1.5,0,0,1,.75-1.52l.55-.31a1.45,1.45,0,0,1,1-.16,3.93,3.93,0,0,0,2.43-.7c.32-.17.64-.33,1-.48l.53-.23c2.15-1,4.59-2.07,7.23-1.47,2,.45,2.49.1,3-1.28a4,4,0,0,1,2.66-2.78,3.32,3.32,0,0,1,3.12.93c.82.73,1.31.86,1.44.84.29-.06.74-.77,1.34-2.11a7,7,0,0,1,3.89-4.07,6.1,6.1,0,0,1,4.33.28l.13-.23c.54-.92,1.43-2.49,3.4-2.34a23.73,23.73,0,0,0,4.46-.26c3.41-.4,7.21-.85,10.49,1.82a7.26,7.26,0,0,0,.13-2.2c-.12-2.83,1.84-4.32,3.43-5.51a1.49,1.49,0,0,1,2.16.39c1.43,2.23,3.65,3.38,6,4.61a25.25,25.25,0,0,1,4.56,2.79l.24-.12c3-2.34,5-3.5,6.9-2.93s2.83,2.47,3.84,5.41c.76,2.23,1.63,2.21,4,1.82a7.12,7.12,0,0,0,2.47-.94,34,34,0,0,1,.8-4.16c1-4.25,1.36-6.56-1.6-8.61a1.49,1.49,0,0,1-.38-2.09c.26-.37.46-.7.64-1a5.42,5.42,0,0,1,1.3-1.61,12.57,12.57,0,0,0,1.79-1.84,9.45,9.45,0,0,1,4.25-3.36c.18-.78.37-1.57.55-2.35,1.18-4.9,2.29-9.53,1.11-14.14a1.46,1.46,0,0,1,.39-1.43l7.15-7.15a1.45,1.45,0,0,1,1-.43c3.24-.19,3.6,2.59,3.74,3.77a4.75,4.75,0,0,0,.27,1.27,2.53,2.53,0,0,0,.73.11c3.59,0,5.72-.9,6.7-2.71a13,13,0,0,1,5.52-5.06,29.12,29.12,0,0,0,2.65-1.73c2.46-1.73,5.25-3.69,9.2-3.44,4.76.29,7.45-.74,9-3.46a1.5,1.5,0,0,1,1.53-.74,6.09,6.09,0,0,1,3.62,2.12l.45.46a3.37,3.37,0,0,0,3.46.89c4.26-1.86,8.14-1.34,11.7-.5a3.28,3.28,0,0,0,2.53-.17,3.09,3.09,0,0,0,.85-2.22c.1-1.51.29-4.32,2.56-5.76a1.52,1.52,0,0,1,1.08-.21,9,9,0,0,1,4.49,2.67,12.33,12.33,0,0,0,1.83,1.49l1.34-.71c2.22-1.16,4.52-2.36,5.78-3.78a6.71,6.71,0,0,1,4.42-2c1.28-.19,1.76-.31,2.1-.91,1.56-2.72,3.91-4.42,6.18-6.06,1-.69,1.84-1.34,2.68-2,2.56-2.2,5.45-2.38,8.58-.54,1.11.66,1.44.66,1.48.65h0s.31-.2.81-1.55a1.36,1.36,0,0,1,.28-.46l1.54-1.77a1.49,1.49,0,0,1,1.13-.52l.43,0a3.89,3.89,0,0,1,1.76.13,24.93,24.93,0,0,1,3.51,1.63c3.33,1.76,5.51,2.74,8.41.69a2.37,2.37,0,0,1,2.58,0c2.47,1.8,5.38,1,7.91,0a21.71,21.71,0,0,1,4.5-1.09,13.9,13.9,0,0,0,5.14-1.55,1.5,1.5,0,0,1,2.14.56l.55,1c2.32,3.68,3.37,6-1.81,9.86a5.21,5.21,0,0,0-1.92,4.34c0,.76,0,1.51-.06,2.27a15.06,15.06,0,0,0,.3,5,4.64,4.64,0,0,1-1.83,5.53c-3.35,2.15-3.9,5.75-4.49,9.56-.09.62-.19,1.23-.29,1.84-.85,4.83-2.43,9.66-8.25,12.24a3.66,3.66,0,0,0-2.54,3.67,1.57,1.57,0,0,1-.41,1.09,1.52,1.52,0,0,1-1.29,1.21,33.39,33.39,0,0,0-6.45,1.72,31.22,31.22,0,0,1-9.57,2.09c-1,0-3.19,1.89-4.21,4.35-2.68,6.48-7.51,9.37-14.37,8.61-1-.11-2.07-.21-3.1-.3a67.47,67.47,0,0,1-8.15-1.09,9,9,0,0,0-4.63.59c-.64.19-1.3.39-2,.54-.83.19-1.68.33-2.53.48a17.31,17.31,0,0,0-6.52,2c-2.14,1.35-2.8,2.43-2.65,4.27a5.09,5.09,0,0,1-4.07,5.88c-1.76.51-2.42,1.23-1.64,4.15l.06.22c.57,2.16,1.44,5.42-2.12,8a1,1,0,0,0-.23.88c.12.59.76.86,1.28,1s1,.2,1.51.28c1.73.31,3.7.65,5,1.89A21.9,21.9,0,0,1,200,284.9a13.78,13.78,0,0,0,3.79,4.1c.58.37,1.5,1.31,1.09,3.47-.45,2.38-2.62,6.12-5.38,6.65a7.88,7.88,0,0,0-3.86,2.32l-.73.64a1.49,1.49,0,0,1-1.73.16c-4.78-2.81-13.75-.87-17.15,3.69-2.21,3-3.1,4.95-2.16,8.22.85,3-.27,7.72-4.58,9l-.32.09-.39.11c-1.07,3.71-3.93,5.6-6.47,7.27a26.38,26.38,0,0,0-3,2.21,1.48,1.48,0,0,1-1.89.08c-.28-.2-.55-.42-.83-.64-1.22-.95-2.38-1.86-3.35-1.73a3.87,3.87,0,0,0-2.22,1.75,1.49,1.49,0,0,1-1.16.6,1.42,1.42,0,0,1-1.19-.53c-3.42-4.08-7.88-5.7-14.5-5.25a3.36,3.36,0,0,1-.76,0c-.92-.14-2,.52-3,1.16-1.36.85-2.89,1.82-4.57,1s-2.47-.26-4,.71c-.36.22-.73.46-1.14.67l1,2.09c2.7,2.85,2.8,5.21.37,8.37a17.69,17.69,0,0,0-1.49,2.51c-1.09,2.08-2.32,4.43-5.2,5.62-1.83.75-3.88,1.59-6.36-.66-3-2.75-4-2.65-7.24.71l-1,1a6.59,6.59,0,0,0-2.23,3A1.5,1.5,0,0,1,96.84,354.46Zm-1.63-3.09.6,0a11.31,11.31,0,0,1,2.66-3.27c.32-.3.63-.59.93-.91,3.73-3.9,6.66-5.19,11.43-.85,1.07,1,1.52.79,3.18.11,1.89-.78,2.73-2.38,3.7-4.24a19.2,19.2,0,0,1,1.77-2.95c1.54-2,1.49-2.78-.31-4.62a1.44,1.44,0,0,1-.28-.4l-1.81-3.75a1.55,1.55,0,0,1,0-1.3,1.49,1.49,0,0,1,1-.81,6.75,6.75,0,0,0,1.92-1c1.56-1,3.7-2.33,6.85-.9a5.87,5.87,0,0,0,1.72-.86c1.34-.84,3-1.9,5-1.58h.09c4.42-.31,10.7-.06,15.83,5a5.45,5.45,0,0,1,3-1.58c2.16-.29,3.9,1,5.45,2.22.79-.61,1.61-1.15,2.41-1.68,2.47-1.62,4.6-3,5.3-5.84a2.92,2.92,0,0,1,2.42-1.93l.27-.07c2.82-.83,2.85-4.2,2.54-5.27-1.4-4.88.44-7.91,2.63-10.84,4.11-5.51,13.89-7.83,20.09-5a10.58,10.58,0,0,1,5.22-3,4.2,4.2,0,0,0,2.08-2,5.71,5.71,0,0,0,1-2.75,17.26,17.26,0,0,1-4.44-4.78,18.87,18.87,0,0,0-2.42-3c-.69-.64-2.13-.89-3.53-1.13-.57-.1-1.13-.2-1.67-.32a4.32,4.32,0,0,1-3.54-3.31,4,4,0,0,1,1.43-3.92c1.78-1.27,1.56-2.49,1-4.73l-.06-.23c-.41-1.55-1.67-6.27,3.72-7.8,1.56-.45,2-1.14,1.9-2.74-.32-3.78,1.87-5.7,4-7.07a19.81,19.81,0,0,1,7.61-2.44c.8-.13,1.59-.27,2.38-.44.56-.13,1.13-.3,1.74-.49a11.63,11.63,0,0,1,6.15-.65,64.92,64.92,0,0,0,7.78,1c1.06.1,2.11.19,3.16.31,5.52.61,9.11-1.54,11.27-6.78,1.22-2.95,4.22-6.16,6.93-6.2a28.06,28.06,0,0,0,8.66-1.94,42.39,42.39,0,0,1,6.11-1.71,6.66,6.66,0,0,1,4.33-5.87c4.27-1.9,5.69-5.38,6.5-10,.1-.58.19-1.17.29-1.77.63-4.1,1.34-8.76,5.82-11.64.33-.21,1-.65.57-2.17a18,18,0,0,1-.41-6c0-.71.07-1.41.06-2.11a8.11,8.11,0,0,1,3.11-6.75c3.2-2.41,3.08-2.69,1.15-5.76a20.76,20.76,0,0,1-4.86,1.23,20.07,20.07,0,0,0-3.9.93c-2.73,1.08-6.73,2.21-10.31-.08-4.36,2.77-8.08.8-11.09-.8a23.6,23.6,0,0,0-3.09-1.45c-.07,0-.31,0-.49,0l-1,1.1a4.8,4.8,0,0,1-2.53,3.07c-1.35.48-2.72-.14-4-.89-2-1.18-3.54-1.12-5.11.23-.93.79-1.92,1.51-2.87,2.2-2.11,1.52-4.1,3-5.33,5.12-1.1,1.92-2.93,2.19-4.28,2.39a3.81,3.81,0,0,0-2.61,1c-1.63,1.81-4.17,3.14-6.62,4.43-.67.35-1.34.7-2,1.05a1.48,1.48,0,0,1-1.31.08,11.49,11.49,0,0,1-3.31-2.36,8.2,8.2,0,0,0-2.36-1.74,6,6,0,0,0-.75,3,5.65,5.65,0,0,1-2.06,4.42,5.84,5.84,0,0,1-5,.68c-3.53-.83-6.55-1.1-9.81.33a6.3,6.3,0,0,1-6.71-1.46c-.19-.18-.38-.37-.56-.56a5.62,5.62,0,0,0-1.06-.93c-2.92,3.93-7.68,4.14-11.12,3.92-2.89-.17-5,1.32-7.28,2.91a33.47,33.47,0,0,1-2.93,1.9,10.11,10.11,0,0,0-4.33,3.86c-2.27,4.2-7.56,4.26-9.3,4.28a4.55,4.55,0,0,1-2.75-.83,4.89,4.89,0,0,1-1.27-3.2,6,6,0,0,0-.17-1l-6,6c1,5-.15,10-1.29,14.74q-.39,1.6-.75,3.21a1.5,1.5,0,0,1-1.23,1.17c-1.4.21-2.23,1.11-3.45,2.56a14.54,14.54,0,0,1-2.27,2.31,3.3,3.3,0,0,0-.52.73c3.45,3.18,2.51,7.23,1.67,10.84a28.33,28.33,0,0,0-.78,4.33,1.45,1.45,0,0,1-.34.84,8.56,8.56,0,0,1-4.58,2.21c-2.29.37-5.74.94-7.36-3.82-1-2.85-1.58-3.41-1.86-3.5-.53-.15-1.94.66-4.2,2.43a4.56,4.56,0,0,1-1.19.63l-.53.23a1.51,1.51,0,0,1-1.67-.27,19.64,19.64,0,0,0-4.63-3,19.43,19.43,0,0,1-6.15-4.32,2.42,2.42,0,0,0-1.07,2A7.89,7.89,0,0,1,89.75,259a1.53,1.53,0,0,1-1.17.59,1.61,1.61,0,0,1-1.18-.55c-2.56-3.09-5.72-2.72-9.38-2.29a27.77,27.77,0,0,1-5,.28,3.22,3.22,0,0,0-.6.85,5.86,5.86,0,0,1-1.35,1.74,1.5,1.5,0,0,1-1.65.16,4,4,0,0,0-3.09-.62,4.17,4.17,0,0,0-2.12,2.46c-.61,1.36-1.53,3.4-3.45,3.81-1.28.28-2.6-.23-4.07-1.54-.26-.24-.4-.25-.4-.25a1.74,1.74,0,0,0-.56.89c-1.39,3.85-4.36,3.66-6.47,3.18-1.66-.37-3.45.43-5.34,1.29l-.54.24c-.28.12-.55.26-.82.4a8.21,8.21,0,0,1-3,1c0,.7-.08,1.38-.14,2.05a12.22,12.22,0,0,0-.09,2.68,56.36,56.36,0,0,0,1.62,7.44,49.78,49.78,0,0,1,1.83,9.26A12.14,12.14,0,0,0,43,293.5a15.06,15.06,0,0,1,.39,2q1.09,11.12,2.14,22.24a8.69,8.69,0,0,0,1.55,3.62A12.66,12.66,0,0,1,49,325.73a13.07,13.07,0,0,1,.22,1.79h.14l1.55.21c4.56.58,9.67,1.24,12.24,6.59a6.7,6.7,0,0,1,4.44-.27c2.2.7,3.51,2.64,4.54,4.56a3.75,3.75,0,0,0,1.91-.77,6,6,0,0,1,5.09-1c5.24,1.59,8.47,5.07,9.87,10.64.66,2.63,1.58,2.74,2.74,2.62a4.14,4.14,0,0,1,3,1C94.92,351.18,95.1,351.31,95.21,351.37Z"/><path class="cls-2" d="M75.61,287.4A7,7,0,0,1,77.93,289l-1.85,2.2a4.47,4.47,0,0,0-1.47-1.2,3.64,3.64,0,0,0-1.71-.45,3.4,3.4,0,0,0-1.79.48,3.52,3.52,0,0,0-1.26,1.31,3.89,3.89,0,0,0-.45,1.87,3.94,3.94,0,0,0,.45,1.89,3.58,3.58,0,0,0,1.26,1.33,3.46,3.46,0,0,0,1.79.49,3.84,3.84,0,0,0,1.65-.4,5.07,5.07,0,0,0,1.53-1.08l1.87,2A8,8,0,0,1,75.53,299a6.73,6.73,0,0,1-2.79.63,6.86,6.86,0,0,1-3.38-.84A6.27,6.27,0,0,1,67,296.5a6.51,6.51,0,0,1-.86-3.31A6.06,6.06,0,0,1,67,290a6.35,6.35,0,0,1,2.42-2.29,7.05,7.05,0,0,1,3.43-.84A6.87,6.87,0,0,1,75.61,287.4Z"/><path class="cls-2" d="M85.74,297.21l-.91,2.32h-3.3L87,286.93h3.3l5.31,12.6H92.15l-.9-2.32Zm2.77-7.09-1.84,4.66h3.64Zm.86-4.29H87l1.9-3,2.82,1Z"/><path class="cls-2" d="M103,299.53l-4.89-12.6h3.42l3.22,9.27,3.22-9.27h3.29l-4.94,12.6Z"/><path class="cls-2" d="M118,297.21l-.91,2.32h-3.3l5.44-12.6h3.29l5.31,12.6h-3.42l-.9-2.32Zm2.77-7.09-1.83,4.66h3.63Z"/><path class="cls-2" d="M141.44,287.72a5.73,5.73,0,0,1,2.37,2.23,6.7,6.7,0,0,1,0,6.55,6,6,0,0,1-2.42,2.23,7.64,7.64,0,0,1-3.55.8h-5.29v-12.6H138A7.38,7.38,0,0,1,141.44,287.72ZM135.75,297H138a3.28,3.28,0,0,0,1.74-.46,3.2,3.2,0,0,0,1.2-1.32,4.54,4.54,0,0,0,0-3.9A3.41,3.41,0,0,0,139.7,290a3.47,3.47,0,0,0-1.81-.48h-2.14Z"/><path class="cls-2" d="M159.16,287.66a6.36,6.36,0,0,1,2.45,2.29,6.16,6.16,0,0,1,.89,3.26,6.26,6.26,0,0,1-3.34,5.62,7.22,7.22,0,0,1-3.48.84,7.14,7.14,0,0,1-3.46-.84,6.36,6.36,0,0,1-2.45-2.32,6.24,6.24,0,0,1-.89-3.3,6.08,6.08,0,0,1,.89-3.27,6.33,6.33,0,0,1,2.44-2.29,7.65,7.65,0,0,1,6.95,0ZM153.94,290a3.56,3.56,0,0,0-1.3,1.34,3.71,3.71,0,0,0-.49,1.9,3.77,3.77,0,0,0,.49,1.91,3.54,3.54,0,0,0,1.3,1.36,3.38,3.38,0,0,0,1.77.49,3.27,3.27,0,0,0,1.76-.49,3.54,3.54,0,0,0,1.27-1.36,4,4,0,0,0,.47-1.91,3.91,3.91,0,0,0-.47-1.9,3.56,3.56,0,0,0-1.27-1.34,3.36,3.36,0,0,0-1.76-.49A3.47,3.47,0,0,0,153.94,290Z"/></svg>