<svg id="Camada_1" data-name="Camada 1" xmlns="http://www.w3.org/2000/svg" viewBox="0 0 900 670"><defs><style>.cls-1{fill:#fff;}.cls-2{fill:#9095a0;}</style></defs><title>Prancheta 1 cópia 2</title><path class="cls-1" d="M96.84,353c.53-2.1,2.27-3.26,3.64-4.7,3.66-3.82,5.63-4.15,9.34-.78,1.78,1.62,3.05,1.09,4.78.38,3.52-1.45,4.09-5.07,6.07-7.65s1.88-4.24-.43-6.59c-.91-.92-1.4-2.31-2.23-3.26l.43-.49c2.56-.59,4.17-3.61,7.8-1.95,1.92.87,4.27-2.78,7.16-2.33a2.06,2.06,0,0,0,.43,0c6-.4,11.44.65,15.75,5.78,3.33-4.45,5.92-1.6,8.49.32,3.3-2.92,7.94-4.24,9.15-9.08.15-.59,1-.72,1.65-.92,3.65-1.07,4.13-5.16,3.56-7.13-1.17-4.08.2-6.59,2.39-9.53,3.78-5,13.5-7.38,19.12-4.09,1.51-1.3,2.88-2.83,5.27-3.29,2.73-.53,5.4-6.36,3.78-7.38-3.19-2-4.37-5.43-6.85-7.74-1.36-1.26-3.86-1.35-5.88-1.81-3.1-.72-2.82-3.66-1.58-4.55,2.81-2,2-4.41,1.48-6.56-.8-3-.45-5.09,2.68-6a3.64,3.64,0,0,0,3-4.31c-.23-2.68,1-4.21,3.35-5.67,3-1.88,6.36-2,9.51-2.69,2.3-.51,4.57-1.72,7.25-1.14a107.49,107.49,0,0,0,11.1,1.37c6.15.68,10.41-1.87,12.82-7.69,1.09-2.63,3.66-5.25,5.56-5.28,5.75-.08,10.59-3.13,15.86-3.8,4.11-.53,8.17-.39,12-2.41a3,3,0,0,1,2.14.3c3.57,1.5,7.2,1.93,10.21-1.23,1.55-1.64,4.19-.92,4.56-.31,2.43,4.09,6.84,3.92,10.43,5.46,4.29,1.83,5.16,4.56,2.07,8.07-2,2.22-3.63,4.16-2.55,7.34a3.56,3.56,0,0,1-.4,2.11,21.93,21.93,0,0,0-.49,13.71c1.21,4.87,2.16,5.82,6.92,4.68,2-.48,4.2-1.32,5.51.89,1.81,3.06,4.62,2.46,7.32,2.54,1.47.05,2.84-.07,4.32.78,3.22,1.84,6.63,3.84,10.25.54a1.72,1.72,0,0,1,1.65,0c3,2.11,4.94.2,6.87-1.75s3.8-3.46,4.71-6c.81-2.23,2.24-2.47,3.81-.84s2.81,3.46,4.32,5.1c2.72,2.93,3.29,6.91,5,10.32,1.12,2.22-2.45,7.75-5,8-3.16.31-4,1.57-3,4.12l-6.15,8.56c-1.57,1.42-2.13,2.08-2,3.63.3,3-1.08,4-3.88,3.89-1.42-.06-2.87.48-4.27.34-2.15-.22-3.05.5-2.55,2.61.3,1.23-.47,2-.88,3-1,2.33-2.84,4.29-1.82,7.31.57,1.67-1.95,2.81-1.86,4.82,1.62,3.85,5.51,6.38,7.16,10.52a3.25,3.25,0,0,0,4.58,1.62c6-4,9.19,1.22,13.33,3.52,2.07,1.14,2.79,3.45,3.2,5.19.51,2.17,1.33,3,3.2,2.92,2.3-.06,4.53.83,6.82.95l.45.79c-.27,3.56-3.14,5.63-5.64,6.63-3.91,1.56-4.53,4.62-4,7.44a14.73,14.73,0,0,1-2.54,11c-2.88,4.29-5.39,9.62-11.74,10.48-3.45.47-5.76,3.93-9.42,4.21-.87,2.77-3,4.57-5,6.52l-.56-.53c-3.85-4.34-7.77-8.36-14.1-9.09-3-.35-3.78-3.08-2.14-5.87a27.17,27.17,0,0,1,2.13-3c2.19-2.76,1.7-4.67-1.73-6-1.41-.53-3.74-.23-3.7-2.16.05-2.29-1.47-4.56-.13-6.85,1.05-1.8,1.38-3.56-.43-5.12-.72-.62-1.06-1.43-.4-2.12,3.42-3.62,2.14-10.07,7.64-12.49a8.43,8.43,0,0,0,3-2.95c1.44-2.08,0-5-2.05-6.46-4.75-3.36-10.35-4.78-15.55-7-3.51-1.48-2.77-5.23-5.29-6.56-6,2.21-11.06-1-17.07-2.1-2.5,1.41-3.12,3.61-2.49,7.17.83,4.68-2.46,7.74-6.3,9.74-2.32,1.21-3.39,2.67-2.94,5.2.5,2.83-2.34,3.39-3.42,5.2,2,3.72.23,7.42-.59,11-.33,1.4-1,2.76-1.2,4.31-.58,3.9-4.5,5.47-8.06,3.44-1.11-.64-2.29-1.64-3.42-1.62-2.37,0-2.87-1.22-3-3.1-.2-2.95-.88-5.53-4.7-5.11a2.1,2.1,0,0,1-2.09-1.33c-.64-1.08-.63-2.95-2.19-2.89-3.2.13-6.27-1-9.4-.84-1.73.08-1.92,1.78-1.72,3.33.4,3.22-1.05,5-4.26,4.21-3.39-.78-4.82,2.08-6.24,3.65-1.26,1.39-2.32,1.91-3.49,1.83l.31.57c-.44,2.26-2.15,3.48-4,4.81,1.46,2.82-.46,5.56-.44,8.45,0,1.93-5.53,3.86-7.49,2.48-3.76-2.63-8-5.23-8.12-10.61a10,10,0,0,0-1.09-3.25l-.68-.17c-2.05-.43-3.56.55-5.16,1.68-3.06,2.16-5.94,5.12-10.32,2.3-.7-.46-2.48.73-3.85,1.18-2.83-2.71-.36-4.71.94-6.87l.86-.42c-4.91-1.72-4.92-1.73-8.55,2.14-1.17,1.25-2.05,3.06-3.48,3.72-2.06,1-4.92,3.23-6.69.07-3-5.26-6.86-3.17-10.78-2.08a11.74,11.74,0,0,1-2.57.81c-5.53.12-9.45,2.13-10.31,8.16-.07.48-.83,1.25-1.23,1.22-2.71-.14-5.38,3.49-8.18.11-.29-.35-1.53-.31-2.06,0-2.54,1.48-5.22.54-7.71.27-3.76-.4-7.34-.74-10.37,1.46-3.94-4.27-2.3-10-4.58-14.62-1.3-2.63.17-4,2.5-5.19s5.63-.3,6.63-3.94c-1.81-1.63-2-5.72-4.83-5.15-2.2.44-3.6-.57-5.07-1.34"/><path class="cls-1" d="M329,403.89l-1.71-1.62c-3.82-4.31-7.46-7.94-13.14-8.59a4.69,4.69,0,0,1-3.84-2.47,5.93,5.93,0,0,1,.58-5.65,29,29,0,0,1,2.25-3.17c.74-.94,1.1-1.73,1-2.19s-.88-1-2.05-1.43a6.21,6.21,0,0,0-1-.24c-1.2-.22-3.7-.68-3.64-3.36a9,9,0,0,0-.31-2.08c-.34-1.57-.77-3.51.38-5.49,1-1.76.75-2.49-.11-3.24a3.26,3.26,0,0,1-1.27-2.31,2.58,2.58,0,0,1,.76-2,12.25,12.25,0,0,0,2.29-4.83c.92-2.95,2-6.3,5.83-8a7.33,7.33,0,0,0,2.36-2.43c.88-1.26-.18-3.32-1.68-4.38-3.21-2.27-6.8-3.6-10.6-5-1.53-.57-3.12-1.15-4.66-1.8a7.49,7.49,0,0,1-4-4.5,6,6,0,0,0-1-1.78c-4.34,1.32-8.25.14-12-1-1.45-.44-3-.89-4.48-1.2-1.26.87-1.87,2.19-1.32,5.33s-.2,7.75-7.08,11.33c-2.15,1.12-2.42,2.13-2.16,3.61.48,2.71-1.25,4.11-2.39,5-.26.21-.52.42-.74.63,1.29,3.21.42,6.33-.36,9.11-.19.68-.38,1.36-.53,2s-.35,1.26-.55,1.85a14,14,0,0,0-.62,2.34,6.42,6.42,0,0,1-3.5,5,7.23,7.23,0,0,1-6.8-.44c-.29-.17-.6-.37-.9-.56a4.67,4.67,0,0,0-1.73-.86H250c-4.09,0-4.31-3.38-4.39-4.5s-.27-2.76-1-3.36a2.73,2.73,0,0,0-2-.35,3.62,3.62,0,0,1-3.54-2.07,7.42,7.42,0,0,1-.58-1.35,6.08,6.08,0,0,0-.31-.8,24.68,24.68,0,0,1-4.94-.44,21.12,21.12,0,0,0-4.4-.4.59.59,0,0,0-.19,0c-.06.06-.26.49-.12,1.62.35,2.79-.55,4.26-1.37,5s-2.23,1.42-4.7.85c-1.8-.42-2.69.58-4,2.23-.27.34-.54.67-.8,1a7,7,0,0,1-2.91,2.09,8.39,8.39,0,0,1-3.55,4.63,9.87,9.87,0,0,1-.29,5.15,11.44,11.44,0,0,0-.46,2.77c0,1.25-.91,2.42-2.59,3.3s-5.23,1.84-7.26.42l-.67-.47c-3.71-2.58-7.93-5.51-8.09-11.32a5.29,5.29,0,0,0-.59-1.84l-.09-.18c-1.32-.26-2.4.41-3.88,1.45-.36.25-.71.52-1.07.78-2.71,2-6.08,4.51-10.66,1.72-.33.1-.91.37-1.29.54s-1,.47-1.54.65l-.86.28-.65-.62c-3.26-3.12-1.24-6,0-7.67l.05-.07a3.38,3.38,0,0,0-1.59-.21c-.64.16-1.55,1.13-3.05,2.73a13.89,13.89,0,0,0-1,1.26,8.24,8.24,0,0,1-2.94,2.8c-.3.14-.62.31-.94.49-1.78.94-5.47,2.9-7.69-1-1.91-3.4-3.91-3-7.58-1.82-.49.15-1,.31-1.49.44a8.32,8.32,0,0,0-.78.3,5.92,5.92,0,0,1-2.16.57c-5.54.12-8.19,2.17-8.85,6.87a3.18,3.18,0,0,1-2.71,2.51h-.09a5.14,5.14,0,0,0-2.16.65c-1.76.76-4.38,1.9-6.84-.79a1.31,1.31,0,0,0-.44.07c-2.44,1.42-4.9,1-7.07.66-.52-.08-1-.16-1.52-.22-4-.43-6.89-.59-9.33,1.18l-1.08.79-.91-1c-2.63-2.86-3.07-6.29-3.47-9.33a17.73,17.73,0,0,0-1.34-5.64c-2.18-4.4,1.69-6.43,3.14-7.19a10,10,0,0,1,2.69-.82c1.53-.32,2.42-.54,2.92-1.48a12.67,12.67,0,0,1-1.16-2.08c-.9-1.88-1.16-2-1.66-1.91a7.6,7.6,0,0,1-5.54-1.2l-.52-.29L97,353l-1.64-.42a9.21,9.21,0,0,1,3.08-4.46c.32-.3.63-.59.93-.91,3.73-3.9,6.66-5.19,11.43-.85,1.07,1,1.52.79,3.18.11,1.89-.78,2.73-2.38,3.7-4.24a19.2,19.2,0,0,1,1.77-2.95c1.54-2,1.49-2.78-.31-4.62a9.52,9.52,0,0,1-1.44-2,8.87,8.87,0,0,0-.85-1.28l-.87-1,1.62-1.84.47-.11a6.75,6.75,0,0,0,1.92-1c1.56-1,3.7-2.33,6.85-.9a5.87,5.87,0,0,0,1.72-.86c1.34-.84,3-1.9,5-1.58h.09c4.42-.31,10.7-.06,15.83,5a5.45,5.45,0,0,1,3-1.58c2.15-.29,3.9,1,5.45,2.22.79-.61,1.61-1.15,2.41-1.68,2.47-1.62,4.6-3,5.3-5.84a2.92,2.92,0,0,1,2.42-1.93l.27-.07c2.82-.83,2.85-4.2,2.54-5.27-1.4-4.88.44-7.91,2.63-10.84,4.11-5.51,13.89-7.83,20.09-5a10.58,10.58,0,0,1,5.22-3,4.2,4.2,0,0,0,2.08-2,5.71,5.71,0,0,0,1-2.75,17.26,17.26,0,0,1-4.44-4.78,18.87,18.87,0,0,0-2.42-3c-.69-.64-2.13-.89-3.53-1.13-.57-.1-1.13-.2-1.67-.32a4.32,4.32,0,0,1-3.54-3.31,4,4,0,0,1,1.43-3.92c1.78-1.27,1.56-2.49,1-4.73l-.06-.23c-.41-1.55-1.67-6.27,3.72-7.8,1.56-.45,2-1.14,1.9-2.74-.32-3.78,1.87-5.7,4-7.07a19.81,19.81,0,0,1,7.61-2.44c.8-.13,1.59-.27,2.38-.44.56-.13,1.13-.3,1.74-.49a11.63,11.63,0,0,1,6.15-.65,64.92,64.92,0,0,0,7.78,1c1.06.1,2.11.19,3.16.31,5.52.61,9.11-1.54,11.27-6.78,1.22-2.95,4.22-6.16,6.93-6.2a28.06,28.06,0,0,0,8.66-1.94,37.46,37.46,0,0,1,7-1.85c1-.13,1.94-.21,2.9-.3,3-.28,5.9-.54,8.55-1.94a4.1,4.1,0,0,1,3.42.24c3.86,1.61,6.41,1.35,8.54-.89a5,5,0,0,1,4.21-1.43,3.78,3.78,0,0,1,2.72,1.4c1.43,2.39,3.7,3,6.32,3.73a26.68,26.68,0,0,1,3.42,1.11c2.7,1.15,4.28,2.69,4.71,4.58s-.3,3.8-2.11,5.86c-2,2.28-3,3.58-2.25,5.87a4.61,4.61,0,0,1-.41,3.1,20.41,20.41,0,0,0-.45,12.84c1.07,4.28,1.36,4.48,5.12,3.58l.57-.14c1.81-.46,4.83-1.23,6.58,1.73,1,1.75,2.34,1.82,4.74,1.8h1.92a8.45,8.45,0,0,1,4.43,1c3.58,2,5.85,3.15,8.5.73a3.14,3.14,0,0,1,3.52-.12c1.84,1.29,2.77.63,4.94-1.58l.92-.91a12.8,12.8,0,0,0,3.45-4.52c.73-2,1.87-2.64,2.71-2.82s2.13-.07,3.59,1.45c.87.9,1.64,1.86,2.39,2.8s1.28,1.59,1.95,2.32a20,20,0,0,1,3.8,7.1,31.12,31.12,0,0,0,1.46,3.56c.93,1.85-.09,4.24-.78,5.5-1.1,2-3.2,4.45-5.45,4.68-1.66.17-1.95.56-2,.6s-.19.36.25,1.47l.3.76-6.83,9.48c-1.53,1.37-1.57,1.58-1.49,2.36a5,5,0,0,1-1.08,4.18c-.93,1-2.35,1.44-4.35,1.36a8.34,8.34,0,0,0-1.72.16,10.39,10.39,0,0,1-2.64.17,2.89,2.89,0,0,0-1,0,2.36,2.36,0,0,0,.09.75,4.45,4.45,0,0,1-.67,3.37q-.17.29-.3.57a18.35,18.35,0,0,1-.83,1.66c-.94,1.77-1.49,2.94-.94,4.57s-.36,2.83-1,3.73a3.87,3.87,0,0,0-.74,1.29,20.18,20.18,0,0,0,3.07,4.32,21.75,21.75,0,0,1,4,5.92,1.71,1.71,0,0,0,1.13,1,1.54,1.54,0,0,0,1.23-.08c5.41-3.59,9.17-.73,12.18,1.58a24.49,24.49,0,0,0,2.71,1.87c2.52,1.41,3.43,4,3.93,6.17.42,1.79.83,1.79,1.71,1.76a17.31,17.31,0,0,1,4.07.51,20.39,20.39,0,0,0,2.85.44l.81,0,1.11,1.89,0,.47c-.27,3.46-2.67,6.35-6.58,7.91-2.61,1-3.62,2.93-3.09,5.78a16.31,16.31,0,0,1-2.77,12.11c-.39.57-.76,1.16-1.14,1.75-2.56,4-5.46,8.54-11.65,9.38a9.94,9.94,0,0,0-3.83,1.82,13.82,13.82,0,0,1-4.69,2.26,17,17,0,0,1-4.26,5.46l-.78.76ZM309.11,362l.13.13c2.14,1.84,2.4,4.2.75,7-.53.92-.36,1.86,0,3.33a11.39,11.39,0,0,1,.38,2.79.36.36,0,0,0,0,.1c.1.05.77.17,1.17.25a8.76,8.76,0,0,1,1.55.38c2.21.83,3.48,2,3.89,3.44s-.08,3.06-1.51,4.86a23.49,23.49,0,0,0-2,2.82,3.19,3.19,0,0,0-.49,2.79,1.79,1.79,0,0,0,1.5.83c6.44.74,10.59,4.62,14.51,9a12,12,0,0,0,3.54-4.84l.31-1,1-.07a9.42,9.42,0,0,0,4.26-1.92,12.22,12.22,0,0,1,5.07-2.28c4.81-.66,7.1-4.23,9.52-8,.39-.62.78-1.22,1.18-1.81a13.36,13.36,0,0,0,2.31-9.89c-.8-4.29,1-7.53,4.92-9.12,1.53-.6,4-2,4.6-4.62-.76-.1-1.5-.26-2.23-.4a14.33,14.33,0,0,0-3.4-.45h-.17c-3.16,0-4.08-2.17-4.53-4.07-.38-1.63-1-3.41-2.47-4.23a27.41,27.41,0,0,1-3.07-2.12c-3.24-2.47-5.24-3.76-8.7-1.46a4.52,4.52,0,0,1-3.79.45,4.72,4.72,0,0,1-3-2.77,19.08,19.08,0,0,0-3.47-5.09,21.22,21.22,0,0,1-3.68-5.4l-.11-.25v-.27a5.32,5.32,0,0,1,1.35-3.41,3.87,3.87,0,0,0,.6-1c-1-3,.17-5.18,1.13-7,.26-.5.51-1,.72-1.44.12-.28.27-.55.41-.82.36-.65.47-.9.39-1.23a3.72,3.72,0,0,1,.54-3.45c1.11-1.26,3-1.07,3.62-1a7.53,7.53,0,0,0,1.89-.15,12.14,12.14,0,0,1,2.29-.19,2.84,2.84,0,0,0,2-.42,2.49,2.49,0,0,0,.28-1.82c-.23-2.23.73-3.32,2.34-4.78l5.6-7.81a4,4,0,0,1,.24-3.34c.94-1.53,2.87-1.89,4.24-2,.62-.06,2-1.18,3.12-3.13.83-1.5.85-2.47.73-2.7a37.38,37.38,0,0,1-1.6-3.88,17.44,17.44,0,0,0-3.18-6.11c-.75-.8-1.43-1.65-2.09-2.47s-1.44-1.8-2.21-2.6c-.51-.53-.79-.59-.83-.59a2.56,2.56,0,0,0-.49.9,15.14,15.14,0,0,1-4.17,5.65l-.89.87c-1.86,1.89-4.66,4.73-8.68,2h-.1c-4.32,3.75-8.59,1.31-11.72-.48a5.78,5.78,0,0,0-3.07-.62h-1.85c-2.39,0-5.37.05-7.34-3.27-.53-.9-1.17-.88-3.26-.35l-.61.15c-5.92,1.41-7.43-.54-8.73-5.77-1.36-5.48-1.19-10.12.56-14.62a5.32,5.32,0,0,0,.35-1.17c-1.35-4,.89-6.5,2.86-8.74.78-.88,1.67-2.16,1.43-3.21s-1.75-2-3-2.49a26.93,26.93,0,0,0-3-1c-2.79-.76-5.93-1.62-8-4.89a2.23,2.23,0,0,0-2.31.37c-4.45,4.69-10,2.36-11.87,1.59a3.37,3.37,0,0,0-1-.3c-3.14,1.63-6.4,1.93-9.55,2.22-.93.08-1.86.17-2.8.29a33.39,33.39,0,0,0-6.45,1.72,31.22,31.22,0,0,1-9.57,2.09c-1,0-3.19,1.89-4.21,4.35-2.68,6.48-7.51,9.37-14.37,8.61-1-.11-2.07-.21-3.1-.3a67.47,67.47,0,0,1-8.15-1.09,9,9,0,0,0-4.63.59c-.64.19-1.3.39-2,.54-.83.19-1.68.33-2.53.48a17.31,17.31,0,0,0-6.52,2c-2.14,1.35-2.8,2.43-2.65,4.27a5.09,5.09,0,0,1-4.07,5.88c-1.76.51-2.42,1.23-1.64,4.15l.06.22c.57,2.16,1.44,5.42-2.12,8a1,1,0,0,0-.23.88c.12.59.76.86,1.28,1s1,.2,1.51.28c1.73.31,3.7.65,5,1.89A21.9,21.9,0,0,1,200,284.9a13.78,13.78,0,0,0,3.79,4.1c.58.37,1.5,1.31,1.09,3.47-.45,2.38-2.62,6.12-5.38,6.65a7.88,7.88,0,0,0-3.86,2.32l-.73.64-.81.7-.92-.54c-4.77-2.8-13.75-.87-17.15,3.69-2.21,3-3.1,4.95-2.16,8.22.85,3-.27,7.72-4.58,9l-.32.09-.39.11c-1.07,3.71-3.93,5.6-6.47,7.27a26.38,26.38,0,0,0-3,2.21l-.91.81-1-.73c-.28-.2-.55-.42-.83-.64-1.22-.95-2.38-1.86-3.35-1.73a3.87,3.87,0,0,0-2.22,1.75l-1.14,1.52-1.21-1.45c-3.42-4.08-7.88-5.7-14.5-5.25a3.36,3.36,0,0,1-.76,0c-.92-.14-2,.52-3,1.16-1.36.85-2.89,1.82-4.57,1s-2.47-.26-4,.71a16.75,16.75,0,0,1-1.47.84l.16.29a7.48,7.48,0,0,0,1,1.45c2.88,2.93,3,5.32.55,8.55a17.69,17.69,0,0,0-1.49,2.51c-1.09,2.08-2.32,4.43-5.2,5.62-1.83.75-3.88,1.59-6.36-.66-3-2.75-4-2.65-7.24.71l-1,1a8.09,8.09,0,0,0-2.06,2.49,4.19,4.19,0,0,0,3,.64c3-.58,4.16,1.91,5,3.56a6.8,6.8,0,0,0,1.17,1.94l.69.62-.25.89c-.93,3.4-3.56,3.94-5.48,4.34a7.21,7.21,0,0,0-1.89.54c-2.47,1.29-2.46,2-1.85,3.2a20.56,20.56,0,0,1,1.63,6.59c.31,2.43.61,4.75,1.94,6.71,3.27-1.72,6.93-1.32,10.19-1,.55.06,1.11.15,1.68.24,1.92.31,3.57.58,5.12-.32,1-.57,3.07-.73,4,.34,1.05,1.27,1.74,1.05,3.59.25a8.67,8.67,0,0,1,3.14-.9l.07-.08c.92-6.11,4.76-9.15,11.74-9.3a3.36,3.36,0,0,0,1.06-.34,9.25,9.25,0,0,1,1.13-.41l1.41-.43c3.33-1,7.9-2.45,11.08,3.21.63,1.12,1.13,1.21,3.67-.13.38-.21.75-.4,1.09-.56a6.09,6.09,0,0,0,1.79-1.87,17.4,17.4,0,0,1,1.23-1.52c4-4.28,4.67-4.44,10.12-2.54l3.35,1.17-3.64,1.84c-.19.29-.4.58-.6.87-1.07,1.5-1.5,2.19-1,3.05l.33-.15c1.35-.62,2.74-1.26,3.91-.5,2.84,1.83,4.61.7,7.51-1.45l1.13-.82c1.49-1.05,3.55-2.5,6.33-1.91l1.48.36.29.72c.09.26.21.51.33.77a7.6,7.6,0,0,1,.85,3c.13,4.3,3.38,6.56,6.81,8.95l.68.47a3.87,3.87,0,0,0,2.64,0,5,5,0,0,0,2.49-1.3,14.82,14.82,0,0,1,.54-3.4c.46-1.85.7-3.05.07-4.27l-.6-1.15,1.05-.76c1.72-1.24,2.83-2.1,3.26-3.39l-1.32-2.44,2.71.18c.49,0,1.16-.1,2.27-1.34.23-.25.45-.53.68-.83,1.31-1.65,3.28-4.14,7-3.28a2.36,2.36,0,0,0,2-.16,3,3,0,0,0,.41-2.4,4.94,4.94,0,0,1,.79-3.91,3.16,3.16,0,0,1,2.35-1.11,24.17,24.17,0,0,1,5,.43,21.78,21.78,0,0,0,4.42.41c2.2-.12,2.89,1.88,3.21,2.82a5.08,5.08,0,0,0,.32.8c.38.64.49.64.63.61a5.5,5.5,0,0,1,4.3,1c1.58,1.32,1.93,3.5,2.06,5.46.11,1.59.33,1.71,1.48,1.7h.06a6.39,6.39,0,0,1,3.36,1.34c.25.16.51.33.76.47a4.26,4.26,0,0,0,4,.35,3.41,3.41,0,0,0,1.84-2.71,16.35,16.35,0,0,1,.74-2.82c.18-.56.36-1.09.47-1.59.17-.72.37-1.44.57-2.17.77-2.74,1.49-5.33.17-7.81l-.4-.75.44-.72a7.48,7.48,0,0,1,1.89-2c1.2-1,1.48-1.31,1.33-2.19-.71-4,1.79-5.78,3.73-6.79,4.28-2.23,6.08-4.89,5.51-8.14-.52-2.94-.62-6.58,3.24-8.75l.47-.26.53.1a46,46,0,0,1,5.38,1.38c3.86,1.15,7.19,2.15,10.9.78l.63-.23.59.31a6.42,6.42,0,0,1,2.79,3.59c.57,1.31,1,2.34,2.39,2.92s3,1.2,4.53,1.76c3.82,1.41,7.77,2.87,11.29,5.36,2.69,1.91,4.38,5.71,2.42,8.54a9.57,9.57,0,0,1-3.62,3.47c-2.61,1.16-3.34,3.47-4.18,6.16A14.82,14.82,0,0,1,309.11,362Zm25.36-83.76Z"/><path class="cls-2" d="M240.71,302.21l-.91,2.32h-3.3l5.43-12.6h3.3l5.31,12.6h-3.42l-.9-2.32Zm2.77-7.09-1.84,4.66h3.64Z"/><path class="cls-2" d="M257.94,304.53l-4.89-12.6h3.42l3.22,9.27,3.22-9.27h3.3l-4.95,12.6Z"/><path class="cls-2" d="M274.25,294.45V297h6v2.53h-6V302h6.85v2.52H271v-12.6h9.87v2.52Z"/></svg>