<svg id="Camada_1" data-name="Camada 1" xmlns="http://www.w3.org/2000/svg" viewBox="0 0 900 670"><defs><style>.cls-1{fill:#fff;}.cls-2{fill:#9095a0;}</style></defs><title>Prancheta 1 cópia 4</title><path class="cls-1" d="M38.48,269.15c1.41.9,2.91-.66,4.28-1.27,2.18-1,4.48-2.15,6.82-1.62s3.88.13,4.73-2.23c.62-1.7,1.9-2.56,3.37-1.25,3,2.65,4.12.53,5.15-1.76,1.57-3.5,3.93-4.35,7.29-2.56,1.1-.89,1.36-3,3-2.92,5.31.37,11.1-2.71,15.44,2.56a6.4,6.4,0,0,0,1.23-4.77c-.08-1.92,1.13-3,2.84-4.25,2.8,4.4,8,5,11.55,8.35a8.36,8.36,0,0,0,1.43-.69c5.05-3.94,6.45-3.9,8.4,1.78,1.2,3.54,3.44,3.19,5.7,2.82a7.22,7.22,0,0,0,3.66-1.68c.42-5.66,4-11-1.39-14.74a11.56,11.56,0,0,1,1.62-2.25c2.18-1.66,3.27-4.68,6.39-5.16,1.31-6.06,3.4-12,1.85-18.1l7.15-7.15c3.09-.15,1.48,3.34,3,4.73a3.3,3.3,0,0,0,1.71.43c3,0,6.43-.6,8-3.49a11.48,11.48,0,0,1,4.92-4.46c3.48-1.92,6.3-5.29,11-5,4,.25,8.13-.21,10.41-4.21,1.64.25,2.37,1.34,3.27,2.19a4.85,4.85,0,0,0,5.08,1.18c3.64-1.59,7-1.3,10.76-.42,2.65.63,5-.07,5.22-3.75.1-1.58.3-3.6,1.87-4.59,2.82.52,4.05,3.3,6.62,4.37,2.89-1.6,6.34-3.09,8.21-5.17,2.13-2.37,5.28-.66,6.71-3.16,2-3.5,5.61-5.23,8.52-7.72,2.26-1.94,4.54-1.74,6.85-.39s3.35,1.32,4.46-1.67-.11-5.72.53-8.64a24.76,24.76,0,0,0-3-18.83c-2.31.43-4.72.91-7.17.07l-1.06,0c-.86-3.19-1.4-6.37-4.41-8.65-2.11-1.6-1.88-6.56-.06-9.3,3.56-5.38,6.08-11.35,10.93-16,2.3-2.21,4.6-5.44,4.87-9.22.16-2.14,1.34-3,3.41-3.48a7,7,0,0,0,5.65-5.48C256,99.05,258,98.17,260.8,98c7.28-.45,10.69-3,11.37-9.31.43-3.88-.54-8.08-1.64-11.92-1.18-4.11-2.65-8.4-7.57-9.91A11,11,0,0,1,260.34,65c-2.77,1.76-5.48,3.11-9,2-2.51-.77-4.4,1.13-5.93,2.92-1.18,1.39-2.86,2.77-4.26,2.39-2.46-.68-2.25-3.22-2.2-5.4.17-6.55-.22-13-2.52-19.26a2.6,2.6,0,0,1,0-2.09c3.19-4,1-7-1.73-9.89L234.3,37c-1.43,3.19-5.22,3.48-7.39,5.87-.47.52-2.4.28-3.78-.66-3.9-2.66-5.81-1.8-6.73,2.92-.48,2.44-1.34,4-3.86,2.48-1.45-.87-2.22,0-3,.56a32.42,32.42,0,0,0-3.88,3.37c-2.33,2.16-4.08,5-8.15,4.44-1.4-.2-2.85,1.17-3.16,3.65-.47,3.83-1.4,6-6.24,3.91-6.06-2.57-6.1-2.45-10.68,2.53-1.47,1.6-3.1,2.48-5.12.86a4.16,4.16,0,0,0-5.52,0c-3.12,2.46-5.89,3.3-8.62-.45-.47-.65-1-1.46-2.11-1.32-5.68.64-11.59-1.36-17.09,1.33a5,5,0,0,1-4.21.27c-2.6-1.5-4.06-.2-5.64,1.41,1,5.06-1.12,8.3-6.85,8.83-4.49.42-9.13,2.49-13.75-.59-2.06-1.36-4.73.65-7.17.91a14.82,14.82,0,0,0-10.52,6c-2.44,3.08-4.51,5.57-4,9.6.7,6.15-4,8.39-8.09,11.13-5.09,3.41-11.39,4.23-16.31,8.06-3.08,2.4-5.7,4.23-4,9.11.84,2.47-.88,5.75-3.6,7.63s-5.09,3.77-7.72,5.52c-2.43,1.61-5.39,2-8.13,2.46s-4.79,1.6-5.87,3.6C29.77,146.56,26,152,20.13,155.89c-.95.64-2.28,2.51-2.05,2.86,3,4.41-.73,7.54-1.75,11.23a11.22,11.22,0,0,0,2.12,9.76c1.34,1.81,1.22,3.28-.09,4.73-1.45,1.6-1.69,2.91-1,5.21a12.23,12.23,0,0,1-.65,8.5c-3.06,6.41-1.42,12.58.81,18.82a194.72,194.72,0,0,0,8.19,18.79,4.46,4.46,0,0,0,.83,1.29c4.2,3.36,5.84,2.54,5.49,7.7-.56,8.14,1,15.85,5.25,22.63A6.66,6.66,0,0,0,38.48,269.15Z"/><path class="cls-1" d="M39.38,270.93a3.09,3.09,0,0,1-1.7-.51h0a5.06,5.06,0,0,1-1.5-1.88l-.2-.33c-4.24-6.73-6.09-14.65-5.48-23.54.2-2.93-.05-3.1-2.05-4.38a35.16,35.16,0,0,1-2.88-2,4.91,4.91,0,0,1-1.24-1.82,198.22,198.22,0,0,1-8.26-18.93c-2.22-6.25-4.11-12.93-.74-20a10.72,10.72,0,0,0,.56-7.44c-.8-2.8-.42-4.66,1.36-6.63.76-.84,1-1.51,0-2.82a12.7,12.7,0,0,1-2.35-11.06,18.15,18.15,0,0,1,1.43-3.38c1.37-2.68,2.07-4.32.52-6.61a1.69,1.69,0,0,1-.24-1.34,7.51,7.51,0,0,1,2.7-3.6c4.83-3.23,8.54-7.67,12.4-14.86,1.25-2.33,3.66-3.84,7-4.37l.44-.07c2.49-.4,5.07-.81,7.1-2.16,1.44-1,2.87-2,4.26-3,1.14-.84,2.27-1.68,3.44-2.48,2.25-1.55,3.61-4.2,3-5.91-2-5.73,1.2-8.18,4.25-10.55l.29-.23a35.36,35.36,0,0,1,9.09-4.64,37.19,37.19,0,0,0,7.3-3.47L79.2,102c4.1-2.65,6.58-4.5,6.09-8.84-.51-4.54,1.76-7.41,4.16-10.45l.2-.25a16.44,16.44,0,0,1,11.54-6.62,10.74,10.74,0,0,0,2.25-.61c1.76-.6,4-1.35,5.91,0,3,2,6.12,1.45,9.41.86,1.09-.2,2.23-.4,3.37-.51,2.34-.22,4-.92,4.85-2.09s1.08-2.81.67-5l-.14-.77.54-.56c1.4-1.42,3.74-3.81,7.46-1.66a3.73,3.73,0,0,0,2.8-.32c3.87-1.89,7.81-1.68,11.62-1.47a35.91,35.91,0,0,0,6,0,3.56,3.56,0,0,1,3.4,1.81l.09.13a4.13,4.13,0,0,0,2.52,1.92c1,.14,2.26-.43,4-1.76a5.63,5.63,0,0,1,7.39,0c.82.66,1.52,1,3.08-.71l.11-.12c4.92-5.36,5.73-5.54,12.26-2.77,2.11.9,2.87.69,3.1.56.71-.41,1-2.49,1.06-3.27a6.17,6.17,0,0,1,2.14-4.2,3.64,3.64,0,0,1,2.72-.76c2.58.35,3.93-1,5.65-2.79.41-.43.83-.86,1.27-1.26l.79-.75a25.26,25.26,0,0,1,3.28-2.77c.1-.06.19-.14.29-.21a3.53,3.53,0,0,1,4.31-.39,2.09,2.09,0,0,0,1,.39h0s.33-.25.65-1.87c.37-1.88,1.1-4.49,3.19-5.35s4.33.44,5.85,1.48a3.91,3.91,0,0,0,2,.67,13.37,13.37,0,0,1,3.46-2.34c1.5-.81,2.8-1.5,3.44-2.86l1.25-3.59,1.69,1.81c2.11,2.25,6,6.41,1.91,11.73a2.28,2.28,0,0,0,.12.76c2.58,7,2.75,14.27,2.61,19.81v.34c-.07,2.44.08,3.3,1.11,3.58.34.1,1.38-.34,2.72-1.91s3.83-4.51,7.51-3.39c2.7.83,4.8,0,7.72-1.87l.87-.56.83.62c.35.26.67.54,1,.81a4,4,0,0,0,1.19.86c6,1.84,7.53,7.32,8.56,10.94,1.1,3.81,2.15,8.28,1.69,12.5-.76,7-4.57,10.13-12.76,10.64-2.92.17-3.76,1.11-4.12,2.45A8.48,8.48,0,0,1,250,108.5c-1.79.4-2.15,1-2.23,2.13-.32,4.49-3.08,8-5.33,10.2-3.2,3.07-5.32,6.71-7.57,10.57-1,1.71-2,3.48-3.15,5.19-1.56,2.36-1.5,6.35-.29,7.27,3.08,2.34,3.9,5.4,4.68,8.37h.16l.22.07c2,.69,4,.31,6.19-.08l1.24-.23.53.88a26.18,26.18,0,0,1,3.14,19.93,12.08,12.08,0,0,0-.09,3.41,12.56,12.56,0,0,1-.51,5.43c-.5,1.37-1.21,2.83-2.63,3.34s-2.72-.14-4-.89c-2-1.18-3.54-1.12-5.11.23-.93.79-1.92,1.51-2.87,2.2-2.11,1.52-4.1,3-5.33,5.12-1.1,1.92-2.93,2.19-4.28,2.39a3.81,3.81,0,0,0-2.61,1c-1.63,1.81-4.17,3.14-6.62,4.43-.67.35-1.34.7-2,1.05l-.64.36-.67-.28a11.49,11.49,0,0,1-3.31-2.36,8.2,8.2,0,0,0-2.36-1.74,6,6,0,0,0-.75,3,5.65,5.65,0,0,1-2.06,4.42,5.84,5.84,0,0,1-5,.68c-3.53-.83-6.55-1.1-9.81.33a6.3,6.3,0,0,1-6.71-1.46c-.19-.18-.38-.37-.56-.56a5.62,5.62,0,0,0-1.06-.93c-2.92,3.93-7.68,4.14-11.12,3.92-2.89-.17-5,1.32-7.28,2.91a33.47,33.47,0,0,1-2.93,1.9,10.11,10.11,0,0,0-4.33,3.86c-2.27,4.2-7.56,4.26-9.3,4.28a4.55,4.55,0,0,1-2.75-.83,4.89,4.89,0,0,1-1.27-3.2,6,6,0,0,0-.17-1l-6,6c1,5-.15,10-1.29,14.74q-.39,1.6-.75,3.21l-.21,1-1,.16c-1.4.21-2.23,1.11-3.45,2.56a14.54,14.54,0,0,1-2.27,2.31,3.3,3.3,0,0,0-.52.73c3.45,3.18,2.51,7.23,1.67,10.84a28.33,28.33,0,0,0-.78,4.33l0,.48-.3.36a8.56,8.56,0,0,1-4.58,2.21c-2.29.37-5.74.94-7.36-3.82-1-2.85-1.58-3.41-1.86-3.5-.53-.15-1.94.66-4.2,2.43a4.56,4.56,0,0,1-1.19.63l-.53.23-.92.43-.75-.7a19.64,19.64,0,0,0-4.63-3,19.43,19.43,0,0,1-6.15-4.32,2.42,2.42,0,0,0-1.07,2A7.89,7.89,0,0,1,89.75,259l-1.15,1.51-1.2-1.47c-2.56-3.09-5.72-2.72-9.38-2.29a27.77,27.77,0,0,1-5,.28,3.22,3.22,0,0,0-.6.85,5.86,5.86,0,0,1-1.35,1.74l-.77.63-.88-.47a4,4,0,0,0-3.09-.62,4.17,4.17,0,0,0-2.12,2.46c-.61,1.36-1.53,3.4-3.45,3.81-1.28.28-2.6-.23-4.07-1.54-.26-.24-.4-.25-.4-.25a1.74,1.74,0,0,0-.56.89c-1.39,3.85-4.36,3.66-6.47,3.18-1.66-.37-3.45.43-5.34,1.29l-.54.24a8.83,8.83,0,0,0-.95.53A6,6,0,0,1,39.38,270.93Zm-.05-3c.27.09,1-.36,1.52-.68a10.9,10.9,0,0,1,1.3-.73l.53-.23c2.15-1,4.59-2.07,7.23-1.47,2,.45,2.49.1,3-1.28a4,4,0,0,1,2.66-2.78,3.32,3.32,0,0,1,3.12.93c.82.73,1.31.86,1.44.84.29-.06.74-.77,1.34-2.11a7,7,0,0,1,3.89-4.07,6.1,6.1,0,0,1,4.33.28l.13-.23c.54-.92,1.43-2.49,3.4-2.34a23.73,23.73,0,0,0,4.46-.26c3.41-.4,7.21-.85,10.49,1.82a7.26,7.26,0,0,0,.13-2.2c-.12-2.83,1.84-4.32,3.43-5.51l1.29-1,.87,1.37c1.43,2.23,3.65,3.38,6,4.61a25.25,25.25,0,0,1,4.56,2.79l.24-.12c3-2.34,5-3.5,6.9-2.93s2.83,2.47,3.84,5.41c.76,2.23,1.63,2.21,4,1.82a7.12,7.12,0,0,0,2.47-.94,34,34,0,0,1,.8-4.16c1-4.25,1.36-6.56-1.6-8.61l-1.25-.86.87-1.23c.26-.37.46-.7.64-1a5.42,5.42,0,0,1,1.3-1.61,12.57,12.57,0,0,0,1.79-1.84,9.45,9.45,0,0,1,4.25-3.36c.18-.78.37-1.57.55-2.35,1.18-4.9,2.29-9.53,1.11-14.14l-.22-.82,8.17-8.17.57,0c3.27-.18,3.6,2.59,3.74,3.77a4.75,4.75,0,0,0,.27,1.27,2.53,2.53,0,0,0,.73.11c3.59,0,5.72-.9,6.7-2.71a13,13,0,0,1,5.52-5.06,29.12,29.12,0,0,0,2.65-1.73c2.46-1.73,5.25-3.69,9.2-3.44,4.76.29,7.45-.74,9-3.46l.51-.89,1,.15a6.09,6.09,0,0,1,3.62,2.12l.45.46a3.37,3.37,0,0,0,3.46.89c4.26-1.86,8.14-1.34,11.7-.5a3.28,3.28,0,0,0,2.53-.17,3.09,3.09,0,0,0,.85-2.22c.1-1.51.29-4.32,2.56-5.76l.5-.32.58.11a9,9,0,0,1,4.49,2.67,12.33,12.33,0,0,0,1.83,1.49l1.34-.71c2.22-1.16,4.52-2.36,5.78-3.78a6.71,6.71,0,0,1,4.42-2c1.28-.19,1.76-.31,2.1-.91,1.56-2.72,3.91-4.42,6.18-6.06,1-.69,1.84-1.34,2.68-2,2.56-2.2,5.45-2.38,8.58-.54,1.11.66,1.44.66,1.48.65h0s.31-.2.81-1.55a10,10,0,0,0,.32-4.2,15,15,0,0,1,.16-4.25,23.35,23.35,0,0,0-2.25-16.84,13.68,13.68,0,0,1-6.66-.09l-2,0-.29-1.08c-.1-.35-.19-.69-.28-1-.71-2.72-1.32-5.08-3.6-6.81-2.83-2.15-2.59-8-.4-11.32,1.08-1.63,2.09-3.36,3.06-5,2.25-3.86,4.58-7.86,8.08-11.23,1.53-1.48,4.15-4.51,4.42-8.25.25-3.49,2.74-4.43,4.58-4.84a5.56,5.56,0,0,0,4.53-4.4c1.16-4.32,5.42-4.58,6.82-4.67,6.68-.41,9.38-2.57,10-8,.4-3.7-.58-7.81-1.59-11.34-1.18-4.13-2.49-7.64-6.57-8.9a6.23,6.23,0,0,1-2.28-1.47l0,0c-2.54,1.52-5.55,2.78-9.27,1.64-1.49-.45-2.77.61-4.35,2.47-1.15,1.34-3.43,3.51-5.8,2.85-3.47-1-3.36-4.46-3.3-6.55v-.33c.14-5.61,0-12.22-2.44-18.7a3.94,3.94,0,0,1,.25-3.54c1.83-2.29,1.59-4-.11-6.17a10.57,10.57,0,0,1-4.32,3.46A10.65,10.65,0,0,0,228,43.86c-1.27,1.41-4.15.65-5.74-.43-2-1.37-2.78-1.28-3-1.18s-.89.62-1.39,3.15c-.3,1.52-.84,3.34-2.39,4a4,4,0,0,1-3.71-.55c-.37-.23-.37-.23-1,.22q-.21.16-.42.3a21.89,21.89,0,0,0-2.87,2.44l-.82.78c-.4.37-.78.76-1.16,1.15-1.84,1.89-4.13,4.25-8.22,3.67a.72.72,0,0,0-.48.17,3.33,3.33,0,0,0-1,2.19c-.26,2.1-.69,4.43-2.54,5.49s-4.18.29-5.77-.39c-2.58-1.09-4.07-1.7-4.94-1.49s-2,1.46-3.94,3.53l-.11.12c-3,3.22-5.53,2.33-7.17,1a2.67,2.67,0,0,0-3.65.06c-1.63,1.28-3.8,2.71-6.24,2.38A6.85,6.85,0,0,1,157,67.38l-.1-.14c-.43-.6-.48-.59-.63-.57a38.84,38.84,0,0,1-6.47,0c-3.58-.19-7-.37-10.13,1.18a6.46,6.46,0,0,1-5.62.22c-1.34-.77-2-.61-3.28.63a8.58,8.58,0,0,1-1.35,6.53c-1.41,1.87-3.76,3-7,3.28-1,.09-2,.28-3.12.47-3.55.64-7.58,1.36-11.6-1.31-.68-.45-1.69-.15-3.28.39a13.45,13.45,0,0,1-2.9.76A13.37,13.37,0,0,0,92,84.32l-.19.25c-2.27,2.87-3.91,4.94-3.54,8.25.73,6.42-3.61,9.22-7.45,11.7l-1.3.85a39.65,39.65,0,0,1-7.87,3.77,32.37,32.37,0,0,0-8.34,4.22l-.3.23c-2.91,2.26-4.51,3.51-3.25,7.22,1,3-.72,7-4.17,9.34-1.14.79-2.25,1.61-3.36,2.42-1.42,1.05-2.88,2.12-4.38,3.12-2.58,1.71-5.61,2.19-8.29,2.62l-.43.07c-1.63.26-3.78,1-4.79,2.83-2.73,5.08-6.71,11.49-13.38,15.93a5.88,5.88,0,0,0-1.24,1.4c2.05,3.59.52,6.59-.72,9a15.32,15.32,0,0,0-1.22,2.82,9.74,9.74,0,0,0,1.87,8.47c2.16,2.92,1.1,5.21-.18,6.62-1,1.11-1.25,1.85-.7,3.8a13.73,13.73,0,0,1-.73,9.55c-2.88,6-1.23,11.8.86,17.68A193.72,193.72,0,0,0,27,235.14a4.15,4.15,0,0,0,.48.83,27.87,27.87,0,0,0,2.57,1.8c2.52,1.62,3.72,2.61,3.41,7.11-.56,8.24,1.13,15.55,5,21.73.08.12.16.27.26.43A6.79,6.79,0,0,0,39.33,267.91Zm-20-110h0Z"/><path class="cls-2" d="M48.83,169l-1,2.58H44.15l6-14h3.67l5.9,14H56L55,169Zm3.07-7.88-2,5.18h4Z"/><path class="cls-2" d="M74.54,168.55v3H65v-14H68.6v11Z"/><path class="cls-2" d="M86.71,160.39v11.14H83.15V160.39H79v-2.88h12v2.88Z"/><path class="cls-2" d="M106.23,158.34a6.9,6.9,0,0,1,2.72,2.55,6.79,6.79,0,0,1,1,3.62,7,7,0,0,1-3.71,6.24,8.4,8.4,0,0,1-7.72,0,7.11,7.11,0,0,1-2.72-2.58,6.93,6.93,0,0,1-1-3.66,6.83,6.83,0,0,1,1-3.64,7.05,7.05,0,0,1,2.71-2.54,8.54,8.54,0,0,1,7.73,0Zm-5.8,2.59A4,4,0,0,0,99,162.42a4.17,4.17,0,0,0-.54,2.11,4.26,4.26,0,0,0,.54,2.12,4,4,0,0,0,1.45,1.51,3.74,3.74,0,0,0,2,.55,3.59,3.59,0,0,0,1.95-.55,3.8,3.8,0,0,0,1.41-1.51,4.36,4.36,0,0,0,.53-2.12,4.26,4.26,0,0,0-.53-2.11,3.82,3.82,0,0,0-1.41-1.49,3.67,3.67,0,0,0-1.95-.54A3.82,3.82,0,0,0,100.43,160.93Z"/><path class="cls-2" d="M136.7,171.53l0-9.1-3.36,7.7H131l-3.36-7.7v9.1h-3.19v-14h3.91l3.8,8.34,3.8-8.34h3.87v14Z"/><path class="cls-2" d="M146.65,171.53v-14h3.56v14Z"/><path class="cls-2" d="M166.79,171.53l-6.45-8.62v8.62H157v-14h3.15l6.45,8.64v-8.64h3.32v14Z"/><path class="cls-2" d="M186.08,171.53v-5.44h-5.8v5.44h-3.56v-14h3.56v5.76h5.8v-5.76h3.56v14Z"/><path class="cls-2" d="M206.94,158.34a7,7,0,0,1,2.72,2.55,6.79,6.79,0,0,1,1,3.62,6.93,6.93,0,0,1-1,3.66,7,7,0,0,1-2.72,2.58,8.4,8.4,0,0,1-7.72,0,7.11,7.11,0,0,1-2.72-2.58,6.93,6.93,0,0,1-1-3.66,6.83,6.83,0,0,1,1-3.64,7.05,7.05,0,0,1,2.71-2.54,8.54,8.54,0,0,1,7.73,0Zm-5.8,2.59a4,4,0,0,0-1.45,1.49,4.17,4.17,0,0,0-.54,2.11,4.26,4.26,0,0,0,.54,2.12,4,4,0,0,0,1.45,1.51,3.74,3.74,0,0,0,2,.55,3.59,3.59,0,0,0,1.95-.55,4,4,0,0,0,1.41-1.51,4.36,4.36,0,0,0,.53-2.12,4.26,4.26,0,0,0-.53-2.11,4,4,0,0,0-1.41-1.49,3.67,3.67,0,0,0-1.95-.54A3.82,3.82,0,0,0,201.14,160.93Z"/></svg>