<svg id="Capa_1" enable-background="new 0 0 508.413 508.413" height="512" viewBox="0 0 508.413 508.413" width="512" xmlns="http://www.w3.org/2000/svg"><path d="m506.922 380.591-246.715-329.266c-3.01-4.013-9.018-3.982-12.004 0l-246.714 329.266c-2.328 3.107-1.909 7.608 1.134 10.203l37.181 31.72c28.399 24.228 64.598 37.571 101.928 37.571h224.947c27.166 0 54.007-7.097 77.623-20.523 3.601-2.047 4.86-6.626 2.813-10.227-2.048-3.601-6.626-4.859-10.227-2.813-21.36 12.145-45.638 18.563-70.209 18.563h-224.947c-33.764 0-66.505-12.069-92.192-33.982l-21.702-18.514h32.84c4.142 0 7.5-3.358 7.5-7.5s-3.358-7.5-7.5-7.5h-38.196l224.223-299.249v299.249h-41.463v-48.559c0-3.877-1.726-7.502-4.736-9.945-3.01-2.444-6.916-3.387-10.708-2.591l-68.712 14.436c-5.897 1.238-10.177 6.51-10.177 12.536v34.123h-20.122c-4.142 0-7.5 3.358-7.5 7.5s3.358 7.5 7.5 7.5h389.786l-20.418 17.419c-5.304 4.524-2.062 13.206 4.871 13.206 3.786 0 1.632.963 40.762-32.419 2.997-2.557 3.499-7.047 1.134-10.204zm-316.679-4.315h-64.333v-31.032l64.333-13.516zm129.596 1.313c-9.08 0-16.467-7.387-16.467-16.466s7.387-16.467 16.467-16.467 16.466 7.387 16.466 16.467-7.387 16.466-16.466 16.466zm47.933 0c-9.08 0-16.467-7.387-16.467-16.466s7.387-16.467 16.467-16.467 16.466 7.387 16.466 16.467-7.387 16.466-16.466 16.466zm47.932 0c-9.08 0-16.466-7.387-16.466-16.466s7.387-16.467 16.466-16.467 16.467 7.387 16.467 16.467-7.387 16.466-16.467 16.466zm26.801 0c2.956-4.793 4.666-10.433 4.666-16.466 0-17.351-14.116-31.467-31.467-31.467-9.592 0-18.19 4.319-23.966 11.11-12.613-14.827-35.344-14.798-47.933 0-5.776-6.79-14.374-11.11-23.966-11.11-24.577 0-39.662 27.076-26.801 47.933h-31.333v-24.222c26.275-24.086 44.264-49.575 53.438-75.809 1.367-3.91-.694-8.188-4.604-9.555-3.912-1.369-8.188.694-9.555 4.604-7.141 20.42-20.327 40.523-39.279 59.925v-197.764c28.447 29.99 48.985 69.224 45.279 110.416-.372 4.125 2.671 7.771 6.797 8.143 4.129.366 7.771-2.671 8.143-6.797 4.611-51.17-24.063-100.853-60.218-132.737v-35.453l224.223 299.249z"/></svg>