<svg id="_003-pin" data-name="003-pin" xmlns="http://www.w3.org/2000/svg" width="30" height="30" viewBox="0 0 30 30">
  <g id="Grupo_1412" data-name="Grupo 1412" transform="translate(0 18.999)">
    <g id="Grupo_1411" data-name="Grupo 1411">
      <path id="Caminho_1289" data-name="Caminho 1289" d="M17.031,303.985a.5.5,0,1,0-.062,1c7.2.447,12.031,2.688,12.031,4.5,0,2.129-5.75,4.5-14,4.5s-14-2.371-14-4.5c0-1.812,4.834-4.053,12.031-4.5a.5.5,0,1,0-.062-1C6.524,304.385,0,306.4,0,309.485c0,3.443,7.627,5.5,15,5.5s15-2.057,15-5.5C30,306.4,23.476,304.385,17.031,303.985Z" transform="translate(0 -303.984)" fill="#00829b"/>
    </g>
  </g>
  <g id="Grupo_1414" data-name="Grupo 1414" transform="translate(7)">
    <g id="Grupo_1413" data-name="Grupo 1413">
      <path id="Caminho_1290" data-name="Caminho 1290" d="M128,17.445l-.5-4.5a.5.5,0,0,0-.5-.445h-1.05L125.054,4h.445a.5.5,0,0,0,.493-.418l.5-3A.5.5,0,0,0,126,0H114a.5.5,0,0,0-.493.582l.5,3A.5.5,0,0,0,114.5,4h.445l-.895,8.5H113a.5.5,0,0,0-.5.445l-.5,4.5a.5.5,0,0,0,.442.552.505.505,0,0,0,.055,0h7v6.5a.5.5,0,0,0,1,0V18h7a.5.5,0,0,0,.5-.5A.506.506,0,0,0,128,17.445ZM114.922,3l-.333-2h10.819l-.333,2Zm10.021,9.5h-9.889l.895-8.5h8.1ZM113.057,17l.389-3.5h13.1l.389,3.5Z" transform="translate(-111.999)" fill="#00829b"/>
    </g>
  </g>
</svg>
