<svg xmlns="http://www.w3.org/2000/svg" width="29.998" height="30" viewBox="0 0 29.998 30">
  <g id="_010-gallery" data-name="010-gallery" transform="translate(-0.002)">
    <g id="Grupo_1420" data-name="Grupo 1420" transform="translate(0.001)">
      <g id="Grupo_1419" data-name="Grupo 1419" transform="translate(0)">
        <path id="Caminho_1293" data-name="Caminho 1293" d="M30,15.5V.5a.5.5,0,0,0-.5-.5H6.5A.5.5,0,0,0,6,.5V6H.5a.5.5,0,0,0-.5.5v15a.5.5,0,0,0,.5.5h4a.492.492,0,0,0,.112-.022l2.92,7.7a.5.5,0,0,0,.645.29l.005,0,21.5-8.5a.5.5,0,0,0,.282-.648v0L28.074,16H29.5A.5.5,0,0,0,30,15.5ZM1,21V7H22.567L19.88,8H2.5a.5.5,0,0,0-.5.5v11a.5.5,0,0,0,.5.5H3.863l.379,1ZM23.5,6H9V3H27V13H26.9L24.466,6.817A.5.5,0,0,0,24,6.5v0A.5.5,0,0,0,23.5,6ZM6.468,10.052A2,2,0,0,0,4.819,13.6L3,14.28V9H17.192L7.951,12.439A1.988,1.988,0,0,0,6.468,10.052ZM7,12a1,1,0,1,1-1-1A1,1,0,0,1,7,12ZM3.483,19H3V17.728Zm25.37,1.718L8.288,28.85,3.147,15.293,23.715,7.64ZM29,15h-1.32l-.393-1H27.5a.5.5,0,0,0,.5-.5V2.5a.5.5,0,0,0-.5-.5H8.5a.5.5,0,0,0-.5.5V6H7V1H29Z" transform="translate(-0.001)" fill="#00829b"/>
      </g>
    </g>
    <g id="Grupo_1422" data-name="Grupo 1422" transform="translate(4.499 8.999)">
      <g id="Grupo_1421" data-name="Grupo 1421">
        <path id="Caminho_1294" data-name="Caminho 1294" d="M94.941,154.812l-.477-1.25a.489.489,0,0,0-.167-.439l-3.355-8.81a.5.5,0,0,0-.645-.29l-.005,0-18,7a.5.5,0,0,0-.286.644l4,10.5a.5.5,0,0,0,.469.322.49.49,0,0,0,.181-.034l18-7A.5.5,0,0,0,94.941,154.812Zm-17.364-1.627a.5.5,0,0,0-.1.274l-.487,7.795-.226.088-3.644-9.565,17.068-6.636,2.753,7.225-5.228-2.815a.5.5,0,0,0-.737.44v1.065l-3.722-2.481a.5.5,0,0,0-.773.35l-.895,6.711-3.3-2.541A.5.5,0,0,0,77.578,153.185Zm.437,7.669.4-6.395L83.8,158.6Zm6.849-2.663a.47.47,0,0,0-.085-.1L82.5,156.34l.865-6.489,3.833,2.555a.5.5,0,0,0,.777-.417v-1.163l5.509,2.966.347.91Z" transform="translate(-71.972 -143.99)" fill="#00829b"/>
      </g>
    </g>
  </g>
</svg>
