<svg id="_017-compass" data-name="017-compass" xmlns="http://www.w3.org/2000/svg" width="30" height="30" viewBox="0 0 30 30">
  <g id="Grupo_1424" data-name="Grupo 1424">
    <g id="Grupo_1423" data-name="Grupo 1423">
      <path id="Caminho_1295" data-name="Caminho 1295" d="M15,0A15,15,0,1,0,30,15,15,15,0,0,0,15,0Zm0,29A14,14,0,1,1,29,15,14,14,0,0,1,15,29Z" fill="#00829b"/>
    </g>
  </g>
  <g id="Grupo_1426" data-name="Grupo 1426" transform="translate(3 3)">
    <g id="Grupo_1425" data-name="Grupo 1425">
      <path id="Caminho_1296" data-name="Caminho 1296" d="M60,48A12,12,0,1,0,72,60,12,12,0,0,0,60,48Zm.5,22.988V68.5a.5.5,0,0,0-1,0v2.488A11.013,11.013,0,0,1,49.013,60.5H51.5a.5.5,0,0,0,0-1H49.013A11.013,11.013,0,0,1,59.5,49.013V51.5a.5.5,0,0,0,1,0V49.013A11.013,11.013,0,0,1,70.988,59.5H68.5a.5.5,0,0,0,0,1h2.488A11.013,11.013,0,0,1,60.5,70.988Z" transform="translate(-48 -48)" fill="#00829b"/>
    </g>
  </g>
  <g id="Grupo_1428" data-name="Grupo 1428" transform="translate(8.5 8.499)">
    <g id="Grupo_1427" data-name="Grupo 1427">
      <path id="Caminho_1297" data-name="Caminho 1297" d="M148.959,148.3l-3.5-8.5s-.005-.008-.007-.012a.531.531,0,0,0-.029-.05.492.492,0,0,0-.035-.053c-.012-.014-.025-.027-.038-.04a.5.5,0,0,0-.048-.045.527.527,0,0,0-.05-.031.472.472,0,0,0-.056-.032s-.008,0-.012-.007l-8.5-3.5a.5.5,0,0,0-.653.653l3.5,8.5s.005.008.007.012a.526.526,0,0,0,.029.05.307.307,0,0,0,.073.094.5.5,0,0,0,.047.045.4.4,0,0,0,.05.031.515.515,0,0,0,.056.031s.008.005.012.007l8.5,3.5a.5.5,0,0,0,.653-.653Zm-11.545-10.889,6.7,2.758-3.939,3.939Zm3.464,7.4,3.939-3.939,2.757,6.7Z" transform="translate(-135.994 -135.992)" fill="#00829b"/>
    </g>
  </g>
</svg>
