<svg xmlns="http://www.w3.org/2000/svg" width="15.689" height="29.894" viewBox="0 0 15.689 29.894">
  <g id="icon" transform="translate(-121.637)">
    <path id="Caminho_308" data-name="Caminho 308" d="M133.544,6.5h2.724a1.06,1.06,0,0,0,1.058-1.058V1.062A1.06,1.06,0,0,0,136.268,0h-3.741c-.036,0-.1,0-.185,0a7.808,7.808,0,0,0-5.107,1.93A5.534,5.534,0,0,0,125.4,6.8V9.653H122.7a1.06,1.06,0,0,0-1.058,1.058V15.42a1.06,1.06,0,0,0,1.058,1.059h2.551V28.835a1.06,1.06,0,0,0,1.058,1.058h5.335a1.06,1.06,0,0,0,1.058-1.058v-12.3h3.021a1.058,1.058,0,0,0,1.051-.937l.549-4.769a1.058,1.058,0,0,0-1.051-1.18H132.7V7.26C132.7,6.765,132.833,6.5,133.544,6.5ZM132.1,10.845h4.017l-.519,4.5h-3.5a.6.6,0,0,0-.6.6V28.7h-5.07V15.883a.6.6,0,0,0-.6-.6h-3.014V10.844H126a.6.6,0,0,0,.6-.6v-3.5a.6.6,0,0,0-.009-.1,4.311,4.311,0,0,1,1.457-3.845,6.58,6.58,0,0,1,4.3-1.616c.084,0,.133,0,.143,0h3.651V5.306h-2.591a1.835,1.835,0,0,0-2.038,1.953v2.989A.6.6,0,0,0,132.1,10.845Z" transform="translate(0)" fill="#00829b"/>
    <path id="Caminho_309" data-name="Caminho 309" d="M214.778,343.713a.6.6,0,0,0-.6.6v.3a.6.6,0,1,0,1.191,0v-.3A.6.6,0,0,0,214.778,343.713Z" transform="translate(-87.143 -323.645)" fill="#00829b"/>
    <path id="Caminho_310" data-name="Caminho 310" d="M214.778,381.45a.6.6,0,0,0-.6.6v4.526a.6.6,0,1,0,1.191,0v-4.526A.6.6,0,0,0,214.778,381.45Z" transform="translate(-87.143 -359.179)" fill="#00829b"/>
  </g>
</svg>
