<svg xmlns="http://www.w3.org/2000/svg" width="23.916" height="30.104" viewBox="0 0 23.916 30.104">
  <g id="icon" transform="translate(-1261.5 -4814.132)">
    <path id="Caminho_318" data-name="Caminho 318" d="M73.407,3.129h0A11.68,11.68,0,0,0,65.239,0a12.773,12.773,0,0,0-9.415,3.644,10.844,10.844,0,0,0-3.2,7.519c0,3.47,1.485,6.147,3.972,7.16a1.788,1.788,0,0,0,.68.138,1.556,1.556,0,0,0,1.223-.576c-.471,2-.972,4.115-1.124,4.756a23.109,23.109,0,0,0-.451,3.556c-.1,2.319.35,3.58,1.366,3.852a1.555,1.555,0,0,0,.4.055c.951,0,1.877-.91,2.756-2.714a21.976,21.976,0,0,0,1.244-3.277c.1-.372.4-1.516.682-2.646a6.337,6.337,0,0,0,3.375,1A8.9,8.9,0,0,0,73.9,18.894a14.011,14.011,0,0,0,2.636-8.569A10.059,10.059,0,0,0,73.407,3.129ZM57.9,11.564a6.638,6.638,0,0,1,6.891-6.673c3.543,0,5.659,1.916,5.659,5.126a11.3,11.3,0,0,1-1.273,5.514,3.443,3.443,0,0,1-2.787,2.013,1.6,1.6,0,0,1-1.273-.57,1.4,1.4,0,0,1-.238-1.232c.168-.711.4-1.46.625-2.188a14.08,14.08,0,0,0,.831-3.792,3.228,3.228,0,0,0-3.245-3.491c-2.347,0-4.185,2.306-4.185,5.249a7.68,7.68,0,0,0,.466,2.647l-.1.418-.073.308a2.162,2.162,0,0,0-.486-.846A3.589,3.589,0,0,1,57.9,11.564Zm15.05,6.6a7.73,7.73,0,0,1-6.2,3.109,5,5,0,0,1-3.313-1.274.6.6,0,0,0-1,.285c-.49,1.934-.8,3.15-.9,3.516a20.819,20.819,0,0,1-1.166,3.07c-.8,1.633-1.452,2.112-1.772,2.026-.2-.054-.561-.676-.479-2.644a22,22,0,0,1,.42-3.33c.251-1.059,1.451-6.143,1.9-8.056l.142-.6a.6.6,0,0,0-.031-.369,6.31,6.31,0,0,1-.447-2.37c0-2.271,1.312-4.049,2.986-4.049a2.041,2.041,0,0,1,2.045,2.292,13.44,13.44,0,0,1-.779,3.443c-.23.743-.467,1.511-.644,2.262a2.593,2.593,0,0,0,.465,2.252,2.788,2.788,0,0,0,2.214,1.025,4.468,4.468,0,0,0,3.827-2.615,12.5,12.5,0,0,0,1.432-6.111,6.071,6.071,0,0,0-1.876-4.63,7.222,7.222,0,0,0-4.982-1.7A7.876,7.876,0,0,0,58.782,6.2,8.015,8.015,0,0,0,56.7,11.564a4.768,4.768,0,0,0,1.1,3.258c.263.309.305.4.2.773l0,.011-.013.053c-.079.315-.243.971-.314,1.24a.426.426,0,0,1-.4.362.6.6,0,0,1-.226-.049c-2.02-.823-3.226-3.085-3.226-6.05a9.637,9.637,0,0,1,2.857-6.676A11.6,11.6,0,0,1,65.239,1.2a10.488,10.488,0,0,1,7.337,2.795,8.855,8.855,0,0,1,2.762,6.331A12.815,12.815,0,0,1,72.953,18.159Z" transform="translate(1208.879 4814.132)" fill="#00829b"/>
    <path id="Caminho_319" data-name="Caminho 319" d="M215.613,206.86a.6.6,0,0,0-.745.4l-.66,2.23a.6.6,0,1,0,1.15.34l.66-2.23A.6.6,0,0,0,215.613,206.86Z" transform="translate(1056.816 4619.459)" fill="#00829b"/>
    <path id="Caminho_320" data-name="Caminho 320" d="M234.951,172.38a.6.6,0,0,0-.745.4l-.089.3a.6.6,0,1,0,1.15.34l.089-.3A.6.6,0,0,0,234.951,172.38Z" transform="translate(1038.078 4651.912)" fill="#00829b"/>
  </g>
</svg>
