<svg xmlns="http://www.w3.org/2000/svg" width="36.321" height="30" viewBox="0 0 36.321 30">
  <g id="icon" transform="translate(0 -44.552)">
    <path id="Caminho_328" data-name="Caminho 328" d="M36.021,48.258a1.292,1.292,0,0,0-1.119-.451,8.2,8.2,0,0,0,.427-1.071,1.286,1.286,0,0,0-1.881-1.5,12.56,12.56,0,0,1-3.345,1.38,8.213,8.213,0,0,0-13.66,6.144q0,.076,0,.152A18.53,18.53,0,0,1,4.634,46.293a1.286,1.286,0,0,0-2.108.165,8.223,8.223,0,0,0-.251,7.794A1.274,1.274,0,0,0,2,54.368a1.293,1.293,0,0,0-.646,1.085c0,.039,0,.078,0,.118a8.261,8.261,0,0,0,2.716,6.1,1.292,1.292,0,0,0-.227,1.2,8.243,8.243,0,0,0,4.377,4.946,12.647,12.647,0,0,1-5.284,1.148,12.81,12.81,0,0,1-1.5-.088,1.286,1.286,0,0,0-.846,2.36A20.912,20.912,0,0,0,11.9,74.552,20.127,20.127,0,0,0,27.492,67.7a21.682,21.682,0,0,0,5.4-14.132q0-.135,0-.27a15.29,15.29,0,0,0,3.22-3.495A1.292,1.292,0,0,0,36.021,48.258Zm-4.3,4.11a.724.724,0,0,0-.288.6c.006.2.009.4.009.6A20.216,20.216,0,0,1,26.407,66.74,18.717,18.717,0,0,1,11.9,73.1a19.464,19.464,0,0,1-9.944-2.726c.326.022.654.034.982.034A14.039,14.039,0,0,0,10.4,68.282a.724.724,0,0,0-.225-1.319,6.788,6.788,0,0,1-4.867-4.279c.121.018.242.034.363.046a.724.724,0,0,0,.442-1.341,6.812,6.812,0,0,1-3.309-5.635,7.1,7.1,0,0,0,.875.371.724.724,0,0,0,.788-1.153,6.775,6.775,0,0,1-.807-7.581,19.973,19.973,0,0,0,13.5,7.061.723.723,0,0,0,.781-.812,6.94,6.94,0,0,1-.055-.876,6.766,6.766,0,0,1,11.5-4.833.723.723,0,0,0,.661.189A13.992,13.992,0,0,0,33.808,46.7a6.693,6.693,0,0,1-1.227,2.006.724.724,0,0,0,.743,1.174c.427-.123.85-.268,1.264-.432A13.821,13.821,0,0,1,31.72,52.368Z" transform="translate(0 0)" fill="#00829b"/>
    <path id="Caminho_329" data-name="Caminho 329" d="M68.586,139.192c-.146-.109-.292-.222-.434-.334a.694.694,0,0,0-.864,1.086c.152.121.31.242.468.36a.694.694,0,0,0,.83-1.112Z" transform="translate(-62.466 -87.458)" fill="#00829b"/>
    <path id="Caminho_330" data-name="Caminho 330" d="M109.947,164.494a17.752,17.752,0,0,1-7.167-2.238.694.694,0,1,0-.686,1.207,19.149,19.149,0,0,0,7.731,2.414l.062,0a.694.694,0,0,0,.06-1.385Z" transform="translate(-94.425 -109.219)" fill="#00829b"/>
  </g>
</svg>
