<svg xmlns="http://www.w3.org/2000/svg" width="34.562" height="30" viewBox="0 0 34.562 30">
  <g id="icon" transform="translate(0.001 -33.788)">
    <path id="Caminho_321" data-name="Caminho 321" d="M33.658,35.478c-1.589-2.01-4.821-1.759-6.136-1.557a10.607,10.607,0,0,0-4.159,2.015A11.987,11.987,0,0,0,19.111,41.8a.688.688,0,0,0,.707.9c1.663-.126,2.557.006,2.989.443a2.821,2.821,0,0,1,.409,2.208,11.187,11.187,0,0,1-1.463,3.931l-.058.108c-.508.946-1.453,2.706-2.376,2.826a1.371,1.371,0,0,1-1.092-.577c-1.3-1.392-1.558-3.911-1.784-6.133-.077-.757-.15-1.471-.259-2.124-.034-.205-.069-.418-.1-.635a30.778,30.778,0,0,0-.905-4.277c-.452-1.417-1.508-3.226-2.993-3.66a5.8,5.8,0,0,0-4.247.808,33.246,33.246,0,0,0-5.213,4.049c-.8.712-1.625,1.449-2.463,2.116a.689.689,0,0,0-.195.83l.066.142c.391.842.76,1.638,1.817,1.791a4.8,4.8,0,0,0,2.163-.311c1.07-.334,1.428-.405,1.851.308a10.244,10.244,0,0,1,.917,2.391c.118.4.239.819.385,1.237.578,1.645,1.03,3.451,1.507,5.362l.017.069c.058.234.118.475.178.723.82,3.348,1.944,7.933,4.914,9.191a3.727,3.727,0,0,0,1.462.272,8.413,8.413,0,0,0,3.913-1.18,27.253,27.253,0,0,0,7.541-7.148l.007-.009a47.965,47.965,0,0,0,7.609-15.518v-.008A5.34,5.34,0,0,0,33.658,35.478Zm-.6,4.2A47.276,47.276,0,0,1,25.7,54.629a25.278,25.278,0,0,1-7.145,6.795c-.98.581-2.969,1.319-4.135.824C12.083,61.26,11.054,57.062,10.3,54q-.092-.375-.18-.729l-.017-.069c-.486-1.943-.945-3.779-1.544-5.484-.134-.383-.25-.781-.363-1.167a11.454,11.454,0,0,0-1.054-2.705A2.158,2.158,0,0,0,5.2,42.617a5.13,5.13,0,0,0-1.5.3,3.654,3.654,0,0,1-1.553.263c-.232-.034-.345-.139-.6-.667.718-.592,1.417-1.215,2.1-1.821A32.193,32.193,0,0,1,8.633,36.8a4.5,4.5,0,0,1,3.162-.673c.86.251,1.692,1.577,2.068,2.757a29.765,29.765,0,0,1,.858,4.079q.053.329.105.641c.1.61.173,1.3.248,2.037.248,2.439.53,5.2,2.148,6.934a2.63,2.63,0,0,0,2.275,1c1.624-.211,2.7-2.214,3.411-3.54l.058-.107a12.351,12.351,0,0,0,1.622-4.463,3.948,3.948,0,0,0-.8-3.3,4.046,4.046,0,0,0-3.007-.9,10.862,10.862,0,0,1,6.951-5.994c1.733-.265,3.916-.129,4.849,1.051A4.03,4.03,0,0,1,33.057,39.679Z" transform="translate(0 0)" fill="#00829b"/>
    <path id="Caminho_322" data-name="Caminho 322" d="M341.7,77.265a.665.665,0,0,0-.9-.26,10.34,10.34,0,0,0-3.027,2.533.665.665,0,1,0,1.038.833,9,9,0,0,1,2.634-2.2A.665.665,0,0,0,341.7,77.265Z" transform="translate(-314.724 -40.32)" fill="#00829b"/>
    <path id="Caminho_323" data-name="Caminho 323" d="M411.939,64.967a.665.665,0,0,0-.7-.631,9.173,9.173,0,0,0-.92.094.665.665,0,1,0,.2,1.316,7.831,7.831,0,0,1,.786-.08A.665.665,0,0,0,411.939,64.967Z" transform="translate(-381.865 -28.554)" fill="#00829b"/>
  </g>
</svg>
