<svg xmlns="http://www.w3.org/2000/svg" width="41.925" height="30" viewBox="0 0 41.925 30">
  <g id="icon" transform="translate(0 -72.816)">
    <path id="Caminho_325" data-name="Caminho 325" d="M40.16,75.545h0c-1.631-1.939-4.5-2.729-9.9-2.729h-18.6c-5.529,0-8.447.842-10.073,2.908C0,77.744,0,80.507,0,84.331V91.3c0,3.141.265,6.351,2.188,8.547,1.774,2.025,4.784,2.969,9.475,2.969h18.6c4.681,0,7.311-.689,9.075-2.378,1.814-1.736,2.588-4.469,2.588-9.138V84.331C41.925,80.291,41.8,77.5,40.16,75.545ZM40.255,91.3c0,4.169-.62,6.54-2.073,7.931-1.421,1.36-3.715,1.914-7.92,1.914h-18.6c-8.55,0-9.993-3.037-9.993-9.845V84.332c0-3.488,0-6.009,1.232-7.575,1.269-1.613,3.807-2.271,8.76-2.271h18.6c4.848,0,7.345.618,8.62,2.134h0c1.277,1.518,1.373,4.039,1.373,7.711Z" fill="#00829b"/>
    <path id="Caminho_326" data-name="Caminho 326" d="M323.658,387.57h-.645a.717.717,0,1,0,0,1.434h.645a.717.717,0,0,0,0-1.434Z" transform="translate(-295.675 -288.383)" fill="#00829b"/>
    <path id="Caminho_324" data-name="Caminho 324" d="M199.2,178.074l-7.252-3.766a1.832,1.832,0,0,0-2.677,1.626v7.556a1.832,1.832,0,0,0,2.681,1.624l7.252-3.79a1.832,1.832,0,0,0,0-3.25Zm-.66,1.979h0l-7.252,3.79a.405.405,0,0,1-.39-.012.4.4,0,0,1-.192-.341v-7.556a.4.4,0,0,1,.581-.353l7.252,3.766a.4.4,0,0,1,0,.706Z" transform="translate(-172.818 -92.089)" fill="#00829b"/>
    <path id="Caminho_327" data-name="Caminho 327" d="M133.419,387.57H122.088a.717.717,0,0,0,0,1.434h11.331a.717.717,0,0,0,0-1.434Z" transform="translate(-110.661 -288.383)" fill="#00829b"/>
  </g>
</svg>
